<svg width="110" height="32" viewBox="0 0 110 32" fill="none" xmlns="http://www.w3.org/2000/svg">
<rect width="110" height="32" rx="4" fill="#337EFF"/>
<path d="M48.336 16.38H50.142V18.172H48.322C48.322 18.046 48.336 17.92 48.336 17.808V16.38ZM48.252 19.054H50.142V22.148H51.052V19.054H52.928V20.93C52.928 21.21 52.788 21.364 52.508 21.364C52.2 21.364 51.878 21.336 51.528 21.308L51.766 22.218H52.802C53.516 22.218 53.88 21.896 53.88 21.266V12.88H51.528C51.948 12.46 52.368 11.928 52.788 11.312V10.598H49.414C49.554 10.318 49.708 10.038 49.848 9.744L48.882 9.534C48.168 10.99 47.258 12.18 46.152 13.09L46.782 13.832C46.978 13.664 47.188 13.468 47.398 13.272V17.864C47.37 19.404 47.02 20.692 46.32 21.7L47.048 22.358C47.692 21.462 48.084 20.37 48.252 19.054ZM50.436 12.88H47.776C48.168 12.446 48.546 11.97 48.896 11.452H51.626C51.234 11.984 50.842 12.46 50.436 12.88ZM52.928 18.172H51.052V16.38H52.928V18.172ZM52.928 15.484H51.052V13.776H52.928V15.484ZM50.142 13.776V15.484H48.336V13.776H50.142ZM41.938 10.346V11.326H43.52C43.198 13.356 42.54 15.162 41.532 16.744L42.12 17.682C42.372 17.29 42.624 16.884 42.862 16.45V21.938H43.814V20.874H46.264V14.504H43.716C44.052 13.524 44.318 12.46 44.5 11.326H46.614V10.346H41.938ZM43.814 19.964V15.428H45.34V19.964H43.814ZM57.898 13.72V14.672H61.566V20.776C61.426 20.748 61.286 20.706 61.16 20.664C60.152 20.342 59.312 19.586 58.64 18.382C58.892 17.654 59.116 16.856 59.284 15.988L58.304 15.82C57.828 18.228 56.932 20.146 55.588 21.574L56.232 22.372C57.03 21.56 57.702 20.552 58.248 19.348C58.822 20.258 59.578 20.93 60.502 21.364C61.734 21.882 63.75 22.148 66.578 22.148H68.146L68.328 21.14C67.572 21.196 66.844 21.224 66.13 21.224C64.73 21.21 63.554 21.126 62.574 20.986V18.088H66.746V17.136H62.574V14.672H66.13V13.72H57.898ZM67.726 10.99H62.644C62.448 10.416 62.224 9.898 62 9.436L60.922 9.604C61.174 10.024 61.412 10.486 61.622 10.99H56.274V14.042H57.254V11.914H66.746V13.972H67.726V10.99Z" fill="white"/>
</svg>
