<svg width="110" height="34" viewBox="0 0 110 34" fill="none" xmlns="http://www.w3.org/2000/svg">
<rect x="0.5" y="0.5" width="109" height="33" rx="1.5" stroke="#CED6E3"/>
<path d="M31.008 12.004V22H32.156V17.912H35.082C37.378 17.912 38.54 16.918 38.54 14.944C38.54 12.984 37.392 12.004 35.096 12.004H31.008ZM32.156 12.998H35.026C35.824 12.998 36.412 13.152 36.804 13.488C37.196 13.782 37.392 14.272 37.392 14.944C37.392 15.616 37.196 16.106 36.818 16.428C36.426 16.75 35.838 16.918 35.026 16.918H32.156V12.998ZM43.0284 14.566C42.5244 14.566 42.0904 14.72 41.7124 15.028C41.4044 15.266 41.1524 15.602 40.9564 16.022V14.762H39.8504V22H40.9564V18.164C40.9564 17.492 41.1384 16.918 41.5304 16.442C41.9084 15.938 42.3844 15.7 42.9444 15.7C43.2944 15.7 43.6584 15.742 44.0224 15.854V14.734C43.7564 14.622 43.4204 14.566 43.0284 14.566ZM45.8877 12.032C45.6497 12.032 45.4537 12.102 45.2857 12.27C45.1177 12.41 45.0477 12.606 45.0477 12.858C45.0477 13.096 45.1177 13.292 45.2857 13.46C45.4537 13.614 45.6497 13.698 45.8877 13.698C46.1257 13.698 46.3217 13.614 46.4897 13.46C46.6577 13.292 46.7417 13.096 46.7417 12.858C46.7417 12.606 46.6577 12.41 46.4897 12.27C46.3217 12.102 46.1257 12.032 45.8877 12.032ZM45.3277 14.762V22H46.4477V14.762H45.3277ZM51.7097 14.566C50.8977 14.566 50.2117 14.944 49.6657 15.728V14.762H48.5457V22H49.6657V17.59C49.6657 17.016 49.8337 16.526 50.1697 16.134C50.5057 15.714 50.9257 15.518 51.4437 15.518C52.5497 15.518 53.1097 16.148 53.1097 17.436V22H54.2297V17.464C54.2297 16.876 54.3837 16.414 54.7197 16.05C55.0277 15.686 55.4337 15.518 55.9097 15.518C56.5257 15.518 56.9737 15.672 57.2537 16.008C57.5197 16.316 57.6597 16.792 57.6597 17.436V22H58.7797V17.254C58.7797 16.428 58.5417 15.77 58.0937 15.28C57.6177 14.804 57.0157 14.566 56.2597 14.566C55.7557 14.566 55.3357 14.678 54.9857 14.902C54.5937 15.112 54.2577 15.462 53.9777 15.938C53.5717 15.014 52.8157 14.566 51.7097 14.566ZM63.6723 14.566C62.8043 14.566 62.1183 14.734 61.5863 15.07C60.9983 15.434 60.6203 16.008 60.4663 16.764L61.5723 16.848C61.6843 16.386 61.9223 16.036 62.3003 15.812C62.6363 15.588 63.0703 15.49 63.6023 15.49C64.8623 15.49 65.4923 16.092 65.4923 17.31V17.688L63.7563 17.716C62.6643 17.73 61.8243 17.94 61.2363 18.332C60.5643 18.752 60.2423 19.368 60.2423 20.194C60.2423 20.782 60.4663 21.272 60.9143 21.65C61.3483 22.014 61.9223 22.196 62.6503 22.196C63.3223 22.196 63.9243 22.042 64.4563 21.748C64.9043 21.496 65.2823 21.174 65.5623 20.782V22H66.6123V17.352C66.6123 16.512 66.3883 15.854 65.9683 15.378C65.4643 14.832 64.7083 14.566 63.6723 14.566ZM65.4923 18.528V19.144C65.4923 19.704 65.2263 20.208 64.7083 20.642C64.1763 21.09 63.5743 21.314 62.8883 21.314C62.4403 21.314 62.0763 21.202 61.7963 20.992C61.5163 20.768 61.3903 20.502 61.3903 20.166C61.3903 19.116 62.2023 18.584 63.8263 18.556L65.4923 18.528ZM71.5206 14.566C71.0166 14.566 70.5826 14.72 70.2046 15.028C69.8966 15.266 69.6446 15.602 69.4486 16.022V14.762H68.3426V22H69.4486V18.164C69.4486 17.492 69.6306 16.918 70.0226 16.442C70.4006 15.938 70.8766 15.7 71.4366 15.7C71.7866 15.7 72.1506 15.742 72.5146 15.854V14.734C72.2486 14.622 71.9126 14.566 71.5206 14.566ZM72.6579 14.762L75.5279 21.832L74.2819 24.772H75.4999L79.4619 14.762H78.2299L76.0879 20.474L73.8759 14.762H72.6579Z" fill="#666666"/>
</svg>
