<svg width="110" height="34" viewBox="0 0 110 34" fill="none" xmlns="http://www.w3.org/2000/svg">
<rect x="0.5" y="0.5" width="109" height="33" rx="1.5" stroke="#CED6E3"/>
<path d="M48.336 17.38H50.142V19.172H48.322C48.322 19.046 48.336 18.92 48.336 18.808V17.38ZM48.252 20.054H50.142V23.148H51.052V20.054H52.928V21.93C52.928 22.21 52.788 22.364 52.508 22.364C52.2 22.364 51.878 22.336 51.528 22.308L51.766 23.218H52.802C53.516 23.218 53.88 22.896 53.88 22.266V13.88H51.528C51.948 13.46 52.368 12.928 52.788 12.312V11.598H49.414C49.554 11.318 49.708 11.038 49.848 10.744L48.882 10.534C48.168 11.99 47.258 13.18 46.152 14.09L46.782 14.832C46.978 14.664 47.188 14.468 47.398 14.272V18.864C47.37 20.404 47.02 21.692 46.32 22.7L47.048 23.358C47.692 22.462 48.084 21.37 48.252 20.054ZM50.436 13.88H47.776C48.168 13.446 48.546 12.97 48.896 12.452H51.626C51.234 12.984 50.842 13.46 50.436 13.88ZM52.928 19.172H51.052V17.38H52.928V19.172ZM52.928 16.484H51.052V14.776H52.928V16.484ZM50.142 14.776V16.484H48.336V14.776H50.142ZM41.938 11.346V12.326H43.52C43.198 14.356 42.54 16.162 41.532 17.744L42.12 18.682C42.372 18.29 42.624 17.884 42.862 17.45V22.938H43.814V21.874H46.264V15.504H43.716C44.052 14.524 44.318 13.46 44.5 12.326H46.614V11.346H41.938ZM43.814 20.964V16.428H45.34V20.964H43.814ZM57.898 14.72V15.672H61.566V21.776C61.426 21.748 61.286 21.706 61.16 21.664C60.152 21.342 59.312 20.586 58.64 19.382C58.892 18.654 59.116 17.856 59.284 16.988L58.304 16.82C57.828 19.228 56.932 21.146 55.588 22.574L56.232 23.372C57.03 22.56 57.702 21.552 58.248 20.348C58.822 21.258 59.578 21.93 60.502 22.364C61.734 22.882 63.75 23.148 66.578 23.148H68.146L68.328 22.14C67.572 22.196 66.844 22.224 66.13 22.224C64.73 22.21 63.554 22.126 62.574 21.986V19.088H66.746V18.136H62.574V15.672H66.13V14.72H57.898ZM67.726 11.99H62.644C62.448 11.416 62.224 10.898 62 10.436L60.922 10.604C61.174 11.024 61.412 11.486 61.622 11.99H56.274V15.042H57.254V12.914H66.746V14.972H67.726V11.99Z" fill="#666666"/>
</svg>
