<svg width="80" height="32" viewBox="0 0 80 32" fill="none" xmlns="http://www.w3.org/2000/svg">
<rect x="0.5" y="0.5" width="79" height="31" rx="3.5" fill="white"/>
<path d="M33.336 16.38H35.142V18.172H33.322C33.322 18.046 33.336 17.92 33.336 17.808V16.38ZM33.252 19.054H35.142V22.148H36.052V19.054H37.928V20.93C37.928 21.21 37.788 21.364 37.508 21.364C37.2 21.364 36.878 21.336 36.528 21.308L36.766 22.218H37.802C38.516 22.218 38.88 21.896 38.88 21.266V12.88H36.528C36.948 12.46 37.368 11.928 37.788 11.312V10.598H34.414C34.554 10.318 34.708 10.038 34.848 9.744L33.882 9.534C33.168 10.99 32.258 12.18 31.152 13.09L31.782 13.832C31.978 13.664 32.188 13.468 32.398 13.272V17.864C32.37 19.404 32.02 20.692 31.32 21.7L32.048 22.358C32.692 21.462 33.084 20.37 33.252 19.054ZM35.436 12.88H32.776C33.168 12.446 33.546 11.97 33.896 11.452H36.626C36.234 11.984 35.842 12.46 35.436 12.88ZM37.928 18.172H36.052V16.38H37.928V18.172ZM37.928 15.484H36.052V13.776H37.928V15.484ZM35.142 13.776V15.484H33.336V13.776H35.142ZM26.938 10.346V11.326H28.52C28.198 13.356 27.54 15.162 26.532 16.744L27.12 17.682C27.372 17.29 27.624 16.884 27.862 16.45V21.938H28.814V20.874H31.264V14.504H28.716C29.052 13.524 29.318 12.46 29.5 11.326H31.614V10.346H26.938ZM28.814 19.964V15.428H30.34V19.964H28.814ZM42.898 13.72V14.672H46.566V20.776C46.426 20.748 46.286 20.706 46.16 20.664C45.152 20.342 44.312 19.586 43.64 18.382C43.892 17.654 44.116 16.856 44.284 15.988L43.304 15.82C42.828 18.228 41.932 20.146 40.588 21.574L41.232 22.372C42.03 21.56 42.702 20.552 43.248 19.348C43.822 20.258 44.578 20.93 45.502 21.364C46.734 21.882 48.75 22.148 51.578 22.148H53.146L53.328 21.14C52.572 21.196 51.844 21.224 51.13 21.224C49.73 21.21 48.554 21.126 47.574 20.986V18.088H51.746V17.136H47.574V14.672H51.13V13.72H42.898ZM52.726 10.99H47.644C47.448 10.416 47.224 9.898 47 9.436L45.922 9.604C46.174 10.024 46.412 10.486 46.622 10.99H41.274V14.042H42.254V11.914H51.746V13.972H52.726V10.99Z" fill="#666666"/>
<rect x="0.5" y="0.5" width="79" height="31" rx="3.5" stroke="#E1E3E5"/>
</svg>
