<svg width="138" height="34" viewBox="0 0 138 34" fill="none" xmlns="http://www.w3.org/2000/svg">
<rect width="138" height="34" rx="2" fill="#5A89E1"/>
<path d="M58.006 15.952V18.472C58.006 18.85 57.81 19.046 57.446 19.046C57.026 19.046 56.55 19.018 56.018 18.962L56.27 19.914C56.76 19.942 57.278 19.956 57.81 19.956C58.58 19.928 58.972 19.536 58.986 18.78V15.056H54.002V22.084C54.002 22.798 54.38 23.162 55.164 23.162H58.496C59.154 23.162 59.602 23.05 59.826 22.826C60.078 22.546 60.26 21.818 60.358 20.628L59.406 20.32C59.35 21.09 59.252 21.608 59.126 21.874C59.014 22.098 58.706 22.224 58.23 22.224H55.556C55.192 22.224 55.024 22.056 55.024 21.734V15.952H58.006ZM56.228 10.688C55.108 12.368 53.862 13.824 52.49 15.07L53.078 15.882C54.45 14.594 55.64 13.18 56.676 11.64C57.572 12.592 58.622 13.866 59.826 15.462L60.484 14.762C59.364 13.334 58.188 11.976 56.97 10.688H56.228ZM61.31 11.794V20.516H62.29V11.794H61.31ZM63.648 23.274C64.432 23.274 64.838 22.84 64.838 22V10.604H63.83V21.748C63.83 22.168 63.648 22.378 63.298 22.378C62.654 22.378 61.968 22.35 61.254 22.308L61.478 23.274H63.648ZM78.236 16.302V14.342H79.174V13.502H78.236V11.556H75.24V10.534H74.26V11.556H71.81V12.396H74.26V13.502H71.124V14.342H74.26V15.462H71.81V16.302H74.26V17.422H71.516V18.248H74.26V19.41H71.082V20.264H74.26V21.65H75.24V20.264H78.922V19.41H75.24V18.248H78.516V17.422H75.24V16.302H78.236ZM75.24 12.396H77.256V13.502H75.24V12.396ZM75.24 14.342H77.256V15.462H75.24V14.342ZM74.582 22.154C72.678 22.126 71.236 21.86 70.284 21.328C70.046 21.188 69.822 21.006 69.598 20.768C70.27 19.48 70.648 17.912 70.704 16.064V15.462H68.506C69.178 14.51 69.878 13.404 70.578 12.116V11.29H67.148V12.242H69.444C68.772 13.446 68.016 14.566 67.204 15.602V16.386H69.794C69.71 17.716 69.43 18.878 68.954 19.872C68.59 19.256 68.254 18.444 67.974 17.45L67.134 17.758C67.47 18.962 67.918 19.956 68.464 20.74C68.016 21.384 67.47 21.944 66.812 22.42L67.47 23.274C68.114 22.784 68.674 22.21 69.122 21.552C69.262 21.692 69.416 21.818 69.598 21.958C70.69 22.686 72.496 23.05 75.016 23.05H79.16L79.328 22.084C77.704 22.126 76.122 22.154 74.582 22.154ZM87.07 20.6C88.946 21.328 90.766 22.28 92.558 23.484L93.104 22.616C91.452 21.552 89.618 20.642 87.63 19.858C87.756 19.662 87.882 19.452 88.008 19.228H92.922V18.276H88.428C88.736 17.408 88.904 16.414 88.946 15.308V13.656H87.966V15.308C87.924 16.414 87.728 17.408 87.364 18.276H81.092V19.228H86.874C86.734 19.452 86.594 19.662 86.426 19.858C85.39 20.978 83.57 21.888 80.966 22.56L81.526 23.414C84.088 22.742 85.936 21.804 87.07 20.6ZM82.954 15.574L82.45 16.33C83.402 16.708 84.34 17.24 85.236 17.912L85.754 17.114C84.914 16.526 83.976 16.008 82.954 15.574ZM84.214 13.572L83.696 14.328C84.676 14.72 85.642 15.266 86.58 15.966L87.098 15.168C86.23 14.538 85.264 14.006 84.214 13.572ZM92.684 11.934H87.616C87.434 11.388 87.252 10.898 87.07 10.478L86.034 10.646C86.244 11.038 86.44 11.458 86.608 11.934H81.288V14.622H82.268V12.872H91.704V14.622H92.684V11.934ZM98.41 11.374V12.34H99.502C99.278 14.818 98.62 16.778 97.528 18.206L98.032 19.186C98.354 18.78 98.648 18.332 98.928 17.842C99.502 18.206 100.09 18.668 100.678 19.242C100.034 20.614 99.152 21.692 98.032 22.462L98.536 23.358C100.832 21.79 102.246 19.074 102.75 15.196V14.328H100.174C100.3 13.698 100.398 13.04 100.468 12.34H103.016V11.374H98.41ZM99.334 17.016C99.572 16.47 99.782 15.882 99.95 15.252H101.812C101.644 16.344 101.406 17.366 101.07 18.29C100.524 17.814 99.95 17.38 99.334 17.016ZM105.564 23.302C106.404 23.302 106.838 22.868 106.838 22.028V10.604H105.83V21.776C105.83 22.196 105.62 22.406 105.214 22.406C104.766 22.406 104.304 22.378 103.8 22.336L104.024 23.302H105.564ZM95.918 15.812V23.428H96.926V14.048C97.402 13.068 97.808 12.032 98.116 10.926L97.164 10.492C96.604 12.662 95.708 14.58 94.476 16.26L94.812 17.324C95.204 16.848 95.568 16.344 95.918 15.812ZM103.618 11.892V20.572H104.542V11.892H103.618Z" fill="white"/>
<path d="M38 10V24" stroke="white" stroke-width="1.5"/>
<path d="M45 17L31 17" stroke="white" stroke-width="1.5"/>
</svg>
