<svg width="110" height="32" viewBox="0 0 110 32" fill="none" xmlns="http://www.w3.org/2000/svg">
<rect width="110" height="32" rx="4" fill="#337EFF"/>
<path d="M38.4763 16.5237H34V15.4686H38.4686V11H39.5237V15.4763H44V16.5314H39.5314V21H38.4763V16.5237Z" fill="white"/>
<path d="M56.336 16.38H58.142V18.172H56.322C56.322 18.046 56.336 17.92 56.336 17.808V16.38ZM56.252 19.054H58.142V22.148H59.052V19.054H60.928V20.93C60.928 21.21 60.788 21.364 60.508 21.364C60.2 21.364 59.878 21.336 59.528 21.308L59.766 22.218H60.802C61.516 22.218 61.88 21.896 61.88 21.266V12.88H59.528C59.948 12.46 60.368 11.928 60.788 11.312V10.598H57.414C57.554 10.318 57.708 10.038 57.848 9.744L56.882 9.534C56.168 10.99 55.258 12.18 54.152 13.09L54.782 13.832C54.978 13.664 55.188 13.468 55.398 13.272V17.864C55.37 19.404 55.02 20.692 54.32 21.7L55.048 22.358C55.692 21.462 56.084 20.37 56.252 19.054ZM58.436 12.88H55.776C56.168 12.446 56.546 11.97 56.896 11.452H59.626C59.234 11.984 58.842 12.46 58.436 12.88ZM60.928 18.172H59.052V16.38H60.928V18.172ZM60.928 15.484H59.052V13.776H60.928V15.484ZM58.142 13.776V15.484H56.336V13.776H58.142ZM49.938 10.346V11.326H51.52C51.198 13.356 50.54 15.162 49.532 16.744L50.12 17.682C50.372 17.29 50.624 16.884 50.862 16.45V21.938H51.814V20.874H54.264V14.504H51.716C52.052 13.524 52.318 12.46 52.5 11.326H54.614V10.346H49.938ZM51.814 19.964V15.428H53.34V19.964H51.814ZM65.898 13.72V14.672H69.566V20.776C69.426 20.748 69.286 20.706 69.16 20.664C68.152 20.342 67.312 19.586 66.64 18.382C66.892 17.654 67.116 16.856 67.284 15.988L66.304 15.82C65.828 18.228 64.932 20.146 63.588 21.574L64.232 22.372C65.03 21.56 65.702 20.552 66.248 19.348C66.822 20.258 67.578 20.93 68.502 21.364C69.734 21.882 71.75 22.148 74.578 22.148H76.146L76.328 21.14C75.572 21.196 74.844 21.224 74.13 21.224C72.73 21.21 71.554 21.126 70.574 20.986V18.088H74.746V17.136H70.574V14.672H74.13V13.72H65.898ZM75.726 10.99H70.644C70.448 10.416 70.224 9.898 70 9.436L68.922 9.604C69.174 10.024 69.412 10.486 69.622 10.99H64.274V14.042H65.254V11.914H74.746V13.972H75.726V10.99Z" fill="white"/>
</svg>
