<svg width="100" height="32" viewBox="0 0 100 32" fill="none" xmlns="http://www.w3.org/2000/svg">
<rect width="100" height="32" rx="4" fill="#337EFF"/>
<path d="M34.7495 9.99988C34.7495 9.99988 34.4142 10 34 10C33.5858 10 33.2495 9.99988 33.2495 9.99988L33.2495 15.2499H27.9995C27.9995 15.2499 27.9995 15.5858 27.9995 16C27.9995 16.4142 27.9995 16.7499 27.9995 16.7499H33.2495V21.9999C33.2495 21.9999 33.5853 21.9999 33.9995 21.9999C34.4137 21.9999 34.7495 21.9999 34.7495 21.9999L34.7495 16.7499H39.9995C39.9995 16.7499 39.9995 16.4141 39.9995 15.9999C39.9995 15.5857 39.9995 15.2499 39.9995 15.2499H34.7495L34.7495 9.99988Z" fill="white"/>
<path d="M52.006 14.952V17.472C52.006 17.85 51.81 18.046 51.446 18.046C51.026 18.046 50.55 18.018 50.018 17.962L50.27 18.914C50.76 18.942 51.278 18.956 51.81 18.956C52.58 18.928 52.972 18.536 52.986 17.78V14.056H48.002V21.084C48.002 21.798 48.38 22.162 49.164 22.162H52.496C53.154 22.162 53.602 22.05 53.826 21.826C54.078 21.546 54.26 20.818 54.358 19.628L53.406 19.32C53.35 20.09 53.252 20.608 53.126 20.874C53.014 21.098 52.706 21.224 52.23 21.224H49.556C49.192 21.224 49.024 21.056 49.024 20.734V14.952H52.006ZM50.228 9.688C49.108 11.368 47.862 12.824 46.49 14.07L47.078 14.882C48.45 13.594 49.64 12.18 50.676 10.64C51.572 11.592 52.622 12.866 53.826 14.462L54.484 13.762C53.364 12.334 52.188 10.976 50.97 9.688H50.228ZM55.31 10.794V19.516H56.29V10.794H55.31ZM57.648 22.274C58.432 22.274 58.838 21.84 58.838 21V9.604H57.83V20.748C57.83 21.168 57.648 21.378 57.298 21.378C56.654 21.378 55.968 21.35 55.254 21.308L55.478 22.274H57.648ZM72.236 15.302V13.342H73.174V12.502H72.236V10.556H69.24V9.534H68.26V10.556H65.81V11.396H68.26V12.502H65.124V13.342H68.26V14.462H65.81V15.302H68.26V16.422H65.516V17.248H68.26V18.41H65.082V19.264H68.26V20.65H69.24V19.264H72.922V18.41H69.24V17.248H72.516V16.422H69.24V15.302H72.236ZM69.24 11.396H71.256V12.502H69.24V11.396ZM69.24 13.342H71.256V14.462H69.24V13.342ZM68.582 21.154C66.678 21.126 65.236 20.86 64.284 20.328C64.046 20.188 63.822 20.006 63.598 19.768C64.27 18.48 64.648 16.912 64.704 15.064V14.462H62.506C63.178 13.51 63.878 12.404 64.578 11.116V10.29H61.148V11.242H63.444C62.772 12.446 62.016 13.566 61.204 14.602V15.386H63.794C63.71 16.716 63.43 17.878 62.954 18.872C62.59 18.256 62.254 17.444 61.974 16.45L61.134 16.758C61.47 17.962 61.918 18.956 62.464 19.74C62.016 20.384 61.47 20.944 60.812 21.42L61.47 22.274C62.114 21.784 62.674 21.21 63.122 20.552C63.262 20.692 63.416 20.818 63.598 20.958C64.69 21.686 66.496 22.05 69.016 22.05H73.16L73.328 21.084C71.704 21.126 70.122 21.154 68.582 21.154Z" fill="white"/>
</svg>
