<svg width="120" height="133" viewBox="0 0 120 133" fill="none" xmlns="http://www.w3.org/2000/svg">
<path d="M5.70583 4.19533V5.1065H10.6082V15.309H11.545V8.01967C12.7 8.63567 14.1373 9.50833 15.8442 10.6377L16.396 9.81633C14.7533 8.764 13.1363 7.84 11.545 7.04433V5.1065H17.1147V4.19533H5.70583ZM23.018 5.58133V6.46683H29.794V5.58133H26.8937C26.714 4.81133 26.5087 4.11833 26.2905 3.51517L25.3537 3.66917C25.5847 4.2595 25.8028 4.88833 25.9825 5.58133H23.018ZM22.6843 13.846V14.7443H30.0892V13.846H27.5738C28.1642 11.998 28.6647 9.89333 29.0753 7.532L28.1898 7.301C27.7407 9.919 27.2273 12.1007 26.637 13.846H22.6843ZM24.4938 7.44217L23.6468 7.71167C24.0703 9.48267 24.4297 11.3178 24.712 13.2172L25.5718 12.999C25.2638 10.9072 24.9045 9.05917 24.4938 7.44217ZM22.71 8.58433C22.2223 8.85383 21.7347 9.1105 21.2342 9.3415V6.762H22.6587V5.8765H21.2342V3.55367H20.2973V5.8765H18.5392V6.762H20.2973V9.7265C19.6685 9.9575 19.014 10.1628 18.3467 10.3297L18.5777 11.2537C19.1552 11.074 19.7327 10.8687 20.2973 10.6505V13.7947C20.2973 14.154 20.1177 14.3337 19.7712 14.3337C19.4375 14.3337 19.091 14.308 18.7317 14.2823L18.937 15.1807H20.092C20.8492 15.1807 21.2342 14.7957 21.2342 14.0257V10.2527C21.7347 10.0217 22.2223 9.77783 22.71 9.52117V8.58433ZM31.5137 4.36217V5.1835H34.4653V6.13317H35.3637V5.1835H38.803V6.069H39.7013V5.1835H42.6145V4.36217H39.7013V3.51517H38.803V4.36217H35.3637V3.528H34.4653V4.36217H31.5137ZM40.6125 7.58333C40.189 8.3405 39.6885 8.995 39.111 9.54683L39.7912 10.0473C40.4072 9.457 40.9333 8.75117 41.3825 7.9555L40.6125 7.58333ZM37.0063 7.8785L36.2363 8.12233C36.4802 8.61 36.6855 9.13617 36.8523 9.67517L37.6737 9.46983C37.4812 8.86667 37.263 8.3405 37.0063 7.8785ZM33.7082 8.04533L32.9253 8.302C33.259 8.8795 33.5798 9.54683 33.8622 10.2912L34.6193 9.9575C34.3627 9.27733 34.0547 8.63567 33.7082 8.04533ZM41.3183 6.15883C38.9057 6.531 35.877 6.7235 32.2323 6.7235L32.5147 7.58333C36.3647 7.58333 39.4447 7.35233 41.7675 6.916L41.3183 6.15883ZM31.7062 10.8173V11.6772H35.7358C34.7862 12.6653 33.3232 13.4867 31.3212 14.1283L31.8345 14.9882C34.0033 14.1155 35.569 13.0118 36.5443 11.6772H36.6342V15.2833H37.5325V11.6772H37.6223C38.5207 12.8835 40.0735 13.9872 42.2552 14.9882L42.884 14.1797C40.8307 13.4482 39.342 12.614 38.418 11.6772H42.4605V10.8173H37.5325V9.996H36.6342V10.8173H31.7062ZM45.4378 5.51717V10.7917H49.4547V12.0108H44.2187V12.8835H49.4547V15.3218H50.3787V12.8835H55.6147V12.0108H50.3787V10.7917H54.3955V5.51717H51.9315C52.3165 4.991 52.663 4.40067 52.971 3.74617L52.0727 3.42533C51.7518 4.16967 51.3797 4.8755 50.969 5.51717H45.4378ZM53.4972 9.97033H50.3787V8.533H53.4972V9.97033ZM49.4547 9.97033H46.3362V8.533H49.4547V9.97033ZM46.3362 7.73733V6.32567H49.4547V7.73733H46.3362ZM50.3787 6.32567H53.4972V7.73733H50.3787V6.32567ZM47.7093 3.4895L46.9265 3.86167C47.3628 4.34933 47.7607 4.88833 48.1457 5.50433L48.9157 5.11933C48.5307 4.529 48.1328 3.97717 47.7093 3.4895Z" fill="#337EFF"/>
<path d="M75.3587 6.25L76.2499 7.14535L71.6666 11.75L67.0833 7.14535L67.9745 6.25L71.6666 9.9593L75.3587 6.25Z" fill="#337EFF"/>
<g filter="url(#filter0_d_2384_10767)">
<rect x="5" y="25.3334" width="110" height="102.667" rx="3.66667" fill="white"/>
<path d="M17.617 41.6372L16.9882 42.2404C17.8993 42.9591 18.618 43.6392 19.1442 44.2809L19.7858 43.6392C19.1955 42.9719 18.4768 42.3046 17.617 41.6372ZM25.0732 52.9691H28.0505L28.2815 52.0451C27.935 52.0707 27.4473 52.0836 26.8313 52.0964C26.1897 52.1092 25.5608 52.1221 24.9448 52.1221C23.9438 52.1221 23.0968 52.1092 22.4295 52.0964C21.6595 52.0707 21.082 51.9681 20.6842 51.7884C20.3248 51.6216 19.9912 51.3521 19.6832 50.9799C19.5805 50.8644 19.4778 50.7617 19.3752 50.6847V45.8851H16.693V46.7321H18.5153V50.6334C17.9763 50.8644 17.3732 51.5317 16.6802 52.6226L17.3732 53.2514C18.0918 52.0451 18.6052 51.4547 18.926 51.4547C19.08 51.4547 19.2468 51.5574 19.4265 51.7756C19.8243 52.2376 20.2735 52.5584 20.774 52.7124C21.2873 52.8536 21.9675 52.9306 22.7888 52.9434C23.6102 52.9562 24.3802 52.9691 25.0732 52.9691ZM23.9695 41.3934V43.0361H22.2755C22.4295 42.6254 22.5707 42.2019 22.699 41.7527L21.8135 41.5731C21.5055 42.7281 21.005 43.7932 20.312 44.7557L21.1205 45.2562C21.4028 44.8456 21.6595 44.4092 21.8905 43.9216H23.9695V45.7567H20.6328V46.6551H22.699C22.6605 47.4507 22.5322 48.1437 22.314 48.7084C21.9803 49.4784 21.3002 50.1201 20.2607 50.6334L20.8638 51.3649C22.0702 50.7361 22.853 49.9276 23.1867 48.9522C23.4048 48.3106 23.5332 47.5406 23.5717 46.6551H24.8678V50.2997C24.8678 50.5821 24.9448 50.8131 25.1245 50.9927C25.2913 51.1724 25.5352 51.2622 25.8688 51.2622H26.7928C27.2292 51.2494 27.5372 51.1467 27.7168 50.9671C27.9093 50.7617 28.0505 50.1329 28.1275 49.0677L27.319 48.7982C27.2677 49.7094 27.165 50.2227 27.011 50.3382C26.9083 50.4152 26.78 50.4537 26.6003 50.4537H26.1383C25.856 50.4537 25.7277 50.3254 25.7277 50.0944V46.6551H27.8837V45.7567H24.8678V43.9216H27.4345V43.0361H24.8678V41.3934H23.9695ZM31.0663 43.5879V49.6837C30.5273 49.8377 29.9755 49.9789 29.398 50.1201L29.6675 51.0312C31.1562 50.6334 32.4652 50.1971 33.5945 49.7222V48.7982C33.094 49.0036 32.5678 49.1961 32.016 49.3886V43.5879H33.5047V42.6896H29.5392V43.5879H31.0663ZM33.9923 41.9837V42.8821H37.1237C37.0595 43.3569 36.9697 43.8189 36.8413 44.2552H34.5827V50.2869H35.4682V45.1022H39.5877V50.2869H40.486V44.2552H37.7653C37.868 43.8189 37.9578 43.3697 38.0348 42.8821H41.102V41.9837H33.9923ZM38.5738 50.3126L37.9578 50.9029C39.0615 51.7499 39.9342 52.5456 40.5758 53.2899L41.2432 52.6226C40.5245 51.8526 39.6262 51.0826 38.5738 50.3126ZM37.0082 45.9236V48.1309C36.9697 49.2474 36.6745 50.1586 36.1355 50.8516C35.5452 51.5189 34.4928 52.0579 33.0042 52.4557L33.5047 53.2514C35.0447 52.8151 36.1483 52.2119 36.8285 51.4547C37.5215 50.6206 37.8808 49.5169 37.9322 48.1309V45.9236H37.0082ZM42.3083 46.7449V47.6689H53.8455V46.7449H42.3083Z" fill="#337EFF"/>
<path d="M17.617 70.9726L16.9882 71.5757C17.8993 72.2944 18.618 72.9746 19.1442 73.6162L19.7858 72.9746C19.1955 72.3072 18.4768 71.6399 17.617 70.9726ZM25.0732 82.3044H28.0505L28.2815 81.3804C27.935 81.4061 27.4473 81.4189 26.8313 81.4317C26.1897 81.4446 25.5608 81.4574 24.9448 81.4574C23.9438 81.4574 23.0968 81.4446 22.4295 81.4317C21.6595 81.4061 21.082 81.3034 20.6842 81.1237C20.3248 80.9569 19.9912 80.6874 19.6832 80.3152C19.5805 80.1997 19.4778 80.0971 19.3752 80.0201V75.2204H16.693V76.0674H18.5153V79.9687C17.9763 80.1997 17.3732 80.8671 16.6802 81.9579L17.3732 82.5867C18.0918 81.3804 18.6052 80.7901 18.926 80.7901C19.08 80.7901 19.2468 80.8927 19.4265 81.1109C19.8243 81.5729 20.2735 81.8937 20.774 82.0477C21.2873 82.1889 21.9675 82.2659 22.7888 82.2787C23.6102 82.2916 24.3802 82.3044 25.0732 82.3044ZM23.9695 70.7287V72.3714H22.2755C22.4295 71.9607 22.5707 71.5372 22.699 71.0881L21.8135 70.9084C21.5055 72.0634 21.005 73.1286 20.312 74.0911L21.1205 74.5916C21.4028 74.1809 21.6595 73.7446 21.8905 73.2569H23.9695V75.0921H20.6328V75.9904H22.699C22.6605 76.7861 22.5322 77.4791 22.314 78.0437C21.9803 78.8137 21.3002 79.4554 20.2607 79.9687L20.8638 80.7002C22.0702 80.0714 22.853 79.2629 23.1867 78.2876C23.4048 77.6459 23.5332 76.8759 23.5717 75.9904H24.8678V79.6351C24.8678 79.9174 24.9448 80.1484 25.1245 80.3281C25.2913 80.5077 25.5352 80.5976 25.8688 80.5976H26.7928C27.2292 80.5847 27.5372 80.4821 27.7168 80.3024C27.9093 80.0971 28.0505 79.4682 28.1275 78.4031L27.319 78.1336C27.2677 79.0447 27.165 79.5581 27.011 79.6736C26.9083 79.7506 26.78 79.7891 26.6003 79.7891H26.1383C25.856 79.7891 25.7277 79.6607 25.7277 79.4297V75.9904H27.8837V75.0921H24.8678V73.2569H27.4345V72.3714H24.8678V70.7287H23.9695ZM31.0663 72.9232V79.0191C30.5273 79.1731 29.9755 79.3142 29.398 79.4554L29.6675 80.3666C31.1562 79.9687 32.4652 79.5324 33.5945 79.0576V78.1336C33.094 78.3389 32.5678 78.5314 32.016 78.7239V72.9232H33.5047V72.0249H29.5392V72.9232H31.0663ZM33.9923 71.3191V72.2174H37.1237C37.0595 72.6922 36.9697 73.1542 36.8413 73.5906H34.5827V79.6222H35.4682V74.4376H39.5877V79.6222H40.486V73.5906H37.7653C37.868 73.1542 37.9578 72.7051 38.0348 72.2174H41.102V71.3191H33.9923ZM38.5738 79.6479L37.9578 80.2382C39.0615 81.0852 39.9342 81.8809 40.5758 82.6252L41.2432 81.9579C40.5245 81.1879 39.6262 80.4179 38.5738 79.6479ZM37.0082 75.2589V77.4662C36.9697 78.5827 36.6745 79.4939 36.1355 80.1869C35.5452 80.8542 34.4928 81.3932 33.0042 81.7911L33.5047 82.5867C35.0447 82.1504 36.1483 81.5472 36.8285 80.7901C37.5215 79.9559 37.8808 78.8522 37.9322 77.4662V75.2589H37.0082ZM43.5275 72.1917V73.1029H52.6392V72.1917H43.5275ZM42.3468 80.2639V81.2007H53.807V80.2639H42.3468Z" fill="#333333"/>
<path d="M17.617 100.305L16.9882 100.908C17.8993 101.627 18.618 102.307 19.1442 102.949L19.7858 102.307C19.1955 101.64 18.4768 100.972 17.617 100.305ZM25.0732 111.637H28.0505L28.2815 110.713C27.935 110.738 27.4473 110.751 26.8313 110.764C26.1897 110.777 25.5608 110.79 24.9448 110.79C23.9438 110.79 23.0968 110.777 22.4295 110.764C21.6595 110.738 21.082 110.636 20.6842 110.456C20.3248 110.289 19.9912 110.02 19.6832 109.648C19.5805 109.532 19.4778 109.429 19.3752 109.352V104.553H16.693V105.4H18.5153V109.301C17.9763 109.532 17.3732 110.199 16.6802 111.29L17.3732 111.919C18.0918 110.713 18.6052 110.122 18.926 110.122C19.08 110.122 19.2468 110.225 19.4265 110.443C19.8243 110.905 20.2735 111.226 20.774 111.38C21.2873 111.521 21.9675 111.598 22.7888 111.611C23.6102 111.624 24.3802 111.637 25.0732 111.637ZM23.9695 100.061V101.704H22.2755C22.4295 101.293 22.5707 100.87 22.699 100.42L21.8135 100.241C21.5055 101.396 21.005 102.461 20.312 103.423L21.1205 103.924C21.4028 103.513 21.6595 103.077 21.8905 102.589H23.9695V104.424H20.6328V105.323H22.699C22.6605 106.118 22.5322 106.811 22.314 107.376C21.9803 108.146 21.3002 108.788 20.2607 109.301L20.8638 110.033C22.0702 109.404 22.853 108.595 23.1867 107.62C23.4048 106.978 23.5332 106.208 23.5717 105.323H24.8678V108.967C24.8678 109.25 24.9448 109.481 25.1245 109.66C25.2913 109.84 25.5352 109.93 25.8688 109.93H26.7928C27.2292 109.917 27.5372 109.814 27.7168 109.635C27.9093 109.429 28.0505 108.801 28.1275 107.735L27.319 107.466C27.2677 108.377 27.165 108.89 27.011 109.006C26.9083 109.083 26.78 109.121 26.6003 109.121H26.1383C25.856 109.121 25.7277 108.993 25.7277 108.762V105.323H27.8837V104.424H24.8678V102.589H27.4345V101.704H24.8678V100.061H23.9695ZM31.0663 102.256V108.351C30.5273 108.505 29.9755 108.647 29.398 108.788L29.6675 109.699C31.1562 109.301 32.4652 108.865 33.5945 108.39V107.466C33.094 107.671 32.5678 107.864 32.016 108.056V102.256H33.5047V101.357H29.5392V102.256H31.0663ZM33.9923 100.651V101.55H37.1237C37.0595 102.025 36.9697 102.487 36.8413 102.923H34.5827V108.955H35.4682V103.77H39.5877V108.955H40.486V102.923H37.7653C37.868 102.487 37.9578 102.037 38.0348 101.55H41.102V100.651H33.9923ZM38.5738 108.98L37.9578 109.571C39.0615 110.418 39.9342 111.213 40.5758 111.958L41.2432 111.29C40.5245 110.52 39.6262 109.75 38.5738 108.98ZM37.0082 104.591V106.799C36.9697 107.915 36.6745 108.826 36.1355 109.519C35.5452 110.187 34.4928 110.726 33.0042 111.123L33.5047 111.919C35.0447 111.483 36.1483 110.88 36.8285 110.122C37.5215 109.288 37.8808 108.185 37.9322 106.799V104.591H37.0082ZM43.2452 101.075V101.973H52.9472V101.075H43.2452ZM44.105 105.515V106.414H52.0745V105.515H44.105ZM42.2955 110.264V111.188H53.8712V110.264H42.2955Z" fill="#333333"/>
<rect x="4.54167" y="24.875" width="110.917" height="103.583" rx="4.125" stroke="#E5E5E5" stroke-width="0.916667"/>
</g>
<defs>
<filter id="filter0_d_2384_10767" x="0.416585" y="20.7501" width="119.167" height="111.833" filterUnits="userSpaceOnUse" color-interpolation-filters="sRGB">
<feFlood flood-opacity="0" result="BackgroundImageFix"/>
<feColorMatrix in="SourceAlpha" type="matrix" values="0 0 0 0 0 0 0 0 0 0 0 0 0 0 0 0 0 0 127 0" result="hardAlpha"/>
<feOffset/>
<feGaussianBlur stdDeviation="1.83333"/>
<feColorMatrix type="matrix" values="0 0 0 0 0 0 0 0 0 0 0 0 0 0 0 0 0 0 0.1 0"/>
<feBlend mode="normal" in2="BackgroundImageFix" result="effect1_dropShadow_2384_10767"/>
<feBlend mode="normal" in="SourceGraphic" in2="effect1_dropShadow_2384_10767" result="shape"/>
</filter>
</defs>
</svg>
