<svg width="120" height="145" viewBox="0 0 120 145" fill="none" xmlns="http://www.w3.org/2000/svg">
<path d="M4.73682 3.68421C4.73682 1.64948 6.38629 0 8.42103 0H104.632C106.666 0 108.316 1.64948 108.316 3.68421V25.7895C108.316 27.8242 106.666 29.4737 104.632 29.4737H8.42103C6.3863 29.4737 4.73682 27.8242 4.73682 25.7895V3.68421Z" fill="#337EFF"/>
<path d="M20.1828 9.38524V10.3008H25.1086V20.5521H26.0499V13.2279C27.2105 13.8468 28.6547 14.7237 30.3697 15.8584L30.9242 15.0331C29.2736 13.9758 27.6489 13.0473 26.0499 12.2479V10.3008H31.6463V9.38524H20.1828ZM37.5778 10.7779V11.6676H44.3863V10.7779H41.4721C41.2915 10.0042 41.0852 9.30787 40.866 8.70182L39.9247 8.85655C40.1568 9.44971 40.376 10.0816 40.5565 10.7779H37.5778ZM37.2426 19.0821V19.9847H44.6828V19.0821H42.1555C42.7486 17.2252 43.2515 15.1105 43.6642 12.7379L42.7744 12.5058C42.3231 15.1363 41.8073 17.3284 41.2142 19.0821H37.2426ZM39.0607 12.6476L38.2097 12.9184C38.6352 14.6979 38.9963 16.5418 39.2799 18.4502L40.1439 18.231C39.8344 16.1292 39.4734 14.2723 39.0607 12.6476ZM37.2684 13.7952C36.7784 14.066 36.2884 14.3239 35.7855 14.556V11.9642H37.2168V11.0744H35.7855V8.7405H34.8442V11.0744H33.0776V11.9642H34.8442V14.9429C34.2123 15.175 33.5547 15.3813 32.8842 15.5489L33.1163 16.4773C33.6965 16.2968 34.2768 16.0905 34.8442 15.8713V19.0305C34.8442 19.3916 34.6636 19.5721 34.3155 19.5721C33.9802 19.5721 33.6321 19.5463 33.271 19.5205L33.4773 20.4231H34.6378C35.3986 20.4231 35.7855 20.0363 35.7855 19.2626V15.4716C36.2884 15.2394 36.7784 14.9944 37.2684 14.7366V13.7952ZM57.1907 10.1718H54.1734C53.9928 9.57866 53.8123 9.06287 53.6189 8.59866L52.6776 8.75339C52.8839 9.19182 53.0773 9.65603 53.2449 10.1718H50.2792V12.7637H51.156V11.01H56.301V12.7121H57.1907V10.1718ZM52.6776 11.8223C52.4971 12.5444 52.3036 13.2279 52.0844 13.8984H49.9697V14.7881H51.7749C51.4913 15.5102 51.1818 16.1937 50.8336 16.8384C51.6847 17.2897 52.4842 17.7281 53.2321 18.1537C52.3552 18.7984 51.0786 19.3142 49.3765 19.701L49.7505 20.5779C51.7621 20.1008 53.2063 19.4689 54.1089 18.6694C55.2694 19.3529 56.2365 19.9718 57.0102 20.5392L57.6421 19.8042C56.8942 19.2884 55.9271 18.6823 54.715 18.0118C55.3984 17.1608 55.8497 16.0776 56.056 14.7881H57.6034V13.8984H53.0257C53.2063 13.3052 53.3997 12.6347 53.5802 11.8997L52.6776 11.8223ZM55.1663 14.7881C54.9471 15.9229 54.5215 16.8384 53.8897 17.5605C53.2836 17.2381 52.626 16.9029 51.9297 16.5418C52.2005 16.0518 52.4584 15.4587 52.7163 14.7881H55.1663ZM47.3134 20.4102C48.0484 20.4102 48.4223 20.0363 48.4223 19.2884V15.5618C48.8221 15.3813 49.2218 15.2008 49.6215 15.0073V14.066C49.2218 14.2723 48.8221 14.4658 48.4223 14.6463V12.0673H49.6344V11.1776H48.4223V8.7405H47.4681V11.1776H45.9594V12.0673H47.4681V15.0202C46.9007 15.2266 46.3076 15.4071 45.7015 15.5489L45.9336 16.4773C46.4365 16.3226 46.9523 16.1421 47.4681 15.9487V19.0563C47.4681 19.3916 47.3005 19.5592 46.991 19.5592C46.6815 19.5592 46.3592 19.5334 46.0239 19.5076L46.2173 20.4102H47.3134ZM68.8863 10.146L68.6928 13.9758H66.3202L66.6555 10.146H68.8863ZM65.4176 13.9758H63.78V14.8784H65.3402L64.9534 19.2368H63.3931V20.1394H70.5368V19.2368H69.3763L69.8405 9.26918H64.1152V10.146H65.7528L65.4176 13.9758ZM65.8431 19.2368L66.2428 14.8784H68.6542L68.4478 19.2368H65.8431ZM60.4015 8.7276C60.0405 10.275 59.4602 11.6805 58.6607 12.9442L59.4215 13.4213C59.8728 12.7121 60.2726 11.9126 60.6207 11.0358H63.3028V10.1718H60.9302C61.0592 9.75918 61.1881 9.34655 61.3042 8.90813L60.4015 8.7276ZM60.0147 12.7637V13.6018H60.8271V15.1879H59.0605V16.0389H60.8271V18.966C60.8271 19.1466 60.6981 19.2884 60.4402 19.3916L60.8399 20.191C61.8457 19.8944 62.7484 19.5205 63.5221 19.0563L63.3544 18.231C62.8128 18.5792 62.2713 18.8629 61.7426 19.0821V16.0389H63.5221V15.1879H61.7426V13.6018H63.0836V12.7637H60.0147Z" fill="white"/>
<path d="M89.9203 11.9736L90.8158 12.8733L86.2105 17.4999L81.6052 12.8733L82.5007 11.9736L86.2105 15.7007L89.9203 11.9736Z" fill="white"/>
<g filter="url(#filter0_d_2384_10782)">
<rect x="4.73682" y="36.8422" width="110.526" height="103.158" rx="3.68421" fill="white"/>
<path d="M17.4143 53.1709L16.7824 53.777C17.698 54.4991 18.4201 55.1825 18.9488 55.8273L19.5935 55.1825C19.0003 54.512 18.2782 53.8415 17.4143 53.1709ZM24.9061 64.557H27.8977L28.1298 63.6286C27.7817 63.6544 27.2917 63.6673 26.6727 63.6802C26.028 63.6931 25.3961 63.7059 24.7772 63.7059C23.7714 63.7059 22.9203 63.6931 22.2498 63.6802C21.4761 63.6544 20.8959 63.5512 20.4961 63.3707C20.1351 63.2031 19.7998 62.9323 19.4903 62.5583C19.3872 62.4423 19.284 62.3391 19.1809 62.2617V57.4391H16.4859V58.2902H18.3169V62.2102C17.7753 62.4423 17.1693 63.1128 16.473 64.2088L17.1693 64.8407C17.8914 63.6286 18.4072 63.0354 18.7296 63.0354C18.8843 63.0354 19.0519 63.1386 19.2324 63.3578C19.6322 63.822 20.0835 64.1444 20.5864 64.2991C21.1022 64.4409 21.7856 64.5183 22.6109 64.5312C23.4361 64.5441 24.2098 64.557 24.9061 64.557ZM23.7972 52.9259V54.5765H22.0951C22.2498 54.1638 22.3917 53.7383 22.5206 53.287L21.6309 53.1065C21.3214 54.267 20.8185 55.3373 20.1222 56.3044L20.9346 56.8073C21.2182 56.3946 21.4761 55.9562 21.7082 55.4662H23.7972V57.3102H20.4446V58.2128H22.5206C22.4819 59.0123 22.353 59.7086 22.1338 60.2759C21.7985 61.0496 21.1151 61.6944 20.0706 62.2102L20.6767 62.9452C21.8888 62.3133 22.6753 61.5009 23.0106 60.5209C23.2298 59.8762 23.3588 59.1025 23.3974 58.2128H24.6998V61.8749C24.6998 62.1586 24.7772 62.3907 24.9577 62.5712C25.1253 62.7517 25.3703 62.842 25.7056 62.842H26.634C27.0724 62.8291 27.3819 62.7259 27.5624 62.5454C27.7559 62.3391 27.8977 61.7073 27.9751 60.637L27.1627 60.3662C27.1111 61.2817 27.008 61.7975 26.8532 61.9136C26.7501 61.9909 26.6211 62.0296 26.4406 62.0296H25.9764C25.6927 62.0296 25.5638 61.9007 25.5638 61.6686V58.2128H27.7301V57.3102H24.6998V55.4662H27.2788V54.5765H24.6998V52.9259H23.7972ZM30.928 55.1309V61.2559C30.3864 61.4107 29.8319 61.5525 29.2517 61.6944L29.5224 62.6099C31.0182 62.2102 32.3335 61.7717 33.4682 61.2946V60.3662C32.9653 60.5725 32.4367 60.7659 31.8822 60.9594V55.1309H33.378V54.2283H29.3935V55.1309H30.928ZM33.868 53.5191V54.4217H37.0143C36.9498 54.8988 36.8596 55.3631 36.7306 55.8015H34.4611V61.862H35.3509V56.6525H39.4901V61.862H40.3927V55.8015H37.659C37.7622 55.3631 37.8524 54.9117 37.9298 54.4217H41.0117V53.5191H33.868ZM38.4714 61.8878L37.8524 62.4809C38.9614 63.332 39.8382 64.1315 40.483 64.8794L41.1535 64.2088C40.4314 63.4352 39.5288 62.6615 38.4714 61.8878ZM36.8982 57.4778V59.6957C36.8596 60.8175 36.563 61.7331 36.0214 62.4294C35.4282 63.0999 34.3709 63.6415 32.8751 64.0412L33.378 64.8407C34.9253 64.4023 36.0343 63.7962 36.7177 63.0354C37.414 62.1973 37.7751 61.0883 37.8267 59.6957V57.4778H36.8982ZM42.2238 58.3031V59.2315H53.8161V58.3031H42.2238Z" fill="#337EFF"/>
<path d="M17.4143 82.6465L16.7824 83.2526C17.698 83.9747 18.4201 84.6581 18.9488 85.3029L19.5935 84.6581C19.0003 83.9876 18.2782 83.3171 17.4143 82.6465ZM24.9061 94.0326H27.8977L28.1298 93.1042C27.7817 93.13 27.2917 93.1429 26.6727 93.1557C26.028 93.1686 25.3961 93.1815 24.7772 93.1815C23.7714 93.1815 22.9203 93.1686 22.2498 93.1557C21.4761 93.13 20.8959 93.0268 20.4961 92.8463C20.1351 92.6786 19.7998 92.4079 19.4903 92.0339C19.3872 91.9179 19.284 91.8147 19.1809 91.7373V86.9147H16.4859V87.7657H18.3169V91.6857C17.7753 91.9179 17.1693 92.5884 16.473 93.6844L17.1693 94.3163C17.8914 93.1042 18.4072 92.511 18.7296 92.511C18.8843 92.511 19.0519 92.6142 19.2324 92.8334C19.6322 93.2976 20.0835 93.62 20.5864 93.7747C21.1022 93.9165 21.7856 93.9939 22.6109 94.0068C23.4361 94.0197 24.2098 94.0326 24.9061 94.0326ZM23.7972 82.4015V84.0521H22.0951C22.2498 83.6394 22.3917 83.2139 22.5206 82.7626L21.6309 82.5821C21.3214 83.7426 20.8185 84.8129 20.1222 85.78L20.9346 86.2829C21.2182 85.8702 21.4761 85.4318 21.7082 84.9418H23.7972V86.7857H20.4446V87.6884H22.5206C22.4819 88.4879 22.353 89.1842 22.1338 89.7515C21.7985 90.5252 21.1151 91.17 20.0706 91.6857L20.6767 92.4207C21.8888 91.7889 22.6753 90.9765 23.0106 89.9965C23.2298 89.3518 23.3588 88.5781 23.3974 87.6884H24.6998V91.3505C24.6998 91.6342 24.7772 91.8663 24.9577 92.0468C25.1253 92.2273 25.3703 92.3176 25.7056 92.3176H26.634C27.0724 92.3047 27.3819 92.2015 27.5624 92.021C27.7559 91.8147 27.8977 91.1829 27.9751 90.1126L27.1627 89.8418C27.1111 90.7573 27.008 91.2731 26.8532 91.3892C26.7501 91.4665 26.6211 91.5052 26.4406 91.5052H25.9764C25.6927 91.5052 25.5638 91.3763 25.5638 91.1442V87.6884H27.7301V86.7857H24.6998V84.9418H27.2788V84.0521H24.6998V82.4015H23.7972ZM30.928 84.6065V90.7315C30.3864 90.8863 29.8319 91.0281 29.2517 91.17L29.5224 92.0855C31.0182 91.6857 32.3335 91.2473 33.4682 90.7702V89.8418C32.9653 90.0481 32.4367 90.2415 31.8822 90.435V84.6065H33.378V83.7039H29.3935V84.6065H30.928ZM33.868 82.9947V83.8973H37.0143C36.9498 84.3744 36.8596 84.8386 36.7306 85.2771H34.4611V91.3376H35.3509V86.1281H39.4901V91.3376H40.3927V85.2771H37.659C37.7622 84.8386 37.8524 84.3873 37.9298 83.8973H41.0117V82.9947H33.868ZM38.4714 91.3634L37.8524 91.9565C38.9614 92.8076 39.8382 93.6071 40.483 94.355L41.1535 93.6844C40.4314 92.9107 39.5288 92.1371 38.4714 91.3634ZM36.8982 86.9534V89.1713C36.8596 90.2931 36.563 91.2086 36.0214 91.905C35.4282 92.5755 34.3709 93.1171 32.8751 93.5168L33.378 94.3163C34.9253 93.8779 36.0343 93.2718 36.7177 92.511C37.414 91.6729 37.7751 90.5639 37.8267 89.1713V86.9534H36.8982ZM43.4488 83.8715V84.7871H52.604V83.8715H43.4488ZM42.2624 91.9823V92.9236H53.7774V91.9823H42.2624Z" fill="#333333"/>
<path d="M17.4143 112.12L16.7824 112.726C17.698 113.448 18.4201 114.132 18.9488 114.777L19.5935 114.132C19.0003 113.461 18.2782 112.791 17.4143 112.12ZM24.9061 123.506H27.8977L28.1298 122.578C27.7817 122.604 27.2917 122.617 26.6727 122.63C26.028 122.642 25.3961 122.655 24.7772 122.655C23.7714 122.655 22.9203 122.642 22.2498 122.63C21.4761 122.604 20.8959 122.501 20.4961 122.32C20.1351 122.152 19.7998 121.882 19.4903 121.508C19.3872 121.392 19.284 121.288 19.1809 121.211V116.388H16.4859V117.24H18.3169V121.16C17.7753 121.392 17.1693 122.062 16.473 123.158L17.1693 123.79C17.8914 122.578 18.4072 121.985 18.7296 121.985C18.8843 121.985 19.0519 122.088 19.2324 122.307C19.6322 122.771 20.0835 123.094 20.5864 123.248C21.1022 123.39 21.7856 123.468 22.6109 123.481C23.4361 123.493 24.2098 123.506 24.9061 123.506ZM23.7972 111.875V113.526H22.0951C22.2498 113.113 22.3917 112.688 22.5206 112.236L21.6309 112.056C21.3214 113.216 20.8185 114.287 20.1222 115.254L20.9346 115.757C21.2182 115.344 21.4761 114.906 21.7082 114.416H23.7972V116.26H20.4446V117.162H22.5206C22.4819 117.962 22.353 118.658 22.1338 119.225C21.7985 119.999 21.1151 120.644 20.0706 121.16L20.6767 121.895C21.8888 121.263 22.6753 120.45 23.0106 119.47C23.2298 118.826 23.3588 118.052 23.3974 117.162H24.6998V120.824C24.6998 121.108 24.7772 121.34 24.9577 121.521C25.1253 121.701 25.3703 121.791 25.7056 121.791H26.634C27.0724 121.778 27.3819 121.675 27.5624 121.495C27.7559 121.288 27.8977 120.657 27.9751 119.586L27.1627 119.316C27.1111 120.231 27.008 120.747 26.8532 120.863C26.7501 120.94 26.6211 120.979 26.4406 120.979H25.9764C25.6927 120.979 25.5638 120.85 25.5638 120.618V117.162H27.7301V116.26H24.6998V114.416H27.2788V113.526H24.6998V111.875H23.7972ZM30.928 114.08V120.205C30.3864 120.36 29.8319 120.502 29.2517 120.644L29.5224 121.559C31.0182 121.16 32.3335 120.721 33.4682 120.244V119.316C32.9653 119.522 32.4367 119.715 31.8822 119.909V114.08H33.378V113.178H29.3935V114.08H30.928ZM33.868 112.468V113.371H37.0143C36.9498 113.848 36.8596 114.312 36.7306 114.751H34.4611V120.811H35.3509V115.602H39.4901V120.811H40.3927V114.751H37.659C37.7622 114.312 37.8524 113.861 37.9298 113.371H41.0117V112.468H33.868ZM38.4714 120.837L37.8524 121.43C38.9614 122.281 39.8382 123.081 40.483 123.829L41.1535 123.158C40.4314 122.385 39.5288 121.611 38.4714 120.837ZM36.8982 116.427V118.645C36.8596 119.767 36.563 120.682 36.0214 121.379C35.4282 122.049 34.3709 122.591 32.8751 122.991L33.378 123.79C34.9253 123.352 36.0343 122.746 36.7177 121.985C37.414 121.147 37.7751 120.038 37.8267 118.645V116.427H36.8982ZM43.1651 112.894V113.797H52.9135V112.894H43.1651ZM44.029 117.356V118.258H52.0367V117.356H44.029ZM42.2109 122.127V123.055H53.8419V122.127H42.2109Z" fill="#333333"/>
<rect x="4.27629" y="36.3816" width="111.447" height="104.079" rx="4.14474" stroke="#E5E5E5" stroke-width="0.921053"/>
</g>
<defs>
<filter id="filter0_d_2384_10782" x="0.131463" y="32.2369" width="119.737" height="112.368" filterUnits="userSpaceOnUse" color-interpolation-filters="sRGB">
<feFlood flood-opacity="0" result="BackgroundImageFix"/>
<feColorMatrix in="SourceAlpha" type="matrix" values="0 0 0 0 0 0 0 0 0 0 0 0 0 0 0 0 0 0 127 0" result="hardAlpha"/>
<feOffset/>
<feGaussianBlur stdDeviation="1.84211"/>
<feColorMatrix type="matrix" values="0 0 0 0 0 0 0 0 0 0 0 0 0 0 0 0 0 0 0.1 0"/>
<feBlend mode="normal" in2="BackgroundImageFix" result="effect1_dropShadow_2384_10782"/>
<feBlend mode="normal" in="SourceGraphic" in2="effect1_dropShadow_2384_10782" result="shape"/>
</filter>
</defs>
</svg>
