<svg width="125" height="148" viewBox="0 0 125 148" fill="none" xmlns="http://www.w3.org/2000/svg">
<path d="M21.77 10.304V11.298H27.118V22.428H28.14V14.476C29.4 15.148 30.968 16.1 32.83 17.332L33.432 16.436C31.64 15.288 29.876 14.28 28.14 13.412V11.298H34.216V10.304H21.77ZM40.656 11.816V12.782H48.048V11.816H44.884C44.688 10.976 44.464 10.22 44.226 9.562L43.204 9.73C43.456 10.374 43.694 11.06 43.89 11.816H40.656ZM40.292 20.832V21.812H48.37V20.832H45.626C46.27 18.816 46.816 16.52 47.264 13.944L46.298 13.692C45.808 16.548 45.248 18.928 44.604 20.832H40.292ZM42.266 13.846L41.342 14.14C41.804 16.072 42.196 18.074 42.504 20.146L43.442 19.908C43.106 17.626 42.714 15.61 42.266 13.846ZM40.32 15.092C39.788 15.386 39.256 15.666 38.71 15.918V13.104H40.264V12.138H38.71V9.604H37.688V12.138H35.77V13.104H37.688V16.338C37.002 16.59 36.288 16.814 35.56 16.996L35.812 18.004C36.442 17.808 37.072 17.584 37.688 17.346V20.776C37.688 21.168 37.492 21.364 37.114 21.364C36.75 21.364 36.372 21.336 35.98 21.308L36.204 22.288H37.464C38.29 22.288 38.71 21.868 38.71 21.028V16.912C39.256 16.66 39.788 16.394 40.32 16.114V15.092ZM61.95 11.158H58.674C58.478 10.514 58.282 9.954 58.072 9.45L57.05 9.618C57.274 10.094 57.484 10.598 57.666 11.158H54.446V13.972H55.398V12.068H60.984V13.916H61.95V11.158ZM57.05 12.95C56.854 13.734 56.644 14.476 56.406 15.204H54.11V16.17H56.07C55.762 16.954 55.426 17.696 55.048 18.396C55.972 18.886 56.84 19.362 57.652 19.824C56.7 20.524 55.314 21.084 53.466 21.504L53.872 22.456C56.056 21.938 57.624 21.252 58.604 20.384C59.864 21.126 60.914 21.798 61.754 22.414L62.44 21.616C61.628 21.056 60.578 20.398 59.262 19.67C60.004 18.746 60.494 17.57 60.718 16.17H62.398V15.204H57.428C57.624 14.56 57.834 13.832 58.03 13.034L57.05 12.95ZM59.752 16.17C59.514 17.402 59.052 18.396 58.366 19.18C57.708 18.83 56.994 18.466 56.238 18.074C56.532 17.542 56.812 16.898 57.092 16.17H59.752ZM51.226 22.274C52.024 22.274 52.43 21.868 52.43 21.056V17.01C52.864 16.814 53.298 16.618 53.732 16.408V15.386C53.298 15.61 52.864 15.82 52.43 16.016V13.216H53.746V12.25H52.43V9.604H51.394V12.25H49.756V13.216H51.394V16.422C50.778 16.646 50.134 16.842 49.476 16.996L49.728 18.004C50.274 17.836 50.834 17.64 51.394 17.43V20.804C51.394 21.168 51.212 21.35 50.876 21.35C50.54 21.35 50.19 21.322 49.826 21.294L50.036 22.274H51.226ZM74.648 11.13L74.438 15.288H71.862L72.226 11.13H74.648ZM70.882 15.288H69.104V16.268H70.798L70.378 21H68.684V21.98H76.44V21H75.18L75.684 10.178H69.468V11.13H71.246L70.882 15.288ZM71.344 21L71.778 16.268H74.396L74.172 21H71.344ZM65.436 9.59C65.044 11.27 64.414 12.796 63.546 14.168L64.372 14.686C64.862 13.916 65.296 13.048 65.674 12.096H68.586V11.158H66.01C66.15 10.71 66.29 10.262 66.416 9.786L65.436 9.59ZM65.016 13.972V14.882H65.898V16.604H63.98V17.528H65.898V20.706C65.898 20.902 65.758 21.056 65.478 21.168L65.912 22.036C67.004 21.714 67.984 21.308 68.824 20.804L68.642 19.908C68.054 20.286 67.466 20.594 66.892 20.832V17.528H68.824V16.604H66.892V14.882H68.348V13.972H65.016Z" fill="#337EFF"/>
<path d="M4 4C4 1.23858 6.23858 -1 9 -1H93V1H9C7.34315 1 6 2.34315 6 4H4ZM93 33H9C6.23858 33 4 30.7614 4 28H6C6 29.6569 7.34315 31 9 31H93V33ZM9 33C6.23858 33 4 30.7614 4 28V4C4 1.23858 6.23858 -1 9 -1V1C7.34315 1 6 2.34315 6 4V28C6 29.6569 7.34315 31 9 31V33ZM93 0V32V0Z" fill="#337EFF" mask="url(#path-1-inside-1_31739_156016)"/>
<path d="M112.6 16.2C112.6 15.5373 113.137 15 113.8 15C114.463 15 115 15.5373 115 16.2C115 16.8627 114.463 17.4 113.8 17.4C113.137 17.4 112.6 16.8627 112.6 16.2Z" fill="#337EFF"/>
<path d="M107.8 16.2C107.8 15.5373 108.337 15 109 15C109.663 15 110.2 15.5373 110.2 16.2C110.2 16.8627 109.663 17.4 109 17.4C108.337 17.4 107.8 16.8627 107.8 16.2Z" fill="#337EFF"/>
<path d="M104.2 15C103.537 15 103 15.5373 103 16.2C103 16.8627 103.537 17.4 104.2 17.4C104.863 17.4 105.4 16.8627 105.4 16.2C105.4 15.5373 104.863 15 104.2 15Z" fill="#337EFF"/>
<path d="M121 0.5H93.5V31.5H121C122.933 31.5 124.5 29.933 124.5 28V4C124.5 2.067 122.933 0.5 121 0.5Z" stroke="#337EFF"/>
<g filter="url(#filter0_d_31739_156016)">
<rect x="5" y="39.3684" width="110.526" height="103.158" rx="3.68421" fill="white"/>
<path d="M17.6775 55.6972L17.0456 56.3032C17.9612 57.0254 18.6833 57.7088 19.2119 58.3535L19.8567 57.7088C19.2635 57.0382 18.5414 56.3677 17.6775 55.6972ZM25.1693 67.0832H28.1609L28.393 66.1548C28.0448 66.1806 27.5548 66.1935 26.9359 66.2064C26.2912 66.2193 25.6593 66.2322 25.0404 66.2322C24.0346 66.2322 23.1835 66.2193 22.513 66.2064C21.7393 66.1806 21.1591 66.0775 20.7593 65.8969C20.3983 65.7293 20.063 65.4585 19.7535 65.0846C19.6504 64.9685 19.5472 64.8654 19.4441 64.788V59.9654H16.7491V60.8164H18.5801V64.7364C18.0385 64.9685 17.4325 65.639 16.7362 66.7351L17.4325 67.3669C18.1546 66.1548 18.6704 65.5617 18.9927 65.5617C19.1475 65.5617 19.3151 65.6648 19.4956 65.884C19.8954 66.3482 20.3467 66.6706 20.8496 66.8254C21.3654 66.9672 22.0488 67.0446 22.8741 67.0575C23.6993 67.0704 24.473 67.0832 25.1693 67.0832ZM24.0604 55.4522V57.1027H22.3583C22.513 56.6901 22.6548 56.2646 22.7838 55.8132L21.8941 55.6327C21.5846 56.7932 21.0817 57.8635 20.3854 58.8306L21.1977 59.3335C21.4814 58.9209 21.7393 58.4825 21.9714 57.9925H24.0604V59.8364H20.7077V60.739H22.7838C22.7451 61.5385 22.6162 62.2348 22.3969 62.8022C22.0617 63.5759 21.3783 64.2206 20.3338 64.7364L20.9398 65.4714C22.1519 64.8396 22.9385 64.0272 23.2738 63.0472C23.493 62.4025 23.6219 61.6288 23.6606 60.739H24.963V64.4011C24.963 64.6848 25.0404 64.9169 25.2209 65.0975C25.3885 65.278 25.6335 65.3682 25.9688 65.3682H26.8972C27.3356 65.3554 27.6451 65.2522 27.8256 65.0717C28.0191 64.8654 28.1609 64.2335 28.2383 63.1632L27.4259 62.8925C27.3743 63.808 27.2712 64.3238 27.1164 64.4398C27.0133 64.5172 26.8843 64.5559 26.7038 64.5559H26.2396C25.9559 64.5559 25.8269 64.4269 25.8269 64.1948V60.739H27.9933V59.8364H24.963V57.9925H27.5419V57.1027H24.963V55.4522H24.0604ZM31.1912 57.6572V63.7822C30.6496 63.9369 30.0951 64.0788 29.5148 64.2206L29.7856 65.1361C31.2814 64.7364 32.5967 64.298 33.7314 63.8209V62.8925C33.2285 63.0988 32.6998 63.2922 32.1454 63.4856V57.6572H33.6412V56.7546H29.6567V57.6572H31.1912ZM34.1312 56.0454V56.948H37.2775C37.213 57.4251 37.1227 57.8893 36.9938 58.3277H34.7243V64.3882H35.6141V59.1788H39.7533V64.3882H40.6559V58.3277H37.9222C38.0254 57.8893 38.1156 57.438 38.193 56.948H41.2748V56.0454H34.1312ZM38.7346 64.414L38.1156 65.0072C39.2246 65.8582 40.1014 66.6577 40.7462 67.4056L41.4167 66.7351C40.6946 65.9614 39.7919 65.1877 38.7346 64.414ZM37.1614 60.004V62.2219C37.1227 63.3438 36.8262 64.2593 36.2846 64.9556C35.6914 65.6261 34.6341 66.1677 33.1383 66.5675L33.6412 67.3669C35.1885 66.9285 36.2975 66.3225 36.9809 65.5617C37.6772 64.7235 38.0383 63.6146 38.0898 62.2219V60.004H37.1614ZM42.4869 60.8293V61.7577H54.0793V60.8293H42.4869Z" fill="#337EFF"/>
<path d="M17.6775 85.1728L17.0456 85.7788C17.9612 86.5009 18.6833 87.1844 19.2119 87.8291L19.8567 87.1844C19.2635 86.5138 18.5414 85.8433 17.6775 85.1728ZM25.1693 96.5588H28.1609L28.393 95.6304C28.0448 95.6562 27.5548 95.6691 26.9359 95.682C26.2912 95.6949 25.6593 95.7078 25.0404 95.7078C24.0346 95.7078 23.1835 95.6949 22.513 95.682C21.7393 95.6562 21.1591 95.553 20.7593 95.3725C20.3983 95.2049 20.063 94.9341 19.7535 94.5601C19.6504 94.4441 19.5472 94.3409 19.4441 94.2636V89.4409H16.7491V90.292H18.5801V94.212C18.0385 94.4441 17.4325 95.1146 16.7362 96.2107L17.4325 96.8425C18.1546 95.6304 18.6704 95.0373 18.9927 95.0373C19.1475 95.0373 19.3151 95.1404 19.4956 95.3596C19.8954 95.8238 20.3467 96.1462 20.8496 96.3009C21.3654 96.4428 22.0488 96.5201 22.8741 96.533C23.6993 96.5459 24.473 96.5588 25.1693 96.5588ZM24.0604 84.9278V86.5783H22.3583C22.513 86.1657 22.6548 85.7401 22.7838 85.2888L21.8941 85.1083C21.5846 86.2688 21.0817 87.3391 20.3854 88.3062L21.1977 88.8091C21.4814 88.3965 21.7393 87.958 21.9714 87.468H24.0604V89.312H20.7077V90.2146H22.7838C22.7451 91.0141 22.6162 91.7104 22.3969 92.2778C22.0617 93.0515 21.3783 93.6962 20.3338 94.212L20.9398 94.947C22.1519 94.3151 22.9385 93.5028 23.2738 92.5228C23.493 91.878 23.6219 91.1044 23.6606 90.2146H24.963V93.8767C24.963 94.1604 25.0404 94.3925 25.2209 94.573C25.3885 94.7536 25.6335 94.8438 25.9688 94.8438H26.8972C27.3356 94.8309 27.6451 94.7278 27.8256 94.5473C28.0191 94.3409 28.1609 93.7091 28.2383 92.6388L27.4259 92.368C27.3743 93.2836 27.2712 93.7994 27.1164 93.9154C27.0133 93.9928 26.8843 94.0315 26.7038 94.0315H26.2396C25.9559 94.0315 25.8269 93.9025 25.8269 93.6704V90.2146H27.9933V89.312H24.963V87.468H27.5419V86.5783H24.963V84.9278H24.0604ZM31.1912 87.1328V93.2578C30.6496 93.4125 30.0951 93.5544 29.5148 93.6962L29.7856 94.6117C31.2814 94.212 32.5967 93.7736 33.7314 93.2965V92.368C33.2285 92.5744 32.6998 92.7678 32.1454 92.9612V87.1328H33.6412V86.2301H29.6567V87.1328H31.1912ZM34.1312 85.5209V86.4236H37.2775C37.213 86.9007 37.1227 87.3649 36.9938 87.8033H34.7243V93.8638H35.6141V88.6544H39.7533V93.8638H40.6559V87.8033H37.9222C38.0254 87.3649 38.1156 86.9136 38.193 86.4236H41.2748V85.5209H34.1312ZM38.7346 93.8896L38.1156 94.4828C39.2246 95.3338 40.1014 96.1333 40.7462 96.8812L41.4167 96.2107C40.6946 95.437 39.7919 94.6633 38.7346 93.8896ZM37.1614 89.4796V91.6975C37.1227 92.8194 36.8262 93.7349 36.2846 94.4312C35.6914 95.1017 34.6341 95.6433 33.1383 96.043L33.6412 96.8425C35.1885 96.4041 36.2975 95.798 36.9809 95.0373C37.6772 94.1991 38.0383 93.0901 38.0898 91.6975V89.4796H37.1614ZM43.7119 86.3978V87.3133H52.8672V86.3978H43.7119ZM42.5256 94.5086V95.4499H54.0406V94.5086H42.5256Z" fill="#333333"/>
<path d="M17.6775 114.646L17.0456 115.252C17.9612 115.975 18.6833 116.658 19.2119 117.303L19.8567 116.658C19.2635 115.987 18.5414 115.317 17.6775 114.646ZM25.1693 126.032H28.1609L28.393 125.104C28.0448 125.13 27.5548 125.143 26.9359 125.156C26.2912 125.169 25.6593 125.181 25.0404 125.181C24.0346 125.181 23.1835 125.169 22.513 125.156C21.7393 125.13 21.1591 125.027 20.7593 124.846C20.3983 124.679 20.063 124.408 19.7535 124.034C19.6504 123.918 19.5472 123.815 19.4441 123.737V118.915H16.7491V119.766H18.5801V123.686C18.0385 123.918 17.4325 124.588 16.7362 125.684L17.4325 126.316C18.1546 125.104 18.6704 124.511 18.9927 124.511C19.1475 124.511 19.3151 124.614 19.4956 124.833C19.8954 125.297 20.3467 125.62 20.8496 125.775C21.3654 125.916 22.0488 125.994 22.8741 126.007C23.6993 126.02 24.473 126.032 25.1693 126.032ZM24.0604 114.401V116.052H22.3583C22.513 115.639 22.6548 115.214 22.7838 114.762L21.8941 114.582C21.5846 115.742 21.0817 116.813 20.3854 117.78L21.1977 118.283C21.4814 117.87 21.7393 117.432 21.9714 116.942H24.0604V118.786H20.7077V119.688H22.7838C22.7451 120.488 22.6162 121.184 22.3969 121.751C22.0617 122.525 21.3783 123.17 20.3338 123.686L20.9398 124.421C22.1519 123.789 22.9385 122.976 23.2738 121.996C23.493 121.352 23.6219 120.578 23.6606 119.688H24.963V123.35C24.963 123.634 25.0404 123.866 25.2209 124.047C25.3885 124.227 25.6335 124.317 25.9688 124.317H26.8972C27.3356 124.305 27.6451 124.201 27.8256 124.021C28.0191 123.815 28.1609 123.183 28.2383 122.112L27.4259 121.842C27.3743 122.757 27.2712 123.273 27.1164 123.389C27.0133 123.466 26.8843 123.505 26.7038 123.505H26.2396C25.9559 123.505 25.8269 123.376 25.8269 123.144V119.688H27.9933V118.786H24.963V116.942H27.5419V116.052H24.963V114.401H24.0604ZM31.1912 116.606V122.731C30.6496 122.886 30.0951 123.028 29.5148 123.17L29.7856 124.085C31.2814 123.686 32.5967 123.247 33.7314 122.77V121.842C33.2285 122.048 32.6998 122.241 32.1454 122.435V116.606H33.6412V115.704H29.6567V116.606H31.1912ZM34.1312 114.995V115.897H37.2775C37.213 116.374 37.1227 116.839 36.9938 117.277H34.7243V123.337H35.6141V118.128H39.7533V123.337H40.6559V117.277H37.9222C38.0254 116.839 38.1156 116.387 38.193 115.897H41.2748V114.995H34.1312ZM38.7346 123.363L38.1156 123.956C39.2246 124.807 40.1014 125.607 40.7462 126.355L41.4167 125.684C40.6946 124.911 39.7919 124.137 38.7346 123.363ZM37.1614 118.953V121.171C37.1227 122.293 36.8262 123.209 36.2846 123.905C35.6914 124.575 34.6341 125.117 33.1383 125.517L33.6412 126.316C35.1885 125.878 36.2975 125.272 36.9809 124.511C37.6772 123.673 38.0383 122.564 38.0898 121.171V118.953H37.1614ZM43.4283 115.42V116.323H53.1767V115.42H43.4283ZM44.2922 119.882V120.784H52.2998V119.882H44.2922ZM42.4741 124.653V125.581H54.1051V124.653H42.4741Z" fill="#333333"/>
<rect x="4.53947" y="38.9079" width="111.447" height="104.079" rx="4.14474" stroke="#E5E5E5" stroke-width="0.921053"/>
</g>
<defs>
<filter id="filter0_d_31739_156016" x="0.394647" y="34.7631" width="119.737" height="112.368" filterUnits="userSpaceOnUse" color-interpolation-filters="sRGB">
<feFlood flood-opacity="0" result="BackgroundImageFix"/>
<feColorMatrix in="SourceAlpha" type="matrix" values="0 0 0 0 0 0 0 0 0 0 0 0 0 0 0 0 0 0 127 0" result="hardAlpha"/>
<feOffset/>
<feGaussianBlur stdDeviation="1.84211"/>
<feColorMatrix type="matrix" values="0 0 0 0 0 0 0 0 0 0 0 0 0 0 0 0 0 0 0.1 0"/>
<feBlend mode="normal" in2="BackgroundImageFix" result="effect1_dropShadow_31739_156016"/>
<feBlend mode="normal" in="SourceGraphic" in2="effect1_dropShadow_31739_156016" result="shape"/>
</filter>
</defs>
</svg>
