<svg width="124" height="148" viewBox="0 0 124 148" fill="none" xmlns="http://www.w3.org/2000/svg">
<path d="M21 10.351V11.345H26.348V22.475H27.37V14.523C28.63 15.195 30.198 16.147 32.06 17.379L32.662 16.483C30.87 15.335 29.106 14.327 27.37 13.459V11.345H33.446V10.351H21Z" fill="#337EFF"/>
<path d="M39.886 11.863V12.829H47.278V11.863H44.114C43.918 11.023 43.694 10.267 43.456 9.60899L42.434 9.77699C42.686 10.421 42.924 11.107 43.12 11.863H39.886ZM39.522 20.879V21.859H47.6V20.879H44.856C45.5 18.863 46.046 16.567 46.494 13.991L45.528 13.739C45.038 16.595 44.478 18.975 43.834 20.879H39.522ZM41.496 13.893L40.572 14.187C41.034 16.119 41.426 18.121 41.734 20.193L42.672 19.955C42.336 17.673 41.944 15.657 41.496 13.893ZM39.55 15.139C39.018 15.433 38.486 15.713 37.94 15.965V13.151H39.494V12.185H37.94V9.65099H36.918V12.185H35V13.151H36.918V16.385C36.232 16.637 35.518 16.861 34.79 17.043L35.042 18.051C35.672 17.855 36.302 17.631 36.918 17.393V20.823C36.918 21.215 36.722 21.411 36.344 21.411C35.98 21.411 35.602 21.383 35.21 21.355L35.434 22.335H36.694C37.52 22.335 37.94 21.915 37.94 21.075V16.959C38.486 16.707 39.018 16.441 39.55 16.161V15.139Z" fill="#337EFF"/>
<path d="M49.154 10.533V11.429H52.374V12.465H53.354V11.429H57.106V12.395H58.086V11.429H61.264V10.533H58.086V9.60899H57.106V10.533H53.354V9.62299H52.374V10.533H49.154ZM59.08 14.047C58.618 14.873 58.072 15.587 57.442 16.189L58.184 16.735C58.856 16.091 59.43 15.321 59.92 14.453L59.08 14.047ZM55.146 14.369L54.306 14.635C54.572 15.167 54.796 15.741 54.978 16.329L55.874 16.105C55.664 15.447 55.426 14.873 55.146 14.369ZM51.548 14.551L50.694 14.831C51.058 15.461 51.408 16.189 51.716 17.001L52.542 16.637C52.262 15.895 51.926 15.195 51.548 14.551ZM59.85 12.493C57.218 12.899 53.914 13.109 49.938 13.109L50.246 14.047C54.446 14.047 57.806 13.795 60.34 13.319L59.85 12.493ZM49.364 17.575V18.513H53.76C52.724 19.591 51.128 20.487 48.944 21.187L49.504 22.125C51.87 21.173 53.578 19.969 54.642 18.513H54.74V22.447H55.72V18.513H55.818C56.798 19.829 58.492 21.033 60.872 22.125L61.558 21.243C59.318 20.445 57.694 19.535 56.686 18.513H61.096V17.575H55.72V16.679H54.74V17.575H49.364Z" fill="#337EFF"/>
<path d="M64.344 11.793V17.547H68.726V18.877H63.014V19.829H68.726V22.489H69.734V19.829H75.446V18.877H69.734V17.547H74.116V11.793H71.428C71.848 11.219 72.226 10.575 72.562 9.86099L71.582 9.51099C71.232 10.323 70.826 11.093 70.378 11.793H64.344ZM73.136 16.651H69.734V15.083H73.136V16.651ZM68.726 16.651H65.324V15.083H68.726V16.651ZM65.324 14.215V12.675H68.726V14.215H65.324ZM69.734 12.675H73.136V14.215H69.734V12.675ZM66.822 9.58099L65.968 9.98699C66.444 10.519 66.878 11.107 67.298 11.779L68.138 11.359C67.718 10.715 67.284 10.113 66.822 9.58099Z" fill="#337EFF"/>
<path d="M4 4C4 1.23858 6.23858 -1 9 -1H91.446V1H9C7.34315 1 6 2.34315 6 4H4ZM91.446 33H9C6.23858 33 4 30.7614 4 28H6C6 29.6569 7.34315 31 9 31H91.446V33ZM9 33C6.23858 33 4 30.7614 4 28V4C4 1.23858 6.23858 -1 9 -1V1C7.34315 1 6 2.34315 6 4V28C6 29.6569 7.34315 31 9 31V33ZM91.446 0V32V0Z" fill="#337EFF" mask="url(#path-1-inside-1_32199_162835)"/>
<path d="M111.046 16.2C111.046 15.5373 111.583 15 112.246 15C112.909 15 113.446 15.5373 113.446 16.2C113.446 16.8627 112.909 17.4 112.246 17.4C111.583 17.4 111.046 16.8627 111.046 16.2Z" fill="#337EFF"/>
<path d="M106.246 16.2C106.246 15.5373 106.783 15 107.446 15C108.109 15 108.646 15.5373 108.646 16.2C108.646 16.8627 108.109 17.4 107.446 17.4C106.783 17.4 106.246 16.8627 106.246 16.2Z" fill="#337EFF"/>
<path d="M102.646 15C101.983 15 101.446 15.5373 101.446 16.2C101.446 16.8627 101.983 17.4 102.646 17.4C103.309 17.4 103.846 16.8627 103.846 16.2C103.846 15.5373 103.309 15 102.646 15Z" fill="#337EFF"/>
<path d="M119.446 0.5H91.9458V31.5H119.446C121.379 31.5 122.946 29.933 122.946 28V4C122.946 2.067 121.379 0.5 119.446 0.5Z" stroke="#337EFF"/>
<g filter="url(#filter0_d_32199_162835)">
<rect x="5" y="39.3684" width="110.526" height="103.158" rx="3.68421" fill="white"/>
<path d="M17.6776 55.6971L17.0458 56.3032C17.9613 57.0253 18.6834 57.7087 19.2121 58.3535L19.8569 57.7087C19.2637 57.0382 18.5416 56.3677 17.6776 55.6971ZM25.1695 67.0832H28.1611L28.3932 66.1548C28.045 66.1806 27.555 66.1935 26.9361 66.2064C26.2913 66.2193 25.6595 66.2322 25.0405 66.2322C24.0347 66.2322 23.1837 66.2193 22.5132 66.2064C21.7395 66.1806 21.1592 66.0774 20.7595 65.8969C20.3984 65.7293 20.0632 65.4585 19.7537 65.0845C19.6505 64.9685 19.5474 64.8653 19.4442 64.7879V59.9653H16.7492V60.8164H18.5803V64.7364C18.0387 64.9685 17.4326 65.639 16.7363 66.735L17.4326 67.3669C18.1547 66.1548 18.6705 65.5616 18.9929 65.5616C19.1476 65.5616 19.3153 65.6648 19.4958 65.884C19.8955 66.3482 20.3469 66.6706 20.8497 66.8253C21.3655 66.9672 22.049 67.0445 22.8742 67.0574C23.6995 67.0703 24.4732 67.0832 25.1695 67.0832ZM24.0605 55.4521V57.1027H22.3584C22.5132 56.69 22.655 56.2645 22.784 55.8132L21.8942 55.6327C21.5847 56.7932 21.0819 57.8635 20.3855 58.8306L21.1979 59.3335C21.4816 58.9208 21.7395 58.4824 21.9716 57.9924H24.0605V59.8364H20.7079V60.739H22.784C22.7453 61.5385 22.6163 62.2348 22.3971 62.8021C22.0619 63.5758 21.3784 64.2206 20.334 64.7364L20.94 65.4714C22.1521 64.8395 22.9387 64.0271 23.274 63.0471C23.4932 62.4024 23.6221 61.6287 23.6608 60.739H24.9632V64.4011C24.9632 64.6848 25.0405 64.9169 25.2211 65.0974C25.3887 65.2779 25.6337 65.3682 25.969 65.3682H26.8974C27.3358 65.3553 27.6453 65.2522 27.8258 65.0716C28.0192 64.8653 28.1611 64.2335 28.2384 63.1632L27.4261 62.8924C27.3745 63.8079 27.2713 64.3237 27.1166 64.4398C27.0134 64.5171 26.8845 64.5558 26.704 64.5558H26.2397C25.9561 64.5558 25.8271 64.4269 25.8271 64.1948V60.739H27.9934V59.8364H24.9632V57.9924H27.5421V57.1027H24.9632V55.4521H24.0605Z" fill="#337EFF"/>
<path d="M31.1913 57.6571V63.7821C30.6497 63.9369 30.0953 64.0787 29.515 64.2206L29.7858 65.1361C31.2816 64.7364 32.5969 64.2979 33.7316 63.8208V62.8924C33.2287 63.0987 32.7 63.2921 32.1455 63.4856V57.6571H33.6413V56.7545H29.6569V57.6571H31.1913ZM34.1313 56.0453V56.9479H37.2776C37.2132 57.425 37.1229 57.8893 36.994 58.3277H34.7245V64.3882H35.6142V59.1787H39.7534V64.3882H40.6561V58.3277H37.9224C38.0255 57.8893 38.1158 57.4379 38.1932 56.9479H41.275V56.0453H34.1313ZM38.7347 64.414L38.1158 65.0071C39.2248 65.8582 40.1016 66.6577 40.7463 67.4056L41.4169 66.735C40.6947 65.9614 39.7921 65.1877 38.7347 64.414ZM37.1616 60.004V62.2219C37.1229 63.3437 36.8263 64.2593 36.2847 64.9556C35.6916 65.6261 34.6342 66.1677 33.1384 66.5674L33.6413 67.3669C35.1887 66.9285 36.2976 66.3224 36.9811 65.5616C37.6774 64.7235 38.0384 63.6145 38.09 62.2219V60.004H37.1616Z" fill="#337EFF"/>
<path d="M42.4871 60.8293V61.7577H54.0795V60.8293H42.4871Z" fill="#337EFF"/>
<path d="M17.6776 85.1727L17.0458 85.7788C17.9613 86.5009 18.6834 87.1843 19.2121 87.8291L19.8569 87.1843C19.2637 86.5138 18.5416 85.8433 17.6776 85.1727ZM25.1695 96.5588H28.1611L28.3932 95.6304C28.045 95.6562 27.555 95.6691 26.9361 95.6819C26.2913 95.6948 25.6595 95.7077 25.0405 95.7077C24.0347 95.7077 23.1837 95.6948 22.5132 95.6819C21.7395 95.6562 21.1592 95.553 20.7595 95.3725C20.3984 95.2048 20.0632 94.9341 19.7537 94.5601C19.6505 94.4441 19.5474 94.3409 19.4442 94.2635V89.4409H16.7492V90.2919H18.5803V94.2119C18.0387 94.4441 17.4326 95.1146 16.7363 96.2106L17.4326 96.8425C18.1547 95.6304 18.6705 95.0372 18.9929 95.0372C19.1476 95.0372 19.3153 95.1404 19.4958 95.3596C19.8955 95.8238 20.3469 96.1462 20.8497 96.3009C21.3655 96.4427 22.049 96.5201 22.8742 96.533C23.6995 96.5459 24.4732 96.5588 25.1695 96.5588ZM24.0605 84.9277V86.5783H22.3584C22.5132 86.1656 22.655 85.7401 22.784 85.2888L21.8942 85.1083C21.5847 86.2688 21.0819 87.3391 20.3855 88.3062L21.1979 88.8091C21.4816 88.3964 21.7395 87.958 21.9716 87.468H24.0605V89.3119H20.7079V90.2146H22.784C22.7453 91.0141 22.6163 91.7104 22.3971 92.2777C22.0619 93.0514 21.3784 93.6962 20.334 94.2119L20.94 94.9469C22.1521 94.3151 22.9387 93.5027 23.274 92.5227C23.4932 91.878 23.6221 91.1043 23.6608 90.2146H24.9632V93.8767C24.9632 94.1604 25.0405 94.3925 25.2211 94.573C25.3887 94.7535 25.6337 94.8438 25.969 94.8438H26.8974C27.3358 94.8309 27.6453 94.7277 27.8258 94.5472C28.0192 94.3409 28.1611 93.7091 28.2384 92.6388L27.4261 92.368C27.3745 93.2835 27.2713 93.7993 27.1166 93.9154C27.0134 93.9927 26.8845 94.0314 26.704 94.0314H26.2397C25.9561 94.0314 25.8271 93.9025 25.8271 93.6704V90.2146H27.9934V89.3119H24.9632V87.468H27.5421V86.5783H24.9632V84.9277H24.0605Z" fill="#333333"/>
<path d="M31.1913 87.1327V93.2577C30.6497 93.4125 30.0953 93.5543 29.515 93.6962L29.7858 94.6117C31.2816 94.2119 32.5969 93.7735 33.7316 93.2964V92.368C33.2287 92.5743 32.7 92.7677 32.1455 92.9612V87.1327H33.6413V86.2301H29.6569V87.1327H31.1913ZM34.1313 85.5209V86.4235H37.2776C37.2132 86.9006 37.1229 87.3648 36.994 87.8033H34.7245V93.8638H35.6142V88.6543H39.7534V93.8638H40.6561V87.8033H37.9224C38.0255 87.3648 38.1158 86.9135 38.1932 86.4235H41.275V85.5209H34.1313ZM38.7347 93.8896L38.1158 94.4827C39.2248 95.3338 40.1016 96.1333 40.7463 96.8812L41.4169 96.2106C40.6947 95.4369 39.7921 94.6633 38.7347 93.8896ZM37.1616 89.4796V91.6975C37.1229 92.8193 36.8263 93.7348 36.2847 94.4312C35.6916 95.1017 34.6342 95.6433 33.1384 96.043L33.6413 96.8425C35.1887 96.4041 36.2976 95.798 36.9811 95.0372C37.6774 94.1991 38.0384 93.0901 38.09 91.6975V89.4796H37.1616Z" fill="#333333"/>
<path d="M43.7121 86.3977V87.3133H52.8674V86.3977H43.7121ZM42.5258 94.5085V95.4498H54.0408V94.5085H42.5258Z" fill="#333333"/>
<path d="M17.6776 114.646L17.0458 115.252C17.9613 115.975 18.6834 116.658 19.2121 117.303L19.8569 116.658C19.2637 115.987 18.5416 115.317 17.6776 114.646ZM25.1695 126.032H28.1611L28.3932 125.104C28.045 125.13 27.555 125.143 26.9361 125.156C26.2913 125.168 25.6595 125.181 25.0405 125.181C24.0347 125.181 23.1837 125.168 22.5132 125.156C21.7395 125.13 21.1592 125.027 20.7595 124.846C20.3984 124.678 20.0632 124.408 19.7537 124.034C19.6505 123.918 19.5474 123.815 19.4442 123.737V118.915H16.7492V119.766H18.5803V123.686C18.0387 123.918 17.4326 124.588 16.7363 125.684L17.4326 126.316C18.1547 125.104 18.6705 124.511 18.9929 124.511C19.1476 124.511 19.3153 124.614 19.4958 124.833C19.8955 125.297 20.3469 125.62 20.8497 125.775C21.3655 125.916 22.049 125.994 22.8742 126.007C23.6995 126.02 24.4732 126.032 25.1695 126.032ZM24.0605 114.401V116.052H22.3584C22.5132 115.639 22.655 115.214 22.784 114.762L21.8942 114.582C21.5847 115.742 21.0819 116.813 20.3855 117.78L21.1979 118.283C21.4816 117.87 21.7395 117.432 21.9716 116.942H24.0605V118.786H20.7079V119.688H22.784C22.7453 120.488 22.6163 121.184 22.3971 121.751C22.0619 122.525 21.3784 123.17 20.334 123.686L20.94 124.421C22.1521 123.789 22.9387 122.976 23.274 121.996C23.4932 121.352 23.6221 120.578 23.6608 119.688H24.9632V123.35C24.9632 123.634 25.0405 123.866 25.2211 124.047C25.3887 124.227 25.6337 124.317 25.969 124.317H26.8974C27.3358 124.305 27.6453 124.201 27.8258 124.021C28.0192 123.815 28.1611 123.183 28.2384 122.112L27.4261 121.842C27.3745 122.757 27.2713 123.273 27.1166 123.389C27.0134 123.466 26.8845 123.505 26.704 123.505H26.2397C25.9561 123.505 25.8271 123.376 25.8271 123.144V119.688H27.9934V118.786H24.9632V116.942H27.5421V116.052H24.9632V114.401H24.0605Z" fill="#333333"/>
<path d="M31.1913 116.606V122.731C30.6497 122.886 30.0953 123.028 29.515 123.17L29.7858 124.085C31.2816 123.686 32.5969 123.247 33.7316 122.77V121.842C33.2287 122.048 32.7 122.241 32.1455 122.435V116.606H33.6413V115.704H29.6569V116.606H31.1913ZM34.1313 114.995V115.897H37.2776C37.2132 116.374 37.1229 116.838 36.994 117.277H34.7245V123.337H35.6142V118.128H39.7534V123.337H40.6561V117.277H37.9224C38.0255 116.838 38.1158 116.387 38.1932 115.897H41.275V114.995H34.1313ZM38.7347 123.363L38.1158 123.956C39.2248 124.807 40.1016 125.607 40.7463 126.355L41.4169 125.684C40.6947 124.911 39.7921 124.137 38.7347 123.363ZM37.1616 118.953V121.171C37.1229 122.293 36.8263 123.208 36.2847 123.905C35.6916 124.575 34.6342 125.117 33.1384 125.517L33.6413 126.316C35.1887 125.878 36.2976 125.272 36.9811 124.511C37.6774 123.673 38.0384 122.564 38.09 121.171V118.953H37.1616Z" fill="#333333"/>
<path d="M43.4284 115.42V116.323H53.1769V115.42H43.4284ZM44.2924 119.882V120.784H52.3V119.882H44.2924ZM42.4742 124.653V125.581H54.1053V124.653H42.4742Z" fill="#333333"/>
<rect x="4.53947" y="38.9079" width="111.447" height="104.079" rx="4.14474" stroke="#E5E5E5" stroke-width="0.921053"/>
</g>
<defs>
<filter id="filter0_d_32199_162835" x="0.394891" y="34.7631" width="119.737" height="112.368" filterUnits="userSpaceOnUse" color-interpolation-filters="sRGB">
<feFlood flood-opacity="0" result="BackgroundImageFix"/>
<feColorMatrix in="SourceAlpha" type="matrix" values="0 0 0 0 0 0 0 0 0 0 0 0 0 0 0 0 0 0 127 0" result="hardAlpha"/>
<feOffset/>
<feGaussianBlur stdDeviation="1.84211"/>
<feColorMatrix type="matrix" values="0 0 0 0 0 0 0 0 0 0 0 0 0 0 0 0 0 0 0.1 0"/>
<feBlend mode="normal" in2="BackgroundImageFix" result="effect1_dropShadow_32199_162835"/>
<feBlend mode="normal" in="SourceGraphic" in2="effect1_dropShadow_32199_162835" result="shape"/>
</filter>
</defs>
</svg>
