<svg width="124" height="148" viewBox="0 0 124 148" fill="none" xmlns="http://www.w3.org/2000/svg">
<path d="M21 10.3511V11.3451H26.348V22.4751H27.37V14.5231C28.63 15.1951 30.198 16.1471 32.06 17.3791L32.662 16.4831C30.87 15.3351 29.106 14.3271 27.37 13.4591V11.3451H33.446V10.3511H21Z" fill="#337EFF"/>
<path d="M39.886 11.8631V12.8291H47.278V11.8631H44.114C43.918 11.0231 43.694 10.2671 43.456 9.60907L42.434 9.77707C42.686 10.4211 42.924 11.1071 43.12 11.8631H39.886ZM39.522 20.8791V21.8591H47.6V20.8791H44.856C45.5 18.8631 46.046 16.5671 46.494 13.9911L45.528 13.7391C45.038 16.5951 44.478 18.9751 43.834 20.8791H39.522ZM41.496 13.8931L40.572 14.1871C41.034 16.1191 41.426 18.1211 41.734 20.1931L42.672 19.9551C42.336 17.6731 41.944 15.6571 41.496 13.8931ZM39.55 15.1391C39.018 15.4331 38.486 15.7131 37.94 15.9651V13.1511H39.494V12.1851H37.94V9.65107H36.918V12.1851H35V13.1511H36.918V16.3851C36.232 16.6371 35.518 16.8611 34.79 17.0431L35.042 18.0511C35.672 17.8551 36.302 17.6311 36.918 17.3931V20.8231C36.918 21.2151 36.722 21.4111 36.344 21.4111C35.98 21.4111 35.602 21.3831 35.21 21.3551L35.434 22.3351H36.694C37.52 22.3351 37.94 21.9151 37.94 21.0751V16.9591C38.486 16.7071 39.018 16.4411 39.55 16.1611V15.1391Z" fill="#337EFF"/>
<path d="M61.18 11.2051H57.904C57.708 10.5611 57.512 10.0011 57.302 9.49707L56.28 9.66507C56.504 10.1411 56.714 10.6451 56.896 11.2051H53.676V14.0191H54.628V12.1151H60.214V13.9631H61.18V11.2051ZM56.28 12.9971C56.084 13.7811 55.874 14.5231 55.636 15.2511H53.34V16.2171H55.3C54.992 17.0011 54.656 17.7431 54.278 18.4431C55.202 18.9331 56.07 19.4091 56.882 19.8711C55.93 20.5711 54.544 21.1311 52.696 21.5511L53.102 22.5031C55.286 21.9851 56.854 21.2991 57.834 20.4311C59.094 21.1731 60.144 21.8451 60.984 22.4611L61.67 21.6631C60.858 21.1031 59.808 20.4451 58.492 19.7171C59.234 18.7931 59.724 17.6171 59.948 16.2171H61.628V15.2511H56.658C56.854 14.6071 57.064 13.8791 57.26 13.0811L56.28 12.9971ZM58.982 16.2171C58.744 17.4491 58.282 18.4431 57.596 19.2271C56.938 18.8771 56.224 18.5131 55.468 18.1211C55.762 17.5891 56.042 16.9451 56.322 16.2171H58.982ZM50.456 22.3211C51.254 22.3211 51.66 21.9151 51.66 21.1031V17.0571C52.094 16.8611 52.528 16.6651 52.962 16.4551V15.4331C52.528 15.6571 52.094 15.8671 51.66 16.0631V13.2631H52.976V12.2971H51.66V9.65107H50.624V12.2971H48.986V13.2631H50.624V16.4691C50.008 16.6931 49.364 16.8891 48.706 17.0431L48.958 18.0511C49.504 17.8831 50.064 17.6871 50.624 17.4771V20.8511C50.624 21.2151 50.442 21.3971 50.106 21.3971C49.77 21.3971 49.42 21.3691 49.056 21.3411L49.266 22.3211H50.456Z" fill="#337EFF"/>
<path d="M73.878 11.1771L73.668 15.3351H71.092L71.456 11.1771H73.878ZM70.112 15.3351H68.334V16.3151H70.028L69.608 21.0471H67.914V22.0271H75.67V21.0471H74.41L74.914 10.2251H68.698V11.1771H70.476L70.112 15.3351ZM70.574 21.0471L71.008 16.3151H73.626L73.402 21.0471H70.574ZM64.666 9.63707C64.274 11.3171 63.644 12.8431 62.776 14.2151L63.602 14.7331C64.092 13.9631 64.526 13.0951 64.904 12.1431H67.816V11.2051H65.24C65.38 10.7571 65.52 10.3091 65.646 9.83307L64.666 9.63707ZM64.246 14.0191V14.9291H65.128V16.6511H63.21V17.5751H65.128V20.7531C65.128 20.9491 64.988 21.1031 64.708 21.2151L65.142 22.0831C66.234 21.7611 67.214 21.3551 68.054 20.8511L67.872 19.9551C67.284 20.3331 66.696 20.6411 66.122 20.8791V17.5751H68.054V16.6511H66.122V14.9291H67.578V14.0191H64.246Z" fill="#337EFF"/>
<path d="M4 4C4 1.23858 6.23858 -1 9 -1H91.67V1H9C7.34315 1 6 2.34315 6 4H4ZM91.67 33H9C6.23858 33 4 30.7614 4 28H6C6 29.6569 7.34315 31 9 31H91.67V33ZM9 33C6.23858 33 4 30.7614 4 28V4C4 1.23858 6.23858 -1 9 -1V1C7.34315 1 6 2.34315 6 4V28C6 29.6569 7.34315 31 9 31V33ZM91.67 0V32V0Z" fill="#337EFF" mask="url(#path-1-inside-1_31761_157243)"/>
<path d="M111.27 16.2C111.27 15.5373 111.807 15 112.47 15C113.133 15 113.67 15.5373 113.67 16.2C113.67 16.8627 113.133 17.4 112.47 17.4C111.807 17.4 111.27 16.8627 111.27 16.2Z" fill="#337EFF"/>
<path d="M106.47 16.2C106.47 15.5373 107.007 15 107.67 15C108.333 15 108.87 15.5373 108.87 16.2C108.87 16.8627 108.333 17.4 107.67 17.4C107.007 17.4 106.47 16.8627 106.47 16.2Z" fill="#337EFF"/>
<path d="M102.87 15C102.207 15 101.67 15.5373 101.67 16.2C101.67 16.8627 102.207 17.4 102.87 17.4C103.533 17.4 104.07 16.8627 104.07 16.2C104.07 15.5373 103.533 15 102.87 15Z" fill="#337EFF"/>
<path d="M119.67 0.5H92.1699V31.5H119.67C121.603 31.5 123.17 29.933 123.17 28V4C123.17 2.067 121.603 0.5 119.67 0.5Z" stroke="#337EFF"/>
<g filter="url(#filter0_d_31761_157243)">
<rect x="5" y="39.3684" width="110.526" height="103.158" rx="3.68421" fill="white"/>
<path d="M17.6775 55.6972L17.0456 56.3032C17.9612 57.0254 18.6833 57.7088 19.2119 58.3535L19.8567 57.7088C19.2635 57.0382 18.5414 56.3677 17.6775 55.6972ZM25.1693 67.0832H28.1609L28.393 66.1548C28.0448 66.1806 27.5548 66.1935 26.9359 66.2064C26.2912 66.2193 25.6593 66.2322 25.0404 66.2322C24.0346 66.2322 23.1835 66.2193 22.513 66.2064C21.7393 66.1806 21.1591 66.0775 20.7593 65.8969C20.3983 65.7293 20.063 65.4585 19.7535 65.0846C19.6504 64.9685 19.5472 64.8654 19.4441 64.788V59.9654H16.7491V60.8164H18.5801V64.7364C18.0385 64.9685 17.4325 65.639 16.7362 66.7351L17.4325 67.3669C18.1546 66.1548 18.6704 65.5617 18.9927 65.5617C19.1475 65.5617 19.3151 65.6648 19.4956 65.884C19.8954 66.3482 20.3467 66.6706 20.8496 66.8254C21.3654 66.9672 22.0488 67.0446 22.8741 67.0575C23.6993 67.0704 24.473 67.0832 25.1693 67.0832ZM24.0604 55.4522V57.1027H22.3583C22.513 56.6901 22.6548 56.2646 22.7838 55.8132L21.8941 55.6327C21.5846 56.7932 21.0817 57.8635 20.3854 58.8306L21.1977 59.3335C21.4814 58.9209 21.7393 58.4825 21.9714 57.9925H24.0604V59.8364H20.7077V60.739H22.7838C22.7451 61.5385 22.6162 62.2348 22.3969 62.8022C22.0617 63.5759 21.3783 64.2206 20.3338 64.7364L20.9398 65.4714C22.1519 64.8396 22.9385 64.0272 23.2738 63.0472C23.493 62.4025 23.6219 61.6288 23.6606 60.739H24.963V64.4011C24.963 64.6848 25.0404 64.9169 25.2209 65.0975C25.3885 65.278 25.6335 65.3682 25.9688 65.3682H26.8972C27.3356 65.3554 27.6451 65.2522 27.8256 65.0717C28.0191 64.8654 28.1609 64.2335 28.2383 63.1632L27.4259 62.8925C27.3743 63.808 27.2712 64.3238 27.1164 64.4398C27.0133 64.5172 26.8843 64.5559 26.7038 64.5559H26.2396C25.9559 64.5559 25.8269 64.4269 25.8269 64.1948V60.739H27.9933V59.8364H24.963V57.9925H27.5419V57.1027H24.963V55.4522H24.0604ZM31.1912 57.6572V63.7822C30.6496 63.9369 30.0951 64.0788 29.5148 64.2206L29.7856 65.1361C31.2814 64.7364 32.5967 64.298 33.7314 63.8209V62.8925C33.2285 63.0988 32.6998 63.2922 32.1454 63.4856V57.6572H33.6412V56.7546H29.6567V57.6572H31.1912ZM34.1312 56.0454V56.948H37.2775C37.213 57.4251 37.1227 57.8893 36.9938 58.3277H34.7243V64.3882H35.6141V59.1788H39.7533V64.3882H40.6559V58.3277H37.9222C38.0254 57.8893 38.1156 57.438 38.193 56.948H41.2748V56.0454H34.1312ZM38.7346 64.414L38.1156 65.0072C39.2246 65.8582 40.1014 66.6577 40.7462 67.4056L41.4167 66.7351C40.6946 65.9614 39.7919 65.1877 38.7346 64.414ZM37.1614 60.004V62.2219C37.1227 63.3438 36.8262 64.2593 36.2846 64.9556C35.6914 65.6261 34.6341 66.1677 33.1383 66.5675L33.6412 67.3669C35.1885 66.9285 36.2975 66.3225 36.9809 65.5617C37.6772 64.7235 38.0383 63.6146 38.0898 62.2219V60.004H37.1614ZM42.4869 60.8293V61.7577H54.0793V60.8293H42.4869Z" fill="#337EFF"/>
<path d="M17.6775 85.1728L17.0456 85.7788C17.9612 86.5009 18.6833 87.1844 19.2119 87.8291L19.8567 87.1844C19.2635 86.5138 18.5414 85.8433 17.6775 85.1728ZM25.1693 96.5588H28.1609L28.393 95.6304C28.0448 95.6562 27.5548 95.6691 26.9359 95.682C26.2912 95.6949 25.6593 95.7078 25.0404 95.7078C24.0346 95.7078 23.1835 95.6949 22.513 95.682C21.7393 95.6562 21.1591 95.553 20.7593 95.3725C20.3983 95.2049 20.063 94.9341 19.7535 94.5601C19.6504 94.4441 19.5472 94.3409 19.4441 94.2636V89.4409H16.7491V90.292H18.5801V94.212C18.0385 94.4441 17.4325 95.1146 16.7362 96.2107L17.4325 96.8425C18.1546 95.6304 18.6704 95.0373 18.9927 95.0373C19.1475 95.0373 19.3151 95.1404 19.4956 95.3596C19.8954 95.8238 20.3467 96.1462 20.8496 96.3009C21.3654 96.4428 22.0488 96.5201 22.8741 96.533C23.6993 96.5459 24.473 96.5588 25.1693 96.5588ZM24.0604 84.9278V86.5783H22.3583C22.513 86.1657 22.6548 85.7401 22.7838 85.2888L21.8941 85.1083C21.5846 86.2688 21.0817 87.3391 20.3854 88.3062L21.1977 88.8091C21.4814 88.3965 21.7393 87.958 21.9714 87.468H24.0604V89.312H20.7077V90.2146H22.7838C22.7451 91.0141 22.6162 91.7104 22.3969 92.2778C22.0617 93.0515 21.3783 93.6962 20.3338 94.212L20.9398 94.947C22.1519 94.3151 22.9385 93.5028 23.2738 92.5228C23.493 91.878 23.6219 91.1044 23.6606 90.2146H24.963V93.8767C24.963 94.1604 25.0404 94.3925 25.2209 94.573C25.3885 94.7536 25.6335 94.8438 25.9688 94.8438H26.8972C27.3356 94.8309 27.6451 94.7278 27.8256 94.5473C28.0191 94.3409 28.1609 93.7091 28.2383 92.6388L27.4259 92.368C27.3743 93.2836 27.2712 93.7994 27.1164 93.9154C27.0133 93.9928 26.8843 94.0315 26.7038 94.0315H26.2396C25.9559 94.0315 25.8269 93.9025 25.8269 93.6704V90.2146H27.9933V89.312H24.963V87.468H27.5419V86.5783H24.963V84.9278H24.0604ZM31.1912 87.1328V93.2578C30.6496 93.4125 30.0951 93.5544 29.5148 93.6962L29.7856 94.6117C31.2814 94.212 32.5967 93.7736 33.7314 93.2965V92.368C33.2285 92.5744 32.6998 92.7678 32.1454 92.9612V87.1328H33.6412V86.2301H29.6567V87.1328H31.1912ZM34.1312 85.5209V86.4236H37.2775C37.213 86.9007 37.1227 87.3649 36.9938 87.8033H34.7243V93.8638H35.6141V88.6544H39.7533V93.8638H40.6559V87.8033H37.9222C38.0254 87.3649 38.1156 86.9136 38.193 86.4236H41.2748V85.5209H34.1312ZM38.7346 93.8896L38.1156 94.4828C39.2246 95.3338 40.1014 96.1333 40.7462 96.8812L41.4167 96.2107C40.6946 95.437 39.7919 94.6633 38.7346 93.8896ZM37.1614 89.4796V91.6975C37.1227 92.8194 36.8262 93.7349 36.2846 94.4312C35.6914 95.1017 34.6341 95.6433 33.1383 96.043L33.6412 96.8425C35.1885 96.4041 36.2975 95.798 36.9809 95.0373C37.6772 94.1991 38.0383 93.0901 38.0898 91.6975V89.4796H37.1614ZM43.7119 86.3978V87.3133H52.8672V86.3978H43.7119ZM42.5256 94.5086V95.4499H54.0406V94.5086H42.5256Z" fill="#333333"/>
<path d="M17.6775 114.646L17.0456 115.252C17.9612 115.975 18.6833 116.658 19.2119 117.303L19.8567 116.658C19.2635 115.987 18.5414 115.317 17.6775 114.646ZM25.1693 126.032H28.1609L28.393 125.104C28.0448 125.13 27.5548 125.143 26.9359 125.156C26.2912 125.169 25.6593 125.181 25.0404 125.181C24.0346 125.181 23.1835 125.169 22.513 125.156C21.7393 125.13 21.1591 125.027 20.7593 124.846C20.3983 124.679 20.063 124.408 19.7535 124.034C19.6504 123.918 19.5472 123.815 19.4441 123.737V118.915H16.7491V119.766H18.5801V123.686C18.0385 123.918 17.4325 124.588 16.7362 125.684L17.4325 126.316C18.1546 125.104 18.6704 124.511 18.9927 124.511C19.1475 124.511 19.3151 124.614 19.4956 124.833C19.8954 125.297 20.3467 125.62 20.8496 125.775C21.3654 125.916 22.0488 125.994 22.8741 126.007C23.6993 126.02 24.473 126.032 25.1693 126.032ZM24.0604 114.401V116.052H22.3583C22.513 115.639 22.6548 115.214 22.7838 114.762L21.8941 114.582C21.5846 115.742 21.0817 116.813 20.3854 117.78L21.1977 118.283C21.4814 117.87 21.7393 117.432 21.9714 116.942H24.0604V118.786H20.7077V119.688H22.7838C22.7451 120.488 22.6162 121.184 22.3969 121.751C22.0617 122.525 21.3783 123.17 20.3338 123.686L20.9398 124.421C22.1519 123.789 22.9385 122.976 23.2738 121.996C23.493 121.352 23.6219 120.578 23.6606 119.688H24.963V123.35C24.963 123.634 25.0404 123.866 25.2209 124.047C25.3885 124.227 25.6335 124.317 25.9688 124.317H26.8972C27.3356 124.305 27.6451 124.201 27.8256 124.021C28.0191 123.815 28.1609 123.183 28.2383 122.112L27.4259 121.842C27.3743 122.757 27.2712 123.273 27.1164 123.389C27.0133 123.466 26.8843 123.505 26.7038 123.505H26.2396C25.9559 123.505 25.8269 123.376 25.8269 123.144V119.688H27.9933V118.786H24.963V116.942H27.5419V116.052H24.963V114.401H24.0604ZM31.1912 116.606V122.731C30.6496 122.886 30.0951 123.028 29.5148 123.17L29.7856 124.085C31.2814 123.686 32.5967 123.247 33.7314 122.77V121.842C33.2285 122.048 32.6998 122.241 32.1454 122.435V116.606H33.6412V115.704H29.6567V116.606H31.1912ZM34.1312 114.995V115.897H37.2775C37.213 116.374 37.1227 116.839 36.9938 117.277H34.7243V123.337H35.6141V118.128H39.7533V123.337H40.6559V117.277H37.9222C38.0254 116.839 38.1156 116.387 38.193 115.897H41.2748V114.995H34.1312ZM38.7346 123.363L38.1156 123.956C39.2246 124.807 40.1014 125.607 40.7462 126.355L41.4167 125.684C40.6946 124.911 39.7919 124.137 38.7346 123.363ZM37.1614 118.953V121.171C37.1227 122.293 36.8262 123.209 36.2846 123.905C35.6914 124.575 34.6341 125.117 33.1383 125.517L33.6412 126.316C35.1885 125.878 36.2975 125.272 36.9809 124.511C37.6772 123.673 38.0383 122.564 38.0898 121.171V118.953H37.1614ZM43.4283 115.42V116.323H53.1767V115.42H43.4283ZM44.2922 119.882V120.784H52.2998V119.882H44.2922ZM42.4741 124.653V125.581H54.1051V124.653H42.4741Z" fill="#333333"/>
<rect x="4.53947" y="38.9079" width="111.447" height="104.079" rx="4.14474" stroke="#E5E5E5" stroke-width="0.921053"/>
</g>
<defs>
<filter id="filter0_d_31761_157243" x="0.394891" y="34.7631" width="119.737" height="112.368" filterUnits="userSpaceOnUse" color-interpolation-filters="sRGB">
<feFlood flood-opacity="0" result="BackgroundImageFix"/>
<feColorMatrix in="SourceAlpha" type="matrix" values="0 0 0 0 0 0 0 0 0 0 0 0 0 0 0 0 0 0 127 0" result="hardAlpha"/>
<feOffset/>
<feGaussianBlur stdDeviation="1.84211"/>
<feColorMatrix type="matrix" values="0 0 0 0 0 0 0 0 0 0 0 0 0 0 0 0 0 0 0.1 0"/>
<feBlend mode="normal" in2="BackgroundImageFix" result="effect1_dropShadow_31761_157243"/>
<feBlend mode="normal" in="SourceGraphic" in2="effect1_dropShadow_31761_157243" result="shape"/>
</filter>
</defs>
</svg>
