<svg width="120" height="134" viewBox="0 0 120 134" fill="none" xmlns="http://www.w3.org/2000/svg">
<path d="M5.70583 4.7217V5.63287H10.6082V15.8354H11.545V8.54603C12.7 9.16203 14.1373 10.0347 15.8442 11.164L16.396 10.3427C14.7533 9.29037 13.1363 8.36637 11.545 7.5707V5.63287H17.1147V4.7217H5.70583ZM23.018 6.1077V6.9932H29.794V6.1077H26.8937C26.714 5.3377 26.5087 4.6447 26.2905 4.04153L25.3537 4.19553C25.5847 4.78587 25.8028 5.4147 25.9825 6.1077H23.018ZM22.6843 14.3724V15.2707H30.0892V14.3724H27.5738C28.1642 12.5244 28.6647 10.4197 29.0753 8.05837L28.1898 7.82737C27.7407 10.4454 27.2273 12.627 26.637 14.3724H22.6843ZM24.4938 7.96853L23.6468 8.23803C24.0703 10.009 24.4297 11.8442 24.712 13.7435L25.5718 13.5254C25.2638 11.4335 24.9045 9.58553 24.4938 7.96853ZM22.71 9.1107C22.2223 9.3802 21.7347 9.63687 21.2342 9.86787V7.28837H22.6587V6.40287H21.2342V4.08003H20.2973V6.40287H18.5392V7.28837H20.2973V10.2529C19.6685 10.4839 19.014 10.6892 18.3467 10.856L18.5777 11.78C19.1552 11.6004 19.7327 11.395 20.2973 11.1769V14.321C20.2973 14.6804 20.1177 14.86 19.7712 14.86C19.4375 14.86 19.091 14.8344 18.7317 14.8087L18.937 15.707H20.092C20.8492 15.707 21.2342 15.322 21.2342 14.552V10.779C21.7347 10.548 22.2223 10.3042 22.71 10.0475V9.1107ZM31.5137 4.88853V5.70987H34.4653V6.65953H35.3637V5.70987H38.803V6.59537H39.7013V5.70987H42.6145V4.88853H39.7013V4.04153H38.803V4.88853H35.3637V4.05437H34.4653V4.88853H31.5137ZM40.6125 8.1097C40.189 8.86687 39.6885 9.52137 39.111 10.0732L39.7912 10.5737C40.4072 9.98337 40.9333 9.27753 41.3825 8.48187L40.6125 8.1097ZM37.0063 8.40487L36.2363 8.6487C36.4802 9.13637 36.6855 9.66253 36.8523 10.2015L37.6737 9.9962C37.4812 9.39303 37.263 8.86687 37.0063 8.40487ZM33.7082 8.5717L32.9253 8.82837C33.259 9.40587 33.5798 10.0732 33.8622 10.8175L34.6193 10.4839C34.3627 9.8037 34.0547 9.16203 33.7082 8.5717ZM41.3183 6.6852C38.9057 7.05737 35.877 7.24987 32.2323 7.24987L32.5147 8.1097C36.3647 8.1097 39.4447 7.8787 41.7675 7.44237L41.3183 6.6852ZM31.7062 11.3437V12.2035H35.7358C34.7862 13.1917 33.3232 14.013 31.3212 14.6547L31.8345 15.5145C34.0033 14.6419 35.569 13.5382 36.5443 12.2035H36.6342V15.8097H37.5325V12.2035H37.6223C38.5207 13.4099 40.0735 14.5135 42.2552 15.5145L42.884 14.706C40.8307 13.9745 39.342 13.1404 38.418 12.2035H42.4605V11.3437H37.5325V10.5224H36.6342V11.3437H31.7062ZM45.4378 6.04353V11.318H49.4547V12.5372H44.2187V13.4099H49.4547V15.8482H50.3787V13.4099H55.6147V12.5372H50.3787V11.318H54.3955V6.04353H51.9315C52.3165 5.51737 52.663 4.92703 52.971 4.27253L52.0727 3.9517C51.7518 4.69603 51.3797 5.40187 50.969 6.04353H45.4378ZM53.4972 10.4967H50.3787V9.05937H53.4972V10.4967ZM49.4547 10.4967H46.3362V9.05937H49.4547V10.4967ZM46.3362 8.2637V6.85203H49.4547V8.2637H46.3362ZM50.3787 6.85203H53.4972V8.2637H50.3787V6.85203ZM47.7093 4.01587L46.9265 4.38803C47.3628 4.8757 47.7607 5.4147 48.1457 6.0307L48.9157 5.6457C48.5307 5.05537 48.1328 4.50353 47.7093 4.01587Z" fill="#337EFF"/>
<path d="M75.3587 6.77637L76.2499 7.67171L71.6666 12.2764L67.0833 7.67172L67.9745 6.77637L71.6666 10.4857L75.3587 6.77637Z" fill="#337EFF"/>
<g filter="url(#filter0_d_31739_156036)">
<rect x="5" y="25.8596" width="110" height="102.667" rx="3.66667" fill="white"/>
<path d="M41.617 42.1634L40.9882 42.7665C41.8993 43.4852 42.618 44.1654 43.1442 44.807L43.7858 44.1654C43.1955 43.498 42.4768 42.8307 41.617 42.1634ZM49.0732 53.4952H52.0505L52.2815 52.5712C51.935 52.5969 51.4473 52.6097 50.8313 52.6225C50.1897 52.6354 49.5608 52.6482 48.9448 52.6482C47.9438 52.6482 47.0968 52.6354 46.4295 52.6225C45.6595 52.5969 45.082 52.4942 44.6842 52.3145C44.3248 52.1477 43.9912 51.8782 43.6832 51.506C43.5805 51.3905 43.4778 51.2879 43.3752 51.2109V46.4112H40.693V47.2582H42.5153V51.1595C41.9763 51.3905 41.3732 52.0579 40.6802 53.1487L41.3732 53.7775C42.0918 52.5712 42.6052 51.9809 42.926 51.9809C43.08 51.9809 43.2468 52.0835 43.4265 52.3017C43.8243 52.7637 44.2735 53.0845 44.774 53.2385C45.2873 53.3797 45.9675 53.4567 46.7888 53.4695C47.6102 53.4824 48.3802 53.4952 49.0732 53.4952ZM47.9695 41.9195V43.5622H46.2755C46.4295 43.1515 46.5707 42.728 46.699 42.2789L45.8135 42.0992C45.5055 43.2542 45.005 44.3194 44.312 45.2819L45.1205 45.7824C45.4028 45.3717 45.6595 44.9354 45.8905 44.4477H47.9695V46.2829H44.6328V47.1812H46.699C46.6605 47.9769 46.5322 48.6699 46.314 49.2345C45.9803 50.0045 45.3002 50.6462 44.2607 51.1595L44.8638 51.891C46.0702 51.2622 46.853 50.4537 47.1867 49.4784C47.4048 48.8367 47.5332 48.0667 47.5717 47.1812H48.8678V50.8259C48.8678 51.1082 48.9448 51.3392 49.1245 51.5189C49.2913 51.6985 49.5352 51.7884 49.8688 51.7884H50.7928C51.2292 51.7755 51.5372 51.6729 51.7168 51.4932C51.9093 51.2879 52.0505 50.659 52.1275 49.5939L51.319 49.3244C51.2677 50.2355 51.165 50.7489 51.011 50.8644C50.9083 50.9414 50.78 50.9799 50.6003 50.9799H50.1383C49.856 50.9799 49.7277 50.8515 49.7277 50.6205V47.1812H51.8837V46.2829H48.8678V44.4477H51.4345V43.5622H48.8678V41.9195H47.9695ZM55.0663 44.114V50.2099C54.5273 50.3639 53.9755 50.505 53.398 50.6462L53.6675 51.5574C55.1562 51.1595 56.4652 50.7232 57.5945 50.2484V49.3244C57.094 49.5297 56.5678 49.7222 56.016 49.9147V44.114H57.5047V43.2157H53.5392V44.114H55.0663ZM57.9923 42.5099V43.4082H61.1237C61.0595 43.883 60.9697 44.345 60.8413 44.7814H58.5827V50.813H59.4682V45.6284H63.5877V50.813H64.486V44.7814H61.7653C61.868 44.345 61.9578 43.8959 62.0348 43.4082H65.102V42.5099H57.9923ZM62.5738 50.8387L61.9578 51.429C63.0615 52.276 63.9342 53.0717 64.5758 53.816L65.2432 53.1487C64.5245 52.3787 63.6262 51.6087 62.5738 50.8387ZM61.0082 46.4497V48.657C60.9697 49.7735 60.6745 50.6847 60.1355 51.3777C59.5452 52.045 58.4928 52.584 57.0042 52.9819L57.5047 53.7775C59.0447 53.3412 60.1483 52.738 60.8285 51.9809C61.5215 51.1467 61.8808 50.043 61.9322 48.657V46.4497H61.0082ZM66.3083 47.271V48.195H77.8455V47.271H66.3083Z" fill="#337EFF"/>
<path d="M28.5 45.5262H21.5V44.3262H28.5V45.5262Z" fill="#337EFF"/>
<path d="M21.5 48.5262H26.5V47.3262H21.5V48.5262Z" fill="#337EFF"/>
<path d="M19.5 40.5264C18.9477 40.5264 18.5 40.9741 18.5 41.5264V53.5264C18.5 54.0787 18.9477 54.5264 19.5 54.5264H30.5C31.0523 54.5264 31.5 54.0787 31.5 53.5264V41.5264C31.5 40.9741 31.0523 40.5264 30.5 40.5264H19.5ZM19.7 41.7264H30.3V53.3264H19.7V41.7264Z" fill="#337EFF"/>
<path d="M41.617 71.4966L40.9882 72.0998C41.8993 72.8185 42.618 73.4986 43.1442 74.1403L43.7858 73.4986C43.1955 72.8313 42.4768 72.164 41.617 71.4966ZM49.0732 82.8285H52.0505L52.2815 81.9045C51.935 81.9301 51.4473 81.943 50.8313 81.9558C50.1897 81.9686 49.5608 81.9815 48.9448 81.9815C47.9438 81.9815 47.0968 81.9686 46.4295 81.9558C45.6595 81.9301 45.082 81.8275 44.6842 81.6478C44.3248 81.481 43.9912 81.2115 43.6832 80.8393C43.5805 80.7238 43.4778 80.6211 43.3752 80.5441V75.7445H40.693V76.5915H42.5153V80.4928C41.9763 80.7238 41.3732 81.3911 40.6802 82.482L41.3732 83.1108C42.0918 81.9045 42.6052 81.3141 42.926 81.3141C43.08 81.3141 43.2468 81.4168 43.4265 81.635C43.8243 82.097 44.2735 82.4178 44.774 82.5718C45.2873 82.713 45.9675 82.79 46.7888 82.8028C47.6102 82.8156 48.3802 82.8285 49.0732 82.8285ZM47.9695 71.2528V72.8955H46.2755C46.4295 72.4848 46.5707 72.0613 46.699 71.6121L45.8135 71.4325C45.5055 72.5875 45.005 73.6526 44.312 74.6151L45.1205 75.1156C45.4028 74.705 45.6595 74.2686 45.8905 73.781H47.9695V75.6161H44.6328V76.5145H46.699C46.6605 77.3101 46.5322 78.0031 46.314 78.5678C45.9803 79.3378 45.3002 79.9795 44.2607 80.4928L44.8638 81.2243C46.0702 80.5955 46.853 79.787 47.1867 78.8116C47.4048 78.17 47.5332 77.4 47.5717 76.5145H48.8678V80.1591C48.8678 80.4415 48.9448 80.6725 49.1245 80.8521C49.2913 81.0318 49.5352 81.1216 49.8688 81.1216H50.7928C51.2292 81.1088 51.5372 81.0061 51.7168 80.8265C51.9093 80.6211 52.0505 79.9923 52.1275 78.9271L51.319 78.6576C51.2677 79.5688 51.165 80.0821 51.011 80.1976C50.9083 80.2746 50.78 80.3131 50.6003 80.3131H50.1383C49.856 80.3131 49.7277 80.1848 49.7277 79.9538V76.5145H51.8837V75.6161H48.8678V73.781H51.4345V72.8955H48.8678V71.2528H47.9695ZM55.0663 73.4473V79.5431C54.5273 79.6971 53.9755 79.8383 53.398 79.9795L53.6675 80.8906C55.1562 80.4928 56.4652 80.0565 57.5945 79.5816V78.6576C57.094 78.863 56.5678 79.0555 56.016 79.248V73.4473H57.5047V72.549H53.5392V73.4473H55.0663ZM57.9923 71.8431V72.7415H61.1237C61.0595 73.2163 60.9697 73.6783 60.8413 74.1146H58.5827V80.1463H59.4682V74.9616H63.5877V80.1463H64.486V74.1146H61.7653C61.868 73.6783 61.9578 73.2291 62.0348 72.7415H65.102V71.8431H57.9923ZM62.5738 80.172L61.9578 80.7623C63.0615 81.6093 63.9342 82.405 64.5758 83.1493L65.2432 82.482C64.5245 81.712 63.6262 80.942 62.5738 80.172ZM61.0082 75.783V77.9903C60.9697 79.1068 60.6745 80.018 60.1355 80.711C59.5452 81.3783 58.4928 81.9173 57.0042 82.3151L57.5047 83.1108C59.0447 82.6745 60.1483 82.0713 60.8285 81.3141C61.5215 80.48 61.8808 79.3763 61.9322 77.9903V75.783H61.0082ZM67.5275 72.7158V73.627H76.6392V72.7158H67.5275ZM66.3468 80.788V81.7248H77.807V80.788H66.3468Z" fill="#333333"/>
<path d="M28.5 74.8594H21.5V73.6594H28.5V74.8594Z" fill="#666666"/>
<path d="M21.5 77.8594H26.5V76.6594H21.5V77.8594Z" fill="#666666"/>
<path d="M19.5 69.8596C18.9477 69.8596 18.5 70.3073 18.5 70.8596V82.8596C18.5 83.4119 18.9477 83.8596 19.5 83.8596H30.5C31.0523 83.8596 31.5 83.4119 31.5 82.8596V70.8596C31.5 70.3073 31.0523 69.8596 30.5 69.8596H19.5ZM19.7 71.0596H30.3V82.6596H19.7V71.0596Z" fill="#666666"/>
<path d="M41.617 100.83L40.9882 101.433C41.8993 102.152 42.618 102.832 43.1442 103.474L43.7858 102.832C43.1955 102.165 42.4768 101.497 41.617 100.83ZM49.0732 112.162H52.0505L52.2815 111.238C51.935 111.264 51.4473 111.276 50.8313 111.289C50.1897 111.302 49.5608 111.315 48.9448 111.315C47.9438 111.315 47.0968 111.302 46.4295 111.289C45.6595 111.264 45.082 111.161 44.6842 110.981C44.3248 110.814 43.9912 110.545 43.6832 110.173C43.5805 110.057 43.4778 109.955 43.3752 109.878V105.078H40.693V105.925H42.5153V109.826C41.9763 110.057 41.3732 110.725 40.6802 111.815L41.3732 112.444C42.0918 111.238 42.6052 110.648 42.926 110.648C43.08 110.648 43.2468 110.75 43.4265 110.968C43.8243 111.43 44.2735 111.751 44.774 111.905C45.2873 112.046 45.9675 112.123 46.7888 112.136C47.6102 112.149 48.3802 112.162 49.0732 112.162ZM47.9695 100.586V102.229H46.2755C46.4295 101.818 46.5707 101.395 46.699 100.946L45.8135 100.766C45.5055 101.921 45.005 102.986 44.312 103.949L45.1205 104.449C45.4028 104.038 45.6595 103.602 45.8905 103.114H47.9695V104.95H44.6328V105.848H46.699C46.6605 106.644 46.5322 107.337 46.314 107.901C45.9803 108.671 45.3002 109.313 44.2607 109.826L44.8638 110.558C46.0702 109.929 46.853 109.12 47.1867 108.145C47.4048 107.503 47.5332 106.733 47.5717 105.848H48.8678V109.493C48.8678 109.775 48.9448 110.006 49.1245 110.186C49.2913 110.365 49.5352 110.455 49.8688 110.455H50.7928C51.2292 110.442 51.5372 110.34 51.7168 110.16C51.9093 109.955 52.0505 109.326 52.1275 108.261L51.319 107.991C51.2677 108.902 51.165 109.416 51.011 109.531C50.9083 109.608 50.78 109.647 50.6003 109.647H50.1383C49.856 109.647 49.7277 109.518 49.7277 109.287V105.848H51.8837V104.95H48.8678V103.114H51.4345V102.229H48.8678V100.586H47.9695ZM55.0663 102.781V108.877C54.5273 109.031 53.9755 109.172 53.398 109.313L53.6675 110.224C55.1562 109.826 56.4652 109.39 57.5945 108.915V107.991C57.094 108.196 56.5678 108.389 56.016 108.581V102.781H57.5047V101.882H53.5392V102.781H55.0663ZM57.9923 101.177V102.075H61.1237C61.0595 102.55 60.9697 103.012 60.8413 103.448H58.5827V109.48H59.4682V104.295H63.5877V109.48H64.486V103.448H61.7653C61.868 103.012 61.9578 102.563 62.0348 102.075H65.102V101.177H57.9923ZM62.5738 109.505L61.9578 110.096C63.0615 110.943 63.9342 111.738 64.5758 112.483L65.2432 111.815C64.5245 111.045 63.6262 110.275 62.5738 109.505ZM61.0082 105.116V107.324C60.9697 108.44 60.6745 109.351 60.1355 110.044C59.5452 110.712 58.4928 111.251 57.0042 111.649L57.5047 112.444C59.0447 112.008 60.1483 111.405 60.8285 110.648C61.5215 109.813 61.8808 108.71 61.9322 107.324V105.116H61.0082ZM67.2452 101.6V102.498H76.9472V101.6H67.2452ZM68.105 106.04V106.939H76.0745V106.04H68.105ZM66.2955 110.789V111.713H77.8712V110.789H66.2955Z" fill="#333333"/>
<path d="M28.5 104.193H21.5V102.993H28.5V104.193Z" fill="#666666"/>
<path d="M21.5 107.193H26.5V105.993H21.5V107.193Z" fill="#666666"/>
<path d="M19.5 99.1931C18.9477 99.1931 18.5 99.6408 18.5 100.193V112.193C18.5 112.745 18.9477 113.193 19.5 113.193H30.5C31.0523 113.193 31.5 112.745 31.5 112.193V100.193C31.5 99.6408 31.0523 99.1931 30.5 99.1931H19.5ZM19.7 100.393H30.3V111.993H19.7V100.393Z" fill="#666666"/>
<rect x="4.54167" y="25.4013" width="110.917" height="103.583" rx="4.125" stroke="#E5E5E5" stroke-width="0.916667"/>
</g>
<defs>
<filter id="filter0_d_31739_156036" x="0.416585" y="21.2762" width="119.167" height="111.833" filterUnits="userSpaceOnUse" color-interpolation-filters="sRGB">
<feFlood flood-opacity="0" result="BackgroundImageFix"/>
<feColorMatrix in="SourceAlpha" type="matrix" values="0 0 0 0 0 0 0 0 0 0 0 0 0 0 0 0 0 0 127 0" result="hardAlpha"/>
<feOffset/>
<feGaussianBlur stdDeviation="1.83333"/>
<feColorMatrix type="matrix" values="0 0 0 0 0 0 0 0 0 0 0 0 0 0 0 0 0 0 0.1 0"/>
<feBlend mode="normal" in2="BackgroundImageFix" result="effect1_dropShadow_31739_156036"/>
<feBlend mode="normal" in="SourceGraphic" in2="effect1_dropShadow_31739_156036" result="shape"/>
</filter>
</defs>
</svg>
