<svg width="364" height="251" viewBox="0 0 364 251" fill="none" xmlns="http://www.w3.org/2000/svg">
<rect x="1" y="1" width="362" height="34" rx="5" fill="white" stroke="#D6E5FF" stroke-width="2"/>
<rect x="2.5" y="2.5" width="359" height="31" rx="3.5" fill="white" stroke="#337EFF"/>
<path d="M337.972 21L337 20.0233L342 15L347 20.0233L346.028 21L342 16.9535L337.972 21Z" fill="#666666"/>
<path d="M15.764 11.786L15.078 12.444C16.072 13.228 16.856 13.97 17.43 14.67L18.13 13.97C17.486 13.242 16.702 12.514 15.764 11.786ZM23.898 24.148H27.146L27.398 23.14C27.02 23.168 26.488 23.182 25.816 23.196C25.116 23.21 24.43 23.224 23.758 23.224C22.666 23.224 21.742 23.21 21.014 23.196C20.174 23.168 19.544 23.056 19.11 22.86C18.718 22.678 18.354 22.384 18.018 21.978C17.906 21.852 17.794 21.74 17.682 21.656V16.42H14.756V17.344H16.744V21.6C16.156 21.852 15.498 22.58 14.742 23.77L15.498 24.456C16.282 23.14 16.842 22.496 17.192 22.496C17.36 22.496 17.542 22.608 17.738 22.846C18.172 23.35 18.662 23.7 19.208 23.868C19.768 24.022 20.51 24.106 21.406 24.12C22.302 24.134 23.142 24.148 23.898 24.148ZM22.694 11.52V13.312H20.846C21.014 12.864 21.168 12.402 21.308 11.912L20.342 11.716C20.006 12.976 19.46 14.138 18.704 15.188L19.586 15.734C19.894 15.286 20.174 14.81 20.426 14.278H22.694V16.28H19.054V17.26H21.308C21.266 18.128 21.126 18.884 20.888 19.5C20.524 20.34 19.782 21.04 18.648 21.6L19.306 22.398C20.622 21.712 21.476 20.83 21.84 19.766C22.078 19.066 22.218 18.226 22.26 17.26H23.674V21.236C23.674 21.544 23.758 21.796 23.954 21.992C24.136 22.188 24.402 22.286 24.766 22.286H25.774C26.25 22.272 26.586 22.16 26.782 21.964C26.992 21.74 27.146 21.054 27.23 19.892L26.348 19.598C26.292 20.592 26.18 21.152 26.012 21.278C25.9 21.362 25.76 21.404 25.564 21.404H25.06C24.752 21.404 24.612 21.264 24.612 21.012V17.26H26.964V16.28H23.674V14.278H26.474V13.312H23.674V11.52H22.694ZM30.436 13.914V20.564C29.848 20.732 29.246 20.886 28.616 21.04L28.91 22.034C30.534 21.6 31.962 21.124 33.194 20.606V19.598C32.648 19.822 32.074 20.032 31.472 20.242V13.914H33.096V12.934H28.77V13.914H30.436ZM33.628 12.164V13.144H37.044C36.974 13.662 36.876 14.166 36.736 14.642H34.272V21.222H35.238V15.566H39.732V21.222H40.712V14.642H37.744C37.856 14.166 37.954 13.676 38.038 13.144H41.384V12.164H33.628ZM38.626 21.25L37.954 21.894C39.158 22.818 40.11 23.686 40.81 24.498L41.538 23.77C40.754 22.93 39.774 22.09 38.626 21.25ZM36.918 16.462V18.87C36.876 20.088 36.554 21.082 35.966 21.838C35.322 22.566 34.174 23.154 32.55 23.588L33.096 24.456C34.776 23.98 35.98 23.322 36.722 22.496C37.478 21.586 37.87 20.382 37.926 18.87V16.462H36.918ZM42.7 17.358V18.366H55.286V17.358H42.7ZM66.1501 11.52L61.1801 24.4H62.1881L67.1441 11.52H66.1501ZM74.0882 11.786L73.4022 12.444C74.3962 13.228 75.1802 13.97 75.7542 14.67L76.4542 13.97C75.8102 13.242 75.0262 12.514 74.0882 11.786ZM82.2222 24.148H85.4702L85.7222 23.14C85.3442 23.168 84.8122 23.182 84.1402 23.196C83.4402 23.21 82.7542 23.224 82.0822 23.224C80.9902 23.224 80.0662 23.21 79.3382 23.196C78.4982 23.168 77.8682 23.056 77.4342 22.86C77.0422 22.678 76.6782 22.384 76.3422 21.978C76.2302 21.852 76.1182 21.74 76.0062 21.656V16.42H73.0802V17.344H75.0682V21.6C74.4802 21.852 73.8222 22.58 73.0662 23.77L73.8222 24.456C74.6062 23.14 75.1662 22.496 75.5162 22.496C75.6842 22.496 75.8662 22.608 76.0622 22.846C76.4962 23.35 76.9862 23.7 77.5322 23.868C78.0922 24.022 78.8342 24.106 79.7302 24.12C80.6262 24.134 81.4662 24.148 82.2222 24.148ZM81.0182 11.52V13.312H79.1702C79.3382 12.864 79.4922 12.402 79.6322 11.912L78.6662 11.716C78.3302 12.976 77.7842 14.138 77.0282 15.188L77.9102 15.734C78.2182 15.286 78.4982 14.81 78.7502 14.278H81.0182V16.28H77.3782V17.26H79.6322C79.5902 18.128 79.4502 18.884 79.2122 19.5C78.8482 20.34 78.1062 21.04 76.9722 21.6L77.6302 22.398C78.9462 21.712 79.8002 20.83 80.1642 19.766C80.4022 19.066 80.5422 18.226 80.5842 17.26H81.9982V21.236C81.9982 21.544 82.0822 21.796 82.2782 21.992C82.4602 22.188 82.7262 22.286 83.0902 22.286H84.0982C84.5742 22.272 84.9102 22.16 85.1062 21.964C85.3162 21.74 85.4702 21.054 85.5542 19.892L84.6722 19.598C84.6162 20.592 84.5042 21.152 84.3362 21.278C84.2242 21.362 84.0842 21.404 83.8882 21.404H83.3842C83.0762 21.404 82.9362 21.264 82.9362 21.012V17.26H85.2882V16.28H81.9982V14.278H84.7982V13.312H81.9982V11.52H81.0182ZM88.7602 13.914V20.564C88.1722 20.732 87.5702 20.886 86.9402 21.04L87.2342 22.034C88.8582 21.6 90.2862 21.124 91.5182 20.606V19.598C90.9722 19.822 90.3982 20.032 89.7962 20.242V13.914H91.4202V12.934H87.0942V13.914H88.7602ZM91.9522 12.164V13.144H95.3682C95.2982 13.662 95.2002 14.166 95.0602 14.642H92.5962V21.222H93.5622V15.566H98.0562V21.222H99.0362V14.642H96.0682C96.1802 14.166 96.2782 13.676 96.3622 13.144H99.7082V12.164H91.9522ZM96.9502 21.25L96.2782 21.894C97.4822 22.818 98.4342 23.686 99.1342 24.498L99.8622 23.77C99.0782 22.93 98.0982 22.09 96.9502 21.25ZM95.2422 16.462V18.87C95.2002 20.088 94.8782 21.082 94.2902 21.838C93.6462 22.566 92.4982 23.154 90.8742 23.588L91.4202 24.456C93.1002 23.98 94.3042 23.322 95.0462 22.496C95.8022 21.586 96.1942 20.382 96.2502 18.87V16.462H95.2422ZM102.354 13.116V14.11H112.294V13.116H102.354ZM101.066 21.922V22.944H113.568V21.922H101.066Z" fill="#333333"/>
<path d="M122.5 42V41.5H122H6C3.51472 41.5 1.5 43.5147 1.5 46V246C1.5 248.485 3.51472 250.5 6 250.5H122H122.5V250V42Z" fill="white"/>
<rect width="120" height="32" transform="translate(2 50)" fill="#337EFF"/>
<path d="M15.764 59.7865L15.078 60.4445C16.072 61.2285 16.856 61.9705 17.43 62.6705L18.13 61.9705C17.486 61.2425 16.702 60.5145 15.764 59.7865ZM23.898 72.1485H27.146L27.398 71.1405C27.02 71.1685 26.488 71.1825 25.816 71.1965C25.116 71.2105 24.43 71.2245 23.758 71.2245C22.666 71.2245 21.742 71.2105 21.014 71.1965C20.174 71.1685 19.544 71.0565 19.11 70.8605C18.718 70.6785 18.354 70.3845 18.018 69.9785C17.906 69.8525 17.794 69.7405 17.682 69.6565V64.4205H14.756V65.3445H16.744V69.6005C16.156 69.8525 15.498 70.5805 14.742 71.7705L15.498 72.4565C16.282 71.1405 16.842 70.4965 17.192 70.4965C17.36 70.4965 17.542 70.6085 17.738 70.8465C18.172 71.3505 18.662 71.7005 19.208 71.8685C19.768 72.0225 20.51 72.1065 21.406 72.1205C22.302 72.1345 23.142 72.1485 23.898 72.1485ZM22.694 59.5205V61.3125H20.846C21.014 60.8645 21.168 60.4025 21.308 59.9125L20.342 59.7165C20.006 60.9765 19.46 62.1385 18.704 63.1885L19.586 63.7345C19.894 63.2865 20.174 62.8105 20.426 62.2785H22.694V64.2805H19.054V65.2605H21.308C21.266 66.1285 21.126 66.8845 20.888 67.5005C20.524 68.3405 19.782 69.0405 18.648 69.6005L19.306 70.3985C20.622 69.7125 21.476 68.8305 21.84 67.7665C22.078 67.0665 22.218 66.2265 22.26 65.2605H23.674V69.2365C23.674 69.5445 23.758 69.7965 23.954 69.9925C24.136 70.1885 24.402 70.2865 24.766 70.2865H25.774C26.25 70.2725 26.586 70.1605 26.782 69.9645C26.992 69.7405 27.146 69.0545 27.23 67.8925L26.348 67.5985C26.292 68.5925 26.18 69.1525 26.012 69.2785C25.9 69.3625 25.76 69.4045 25.564 69.4045H25.06C24.752 69.4045 24.612 69.2645 24.612 69.0125V65.2605H26.964V64.2805H23.674V62.2785H26.474V61.3125H23.674V59.5205H22.694ZM30.436 61.9145V68.5645C29.848 68.7325 29.246 68.8865 28.616 69.0405L28.91 70.0345C30.534 69.6005 31.962 69.1245 33.194 68.6065V67.5985C32.648 67.8225 32.074 68.0325 31.472 68.2425V61.9145H33.096V60.9345H28.77V61.9145H30.436ZM33.628 60.1645V61.1445H37.044C36.974 61.6625 36.876 62.1665 36.736 62.6425H34.272V69.2225H35.238V63.5665H39.732V69.2225H40.712V62.6425H37.744C37.856 62.1665 37.954 61.6765 38.038 61.1445H41.384V60.1645H33.628ZM38.626 69.2505L37.954 69.8945C39.158 70.8185 40.11 71.6865 40.81 72.4985L41.538 71.7705C40.754 70.9305 39.774 70.0905 38.626 69.2505ZM36.918 64.4625V66.8705C36.876 68.0885 36.554 69.0825 35.966 69.8385C35.322 70.5665 34.174 71.1545 32.55 71.5885L33.096 72.4565C34.776 71.9805 35.98 71.3225 36.722 70.4965C37.478 69.5865 37.87 68.3825 37.926 66.8705V64.4625H36.918ZM42.7 65.3585V66.3665H55.286V65.3585H42.7Z" fill="white"/>
<path fill-rule="evenodd" clip-rule="evenodd" d="M108 66L104 62L104 70L108 66Z" fill="white"/>
<path d="M15.764 91.7875L15.078 92.4455C16.072 93.2295 16.856 93.9715 17.43 94.6715L18.13 93.9715C17.486 93.2435 16.702 92.5155 15.764 91.7875ZM23.898 104.149H27.146L27.398 103.141C27.02 103.169 26.488 103.183 25.816 103.197C25.116 103.211 24.43 103.225 23.758 103.225C22.666 103.225 21.742 103.211 21.014 103.197C20.174 103.169 19.544 103.057 19.11 102.861C18.718 102.679 18.354 102.385 18.018 101.979C17.906 101.853 17.794 101.741 17.682 101.657V96.4215H14.756V97.3455H16.744V101.601C16.156 101.853 15.498 102.581 14.742 103.771L15.498 104.457C16.282 103.141 16.842 102.497 17.192 102.497C17.36 102.497 17.542 102.609 17.738 102.847C18.172 103.351 18.662 103.701 19.208 103.869C19.768 104.023 20.51 104.107 21.406 104.121C22.302 104.135 23.142 104.149 23.898 104.149ZM22.694 91.5215V93.3135H20.846C21.014 92.8655 21.168 92.4035 21.308 91.9135L20.342 91.7175C20.006 92.9775 19.46 94.1395 18.704 95.1895L19.586 95.7355C19.894 95.2875 20.174 94.8115 20.426 94.2795H22.694V96.2815H19.054V97.2615H21.308C21.266 98.1295 21.126 98.8855 20.888 99.5015C20.524 100.341 19.782 101.041 18.648 101.601L19.306 102.399C20.622 101.713 21.476 100.831 21.84 99.7675C22.078 99.0675 22.218 98.2275 22.26 97.2615H23.674V101.237C23.674 101.545 23.758 101.797 23.954 101.993C24.136 102.189 24.402 102.287 24.766 102.287H25.774C26.25 102.273 26.586 102.161 26.782 101.965C26.992 101.741 27.146 101.055 27.23 99.8935L26.348 99.5995C26.292 100.593 26.18 101.153 26.012 101.279C25.9 101.363 25.76 101.405 25.564 101.405H25.06C24.752 101.405 24.612 101.265 24.612 101.013V97.2615H26.964V96.2815H23.674V94.2795H26.474V93.3135H23.674V91.5215H22.694ZM30.436 93.9155V100.565C29.848 100.733 29.246 100.887 28.616 101.041L28.91 102.035C30.534 101.601 31.962 101.125 33.194 100.607V99.5995C32.648 99.8235 32.074 100.033 31.472 100.243V93.9155H33.096V92.9355H28.77V93.9155H30.436ZM33.628 92.1655V93.1455H37.044C36.974 93.6635 36.876 94.1675 36.736 94.6435H34.272V101.223H35.238V95.5675H39.732V101.223H40.712V94.6435H37.744C37.856 94.1675 37.954 93.6775 38.038 93.1455H41.384V92.1655H33.628ZM38.626 101.251L37.954 101.895C39.158 102.819 40.11 103.687 40.81 104.499L41.538 103.771C40.754 102.931 39.774 102.091 38.626 101.251ZM36.918 96.4635V98.8715C36.876 100.089 36.554 101.083 35.966 101.839C35.322 102.567 34.174 103.155 32.55 103.589L33.096 104.457C34.776 103.981 35.98 103.323 36.722 102.497C37.478 101.587 37.87 100.383 37.926 98.8715V96.4635H36.918ZM44.03 93.1175V94.1115H53.97V93.1175H44.03ZM42.742 101.923V102.945H55.244V101.923H42.742Z" fill="#333333"/>
<path fill-rule="evenodd" clip-rule="evenodd" d="M108 98L104 94L104 102L108 98Z" fill="#999999"/>
<path d="M15.764 123.787L15.078 124.445C16.072 125.229 16.856 125.971 17.43 126.671L18.13 125.971C17.486 125.243 16.702 124.515 15.764 123.787ZM23.898 136.149H27.146L27.398 135.141C27.02 135.169 26.488 135.183 25.816 135.197C25.116 135.211 24.43 135.225 23.758 135.225C22.666 135.225 21.742 135.211 21.014 135.197C20.174 135.169 19.544 135.057 19.11 134.861C18.718 134.679 18.354 134.385 18.018 133.979C17.906 133.853 17.794 133.741 17.682 133.657V128.421H14.756V129.345H16.744V133.601C16.156 133.853 15.498 134.581 14.742 135.771L15.498 136.457C16.282 135.141 16.842 134.497 17.192 134.497C17.36 134.497 17.542 134.609 17.738 134.847C18.172 135.351 18.662 135.701 19.208 135.869C19.768 136.023 20.51 136.107 21.406 136.121C22.302 136.135 23.142 136.149 23.898 136.149ZM22.694 123.521V125.313H20.846C21.014 124.865 21.168 124.403 21.308 123.913L20.342 123.717C20.006 124.977 19.46 126.139 18.704 127.189L19.586 127.735C19.894 127.287 20.174 126.811 20.426 126.279H22.694V128.281H19.054V129.261H21.308C21.266 130.129 21.126 130.885 20.888 131.501C20.524 132.341 19.782 133.041 18.648 133.601L19.306 134.399C20.622 133.713 21.476 132.831 21.84 131.767C22.078 131.067 22.218 130.227 22.26 129.261H23.674V133.237C23.674 133.545 23.758 133.797 23.954 133.993C24.136 134.189 24.402 134.287 24.766 134.287H25.774C26.25 134.273 26.586 134.161 26.782 133.965C26.992 133.741 27.146 133.055 27.23 131.893L26.348 131.599C26.292 132.593 26.18 133.153 26.012 133.279C25.9 133.363 25.76 133.405 25.564 133.405H25.06C24.752 133.405 24.612 133.265 24.612 133.013V129.261H26.964V128.281H23.674V126.279H26.474V125.313H23.674V123.521H22.694ZM30.436 125.915V132.565C29.848 132.733 29.246 132.887 28.616 133.041L28.91 134.035C30.534 133.601 31.962 133.125 33.194 132.607V131.599C32.648 131.823 32.074 132.033 31.472 132.243V125.915H33.096V124.935H28.77V125.915H30.436ZM33.628 124.165V125.145H37.044C36.974 125.663 36.876 126.167 36.736 126.643H34.272V133.223H35.238V127.567H39.732V133.223H40.712V126.643H37.744C37.856 126.167 37.954 125.677 38.038 125.145H41.384V124.165H33.628ZM38.626 133.251L37.954 133.895C39.158 134.819 40.11 135.687 40.81 136.499L41.538 135.771C40.754 134.931 39.774 134.091 38.626 133.251ZM36.918 128.463V130.871C36.876 132.089 36.554 133.083 35.966 133.839C35.322 134.567 34.174 135.155 32.55 135.589L33.096 136.457C34.776 135.981 35.98 135.323 36.722 134.497C37.478 133.587 37.87 132.383 37.926 130.871V128.463H36.918ZM43.722 124.627V125.607H54.306V124.627H43.722ZM44.66 129.471V130.451H53.354V129.471H44.66ZM42.686 134.651V135.659H55.314V134.651H42.686Z" fill="#333333"/>
<path fill-rule="evenodd" clip-rule="evenodd" d="M108 130L104 126L104 134L108 130Z" fill="#999999"/>
<path d="M15.764 155.787L15.078 156.445C16.072 157.229 16.856 157.971 17.43 158.671L18.13 157.971C17.486 157.243 16.702 156.515 15.764 155.787ZM23.898 168.149H27.146L27.398 167.141C27.02 167.169 26.488 167.183 25.816 167.197C25.116 167.211 24.43 167.225 23.758 167.225C22.666 167.225 21.742 167.211 21.014 167.197C20.174 167.169 19.544 167.057 19.11 166.861C18.718 166.679 18.354 166.385 18.018 165.979C17.906 165.853 17.794 165.741 17.682 165.657V160.421H14.756V161.345H16.744V165.601C16.156 165.853 15.498 166.581 14.742 167.771L15.498 168.457C16.282 167.141 16.842 166.497 17.192 166.497C17.36 166.497 17.542 166.609 17.738 166.847C18.172 167.351 18.662 167.701 19.208 167.869C19.768 168.023 20.51 168.107 21.406 168.121C22.302 168.135 23.142 168.149 23.898 168.149ZM22.694 155.521V157.313H20.846C21.014 156.865 21.168 156.403 21.308 155.913L20.342 155.717C20.006 156.977 19.46 158.139 18.704 159.189L19.586 159.735C19.894 159.287 20.174 158.811 20.426 158.279H22.694V160.281H19.054V161.261H21.308C21.266 162.129 21.126 162.885 20.888 163.501C20.524 164.341 19.782 165.041 18.648 165.601L19.306 166.399C20.622 165.713 21.476 164.831 21.84 163.767C22.078 163.067 22.218 162.227 22.26 161.261H23.674V165.237C23.674 165.545 23.758 165.797 23.954 165.993C24.136 166.189 24.402 166.287 24.766 166.287H25.774C26.25 166.273 26.586 166.161 26.782 165.965C26.992 165.741 27.146 165.055 27.23 163.893L26.348 163.599C26.292 164.593 26.18 165.153 26.012 165.279C25.9 165.363 25.76 165.405 25.564 165.405H25.06C24.752 165.405 24.612 165.265 24.612 165.013V161.261H26.964V160.281H23.674V158.279H26.474V157.313H23.674V155.521H22.694ZM30.436 157.915V164.565C29.848 164.733 29.246 164.887 28.616 165.041L28.91 166.035C30.534 165.601 31.962 165.125 33.194 164.607V163.599C32.648 163.823 32.074 164.033 31.472 164.243V157.915H33.096V156.935H28.77V157.915H30.436ZM33.628 156.165V157.145H37.044C36.974 157.663 36.876 158.167 36.736 158.643H34.272V165.223H35.238V159.567H39.732V165.223H40.712V158.643H37.744C37.856 158.167 37.954 157.677 38.038 157.145H41.384V156.165H33.628ZM38.626 165.251L37.954 165.895C39.158 166.819 40.11 167.687 40.81 168.499L41.538 167.771C40.754 166.931 39.774 166.091 38.626 165.251ZM36.918 160.463V162.871C36.876 164.089 36.554 165.083 35.966 165.839C35.322 166.567 34.174 167.155 32.55 167.589L33.096 168.457C34.776 167.981 35.98 167.323 36.722 166.497C37.478 165.587 37.87 164.383 37.926 162.871V160.463H36.918ZM54.754 156.459H43.246V168.191H44.268V167.379H53.732V168.191H54.754V156.459ZM44.268 166.469V157.369H46.942V160.407C46.914 162.059 46.186 163.249 44.758 164.005L45.528 164.677C47.096 163.781 47.894 162.353 47.922 160.407V157.369H50.008V162.927C50.008 163.683 50.414 164.075 51.254 164.075H53.242V163.151H51.52C51.156 163.151 50.974 162.997 50.974 162.717V157.369H53.732V166.469H44.268Z" fill="#333333"/>
<path fill-rule="evenodd" clip-rule="evenodd" d="M108 162L104 158L104 166L108 162Z" fill="#999999"/>
<path d="M15.764 187.787L15.078 188.445C16.072 189.229 16.856 189.971 17.43 190.671L18.13 189.971C17.486 189.243 16.702 188.515 15.764 187.787ZM23.898 200.149H27.146L27.398 199.141C27.02 199.169 26.488 199.183 25.816 199.197C25.116 199.211 24.43 199.225 23.758 199.225C22.666 199.225 21.742 199.211 21.014 199.197C20.174 199.169 19.544 199.057 19.11 198.861C18.718 198.679 18.354 198.385 18.018 197.979C17.906 197.853 17.794 197.741 17.682 197.657V192.421H14.756V193.345H16.744V197.601C16.156 197.853 15.498 198.581 14.742 199.771L15.498 200.457C16.282 199.141 16.842 198.497 17.192 198.497C17.36 198.497 17.542 198.609 17.738 198.847C18.172 199.351 18.662 199.701 19.208 199.869C19.768 200.023 20.51 200.107 21.406 200.121C22.302 200.135 23.142 200.149 23.898 200.149ZM22.694 187.521V189.313H20.846C21.014 188.865 21.168 188.403 21.308 187.913L20.342 187.717C20.006 188.977 19.46 190.139 18.704 191.189L19.586 191.735C19.894 191.287 20.174 190.811 20.426 190.279H22.694V192.281H19.054V193.261H21.308C21.266 194.129 21.126 194.885 20.888 195.501C20.524 196.341 19.782 197.041 18.648 197.601L19.306 198.399C20.622 197.713 21.476 196.831 21.84 195.767C22.078 195.067 22.218 194.227 22.26 193.261H23.674V197.237C23.674 197.545 23.758 197.797 23.954 197.993C24.136 198.189 24.402 198.287 24.766 198.287H25.774C26.25 198.273 26.586 198.161 26.782 197.965C26.992 197.741 27.146 197.055 27.23 195.893L26.348 195.599C26.292 196.593 26.18 197.153 26.012 197.279C25.9 197.363 25.76 197.405 25.564 197.405H25.06C24.752 197.405 24.612 197.265 24.612 197.013V193.261H26.964V192.281H23.674V190.279H26.474V189.313H23.674V187.521H22.694ZM30.436 189.915V196.565C29.848 196.733 29.246 196.887 28.616 197.041L28.91 198.035C30.534 197.601 31.962 197.125 33.194 196.607V195.599C32.648 195.823 32.074 196.033 31.472 196.243V189.915H33.096V188.935H28.77V189.915H30.436ZM33.628 188.165V189.145H37.044C36.974 189.663 36.876 190.167 36.736 190.643H34.272V197.223H35.238V191.567H39.732V197.223H40.712V190.643H37.744C37.856 190.167 37.954 189.677 38.038 189.145H41.384V188.165H33.628ZM38.626 197.251L37.954 197.895C39.158 198.819 40.11 199.687 40.81 200.499L41.538 199.771C40.754 198.931 39.774 198.091 38.626 197.251ZM36.918 192.463V194.871C36.876 196.089 36.554 197.083 35.966 197.839C35.322 198.567 34.174 199.155 32.55 199.589L33.096 200.457C34.776 199.981 35.98 199.323 36.722 198.497C37.478 197.587 37.87 196.383 37.926 194.871V192.463H36.918ZM44.03 192.799V193.779H46.998L45.948 198.805H42.784V199.799H55.23V198.805H52.934V192.799H48.216L48.944 189.355H54.698V188.375H43.316V189.355H47.936L47.208 192.799H44.03ZM46.956 198.805L48.006 193.779H51.912V198.805H46.956Z" fill="#333333"/>
<path fill-rule="evenodd" clip-rule="evenodd" d="M108 194L104 190L104 198L108 194Z" fill="#999999"/>
<path d="M15.764 219.787L15.078 220.445C16.072 221.229 16.856 221.971 17.43 222.671L18.13 221.971C17.486 221.243 16.702 220.515 15.764 219.787ZM23.898 232.149H27.146L27.398 231.141C27.02 231.169 26.488 231.183 25.816 231.197C25.116 231.211 24.43 231.225 23.758 231.225C22.666 231.225 21.742 231.211 21.014 231.197C20.174 231.169 19.544 231.057 19.11 230.861C18.718 230.679 18.354 230.385 18.018 229.979C17.906 229.853 17.794 229.741 17.682 229.657V224.421H14.756V225.345H16.744V229.601C16.156 229.853 15.498 230.581 14.742 231.771L15.498 232.457C16.282 231.141 16.842 230.497 17.192 230.497C17.36 230.497 17.542 230.609 17.738 230.847C18.172 231.351 18.662 231.701 19.208 231.869C19.768 232.023 20.51 232.107 21.406 232.121C22.302 232.135 23.142 232.149 23.898 232.149ZM22.694 219.521V221.313H20.846C21.014 220.865 21.168 220.403 21.308 219.913L20.342 219.717C20.006 220.977 19.46 222.139 18.704 223.189L19.586 223.735C19.894 223.287 20.174 222.811 20.426 222.279H22.694V224.281H19.054V225.261H21.308C21.266 226.129 21.126 226.885 20.888 227.501C20.524 228.341 19.782 229.041 18.648 229.601L19.306 230.399C20.622 229.713 21.476 228.831 21.84 227.767C22.078 227.067 22.218 226.227 22.26 225.261H23.674V229.237C23.674 229.545 23.758 229.797 23.954 229.993C24.136 230.189 24.402 230.287 24.766 230.287H25.774C26.25 230.273 26.586 230.161 26.782 229.965C26.992 229.741 27.146 229.055 27.23 227.893L26.348 227.599C26.292 228.593 26.18 229.153 26.012 229.279C25.9 229.363 25.76 229.405 25.564 229.405H25.06C24.752 229.405 24.612 229.265 24.612 229.013V225.261H26.964V224.281H23.674V222.279H26.474V221.313H23.674V219.521H22.694ZM30.436 221.915V228.565C29.848 228.733 29.246 228.887 28.616 229.041L28.91 230.035C30.534 229.601 31.962 229.125 33.194 228.607V227.599C32.648 227.823 32.074 228.033 31.472 228.243V221.915H33.096V220.935H28.77V221.915H30.436ZM33.628 220.165V221.145H37.044C36.974 221.663 36.876 222.167 36.736 222.643H34.272V229.223H35.238V223.567H39.732V229.223H40.712V222.643H37.744C37.856 222.167 37.954 221.677 38.038 221.145H41.384V220.165H33.628ZM38.626 229.251L37.954 229.895C39.158 230.819 40.11 231.687 40.81 232.499L41.538 231.771C40.754 230.931 39.774 230.091 38.626 229.251ZM36.918 224.463V226.871C36.876 228.089 36.554 229.083 35.966 229.839C35.322 230.567 34.174 231.155 32.55 231.589L33.096 232.457C34.776 231.981 35.98 231.323 36.722 230.497C37.478 229.587 37.87 228.383 37.926 226.871V224.463H36.918ZM51.352 225.653L50.484 226.199C52.038 228.439 53.27 230.469 54.166 232.289L55.062 231.673C54.208 229.965 52.976 227.949 51.352 225.653ZM46.536 225.737C45.696 228.145 44.45 230.063 42.77 231.477L43.624 232.205C45.234 230.805 46.536 228.789 47.516 226.129L46.536 225.737ZM42.784 223.315V224.295H55.216V223.315H42.784ZM47.698 219.675L46.998 220.333C48.188 221.201 49.112 222.013 49.784 222.783L50.526 222.041C49.756 221.257 48.818 220.459 47.698 219.675Z" fill="#333333"/>
<path fill-rule="evenodd" clip-rule="evenodd" d="M108 226L104 222L104 230L108 226Z" fill="#999999"/>
<path d="M122.5 42V41.5H122H6C3.51472 41.5 1.5 43.5147 1.5 46V246C1.5 248.485 3.51472 250.5 6 250.5H122H122.5V250V42Z" stroke="#E5E5E5"/>
<rect x="114" y="46" width="4" height="80" rx="2" fill="black" fill-opacity="0.15"/>
<path d="M122 41.5H121.5V42V250V250.5H122H242H242.5V250V42V41.5H242H122Z" fill="white"/>
<path d="M135.764 59.7875L135.078 60.4455C136.072 61.2295 136.856 61.9715 137.43 62.6715L138.13 61.9715C137.486 61.2435 136.702 60.5155 135.764 59.7875ZM143.898 72.1495H147.146L147.398 71.1415C147.02 71.1695 146.488 71.1835 145.816 71.1975C145.116 71.2115 144.43 71.2255 143.758 71.2255C142.666 71.2255 141.742 71.2115 141.014 71.1975C140.174 71.1695 139.544 71.0575 139.11 70.8615C138.718 70.6795 138.354 70.3855 138.018 69.9795C137.906 69.8535 137.794 69.7415 137.682 69.6575V64.4215H134.756V65.3455H136.744V69.6015C136.156 69.8535 135.498 70.5815 134.742 71.7715L135.498 72.4575C136.282 71.1415 136.842 70.4975 137.192 70.4975C137.36 70.4975 137.542 70.6095 137.738 70.8475C138.172 71.3515 138.662 71.7015 139.208 71.8695C139.768 72.0235 140.51 72.1075 141.406 72.1215C142.302 72.1355 143.142 72.1495 143.898 72.1495ZM142.694 59.5215V61.3135H140.846C141.014 60.8655 141.168 60.4035 141.308 59.9135L140.342 59.7175C140.006 60.9775 139.46 62.1395 138.704 63.1895L139.586 63.7355C139.894 63.2875 140.174 62.8115 140.426 62.2795H142.694V64.2815H139.054V65.2615H141.308C141.266 66.1295 141.126 66.8855 140.888 67.5015C140.524 68.3415 139.782 69.0415 138.648 69.6015L139.306 70.3995C140.622 69.7135 141.476 68.8315 141.84 67.7675C142.078 67.0675 142.218 66.2275 142.26 65.2615H143.674V69.2375C143.674 69.5455 143.758 69.7975 143.954 69.9935C144.136 70.1895 144.402 70.2875 144.766 70.2875H145.774C146.25 70.2735 146.586 70.1615 146.782 69.9655C146.992 69.7415 147.146 69.0555 147.23 67.8935L146.348 67.5995C146.292 68.5935 146.18 69.1535 146.012 69.2795C145.9 69.3635 145.76 69.4055 145.564 69.4055H145.06C144.752 69.4055 144.612 69.2655 144.612 69.0135V65.2615H146.964V64.2815H143.674V62.2795H146.474V61.3135H143.674V59.5215H142.694ZM150.436 61.9155V68.5655C149.848 68.7335 149.246 68.8875 148.616 69.0415L148.91 70.0355C150.534 69.6015 151.962 69.1255 153.194 68.6075V67.5995C152.648 67.8235 152.074 68.0335 151.472 68.2435V61.9155H153.096V60.9355H148.77V61.9155H150.436ZM153.628 60.1655V61.1455H157.044C156.974 61.6635 156.876 62.1675 156.736 62.6435H154.272V69.2235H155.238V63.5675H159.732V69.2235H160.712V62.6435H157.744C157.856 62.1675 157.954 61.6775 158.038 61.1455H161.384V60.1655H153.628ZM158.626 69.2515L157.954 69.8955C159.158 70.8195 160.11 71.6875 160.81 72.4995L161.538 71.7715C160.754 70.9315 159.774 70.0915 158.626 69.2515ZM156.918 64.4635V66.8715C156.876 68.0895 156.554 69.0835 155.966 69.8395C155.322 70.5675 154.174 71.1555 152.55 71.5895L153.096 72.4575C154.776 71.9815 155.98 71.3235 156.722 70.4975C157.478 69.5875 157.87 68.3835 157.926 66.8715V64.4635H156.918ZM162.7 65.3595V66.3675H175.286V65.3595H162.7Z" fill="#333333"/>
<path fill-rule="evenodd" clip-rule="evenodd" d="M228 66L224 62L224 70L228 66Z" fill="#999999"/>
<rect width="120" height="32" transform="translate(122 82)" fill="#337EFF"/>
<path d="M135.764 91.7865L135.078 92.4445C136.072 93.2285 136.856 93.9705 137.43 94.6705L138.13 93.9705C137.486 93.2425 136.702 92.5145 135.764 91.7865ZM143.898 104.148H147.146L147.398 103.14C147.02 103.168 146.488 103.182 145.816 103.196C145.116 103.21 144.43 103.224 143.758 103.224C142.666 103.224 141.742 103.21 141.014 103.196C140.174 103.168 139.544 103.056 139.11 102.86C138.718 102.678 138.354 102.384 138.018 101.978C137.906 101.852 137.794 101.74 137.682 101.656V96.4205H134.756V97.3445H136.744V101.6C136.156 101.852 135.498 102.58 134.742 103.77L135.498 104.456C136.282 103.14 136.842 102.496 137.192 102.496C137.36 102.496 137.542 102.608 137.738 102.846C138.172 103.35 138.662 103.7 139.208 103.868C139.768 104.022 140.51 104.106 141.406 104.12C142.302 104.134 143.142 104.148 143.898 104.148ZM142.694 91.5205V93.3125H140.846C141.014 92.8645 141.168 92.4025 141.308 91.9125L140.342 91.7165C140.006 92.9765 139.46 94.1385 138.704 95.1885L139.586 95.7345C139.894 95.2865 140.174 94.8105 140.426 94.2785H142.694V96.2805H139.054V97.2605H141.308C141.266 98.1285 141.126 98.8845 140.888 99.5005C140.524 100.34 139.782 101.04 138.648 101.6L139.306 102.398C140.622 101.712 141.476 100.83 141.84 99.7665C142.078 99.0665 142.218 98.2265 142.26 97.2605H143.674V101.236C143.674 101.544 143.758 101.796 143.954 101.992C144.136 102.188 144.402 102.286 144.766 102.286H145.774C146.25 102.272 146.586 102.16 146.782 101.964C146.992 101.74 147.146 101.054 147.23 99.8925L146.348 99.5985C146.292 100.592 146.18 101.152 146.012 101.278C145.9 101.362 145.76 101.404 145.564 101.404H145.06C144.752 101.404 144.612 101.264 144.612 101.012V97.2605H146.964V96.2805H143.674V94.2785H146.474V93.3125H143.674V91.5205H142.694ZM150.436 93.9145V100.564C149.848 100.732 149.246 100.886 148.616 101.04L148.91 102.034C150.534 101.6 151.962 101.124 153.194 100.606V99.5985C152.648 99.8225 152.074 100.032 151.472 100.242V93.9145H153.096V92.9345H148.77V93.9145H150.436ZM153.628 92.1645V93.1445H157.044C156.974 93.6625 156.876 94.1665 156.736 94.6425H154.272V101.222H155.238V95.5665H159.732V101.222H160.712V94.6425H157.744C157.856 94.1665 157.954 93.6765 158.038 93.1445H161.384V92.1645H153.628ZM158.626 101.25L157.954 101.894C159.158 102.818 160.11 103.686 160.81 104.498L161.538 103.77C160.754 102.93 159.774 102.09 158.626 101.25ZM156.918 96.4625V98.8705C156.876 100.088 156.554 101.082 155.966 101.838C155.322 102.566 154.174 103.154 152.55 103.588L153.096 104.456C154.776 103.98 155.98 103.322 156.722 102.496C157.478 101.586 157.87 100.382 157.926 98.8705V96.4625H156.918ZM164.03 93.1165V94.1105H173.97V93.1165H164.03ZM162.742 101.922V102.944H175.244V101.922H162.742Z" fill="white"/>
<path fill-rule="evenodd" clip-rule="evenodd" d="M228 98L224 94L224 102L228 98Z" fill="white"/>
<path d="M135.764 123.787L135.078 124.445C136.072 125.229 136.856 125.971 137.43 126.671L138.13 125.971C137.486 125.243 136.702 124.515 135.764 123.787ZM143.898 136.149H147.146L147.398 135.141C147.02 135.169 146.488 135.183 145.816 135.197C145.116 135.211 144.43 135.225 143.758 135.225C142.666 135.225 141.742 135.211 141.014 135.197C140.174 135.169 139.544 135.057 139.11 134.861C138.718 134.679 138.354 134.385 138.018 133.979C137.906 133.853 137.794 133.741 137.682 133.657V128.421H134.756V129.345H136.744V133.601C136.156 133.853 135.498 134.581 134.742 135.771L135.498 136.457C136.282 135.141 136.842 134.497 137.192 134.497C137.36 134.497 137.542 134.609 137.738 134.847C138.172 135.351 138.662 135.701 139.208 135.869C139.768 136.023 140.51 136.107 141.406 136.121C142.302 136.135 143.142 136.149 143.898 136.149ZM142.694 123.521V125.313H140.846C141.014 124.865 141.168 124.403 141.308 123.913L140.342 123.717C140.006 124.977 139.46 126.139 138.704 127.189L139.586 127.735C139.894 127.287 140.174 126.811 140.426 126.279H142.694V128.281H139.054V129.261H141.308C141.266 130.129 141.126 130.885 140.888 131.501C140.524 132.341 139.782 133.041 138.648 133.601L139.306 134.399C140.622 133.713 141.476 132.831 141.84 131.767C142.078 131.067 142.218 130.227 142.26 129.261H143.674V133.237C143.674 133.545 143.758 133.797 143.954 133.993C144.136 134.189 144.402 134.287 144.766 134.287H145.774C146.25 134.273 146.586 134.161 146.782 133.965C146.992 133.741 147.146 133.055 147.23 131.893L146.348 131.599C146.292 132.593 146.18 133.153 146.012 133.279C145.9 133.363 145.76 133.405 145.564 133.405H145.06C144.752 133.405 144.612 133.265 144.612 133.013V129.261H146.964V128.281H143.674V126.279H146.474V125.313H143.674V123.521H142.694ZM150.436 125.915V132.565C149.848 132.733 149.246 132.887 148.616 133.041L148.91 134.035C150.534 133.601 151.962 133.125 153.194 132.607V131.599C152.648 131.823 152.074 132.033 151.472 132.243V125.915H153.096V124.935H148.77V125.915H150.436ZM153.628 124.165V125.145H157.044C156.974 125.663 156.876 126.167 156.736 126.643H154.272V133.223H155.238V127.567H159.732V133.223H160.712V126.643H157.744C157.856 126.167 157.954 125.677 158.038 125.145H161.384V124.165H153.628ZM158.626 133.251L157.954 133.895C159.158 134.819 160.11 135.687 160.81 136.499L161.538 135.771C160.754 134.931 159.774 134.091 158.626 133.251ZM156.918 128.463V130.871C156.876 132.089 156.554 133.083 155.966 133.839C155.322 134.567 154.174 135.155 152.55 135.589L153.096 136.457C154.776 135.981 155.98 135.323 156.722 134.497C157.478 133.587 157.87 132.383 157.926 130.871V128.463H156.918ZM163.722 124.627V125.607H174.306V124.627H163.722ZM164.66 129.471V130.451H173.354V129.471H164.66ZM162.686 134.651V135.659H175.314V134.651H162.686Z" fill="#333333"/>
<path fill-rule="evenodd" clip-rule="evenodd" d="M228 130L224 126L224 134L228 130Z" fill="#999999"/>
<path d="M135.764 155.787L135.078 156.445C136.072 157.229 136.856 157.971 137.43 158.671L138.13 157.971C137.486 157.243 136.702 156.515 135.764 155.787ZM143.898 168.149H147.146L147.398 167.141C147.02 167.169 146.488 167.183 145.816 167.197C145.116 167.211 144.43 167.225 143.758 167.225C142.666 167.225 141.742 167.211 141.014 167.197C140.174 167.169 139.544 167.057 139.11 166.861C138.718 166.679 138.354 166.385 138.018 165.979C137.906 165.853 137.794 165.741 137.682 165.657V160.421H134.756V161.345H136.744V165.601C136.156 165.853 135.498 166.581 134.742 167.771L135.498 168.457C136.282 167.141 136.842 166.497 137.192 166.497C137.36 166.497 137.542 166.609 137.738 166.847C138.172 167.351 138.662 167.701 139.208 167.869C139.768 168.023 140.51 168.107 141.406 168.121C142.302 168.135 143.142 168.149 143.898 168.149ZM142.694 155.521V157.313H140.846C141.014 156.865 141.168 156.403 141.308 155.913L140.342 155.717C140.006 156.977 139.46 158.139 138.704 159.189L139.586 159.735C139.894 159.287 140.174 158.811 140.426 158.279H142.694V160.281H139.054V161.261H141.308C141.266 162.129 141.126 162.885 140.888 163.501C140.524 164.341 139.782 165.041 138.648 165.601L139.306 166.399C140.622 165.713 141.476 164.831 141.84 163.767C142.078 163.067 142.218 162.227 142.26 161.261H143.674V165.237C143.674 165.545 143.758 165.797 143.954 165.993C144.136 166.189 144.402 166.287 144.766 166.287H145.774C146.25 166.273 146.586 166.161 146.782 165.965C146.992 165.741 147.146 165.055 147.23 163.893L146.348 163.599C146.292 164.593 146.18 165.153 146.012 165.279C145.9 165.363 145.76 165.405 145.564 165.405H145.06C144.752 165.405 144.612 165.265 144.612 165.013V161.261H146.964V160.281H143.674V158.279H146.474V157.313H143.674V155.521H142.694ZM150.436 157.915V164.565C149.848 164.733 149.246 164.887 148.616 165.041L148.91 166.035C150.534 165.601 151.962 165.125 153.194 164.607V163.599C152.648 163.823 152.074 164.033 151.472 164.243V157.915H153.096V156.935H148.77V157.915H150.436ZM153.628 156.165V157.145H157.044C156.974 157.663 156.876 158.167 156.736 158.643H154.272V165.223H155.238V159.567H159.732V165.223H160.712V158.643H157.744C157.856 158.167 157.954 157.677 158.038 157.145H161.384V156.165H153.628ZM158.626 165.251L157.954 165.895C159.158 166.819 160.11 167.687 160.81 168.499L161.538 167.771C160.754 166.931 159.774 166.091 158.626 165.251ZM156.918 160.463V162.871C156.876 164.089 156.554 165.083 155.966 165.839C155.322 166.567 154.174 167.155 152.55 167.589L153.096 168.457C154.776 167.981 155.98 167.323 156.722 166.497C157.478 165.587 157.87 164.383 157.926 162.871V160.463H156.918ZM174.754 156.459H163.246V168.191H164.268V167.379H173.732V168.191H174.754V156.459ZM164.268 166.469V157.369H166.942V160.407C166.914 162.059 166.186 163.249 164.758 164.005L165.528 164.677C167.096 163.781 167.894 162.353 167.922 160.407V157.369H170.008V162.927C170.008 163.683 170.414 164.075 171.254 164.075H173.242V163.151H171.52C171.156 163.151 170.974 162.997 170.974 162.717V157.369H173.732V166.469H164.268Z" fill="#333333"/>
<path fill-rule="evenodd" clip-rule="evenodd" d="M228 162L224 158L224 166L228 162Z" fill="#999999"/>
<path d="M135.764 187.787L135.078 188.445C136.072 189.229 136.856 189.971 137.43 190.671L138.13 189.971C137.486 189.243 136.702 188.515 135.764 187.787ZM143.898 200.149H147.146L147.398 199.141C147.02 199.169 146.488 199.183 145.816 199.197C145.116 199.211 144.43 199.225 143.758 199.225C142.666 199.225 141.742 199.211 141.014 199.197C140.174 199.169 139.544 199.057 139.11 198.861C138.718 198.679 138.354 198.385 138.018 197.979C137.906 197.853 137.794 197.741 137.682 197.657V192.421H134.756V193.345H136.744V197.601C136.156 197.853 135.498 198.581 134.742 199.771L135.498 200.457C136.282 199.141 136.842 198.497 137.192 198.497C137.36 198.497 137.542 198.609 137.738 198.847C138.172 199.351 138.662 199.701 139.208 199.869C139.768 200.023 140.51 200.107 141.406 200.121C142.302 200.135 143.142 200.149 143.898 200.149ZM142.694 187.521V189.313H140.846C141.014 188.865 141.168 188.403 141.308 187.913L140.342 187.717C140.006 188.977 139.46 190.139 138.704 191.189L139.586 191.735C139.894 191.287 140.174 190.811 140.426 190.279H142.694V192.281H139.054V193.261H141.308C141.266 194.129 141.126 194.885 140.888 195.501C140.524 196.341 139.782 197.041 138.648 197.601L139.306 198.399C140.622 197.713 141.476 196.831 141.84 195.767C142.078 195.067 142.218 194.227 142.26 193.261H143.674V197.237C143.674 197.545 143.758 197.797 143.954 197.993C144.136 198.189 144.402 198.287 144.766 198.287H145.774C146.25 198.273 146.586 198.161 146.782 197.965C146.992 197.741 147.146 197.055 147.23 195.893L146.348 195.599C146.292 196.593 146.18 197.153 146.012 197.279C145.9 197.363 145.76 197.405 145.564 197.405H145.06C144.752 197.405 144.612 197.265 144.612 197.013V193.261H146.964V192.281H143.674V190.279H146.474V189.313H143.674V187.521H142.694ZM150.436 189.915V196.565C149.848 196.733 149.246 196.887 148.616 197.041L148.91 198.035C150.534 197.601 151.962 197.125 153.194 196.607V195.599C152.648 195.823 152.074 196.033 151.472 196.243V189.915H153.096V188.935H148.77V189.915H150.436ZM153.628 188.165V189.145H157.044C156.974 189.663 156.876 190.167 156.736 190.643H154.272V197.223H155.238V191.567H159.732V197.223H160.712V190.643H157.744C157.856 190.167 157.954 189.677 158.038 189.145H161.384V188.165H153.628ZM158.626 197.251L157.954 197.895C159.158 198.819 160.11 199.687 160.81 200.499L161.538 199.771C160.754 198.931 159.774 198.091 158.626 197.251ZM156.918 192.463V194.871C156.876 196.089 156.554 197.083 155.966 197.839C155.322 198.567 154.174 199.155 152.55 199.589L153.096 200.457C154.776 199.981 155.98 199.323 156.722 198.497C157.478 197.587 157.87 196.383 157.926 194.871V192.463H156.918ZM164.03 192.799V193.779H166.998L165.948 198.805H162.784V199.799H175.23V198.805H172.934V192.799H168.216L168.944 189.355H174.698V188.375H163.316V189.355H167.936L167.208 192.799H164.03ZM166.956 198.805L168.006 193.779H171.912V198.805H166.956ZM178.268 193.625V194.521H187.718V193.625H178.268ZM177.106 195.669V196.579H182.692V199.113C182.692 199.407 182.538 199.561 182.23 199.561C181.838 199.561 181.432 199.533 181.012 199.491L181.208 200.401H182.552C183.322 200.401 183.714 200.051 183.714 199.351V196.579H188.894V195.669H177.106ZM185.954 197.279L185.45 198.035C186.444 198.623 187.424 199.421 188.376 200.429L188.95 199.561C188.04 198.665 187.046 197.895 185.954 197.279ZM179.808 197.251C179.066 198.119 178.156 198.889 177.064 199.547L177.694 200.345C178.814 199.645 179.752 198.819 180.508 197.867L179.808 197.251ZM177.12 188.795V189.719H179.388C178.758 190.643 177.918 191.441 176.868 192.113L177.428 192.939C178.254 192.295 178.968 191.483 179.57 190.531V193.079H180.564V190.657C180.956 191.007 181.432 191.483 182.006 192.099L182.552 191.301C181.88 190.797 181.222 190.349 180.564 189.957V189.719H182.678V188.795H180.564V187.535H179.57V188.795H177.12ZM183.322 188.809V189.719H184.876C184.316 190.671 183.588 191.483 182.664 192.183L183.224 193.023C184.064 192.239 184.764 191.245 185.338 190.041V193.093H186.332V189.971C186.794 191.035 187.536 192.001 188.544 192.897L189.188 192.085C188.096 191.385 187.312 190.601 186.822 189.719H188.88V188.809H186.332V187.521H185.338V188.809H183.322ZM192.982 192.449H196.538V194.899H192.982V192.449ZM192.926 195.823H196.538V199.925H197.574V195.823H201.382V198.259C201.382 198.847 201.116 199.141 200.612 199.141C200.136 199.141 199.618 199.113 199.058 199.085L199.324 200.079H200.934C201.914 200.079 202.404 199.589 202.404 198.609V188.123H191.974V194.843C191.946 196.761 191.484 198.343 190.588 199.589L191.358 200.275C192.254 199.099 192.772 197.615 192.926 195.823ZM201.382 194.899H197.574V192.449H201.382V194.899ZM201.382 191.511H197.574V189.103H201.382V191.511ZM196.538 189.103V191.511H192.982V189.103H196.538Z" fill="#999999"/>
<path d="M135.764 219.787L135.078 220.445C136.072 221.229 136.856 221.971 137.43 222.671L138.13 221.971C137.486 221.243 136.702 220.515 135.764 219.787ZM143.898 232.149H147.146L147.398 231.141C147.02 231.169 146.488 231.183 145.816 231.197C145.116 231.211 144.43 231.225 143.758 231.225C142.666 231.225 141.742 231.211 141.014 231.197C140.174 231.169 139.544 231.057 139.11 230.861C138.718 230.679 138.354 230.385 138.018 229.979C137.906 229.853 137.794 229.741 137.682 229.657V224.421H134.756V225.345H136.744V229.601C136.156 229.853 135.498 230.581 134.742 231.771L135.498 232.457C136.282 231.141 136.842 230.497 137.192 230.497C137.36 230.497 137.542 230.609 137.738 230.847C138.172 231.351 138.662 231.701 139.208 231.869C139.768 232.023 140.51 232.107 141.406 232.121C142.302 232.135 143.142 232.149 143.898 232.149ZM142.694 219.521V221.313H140.846C141.014 220.865 141.168 220.403 141.308 219.913L140.342 219.717C140.006 220.977 139.46 222.139 138.704 223.189L139.586 223.735C139.894 223.287 140.174 222.811 140.426 222.279H142.694V224.281H139.054V225.261H141.308C141.266 226.129 141.126 226.885 140.888 227.501C140.524 228.341 139.782 229.041 138.648 229.601L139.306 230.399C140.622 229.713 141.476 228.831 141.84 227.767C142.078 227.067 142.218 226.227 142.26 225.261H143.674V229.237C143.674 229.545 143.758 229.797 143.954 229.993C144.136 230.189 144.402 230.287 144.766 230.287H145.774C146.25 230.273 146.586 230.161 146.782 229.965C146.992 229.741 147.146 229.055 147.23 227.893L146.348 227.599C146.292 228.593 146.18 229.153 146.012 229.279C145.9 229.363 145.76 229.405 145.564 229.405H145.06C144.752 229.405 144.612 229.265 144.612 229.013V225.261H146.964V224.281H143.674V222.279H146.474V221.313H143.674V219.521H142.694ZM150.436 221.915V228.565C149.848 228.733 149.246 228.887 148.616 229.041L148.91 230.035C150.534 229.601 151.962 229.125 153.194 228.607V227.599C152.648 227.823 152.074 228.033 151.472 228.243V221.915H153.096V220.935H148.77V221.915H150.436ZM153.628 220.165V221.145H157.044C156.974 221.663 156.876 222.167 156.736 222.643H154.272V229.223H155.238V223.567H159.732V229.223H160.712V222.643H157.744C157.856 222.167 157.954 221.677 158.038 221.145H161.384V220.165H153.628ZM158.626 229.251L157.954 229.895C159.158 230.819 160.11 231.687 160.81 232.499L161.538 231.771C160.754 230.931 159.774 230.091 158.626 229.251ZM156.918 224.463V226.871C156.876 228.089 156.554 229.083 155.966 229.839C155.322 230.567 154.174 231.155 152.55 231.589L153.096 232.457C154.776 231.981 155.98 231.323 156.722 230.497C157.478 229.587 157.87 228.383 157.926 226.871V224.463H156.918ZM171.352 225.653L170.484 226.199C172.038 228.439 173.27 230.469 174.166 232.289L175.062 231.673C174.208 229.965 172.976 227.949 171.352 225.653ZM166.536 225.737C165.696 228.145 164.45 230.063 162.77 231.477L163.624 232.205C165.234 230.805 166.536 228.789 167.516 226.129L166.536 225.737ZM162.784 223.315V224.295H175.216V223.315H162.784ZM167.698 219.675L166.998 220.333C168.188 221.201 169.112 222.013 169.784 222.783L170.526 222.041C169.756 221.257 168.818 220.459 167.698 219.675Z" fill="#333333"/>
<path fill-rule="evenodd" clip-rule="evenodd" d="M228 226L224 222L224 230L228 226Z" fill="#999999"/>
<path d="M122 41.5H121.5V42V250V250.5H122H242H242.5V250V42V41.5H242H122Z" stroke="#E5E5E5"/>
<rect x="234" y="46" width="4" height="80" rx="2" fill="black" fill-opacity="0.15"/>
<path d="M242 41.5H241.5V42V250V250.5H242H358C360.485 250.5 362.5 248.485 362.5 246V46C362.5 43.5147 360.485 41.5 358 41.5H242Z" fill="white"/>
<path d="M255.764 59.7875L255.078 60.4455C256.072 61.2295 256.856 61.9715 257.43 62.6715L258.13 61.9715C257.486 61.2435 256.702 60.5155 255.764 59.7875ZM263.898 72.1495H267.146L267.398 71.1415C267.02 71.1695 266.488 71.1835 265.816 71.1975C265.116 71.2115 264.43 71.2255 263.758 71.2255C262.666 71.2255 261.742 71.2115 261.014 71.1975C260.174 71.1695 259.544 71.0575 259.11 70.8615C258.718 70.6795 258.354 70.3855 258.018 69.9795C257.906 69.8535 257.794 69.7415 257.682 69.6575V64.4215H254.756V65.3455H256.744V69.6015C256.156 69.8535 255.498 70.5815 254.742 71.7715L255.498 72.4575C256.282 71.1415 256.842 70.4975 257.192 70.4975C257.36 70.4975 257.542 70.6095 257.738 70.8475C258.172 71.3515 258.662 71.7015 259.208 71.8695C259.768 72.0235 260.51 72.1075 261.406 72.1215C262.302 72.1355 263.142 72.1495 263.898 72.1495ZM262.694 59.5215V61.3135H260.846C261.014 60.8655 261.168 60.4035 261.308 59.9135L260.342 59.7175C260.006 60.9775 259.46 62.1395 258.704 63.1895L259.586 63.7355C259.894 63.2875 260.174 62.8115 260.426 62.2795H262.694V64.2815H259.054V65.2615H261.308C261.266 66.1295 261.126 66.8855 260.888 67.5015C260.524 68.3415 259.782 69.0415 258.648 69.6015L259.306 70.3995C260.622 69.7135 261.476 68.8315 261.84 67.7675C262.078 67.0675 262.218 66.2275 262.26 65.2615H263.674V69.2375C263.674 69.5455 263.758 69.7975 263.954 69.9935C264.136 70.1895 264.402 70.2875 264.766 70.2875H265.774C266.25 70.2735 266.586 70.1615 266.782 69.9655C266.992 69.7415 267.146 69.0555 267.23 67.8935L266.348 67.5995C266.292 68.5935 266.18 69.1535 266.012 69.2795C265.9 69.3635 265.76 69.4055 265.564 69.4055H265.06C264.752 69.4055 264.612 69.2655 264.612 69.0135V65.2615H266.964V64.2815H263.674V62.2795H266.474V61.3135H263.674V59.5215H262.694ZM270.436 61.9155V68.5655C269.848 68.7335 269.246 68.8875 268.616 69.0415L268.91 70.0355C270.534 69.6015 271.962 69.1255 273.194 68.6075V67.5995C272.648 67.8235 272.074 68.0335 271.472 68.2435V61.9155H273.096V60.9355H268.77V61.9155H270.436ZM273.628 60.1655V61.1455H277.044C276.974 61.6635 276.876 62.1675 276.736 62.6435H274.272V69.2235H275.238V63.5675H279.732V69.2235H280.712V62.6435H277.744C277.856 62.1675 277.954 61.6775 278.038 61.1455H281.384V60.1655H273.628ZM278.626 69.2515L277.954 69.8955C279.158 70.8195 280.11 71.6875 280.81 72.4995L281.538 71.7715C280.754 70.9315 279.774 70.0915 278.626 69.2515ZM276.918 64.4635V66.8715C276.876 68.0895 276.554 69.0835 275.966 69.8395C275.322 70.5675 274.174 71.1555 272.55 71.5895L273.096 72.4575C274.776 71.9815 275.98 71.3235 276.722 70.4975C277.478 69.5875 277.87 68.3835 277.926 66.8715V64.4635H276.918ZM282.7 65.3595V66.3675H295.286V65.3595H282.7Z" fill="#333333"/>
<path d="M255.764 91.7865L255.078 92.4445C256.072 93.2285 256.856 93.9705 257.43 94.6705L258.13 93.9705C257.486 93.2425 256.702 92.5145 255.764 91.7865ZM263.898 104.148H267.146L267.398 103.14C267.02 103.168 266.488 103.182 265.816 103.196C265.116 103.21 264.43 103.224 263.758 103.224C262.666 103.224 261.742 103.21 261.014 103.196C260.174 103.168 259.544 103.056 259.11 102.86C258.718 102.678 258.354 102.384 258.018 101.978C257.906 101.852 257.794 101.74 257.682 101.656V96.4205H254.756V97.3445H256.744V101.6C256.156 101.852 255.498 102.58 254.742 103.77L255.498 104.456C256.282 103.14 256.842 102.496 257.192 102.496C257.36 102.496 257.542 102.608 257.738 102.846C258.172 103.35 258.662 103.7 259.208 103.868C259.768 104.022 260.51 104.106 261.406 104.12C262.302 104.134 263.142 104.148 263.898 104.148ZM262.694 91.5205V93.3125H260.846C261.014 92.8645 261.168 92.4025 261.308 91.9125L260.342 91.7165C260.006 92.9765 259.46 94.1385 258.704 95.1885L259.586 95.7345C259.894 95.2865 260.174 94.8105 260.426 94.2785H262.694V96.2805H259.054V97.2605H261.308C261.266 98.1285 261.126 98.8845 260.888 99.5005C260.524 100.34 259.782 101.04 258.648 101.6L259.306 102.398C260.622 101.712 261.476 100.83 261.84 99.7665C262.078 99.0665 262.218 98.2265 262.26 97.2605H263.674V101.236C263.674 101.544 263.758 101.796 263.954 101.992C264.136 102.188 264.402 102.286 264.766 102.286H265.774C266.25 102.272 266.586 102.16 266.782 101.964C266.992 101.74 267.146 101.054 267.23 99.8925L266.348 99.5985C266.292 100.592 266.18 101.152 266.012 101.278C265.9 101.362 265.76 101.404 265.564 101.404H265.06C264.752 101.404 264.612 101.264 264.612 101.012V97.2605H266.964V96.2805H263.674V94.2785H266.474V93.3125H263.674V91.5205H262.694ZM270.436 93.9145V100.564C269.848 100.732 269.246 100.886 268.616 101.04L268.91 102.034C270.534 101.6 271.962 101.124 273.194 100.606V99.5985C272.648 99.8225 272.074 100.032 271.472 100.242V93.9145H273.096V92.9345H268.77V93.9145H270.436ZM273.628 92.1645V93.1445H277.044C276.974 93.6625 276.876 94.1665 276.736 94.6425H274.272V101.222H275.238V95.5665H279.732V101.222H280.712V94.6425H277.744C277.856 94.1665 277.954 93.6765 278.038 93.1445H281.384V92.1645H273.628ZM278.626 101.25L277.954 101.894C279.158 102.818 280.11 103.686 280.81 104.498L281.538 103.77C280.754 102.93 279.774 102.09 278.626 101.25ZM276.918 96.4625V98.8705C276.876 100.088 276.554 101.082 275.966 101.838C275.322 102.566 274.174 103.154 272.55 103.588L273.096 104.456C274.776 103.98 275.98 103.322 276.722 102.496C277.478 101.586 277.87 100.382 277.926 98.8705V96.4625H276.918ZM284.03 93.1165V94.1105H293.97V93.1165H284.03ZM282.742 101.922V102.944H295.244V101.922H282.742Z" fill="#333333"/>
<rect width="120" height="32" transform="translate(242 114)" fill="#F5F5F5"/>
<path d="M255.764 123.787L255.078 124.445C256.072 125.229 256.856 125.971 257.43 126.671L258.13 125.971C257.486 125.243 256.702 124.515 255.764 123.787ZM263.898 136.149H267.146L267.398 135.141C267.02 135.169 266.488 135.183 265.816 135.197C265.116 135.211 264.43 135.225 263.758 135.225C262.666 135.225 261.742 135.211 261.014 135.197C260.174 135.169 259.544 135.057 259.11 134.861C258.718 134.679 258.354 134.385 258.018 133.979C257.906 133.853 257.794 133.741 257.682 133.657V128.421H254.756V129.345H256.744V133.601C256.156 133.853 255.498 134.581 254.742 135.771L255.498 136.457C256.282 135.141 256.842 134.497 257.192 134.497C257.36 134.497 257.542 134.609 257.738 134.847C258.172 135.351 258.662 135.701 259.208 135.869C259.768 136.023 260.51 136.107 261.406 136.121C262.302 136.135 263.142 136.149 263.898 136.149ZM262.694 123.521V125.313H260.846C261.014 124.865 261.168 124.403 261.308 123.913L260.342 123.717C260.006 124.977 259.46 126.139 258.704 127.189L259.586 127.735C259.894 127.287 260.174 126.811 260.426 126.279H262.694V128.281H259.054V129.261H261.308C261.266 130.129 261.126 130.885 260.888 131.501C260.524 132.341 259.782 133.041 258.648 133.601L259.306 134.399C260.622 133.713 261.476 132.831 261.84 131.767C262.078 131.067 262.218 130.227 262.26 129.261H263.674V133.237C263.674 133.545 263.758 133.797 263.954 133.993C264.136 134.189 264.402 134.287 264.766 134.287H265.774C266.25 134.273 266.586 134.161 266.782 133.965C266.992 133.741 267.146 133.055 267.23 131.893L266.348 131.599C266.292 132.593 266.18 133.153 266.012 133.279C265.9 133.363 265.76 133.405 265.564 133.405H265.06C264.752 133.405 264.612 133.265 264.612 133.013V129.261H266.964V128.281H263.674V126.279H266.474V125.313H263.674V123.521H262.694ZM270.436 125.915V132.565C269.848 132.733 269.246 132.887 268.616 133.041L268.91 134.035C270.534 133.601 271.962 133.125 273.194 132.607V131.599C272.648 131.823 272.074 132.033 271.472 132.243V125.915H273.096V124.935H268.77V125.915H270.436ZM273.628 124.165V125.145H277.044C276.974 125.663 276.876 126.167 276.736 126.643H274.272V133.223H275.238V127.567H279.732V133.223H280.712V126.643H277.744C277.856 126.167 277.954 125.677 278.038 125.145H281.384V124.165H273.628ZM278.626 133.251L277.954 133.895C279.158 134.819 280.11 135.687 280.81 136.499L281.538 135.771C280.754 134.931 279.774 134.091 278.626 133.251ZM276.918 128.463V130.871C276.876 132.089 276.554 133.083 275.966 133.839C275.322 134.567 274.174 135.155 272.55 135.589L273.096 136.457C274.776 135.981 275.98 135.323 276.722 134.497C277.478 133.587 277.87 132.383 277.926 130.871V128.463H276.918ZM283.722 124.627V125.607H294.306V124.627H283.722ZM284.66 129.471V130.451H293.354V129.471H284.66ZM282.686 134.651V135.659H295.314V134.651H282.686Z" fill="#333333"/>
<path d="M255.764 155.787L255.078 156.445C256.072 157.229 256.856 157.971 257.43 158.671L258.13 157.971C257.486 157.243 256.702 156.515 255.764 155.787ZM263.898 168.149H267.146L267.398 167.141C267.02 167.169 266.488 167.183 265.816 167.197C265.116 167.211 264.43 167.225 263.758 167.225C262.666 167.225 261.742 167.211 261.014 167.197C260.174 167.169 259.544 167.057 259.11 166.861C258.718 166.679 258.354 166.385 258.018 165.979C257.906 165.853 257.794 165.741 257.682 165.657V160.421H254.756V161.345H256.744V165.601C256.156 165.853 255.498 166.581 254.742 167.771L255.498 168.457C256.282 167.141 256.842 166.497 257.192 166.497C257.36 166.497 257.542 166.609 257.738 166.847C258.172 167.351 258.662 167.701 259.208 167.869C259.768 168.023 260.51 168.107 261.406 168.121C262.302 168.135 263.142 168.149 263.898 168.149ZM262.694 155.521V157.313H260.846C261.014 156.865 261.168 156.403 261.308 155.913L260.342 155.717C260.006 156.977 259.46 158.139 258.704 159.189L259.586 159.735C259.894 159.287 260.174 158.811 260.426 158.279H262.694V160.281H259.054V161.261H261.308C261.266 162.129 261.126 162.885 260.888 163.501C260.524 164.341 259.782 165.041 258.648 165.601L259.306 166.399C260.622 165.713 261.476 164.831 261.84 163.767C262.078 163.067 262.218 162.227 262.26 161.261H263.674V165.237C263.674 165.545 263.758 165.797 263.954 165.993C264.136 166.189 264.402 166.287 264.766 166.287H265.774C266.25 166.273 266.586 166.161 266.782 165.965C266.992 165.741 267.146 165.055 267.23 163.893L266.348 163.599C266.292 164.593 266.18 165.153 266.012 165.279C265.9 165.363 265.76 165.405 265.564 165.405H265.06C264.752 165.405 264.612 165.265 264.612 165.013V161.261H266.964V160.281H263.674V158.279H266.474V157.313H263.674V155.521H262.694ZM270.436 157.915V164.565C269.848 164.733 269.246 164.887 268.616 165.041L268.91 166.035C270.534 165.601 271.962 165.125 273.194 164.607V163.599C272.648 163.823 272.074 164.033 271.472 164.243V157.915H273.096V156.935H268.77V157.915H270.436ZM273.628 156.165V157.145H277.044C276.974 157.663 276.876 158.167 276.736 158.643H274.272V165.223H275.238V159.567H279.732V165.223H280.712V158.643H277.744C277.856 158.167 277.954 157.677 278.038 157.145H281.384V156.165H273.628ZM278.626 165.251L277.954 165.895C279.158 166.819 280.11 167.687 280.81 168.499L281.538 167.771C280.754 166.931 279.774 166.091 278.626 165.251ZM276.918 160.463V162.871C276.876 164.089 276.554 165.083 275.966 165.839C275.322 166.567 274.174 167.155 272.55 167.589L273.096 168.457C274.776 167.981 275.98 167.323 276.722 166.497C277.478 165.587 277.87 164.383 277.926 162.871V160.463H276.918ZM294.754 156.459H283.246V168.191H284.268V167.379H293.732V168.191H294.754V156.459ZM284.268 166.469V157.369H286.942V160.407C286.914 162.059 286.186 163.249 284.758 164.005L285.528 164.677C287.096 163.781 287.894 162.353 287.922 160.407V157.369H290.008V162.927C290.008 163.683 290.414 164.075 291.254 164.075H293.242V163.151H291.52C291.156 163.151 290.974 162.997 290.974 162.717V157.369H293.732V166.469H284.268Z" fill="#333333"/>
<path d="M255.764 187.787L255.078 188.445C256.072 189.229 256.856 189.971 257.43 190.671L258.13 189.971C257.486 189.243 256.702 188.515 255.764 187.787ZM263.898 200.149H267.146L267.398 199.141C267.02 199.169 266.488 199.183 265.816 199.197C265.116 199.211 264.43 199.225 263.758 199.225C262.666 199.225 261.742 199.211 261.014 199.197C260.174 199.169 259.544 199.057 259.11 198.861C258.718 198.679 258.354 198.385 258.018 197.979C257.906 197.853 257.794 197.741 257.682 197.657V192.421H254.756V193.345H256.744V197.601C256.156 197.853 255.498 198.581 254.742 199.771L255.498 200.457C256.282 199.141 256.842 198.497 257.192 198.497C257.36 198.497 257.542 198.609 257.738 198.847C258.172 199.351 258.662 199.701 259.208 199.869C259.768 200.023 260.51 200.107 261.406 200.121C262.302 200.135 263.142 200.149 263.898 200.149ZM262.694 187.521V189.313H260.846C261.014 188.865 261.168 188.403 261.308 187.913L260.342 187.717C260.006 188.977 259.46 190.139 258.704 191.189L259.586 191.735C259.894 191.287 260.174 190.811 260.426 190.279H262.694V192.281H259.054V193.261H261.308C261.266 194.129 261.126 194.885 260.888 195.501C260.524 196.341 259.782 197.041 258.648 197.601L259.306 198.399C260.622 197.713 261.476 196.831 261.84 195.767C262.078 195.067 262.218 194.227 262.26 193.261H263.674V197.237C263.674 197.545 263.758 197.797 263.954 197.993C264.136 198.189 264.402 198.287 264.766 198.287H265.774C266.25 198.273 266.586 198.161 266.782 197.965C266.992 197.741 267.146 197.055 267.23 195.893L266.348 195.599C266.292 196.593 266.18 197.153 266.012 197.279C265.9 197.363 265.76 197.405 265.564 197.405H265.06C264.752 197.405 264.612 197.265 264.612 197.013V193.261H266.964V192.281H263.674V190.279H266.474V189.313H263.674V187.521H262.694ZM270.436 189.915V196.565C269.848 196.733 269.246 196.887 268.616 197.041L268.91 198.035C270.534 197.601 271.962 197.125 273.194 196.607V195.599C272.648 195.823 272.074 196.033 271.472 196.243V189.915H273.096V188.935H268.77V189.915H270.436ZM273.628 188.165V189.145H277.044C276.974 189.663 276.876 190.167 276.736 190.643H274.272V197.223H275.238V191.567H279.732V197.223H280.712V190.643H277.744C277.856 190.167 277.954 189.677 278.038 189.145H281.384V188.165H273.628ZM278.626 197.251L277.954 197.895C279.158 198.819 280.11 199.687 280.81 200.499L281.538 199.771C280.754 198.931 279.774 198.091 278.626 197.251ZM276.918 192.463V194.871C276.876 196.089 276.554 197.083 275.966 197.839C275.322 198.567 274.174 199.155 272.55 199.589L273.096 200.457C274.776 199.981 275.98 199.323 276.722 198.497C277.478 197.587 277.87 196.383 277.926 194.871V192.463H276.918ZM284.03 192.799V193.779H286.998L285.948 198.805H282.784V199.799H295.23V198.805H292.934V192.799H288.216L288.944 189.355H294.698V188.375H283.316V189.355H287.936L287.208 192.799H284.03ZM286.956 198.805L288.006 193.779H291.912V198.805H286.956ZM298.268 193.625V194.521H307.718V193.625H298.268ZM297.106 195.669V196.579H302.692V199.113C302.692 199.407 302.538 199.561 302.23 199.561C301.838 199.561 301.432 199.533 301.012 199.491L301.208 200.401H302.552C303.322 200.401 303.714 200.051 303.714 199.351V196.579H308.894V195.669H297.106ZM305.954 197.279L305.45 198.035C306.444 198.623 307.424 199.421 308.376 200.429L308.95 199.561C308.04 198.665 307.046 197.895 305.954 197.279ZM299.808 197.251C299.066 198.119 298.156 198.889 297.064 199.547L297.694 200.345C298.814 199.645 299.752 198.819 300.508 197.867L299.808 197.251ZM297.12 188.795V189.719H299.388C298.758 190.643 297.918 191.441 296.868 192.113L297.428 192.939C298.254 192.295 298.968 191.483 299.57 190.531V193.079H300.564V190.657C300.956 191.007 301.432 191.483 302.006 192.099L302.552 191.301C301.88 190.797 301.222 190.349 300.564 189.957V189.719H302.678V188.795H300.564V187.535H299.57V188.795H297.12ZM303.322 188.809V189.719H304.876C304.316 190.671 303.588 191.483 302.664 192.183L303.224 193.023C304.064 192.239 304.764 191.245 305.338 190.041V193.093H306.332V189.971C306.794 191.035 307.536 192.001 308.544 192.897L309.188 192.085C308.096 191.385 307.312 190.601 306.822 189.719H308.88V188.809H306.332V187.521H305.338V188.809H303.322ZM312.982 192.449H316.538V194.899H312.982V192.449ZM312.926 195.823H316.538V199.925H317.574V195.823H321.382V198.259C321.382 198.847 321.116 199.141 320.612 199.141C320.136 199.141 319.618 199.113 319.058 199.085L319.324 200.079H320.934C321.914 200.079 322.404 199.589 322.404 198.609V188.123H311.974V194.843C311.946 196.761 311.484 198.343 310.588 199.589L311.358 200.275C312.254 199.099 312.772 197.615 312.926 195.823ZM321.382 194.899H317.574V192.449H321.382V194.899ZM321.382 191.511H317.574V189.103H321.382V191.511ZM316.538 189.103V191.511H312.982V189.103H316.538Z" fill="#999999"/>
<path d="M255.764 219.787L255.078 220.445C256.072 221.229 256.856 221.971 257.43 222.671L258.13 221.971C257.486 221.243 256.702 220.515 255.764 219.787ZM263.898 232.149H267.146L267.398 231.141C267.02 231.169 266.488 231.183 265.816 231.197C265.116 231.211 264.43 231.225 263.758 231.225C262.666 231.225 261.742 231.211 261.014 231.197C260.174 231.169 259.544 231.057 259.11 230.861C258.718 230.679 258.354 230.385 258.018 229.979C257.906 229.853 257.794 229.741 257.682 229.657V224.421H254.756V225.345H256.744V229.601C256.156 229.853 255.498 230.581 254.742 231.771L255.498 232.457C256.282 231.141 256.842 230.497 257.192 230.497C257.36 230.497 257.542 230.609 257.738 230.847C258.172 231.351 258.662 231.701 259.208 231.869C259.768 232.023 260.51 232.107 261.406 232.121C262.302 232.135 263.142 232.149 263.898 232.149ZM262.694 219.521V221.313H260.846C261.014 220.865 261.168 220.403 261.308 219.913L260.342 219.717C260.006 220.977 259.46 222.139 258.704 223.189L259.586 223.735C259.894 223.287 260.174 222.811 260.426 222.279H262.694V224.281H259.054V225.261H261.308C261.266 226.129 261.126 226.885 260.888 227.501C260.524 228.341 259.782 229.041 258.648 229.601L259.306 230.399C260.622 229.713 261.476 228.831 261.84 227.767C262.078 227.067 262.218 226.227 262.26 225.261H263.674V229.237C263.674 229.545 263.758 229.797 263.954 229.993C264.136 230.189 264.402 230.287 264.766 230.287H265.774C266.25 230.273 266.586 230.161 266.782 229.965C266.992 229.741 267.146 229.055 267.23 227.893L266.348 227.599C266.292 228.593 266.18 229.153 266.012 229.279C265.9 229.363 265.76 229.405 265.564 229.405H265.06C264.752 229.405 264.612 229.265 264.612 229.013V225.261H266.964V224.281H263.674V222.279H266.474V221.313H263.674V219.521H262.694ZM270.436 221.915V228.565C269.848 228.733 269.246 228.887 268.616 229.041L268.91 230.035C270.534 229.601 271.962 229.125 273.194 228.607V227.599C272.648 227.823 272.074 228.033 271.472 228.243V221.915H273.096V220.935H268.77V221.915H270.436ZM273.628 220.165V221.145H277.044C276.974 221.663 276.876 222.167 276.736 222.643H274.272V229.223H275.238V223.567H279.732V229.223H280.712V222.643H277.744C277.856 222.167 277.954 221.677 278.038 221.145H281.384V220.165H273.628ZM278.626 229.251L277.954 229.895C279.158 230.819 280.11 231.687 280.81 232.499L281.538 231.771C280.754 230.931 279.774 230.091 278.626 229.251ZM276.918 224.463V226.871C276.876 228.089 276.554 229.083 275.966 229.839C275.322 230.567 274.174 231.155 272.55 231.589L273.096 232.457C274.776 231.981 275.98 231.323 276.722 230.497C277.478 229.587 277.87 228.383 277.926 226.871V224.463H276.918ZM291.352 225.653L290.484 226.199C292.038 228.439 293.27 230.469 294.166 232.289L295.062 231.673C294.208 229.965 292.976 227.949 291.352 225.653ZM286.536 225.737C285.696 228.145 284.45 230.063 282.77 231.477L283.624 232.205C285.234 230.805 286.536 228.789 287.516 226.129L286.536 225.737ZM282.784 223.315V224.295H295.216V223.315H282.784ZM287.698 219.675L286.998 220.333C288.188 221.201 289.112 222.013 289.784 222.783L290.526 222.041C289.756 221.257 288.818 220.459 287.698 219.675Z" fill="#333333"/>
<path d="M242 41.5H241.5V42V250V250.5H242H358C360.485 250.5 362.5 248.485 362.5 246V46C362.5 43.5147 360.485 41.5 358 41.5H242Z" stroke="#E5E5E5"/>
<rect x="354" y="46" width="4" height="80" rx="2" fill="black" fill-opacity="0.15"/>
</svg>
