<?xml version="1.0" encoding="utf-8"?>
<!-- Generated by IcoMoon.io -->
<!DOCTYPE svg PUBLIC "-//W3C//DTD SVG 1.1//EN" "http://www.w3.org/Graphics/SVG/1.1/DTD/svg11.dtd">
<svg version="1.1" xmlns="http://www.w3.org/2000/svg" xmlns:xlink="http://www.w3.org/1999/xlink" width="32" height="32" viewBox="0 0 32 32">
<path fill="#31d7b2" d="M16 32c-8.836 0-16-7.164-16-16s7.164-16 16-16c8.836 0 16 7.164 16 16s-7.164 16-16 16zM16 2c-7.732 0-14 6.268-14 14 0 7.731 6.268 14 14 14s14-6.269 14-14c0-7.732-6.268-14-14-14zM20.704 16.938c0.013-0.733-0.121-1.469-0.4-2.159l1.609-1.609c0.833-0.832 0.833-2.189 0-3.021l-0.065-0.065c-0.832-0.833-2.189-0.833-3.021 0l-3.555 3.555c-0.832 0.832-0.832 2.189 0 3.021l0.065 0.067c0.131 0.131 0.273 0.239 0.425 0.329l-1.3 1.3c-0.14-0.108-0.275-0.224-0.401-0.351l-0.065-0.065c-1.535-1.533-1.535-4.045 0-5.58l3.556-3.555c1.533-1.533 4.044-1.533 5.578 0l0.065 0.065c1.533 1.535 1.533 4.044 0 5.58l-2.49 2.487zM10.086 21.849l0.065 0.065c0.832 0.832 2.188 0.832 3.021 0l3.553-3.555c0.832-0.833 0.832-2.189 0-3.023l-0.065-0.064c-0.131-0.131-0.273-0.239-0.426-0.329l1.303-1.3c0.14 0.106 0.275 0.223 0.401 0.349l0.065 0.067c1.533 1.533 1.533 4.045 0 5.58l-3.555 3.553c-1.533 1.535-4.042 1.535-5.578 0l-0.065-0.064c-1.533-1.535-1.533-4.047 0-5.58l2.489-2.489c-0.013 0.733 0.121 1.469 0.4 2.159l-1.609 1.609c-0.833 0.832-0.833 2.189 0 3.021z"></path>
</svg>
