<svg width="56" height="14" viewBox="0 0 56 14" fill="none" xmlns="http://www.w3.org/2000/svg">
<path d="M5.166 3.012V5.756H0.84V6.708H13.16V5.756H8.82V3.012H12.628V2.074H9.464C9.744 1.696 9.996 1.276 10.234 0.8L9.268 0.463999C9.002 1.024 8.694 1.556 8.358 2.074H5.418C5.194 1.514 4.942 1.01 4.69 0.562L3.64 0.729999C3.892 1.136 4.13 1.584 4.354 2.074H1.372V3.012H5.166ZM7.854 3.012V5.756H6.132V3.012H7.854ZM11.116 3.376C10.822 3.978 10.43 4.58 9.926 5.196L10.724 5.602C11.214 5.014 11.62 4.398 11.928 3.754L11.116 3.376ZM3.136 3.404L2.254 3.698C2.618 4.258 2.94 4.888 3.22 5.616L4.074 5.238C3.808 4.594 3.5 3.978 3.136 3.404ZM11.27 7.73H2.702V13.386H3.668V12.728H10.304V13.386H11.27V7.73ZM3.668 11.874V10.656H10.304V11.874H3.668ZM3.668 9.844V8.57H10.304V9.844H3.668ZM15.764 0.785999L15.078 1.444C16.1 2.228 16.898 2.97 17.486 3.67L18.2 2.97C17.542 2.242 16.73 1.514 15.764 0.785999ZM23.954 13.148H27.132L27.37 12.14C27.006 12.168 26.488 12.182 25.816 12.196C25.13 12.21 24.458 12.224 23.814 12.224C22.708 12.224 21.784 12.21 21.042 12.196C20.202 12.168 19.572 12.056 19.124 11.86C18.732 11.678 18.368 11.384 18.032 10.978C17.906 10.838 17.794 10.74 17.682 10.656V5.42H14.756V6.344H16.744V10.6C16.17 10.852 15.512 11.566 14.77 12.742L15.526 13.428C16.296 12.14 16.856 11.496 17.192 11.496C17.36 11.496 17.542 11.608 17.738 11.846C18.172 12.35 18.676 12.7 19.236 12.868C19.796 13.022 20.538 13.106 21.448 13.12C22.344 13.134 23.184 13.148 23.954 13.148ZM21.448 2.13L20.832 2.732C21.518 3.096 22.134 3.474 22.666 3.852H19.166V11.3H20.118V8.85H22.456V11.258H23.394V8.85H25.746V9.9C25.746 10.208 25.578 10.376 25.242 10.376L24.136 10.334L24.36 11.188H25.522C26.306 11.188 26.698 10.824 26.698 10.11V3.852H23.926L23.702 3.67C24.682 3.138 25.592 2.508 26.432 1.78V1.052H18.858V1.906H25.074C24.458 2.382 23.786 2.802 23.058 3.18C22.582 2.83 22.036 2.48 21.448 2.13ZM20.118 6.792H22.456V8.024H20.118V6.792ZM23.394 6.792H25.746V8.024H23.394V6.792ZM25.746 5.952H23.394V4.692H25.746V5.952ZM22.456 5.952H20.118V4.692H22.456V5.952ZM28.896 2.928V3.936H31.052C31.682 6.092 32.802 7.968 34.426 9.564C32.914 10.936 30.982 11.93 28.63 12.56L29.162 13.442C31.542 12.756 33.53 11.678 35.126 10.208C36.638 11.51 38.542 12.588 40.866 13.456L41.412 12.616C39.172 11.79 37.31 10.754 35.826 9.494C37.198 8.01 38.234 6.148 38.92 3.936H41.104V2.928H35.756C35.308 1.962 34.832 1.136 34.3 0.463999L33.292 0.827999C33.852 1.486 34.314 2.186 34.692 2.928H28.896ZM32.046 3.936H37.87C37.282 5.868 36.372 7.506 35.126 8.864C33.67 7.464 32.648 5.826 32.046 3.936ZM43.008 3.138V4.104H47.586C46.55 6.582 44.87 8.612 42.518 10.18L43.092 11.118C45.584 9.284 47.348 6.946 48.384 4.104H48.482V9.564H45.598V10.53H48.482V13.4H49.518V10.53H52.514V9.564H49.518V4.104H49.63C50.582 6.638 52.29 8.92 54.754 10.936L55.44 10.068C53.032 8.318 51.352 6.33 50.414 4.104H54.978V3.138H49.518V0.604H48.482V3.138H43.008Z" fill="#333333"/>
</svg>
