<svg width="48" height="12" viewBox="0 0 48 12" fill="none" xmlns="http://www.w3.org/2000/svg">
<path d="M5.424 11.068C6.24 11.068 6.66 10.636 6.66 9.796V0.375999H5.772V9.568C5.772 10.012 5.544 10.24 5.1 10.24C4.56 10.24 3.984 10.216 3.384 10.168L3.588 11.068H5.424ZM2.556 3.16C2.076 5.32 1.368 7.036 0.408 8.308L1.152 8.968C2.088 7.72 2.844 5.896 3.42 3.496L2.556 3.16ZM9.372 2.872L8.592 3.364C9.516 5.44 10.248 7.324 10.788 9.028L11.556 8.488C11.052 6.892 10.32 5.02 9.372 2.872ZM14.484 0.628V3.868H21.516V0.628H14.484ZM20.628 3.088H15.372V1.408H20.628V3.088ZM15.348 5.728L14.784 7.912H20.808C20.736 8.992 20.628 9.664 20.484 9.928C20.328 10.192 19.932 10.324 19.284 10.324C18.792 10.324 18.228 10.3 17.592 10.252L17.88 11.044C18.348 11.092 18.876 11.116 19.476 11.116C20.292 11.116 20.844 10.936 21.132 10.576C21.42 10.204 21.612 9.052 21.684 7.132H15.816L16.224 5.728H23.388V4.9H12.6V5.728H15.348ZM24.768 2.224V3.088H26.616C27.156 4.936 28.116 6.544 29.508 7.912C28.212 9.088 26.556 9.94 24.54 10.48L24.996 11.236C27.036 10.648 28.74 9.724 30.108 8.464C31.404 9.58 33.036 10.504 35.028 11.248L35.496 10.528C33.576 9.82 31.98 8.932 30.708 7.852C31.884 6.58 32.772 4.984 33.36 3.088H35.232V2.224H30.648C30.264 1.396 29.856 0.688 29.4 0.111999L28.536 0.424C29.016 0.987999 29.412 1.588 29.736 2.224H24.768ZM27.468 3.088H32.46C31.956 4.744 31.176 6.148 30.108 7.312C28.86 6.112 27.984 4.708 27.468 3.088ZM36.864 2.404V3.232H40.788C39.9 5.356 38.46 7.096 36.444 8.44L36.936 9.244C39.072 7.672 40.584 5.668 41.472 3.232H41.556V7.912H39.084V8.74H41.556V11.2H42.444V8.74H45.012V7.912H42.444V3.232H42.54C43.356 5.404 44.82 7.36 46.932 9.088L47.52 8.344C45.456 6.844 44.016 5.14 43.212 3.232H47.124V2.404H42.444V0.232H41.556V2.404H36.864Z" fill="#333333"/>
</svg>
