<svg width="56" height="14" viewBox="0 0 56 14" fill="none" xmlns="http://www.w3.org/2000/svg">
<path d="M6.496 3.936V7.24H1.96V8.178H6.496V11.93H0.798V12.924H13.216V11.93H7.518V8.178H12.054V7.24H7.518V3.936H12.726V2.942H6.958L7.504 2.732C7.308 2.06 7.042 1.332 6.692 0.533999L5.712 0.8C6.048 1.486 6.342 2.2 6.58 2.942H1.288V3.936H6.496ZM14.812 1.122V2.032H18.942V3.278H15.68V6.806H19.362C19.138 7.198 18.9 7.618 18.648 8.052H14.63V8.976H18.088C17.78 9.452 17.472 9.942 17.136 10.432C18.298 10.698 19.46 11.006 20.622 11.356C19.362 11.846 17.472 12.238 14.98 12.532L15.358 13.428C18.382 13.022 20.566 12.462 21.896 11.748C23.45 12.252 25.004 12.826 26.544 13.484L27.174 12.658C25.69 12.07 24.234 11.566 22.806 11.132C23.548 10.53 24.066 9.816 24.346 8.976H27.356V8.052H19.782C20.006 7.66 20.244 7.254 20.496 6.806H26.32V3.278H23.058V2.032H27.188V1.122H14.812ZM21.728 10.81C20.65 10.502 19.6 10.236 18.564 10.012C18.774 9.704 18.998 9.354 19.236 8.976H23.324C23.044 9.704 22.512 10.32 21.728 10.81ZM22.092 3.278H19.908V2.032H22.092V3.278ZM25.354 5.938H23.058V4.16H25.354V5.938ZM22.092 5.938H19.908V4.16H22.092V5.938ZM18.942 5.938H16.646V4.16H18.942V5.938ZM28.896 2.928V3.936H31.052C31.682 6.092 32.802 7.968 34.426 9.564C32.914 10.936 30.982 11.93 28.63 12.56L29.162 13.442C31.542 12.756 33.53 11.678 35.126 10.208C36.638 11.51 38.542 12.588 40.866 13.456L41.412 12.616C39.172 11.79 37.31 10.754 35.826 9.494C37.198 8.01 38.234 6.148 38.92 3.936H41.104V2.928H35.756C35.308 1.962 34.832 1.136 34.3 0.463999L33.292 0.827999C33.852 1.486 34.314 2.186 34.692 2.928H28.896ZM32.046 3.936H37.87C37.282 5.868 36.372 7.506 35.126 8.864C33.67 7.464 32.648 5.826 32.046 3.936ZM43.008 3.138V4.104H47.586C46.55 6.582 44.87 8.612 42.518 10.18L43.092 11.118C45.584 9.284 47.348 6.946 48.384 4.104H48.482V9.564H45.598V10.53H48.482V13.4H49.518V10.53H52.514V9.564H49.518V4.104H49.63C50.582 6.638 52.29 8.92 54.754 10.936L55.44 10.068C53.032 8.318 51.352 6.33 50.414 4.104H54.978V3.138H49.518V0.604H48.482V3.138H43.008Z" fill="#337EFF"/>
</svg>
