<svg width="56" height="14" viewBox="0 0 56 14" fill="none" xmlns="http://www.w3.org/2000/svg">
<path d="M3.304 4.356V6.526H1.806C2.198 5.602 2.548 4.524 2.87 3.292H5.642V2.326H3.108C3.22 1.808 3.332 1.276 3.444 0.715999L2.492 0.562C2.38 1.164 2.254 1.752 2.128 2.326H0.644V3.292H1.89C1.54 4.622 1.162 5.714 0.77 6.568L0.98 7.45H3.304V9.592C2.464 9.732 1.582 9.858 0.63 9.97L0.756 10.95C1.638 10.838 2.492 10.698 3.304 10.544V13.414H4.27V10.348C4.788 10.236 5.292 10.11 5.782 9.984V9.046C5.306 9.172 4.802 9.298 4.27 9.41V7.45H5.684V6.526H4.27V4.356H3.304ZM6.09 2.34V3.292H9.086V4.58H6.3V13.386H7.238V10.32H9.086V13.302H10.038V10.32H11.97V11.958C11.97 12.266 11.816 12.42 11.536 12.42L10.626 12.378L10.878 13.33H11.844C12.544 13.33 12.894 12.938 12.894 12.154V4.58H10.038V3.292H13.384V2.34H12.11L12.628 1.976C12.348 1.584 11.942 1.108 11.438 0.575999L10.766 0.996C11.214 1.472 11.592 1.92 11.9 2.34H10.038V0.618H9.086V2.34H6.09ZM9.086 5.476V7.058H7.238V5.476H9.086ZM7.238 7.926H9.086V9.452H7.238V7.926ZM11.97 9.452H10.038V7.926H11.97V9.452ZM11.97 7.058H10.038V5.476H11.97V7.058ZM20.244 1.402H15.568V11.048C15.232 11.104 14.896 11.174 14.56 11.244L14.84 12.224C17.248 11.72 19.362 11.174 21.182 10.586V9.634C20.874 9.732 20.566 9.83 20.244 9.928V1.402ZM16.562 10.838V8.262H19.264V10.194C18.41 10.418 17.514 10.628 16.562 10.838ZM16.562 7.352V5.238H19.264V7.352H16.562ZM16.562 4.314V2.326H19.264V4.314H16.562ZM22.792 0.631999V3.432H21.056V4.412H22.792V4.608C22.764 8.374 21.854 11.104 20.062 12.798L20.818 13.456C22.764 11.594 23.758 8.64 23.8 4.608V4.412H25.9C25.872 8.164 25.816 10.418 25.732 11.146C25.62 11.958 25.186 12.378 24.444 12.378C24.08 12.378 23.66 12.35 23.17 12.322L23.408 13.218C23.968 13.246 24.36 13.26 24.584 13.26C25.844 13.26 26.544 12.672 26.684 11.524C26.824 10.488 26.894 7.8 26.894 3.432H23.8V0.631999H22.792ZM28.896 2.928V3.936H31.052C31.682 6.092 32.802 7.968 34.426 9.564C32.914 10.936 30.982 11.93 28.63 12.56L29.162 13.442C31.542 12.756 33.53 11.678 35.126 10.208C36.638 11.51 38.542 12.588 40.866 13.456L41.412 12.616C39.172 11.79 37.31 10.754 35.826 9.494C37.198 8.01 38.234 6.148 38.92 3.936H41.104V2.928H35.756C35.308 1.962 34.832 1.136 34.3 0.463999L33.292 0.827999C33.852 1.486 34.314 2.186 34.692 2.928H28.896ZM32.046 3.936H37.87C37.282 5.868 36.372 7.506 35.126 8.864C33.67 7.464 32.648 5.826 32.046 3.936ZM43.008 3.138V4.104H47.586C46.55 6.582 44.87 8.612 42.518 10.18L43.092 11.118C45.584 9.284 47.348 6.946 48.384 4.104H48.482V9.564H45.598V10.53H48.482V13.4H49.518V10.53H52.514V9.564H49.518V4.104H49.63C50.582 6.638 52.29 8.92 54.754 10.936L55.44 10.068C53.032 8.318 51.352 6.33 50.414 4.104H54.978V3.138H49.518V0.604H48.482V3.138H43.008Z" fill="#666666"/>
</svg>
