<svg width="56" height="14" viewBox="0 0 56 14" fill="none" xmlns="http://www.w3.org/2000/svg">
<path d="M10.416 0.519999L9.772 1.136C10.486 1.682 11.046 2.2 11.466 2.704H8.848C8.82 2.032 8.806 1.318 8.806 0.533999H7.77C7.77 1.29 7.784 2.004 7.812 2.704H2.03V7.366C1.988 9.648 1.526 11.426 0.63 12.714L1.4 13.4C2.436 11.888 2.996 9.872 3.052 7.366V6.946H5.474C5.446 8.486 5.404 9.494 5.32 9.97C5.236 10.362 5.04 10.572 4.732 10.586C4.354 10.586 3.892 10.572 3.346 10.544L3.654 11.454C4.102 11.482 4.508 11.51 4.844 11.51C5.544 11.482 5.978 11.174 6.16 10.572C6.342 9.886 6.454 8.36 6.482 5.994H3.052V3.67H7.854C7.966 5.42 8.162 6.89 8.47 8.066C8.624 8.668 8.806 9.228 9.002 9.746C8.036 10.964 6.846 11.888 5.446 12.518L6.006 13.358C7.322 12.77 8.47 11.916 9.45 10.768C9.66 11.202 9.898 11.594 10.15 11.93C10.822 12.77 11.452 13.19 12.04 13.19C12.67 13.19 13.146 12.252 13.482 10.39L12.572 9.886C12.362 11.328 12.124 12.056 11.872 12.07C11.592 12.07 11.214 11.734 10.752 11.062C10.528 10.74 10.318 10.348 10.122 9.9C11.018 8.64 11.746 7.072 12.306 5.224L11.396 4.832C10.962 6.33 10.402 7.646 9.702 8.766C9.604 8.458 9.506 8.136 9.422 7.786C9.17 6.778 8.988 5.406 8.89 3.67H13.202V2.704H11.494L12.138 2.06C11.662 1.542 11.088 1.024 10.416 0.519999ZM16.744 3.096V9.802C16.03 9.97 15.302 10.124 14.574 10.25L14.826 11.258C16.646 10.866 18.354 10.39 19.95 9.802V8.794C19.236 9.074 18.508 9.312 17.766 9.522V3.096H19.782V2.13H14.728V3.096H16.744ZM22.358 0.604V3.432H20.132V4.412H22.358C22.302 8.22 21.266 11.006 19.222 12.742L20.048 13.456C22.204 11.538 23.324 8.528 23.394 4.412H25.956C25.928 8.15 25.872 10.39 25.788 11.118C25.648 11.916 25.116 12.322 24.206 12.322C23.814 12.322 23.366 12.308 22.848 12.28L23.086 13.218C23.688 13.246 24.108 13.274 24.36 13.274C25.774 13.274 26.572 12.686 26.74 11.538C26.88 10.502 26.95 7.8 26.95 3.432H23.394V0.604H22.358ZM28.896 2.928V3.936H31.052C31.682 6.092 32.802 7.968 34.426 9.564C32.914 10.936 30.982 11.93 28.63 12.56L29.162 13.442C31.542 12.756 33.53 11.678 35.126 10.208C36.638 11.51 38.542 12.588 40.866 13.456L41.412 12.616C39.172 11.79 37.31 10.754 35.826 9.494C37.198 8.01 38.234 6.148 38.92 3.936H41.104V2.928H35.756C35.308 1.962 34.832 1.136 34.3 0.463999L33.292 0.827999C33.852 1.486 34.314 2.186 34.692 2.928H28.896ZM32.046 3.936H37.87C37.282 5.868 36.372 7.506 35.126 8.864C33.67 7.464 32.648 5.826 32.046 3.936ZM43.008 3.138V4.104H47.586C46.55 6.582 44.87 8.612 42.518 10.18L43.092 11.118C45.584 9.284 47.348 6.946 48.384 4.104H48.482V9.564H45.598V10.53H48.482V13.4H49.518V10.53H52.514V9.564H49.518V4.104H49.63C50.582 6.638 52.29 8.92 54.754 10.936L55.44 10.068C53.032 8.318 51.352 6.33 50.414 4.104H54.978V3.138H49.518V0.604H48.482V3.138H43.008Z" fill="#26BD71"/>
</svg>
