<svg width="56" height="14" viewBox="0 0 56 14" fill="none" xmlns="http://www.w3.org/2000/svg">
<path d="M6.118 2.116V3.026H7.63V4.818H5.754V5.756H13.468V4.818H11.564V3.026H13.146V2.116H11.564V0.519999H10.612V2.116H8.582V0.519999H7.63V2.116H6.118ZM8.582 4.818V3.026H10.612V4.818H8.582ZM12.53 6.876H6.762V13.414H7.728V12.742H11.578V13.428H12.53V6.876ZM7.728 11.832V10.222H11.578V11.832H7.728ZM7.728 9.326V7.772H11.578V9.326H7.728ZM2.422 0.589999C2.016 2.284 1.358 3.824 0.448 5.224L1.274 5.742C1.792 4.958 2.24 4.076 2.632 3.11H5.628V2.144H2.996C3.136 1.71 3.276 1.262 3.402 0.785999L2.422 0.589999ZM2.002 4.972V5.882H2.884V7.604H0.966V8.528H2.884V11.72C2.884 11.916 2.744 12.056 2.464 12.14L2.884 13.008C4.088 12.672 5.166 12.252 6.09 11.748L5.908 10.852C5.208 11.272 4.536 11.594 3.864 11.818V8.528H5.81V7.604H3.864V5.882H5.334V4.972H2.002ZM19.964 1.122V4.776H26.432V1.122H19.964ZM25.466 3.894H20.93V2.018H25.466V3.894ZM19.194 8.402V9.34H22.33C22.19 9.732 22.022 10.096 21.826 10.432C21.224 11.3 20.16 12.014 18.648 12.546L19.194 13.4C20.762 12.84 21.882 12.084 22.582 11.118C22.862 10.698 23.086 10.236 23.268 9.704C24.01 11.188 25.214 12.406 26.866 13.358L27.538 12.574C25.942 11.762 24.766 10.684 24.01 9.34H27.37V8.402H23.576C23.646 7.94 23.688 7.436 23.702 6.904V6.848H26.936V5.91H19.558V6.848H22.708V6.904C22.694 7.436 22.652 7.926 22.568 8.402H19.194ZM16.282 0.701999L15.568 1.388C16.576 2.144 17.36 2.858 17.948 3.53L18.634 2.83C17.99 2.116 17.206 1.402 16.282 0.701999ZM14.588 4.846V5.812H16.646V11.398C16.646 11.622 16.534 11.818 16.338 12L16.73 12.896C17.57 12.28 18.368 11.566 19.124 10.754L18.858 9.69C18.41 10.166 18.004 10.586 17.612 10.964V4.846H14.588ZM28.896 2.928V3.936H31.052C31.682 6.092 32.802 7.968 34.426 9.564C32.914 10.936 30.982 11.93 28.63 12.56L29.162 13.442C31.542 12.756 33.53 11.678 35.126 10.208C36.638 11.51 38.542 12.588 40.866 13.456L41.412 12.616C39.172 11.79 37.31 10.754 35.826 9.494C37.198 8.01 38.234 6.148 38.92 3.936H41.104V2.928H35.756C35.308 1.962 34.832 1.136 34.3 0.463999L33.292 0.827999C33.852 1.486 34.314 2.186 34.692 2.928H28.896ZM32.046 3.936H37.87C37.282 5.868 36.372 7.506 35.126 8.864C33.67 7.464 32.648 5.826 32.046 3.936ZM43.008 3.138V4.104H47.586C46.55 6.582 44.87 8.612 42.518 10.18L43.092 11.118C45.584 9.284 47.348 6.946 48.384 4.104H48.482V9.564H45.598V10.53H48.482V13.4H49.518V10.53H52.514V9.564H49.518V4.104H49.63C50.582 6.638 52.29 8.92 54.754 10.936L55.44 10.068C53.032 8.318 51.352 6.33 50.414 4.104H54.978V3.138H49.518V0.604H48.482V3.138H43.008Z" fill="#F24957"/>
</svg>
