<svg width="56" height="14" viewBox="0 0 56 14" fill="none" xmlns="http://www.w3.org/2000/svg">
<path d="M2.268 6.624V7.52H11.718V6.624H2.268ZM1.106 8.668V9.578H6.692V12.112C6.692 12.406 6.538 12.56 6.23 12.56C5.838 12.56 5.432 12.532 5.012 12.49L5.208 13.4H6.552C7.322 13.4 7.714 13.05 7.714 12.35V9.578H12.894V8.668H1.106ZM9.954 10.278L9.45 11.034C10.444 11.622 11.424 12.42 12.376 13.428L12.95 12.56C12.04 11.664 11.046 10.894 9.954 10.278ZM3.808 10.25C3.066 11.118 2.156 11.888 1.064 12.546L1.694 13.344C2.814 12.644 3.752 11.818 4.508 10.866L3.808 10.25ZM1.12 1.794V2.718H3.388C2.758 3.642 1.918 4.44 0.868 5.112L1.428 5.938C2.254 5.294 2.968 4.482 3.57 3.53V6.078H4.564V3.656C4.956 4.006 5.432 4.482 6.006 5.098L6.552 4.3C5.88 3.796 5.222 3.348 4.564 2.956V2.718H6.678V1.794H4.564V0.533999H3.57V1.794H1.12ZM7.322 1.808V2.718H8.876C8.316 3.67 7.588 4.482 6.664 5.182L7.224 6.022C8.064 5.238 8.764 4.244 9.338 3.04V6.092H10.332V2.97C10.794 4.034 11.536 5 12.544 5.896L13.188 5.084C12.096 4.384 11.312 3.6 10.822 2.718H12.88V1.808H10.332V0.519999H9.338V1.808H7.322ZM16.982 5.448H20.538V7.898H16.982V5.448ZM16.926 8.822H20.538V12.924H21.574V8.822H25.382V11.258C25.382 11.846 25.116 12.14 24.612 12.14C24.136 12.14 23.618 12.112 23.058 12.084L23.324 13.078H24.934C25.914 13.078 26.404 12.588 26.404 11.608V1.122H15.974V7.842C15.946 9.76 15.484 11.342 14.588 12.588L15.358 13.274C16.254 12.098 16.772 10.614 16.926 8.822ZM25.382 7.898H21.574V5.448H25.382V7.898ZM25.382 4.51H21.574V2.102H25.382V4.51ZM20.538 2.102V4.51H16.982V2.102H20.538ZM28.896 2.928V3.936H31.052C31.682 6.092 32.802 7.968 34.426 9.564C32.914 10.936 30.982 11.93 28.63 12.56L29.162 13.442C31.542 12.756 33.53 11.678 35.126 10.208C36.638 11.51 38.542 12.588 40.866 13.456L41.412 12.616C39.172 11.79 37.31 10.754 35.826 9.494C37.198 8.01 38.234 6.148 38.92 3.936H41.104V2.928H35.756C35.308 1.962 34.832 1.136 34.3 0.463999L33.292 0.827999C33.852 1.486 34.314 2.186 34.692 2.928H28.896ZM32.046 3.936H37.87C37.282 5.868 36.372 7.506 35.126 8.864C33.67 7.464 32.648 5.826 32.046 3.936ZM43.008 3.138V4.104H47.586C46.55 6.582 44.87 8.612 42.518 10.18L43.092 11.118C45.584 9.284 47.348 6.946 48.384 4.104H48.482V9.564H45.598V10.53H48.482V13.4H49.518V10.53H52.514V9.564H49.518V4.104H49.63C50.582 6.638 52.29 8.92 54.754 10.936L55.44 10.068C53.032 8.318 51.352 6.33 50.414 4.104H54.978V3.138H49.518V0.604H48.482V3.138H43.008Z" fill="#999999"/>
</svg>
