<svg width="200" height="78" viewBox="0 0 200 78" fill="none" xmlns="http://www.w3.org/2000/svg">
<rect width="200" height="32" fill="#F5F7FB"/>
<path d="M12.924 10.976V11.936H14.952V15.692H12.744V16.676H15.036C14.484 17.252 13.68 17.732 12.6 18.116L13.188 19.076C13.92 18.716 14.556 18.32 15.084 17.876V18.836H17.448V19.784H13.344V20.84H22.572V19.784H18.552V18.836H20.892V17.852C21.444 18.32 22.128 18.728 22.956 19.088L23.424 18.104C22.368 17.744 21.54 17.276 20.952 16.676H23.244V15.692H21.036V11.936H23.064V10.976H21.036V10.148H19.932V10.976H16.056V10.148H14.952V10.976H12.924ZM15.132 17.828C15.54 17.468 15.876 17.084 16.152 16.676H19.824C20.088 17.084 20.436 17.468 20.868 17.828H18.552V16.988H17.448V17.828H15.132ZM16.056 15.692V15.044H19.932V15.692H16.056ZM16.056 14.156V13.508H19.932V14.156H16.056ZM16.056 12.62V11.936H19.932V12.62H16.056ZM24.828 12.272V13.364H28.524C27.66 15.356 26.28 17 24.384 18.272L25.044 19.34C27.084 17.78 28.548 15.788 29.412 13.364H29.424V17.78H27.048V18.872H29.424V21.236H30.576V18.872H33.048V17.78H30.576V13.364H30.588C31.392 15.512 32.796 17.456 34.8 19.184L35.58 18.2C33.636 16.784 32.268 15.164 31.476 13.364H35.16V12.272H30.576V10.196H29.424V12.272H24.828ZM37.716 14.912V21.26H38.832V13.124C39.264 12.296 39.612 11.432 39.888 10.544L38.82 10.04C38.28 11.888 37.452 13.52 36.348 14.912L36.72 16.136C37.08 15.728 37.404 15.32 37.716 14.912ZM39.672 11.612V12.68H47.556V11.612H44.316C44.184 11.156 43.992 10.664 43.74 10.124L42.648 10.424C42.852 10.808 43.032 11.204 43.188 11.612H39.672ZM40.764 13.412V14.432H46.536V13.412H40.764ZM40.764 15.104V16.136H46.536V15.104H40.764ZM46.788 16.892H40.5V21.236H41.604V20.612H45.684V21.236H46.788V16.892ZM41.604 19.544V17.948H45.684V19.544H41.604ZM50.208 10.976V17.036H57.888V10.976H54.084C54.204 10.736 54.312 10.484 54.384 10.22L53.196 10.064C53.112 10.376 53.004 10.676 52.86 10.976H50.208ZM56.784 16.064H51.312V15.284H56.784V16.064ZM51.312 14.372V13.616H56.784V14.372H51.312ZM51.312 12.716V11.948H56.784V12.716H51.312ZM49.56 17.732C49.356 18.62 49.008 19.46 48.504 20.228L49.464 20.84C49.968 20.024 50.352 19.064 50.64 17.948L49.56 17.732ZM55.536 21.056C56.016 21.056 56.364 20.96 56.604 20.78C56.856 20.564 57.036 19.952 57.132 18.932L56.04 18.584C56.004 19.292 55.92 19.712 55.788 19.856C55.704 19.976 55.548 20.036 55.32 20.036H52.812C52.572 20.036 52.452 19.904 52.452 19.664V17.708H51.3V19.904C51.3 20.672 51.696 21.056 52.488 21.056H55.536ZM54.06 17.24L53.22 17.756C53.784 18.356 54.228 18.908 54.564 19.412L55.416 18.812C55.104 18.356 54.648 17.84 54.06 17.24ZM57.9 17.492L57.012 18.044C57.696 18.98 58.236 19.82 58.644 20.588L59.544 19.952C59.16 19.256 58.62 18.428 57.9 17.492Z" fill="#666666"/>
<path d="M166.028 10.34L165.248 11.084C166.076 11.708 166.724 12.308 167.18 12.872L167.96 12.08C167.432 11.504 166.796 10.916 166.028 10.34ZM164.492 13.76V14.852H166.076V19.22C166.076 19.472 165.968 19.688 165.776 19.856L166.208 20.888C167.084 20.324 167.912 19.676 168.692 18.956L168.38 17.756C167.948 18.164 167.552 18.524 167.18 18.836V13.76H164.492ZM168.776 15.188V16.292H169.46C169.748 17.252 170.312 18.128 171.128 18.92C170.264 19.496 169.196 19.964 167.924 20.336L168.56 21.296C169.928 20.888 171.092 20.348 172.028 19.676C172.844 20.276 173.84 20.828 175.04 21.308L175.652 20.324C174.572 19.94 173.636 19.484 172.868 18.98C173.672 18.212 174.248 17.3 174.596 16.232V15.188H168.776ZM170.528 16.292H173.444C173.096 17.036 172.592 17.696 171.944 18.284C171.272 17.684 170.804 17.024 170.528 16.292ZM169.616 10.556V12.104C169.616 12.92 169.1 13.556 168.092 14.012L168.848 14.888C170.108 14.204 170.744 13.232 170.744 11.984V11.624H172.736V13.328C172.736 14.12 173.156 14.528 174.008 14.528H175.364V13.484H174.308C174.008 13.484 173.864 13.34 173.864 13.076V10.556H169.616ZM176.816 13.508V14.36H181.268C181.232 14.528 181.196 14.708 181.16 14.9H178.292V20.132H176.6V21.02H187.4V20.132H185.708V14.9H182.276L182.396 14.36H187.184V13.508H182.54C182.564 13.316 182.576 13.136 182.6 12.944H186.428V10.556H177.572V12.944H181.46C181.436 13.124 181.424 13.316 181.4 13.508H176.816ZM179.42 20.132V19.496H184.58V20.132H179.42ZM179.42 18.824V18.224H184.58V18.824H179.42ZM179.42 17.54V16.94H184.58V17.54H179.42ZM179.42 16.256V15.668H184.58V16.256H179.42ZM185.348 12.164H183.836V11.384H185.348V12.164ZM182.816 12.164H181.184V11.384H182.816V12.164ZM180.164 12.164H178.652V11.384H180.164V12.164Z" fill="#73A2FF"/>
<path d="M15.55 54.38H20.02V54.97H20.75V50.75H16.58C18.46 49.88 19.75 48.76 20.47 47.39V46.75H16.57C16.77 46.48 16.95 46.2 17.11 45.9L16.32 45.81C15.72 46.87 14.57 47.77 12.86 48.5L13.34 49.12C14.4 48.62 15.26 48.06 15.94 47.43H19.64C19.17 48.25 18.43 48.96 17.41 49.57C16.98 49.2 16.38 48.78 15.62 48.31L15 48.7C15.76 49.13 16.36 49.53 16.8 49.9C15.65 50.48 14.21 50.94 12.48 51.3L12.86 51.99C13.56 51.82 14.21 51.64 14.83 51.44V54.97H15.55V54.38ZM20.02 53.68H15.55V51.42H20.02V53.68ZM22.58 48.57V49.26H23.96C23.64 50.4 23.1 51.41 22.34 52.3L22.65 53.1C23.23 52.3 23.7 51.41 24.04 50.43V54.97H24.73V50.45C25.03 50.8 25.4 51.27 25.82 51.87L26.22 51.27C25.72 50.73 25.23 50.25 24.73 49.81V49.26H25.96V48.57H24.73V47.03C25.24 46.93 25.72 46.81 26.16 46.69L25.91 46.01C24.95 46.31 23.86 46.51 22.62 46.62L22.76 47.3C23.2 47.26 23.62 47.2 24.04 47.14V48.57H22.58ZM28.26 54.95C28.83 54.95 29.12 54.65 29.12 54.05V48.76H28.38V53.87C28.38 54.16 28.25 54.31 28.01 54.31C27.74 54.31 27.45 54.29 27.15 54.26L27.3 54.95H28.26ZM27 50.2C26.75 51.36 26.36 52.43 25.82 53.39L26.44 53.78C26.97 52.81 27.38 51.66 27.67 50.33L27 50.2ZM30.42 50.13L29.77 50.34C30.19 51.37 30.58 52.55 30.93 53.88L31.59 53.59C31.26 52.36 30.87 51.21 30.42 50.13ZM27.68 47.91H30.54C30.42 48.49 30.27 49.01 30.09 49.48L30.79 49.69C30.99 49.03 31.14 48.36 31.26 47.68V47.21H27.95C28.09 46.79 28.21 46.35 28.3 45.89L27.59 45.8C27.35 47.08 26.88 48.16 26.2 49.04L26.64 49.61C27.05 49.11 27.4 48.54 27.68 47.91Z" fill="#999999"/>
<path d="M103.55 54.38H108.02V54.97H108.75V50.75H104.58C106.46 49.88 107.75 48.76 108.47 47.39V46.75H104.57C104.77 46.48 104.95 46.2 105.11 45.9L104.32 45.81C103.72 46.87 102.57 47.77 100.86 48.5L101.34 49.12C102.4 48.62 103.26 48.06 103.94 47.43H107.64C107.17 48.25 106.43 48.96 105.41 49.57C104.98 49.2 104.38 48.78 103.62 48.31L103 48.7C103.76 49.13 104.36 49.53 104.8 49.9C103.65 50.48 102.21 50.94 100.48 51.3L100.86 51.99C101.56 51.82 102.21 51.64 102.83 51.44V54.97H103.55V54.38ZM108.02 53.68H103.55V51.42H108.02V53.68ZM110.58 48.57V49.26H111.96C111.64 50.4 111.1 51.41 110.34 52.3L110.65 53.1C111.23 52.3 111.7 51.41 112.04 50.43V54.97H112.73V50.45C113.03 50.8 113.4 51.27 113.82 51.87L114.22 51.27C113.72 50.73 113.23 50.25 112.73 49.81V49.26H113.96V48.57H112.73V47.03C113.24 46.93 113.72 46.81 114.16 46.69L113.91 46.01C112.95 46.31 111.86 46.51 110.62 46.62L110.76 47.3C111.2 47.26 111.62 47.2 112.04 47.14V48.57H110.58ZM116.26 54.95C116.83 54.95 117.12 54.65 117.12 54.05V48.76H116.38V53.87C116.38 54.16 116.25 54.31 116.01 54.31C115.74 54.31 115.45 54.29 115.15 54.26L115.3 54.95H116.26ZM115 50.2C114.75 51.36 114.36 52.43 113.82 53.39L114.44 53.78C114.97 52.81 115.38 51.66 115.67 50.33L115 50.2ZM118.42 50.13L117.77 50.34C118.19 51.37 118.58 52.55 118.93 53.88L119.59 53.59C119.26 52.36 118.87 51.21 118.42 50.13ZM115.68 47.91H118.54C118.42 48.49 118.27 49.01 118.09 49.48L118.79 49.69C118.99 49.03 119.14 48.36 119.26 47.68V47.21H115.95C116.09 46.79 116.21 46.35 116.3 45.89L115.59 45.8C115.35 47.08 114.88 48.16 114.2 49.04L114.64 49.61C115.05 49.11 115.4 48.54 115.68 47.91Z" fill="#999999"/>
<path d="M15.55 76.38H20.02V76.97H20.75V72.75H16.58C18.46 71.88 19.75 70.76 20.47 69.39V68.75H16.57C16.77 68.48 16.95 68.2 17.11 67.9L16.32 67.81C15.72 68.87 14.57 69.77 12.86 70.5L13.34 71.12C14.4 70.62 15.26 70.06 15.94 69.43H19.64C19.17 70.25 18.43 70.96 17.41 71.57C16.98 71.2 16.38 70.78 15.62 70.31L15 70.7C15.76 71.13 16.36 71.53 16.8 71.9C15.65 72.48 14.21 72.94 12.48 73.3L12.86 73.99C13.56 73.82 14.21 73.64 14.83 73.44V76.97H15.55V76.38ZM20.02 75.68H15.55V73.42H20.02V75.68ZM22.58 70.57V71.26H23.96C23.64 72.4 23.1 73.41 22.34 74.3L22.65 75.1C23.23 74.3 23.7 73.41 24.04 72.43V76.97H24.73V72.45C25.03 72.8 25.4 73.27 25.82 73.87L26.22 73.27C25.72 72.73 25.23 72.25 24.73 71.81V71.26H25.96V70.57H24.73V69.03C25.24 68.93 25.72 68.81 26.16 68.69L25.91 68.01C24.95 68.31 23.86 68.51 22.62 68.62L22.76 69.3C23.2 69.26 23.62 69.2 24.04 69.14V70.57H22.58ZM28.26 76.95C28.83 76.95 29.12 76.65 29.12 76.05V70.76H28.38V75.87C28.38 76.16 28.25 76.31 28.01 76.31C27.74 76.31 27.45 76.29 27.15 76.26L27.3 76.95H28.26ZM27 72.2C26.75 73.36 26.36 74.43 25.82 75.39L26.44 75.78C26.97 74.81 27.38 73.66 27.67 72.33L27 72.2ZM30.42 72.13L29.77 72.34C30.19 73.37 30.58 74.55 30.93 75.88L31.59 75.59C31.26 74.36 30.87 73.21 30.42 72.13ZM27.68 69.91H30.54C30.42 70.49 30.27 71.01 30.09 71.48L30.79 71.69C30.99 71.03 31.14 70.36 31.26 69.68V69.21H27.95C28.09 68.79 28.21 68.35 28.3 67.89L27.59 67.8C27.35 69.08 26.88 70.16 26.2 71.04L26.64 71.61C27.05 71.11 27.4 70.54 27.68 69.91Z" fill="#999999"/>
<path d="M103.55 76.38H108.02V76.97H108.75V72.75H104.58C106.46 71.88 107.75 70.76 108.47 69.39V68.75H104.57C104.77 68.48 104.95 68.2 105.11 67.9L104.32 67.81C103.72 68.87 102.57 69.77 100.86 70.5L101.34 71.12C102.4 70.62 103.26 70.06 103.94 69.43H107.64C107.17 70.25 106.43 70.96 105.41 71.57C104.98 71.2 104.38 70.78 103.62 70.31L103 70.7C103.76 71.13 104.36 71.53 104.8 71.9C103.65 72.48 102.21 72.94 100.48 73.3L100.86 73.99C101.56 73.82 102.21 73.64 102.83 73.44V76.97H103.55V76.38ZM108.02 75.68H103.55V73.42H108.02V75.68ZM110.58 70.57V71.26H111.96C111.64 72.4 111.1 73.41 110.34 74.3L110.65 75.1C111.23 74.3 111.7 73.41 112.04 72.43V76.97H112.73V72.45C113.03 72.8 113.4 73.27 113.82 73.87L114.22 73.27C113.72 72.73 113.23 72.25 112.73 71.81V71.26H113.96V70.57H112.73V69.03C113.24 68.93 113.72 68.81 114.16 68.69L113.91 68.01C112.95 68.31 111.86 68.51 110.62 68.62L110.76 69.3C111.2 69.26 111.62 69.2 112.04 69.14V70.57H110.58ZM116.26 76.95C116.83 76.95 117.12 76.65 117.12 76.05V70.76H116.38V75.87C116.38 76.16 116.25 76.31 116.01 76.31C115.74 76.31 115.45 76.29 115.15 76.26L115.3 76.95H116.26ZM115 72.2C114.75 73.36 114.36 74.43 113.82 75.39L114.44 75.78C114.97 74.81 115.38 73.66 115.67 72.33L115 72.2ZM118.42 72.13L117.77 72.34C118.19 73.37 118.58 74.55 118.93 75.88L119.59 75.59C119.26 74.36 118.87 73.21 118.42 72.13ZM115.68 69.91H118.54C118.42 70.49 118.27 71.01 118.09 71.48L118.79 71.69C118.99 71.03 119.14 70.36 119.26 69.68V69.21H115.95C116.09 68.79 116.21 68.35 116.3 67.89L115.59 67.8C115.35 69.08 114.88 70.16 114.2 71.04L114.64 71.61C115.05 71.11 115.4 70.54 115.68 69.91Z" fill="#999999"/>
<path d="M39.54 49.4V55.02H40.25V48.22C40.6 47.54 40.89 46.82 41.13 46.05L40.46 45.74C40.01 47.3 39.3 48.69 38.32 49.9L38.55 50.67C38.91 50.27 39.24 49.84 39.54 49.4ZM41.09 47.15V47.83H47.6V47.15H44.45L44.83 47.01C44.71 46.64 44.55 46.24 44.34 45.8L43.65 45.99C43.85 46.37 44.02 46.75 44.17 47.15H41.09ZM42.01 48.64V49.29H46.74V48.64H42.01ZM42.01 50.05V50.71H46.74V50.05H42.01ZM46.92 51.53H41.82V55H42.52V54.46H46.22V55H46.92V51.53ZM42.52 53.78V52.2H46.22V53.78H42.52ZM49.91 46.57V51.46H56.17V46.57H52.87C52.99 46.35 53.09 46.12 53.17 45.87L52.42 45.77C52.35 46.05 52.25 46.31 52.11 46.57H49.91ZM55.47 50.84H50.61V50H55.47V50.84ZM50.61 49.42V48.6H55.47V49.42H50.61ZM50.61 48.02V47.2H55.47V48.02H50.61ZM49.41 52.14C49.22 52.92 48.91 53.64 48.48 54.28L49.09 54.67C49.52 53.99 49.85 53.2 50.09 52.28L49.41 52.14ZM54.23 54.85C54.61 54.85 54.9 54.77 55.08 54.62C55.28 54.43 55.42 53.92 55.5 53.08L54.81 52.86C54.77 53.51 54.68 53.9 54.56 54.04C54.48 54.14 54.32 54.2 54.09 54.2H51.87C51.64 54.2 51.53 54.08 51.53 53.85V52.09H50.8V54C50.8 54.56 51.08 54.85 51.66 54.85H54.23ZM52.89 51.73L52.36 52.06C52.88 52.58 53.28 53.05 53.58 53.48L54.13 53.1C53.84 52.71 53.43 52.25 52.89 51.73ZM56.12 51.96L55.56 52.31C56.17 53.1 56.66 53.82 57.02 54.47L57.59 54.07C57.25 53.47 56.76 52.76 56.12 51.96Z" fill="#666666"/>
<path d="M127.54 49.4V55.02H128.25V48.22C128.6 47.54 128.89 46.82 129.13 46.05L128.46 45.74C128.01 47.3 127.3 48.69 126.32 49.9L126.55 50.67C126.91 50.27 127.24 49.84 127.54 49.4ZM129.09 47.15V47.83H135.6V47.15H132.45L132.83 47.01C132.71 46.64 132.55 46.24 132.34 45.8L131.65 45.99C131.85 46.37 132.02 46.75 132.17 47.15H129.09ZM130.01 48.64V49.29H134.74V48.64H130.01ZM130.01 50.05V50.71H134.74V50.05H130.01ZM134.92 51.53H129.82V55H130.52V54.46H134.22V55H134.92V51.53ZM130.52 53.78V52.2H134.22V53.78H130.52ZM137.91 46.57V51.46H144.17V46.57H140.87C140.99 46.35 141.09 46.12 141.17 45.87L140.42 45.77C140.35 46.05 140.25 46.31 140.11 46.57H137.91ZM143.47 50.84H138.61V50H143.47V50.84ZM138.61 49.42V48.6H143.47V49.42H138.61ZM138.61 48.02V47.2H143.47V48.02H138.61ZM137.41 52.14C137.22 52.92 136.91 53.64 136.48 54.28L137.09 54.67C137.52 53.99 137.85 53.2 138.09 52.28L137.41 52.14ZM142.23 54.85C142.61 54.85 142.9 54.77 143.08 54.62C143.28 54.43 143.42 53.92 143.5 53.08L142.81 52.86C142.77 53.51 142.68 53.9 142.56 54.04C142.48 54.14 142.32 54.2 142.09 54.2H139.87C139.64 54.2 139.53 54.08 139.53 53.85V52.09H138.8V54C138.8 54.56 139.08 54.85 139.66 54.85H142.23ZM140.89 51.73L140.36 52.06C140.88 52.58 141.28 53.05 141.58 53.48L142.13 53.1C141.84 52.71 141.43 52.25 140.89 51.73ZM144.12 51.96L143.56 52.31C144.17 53.1 144.66 53.82 145.02 54.47L145.59 54.07C145.25 53.47 144.76 52.76 144.12 51.96Z" fill="#666666"/>
<path d="M39.54 71.4V77.02H40.25V70.22C40.6 69.54 40.89 68.82 41.13 68.05L40.46 67.74C40.01 69.3 39.3 70.69 38.32 71.9L38.55 72.67C38.91 72.27 39.24 71.84 39.54 71.4ZM41.09 69.15V69.83H47.6V69.15H44.45L44.83 69.01C44.71 68.64 44.55 68.24 44.34 67.8L43.65 67.99C43.85 68.37 44.02 68.75 44.17 69.15H41.09ZM42.01 70.64V71.29H46.74V70.64H42.01ZM42.01 72.05V72.71H46.74V72.05H42.01ZM46.92 73.53H41.82V77H42.52V76.46H46.22V77H46.92V73.53ZM42.52 75.78V74.2H46.22V75.78H42.52ZM49.91 68.57V73.46H56.17V68.57H52.87C52.99 68.35 53.09 68.12 53.17 67.87L52.42 67.77C52.35 68.05 52.25 68.31 52.11 68.57H49.91ZM55.47 72.84H50.61V72H55.47V72.84ZM50.61 71.42V70.6H55.47V71.42H50.61ZM50.61 70.02V69.2H55.47V70.02H50.61ZM49.41 74.14C49.22 74.92 48.91 75.64 48.48 76.28L49.09 76.67C49.52 75.99 49.85 75.2 50.09 74.28L49.41 74.14ZM54.23 76.85C54.61 76.85 54.9 76.77 55.08 76.62C55.28 76.43 55.42 75.92 55.5 75.08L54.81 74.86C54.77 75.51 54.68 75.9 54.56 76.04C54.48 76.14 54.32 76.2 54.09 76.2H51.87C51.64 76.2 51.53 76.08 51.53 75.85V74.09H50.8V76C50.8 76.56 51.08 76.85 51.66 76.85H54.23ZM52.89 73.73L52.36 74.06C52.88 74.58 53.28 75.05 53.58 75.48L54.13 75.1C53.84 74.71 53.43 74.25 52.89 73.73ZM56.12 73.96L55.56 74.31C56.17 75.1 56.66 75.82 57.02 76.47L57.59 76.07C57.25 75.47 56.76 74.76 56.12 73.96Z" fill="#666666"/>
<path d="M127.54 71.4V77.02H128.25V70.22C128.6 69.54 128.89 68.82 129.13 68.05L128.46 67.74C128.01 69.3 127.3 70.69 126.32 71.9L126.55 72.67C126.91 72.27 127.24 71.84 127.54 71.4ZM129.09 69.15V69.83H135.6V69.15H132.45L132.83 69.01C132.71 68.64 132.55 68.24 132.34 67.8L131.65 67.99C131.85 68.37 132.02 68.75 132.17 69.15H129.09ZM130.01 70.64V71.29H134.74V70.64H130.01ZM130.01 72.05V72.71H134.74V72.05H130.01ZM134.92 73.53H129.82V77H130.52V76.46H134.22V77H134.92V73.53ZM130.52 75.78V74.2H134.22V75.78H130.52ZM137.91 68.57V73.46H144.17V68.57H140.87C140.99 68.35 141.09 68.12 141.17 67.87L140.42 67.77C140.35 68.05 140.25 68.31 140.11 68.57H137.91ZM143.47 72.84H138.61V72H143.47V72.84ZM138.61 71.42V70.6H143.47V71.42H138.61ZM138.61 70.02V69.2H143.47V70.02H138.61ZM137.41 74.14C137.22 74.92 136.91 75.64 136.48 76.28L137.09 76.67C137.52 75.99 137.85 75.2 138.09 74.28L137.41 74.14ZM142.23 76.85C142.61 76.85 142.9 76.77 143.08 76.62C143.28 76.43 143.42 75.92 143.5 75.08L142.81 74.86C142.77 75.51 142.68 75.9 142.56 76.04C142.48 76.14 142.32 76.2 142.09 76.2H139.87C139.64 76.2 139.53 76.08 139.53 75.85V74.09H138.8V76C138.8 76.56 139.08 76.85 139.66 76.85H142.23ZM140.89 73.73L140.36 74.06C140.88 74.58 141.28 75.05 141.58 75.48L142.13 75.1C141.84 74.71 141.43 74.25 140.89 73.73ZM144.12 73.96L143.56 74.31C144.17 75.1 144.66 75.82 145.02 76.47L145.59 76.07C145.25 75.47 144.76 74.76 144.12 73.96Z" fill="#666666"/>
<line y1="31.5" x2="200" y2="31.5" stroke="#DFE3EC"/>
</svg>
