<svg id="报警管理-双.svg" xmlns="http://www.w3.org/2000/svg" width="36" height="36" viewBox="0 0 36 36">
  <metadata><?xpacket begin="﻿" id="W5M0MpCehiHzreSzNTczkc9d"?>
<x:xmpmeta xmlns:x="adobe:ns:meta/" x:xmptk="Adobe XMP Core 5.6-c138 79.159824, 2016/09/14-01:09:01        ">
   <rdf:RDF xmlns:rdf="http://www.w3.org/1999/02/22-rdf-syntax-ns#">
      <rdf:Description rdf:about=""/>
   </rdf:RDF>
</x:xmpmeta>
                                                                                                    
                                                                                                    
                                                                                                    
                                                                                                    
                                                                                                    
                                                                                                    
                                                                                                    
                                                                                                    
                                                                                                    
                                                                                                    
                                                                                                    
                                                                                                    
                                                                                                    
                                                                                                    
                                                                                                    
                                                                                                    
                                                                                                    
                                                                                                    
                                                                                                    
                                                                                                    
                           
<?xpacket end="w"?></metadata>
<defs>
    <style>
      .cls-1 {
        fill: #fff;
      }

      .cls-1, .cls-2 {
        fill-rule: evenodd;
      }

      .cls-2 {
        fill: #387ee8;
      }
    </style>
  </defs>
  <path id="椭圆_1_拷贝_3" data-name="椭圆 1 拷贝 3" class="cls-1" d="M143.931,447a7.281,7.281,0,0,0,0-2H147v2h-3.069Zm-3.031-7.314,2.171-2.171,1.414,1.414-2.171,2.171A8.019,8.019,0,0,0,140.9,439.686ZM142,453h2.5a0.5,0.5,0,0,1,.5.5v1a0.5,0.5,0,0,1-.5.5h-17a0.5,0.5,0,0,1-.5-0.5v-1a0.5,0.5,0,0,1,.5-0.5H130v-7.5a5.5,5.5,0,0,1,5.5-5.5h1a5.5,5.5,0,0,1,5.5,5.5V453Zm-2-7.5a3.5,3.5,0,0,0-3.5-3.5h-1a3.5,3.5,0,0,0-3.5,3.5V453h8v-7.5Zm-5-7.431V435h2v3.069A7.281,7.281,0,0,0,135,438.069Zm-5.314,3.031-2.171-2.171,1.414-1.414,2.171,2.171A8.019,8.019,0,0,0,129.686,441.1ZM128,446a8.047,8.047,0,0,0,.069,1H125v-2h3.069A8.047,8.047,0,0,0,128,446Z" transform="translate(-118 -427)"/>
  <path id="矩形_9_拷贝" data-name="矩形 9 拷贝" class="cls-2" d="M138,447l0.475,0.854-2.829,2.828-0.707-.707L136.914,448H134l-0.475-.854,2.828-2.828,0.708,0.707L135.086,447H138Z" transform="translate(-118 -427)"/>
</svg>
