<svg id="总览单色.svg" xmlns="http://www.w3.org/2000/svg" width="36" height="36" viewBox="0 0 36 36">
  <metadata><?xpacket begin="﻿" id="W5M0MpCehiHzreSzNTczkc9d"?>
<x:xmpmeta xmlns:x="adobe:ns:meta/" x:xmptk="Adobe XMP Core 5.6-c138 79.159824, 2016/09/14-01:09:01        ">
   <rdf:RDF xmlns:rdf="http://www.w3.org/1999/02/22-rdf-syntax-ns#">
      <rdf:Description rdf:about=""/>
   </rdf:RDF>
</x:xmpmeta>
                                                                                                    
                                                                                                    
                                                                                                    
                                                                                                    
                                                                                                    
                                                                                                    
                                                                                                    
                                                                                                    
                                                                                                    
                                                                                                    
                                                                                                    
                                                                                                    
                                                                                                    
                                                                                                    
                                                                                                    
                                                                                                    
                                                                                                    
                                                                                                    
                                                                                                    
                                                                                                    
                           
<?xpacket end="w"?></metadata>
<defs>
    <style>
      .cls-1 {
        fill: #8594aa;
        fill-rule: evenodd;
      }
    </style>
  </defs>
  <path id="_1" data-name="1" class="cls-1" d="M39.243,131.414l-2.828,2.829a2,2,0,0,1-2.828,0l-2.828-2.829a2,2,0,0,1,0-2.828l2.828-2.829a2,2,0,0,1,2.828,0l2.828,2.829A2,2,0,0,1,39.243,131.414ZM35,127.172L32.172,130,35,132.828,37.828,130ZM27,144H23a2,2,0,0,1-2-2v-4a2,2,0,0,1,2-2h4a2,2,0,0,1,2,2v4A2,2,0,0,1,27,144Zm0-6H23v4h4v-4Zm0-4H23a2,2,0,0,1-2-2v-4a2,2,0,0,1,2-2h4a2,2,0,0,1,2,2v4A2,2,0,0,1,27,134Zm0-6H23v4h4v-4Zm6,8h4a2,2,0,0,1,2,2v4a2,2,0,0,1-2,2H33a2,2,0,0,1-2-2v-4A2,2,0,0,1,33,136Zm0,6h4v-4H33v4Z" transform="translate(-12.422 -116.594)"/>
</svg>
