<svg id="rds双.svg" xmlns="http://www.w3.org/2000/svg" width="36" height="36" viewBox="0 0 36 36">
  <metadata><?xpacket begin="﻿" id="W5M0MpCehiHzreSzNTczkc9d"?>
<x:xmpmeta xmlns:x="adobe:ns:meta/" x:xmptk="Adobe XMP Core 5.6-c138 79.159824, 2016/09/14-01:09:01        ">
   <rdf:RDF xmlns:rdf="http://www.w3.org/1999/02/22-rdf-syntax-ns#">
      <rdf:Description rdf:about=""/>
   </rdf:RDF>
</x:xmpmeta>
                                                                                                    
                                                                                                    
                                                                                                    
                                                                                                    
                                                                                                    
                                                                                                    
                                                                                                    
                                                                                                    
                                                                                                    
                                                                                                    
                                                                                                    
                                                                                                    
                                                                                                    
                                                                                                    
                                                                                                    
                                                                                                    
                                                                                                    
                                                                                                    
                                                                                                    
                                                                                                    
                           
<?xpacket end="w"?></metadata>
<defs>
    <style>
      .cls-1 {
        fill: #fff;
      }

      .cls-1, .cls-2 {
        fill-rule: evenodd;
      }

      .cls-2 {
        fill: #387ee8;
      }
    </style>
  </defs>
  <path id="形状_35_拷贝" data-name="形状 35 拷贝" class="cls-1" d="M114.859,352c-7.607,0-8.859-3-8.859-3v-2.857s0.983,3.426,8.967,3.426S124,346,124,346v2.857S122.466,352,114.859,352Zm0-5c-7.607,0-8.859-3-8.859-3v-2.857s1.016,3.459,9,3.459,9-3.6,9-3.6v2.857S122.466,347,114.859,347Z" transform="translate(-97 -324.5)"/>
  <path id="椭圆_18" data-name="椭圆 18" class="cls-2" d="M114.859,342c-7.607,0-8.859-2.953-8.859-2.953v-2.813l0.023,0.054C106.149,334.464,110.109,333,115,333c4.811,0,8.7,1.419,8.953,3.2,0.031-.065.047-0.107,0.047-0.107v2.813S122.466,342,114.859,342ZM115,335c-3.866,0-7,1.119-7,2.5s3.134,2.5,7,2.5,7-1.119,7-2.5S118.866,335,115,335Z" transform="translate(-97 -324.5)"/>
</svg>
