<svg id="rds单.svg" xmlns="http://www.w3.org/2000/svg" width="36" height="36" viewBox="0 0 36 36">
  <metadata><?xpacket begin="﻿" id="W5M0MpCehiHzreSzNTczkc9d"?>
<x:xmpmeta xmlns:x="adobe:ns:meta/" x:xmptk="Adobe XMP Core 5.6-c138 79.159824, 2016/09/14-01:09:01        ">
   <rdf:RDF xmlns:rdf="http://www.w3.org/1999/02/22-rdf-syntax-ns#">
      <rdf:Description rdf:about=""/>
   </rdf:RDF>
</x:xmpmeta>
                                                                                                    
                                                                                                    
                                                                                                    
                                                                                                    
                                                                                                    
                                                                                                    
                                                                                                    
                                                                                                    
                                                                                                    
                                                                                                    
                                                                                                    
                                                                                                    
                                                                                                    
                                                                                                    
                                                                                                    
                                                                                                    
                                                                                                    
                                                                                                    
                                                                                                    
                                                                                                    
                           
<?xpacket end="w"?></metadata>
<defs>
    <style>
      .cls-1 {
        fill: #8594aa;
        fill-rule: evenodd;
      }
    </style>
  </defs>
  <path id="椭圆_18" data-name="椭圆 18" class="cls-1" d="M29.859,352C22.252,352,21,349,21,349v-2.857s0.983,3.426,8.967,3.426S39,346,39,346v2.857S37.466,352,29.859,352Zm0-5C22.252,347,21,344,21,344v-2.857s1.016,3.459,9,3.459,9-3.6,9-3.6v2.857S37.466,347,29.859,347Zm0-5C22.252,342,21,339.046,21,339.046v-2.813s0.009,0.022.023,0.054C21.149,334.464,25.109,333,30,333c4.811,0,8.705,1.419,8.953,3.2,0.031-.065.047-0.107,0.047-0.107v2.813S37.466,342,29.859,342ZM30,335c-3.866,0-7,1.119-7,2.5s3.134,2.5,7,2.5,7-1.119,7-2.5S33.866,335,30,335Z" transform="translate(-12 -324.5)"/>
</svg>
