<svg id="资源用量单.svg" xmlns="http://www.w3.org/2000/svg" width="36" height="20.812" viewBox="0 0 36 20.812">
  <metadata><?xpacket begin="﻿" id="W5M0MpCehiHzreSzNTczkc9d"?>
<x:xmpmeta xmlns:x="adobe:ns:meta/" x:xmptk="Adobe XMP Core 5.6-c138 79.159824, 2016/09/14-01:09:01        ">
   <rdf:RDF xmlns:rdf="http://www.w3.org/1999/02/22-rdf-syntax-ns#">
      <rdf:Description rdf:about=""/>
   </rdf:RDF>
</x:xmpmeta>
                                                                                                    
                                                                                                    
                                                                                                    
                                                                                                    
                                                                                                    
                                                                                                    
                                                                                                    
                                                                                                    
                                                                                                    
                                                                                                    
                                                                                                    
                                                                                                    
                                                                                                    
                                                                                                    
                                                                                                    
                                                                                                    
                                                                                                    
                                                                                                    
                                                                                                    
                                                                                                    
                           
<?xpacket end="w"?></metadata>
<defs>
    <style>
      .cls-1 {
        fill: #8594aa;
        fill-rule: evenodd;
      }
    </style>
  </defs>
  <path id="圆角矩形_1_拷贝_2" data-name="圆角矩形 1 拷贝 2" class="cls-1" d="M38.738,184c0-.019-0.013-0.037-0.019-0.056A0.491,0.491,0,0,1,38.5,184h-5a0.5,0.5,0,0,1-.5-0.5h0v-5a0.494,0.494,0,0,1,.055-0.218c-0.019-.005-0.036-0.015-0.055-0.02V176.2a10.01,10.01,0,0,1,7.8,7.8H38.738ZM35,179.124V182h2.917A7.993,7.993,0,0,0,35,179.124Zm5,7.376v1a0.5,0.5,0,0,1-.034.167,9.994,9.994,0,1,1-10.633-10.633A0.489,0.489,0,0,1,29.5,177h1a0.5,0.5,0,0,1,.5.5V186h8.5A0.5,0.5,0,0,1,40,186.5Zm-15.137-5.6L29,185.136v-6.067A7.954,7.954,0,0,0,24.863,180.9ZM30.5,188h-1a0.492,0.492,0,0,1-.416-0.24,0.471,0.471,0,0,1-.433-0.118l-5.14-5.267A7.91,7.91,0,0,0,22,187a8,8,0,0,0,15.931,1H30.5Z" transform="translate(-12.406 -176.188)"/>
</svg>
