<svg id="资源用量双.svg" xmlns="http://www.w3.org/2000/svg" width="36" height="36" viewBox="0 0 36 36">
  <metadata><?xpacket begin="﻿" id="W5M0MpCehiHzreSzNTczkc9d"?>
<x:xmpmeta xmlns:x="adobe:ns:meta/" x:xmptk="Adobe XMP Core 5.6-c138 79.159824, 2016/09/14-01:09:01        ">
   <rdf:RDF xmlns:rdf="http://www.w3.org/1999/02/22-rdf-syntax-ns#">
      <rdf:Description rdf:about=""/>
   </rdf:RDF>
</x:xmpmeta>
                                                                                                    
                                                                                                    
                                                                                                    
                                                                                                    
                                                                                                    
                                                                                                    
                                                                                                    
                                                                                                    
                                                                                                    
                                                                                                    
                                                                                                    
                                                                                                    
                                                                                                    
                                                                                                    
                                                                                                    
                                                                                                    
                                                                                                    
                                                                                                    
                                                                                                    
                                                                                                    
                           
<?xpacket end="w"?></metadata>
<defs>
    <style>
      .cls-1 {
        fill: #fff;
      }

      .cls-1, .cls-2 {
        fill-rule: evenodd;
      }

      .cls-2 {
        fill: #387ee8;
      }
    </style>
  </defs>
  <path id="圆角矩形_1_拷贝_3" data-name="圆角矩形 1 拷贝 3" class="cls-1" d="M144.966,291.667a9.994,9.994,0,1,1-10.633-10.634A0.517,0.517,0,0,1,134.5,281h1a0.5,0.5,0,0,1,.5.5V290h8.5a0.5,0.5,0,0,1,.5.5v1A0.492,0.492,0,0,1,144.966,291.667Zm-15.1-6.77L134,289.136v-6.067A7.944,7.944,0,0,0,129.863,284.9ZM135.5,292H134l-0.349-.358-5.14-5.267A7.913,7.913,0,0,0,127,291a8,8,0,0,0,15.931,1H135.5Z" transform="translate(-117.406 -272.594)"/>
  <path id="圆角矩形_2_拷贝_2" data-name="圆角矩形 2 拷贝 2" class="cls-2" d="M143.738,288c0-.019-0.014-0.037-0.019-0.056a0.49,0.49,0,0,1-.219.056h-5a0.5,0.5,0,0,1-.5-0.5v-5a0.489,0.489,0,0,1,.055-0.218c-0.019,0-.036-0.015-0.055-0.02V280.2a10.009,10.009,0,0,1,7.8,7.8h-2.061ZM140,283.124V286h2.917A8,8,0,0,0,140,283.124Z" transform="translate(-117.406 -272.594)"/>
</svg>
