<svg id="用户单.svg" xmlns="http://www.w3.org/2000/svg" width="36" height="36" viewBox="0 0 36 36">
  <metadata><?xpacket begin="﻿" id="W5M0MpCehiHzreSzNTczkc9d"?>
<x:xmpmeta xmlns:x="adobe:ns:meta/" x:xmptk="Adobe XMP Core 5.6-c138 79.159824, 2016/09/14-01:09:01        ">
   <rdf:RDF xmlns:rdf="http://www.w3.org/1999/02/22-rdf-syntax-ns#">
      <rdf:Description rdf:about=""/>
   </rdf:RDF>
</x:xmpmeta>
                                                                                                    
                                                                                                    
                                                                                                    
                                                                                                    
                                                                                                    
                                                                                                    
                                                                                                    
                                                                                                    
                                                                                                    
                                                                                                    
                                                                                                    
                                                                                                    
                                                                                                    
                                                                                                    
                                                                                                    
                                                                                                    
                                                                                                    
                                                                                                    
                                                                                                    
                                                                                                    
                           
<?xpacket end="w"?></metadata>
<defs>
    <style>
      .cls-1 {
        fill: #8594aa;
        fill-rule: evenodd;
      }
    </style>
  </defs>
  <path id="椭圆_32_拷贝_2" data-name="椭圆 32 拷贝 2" class="cls-1" d="M120,134a5,5,0,1,1,5-5A5,5,0,0,1,120,134Zm0-8a3,3,0,1,0,3,3A3,3,0,0,0,120,126Z" transform="translate(-102 -116)"/>
  <path id="圆角矩形_78_拷贝_2" data-name="圆角矩形 78 拷贝 2" class="cls-1" d="M129.5,144h-19a0.5,0.5,0,0,1-.5-0.5v-4.249a17.005,17.005,0,0,1,20,0V143.5A0.5,0.5,0,0,1,129.5,144Zm-9.5-6a14.352,14.352,0,0,0-8.065,2.267,0.484,0.484,0,0,1,.065.233V142h16v-1.5a0.484,0.484,0,0,1,.065-0.233A14.352,14.352,0,0,0,120,138Z" transform="translate(-102 -116)"/>
</svg>
