<svg id="用户双.svg" xmlns="http://www.w3.org/2000/svg" width="36" height="36" viewBox="0 0 36 36">
  <metadata><?xpacket begin="﻿" id="W5M0MpCehiHzreSzNTczkc9d"?>
<x:xmpmeta xmlns:x="adobe:ns:meta/" x:xmptk="Adobe XMP Core 5.6-c138 79.159824, 2016/09/14-01:09:01        ">
   <rdf:RDF xmlns:rdf="http://www.w3.org/1999/02/22-rdf-syntax-ns#">
      <rdf:Description rdf:about=""/>
   </rdf:RDF>
</x:xmpmeta>
                                                                                                    
                                                                                                    
                                                                                                    
                                                                                                    
                                                                                                    
                                                                                                    
                                                                                                    
                                                                                                    
                                                                                                    
                                                                                                    
                                                                                                    
                                                                                                    
                                                                                                    
                                                                                                    
                                                                                                    
                                                                                                    
                                                                                                    
                                                                                                    
                                                                                                    
                                                                                                    
                           
<?xpacket end="w"?></metadata>
<defs>
    <style>
      .cls-1 {
        fill: #387ee8;
      }

      .cls-1, .cls-2 {
        fill-rule: evenodd;
      }

      .cls-2 {
        fill: #fff;
      }
    </style>
  </defs>
  <path id="椭圆_32_拷贝" data-name="椭圆 32 拷贝" class="cls-1" d="M31,134a5,5,0,1,1,5-5A5,5,0,0,1,31,134Zm0-8a3,3,0,1,0,3,3A3,3,0,0,0,31,126Z" transform="translate(-13 -116)"/>
  <path id="圆角矩形_78_拷贝" data-name="圆角矩形 78 拷贝" class="cls-2" d="M40.5,144h-19a0.5,0.5,0,0,1-.5-0.5v-4.249A15.773,15.773,0,0,1,31,136a15.773,15.773,0,0,1,10,3.251V143.5A0.5,0.5,0,0,1,40.5,144ZM31,138a14.354,14.354,0,0,0-8.065,2.267A0.484,0.484,0,0,1,23,140.5V142H39v-1.5a0.484,0.484,0,0,1,.065-0.233A14.354,14.354,0,0,0,31,138Z" transform="translate(-13 -116)"/>
</svg>
