<svg id="云服务器双.svg" xmlns="http://www.w3.org/2000/svg" width="36" height="36" viewBox="0 0 36 36">
  <metadata><?xpacket begin="﻿" id="W5M0MpCehiHzreSzNTczkc9d"?>
<x:xmpmeta xmlns:x="adobe:ns:meta/" x:xmptk="Adobe XMP Core 5.6-c138 79.159824, 2016/09/14-01:09:01        ">
   <rdf:RDF xmlns:rdf="http://www.w3.org/1999/02/22-rdf-syntax-ns#">
      <rdf:Description rdf:about=""/>
   </rdf:RDF>
</x:xmpmeta>
                                                                                                    
                                                                                                    
                                                                                                    
                                                                                                    
                                                                                                    
                                                                                                    
                                                                                                    
                                                                                                    
                                                                                                    
                                                                                                    
                                                                                                    
                                                                                                    
                                                                                                    
                                                                                                    
                                                                                                    
                                                                                                    
                                                                                                    
                                                                                                    
                                                                                                    
                                                                                                    
                           
<?xpacket end="w"?></metadata>
<defs>
    <style>
      .cls-1 {
        fill: #fff;
      }

      .cls-1, .cls-2 {
        fill-rule: evenodd;
      }

      .cls-2 {
        fill: #387ee8;
      }
    </style>
  </defs>
  <path id="矩形_144_拷贝" data-name="矩形 144 拷贝" class="cls-1" d="M144,354H129a2,2,0,0,1-2-2V335a2,2,0,0,1,2-2h15a2,2,0,0,1,2,2v17A2,2,0,0,1,144,354Zm0-19H129v17h15V335Z" transform="translate(-118.5 -325.5)"/>
  <path id="矩形_144_拷贝_2" data-name="矩形 144 拷贝 2" class="cls-2" d="M141,339h-9v-2h9v2Zm0,4h-9v-2h9v2Zm-4.5,2a2.5,2.5,0,1,1-2.5,2.5A2.5,2.5,0,0,1,136.5,345Zm-0.5,3h1v-1h-1v1Z" transform="translate(-118.5 -325.5)"/>
</svg>
