<svg id="云服务器单.svg" xmlns="http://www.w3.org/2000/svg" width="36" height="36" viewBox="0 0 36 36">
  <metadata><?xpacket begin="﻿" id="W5M0MpCehiHzreSzNTczkc9d"?>
<x:xmpmeta xmlns:x="adobe:ns:meta/" x:xmptk="Adobe XMP Core 5.6-c138 79.159824, 2016/09/14-01:09:01        ">
   <rdf:RDF xmlns:rdf="http://www.w3.org/1999/02/22-rdf-syntax-ns#">
      <rdf:Description rdf:about=""/>
   </rdf:RDF>
</x:xmpmeta>
                                                                                                    
                                                                                                    
                                                                                                    
                                                                                                    
                                                                                                    
                                                                                                    
                                                                                                    
                                                                                                    
                                                                                                    
                                                                                                    
                                                                                                    
                                                                                                    
                                                                                                    
                                                                                                    
                                                                                                    
                                                                                                    
                                                                                                    
                                                                                                    
                                                                                                    
                                                                                                    
                           
<?xpacket end="w"?></metadata>
<defs>
    <style>
      .cls-1 {
        fill: #8594aa;
        fill-rule: evenodd;
      }
    </style>
  </defs>
  <path id="云服务器单.svg-2" data-name="云服务器单.svg" class="cls-1" d="M37,354H22a2,2,0,0,1-2-2V335a2,2,0,0,1,2-2H37a2,2,0,0,1,2,2v17A2,2,0,0,1,37,354Zm0-19H22v17H37V335Zm-3,4H25v-2h9v2Zm0,4H25v-2h9v2Zm-4.5,2a2.5,2.5,0,1,1-2.5,2.5A2.5,2.5,0,0,1,29.5,345ZM29,348h1v-1H29v1Z" transform="translate(-11.5 -325.5)"/>
</svg>
