<?xml version="1.0" standalone="no"?>
<!DOCTYPE svg PUBLIC "-//W3C//DTD SVG 1.1//EN" "http://www.w3.org/Graphics/SVG/1.1/DTD/svg11.dtd" >
<svg xmlns="http://www.w3.org/2000/svg">
<defs>
  <font id="cloud-ui-icon" horiz-adv-x="4000.0000000000005">
    <font-face font-family="cloud-ui-icon"
      units-per-em="1000" ascent="1000"
      descent="0" />
    <missing-glyph horiz-adv-x="0" />
    <glyph glyph-name="secret_public"
      unicode="&#xF101;"
      horiz-adv-x="1156.25" d="M709.75 50H159.75C104.5 50 59.7499999999999 94.75 59.7499999999999 150V500C59.7499999999999 555.25 104.4999999999999 600 159.75 600H709.75C765 600 809.75 555.25 809.75 500V150C809.75 94.75 765 50 709.75 50zM759.75 450C759.75 505.25 715.0000000000001 550 659.7500000000001 550H209.7500000000001C154.5000000000001 550 109.75 505.2499999999999 109.75 450V200C109.75 144.7499999999999 154.5 100 209.7500000000001 100H659.7500000000001C715.0000000000001 100 759.75 144.7499999999999 759.75 200V450zM434.75 200C365.6875000000001 200 309.75 255.9374999999999 309.75 325S365.6875000000001 450 434.75 450C503.8125 450 559.75 394.0625 559.75 325S503.8125 200 434.75 200zM434.75 400C393.3437500000001 400 359.75 366.40625 359.75 325.0000000000001S393.34375 250.0000000000001 434.75 250.0000000000001C476.15625 250.0000000000001 509.7500000000001 283.5937500000001 509.7500000000001 325.0000000000001S476.1562500000001 400 434.75 400zM1052.40625 700C1031.40625 815.15625 960.46875 900 834.75 900C682.84375 900 609.75 776.90625 609.75 625V575C609.75 566.4375 610.84375 558.34375 611.3125 550H562.25C561.5 558.34375 559.7500000000001 566.4375 559.7500000000001 575V675C559.7500000000001 826.90625 682.8437500000001 950.0000000000002 834.7500000000001 950.0000000000002C978.0625 950.0000000000002 1094.40625 839.9375 1107.25 700H1052.40625z" />
    <glyph glyph-name="secret_public-1"
      unicode="&#x73;&#x65;&#x63;&#x72;&#x65;&#x74;&#x5F;&#x70;&#x75;&#x62;&#x6C;&#x69;&#x63;"
      horiz-adv-x="1156.25" d="M709.75 50H159.75C104.5 50 59.7499999999999 94.75 59.7499999999999 150V500C59.7499999999999 555.25 104.4999999999999 600 159.75 600H709.75C765 600 809.75 555.25 809.75 500V150C809.75 94.75 765 50 709.75 50zM759.75 450C759.75 505.25 715.0000000000001 550 659.7500000000001 550H209.7500000000001C154.5000000000001 550 109.75 505.2499999999999 109.75 450V200C109.75 144.7499999999999 154.5 100 209.7500000000001 100H659.7500000000001C715.0000000000001 100 759.75 144.7499999999999 759.75 200V450zM434.75 200C365.6875000000001 200 309.75 255.9374999999999 309.75 325S365.6875000000001 450 434.75 450C503.8125 450 559.75 394.0625 559.75 325S503.8125 200 434.75 200zM434.75 400C393.3437500000001 400 359.75 366.40625 359.75 325.0000000000001S393.34375 250.0000000000001 434.75 250.0000000000001C476.15625 250.0000000000001 509.7500000000001 283.5937500000001 509.7500000000001 325.0000000000001S476.1562500000001 400 434.75 400zM1052.40625 700C1031.40625 815.15625 960.46875 900 834.75 900C682.84375 900 609.75 776.90625 609.75 625V575C609.75 566.4375 610.84375 558.34375 611.3125 550H562.25C561.5 558.34375 559.7500000000001 566.4375 559.7500000000001 575V675C559.7500000000001 826.90625 682.8437500000001 950.0000000000002 834.7500000000001 950.0000000000002C978.0625 950.0000000000002 1094.40625 839.9375 1107.25 700H1052.40625z" />
    <glyph glyph-name="rotate-left"
      unicode="&#xF102;"
      horiz-adv-x="1000" d="M296.25 644.5833333333334L237.5 703.75C200 655.4166666666667 176.6666666666667 599.5833333333334 169.5833333333334 541.6666666666667H253.75C259.5833333333333 577.9166666666667 274.1666666666667 613.3333333333334 296.25 644.5833333333334zM253.75 458.3333333333334H169.5833333333334C176.6666666666667 400.4166666666667 199.5833333333333 344.5833333333334 237.0833333333334 296.25L295.8333333333333 355.4166666666667C274.1666666666667 386.6666666666667 259.5833333333333 421.6666666666667 253.7500000000001 458.3333333333334zM295.8333333333333 236.6666666666668C344.1666666666667 199.1666666666668 400.4166666666667 176.6666666666666 458.3333333333333 169.5833333333334V254.1666666666668C422.0833333333333 260.4166666666668 387.0833333333333 274.5833333333334 355.8333333333333 297.0833333333335L295.8333333333333 236.6666666666668zM541.6666666666666 830.4166666666666V958.3333333333334L352.0833333333333 768.75L541.6666666666666 583.3333333333334V746.25C660 726.25 750 623.75 750 500S660 273.75 541.6666666666666 253.75V169.5833333333334C706.2499999999999 190 833.3333333333333 330.0000000000001 833.3333333333333 500S706.2499999999999 810 541.6666666666666 830.4166666666666z" />
    <glyph glyph-name="rotate-left-1"
      unicode="&#x72;&#x6F;&#x74;&#x61;&#x74;&#x65;&#x2D;&#x6C;&#x65;&#x66;&#x74;"
      horiz-adv-x="1000" d="M296.25 644.5833333333334L237.5 703.75C200 655.4166666666667 176.6666666666667 599.5833333333334 169.5833333333334 541.6666666666667H253.75C259.5833333333333 577.9166666666667 274.1666666666667 613.3333333333334 296.25 644.5833333333334zM253.75 458.3333333333334H169.5833333333334C176.6666666666667 400.4166666666667 199.5833333333333 344.5833333333335 237.0833333333334 296.25L295.8333333333333 355.4166666666667C274.1666666666667 386.6666666666667 259.5833333333333 421.6666666666667 253.7500000000001 458.3333333333334zM295.8333333333333 236.6666666666668C344.1666666666667 199.1666666666668 400.4166666666667 176.6666666666666 458.3333333333333 169.5833333333334V254.1666666666668C422.0833333333333 260.4166666666668 387.0833333333333 274.5833333333335 355.8333333333333 297.0833333333335L295.8333333333333 236.6666666666668zM541.6666666666666 830.4166666666666V958.3333333333334L352.0833333333333 768.75L541.6666666666666 583.3333333333334V746.25C660 726.25 750 623.75 750 500S660 273.75 541.6666666666666 253.75V169.5833333333334C706.2499999999999 190 833.3333333333333 330.0000000000001 833.3333333333333 500S706.2499999999999 810 541.6666666666666 830.4166666666666z" />
    <glyph glyph-name="close-small"
      unicode="&#xF103;"
      horiz-adv-x="1000" d="M727.1875 333.71875L563.21875 497.6874999999999L731.84375 666.3125C736.53125 671 736.53125 680.375 727.1562500000001 685.0625L689.6875 727.21875C685 731.90625 675.625 731.90625 666.25 727.21875L502.28125 558.59375L333.65625 727.21875C328.96875 731.90625 319.59375 731.90625 314.90625 727.21875L272.75 685.0625C268.0625 680.375 268.0625 671 272.75 666.3125L441.375 497.6875000000001L272.75 333.7187500000001C268.0625 324.34375 268.0625 314.96875 272.75 310.2812500000001L314.90625 272.8125C319.59375 268.1250000000001 328.96875 268.1250000000001 338.34375 272.8125L502.28125 436.78125L670.90625 268.15625C675.59375 263.46875 684.96875 263.46875 689.6562500000001 272.8437499999999L727.1250000000001 310.3125C736.5000000000001 315 736.5000000000001 324.375 727.1250000000001 333.75V333.75z" />
    <glyph glyph-name="close-small-1"
      unicode="&#x63;&#x6C;&#x6F;&#x73;&#x65;&#x2D;&#x73;&#x6D;&#x61;&#x6C;&#x6C;"
      horiz-adv-x="1000" d="M727.1875 333.71875L563.21875 497.6874999999999L731.84375 666.3125C736.53125 671 736.53125 680.375 727.1562500000001 685.0625L689.6875 727.21875C685 731.90625 675.625 731.90625 666.25 727.21875L502.28125 558.59375L333.65625 727.21875C328.96875 731.90625 319.59375 731.90625 314.90625 727.21875L272.75 685.0625C268.0625 680.375 268.0625 671 272.75 666.3125L441.375 497.6875000000001L272.75 333.7187500000001C268.0625 324.34375 268.0625 314.96875 272.75 310.2812500000001L314.90625 272.8125C319.59375 268.1250000000001 328.96875 268.1250000000001 338.34375 272.8125L502.28125 436.78125L670.90625 268.15625C675.59375 263.46875 684.96875 263.46875 689.6562500000001 272.8437499999999L727.1250000000001 310.3125C736.5000000000001 315 736.5000000000001 324.375 727.1250000000001 333.75V333.75z" />
    <glyph glyph-name="end"
      unicode="&#xF104;"
      horiz-adv-x="1000" d="M500 0A500 500 0 1 0 1000 500A500 500 0 0 0 500 0zM500 906.25A406.25 406.25 0 1 1 906.25 500A406.25 406.25 0 0 1 500 906.25zM687.5 281.25H312.5A31.25 31.25 0 0 0 281.25 312.5V687.5A31.25 31.25 0 0 0 312.5 718.75H687.5A31.25 31.25 0 0 0 718.75 687.5V312.5A31.25 31.25 0 0 0 687.5 281.25zM625 625H375V375H625V625z" />
    <glyph glyph-name="end-1"
      unicode="&#x65;&#x6E;&#x64;"
      horiz-adv-x="1000" d="M500 0A500 500 0 1 0 1000 500A500 500 0 0 0 500 0zM500 906.25A406.25 406.25 0 1 1 906.25 500A406.25 406.25 0 0 1 500 906.25zM687.5 281.25H312.5A31.25 31.25 0 0 0 281.25 312.5V687.5A31.25 31.25 0 0 0 312.5 718.75H687.5A31.25 31.25 0 0 0 718.75 687.5V312.5A31.25 31.25 0 0 0 687.5 281.25zM625 625H375V375H625V625z" />
    <glyph glyph-name="waiting"
      unicode="&#xF105;"
      horiz-adv-x="1000" d="M500 0.34375C224.0625 0.34375 0.34375 224.0624999999999 0.34375 500S224.0625 999.65625 500 999.65625C775.9375 999.65625 999.65625 775.9375 999.65625 500S775.9375000000001 0.34375 500 0.34375zM500 903.40625C277.1875000000001 903.40625 96.59375 722.8125 96.59375 500C96.59375 277.25 277.1875 96.65625 500 96.65625S903.40625 277.25 903.40625 500C903.40625 722.8125 722.8125 903.40625 499.9999999999999 903.40625zM649.53125 549.84375H749.21875V450.15625H649.53125V549.84375zM450.15625 549.84375H549.84375V450.15625H450.15625V549.84375zM250.78125 549.84375H350.46875V450.15625H250.78125V549.84375z" />
    <glyph glyph-name="waiting-1"
      unicode="&#x77;&#x61;&#x69;&#x74;&#x69;&#x6E;&#x67;"
      horiz-adv-x="1000" d="M500 0.34375C224.0625 0.34375 0.34375 224.0624999999999 0.34375 500S224.0625 999.65625 500 999.65625C775.9375 999.65625 999.65625 775.9375 999.65625 500S775.9375000000001 0.34375 500 0.34375zM500 903.40625C277.1875000000001 903.40625 96.59375 722.8125 96.59375 500C96.59375 277.25 277.1875 96.65625 500 96.65625S903.40625 277.25 903.40625 500C903.40625 722.8125 722.8125 903.40625 499.9999999999999 903.40625zM649.53125 549.84375H749.21875V450.15625H649.53125V549.84375zM450.15625 549.84375H549.84375V450.15625H450.15625V549.84375zM250.78125 549.84375H350.46875V450.15625H250.78125V549.84375z" />
    <glyph glyph-name="chart-zoom"
      unicode="&#xF106;"
      horiz-adv-x="1000" d="M417.9233968750001 94.640146875L161.1378146875 94.640146875C118.6822984375 94.640146875 84.09932821875 129.223115625 84.09932821875 171.6786312500001L84.09932821875 428.4642156250001C84.09932821875 470.9197312499999 118.6822984375 505.502703125 161.1378146875 505.502703125L417.9233968750001 505.502703125C460.3789125 505.502703125 494.961884375 470.9197312499999 494.961884375 428.4642156250001L494.961884375 171.6786312500001C494.961884375 129.223115625 460.3789125 94.640146875 417.9233968750001 94.640146875L417.9233968750001 94.640146875zM161.1378146875 454.16245625C146.967231875 454.16245625 135.46769125 442.662915625 135.46769125 428.49233125L135.46769125 171.7067500000001C135.46769125 157.536165625 146.967231875 146.0366250000001 161.1378146875 146.0366250000001L417.9233968750001 146.0366250000001C432.09398125 146.0366250000001 443.593521875 157.536165625 443.593521875 171.7067500000001L443.593521875 428.49233125C443.593521875 442.662915625 432.09398125 454.16245625 417.9233968750001 454.16245625L161.1378146875 454.16245625L161.1378146875 454.16245625zM828.8000125 94.640146875L572.014428125 94.640146875L572.014428125 146.008509375L828.8000125 146.008509375C854.4701343749999 146.008509375 854.4701343749999 150.4227593750001 854.4701343749999 171.6786312500001L854.4701343749999 839.3548871875C854.4701343749999 865.025010625 852.5019968749999 865.025010625 828.8000125 865.025010625L161.1237565625 865.025010625C135.453633125 865.025010625 135.453633125 860.6107615625 135.453633125 839.3548871875L135.453633125 582.569303125L84.085270125 582.569303125L84.085270125 839.3548871875C84.085270125 858.4176953125 84.085270125 916.39337371875 161.1237565625 916.39337371875L828.8000125 916.39337371875C851.8553250000001 916.39337371875 905.838496875 916.39337371875 905.838496875 839.3548871875L905.838496875 171.6786312500001C905.838496875 152.6158250000001 905.838496875 94.640146875 828.8000125 94.640146875L828.8000125 94.640146875z" />
    <glyph glyph-name="chart-zoom-1"
      unicode="&#x63;&#x68;&#x61;&#x72;&#x74;&#x2D;&#x7A;&#x6F;&#x6F;&#x6D;"
      horiz-adv-x="1000" d="M417.9233968750001 94.640146875L161.1378146875 94.640146875C118.6822984375 94.640146875 84.09932821875 129.223115625 84.09932821875 171.6786312500001L84.09932821875 428.4642156250001C84.09932821875 470.9197312499999 118.6822984375 505.502703125 161.1378146875 505.502703125L417.9233968750001 505.502703125C460.3789125 505.502703125 494.961884375 470.9197312499999 494.961884375 428.4642156250001L494.961884375 171.6786312500001C494.961884375 129.223115625 460.3789125 94.640146875 417.9233968750001 94.640146875L417.9233968750001 94.640146875zM161.1378146875 454.16245625C146.967231875 454.16245625 135.46769125 442.662915625 135.46769125 428.49233125L135.46769125 171.7067500000001C135.46769125 157.536165625 146.967231875 146.0366250000001 161.1378146875 146.0366250000001L417.9233968750001 146.0366250000001C432.09398125 146.0366250000001 443.593521875 157.536165625 443.593521875 171.7067500000001L443.593521875 428.49233125C443.593521875 442.662915625 432.09398125 454.16245625 417.9233968750001 454.16245625L161.1378146875 454.16245625L161.1378146875 454.16245625zM828.8000125 94.640146875L572.014428125 94.640146875L572.014428125 146.008509375L828.8000125 146.008509375C854.4701343749999 146.008509375 854.4701343749999 150.4227593750001 854.4701343749999 171.6786312500001L854.4701343749999 839.3548871875C854.4701343749999 865.025010625 852.5019968749999 865.025010625 828.8000125 865.025010625L161.1237565625 865.025010625C135.453633125 865.025010625 135.453633125 860.6107615625 135.453633125 839.3548871875L135.453633125 582.569303125L84.085270125 582.569303125L84.085270125 839.3548871875C84.085270125 858.4176953125 84.085270125 916.39337371875 161.1237565625 916.39337371875L828.8000125 916.39337371875C851.8553250000001 916.39337371875 905.838496875 916.39337371875 905.838496875 839.3548871875L905.838496875 171.6786312500001C905.838496875 152.6158250000001 905.838496875 94.640146875 828.8000125 94.640146875L828.8000125 94.640146875z" />
    <glyph glyph-name="arrow-down"
      unicode="&#xF107;"
      horiz-adv-x="1000" d="M500 333.3333333333334L200 666.6666666666667L799.9999999999999 666.6666666666667z" />
    <glyph glyph-name="arrow-down-1"
      unicode="&#x61;&#x72;&#x72;&#x6F;&#x77;&#x2D;&#x64;&#x6F;&#x77;&#x6E;"
      horiz-adv-x="1000" d="M500 333.3333333333335L200 666.6666666666667L799.9999999999999 666.6666666666667z" />
    <glyph glyph-name="check"
      unicode="&#xF108;"
      horiz-adv-x="1000" d="M0 450L100 550L350 300L900 850L1000 750L350 100z" />
    <glyph glyph-name="check-1"
      unicode="&#x63;&#x68;&#x65;&#x63;&#x6B;"
      horiz-adv-x="1000" d="M0 450L100 550L350 300L900 850L1000 750L350 100z" />
    <glyph glyph-name="help"
      unicode="&#xF109;"
      horiz-adv-x="1000" d="M500 0C223.84375 0 0 223.84375 0 500S223.84375 1000 500 1000C776.15625 1000 1000 776.15625 1000 500S776.15625 0 500 0zM444.78125 141.84375H549.71875V255.3437500000001H444.78125V141.84375zM499.0625 786.34375C386.1250000000001 786.34375 306.125 729.125 284.78125 606.6875L377.21875 591.46875C388.78125 671.03125 438.5625 702.3125 499.0624999999999 702.3125C567.5 702.3125 615.4999999999999 668.3125000000001 615.4999999999999 611.09375C615.4999999999999 561.9375 589.71875 538.75 529.2812499999999 492.2500000000001C490.1249999999999 461.8125000000001 448.34375 435.0312500000001 448.34375 360.8125000000001V325.9687500000001H546.125V360.8125000000001C546.125 416.2500000000001 586.1875 433.2500000000001 627.0625 465.3750000000001C687.5625 512.8125000000001 713.28125 547.65625 713.28125 611.0937500000001C713.28125 721.0937500000001 642.21875 786.3125000000001 499.0624999999999 786.3125000000001z" />
    <glyph glyph-name="help-1"
      unicode="&#x68;&#x65;&#x6C;&#x70;"
      horiz-adv-x="1000" d="M500 0C223.84375 0 0 223.84375 0 500S223.84375 1000 500 1000C776.15625 1000 1000 776.15625 1000 500S776.15625 0 500 0zM444.78125 141.84375H549.71875V255.3437500000001H444.78125V141.84375zM499.0625 786.34375C386.1250000000001 786.34375 306.125 729.125 284.78125 606.6875L377.21875 591.46875C388.78125 671.03125 438.5625 702.3125 499.0624999999999 702.3125C567.5 702.3125 615.4999999999999 668.3125000000001 615.4999999999999 611.09375C615.4999999999999 561.9375 589.71875 538.75 529.2812499999999 492.2500000000001C490.1249999999999 461.8125000000001 448.34375 435.0312500000001 448.34375 360.8125000000001V325.9687500000001H546.125V360.8125000000001C546.125 416.2500000000001 586.1875 433.2500000000001 627.0625 465.3750000000001C687.5625 512.8125000000001 713.28125 547.65625 713.28125 611.0937500000001C713.28125 721.0937500000001 642.21875 786.3125000000001 499.0624999999999 786.3125000000001z" />
    <glyph glyph-name="refresh"
      unicode="&#xF10A;"
      horiz-adv-x="1000" d="M953.15625 968.75C927.25 968.75 906.21875 947.75 906.21875 921.90625L906.21875 791.40625C813.1875 921.5625 663.4999999999999 1000 499.9687499999999 1000C224.28125 1000 0 775.71875 0 500.0312500000001C0 224.3437500000001 224.28125 0 499.9687499999999 0C703.21875 0 884.65625 121.4375000000001 962.28125 309.2812500000001C967.2499999999998 321.2500000000001 966.8437499999998 334.09375 962.28125 345.09375C957.71875 356.2187500000001 948.8749999999998 365.5625 936.8437499999998 370.53125C924.9687499999998 375.4375 912.09375 375.09375 901.0312499999998 370.46875C889.9687499999999 365.9062500000001 880.5625 357.0625 875.59375 345.09375C812.5625 192.4375000000001 665.1562499999999 93.8125 499.9687499999999 93.8125C275.96875 93.8125 93.71875 276.0625 93.71875 500.0625000000001C93.71875 724.0625 275.96875 906.3125 499.9687499999999 906.3125C640.1875 906.3125 767.7812499999999 835.25 842.1562499999999 718.8125L703.09375 718.8125C677.25 718.8125 656.25 697.8125 656.25 671.875C656.25 646.03125 677.25 625.03125 703.09375 625.03125L953.15625 625.03125C978.9999999999998 625.03125 1000 646.03125 1000 671.875L1000 921.9375C1000 947.78125 978.9999999999998 968.78125 953.15625 968.78125L953.15625 968.75z" />
    <glyph glyph-name="refresh-1"
      unicode="&#x72;&#x65;&#x66;&#x72;&#x65;&#x73;&#x68;"
      horiz-adv-x="1000" d="M953.15625 968.75C927.25 968.75 906.21875 947.75 906.21875 921.90625L906.21875 791.40625C813.1875 921.5625 663.4999999999999 1000 499.9687499999999 1000C224.28125 1000 0 775.71875 0 500.0312500000001C0 224.3437500000001 224.28125 0 499.9687499999999 0C703.21875 0 884.65625 121.4375000000001 962.28125 309.2812500000001C967.2499999999998 321.2500000000001 966.8437499999998 334.09375 962.28125 345.09375C957.71875 356.2187500000001 948.8749999999998 365.5625 936.8437499999998 370.53125C924.9687499999998 375.4375 912.09375 375.09375 901.0312499999998 370.46875C889.9687499999999 365.9062500000001 880.5625 357.0625 875.59375 345.09375C812.5625 192.4375000000001 665.1562499999999 93.8125 499.9687499999999 93.8125C275.96875 93.8125 93.71875 276.0625 93.71875 500.0625000000001C93.71875 724.0625 275.96875 906.3125 499.9687499999999 906.3125C640.1875 906.3125 767.7812499999999 835.25 842.1562499999999 718.8125L703.09375 718.8125C677.25 718.8125 656.25 697.8125 656.25 671.875C656.25 646.03125 677.25 625.03125 703.09375 625.03125L953.15625 625.03125C978.9999999999998 625.03125 1000 646.03125 1000 671.875L1000 921.9375C1000 947.78125 978.9999999999998 968.78125 953.15625 968.78125L953.15625 968.75z" />
    <glyph glyph-name="code"
      unicode="&#xF10B;"
      horiz-adv-x="1000" d="M35 535L275 775L345 704L142 500L345.5 296.5L275 225.5L0 500L35 535zM965 465L1000 499.9999999999999L725.5 774.4999999999999L655.5 703.5L858 500L654.5 296.5L725 225.5L964 464.5z" />
    <glyph glyph-name="code-1"
      unicode="&#x63;&#x6F;&#x64;&#x65;"
      horiz-adv-x="1000" d="M35 535L275 775L345 704L142 500L345.5 296.5L275 225.5L0 500L35 535zM965 465L1000 499.9999999999999L725.5 774.4999999999999L655.5 703.5L858 500L654.5 296.5L725 225.5L964 464.5z" />
    <glyph glyph-name="edit"
      unicode="&#xF10C;"
      horiz-adv-x="1000" d="M615 815L815 615L200 0H0V200L615 815zM685 885L800 1000L1000 800L885 685L685 885z" />
    <glyph glyph-name="edit-1"
      unicode="&#x65;&#x64;&#x69;&#x74;"
      horiz-adv-x="1000" d="M615 815L815 615L200 0H0V200L615 815zM685 885L800 1000L1000 800L885 685L685 885z" />
    <glyph glyph-name="jsfiddle"
      unicode="&#xF10D;"
      horiz-adv-x="1000" d="M812.25 551.6875C809.65625 696.15625 691.9375 812.5 546.875 812.5C438.3125 812.5 345.09375 747.28125 303.90625 653.96875C296.53125 655.3125 289 656.25 281.25 656.25C214.375 656.25 160.25 603.625 156.875 537.59375C100.53125 505.25 62.5 444.625 62.5 375C62.5 271.4375 146.4375 187.5 250 187.5H750C853.5625 187.5 937.5 271.4375 937.5 375C937.5 456.6875 885.15625 526 812.25 551.6875zM652.78125 281.25C592.9687499999999 281.25 535.78125 332.6875 480.46875 382.375C433.21875 424.84375 384.375 468.75 347.21875 468.75C310.21875 468.75 281.25 441.28125 281.25 406.25C281.25 372.375 311.46875 343.75 347.21875 343.75C378.0312500000001 343.75 405.90625 356.59375 432.4375000000001 383.0625L476.5625 338.8125C438.25 300.59375 394.75 281.25 347.21875 281.25C276.375 281.25 218.75 337.3125 218.75 406.25S276.375 531.25 347.21875 531.25C408.34375 531.25 466.2500000000001 479.1875 522.21875 428.875C568.7812499999999 387.03125 616.90625 343.75 652.7499999999999 343.75C689.15625 343.75 718.75 371.78125 718.75 406.25C718.75 441.28125 689.78125 468.75 652.78125 468.75C610.4375 468.75 572.71875 440.53125 562.875 430.625L518.625 474.75C520.90625 477.09375 575.84375 531.25 652.78125 531.25C723.625 531.25 781.25 475.1875 781.25 406.25S723.625 281.25 652.78125 281.25z" />
    <glyph glyph-name="jsfiddle-1"
      unicode="&#x6A;&#x73;&#x66;&#x69;&#x64;&#x64;&#x6C;&#x65;"
      horiz-adv-x="1000" d="M812.25 551.6875C809.65625 696.15625 691.9375 812.5 546.875 812.5C438.3125 812.5 345.09375 747.28125 303.90625 653.96875C296.53125 655.3125 289 656.25 281.25 656.25C214.375 656.25 160.25 603.625 156.875 537.59375C100.53125 505.25 62.5 444.625 62.5 375C62.5 271.4375 146.4375 187.5 250 187.5H750C853.5625 187.5 937.5 271.4375 937.5 375C937.5 456.6875 885.15625 526 812.25 551.6875zM652.78125 281.25C592.9687499999999 281.25 535.78125 332.6875 480.46875 382.375C433.21875 424.84375 384.375 468.75 347.21875 468.75C310.21875 468.75 281.25 441.28125 281.25 406.25C281.25 372.375 311.46875 343.75 347.21875 343.75C378.0312500000001 343.75 405.90625 356.59375 432.4375000000001 383.0625L476.5625 338.8125C438.25 300.59375 394.75 281.25 347.21875 281.25C276.375 281.25 218.75 337.3125 218.75 406.25S276.375 531.25 347.21875 531.25C408.34375 531.25 466.2500000000001 479.1875 522.21875 428.875C568.7812499999999 387.03125 616.90625 343.75 652.7499999999999 343.75C689.15625 343.75 718.75 371.78125 718.75 406.25C718.75 441.28125 689.78125 468.75 652.78125 468.75C610.4375 468.75 572.71875 440.53125 562.875 430.625L518.625 474.75C520.90625 477.09375 575.84375 531.25 652.78125 531.25C723.625 531.25 781.25 475.1875 781.25 406.25S723.625 281.25 652.78125 281.25z" />
    <glyph glyph-name="enabled"
      unicode="&#xF10E;"
      horiz-adv-x="1000" d="M499.21875 0C223.5 0 0 223.5 0 499.2187500000001C0 703.90625 123.15625 879.7812500000001 299.375 956.875C309.125 961.125 313.8125 859.78125 299.1250000000001 851.375C176.75 781.71875 94.25 650.09375 94.25 499.2187500000001C94.25 275.5625 275.5625000000001 94.25 499.2187500000001 94.25S904.1875 275.5625 904.1875 499.2187500000001C904.1875 650.78125 820.9062500000001 782.9375 697.59375 852.375L701.375 955.8125C876.34375 878.1875 998.4062499999998 702.9687500000001 998.4062499999998 499.2187500000001C998.4062499999998 223.5 774.9062499999999 0 499.1874999999999 0zM528.9375 555.25L496.1874999999999 553.75C478.0624999999999 552.9375 463.4374999999999 566.9375 463.4374999999999 585.09375L464.3749999999999 965.71875C464.4374999999999 983.84375 479.1562499999999 999.21875 497.2812499999999 1000.0625L497.4687499999999 999.96875L523.3749999999999 1000.03125L549.8749999999999 991.4375L562.7187499999999 970.28125L561.7812499999999 589.625C561.7812499999999 571.5 547.0624999999999 556.1250000000001 528.9375 555.28125z" />
    <glyph glyph-name="enabled-1"
      unicode="&#x65;&#x6E;&#x61;&#x62;&#x6C;&#x65;&#x64;"
      horiz-adv-x="1000" d="M499.21875 0C223.5 0 0 223.5 0 499.2187500000001C0 703.90625 123.15625 879.7812500000001 299.375 956.875C309.125 961.125 313.8125 859.78125 299.1250000000001 851.375C176.75 781.71875 94.25 650.09375 94.25 499.2187500000001C94.25 275.5625 275.5625000000001 94.25 499.2187500000001 94.25S904.1875 275.5625 904.1875 499.2187500000001C904.1875 650.78125 820.9062500000001 782.9375 697.59375 852.375L701.375 955.8125C876.34375 878.1875 998.4062499999998 702.9687500000001 998.4062499999998 499.2187500000001C998.4062499999998 223.5 774.9062499999999 0 499.1874999999999 0zM528.9375 555.25L496.1874999999999 553.75C478.0624999999999 552.9375 463.4374999999999 566.9375 463.4374999999999 585.09375L464.3749999999999 965.71875C464.4374999999999 983.84375 479.1562499999999 999.21875 497.2812499999999 1000.0625L497.4687499999999 999.96875L523.3749999999999 1000.03125L549.8749999999999 991.4375L562.7187499999999 970.28125L561.7812499999999 589.625C561.7812499999999 571.5 547.0624999999999 556.1250000000001 528.9375 555.28125z" />
    <glyph glyph-name="angle-down"
      unicode="&#xF10F;"
      horiz-adv-x="1000" d="M250 583.3333333333334L500 333.3333333333334L750 583.3333333333334L691.25 642.0833333333334L500.4166666666666 451.25L309.5833333333333 642.0833333333334z" />
    <glyph glyph-name="angle-down-1"
      unicode="&#x61;&#x6E;&#x67;&#x6C;&#x65;&#x2D;&#x64;&#x6F;&#x77;&#x6E;"
      horiz-adv-x="1000" d="M250 583.3333333333334L500 333.3333333333335L750 583.3333333333334L691.25 642.0833333333334L500.4166666666666 451.25L309.5833333333333 642.0833333333334z" />
    <glyph glyph-name="keyboard-arrow-up"
      unicode="&#xF110;"
      horiz-adv-x="1000" d="M500 529.2916666666667L323.2083333333333 352.5000000000001L264.2916666666674 411.4583333333334L441.0833333333341 588.25L500 647.1666666666665L558.9166666666666 588.2499999999999L735.7083333333326 411.4583333333334L676.7916666666658 352.5416666666668z" />
    <glyph glyph-name="keyboard-arrow-up-1"
      unicode="&#x6B;&#x65;&#x79;&#x62;&#x6F;&#x61;&#x72;&#x64;&#x2D;&#x61;&#x72;&#x72;&#x6F;&#x77;&#x2D;&#x75;&#x70;"
      horiz-adv-x="1000" d="M500 529.2916666666667L323.2083333333333 352.5000000000001L264.2916666666674 411.4583333333335L441.0833333333341 588.25L500 647.1666666666665L558.9166666666666 588.2499999999999L735.7083333333326 411.4583333333335L676.7916666666658 352.5416666666668z" />
    <glyph glyph-name="search"
      unicode="&#xF111;"
      horiz-adv-x="1000" d="M943.5625 148.1875L771.59375 320.625C818.78125 386.71875 846.90625 467.4375000000001 846.90625 554.78125C846.90625 777.4375 666.2812499999999 958.53125 444.1875 958.53125C222.0625 958.53125 41.40625 777.4375 41.40625 554.78125C41.40625 332.0937500000001 222.03125 151.0312500000001 444.1875 151.0312500000001C530.75 151.0312500000001 610.8125 178.8125 676.5625 225.5625000000001L848.71875 52.9375000000001C861.75 39.90625 889.21875 37.1250000000001 902.2812499999998 50.2187500000001L949.71875 97.7500000000001C962.75 110.9375000000001 956.625 134.9687500000001 943.5312499999998 148.1562500000001V148.1562500000001zM108.46875 554.78125C108.46875 740.3125 259.03125 891.21875 444.0625 891.21875S779.71875 740.3125 779.71875 554.78125C779.71875 369.25 629.125 218.3125 444.0625 218.3125S108.46875 369.28125 108.46875 554.78125V554.78125z" />
    <glyph glyph-name="search-1"
      unicode="&#x73;&#x65;&#x61;&#x72;&#x63;&#x68;"
      horiz-adv-x="1000" d="M943.5625 148.1875L771.59375 320.625C818.78125 386.71875 846.90625 467.4375000000001 846.90625 554.78125C846.90625 777.4375 666.2812499999999 958.53125 444.1875 958.53125C222.0625 958.53125 41.40625 777.4375 41.40625 554.78125C41.40625 332.0937500000001 222.03125 151.0312500000001 444.1875 151.0312500000001C530.75 151.0312500000001 610.8125 178.8125 676.5625 225.5625000000001L848.71875 52.9375000000001C861.75 39.90625 889.21875 37.1250000000001 902.2812499999998 50.2187500000001L949.71875 97.7500000000001C962.75 110.9375000000001 956.625 134.9687500000001 943.5312499999998 148.1562500000001V148.1562500000001zM108.46875 554.78125C108.46875 740.3125 259.03125 891.21875 444.0625 891.21875S779.71875 740.3125 779.71875 554.78125C779.71875 369.25 629.125 218.3125 444.0625 218.3125S108.46875 369.28125 108.46875 554.78125V554.78125z" />
    <glyph glyph-name="arrow-up"
      unicode="&#xF112;"
      horiz-adv-x="1000" d="M500 666.6666666666667L200 333.3333333333334L799.9999999999999 333.3333333333334z" />
    <glyph glyph-name="arrow-up-1"
      unicode="&#x61;&#x72;&#x72;&#x6F;&#x77;&#x2D;&#x75;&#x70;"
      horiz-adv-x="1000" d="M500 666.6666666666667L200 333.3333333333335L799.9999999999999 333.3333333333335z" />
    <glyph glyph-name="arrow-down-1"
      unicode="&#xF113;"
      horiz-adv-x="750" d="M500 416.65625V1000H250V416.65625H0L375 0L750 416.65625H500z" />
    <glyph glyph-name="arrow-down-1-1"
      unicode="&#x61;&#x72;&#x72;&#x6F;&#x77;&#x2D;&#x64;&#x6F;&#x77;&#x6E;&#x2D;&#x31;"
      horiz-adv-x="750" d="M500 416.65625V1000H250V416.65625H0L375 0L750 416.65625H500z" />
    <glyph glyph-name="create"
      unicode="&#xF114;"
      horiz-adv-x="1000" d="M0 562.5H1000V437.5H0V562.5zM437.5 1000H562.5V0H437.5V1000z" />
    <glyph glyph-name="create-1"
      unicode="&#x63;&#x72;&#x65;&#x61;&#x74;&#x65;"
      horiz-adv-x="1000" d="M0 562.5H1000V437.5H0V562.5zM437.5 1000H562.5V0H437.5V1000z" />
    <glyph glyph-name="unpaid"
      unicode="&#xF115;"
      horiz-adv-x="1000" d="M500 0A500 500 0 1 0 1000 500A500 500 0 0 0 500 0zM500 916.6666666666666A416.6666666666667 416.6666666666667 0 1 1 916.6666666666666 500A416.6666666666667 416.6666666666667 0 0 1 500 916.6666666666666zM541.6666666666666 581.8333333333334V541.6666666666667H666.6666666666666V458.3333333333334H541.6666666666666V375H666.6666666666666V291.6666666666668H541.6666666666666V208.3333333333334H458.3333333333333V291.6666666666668H333.3333333333333V375H458.3333333333333V458.3333333333334H333.3333333333333V541.6666666666667H458.3333333333333V581.8333333333334L440.0416666666667 563.5416666666667L292.7083333333333 710.875L351.625 769.7916666666666L498.9583333333333 622.4583333333334L459.8333333333333 583.3333333333334H540.2083333333333L501.0833333333333 622.4583333333334L648.4166666666666 769.7916666666666L707.3333333333333 710.875L560.0416666666666 563.5833333333334z" />
    <glyph glyph-name="unpaid-1"
      unicode="&#x75;&#x6E;&#x70;&#x61;&#x69;&#x64;"
      horiz-adv-x="1000" d="M500 0A500 500 0 1 0 1000 500A500 500 0 0 0 500 0zM500 916.6666666666666A416.6666666666667 416.6666666666667 0 1 1 916.6666666666666 500A416.6666666666667 416.6666666666667 0 0 1 500 916.6666666666666zM541.6666666666666 581.8333333333334V541.6666666666667H666.6666666666666V458.3333333333334H541.6666666666666V375H666.6666666666666V291.6666666666668H541.6666666666666V208.3333333333334H458.3333333333333V291.6666666666668H333.3333333333333V375H458.3333333333333V458.3333333333334H333.3333333333333V541.6666666666667H458.3333333333333V581.8333333333334L440.0416666666667 563.5416666666667L292.7083333333333 710.875L351.625 769.7916666666666L498.9583333333333 622.4583333333334L459.8333333333333 583.3333333333334H540.2083333333333L501.0833333333333 622.4583333333334L648.4166666666666 769.7916666666666L707.3333333333333 710.875L560.0416666666666 563.5833333333334z" />
    <glyph glyph-name="expire"
      unicode="&#xF116;"
      horiz-adv-x="1000" d="M500 0A500 500 0 1 0 1000 500A500 500 0 0 0 500 0zM500 906.25A406.25 406.25 0 1 1 906.25 500A406.25 406.25 0 0 1 500 906.25zM750 437.5H468.75A31.25 31.25 0 0 0 437.5 468.75V750A31.25 31.25 0 0 0 468.75 781.25H500A31.25 31.25 0 0 0 531.25 750V531.25H750A31.25 31.25 0 0 0 781.25 500V468.75A31.25 31.25 0 0 0 750 437.5z" />
    <glyph glyph-name="expire-1"
      unicode="&#x65;&#x78;&#x70;&#x69;&#x72;&#x65;"
      horiz-adv-x="1000" d="M500 0A500 500 0 1 0 1000 500A500 500 0 0 0 500 0zM500 906.25A406.25 406.25 0 1 1 906.25 500A406.25 406.25 0 0 1 500 906.25zM750 437.5H468.75A31.25 31.25 0 0 0 437.5 468.75V750A31.25 31.25 0 0 0 468.75 781.25H500A31.25 31.25 0 0 0 531.25 750V531.25H750A31.25 31.25 0 0 0 781.25 500V468.75A31.25 31.25 0 0 0 750 437.5z" />
    <glyph glyph-name="angle-up"
      unicode="&#xF117;"
      horiz-adv-x="1000" d="M900 75H100A50 50 0 0 0 50 125V875A50 50 0 0 0 100 925H900A50 50 0 0 0 950 875V125A50 50 0 0 0 900 75zM900 875H100V125H900V875zM300 375H700L500 625z" />
    <glyph glyph-name="angle-up-1"
      unicode="&#x61;&#x6E;&#x67;&#x6C;&#x65;&#x2D;&#x75;&#x70;"
      horiz-adv-x="1000" d="M900 75H100A50 50 0 0 0 50 125V875A50 50 0 0 0 100 925H900A50 50 0 0 0 950 875V125A50 50 0 0 0 900 75zM900 875H100V125H900V875zM300 375H700L500 625z" />
    <glyph glyph-name="github"
      unicode="&#xF118;"
      horiz-adv-x="968.75" d="M324.0234375 223.828125C324.0234375 219.921875 319.53125 216.796875 313.8671875000001 216.796875C307.421875 216.2109375 302.9296875000001 219.3359375 302.9296875000001 223.828125C302.9296875000001 227.734375 307.4218750000001 230.8593750000001 313.0859375 230.8593750000001C318.9453125 231.4453125000001 324.0234375 228.3203125000001 324.0234375 223.828125zM263.28125 232.6171875C261.9140625000001 228.7109375 265.8203125000001 224.21875 271.6796875000001 223.0468750000001C276.7578125000001 221.0937500000001 282.6171875000001 223.0468750000001 283.7890625 226.9531250000001S281.25 235.3515625000001 275.390625 237.1093750000001C270.3125 238.4765625 264.6484375 236.5234375 263.28125 232.6171875zM349.609375 235.9375C343.9453125 234.5703125 340.0390625 230.859375 340.625 226.3671875000001C341.2109375000001 222.4609375000001 346.2890625 219.921875 352.1484375 221.2890625C357.8125000000001 222.65625 361.7187500000001 226.3671875000001 361.1328125 230.2734375000001C360.546875 233.984375 355.2734375 236.5234375 349.609375 235.9375zM478.125 984.375C207.2265625 984.375 0 778.7109375 0 507.8125C0 291.2109375 136.328125 105.859375 331.0546875 40.625C356.0546875 36.1328125 364.84375 51.5625000000001 364.84375 64.2578125000001C364.84375 76.3671875 364.2578125 143.1640625 364.2578125 184.1796875C364.2578125 184.1796875 227.5390625 154.8828125 198.828125 242.3828125C198.828125 242.3828125 176.5625 299.2187500000001 144.53125 313.8671875000001C144.53125 313.8671875000001 99.8046875 344.5312500000001 147.65625 343.9453125C147.65625 343.9453125 196.2890625 340.0390625 223.046875 293.5546875C265.8203125 218.1640625 337.5 239.84375 365.4296875 252.7343750000001C369.921875 283.9843750000001 382.6171875 305.6640625000001 396.6796875 318.5546875C287.5 330.6640625 177.34375 346.4843750000001 177.34375 534.375C177.34375 588.0859375 192.1875 615.0390625 223.4375 649.4140625C218.359375 662.109375 201.7578125 714.453125 228.515625 782.03125C269.3359375 794.7265625 363.28125 729.296875 363.28125 729.296875C402.34375 740.234375 444.3359375 745.8984375 485.9375 745.8984375S569.53125 740.234375 608.59375 729.296875C608.59375 729.296875 702.5390625000001 794.921875 743.359375 782.03125C770.1171875 714.2578125000001 753.515625 662.109375 748.4375000000001 649.4140625C779.6875000000001 614.84375 798.8281250000001 587.890625 798.8281250000001 534.375C798.8281250000001 345.8984375 683.7890625000001 330.8593750000001 574.6093750000001 318.5546875C592.5781250000001 303.1250000000001 607.8125000000001 273.8281250000001 607.8125000000001 227.9296875000001C607.8125000000001 162.1093750000001 607.2265625000001 80.6640625000001 607.2265625000001 64.6484375C607.2265625000001 51.953125 616.2109375000001 36.5234375000001 641.0156250000001 41.015625C836.328125 105.859375 968.75 291.2109375 968.75 507.8125C968.75 778.7109375 749.0234375 984.375 478.125 984.375zM189.84375 310.7421875C187.3046875 308.7890625 187.890625 304.296875 191.2109375 300.5859375000001C194.3359375 297.4609375 198.828125 296.09375 201.3671875 298.6328125000001C203.90625 300.5859375000001 203.3203125 305.0781250000001 200 308.7890625C196.875 311.9140625000001 192.3828125 313.2812500000001 189.84375 310.7421875zM168.75 326.5625000000001C167.3828125 324.0234375000001 169.3359375 320.8984375000001 173.2421875 318.9453125000001C176.3671875 316.9921875000001 180.2734375 317.5781250000001 181.640625 320.3125000000001C183.0078125 322.8515625000001 181.0546875 325.9765625000001 177.1484375 327.9296875000001C173.2421875 329.1015625000001 170.1171875 328.5156250000001 168.75 326.5625000000001zM232.0312500000001 257.03125C228.9062500000001 254.4921875 230.0781250000001 248.6328125 234.5703125000001 244.9218750000001C239.0625 240.4296875 244.7265625000001 239.84375 247.2656250000001 242.9687500000001C249.8046875 245.5078125000001 248.6328125000001 251.3671875000001 244.7265625000001 255.078125C240.4296875000001 259.5703125000001 234.5703125000001 260.1562500000001 232.0312500000001 257.03125zM209.765625 285.7421875C206.640625 283.7890625 206.640625 278.7109375 209.765625 274.2187500000001C212.890625 269.7265625 218.1640625 267.7734375 220.703125 269.7265625C223.828125 272.2656250000001 223.828125 277.34375 220.703125 281.8359375C217.96875 286.328125 212.890625 288.28125 209.765625 285.7421875z" />
    <glyph glyph-name="github-1"
      unicode="&#x67;&#x69;&#x74;&#x68;&#x75;&#x62;"
      horiz-adv-x="968.75" d="M324.0234375 223.828125C324.0234375 219.921875 319.53125 216.796875 313.8671875000001 216.796875C307.421875 216.2109375 302.9296875000001 219.3359375 302.9296875000001 223.828125C302.9296875000001 227.734375 307.4218750000001 230.8593750000001 313.0859375 230.8593750000001C318.9453125 231.4453125000001 324.0234375 228.3203125000001 324.0234375 223.828125zM263.28125 232.6171875C261.9140625000001 228.7109375 265.8203125000001 224.21875 271.6796875000001 223.0468750000001C276.7578125000001 221.0937500000001 282.6171875000001 223.0468750000001 283.7890625 226.9531250000001S281.25 235.3515625000001 275.390625 237.1093750000001C270.3125 238.4765625 264.6484375 236.5234375 263.28125 232.6171875zM349.609375 235.9375C343.9453125 234.5703125 340.0390625 230.859375 340.625 226.3671875000001C341.2109375000001 222.4609375000001 346.2890625 219.921875 352.1484375 221.2890625C357.8125000000001 222.65625 361.7187500000001 226.3671875000001 361.1328125 230.2734375000001C360.546875 233.984375 355.2734375 236.5234375 349.609375 235.9375zM478.125 984.375C207.2265625 984.375 0 778.7109375 0 507.8125C0 291.2109375 136.328125 105.859375 331.0546875 40.625C356.0546875 36.1328125 364.84375 51.5625000000001 364.84375 64.2578125000001C364.84375 76.3671875 364.2578125 143.1640625 364.2578125 184.1796875C364.2578125 184.1796875 227.5390625 154.8828125 198.828125 242.3828125C198.828125 242.3828125 176.5625 299.2187500000001 144.53125 313.8671875000001C144.53125 313.8671875000001 99.8046875 344.5312500000001 147.65625 343.9453125C147.65625 343.9453125 196.2890625 340.0390625 223.046875 293.5546875C265.8203125 218.1640625 337.5 239.84375 365.4296875 252.7343750000001C369.921875 283.9843750000001 382.6171875 305.6640625000001 396.6796875 318.5546875C287.5 330.6640625 177.34375 346.4843750000001 177.34375 534.375C177.34375 588.0859375 192.1875 615.0390625 223.4375 649.4140625C218.359375 662.109375 201.7578125 714.453125 228.515625 782.03125C269.3359375 794.7265625 363.28125 729.296875 363.28125 729.296875C402.34375 740.234375 444.3359375 745.8984375 485.9375 745.8984375S569.53125 740.234375 608.59375 729.296875C608.59375 729.296875 702.5390625000001 794.921875 743.359375 782.03125C770.1171875 714.2578125000001 753.515625 662.109375 748.4375000000001 649.4140625C779.6875000000001 614.84375 798.8281250000001 587.890625 798.8281250000001 534.375C798.8281250000001 345.8984375 683.7890625000001 330.8593750000001 574.6093750000001 318.5546875C592.5781250000001 303.1250000000001 607.8125000000001 273.8281250000001 607.8125000000001 227.9296875000001C607.8125000000001 162.1093750000001 607.2265625000001 80.6640625000001 607.2265625000001 64.6484375C607.2265625000001 51.953125 616.2109375000001 36.5234375000001 641.0156250000001 41.015625C836.328125 105.859375 968.75 291.2109375 968.75 507.8125C968.75 778.7109375 749.0234375 984.375 478.125 984.375zM189.84375 310.7421875C187.3046875 308.7890625 187.890625 304.296875 191.2109375 300.5859375000001C194.3359375 297.4609375 198.828125 296.09375 201.3671875 298.6328125000001C203.90625 300.5859375000001 203.3203125 305.0781250000001 200 308.7890625C196.875 311.9140625000001 192.3828125 313.2812500000001 189.84375 310.7421875zM168.75 326.5625000000001C167.3828125 324.0234375000001 169.3359375 320.8984375000001 173.2421875 318.9453125000001C176.3671875 316.9921875000001 180.2734375 317.5781250000001 181.640625 320.3125000000001C183.0078125 322.8515625000001 181.0546875 325.9765625000001 177.1484375 327.9296875000001C173.2421875 329.1015625000001 170.1171875 328.5156250000001 168.75 326.5625000000001zM232.0312500000001 257.03125C228.9062500000001 254.4921875 230.0781250000001 248.6328125 234.5703125000001 244.9218750000001C239.0625 240.4296875 244.7265625000001 239.84375 247.2656250000001 242.9687500000001C249.8046875 245.5078125000001 248.6328125000001 251.3671875000001 244.7265625000001 255.078125C240.4296875000001 259.5703125000001 234.5703125000001 260.1562500000001 232.0312500000001 257.03125zM209.765625 285.7421875C206.640625 283.7890625 206.640625 278.7109375 209.765625 274.2187500000001C212.890625 269.7265625 218.1640625 267.7734375 220.703125 269.7265625C223.828125 272.2656250000001 223.828125 277.34375 220.703125 281.8359375C217.96875 286.328125 212.890625 288.28125 209.765625 285.7421875z" />
    <glyph glyph-name="area"
      unicode="&#xF119;"
      horiz-adv-x="1000" d="M280.9583333333333 302.4166666666667L342.875 240.5C286.625 232.875 250 221.375 250 208.3333333333334C250 185.3333333333334 361.9166666666667 166.6666666666668 500 166.6666666666668C638.0833333333333 166.6666666666668 750 185.3333333333334 750 208.3333333333334C750 221.375 713.375 232.8333333333334 657.1666666666666 240.5L719.0833333333333 302.4166666666667C788.9583333333334 279.5 833.3333333333333 245.8333333333334 833.3333333333333 208.3333333333334C833.3333333333333 139.2916666666668 684.0833333333333 83.3333333333334 500 83.3333333333334C315.9166666666667 83.3333333333334 166.6666666666667 139.2916666666668 166.6666666666667 208.3333333333334C166.6666666666667 245.8333333333334 211.0416666666666 279.5 280.9583333333333 302.4166666666667L280.9583333333333 302.4166666666667zM657.4583333333333 380.125L500 222.625L342.5416666666667 380.0833333333334C233.5376116666667 449.9722791666667 183.6604873333333 583.3594875000001 220.0663145833333 707.6211658333334C256.4721416666667 831.8828441666667 370.4439895833334 917.266053125 499.9289258333333 917.2831852916667C629.4138624999999 917.3003174583334 743.4082999999999 831.9472708333333 779.8470083333333 707.6952304166666C816.2857166666668 583.44319 766.4438916666666 450.0427875000001 657.4583333333333 380.125L657.4583333333333 380.125zM500 833.3333333333334C406.2037433333333 833.6271308333334 323.8440958333333 771.0347595833333 299.0120245833334 680.5848158333333C274.1799529166667 590.1348720833333 313.03526 494.2642208333334 393.8333333333333 446.625L500 340.5000000000001L606.1666666666666 446.6666666666668C686.9212875 494.3234541666667 725.7424833333333 590.1683391666667 700.9154708333333 680.5901166666667C676.0884541666667 771.0118941666667 593.76785 833.5949987500001 500 833.3333333333334L500 833.3333333333334zM416.6666666666667 625A83.33333333333333 83.33333333333333 0 0 1 583.3333333333333 625A83.33333333333333 83.33333333333333 0 0 1 416.6666666666667 625" />
    <glyph glyph-name="area-1"
      unicode="&#x61;&#x72;&#x65;&#x61;"
      horiz-adv-x="1000" d="M280.9583333333333 302.4166666666667L342.875 240.5C286.625 232.875 250 221.375 250 208.3333333333334C250 185.3333333333334 361.9166666666667 166.6666666666668 500 166.6666666666668C638.0833333333333 166.6666666666668 750 185.3333333333334 750 208.3333333333334C750 221.375 713.375 232.8333333333334 657.1666666666666 240.5L719.0833333333333 302.4166666666667C788.9583333333334 279.5 833.3333333333333 245.8333333333334 833.3333333333333 208.3333333333334C833.3333333333333 139.2916666666668 684.0833333333333 83.3333333333334 500 83.3333333333334C315.9166666666667 83.3333333333334 166.6666666666667 139.2916666666668 166.6666666666667 208.3333333333334C166.6666666666667 245.8333333333334 211.0416666666666 279.5 280.9583333333333 302.4166666666667L280.9583333333333 302.4166666666667zM657.4583333333333 380.125L500 222.625L342.5416666666667 380.0833333333335C233.5376116666667 449.9722791666667 183.6604873333333 583.3594875000001 220.0663145833333 707.6211658333334C256.4721416666667 831.8828441666667 370.4439895833334 917.266053125 499.9289258333333 917.2831852916667C629.4138624999999 917.3003174583334 743.4082999999999 831.9472708333333 779.8470083333333 707.6952304166666C816.2857166666668 583.44319 766.4438916666666 450.0427875000001 657.4583333333333 380.125L657.4583333333333 380.125zM500 833.3333333333334C406.2037433333333 833.6271308333334 323.8440958333333 771.0347595833333 299.0120245833334 680.5848158333333C274.1799529166667 590.1348720833333 313.03526 494.2642208333334 393.8333333333333 446.625L500 340.5000000000001L606.1666666666666 446.6666666666668C686.9212875 494.3234541666667 725.7424833333333 590.1683391666667 700.9154708333333 680.5901166666667C676.0884541666667 771.0118941666667 593.76785 833.5949987500001 500 833.3333333333334L500 833.3333333333334zM416.6666666666667 625A83.33333333333333 83.33333333333333 0 0 1 583.3333333333333 625A83.33333333333333 83.33333333333333 0 0 1 416.6666666666667 625" />
    <glyph glyph-name="codepen"
      unicode="&#xF11A;"
      horiz-adv-x="1000" d="M500 911.1328125L482.421875 899.4140625L107.421875 648.4375L93.75 639.6484375L93.75 623.046875L93.75 376.953125L93.75 360.3515625L107.421875 351.5625L482.421875 100.5859375L500 88.8671875L517.578125 100.5859375L892.578125 351.5625L906.25 360.3515625L906.25 376.953125L906.25 623.046875L906.25 639.6484375L892.578125 648.4375L517.578125 899.4140625L500 911.1328125zM468.75 815.4296875L468.75 645.5078125L307.6171875 537.109375L181.640625 622.0703125L468.75 815.4296875zM531.25 815.4296875L818.359375 622.0703125L692.3828125 537.109375L531.25 645.5078125L531.25 815.4296875zM500 590.8203125L635.7421875 500L500 409.1796875L364.2578125 500L500 590.8203125zM156.25 564.453125L251.953125 500L156.25 435.546875L156.25 564.453125zM843.75 564.453125L843.75 435.546875L748.046875 500L843.75 564.453125zM308.59375 462.890625L468.75 354.4921875L468.75 184.5703125L181.640625 377.9296875L308.59375 462.890625zM691.40625 462.890625L818.359375 377.9296875L531.25 184.5703125L531.25 354.4921875L691.40625 462.890625z" />
    <glyph glyph-name="codepen-1"
      unicode="&#x63;&#x6F;&#x64;&#x65;&#x70;&#x65;&#x6E;"
      horiz-adv-x="1000" d="M500 911.1328125L482.421875 899.4140625L107.421875 648.4375L93.75 639.6484375L93.75 623.046875L93.75 376.953125L93.75 360.3515625L107.421875 351.5625L482.421875 100.5859375L500 88.8671875L517.578125 100.5859375L892.578125 351.5625L906.25 360.3515625L906.25 376.953125L906.25 623.046875L906.25 639.6484375L892.578125 648.4375L517.578125 899.4140625L500 911.1328125zM468.75 815.4296875L468.75 645.5078125L307.6171875 537.109375L181.640625 622.0703125L468.75 815.4296875zM531.25 815.4296875L818.359375 622.0703125L692.3828125 537.109375L531.25 645.5078125L531.25 815.4296875zM500 590.8203125L635.7421875 500L500 409.1796875L364.2578125 500L500 590.8203125zM156.25 564.453125L251.953125 500L156.25 435.546875L156.25 564.453125zM843.75 564.453125L843.75 435.546875L748.046875 500L843.75 564.453125zM308.59375 462.890625L468.75 354.4921875L468.75 184.5703125L181.640625 377.9296875L308.59375 462.890625zM691.40625 462.890625L818.359375 377.9296875L531.25 184.5703125L531.25 354.4921875L691.40625 462.890625z" />
    <glyph glyph-name="close"
      unicode="&#xF11B;"
      horiz-adv-x="1000" d="M958.09375 97.4375L902.5624999999998 41.9062499999999L499.9999999999999 444.46875L97.4375 41.90625L41.90625 97.4375000000001L444.46875 500.0000000000001L41.90625 902.5625L97.4375 958.09375L500 555.53125L902.5624999999998 958.09375L958.09375 902.5625L555.53125 500L958.09375 97.4375000000001z" />
    <glyph glyph-name="close-1"
      unicode="&#x63;&#x6C;&#x6F;&#x73;&#x65;"
      horiz-adv-x="1000" d="M958.09375 97.4375L902.5624999999998 41.9062499999999L499.9999999999999 444.46875L97.4375 41.90625L41.90625 97.4375000000001L444.46875 500.0000000000001L41.90625 902.5625L97.4375 958.09375L500 555.53125L902.5624999999998 958.09375L958.09375 902.5625L555.53125 500L958.09375 97.4375000000001z" />
    <glyph glyph-name="angle-right"
      unicode="&#xF11C;"
      horiz-adv-x="1000" d="M250 846.1666666666664V151.7499999999998A64.24999999999999 64.24999999999999 0 0 1 307.5833333333333 82.2499999999998A52.5 52.5 0 0 1 346.0833333333333 100.0833333333332L727.0833333333333 443.4999999999998A79.08333333333331 79.08333333333331 0 0 1 738.5 540.4166666666665A56.74999999999999 56.74999999999999 0 0 1 727.0833333333333 554.1666666666665L341.9999999999999 901.4999999999998A51.416666666666664 51.416666666666664 0 0 1 261.5833333333333 887.5833333333331A77.25 77.25 0 0 1 249.9999999999999 845.9166666666665H249.9999999999999zM250 846.1666666666664" />
    <glyph glyph-name="angle-right-1"
      unicode="&#x61;&#x6E;&#x67;&#x6C;&#x65;&#x2D;&#x72;&#x69;&#x67;&#x68;&#x74;"
      horiz-adv-x="1000" d="M250 846.1666666666664V151.7499999999998A64.24999999999999 64.24999999999999 0 0 1 307.5833333333333 82.2499999999998A52.5 52.5 0 0 1 346.0833333333333 100.0833333333332L727.0833333333333 443.4999999999998A79.08333333333331 79.08333333333331 0 0 1 738.5 540.4166666666665A56.74999999999999 56.74999999999999 0 0 1 727.0833333333333 554.1666666666665L341.9999999999999 901.4999999999998A51.416666666666664 51.416666666666664 0 0 1 261.5833333333333 887.5833333333331A77.25 77.25 0 0 1 249.9999999999999 845.9166666666665H249.9999999999999zM250 846.1666666666664" />
    <glyph glyph-name="chart-refresh"
      unicode="&#xF11D;"
      horiz-adv-x="1000" d="M500.4966749999999 108.13204375C333.230759375 108.13204375 180.1205146875 222.10601875 119.932888125 394.602246875C109.0298984375 367.9823 96.5395996875 335.7937593750001 85.8447815625 308.028865625C74.655555625 279.0149437500001 64.819445625 253.5659593750001 59.06870375 240.5031875L11.26729021875 261.3723968750001C16.80986021875 274.0448437500001 26.359734375 298.73920625 37.1586384375 326.81635625C54.8011853125 372.4840093750001 74.785663125 424.240684375 88.4729484375 453.1505218750001C96.097235 469.127696875 111.059571875 478.5474625000001 126.099973125 476.934134375C135.49371875 476.049403125 152.355621875 470.4547906250001 159.71969375 442.846025C208.3017509375 259.082509375 380.22550625 136.8076875000001 551.10840625 164.312365625C678.405365625 184.817275 781.24215625 278.3904281250001 819.5197187499999 408.4977062500001L869.5589781250001 393.847625C825.6347593749999 244.22425625 706.7947718749999 136.547475 559.4092499999999 112.8679500000001C539.6329437500001 109.641290625 519.934703125 108.13204375 500.4966749999999 108.13204375L500.4966749999999 108.13204375zM864.12049375 545.006259375C863.0796343750001 545.006259375 862.09081875 545.058303125 860.9979187499999 545.162390625C851.604171875 546.04711875 834.74226875 551.64173125 827.4562625000001 579.17243125C779.1864625000001 761.6869203125 607.80915625 882.9469025 436.197659375 855.2600740625C308.7185475 834.65108125 205.5434765625 741.338141875 166.9016153125 611.8553796875L116.8883778125 626.7396521875C161.2029165625 775.6344203125 280.35516125 882.92088125 427.81875 906.78255584375C617.150859375 937.644002 800.2898625 818.6739075 867.191025 627.3121240625001C874.138753125 644.0178984375 881.63293125 662.9094753125 889.153134375 681.6449231250001C906.171165625 724.1900028125 922.30446875 764.36713 932.0885343750002 781.697419375L977.44393125 755.8581140625C969.351259375 741.6764209375 952.4373125 699.44359875 937.5790625 662.2849603125001C923.319303125 626.63556625 908.825353125 590.46574375 898.494834375 568.867934375C891.54710625 554.0877499999999 878.25014375 545.006259375 864.094471875 545.006259375L864.12049375 545.006259375z" />
    <glyph glyph-name="chart-refresh-1"
      unicode="&#x63;&#x68;&#x61;&#x72;&#x74;&#x2D;&#x72;&#x65;&#x66;&#x72;&#x65;&#x73;&#x68;"
      horiz-adv-x="1000" d="M500.4966749999999 108.13204375C333.230759375 108.13204375 180.1205146875 222.10601875 119.932888125 394.602246875C109.0298984375 367.9823 96.5395996875 335.7937593750001 85.8447815625 308.028865625C74.655555625 279.0149437500001 64.819445625 253.5659593750001 59.06870375 240.5031875L11.26729021875 261.3723968750001C16.80986021875 274.0448437500001 26.359734375 298.73920625 37.1586384375 326.81635625C54.8011853125 372.4840093750001 74.785663125 424.240684375 88.4729484375 453.1505218750001C96.097235 469.127696875 111.059571875 478.5474625000001 126.099973125 476.934134375C135.49371875 476.049403125 152.355621875 470.4547906250001 159.71969375 442.846025C208.3017509375 259.082509375 380.22550625 136.8076875000001 551.10840625 164.312365625C678.405365625 184.817275 781.24215625 278.3904281250001 819.5197187499999 408.4977062500001L869.5589781250001 393.847625C825.6347593749999 244.22425625 706.7947718749999 136.547475 559.4092499999999 112.8679500000001C539.6329437500001 109.641290625 519.934703125 108.13204375 500.4966749999999 108.13204375L500.4966749999999 108.13204375zM864.12049375 545.006259375C863.0796343750001 545.006259375 862.09081875 545.058303125 860.9979187499999 545.162390625C851.604171875 546.04711875 834.74226875 551.64173125 827.4562625000001 579.17243125C779.1864625000001 761.6869203125 607.80915625 882.9469025 436.197659375 855.2600740625C308.7185475 834.65108125 205.5434765625 741.338141875 166.9016153125 611.8553796875L116.8883778125 626.7396521875C161.2029165625 775.6344203125 280.35516125 882.92088125 427.81875 906.78255584375C617.150859375 937.644002 800.2898625 818.6739075 867.191025 627.3121240625001C874.138753125 644.0178984375 881.63293125 662.9094753125 889.153134375 681.6449231250001C906.171165625 724.1900028125 922.30446875 764.36713 932.0885343750002 781.697419375L977.44393125 755.8581140625C969.351259375 741.6764209375 952.4373125 699.44359875 937.5790625 662.2849603125001C923.319303125 626.63556625 908.825353125 590.46574375 898.494834375 568.867934375C891.54710625 554.0877499999999 878.25014375 545.006259375 864.094471875 545.006259375L864.12049375 545.006259375z" />
    <glyph glyph-name="error"
      unicode="&#xF11E;"
      horiz-adv-x="1000" d="M500 0.34375C224.0625 0.34375 0.34375 224.0624999999999 0.34375 500S224.0625 999.65625 500 999.65625C775.9375 999.65625 999.65625 775.9375 999.65625 500S775.9375000000001 0.34375 500 0.34375zM500 903.75C277 903.75 96.25 723 96.25 500C96.25 277.0312500000001 277 96.25 500 96.25C722.9687499999999 96.25 903.75 277.03125 903.75 500C903.75 723 722.96875 903.75 500 903.75zM676.25 323.75C656.75 304.3125 625.21875 304.3125 605.71875 323.75L500 429.5312499999999L394.28125 323.75C374.78125 304.3125 343.2500000000001 304.3125 323.7500000000001 323.75C304.3125000000001 343.25 304.3125000000001 374.78125 323.7500000000001 394.21875L429.5312500000001 500L323.7500000000001 605.71875C304.3125000000001 625.21875 304.3125000000001 656.75 323.7500000000001 676.1875C343.2500000000001 695.6875 374.7812500000001 695.6875 394.28125 676.1875L500 570.46875L605.71875 676.1875C625.2187499999999 695.6875 656.75 695.6875 676.25 676.1875C695.6875 656.75 695.6875 625.1875 676.25 605.71875L570.4687500000001 500L676.25 394.2187500000001C695.6875 374.7812500000001 695.6875 343.21875 676.25 323.7500000000001z" />
    <glyph glyph-name="error-1"
      unicode="&#x65;&#x72;&#x72;&#x6F;&#x72;"
      horiz-adv-x="1000" d="M500 0.34375C224.0625 0.34375 0.34375 224.0624999999999 0.34375 500S224.0625 999.65625 500 999.65625C775.9375 999.65625 999.65625 775.9375 999.65625 500S775.9375000000001 0.34375 500 0.34375zM500 903.75C277 903.75 96.25 723 96.25 500C96.25 277.0312500000001 277 96.25 500 96.25C722.9687499999999 96.25 903.75 277.03125 903.75 500C903.75 723 722.96875 903.75 500 903.75zM676.25 323.75C656.75 304.3125 625.21875 304.3125 605.71875 323.75L500 429.5312499999999L394.28125 323.75C374.78125 304.3125 343.2500000000001 304.3125 323.7500000000001 323.75C304.3125000000001 343.25 304.3125000000001 374.78125 323.7500000000001 394.21875L429.5312500000001 500L323.7500000000001 605.71875C304.3125000000001 625.21875 304.3125000000001 656.75 323.7500000000001 676.1875C343.2500000000001 695.6875 374.7812500000001 695.6875 394.28125 676.1875L500 570.46875L605.71875 676.1875C625.2187499999999 695.6875 656.75 695.6875 676.25 676.1875C695.6875 656.75 695.6875 625.1875 676.25 605.71875L570.4687500000001 500L676.25 394.2187500000001C695.6875 374.7812500000001 695.6875 343.21875 676.25 323.7500000000001z" />
    <glyph glyph-name="angle-up-1"
      unicode="&#xF11F;"
      horiz-adv-x="1000" d="M250 500L500 750L750 500L691.25 441.25L500.4166666666666 632.0833333333334L309.5833333333333 441.25z" />
    <glyph glyph-name="angle-up-1-1"
      unicode="&#x61;&#x6E;&#x67;&#x6C;&#x65;&#x2D;&#x75;&#x70;&#x2D;&#x31;"
      horiz-adv-x="1000" d="M250 500L500 750L750 500L691.25 441.25L500.4166666666666 632.0833333333334L309.5833333333333 441.25z" />
    <glyph glyph-name="angle-left"
      unicode="&#xF120;"
      horiz-adv-x="1000" d="M500 750L250 500L500 250L558.75 308.75L367.9166666666667 499.5833333333334L558.75 690.4166666666667z" />
    <glyph glyph-name="angle-left-1"
      unicode="&#x61;&#x6E;&#x67;&#x6C;&#x65;&#x2D;&#x6C;&#x65;&#x66;&#x74;"
      horiz-adv-x="1000" d="M500 750L250 500L500 250L558.75 308.75L367.9166666666667 499.5833333333334L558.75 690.4166666666667z" />
    <glyph glyph-name="spinner"
      unicode="&#xF121;"
      horiz-adv-x="1000" d="M593.75 906.25C593.75 854.47265625 551.77734375 812.5 500 812.5S406.25 854.47265625 406.25 906.25S448.22265625 1000 500 1000S593.75 958.02734375 593.75 906.25zM500 187.5C448.22265625 187.5 406.25 145.52734375 406.25 93.75S448.22265625 0 500 0S593.75 41.97265625 593.75 93.75S551.77734375 187.5 500 187.5zM906.25 593.75C854.47265625 593.75 812.5 551.77734375 812.5 500S854.47265625 406.25 906.25 406.25S1000 448.22265625 1000 500S958.02734375 593.75 906.25 593.75zM187.5 500C187.5 551.77734375 145.52734375 593.75 93.75 593.75S0 551.77734375 0 500S41.97265625 406.25 93.75 406.25S187.5 448.22265625 187.5 500zM212.73828125 306.48828125C160.9609375 306.48828125 118.98828125 264.515625 118.98828125 212.73828125S160.9609375 118.98828125 212.73828125 118.98828125S306.48828125 160.9609375000001 306.48828125 212.73828125C306.48828125 264.5136718750001 264.513671875 306.48828125 212.73828125 306.48828125zM787.26171875 306.48828125C735.484375 306.48828125 693.51171875 264.515625 693.51171875 212.73828125S735.484375 118.98828125 787.26171875 118.98828125S881.01171875 160.9609375000001 881.01171875 212.73828125C881.01171875 264.5136718750001 839.0390624999999 306.48828125 787.26171875 306.48828125zM212.73828125 881.01171875C160.9609375 881.01171875 118.98828125 839.0390625 118.98828125 787.26171875S160.9609375 693.51171875 212.73828125 693.51171875S306.48828125 735.484375 306.48828125 787.26171875S264.513671875 881.01171875 212.73828125 881.01171875z" />
    <glyph glyph-name="spinner-1"
      unicode="&#x73;&#x70;&#x69;&#x6E;&#x6E;&#x65;&#x72;"
      horiz-adv-x="1000" d="M593.75 906.25C593.75 854.47265625 551.77734375 812.5 500 812.5S406.25 854.47265625 406.25 906.25S448.22265625 1000 500 1000S593.75 958.02734375 593.75 906.25zM500 187.5C448.22265625 187.5 406.25 145.52734375 406.25 93.75S448.22265625 0 500 0S593.75 41.97265625 593.75 93.75S551.77734375 187.5 500 187.5zM906.25 593.75C854.47265625 593.75 812.5 551.77734375 812.5 500S854.47265625 406.25 906.25 406.25S1000 448.22265625 1000 500S958.02734375 593.75 906.25 593.75zM187.5 500C187.5 551.77734375 145.52734375 593.75 93.75 593.75S0 551.77734375 0 500S41.97265625 406.25 93.75 406.25S187.5 448.22265625 187.5 500zM212.73828125 306.48828125C160.9609375 306.48828125 118.98828125 264.515625 118.98828125 212.73828125S160.9609375 118.98828125 212.73828125 118.98828125S306.48828125 160.9609375000001 306.48828125 212.73828125C306.48828125 264.5136718750001 264.513671875 306.48828125 212.73828125 306.48828125zM787.26171875 306.48828125C735.484375 306.48828125 693.51171875 264.515625 693.51171875 212.73828125S735.484375 118.98828125 787.26171875 118.98828125S881.01171875 160.9609375000001 881.01171875 212.73828125C881.01171875 264.5136718750001 839.0390624999999 306.48828125 787.26171875 306.48828125zM212.73828125 881.01171875C160.9609375 881.01171875 118.98828125 839.0390625 118.98828125 787.26171875S160.9609375 693.51171875 212.73828125 693.51171875S306.48828125 735.484375 306.48828125 787.26171875S264.513671875 881.01171875 212.73828125 881.01171875z" />
    <glyph glyph-name="close-solid"
      unicode="&#xF122;"
      horiz-adv-x="1000" d="M146.5 146.5A500 500 0 1 0 853.5 853.5A500 500 0 0 0 146.5 146.5zM570 500L711.5 641.5L641 712L500 570.5L358.5 712L288 641.5L429.5 500L288 358.5L358.5 288L500 429.5L641.5 288L712 358.5L570.5 500z" />
    <glyph glyph-name="close-solid-1"
      unicode="&#x63;&#x6C;&#x6F;&#x73;&#x65;&#x2D;&#x73;&#x6F;&#x6C;&#x69;&#x64;"
      horiz-adv-x="1000" d="M146.5 146.5A500 500 0 1 0 853.5 853.5A500 500 0 0 0 146.5 146.5zM570 500L711.5 641.5L641 712L500 570.5L358.5 712L288 641.5L429.5 500L288 358.5L358.5 288L500 429.5L641.5 288L712 358.5L570.5 500z" />
    <glyph glyph-name="arrow-right"
      unicode="&#xF123;"
      horiz-adv-x="1000" d="M666.6666666666666 500L333.3333333333333 800L333.3333333333333 200.0000000000001z" />
    <glyph glyph-name="arrow-right-1"
      unicode="&#x61;&#x72;&#x72;&#x6F;&#x77;&#x2D;&#x72;&#x69;&#x67;&#x68;&#x74;"
      horiz-adv-x="1000" d="M666.6666666666666 500L333.3333333333333 800L333.3333333333333 200.0000000000001z" />
    <glyph glyph-name="disabled"
      unicode="&#xF124;"
      horiz-adv-x="1000" d="M500 0C223.875 0 0 223.875 0 500S223.875 1000 500 1000C776.125 1000 1000 776.125 1000 500S776.125 0 500 0zM90.90625 500C90.90625 274.03125 274.03125 90.90625 500 90.90625C596.59375 90.90625 685.1875000000001 124.59375 755.1875 180.5312499999999L180.5625 755.15625C124.59375 685.15625 90.9375 596.5625 90.9375 499.9687499999999zM500 909.09375C403.40625 909.09375 314.8125 875.40625 244.8125 819.46875L819.4375 244.84375C875.40625 314.8437500000001 909.0625 403.4375 909.0625 500.0312500000001C909.0625 726 725.875 909.125 499.96875 909.125z" />
    <glyph glyph-name="disabled-1"
      unicode="&#x64;&#x69;&#x73;&#x61;&#x62;&#x6C;&#x65;&#x64;"
      horiz-adv-x="1000" d="M500 0C223.875 0 0 223.875 0 500S223.875 1000 500 1000C776.125 1000 1000 776.125 1000 500S776.125 0 500 0zM90.90625 500C90.90625 274.03125 274.03125 90.90625 500 90.90625C596.59375 90.90625 685.1875000000001 124.59375 755.1875 180.5312499999999L180.5625 755.15625C124.59375 685.15625 90.9375 596.5625 90.9375 499.9687499999999zM500 909.09375C403.40625 909.09375 314.8125 875.40625 244.8125 819.46875L819.4375 244.84375C875.40625 314.8437500000001 909.0625 403.4375 909.0625 500.0312500000001C909.0625 726 725.875 909.125 499.96875 909.125z" />
    <glyph glyph-name="arrow-left"
      unicode="&#xF125;"
      horiz-adv-x="1000" d="M333.3333333333333 500L666.6666666666666 800L666.6666666666666 200.0000000000001z" />
    <glyph glyph-name="arrow-left-1"
      unicode="&#x61;&#x72;&#x72;&#x6F;&#x77;&#x2D;&#x6C;&#x65;&#x66;&#x74;"
      horiz-adv-x="1000" d="M333.3333333333333 500L666.6666666666666 800L666.6666666666666 200.0000000000001z" />
    <glyph glyph-name="info"
      unicode="&#xF126;"
      horiz-adv-x="1000" d="M500 49.46875C251.1875 49.46875 49.46875 251.1874999999999 49.46875 500S251.1875 950.53125 500 950.53125C748.8125 950.53125 950.53125 748.8125 950.53125 500S748.8125000000001 49.46875 500 49.46875zM564.34375 821.8125H435.6250000000001V693.09375H564.34375V821.8125zM564.34375 596.53125H435.6250000000001V178.1875H564.34375V596.53125z" />
    <glyph glyph-name="info-1"
      unicode="&#x69;&#x6E;&#x66;&#x6F;"
      horiz-adv-x="1000" d="M500 49.46875C251.1875 49.46875 49.46875 251.1874999999999 49.46875 500S251.1875 950.53125 500 950.53125C748.8125 950.53125 950.53125 748.8125 950.53125 500S748.8125000000001 49.46875 500 49.46875zM564.34375 821.8125H435.6250000000001V693.09375H564.34375V821.8125zM564.34375 596.53125H435.6250000000001V178.1875H564.34375V596.53125z" />
    <glyph glyph-name="success"
      unicode="&#xF127;"
      horiz-adv-x="1000" d="M500 0.0625C223.84375 0.0625 0 223.90625 0 500C0 776.15625 223.84375 1000 500 1000S1000 776.15625 1000 500C1000 223.90625 776.15625 0.0625000000001 500 0.0625000000001zM500 905.59375C276 905.59375 94.40625 724 94.40625 500S276 94.4375 500 94.4375C724 94.4375 905.59375 275.9999999999999 905.59375 500S724 905.59375 500 905.59375zM463.5 310.0625C450.3437500000001 297.5 429.0000000000001 297.5 415.84375 310.0625L407.75 317.8125C398.75 317.4687500000001 389.65625 320.3125 382.75 326.875L259.34375 442.0625C246.28125 454.5 246.28125 474.65625 259.34375 487.0625000000001L282.9375 509.5625000000001C296 522 317.125 522 330.1875 509.5625000000001L431.1250000000001 415.3125000000001L668.0625 641.0625000000001C681.21875 653.5625000000001 702.5 653.5625000000001 715.65625 641.0625000000001L739.46875 618.3750000000001C752.625 605.8125000000002 752.625 585.5312500000001 739.46875 573.0312500000001L463.46875 310.09375z" />
    <glyph glyph-name="success-1"
      unicode="&#x73;&#x75;&#x63;&#x63;&#x65;&#x73;&#x73;"
      horiz-adv-x="1000" d="M500 0.0625C223.84375 0.0625 0 223.90625 0 500C0 776.15625 223.84375 1000 500 1000S1000 776.15625 1000 500C1000 223.90625 776.15625 0.0625000000001 500 0.0625000000001zM500 905.59375C276 905.59375 94.40625 724 94.40625 500S276 94.4375 500 94.4375C724 94.4375 905.59375 275.9999999999999 905.59375 500S724 905.59375 500 905.59375zM463.5 310.0625C450.3437500000001 297.5 429.0000000000001 297.5 415.84375 310.0625L407.75 317.8125C398.75 317.4687500000001 389.65625 320.3125 382.75 326.875L259.34375 442.0625C246.28125 454.5 246.28125 474.65625 259.34375 487.0625000000001L282.9375 509.5625000000001C296 522 317.125 522 330.1875 509.5625000000001L431.1250000000001 415.3125000000001L668.0625 641.0625000000001C681.21875 653.5625000000001 702.5 653.5625000000001 715.65625 641.0625000000001L739.46875 618.3750000000001C752.625 605.8125000000002 752.625 585.5312500000001 739.46875 573.0312500000001L463.46875 310.09375z" />
    <glyph glyph-name="copy"
      unicode="&#xF128;"
      horiz-adv-x="1000" d="M125 875L125 843.75L125 281.25L125 250L156.25 250L343.75 250L343.75 312.5L187.5 312.5L187.5 812.5L562.5 812.5L562.5 781.25L625 781.25L625 843.75L625 875L593.75 875L156.25 875L125 875zM375 750L375 718.75L375 156.25L375 125L406.25 125L843.75 125L875 125L875 156.25L875 718.75L875 750L843.75 750L406.25 750L375 750zM437.5 687.5L812.5 687.5L812.5 187.5L437.5 187.5L437.5 687.5z" />
    <glyph glyph-name="copy-1"
      unicode="&#x63;&#x6F;&#x70;&#x79;"
      horiz-adv-x="1000" d="M125 875L125 843.75L125 281.25L125 250L156.25 250L343.75 250L343.75 312.5L187.5 312.5L187.5 812.5L562.5 812.5L562.5 781.25L625 781.25L625 843.75L625 875L593.75 875L156.25 875L125 875zM375 750L375 718.75L375 156.25L375 125L406.25 125L843.75 125L875 125L875 156.25L875 718.75L875 750L843.75 750L406.25 750L375 750zM437.5 687.5L812.5 687.5L812.5 187.5L437.5 187.5L437.5 687.5z" />
    <glyph glyph-name="warning"
      unicode="&#xF129;"
      horiz-adv-x="1000" d="M500 0.34375C224.0625 0.34375 0.34375 224.0624999999999 0.34375 500S224.0625 999.65625 500 999.65625C775.9375 999.65625 999.65625 775.9375 999.65625 500S775.9375000000001 0.34375 500 0.34375zM500 903.75C277 903.75 96.25 723 96.25 500C96.25 277.0312500000001 277 96.3125 500 96.3125C722.9687499999999 96.3125 903.75 277.0625 903.75 500C903.75 723 722.96875 903.75 500 903.75zM450.15625 300.625H549.84375V200.9375H450.15625V300.625zM500 400.3125C472.5 400.3125 450.15625 422.65625 450.15625 450.1562499999999V749.21875C450.15625 776.71875 472.5 799.0624999999999 500 799.0624999999999S549.84375 776.71875 549.84375 749.21875V450.1562499999999C549.84375 422.65625 527.5 400.3125 499.9999999999999 400.3125z" />
    <glyph glyph-name="warning-1"
      unicode="&#x77;&#x61;&#x72;&#x6E;&#x69;&#x6E;&#x67;"
      horiz-adv-x="1000" d="M500 0.34375C224.0625 0.34375 0.34375 224.0624999999999 0.34375 500S224.0625 999.65625 500 999.65625C775.9375 999.65625 999.65625 775.9375 999.65625 500S775.9375000000001 0.34375 500 0.34375zM500 903.75C277 903.75 96.25 723 96.25 500C96.25 277.0312500000001 277 96.3125 500 96.3125C722.9687499999999 96.3125 903.75 277.0625 903.75 500C903.75 723 722.96875 903.75 500 903.75zM450.15625 300.625H549.84375V200.9375H450.15625V300.625zM500 400.3125C472.5 400.3125 450.15625 422.65625 450.15625 450.1562499999999V749.21875C450.15625 776.71875 472.5 799.0624999999999 500 799.0624999999999S549.84375 776.71875 549.84375 749.21875V450.1562499999999C549.84375 422.65625 527.5 400.3125 499.9999999999999 400.3125z" />
    <glyph glyph-name="share"
      unicode="&#xF12A;"
      horiz-adv-x="1000" d="M254 392A149.50000000000003 149.50000000000003 0 0 0 0 500A150 150 0 0 0 254 608L701 831.5A150 150 0 1 0 746 742L299 518.5A151.49999999999997 151.49999999999997 0 0 0 299 481.5L746 258A149.50000000000003 149.50000000000003 0 0 0 1000 150A150 150 0 1 0 701 168.5L254 392z" />
    <glyph glyph-name="share-1"
      unicode="&#x73;&#x68;&#x61;&#x72;&#x65;"
      horiz-adv-x="1000" d="M254 392A149.50000000000003 149.50000000000003 0 0 0 0 500A150 150 0 0 0 254 608L701 831.5A150 150 0 1 0 746 742L299 518.5A151.49999999999997 151.49999999999997 0 0 0 299 481.5L746 258A149.50000000000003 149.50000000000003 0 0 0 1000 150A150 150 0 1 0 701 168.5L254 392z" />
    <glyph glyph-name="angle-down-1"
      unicode="&#xF12B;"
      horiz-adv-x="1000" d="M900 75H100A50 50 0 0 0 50 125V875A50 50 0 0 0 100 925H900A50 50 0 0 0 950 875V125A50 50 0 0 0 900 75zM900 875H100V125H900V875zM300 625H700L500 375z" />
    <glyph glyph-name="angle-down-1-1"
      unicode="&#x61;&#x6E;&#x67;&#x6C;&#x65;&#x2D;&#x64;&#x6F;&#x77;&#x6E;&#x2D;&#x31;"
      horiz-adv-x="1000" d="M900 75H100A50 50 0 0 0 50 125V875A50 50 0 0 0 100 925H900A50 50 0 0 0 950 875V125A50 50 0 0 0 900 75zM900 875H100V125H900V875zM300 625H700L500 375z" />
    <glyph glyph-name="log"
      unicode="&#xF12C;"
      horiz-adv-x="1000" d="M900 0H100A50 50 0 0 0 50 50V950A50 50 0 0 0 100 1000H900A50 50 0 0 0 950 950V50A50 50 0 0 0 900 0zM850 900H150V100H850V900zM350 650H250V750H350V650zM350 450H250V550H350V450zM350 250H250V350H350V250zM750 650H450V750H750V650zM750 450H450V550H750V450zM750 250H450V350H750V250z" />
    <glyph glyph-name="log-1"
      unicode="&#x6C;&#x6F;&#x67;"
      horiz-adv-x="1000" d="M900 0H100A50 50 0 0 0 50 50V950A50 50 0 0 0 100 1000H900A50 50 0 0 0 950 950V50A50 50 0 0 0 900 0zM850 900H150V100H850V900zM350 650H250V750H350V650zM350 450H250V550H350V450zM350 250H250V350H350V250zM750 650H450V750H750V650zM750 450H450V550H750V450zM750 250H450V350H750V250z" />
    <glyph glyph-name="portrait"
      unicode="&#xF12D;"
      horiz-adv-x="1000" d="M0 500A500 500 0 0 1 1000 500A500 500 0 0 1 0 500M173.5000000000014 0A181.825 181.825 0 0 0 159.2500000000014 58.925A39.825 39.825 0 0 0 161.5000000000014 71.1999999999999C169.2500000000013 147.1 207.0000000000014 193.9 295.0000000000014 211.4250000000001A404.00000000000006 404.00000000000006 0 0 1 435.2500000000014 286.4250000000001A68.35000000000001 68.35000000000001 0 0 1 441.7500000000014 315.1A69.99999999999999 69.99999999999999 0 0 1 436.5000000000014 340.275A188.95 188.95 0 0 0 372.5000000000014 422.7750000000001C348.0000000000013 433.0250000000001 313.2500000000014 469.4 313.2500000000014 536.25A29.075000000000003 29.075000000000003 0 0 0 330.0000000000014 562.9000000000001C321.7500000000014 579.325 274.2500000000014 683.45 360.5000000000014 722.4000000000001C433.7500000000014 893.8 670.5000000000015 796.925 670.5000000000015 796.925S645.7500000000015 755.975 676.0000000000014 728.375C704.0000000000015 703.0500000000001 721.5000000000014 611.075 695.2500000000014 570.6C695.0000000000014 568.9 694.7500000000014 567.125 694.5000000000014 565.45A28.875000000000004 28.875000000000004 0 0 0 711.7500000000014 536.225C711.7500000000014 466.7 675.7500000000014 429.8250000000001 652.2500000000014 421.2250000000002A184.225 184.225 0 0 0 587.5000000000014 338.9750000000002A64.65 64.65 0 0 1 582.5000000000015 314.8500000000002A66.5 66.5 0 0 1 589.7500000000014 284.8500000000002A393.45000000000005 393.45000000000005 0 0 1 731.0000000000015 209.8500000000001C817.2500000000016 194.2000000000002 855.2500000000015 146.7500000000001 863.2500000000015 71.4000000000002A36.49999999999999 36.49999999999999 0 0 0 865.7500000000015 58.5750000000003A188.625 188.625 0 0 0 851.5000000000015 -0.3499999999997H173.5000000000015z" />
    <glyph glyph-name="portrait-1"
      unicode="&#x70;&#x6F;&#x72;&#x74;&#x72;&#x61;&#x69;&#x74;"
      horiz-adv-x="1000" d="M0 500A500 500 0 0 1 1000 500A500 500 0 0 1 0 500M173.5000000000014 0A181.825 181.825 0 0 0 159.2500000000014 58.925A39.825 39.825 0 0 0 161.5000000000014 71.1999999999999C169.2500000000013 147.1 207.0000000000014 193.9 295.0000000000014 211.4250000000001A404.00000000000006 404.00000000000006 0 0 1 435.2500000000014 286.4250000000002A68.35000000000001 68.35000000000001 0 0 1 441.7500000000014 315.1A69.99999999999999 69.99999999999999 0 0 1 436.5000000000014 340.275A188.95 188.95 0 0 0 372.5000000000014 422.7750000000001C348.0000000000013 433.0250000000001 313.2500000000014 469.4 313.2500000000014 536.25A29.075000000000003 29.075000000000003 0 0 0 330.0000000000014 562.9000000000001C321.7500000000014 579.325 274.2500000000014 683.45 360.5000000000014 722.4000000000001C433.7500000000014 893.8 670.5000000000015 796.925 670.5000000000015 796.925S645.7500000000015 755.975 676.0000000000014 728.375C704.0000000000015 703.0500000000001 721.5000000000014 611.075 695.2500000000014 570.6C695.0000000000014 568.9 694.7500000000014 567.125 694.5000000000014 565.45A28.875000000000004 28.875000000000004 0 0 0 711.7500000000014 536.225C711.7500000000014 466.7 675.7500000000014 429.8250000000001 652.2500000000014 421.2250000000002A184.225 184.225 0 0 0 587.5000000000014 338.9750000000002A64.65 64.65 0 0 1 582.5000000000015 314.8500000000002A66.5 66.5 0 0 1 589.7500000000014 284.8500000000002A393.45000000000005 393.45000000000005 0 0 1 731.0000000000015 209.8500000000001C817.2500000000016 194.2000000000002 855.2500000000015 146.7500000000001 863.2500000000015 71.4000000000002A36.49999999999999 36.49999999999999 0 0 0 865.7500000000015 58.5750000000003A188.625 188.625 0 0 0 851.5000000000015 -0.3499999999997H173.5000000000015z" />
    <glyph glyph-name="password"
      unicode="&#xF12E;"
      horiz-adv-x="1000" d="M663.5000000000105 919.5500000000002A255.95 255.95 0 0 1 422.0000000000105 580.1500000000003L114.0000000000105 274.1000000000003A113.25 113.25 0 0 1 274.0000000000105 113.8500000000003L295.5000000000105 135.0000000000001H357.0000000000104A25.900000000000002 25.900000000000002 0 0 1 383.0000000000104 161.0000000000001V221.3000000000001H443.5000000000104A26.2 26.2 0 0 1 469.5000000000103 247.3000000000001V307.8000000000001L583.5000000000103 421.0000000000001A252.30000000000004 252.30000000000004 0 0 1 663.5000000000102 408.0500000000001A255.79999999999998 255.79999999999998 0 1 1 663.5000000000102 919.6H663.5000000000102zM725.0000000000105 643.3000000000002A79.30000000000001 79.30000000000001 0 1 0 804.5000000000105 722.6000000000003A79.25 79.25 0 0 0 725.0000000000105 643.3000000000002H725.0000000000105zM725.0000000000105 643.3000000000002" />
    <glyph glyph-name="password-1"
      unicode="&#x70;&#x61;&#x73;&#x73;&#x77;&#x6F;&#x72;&#x64;"
      horiz-adv-x="1000" d="M663.5000000000105 919.5500000000002A255.95 255.95 0 0 1 422.0000000000105 580.1500000000003L114.0000000000105 274.1000000000003A113.25 113.25 0 0 1 274.0000000000105 113.8500000000003L295.5000000000105 135.0000000000001H357.0000000000104A25.900000000000002 25.900000000000002 0 0 1 383.0000000000104 161.0000000000001V221.3000000000001H443.5000000000104A26.2 26.2 0 0 1 469.5000000000103 247.3000000000001V307.8000000000002L583.5000000000103 421.0000000000001A252.30000000000004 252.30000000000004 0 0 1 663.5000000000102 408.0500000000002A255.79999999999998 255.79999999999998 0 1 1 663.5000000000102 919.6H663.5000000000102zM725.0000000000105 643.3000000000002A79.30000000000001 79.30000000000001 0 1 0 804.5000000000105 722.6000000000003A79.25 79.25 0 0 0 725.0000000000105 643.3000000000002H725.0000000000105zM725.0000000000105 643.3000000000002" />
    <glyph glyph-name="alert"
      unicode="&#xF12F;"
      horiz-adv-x="1000" d="M458.3333333333333 375H541.6666666666666V291.6666666666668H458.3333333333333zM458.3333333333333 708.3333333333334H541.6666666666666V458.3333333333334H458.3333333333333zM499.5833333333333 916.6666666666666C269.5833333333333 916.6666666666666 83.3333333333333 730 83.3333333333333 500S269.5833333333333 83.3333333333334 499.5833333333333 83.3333333333334C729.9999999999999 83.3333333333334 916.6666666666666 270.0000000000001 916.6666666666666 500S729.9999999999999 916.6666666666666 499.5833333333333 916.6666666666666zM500 166.6666666666668C315.8333333333333 166.6666666666668 166.6666666666667 315.8333333333333 166.6666666666667 500S315.8333333333333 833.3333333333334 500 833.3333333333334S833.3333333333333 684.1666666666667 833.3333333333333 500S684.1666666666667 166.6666666666668 500 166.6666666666668z" />
    <glyph glyph-name="alert-1"
      unicode="&#x61;&#x6C;&#x65;&#x72;&#x74;"
      horiz-adv-x="1000" d="M458.3333333333333 375H541.6666666666666V291.6666666666668H458.3333333333333zM458.3333333333333 708.3333333333334H541.6666666666666V458.3333333333334H458.3333333333333zM499.5833333333333 916.6666666666666C269.5833333333333 916.6666666666666 83.3333333333333 730 83.3333333333333 500S269.5833333333333 83.3333333333334 499.5833333333333 83.3333333333334C729.9999999999999 83.3333333333334 916.6666666666666 270.0000000000001 916.6666666666666 500S729.9999999999999 916.6666666666666 499.5833333333333 916.6666666666666zM500 166.6666666666668C315.8333333333333 166.6666666666668 166.6666666666667 315.8333333333333 166.6666666666667 500S315.8333333333333 833.3333333333334 500 833.3333333333334S833.3333333333333 684.1666666666667 833.3333333333333 500S684.1666666666667 166.6666666666668 500 166.6666666666668z" />
    <glyph glyph-name="close-1"
      unicode="&#xF130;"
      horiz-adv-x="1000" d="M500 570.7L146.45 924.25L75.75 853.55L429.3 500L75.75 146.4500000000001L146.45 75.75L500 429.3000000000001L853.55 75.75L924.25 146.4500000000001L570.6999999999999 500L924.25 853.55L853.55 924.25L500 570.7z" />
    <glyph glyph-name="close-1-1"
      unicode="&#x63;&#x6C;&#x6F;&#x73;&#x65;&#x2D;&#x31;"
      horiz-adv-x="1000" d="M500 570.7L146.45 924.25L75.75 853.55L429.3 500L75.75 146.4500000000001L146.45 75.75L500 429.3000000000002L853.55 75.75L924.25 146.4500000000001L570.6999999999999 500L924.25 853.55L853.55 924.25L500 570.7z" />
    <glyph glyph-name="refresh-1"
      unicode="&#xF131;"
      horiz-adv-x="1000" d="M953.15625 968.75C927.25 968.75 906.2187500000002 947.75 906.2187500000002 921.90625V791.40625C813.1875000000001 921.5625 663.5000000000001 1000 499.9687500000001 1000C224.2812500000001 1000 1e-13 775.71875 1e-13 500.0312499999999S224.2812500000001 0 499.9687500000001 0C703.21875 0 884.6562500000001 121.4375 962.2812500000002 309.28125C967.25 321.2499999999999 966.8437500000002 334.09375 962.2812500000002 345.09375C957.7187500000002 356.21875 948.8750000000002 365.5625 936.8437500000002 370.53125C924.9687500000002 375.4375 912.09375 375.09375 901.0312500000002 370.46875C889.9687500000001 365.90625 880.5625 357.0625000000001 875.5937500000001 345.09375C812.5625000000001 192.4375 665.1562500000001 93.8125 499.9687500000001 93.8125C275.9687500000001 93.8125 93.7187500000001 276.0625 93.7187500000001 500.0624999999999S275.9687500000001 906.3125 499.9687500000001 906.3125C640.1875000000001 906.3125 767.7812500000001 835.25 842.15625 718.8125H703.0937500000001C677.2500000000001 718.8125 656.2500000000001 697.8125 656.2500000000001 671.875C656.2500000000001 646.03125 677.2500000000001 625.03125 703.0937500000001 625.03125H953.1562500000002C979.0000000000002 625.03125 1000.0000000000002 646.03125 1000.0000000000002 671.875V921.9375C1000.0000000000002 947.78125 979.0000000000002 968.78125 953.1562500000002 968.78125z" />
    <glyph glyph-name="refresh-1-1"
      unicode="&#x72;&#x65;&#x66;&#x72;&#x65;&#x73;&#x68;&#x2D;&#x31;"
      horiz-adv-x="1000" d="M953.15625 968.75C927.25 968.75 906.2187500000002 947.75 906.2187500000002 921.90625V791.40625C813.1875000000001 921.5625 663.5000000000001 1000 499.9687500000001 1000C224.2812500000001 1000 1e-13 775.71875 1e-13 500.0312499999999S224.2812500000001 0 499.9687500000001 0C703.21875 0 884.6562500000001 121.4375 962.2812500000002 309.28125C967.25 321.2499999999999 966.8437500000002 334.09375 962.2812500000002 345.09375C957.7187500000002 356.21875 948.8750000000002 365.5625 936.8437500000002 370.53125C924.9687500000002 375.4375 912.09375 375.09375 901.0312500000002 370.46875C889.9687500000001 365.90625 880.5625 357.0625000000001 875.5937500000001 345.09375C812.5625000000001 192.4375 665.1562500000001 93.8125 499.9687500000001 93.8125C275.9687500000001 93.8125 93.7187500000001 276.0625 93.7187500000001 500.0624999999999S275.9687500000001 906.3125 499.9687500000001 906.3125C640.1875000000001 906.3125 767.7812500000001 835.25 842.15625 718.8125H703.0937500000001C677.2500000000001 718.8125 656.2500000000001 697.8125 656.2500000000001 671.875C656.2500000000001 646.03125 677.2500000000001 625.03125 703.0937500000001 625.03125H953.1562500000002C979.0000000000002 625.03125 1000.0000000000002 646.03125 1000.0000000000002 671.875V921.9375C1000.0000000000002 947.78125 979.0000000000002 968.78125 953.1562500000002 968.78125z" />
    <glyph glyph-name="keyboard-arrow-down"
      unicode="&#xF132;"
      horiz-adv-x="1000" d="M308.75 673.3333333333334L500 482.5L691.25 673.3333333333334L750 614.5833333333334L500 364.5833333333334L250 614.5833333333334z" />
    <glyph glyph-name="keyboard-arrow-down-1"
      unicode="&#x6B;&#x65;&#x79;&#x62;&#x6F;&#x61;&#x72;&#x64;&#x2D;&#x61;&#x72;&#x72;&#x6F;&#x77;&#x2D;&#x64;&#x6F;&#x77;&#x6E;"
      horiz-adv-x="1000" d="M308.75 673.3333333333334L500 482.5L691.25 673.3333333333334L750 614.5833333333334L500 364.5833333333335L250 614.5833333333334z" />
    <glyph glyph-name="clear"
      unicode="&#xF133;"
      horiz-adv-x="1000" d="M0 500A500 500 0 1 0 1000 500A500 500 0 0 0 0 500zM816 745L254.5 184.5000000000001A400 400 0 0 1 816 745.5zM745.5 816A400 400 0 0 1 184 254.5L745.5 816z" />
    <glyph glyph-name="clear-1"
      unicode="&#x63;&#x6C;&#x65;&#x61;&#x72;"
      horiz-adv-x="1000" d="M0 500A500 500 0 1 0 1000 500A500 500 0 0 0 0 500zM816 745L254.5 184.5000000000001A400 400 0 0 1 816 745.5zM745.5 816A400 400 0 0 1 184 254.5L745.5 816z" />
    <glyph glyph-name="mount"
      unicode="&#xF134;"
      horiz-adv-x="1000" d="M500 0C223.875 0 0 223.875 0 500S223.875 1000 500 1000C776.125 1000 1000 776.125 1000 500S776.125 0 500 0zM500 937.5C258.375 937.5 62.5 741.625 62.5 500C62.5 258.40625 258.375 62.5 500 62.5S937.5 258.40625 937.5 500C937.5 741.625 741.625 937.5 500 937.5zM647 470.6875C647.4062500000001 493.5937500000001 643.2187500000001 516.59375 634.5000000000001 538.15625L684.7812500000001 588.4375C710.8125000000001 614.4375 710.8125000000001 656.84375 684.7812500000001 682.84375L682.7500000000001 684.875C656.75 710.90625 614.3437500000001 710.90625 588.34375 684.875L477.2500000000001 573.78125C451.2500000000001 547.78125 451.2500000000001 505.3749999999999 477.2500000000001 479.375L479.2812500000001 477.28125C483.3750000000001 473.1875 487.8125000000001 469.8125 492.5625000000001 467L451.9375000000001 426.375C447.5625000000001 429.75 443.3437500000001 433.375 439.4062500000001 437.3437499999999L437.3750000000001 439.375C389.4062500000001 487.28125 389.4062500000001 565.78125 437.3750000000001 613.75L548.5000000000001 724.84375C596.4062500000001 772.75 674.8750000000001 772.75 722.8125000000001 724.84375L724.8437500000001 722.8125C772.7500000000001 674.84375 772.7500000000001 596.4375 724.8437500000001 548.4375L647.0312500000001 470.71875zM315.1875 317.21875L317.21875 315.1875C343.21875 289.1874999999999 385.59375 289.1874999999999 411.625 315.1875L522.65625 426.28125C548.6562500000001 452.3124999999999 548.6562500000001 494.6874999999999 522.65625 520.75L520.625 522.75C516.53125 526.84375 512.09375 530.21875 507.3125000000001 533.03125L548.0312500000001 573.65625C552.4062500000001 570.34375 556.625 566.6875 560.5625000000001 562.75L562.5937500000001 560.65625C610.5000000000001 512.75 610.5000000000001 434.25 562.5937500000001 386.2812499999999L451.5000000000001 275.2499999999999C403.5937500000001 227.2812499999999 325.1875000000001 227.2812499999999 277.1875000000001 275.2499999999999L275.1562500000002 277.2499999999999C227.2500000000002 325.2187499999999 227.2500000000002 403.7187499999999 275.1562500000002 451.625L352.9375000000001 529.40625C352.5312500000001 506.4999999999999 356.7187500000001 483.4999999999999 365.4375000000001 461.9375L315.1562500000001 411.65625C289.1250000000001 385.65625 289.1250000000001 343.25 315.1562500000001 317.25z" />
    <glyph glyph-name="mount-1"
      unicode="&#x6D;&#x6F;&#x75;&#x6E;&#x74;"
      horiz-adv-x="1000" d="M500 0C223.875 0 0 223.875 0 500S223.875 1000 500 1000C776.125 1000 1000 776.125 1000 500S776.125 0 500 0zM500 937.5C258.375 937.5 62.5 741.625 62.5 500C62.5 258.40625 258.375 62.5 500 62.5S937.5 258.40625 937.5 500C937.5 741.625 741.625 937.5 500 937.5zM647 470.6875C647.4062500000001 493.5937500000001 643.2187500000001 516.59375 634.5000000000001 538.15625L684.7812500000001 588.4375C710.8125000000001 614.4375 710.8125000000001 656.84375 684.7812500000001 682.84375L682.7500000000001 684.875C656.75 710.90625 614.3437500000001 710.90625 588.34375 684.875L477.2500000000001 573.78125C451.2500000000001 547.78125 451.2500000000001 505.3749999999999 477.2500000000001 479.375L479.2812500000001 477.28125C483.3750000000001 473.1875 487.8125000000001 469.8125 492.5625000000001 467L451.9375000000001 426.375C447.5625000000001 429.75 443.3437500000001 433.375 439.4062500000001 437.3437499999999L437.3750000000001 439.375C389.4062500000001 487.28125 389.4062500000001 565.78125 437.3750000000001 613.75L548.5000000000001 724.84375C596.4062500000001 772.75 674.8750000000001 772.75 722.8125000000001 724.84375L724.8437500000001 722.8125C772.7500000000001 674.84375 772.7500000000001 596.4375 724.8437500000001 548.4375L647.0312500000001 470.71875zM315.1875 317.21875L317.21875 315.1875C343.21875 289.1874999999999 385.59375 289.1874999999999 411.625 315.1875L522.65625 426.28125C548.6562500000001 452.3124999999999 548.6562500000001 494.6874999999999 522.65625 520.75L520.625 522.75C516.53125 526.84375 512.09375 530.21875 507.3125000000001 533.03125L548.0312500000001 573.65625C552.4062500000001 570.34375 556.625 566.6875 560.5625000000001 562.75L562.5937500000001 560.65625C610.5000000000001 512.75 610.5000000000001 434.25 562.5937500000001 386.2812499999999L451.5000000000001 275.2499999999999C403.5937500000001 227.2812499999999 325.1875000000001 227.2812499999999 277.1875000000001 275.2499999999999L275.1562500000003 277.2499999999999C227.2500000000002 325.2187499999999 227.2500000000002 403.7187499999999 275.1562500000003 451.625L352.9375000000001 529.40625C352.5312500000001 506.4999999999999 356.7187500000001 483.4999999999999 365.4375000000001 461.9375L315.1562500000001 411.65625C289.1250000000001 385.65625 289.1250000000001 343.25 315.1562500000001 317.25z" />
    <glyph glyph-name="filter"
      unicode="&#xF135;"
      horiz-adv-x="1000" d="M600 400L1000 800V1000H0V800L400 400V0L600 200V400z" />
    <glyph glyph-name="filter-1"
      unicode="&#x66;&#x69;&#x6C;&#x74;&#x65;&#x72;"
      horiz-adv-x="1000" d="M600 400L1000 800V1000H0V800L400 400V0L600 200V400z" />
    <glyph glyph-name="angle-left-1"
      unicode="&#xF136;"
      horiz-adv-x="1000" d="M750 846.1666666666664V151.7499999999998A64.24999999999999 64.24999999999999 0 0 0 692.4166666666665 82.2499999999998A52.5 52.5 0 0 0 653.9166666666666 100.0833333333332L272.9166666666667 443.4999999999998A79.08333333333331 79.08333333333331 0 0 0 261.5 540.4166666666665A56.74999999999999 56.74999999999999 0 0 0 272.9166666666667 554.1666666666665L658 901.4999999999998A51.416666666666664 51.416666666666664 0 0 0 738.4166666666666 887.5833333333331A77.25 77.25 0 0 0 750 845.9166666666665H750zM750 846.1666666666664" />
    <glyph glyph-name="angle-left-1-1"
      unicode="&#x61;&#x6E;&#x67;&#x6C;&#x65;&#x2D;&#x6C;&#x65;&#x66;&#x74;&#x2D;&#x31;"
      horiz-adv-x="1000" d="M750 846.1666666666664V151.7499999999998A64.24999999999999 64.24999999999999 0 0 0 692.4166666666665 82.2499999999998A52.5 52.5 0 0 0 653.9166666666666 100.0833333333332L272.9166666666667 443.4999999999998A79.08333333333331 79.08333333333331 0 0 0 261.5 540.4166666666665A56.74999999999999 56.74999999999999 0 0 0 272.9166666666667 554.1666666666665L658 901.4999999999998A51.416666666666664 51.416666666666664 0 0 0 738.4166666666666 887.5833333333331A77.25 77.25 0 0 0 750 845.9166666666665H750zM750 846.1666666666664" />
    <glyph glyph-name="logout"
      unicode="&#xF137;"
      horiz-adv-x="1000" d="M781.25 625V312.5H906.25V187.5C906.25 153 878.25 125 843.75 125H656.25C621.75 125 593.75 153 593.75 187.5V750C593.75 784.5 621.75 812.5 656.25 812.5H843.75C878.25 812.5 906.25 784.5 906.25 750V625H781.25zM468.75 0L156.25 125C121.75 125 93.75 153 93.75 187.5V812.5C93.75 847 121.75 875 156.25 875L468.75 1000C503.25 1000 531.25 972 531.25 937.5V62.5C531.25 28 503.25 0 468.75 0z" />
    <glyph glyph-name="logout-1"
      unicode="&#x6C;&#x6F;&#x67;&#x6F;&#x75;&#x74;"
      horiz-adv-x="1000" d="M781.25 625V312.5H906.25V187.5C906.25 153 878.25 125 843.75 125H656.25C621.75 125 593.75 153 593.75 187.5V750C593.75 784.5 621.75 812.5 656.25 812.5H843.75C878.25 812.5 906.25 784.5 906.25 750V625H781.25zM468.75 0L156.25 125C121.75 125 93.75 153 93.75 187.5V812.5C93.75 847 121.75 875 156.25 875L468.75 1000C503.25 1000 531.25 972 531.25 937.5V62.5C531.25 28 503.25 0 468.75 0z" />
    <glyph glyph-name="lock"
      unicode="&#xF138;"
      horiz-adv-x="937.5" d="M889.53125 73.15625C891.84375 51.3125 871.9375 41.0625 852.5 41.6875L71.40625 41.59375C52.40625 41.6875 38.65625 60.25 38.75 79.3125L38.65625 598.21875C38.75 617.28125 57.09375 630.96875 76.125 630.875H203.125L203.84375 696.84375C204.59375 842.1875 322.25 959.40625 466.5625 958.65625C610.90625 957.84375 727.25 839.375 726.4999999999999 694.03125L725.8125 630.9375L857.2187499999999 630.96875C876.2187499999999 630.875 889.96875 612.28125 889.875 593.25L889.53125 73.15625zM660.15625 678.71875C660.75 796.03125 573.8125000000001 891.65625 465.9999999999999 892.3125C358.15625 892.9375 270.3125 798.34375 269.71875 681L267.84375 631C267.84375 628.46875 356.46875 631.625 464.3125 631S664.34375 631 660.78125 631L660.1875 678.75zM824.46875 565.5H104.125V107.09375H824.46875V565.5zM464.28125 467.25C500.4375 467.25 529.78125 437.9375000000001 529.78125 401.75C529.78125 377.5000000000001 516.46875 356.5625 496.84375 345.2812500000001L496 238.0625000000001L431.5625 238.5L432.40625 344.9062500000001C412.4375 356.125 398.8125 377.2500000000001 398.8125 401.7812500000001C398.8125 437.9687500000001 428.1250000000001 467.2812500000001 464.3125 467.2812500000001z" />
    <glyph glyph-name="lock-1"
      unicode="&#x6C;&#x6F;&#x63;&#x6B;"
      horiz-adv-x="937.5" d="M889.53125 73.15625C891.84375 51.3125 871.9375 41.0625 852.5 41.6875L71.40625 41.59375C52.40625 41.6875 38.65625 60.25 38.75 79.3125L38.65625 598.21875C38.75 617.28125 57.09375 630.96875 76.125 630.875H203.125L203.84375 696.84375C204.59375 842.1875 322.25 959.40625 466.5625 958.65625C610.90625 957.84375 727.25 839.375 726.4999999999999 694.03125L725.8125 630.9375L857.2187499999999 630.96875C876.2187499999999 630.875 889.96875 612.28125 889.875 593.25L889.53125 73.15625zM660.15625 678.71875C660.75 796.03125 573.8125000000001 891.65625 465.9999999999999 892.3125C358.15625 892.9375 270.3125 798.34375 269.71875 681L267.84375 631C267.84375 628.46875 356.46875 631.625 464.3125 631S664.34375 631 660.78125 631L660.1875 678.75zM824.46875 565.5H104.125V107.09375H824.46875V565.5zM464.28125 467.25C500.4375 467.25 529.78125 437.9375000000001 529.78125 401.75C529.78125 377.5000000000001 516.46875 356.5625 496.84375 345.2812500000001L496 238.0625000000001L431.5625 238.5L432.40625 344.9062500000001C412.4375 356.125 398.8125 377.2500000000001 398.8125 401.7812500000001C398.8125 437.9687500000001 428.1250000000001 467.2812500000001 464.3125 467.2812500000001z" />
    <glyph glyph-name="square"
      unicode="&#xF139;"
      horiz-adv-x="1000" d="M166.6666666666667 833.3333333333334H833.3333333333333V166.6666666666668H166.6666666666667z" />
    <glyph glyph-name="square-1"
      unicode="&#x73;&#x71;&#x75;&#x61;&#x72;&#x65;"
      horiz-adv-x="1000" d="M166.6666666666667 833.3333333333334H833.3333333333333V166.6666666666668H166.6666666666667z" />
    <glyph glyph-name="github-1"
      unicode="&#xF13A;"
      horiz-adv-x="937.5" d="M363.4765625 358.0078125C363.4765625 317.1875000000001 342.1875 250.390625 291.796875 250.390625S220.1171875 317.1875 220.1171875 358.0078125S241.40625 465.6250000000001 291.796875 465.6250000000001S363.4765625 398.8281250000001 363.4765625 358.0078125zM937.5 456.640625C937.5 394.3359375000001 931.25 328.3203125 903.3203125 271.09375C829.296875 121.4843750000001 625.78125 125 480.078125 125C332.03125 125 116.4062500000001 119.7265625 39.453125 271.09375C10.9375 327.734375 0 394.3359375000001 0 456.640625C0 538.4765625 27.1484375 615.8203125 81.0546875 678.515625C70.8984375 709.375 66.015625 741.796875 66.015625 773.828125C66.015625 815.8203125 75.5859375 836.9140625 94.53125 875C183.0078125 875 239.6484375000001 857.421875 307.0312500000001 804.6875C363.6718750000001 818.1640625 421.875 824.21875 480.2734375000001 824.21875C533.0078125000001 824.21875 586.1328125 818.5546875 637.3046875000001 806.25C703.7109375000001 858.3984375 760.3515625000001 875 847.8515625000001 875C866.9921875000002 836.9140625 876.3671875000002 815.8203125 876.3671875000002 773.828125C876.3671875000002 741.796875 871.2890625000001 709.9609375 861.3281250000002 679.6875C915.0390625000002 616.40625 937.5000000000002 538.4765625 937.5000000000002 456.640625zM811.9140625 358.0078125C811.9140625 443.75 759.765625 519.3359375 668.359375 519.3359375C631.4453125 519.3359375 596.09375 512.6953125 558.984375 507.6171875C529.8828125 503.125 500.7812499999999 501.3671875000001 470.8984375 501.3671875000001C441.2109375 501.3671875000001 412.109375 503.1250000000001 382.8125 507.6171875C346.2890625 512.6953125 310.546875 519.3359375 273.4375 519.3359375C182.03125 519.3359375 129.8828125 443.75 129.8828125 358.0078125C129.8828125 186.5234375 286.9140625 160.15625 423.6328125 160.15625H517.7734375C655.0781250000001 160.15625 811.9140625000001 186.328125 811.9140625000001 358.0078125zM650.5859375 465.6250000000001C600.1953125 465.6250000000001 578.9062500000001 398.8281250000001 578.9062500000001 358.0078125S600.1953125 250.390625 650.5859375 250.390625S722.265625 317.1875 722.265625 358.0078125S700.9765625000001 465.6250000000001 650.5859375 465.6250000000001z" />
    <glyph glyph-name="github-1-1"
      unicode="&#x67;&#x69;&#x74;&#x68;&#x75;&#x62;&#x2D;&#x31;"
      horiz-adv-x="937.5" d="M363.4765625 358.0078125C363.4765625 317.1875000000001 342.1875 250.390625 291.796875 250.390625S220.1171875 317.1875 220.1171875 358.0078125S241.40625 465.6250000000001 291.796875 465.6250000000001S363.4765625 398.8281250000001 363.4765625 358.0078125zM937.5 456.640625C937.5 394.3359375000001 931.25 328.3203125 903.3203125 271.09375C829.296875 121.4843750000001 625.78125 125 480.078125 125C332.03125 125 116.4062500000001 119.7265625 39.453125 271.09375C10.9375 327.734375 0 394.3359375000001 0 456.640625C0 538.4765625 27.1484375 615.8203125 81.0546875 678.515625C70.8984375 709.375 66.015625 741.796875 66.015625 773.828125C66.015625 815.8203125 75.5859375 836.9140625 94.53125 875C183.0078125 875 239.6484375000001 857.421875 307.0312500000001 804.6875C363.6718750000001 818.1640625 421.875 824.21875 480.2734375000001 824.21875C533.0078125000001 824.21875 586.1328125 818.5546875 637.3046875000001 806.25C703.7109375000001 858.3984375 760.3515625000001 875 847.8515625000001 875C866.9921875000002 836.9140625 876.3671875000002 815.8203125 876.3671875000002 773.828125C876.3671875000002 741.796875 871.2890625000001 709.9609375 861.3281250000002 679.6875C915.0390625000002 616.40625 937.5000000000002 538.4765625 937.5000000000002 456.640625zM811.9140625 358.0078125C811.9140625 443.75 759.765625 519.3359375 668.359375 519.3359375C631.4453125 519.3359375 596.09375 512.6953125 558.984375 507.6171875C529.8828125 503.125 500.7812499999999 501.3671875000001 470.8984375 501.3671875000001C441.2109375 501.3671875000001 412.109375 503.1250000000001 382.8125 507.6171875C346.2890625 512.6953125 310.546875 519.3359375 273.4375 519.3359375C182.03125 519.3359375 129.8828125 443.75 129.8828125 358.0078125C129.8828125 186.5234375 286.9140625 160.15625 423.6328125 160.15625H517.7734375C655.0781250000001 160.15625 811.9140625000001 186.328125 811.9140625000001 358.0078125zM650.5859375 465.6250000000001C600.1953125 465.6250000000001 578.9062500000001 398.8281250000001 578.9062500000001 358.0078125S600.1953125 250.390625 650.5859375 250.390625S722.265625 317.1875 722.265625 358.0078125S700.9765625000001 465.6250000000001 650.5859375 465.6250000000001z" />
    <glyph glyph-name="rotate-right"
      unicode="&#xF13B;"
      horiz-adv-x="1000" d="M647.9166666666666 768.75L458.3333333333333 958.3333333333334V830.4166666666666C294.1666666666667 810 166.6666666666667 670 166.6666666666667 500S293.75 190 458.3333333333333 169.5833333333334V253.75C340 273.75 250 376.25 250 500S340 726.25 458.3333333333333 746.25V583.3333333333334L647.9166666666666 768.75zM830.4166666666666 541.6666666666667C823.3333333333333 599.5833333333334 800.4166666666666 655.4166666666667 762.9166666666665 703.75L703.75 644.5833333333334C726.25 613.3333333333334 740.4166666666666 577.9166666666667 746.25 541.6666666666667H830.4166666666666zM541.6666666666666 254.1666666666668V170.0000000000001C599.5833333333334 177.0833333333335 655.8333333333333 199.5833333333335 704.1666666666665 237.0833333333335L644.1666666666666 297.0833333333335C612.9166666666666 274.5833333333335 577.9166666666666 260.0000000000001 541.6666666666666 254.1666666666668zM703.75 355.0000000000001L762.9166666666667 296.2500000000001C800.4166666666666 344.5833333333335 823.3333333333334 400.4166666666669 830.4166666666667 458.3333333333335H746.2500000000001C740.4166666666667 422.0833333333336 726.2500000000001 386.6666666666669 703.7500000000001 355.0000000000001z" />
    </font>
</defs>
</svg>
