<?xml version="1.0" encoding="UTF-8"?><svg width="288" height="104" viewBox="0 0 288 104" xmlns="http://www.w3.org/2000/svg" xmlns:xlink="http://www.w3.org/1999/xlink"><svg width="144" height="104" viewBox="-20 -20 144 104" id="logo-163yun-2color" xmlns="http://www.w3.org/2000/svg"><g fill="none" fill-rule="evenodd"><path d="M26.746 41.31a.534.534 0 0 0 .248-.153 1.71 1.71 0 0 1-1.186-.796c.28.137.575.24.88.305.166.06.046-.2.046-.2-2.249-1.349-2.154-2.068-2.154-2.068a5.26 5.26 0 0 0 1.186.794c-.844-.775-.307-.49-.307-.49a6.436 6.436 0 0 0 6.958.371 4.91 4.91 0 0 0 1.747-6.972 5.41 5.41 0 0 0-5.733-2.305 15.614 15.614 0 0 1-4.957 7.817c-3.973 3.623-4.62 5.943-4.675 6.945-.011-1.171.342-4.004 3.517-7.138h-.193a20.067 20.067 0 0 0-3.283 4.24 4.044 4.044 0 0 1 .965-2.12 2.782 2.782 0 0 0-.579.385c-.061.112-.064-1.43 1.931-3.467a19.142 19.142 0 0 0 4.331-5.401 68.647 68.647 0 0 1-9.496 4.189c.481.308.981.584 1.498.826 0 0 .702.401-.772 0a7.018 7.018 0 0 0 1.738.77s-.749.611-3.862-.963c0 0-.379.048-.193.193.29.294.613.553.965.77a2.29 2.29 0 0 1-1.737-.77.7.7 0 0 0 0 .385 4.384 4.384 0 0 1-.644-.287c-5.502 1.472-8.045.865-8.045.865a28.964 28.964 0 0 0 7.26-1.352 7.323 7.323 0 0 1-.215-.16c-1.166.228-2.418.46-3.194.602a26.81 26.81 0 0 0 2.941-.807 8.665 8.665 0 0 1-2.881-5.471 5.105 5.105 0 0 0-5.454 2.176 4.883 4.883 0 0 0 1.737 6.936 6.396 6.396 0 0 0 6.92-.369s.534-.283-.305.488a5.209 5.209 0 0 0 1.176-.79s.09.715-2.142 2.056c0 0-.118.26.047.2.303-.066.597-.168.875-.304a1.7 1.7 0 0 1-1.176.792.533.533 0 0 0 .246.153s-4.826 2.038-8.063-.783A7.564 7.564 0 0 1 .89 31.06a7.436 7.436 0 0 1 7.807-3.33c0-.28.007-.566.023-.864C9.058 20.532 14.755 18 18.644 18c3.193 0 9.384 1.447 10.038 9.785v.03a7.33 7.33 0 0 1 8 3.318 7.586 7.586 0 0 1-1.833 9.39c-3.216 2.875-8.103.787-8.103.787zm-7.712-20.076c-3.542 0-7.292 2.465-7.145 7.13.008.233.027.458.051.68a39.01 39.01 0 0 0 6.128 3.366s-2.782-.893-2.894-.963a7.687 7.687 0 0 0-1.352-.386c.868.458 1.772.845 2.703 1.156a10.962 10.962 0 0 1-4.019-.954 8.217 8.217 0 0 0 2.163 2.985c3.88-1.6 7.666-3.415 11.344-5.435.05-.026.1-.049.15-.074.01-.124.015-.248.015-.372a7.465 7.465 0 0 0-7.144-7.132v-.001zm5.546 17.164l-.156-.157.156.157zm-5.781 6.16c-.002.19.012.38.041.569a1.703 1.703 0 0 1-.041-.568v-.002zM8.787 36.125c-.26.053-.516.101-.762.14l.762-.14zm4.137 2.165l.044-.044-.044.044zm5.557-1.44l.176.039-.176-.04z" fill="#379EF7"/><path d="M103.007 29.868a.404.404 0 0 1-.255.102h-9.476a.344.344 0 0 0-.322.206l-3.77 8.154a.345.345 0 0 0 .02.344c.062.107.178.171.301.168h10.543a.336.336 0 0 0 .292-.147.35.35 0 0 0 .048-.326l-1.574-4.522a.362.362 0 0 1 .338-.473h1.026c.155 0 .29.096.338.069l2.217 6.385a.612.612 0 0 1-.045.497.347.347 0 0 1-.289.152H86.796a.362.362 0 0 1-.301-.165.34.34 0 0 1-.018-.346l4.225-9.486a.367.367 0 0 0-.015-.345.383.383 0 0 0-.308-.165h-5.211a.355.355 0 0 1-.357-.362v-.906a.362.362 0 0 1 .1-.259.354.354 0 0 1 .257-.1h17.58a.362.362 0 0 1 .255.1.354.354 0 0 1 .104.26v.909a.362.362 0 0 1-.1.256zm-1.5-5.782H86.135a.362.362 0 0 1-.362-.361v-.905a.326.326 0 0 1 .104-.255.353.353 0 0 1 .254-.112h15.374c.097 0 .19.04.256.112.07.066.108.16.103.255v.905a.362.362 0 0 1-.355.361zM80.833 41.151h-3.46c.07 0-.017-.037-.09-.107a.318.318 0 0 1-.106-.245v-.89a.34.34 0 0 1 .106-.25.326.326 0 0 1 .252-.101h1.859c.2 0 .361-.162.361-.362v-5.2a.34.34 0 0 0-.105-.25.334.334 0 0 0-.254-.103h-2.321a.333.333 0 0 0-.298.162L72.05 40.26a.348.348 0 0 1-.298.167h-.313a2.815 2.815 0 0 1-1.027-.187.355.355 0 0 1 .011-.367l4.114-5.683a.352.352 0 0 0 .012-.362.337.337 0 0 0-.313-.181h-3.412a.331.331 0 0 0-.295.153l-5.305 6.481a.37.37 0 0 1-.292.15h-.37c-.35-.001-.698-.068-1.024-.198a.354.354 0 0 1 .025-.374l4.612-5.645c.08-.11.09-.255.026-.374a.34.34 0 0 0-.318-.192h-3.462a.362.362 0 0 1-.29-.154.35.35 0 0 1-.046-.329l.658-2.27a.314.314 0 0 1 .18-.204.334.334 0 0 1 .28-.04h.976c.104.017.198.07.267.148a.633.633 0 0 1-.079.366l-.188.563a.732.732 0 0 1-.045.09.352.352 0 0 0 .33.226h14.54a.332.332 0 0 1 .25.108c.1.115.141.272.11.422v8.396a.6.6 0 0 1-.533.181zM77.666 30.21H67.86c-1.376 0-2.26-.543-2.26-1.925v-4.186a2.004 2.004 0 0 1 2.26-2.12h9.809c1.38 0 2.442.73 2.442 2.12v4.19c.002 1.386-1.062 1.925-2.442 1.925l-.003-.004zm.842-5.596a1 1 0 0 0-1.198-1.106h-9.089c-.8 0-1.016.313-1.016 1.106v.699h11.304v-.699zm0 2.34h-11.3v.815c0 .796.217.93 1.016.93h9.091c.796 0 1.199-.133 1.199-.93v-.814h-.006zM59.043 41.01h-3.306c.068 0-.016-.04-.09-.115a.336.336 0 0 1-.107-.253v-.821c0-.2.162-.362.361-.362h1.682a.34.34 0 0 0 .255-.098.362.362 0 0 0 .106-.259v-14.74c0-.2-.162-.363-.361-.363H44.198a.362.362 0 0 0-.359.36v16.305a.368.368 0 0 1-.362.362h-.904a.362.362 0 0 1-.362-.362V22.735a.335.335 0 0 1 .104-.252.35.35 0 0 1 .254-.108h16.64a.372.372 0 0 1 .362.362v17.906a.338.338 0 0 1-.11.253.493.493 0 0 1-.418.114zM47.1 31.786a.328.328 0 0 0 0-.308l-1.92-5.002a.356.356 0 0 1 .025-.347.346.346 0 0 1 .302-.166h.85a.347.347 0 0 1 .32.208l1.146 2.952a.355.355 0 1 0 .653 0l1.322-2.95a.353.353 0 0 1 .325-.208h1.44c.14 0 .266.081.326.208l1.141 2.95a.355.355 0 0 0 .651 0L55 26.173a.37.37 0 0 1 .329-.208h.841a.352.352 0 0 1 .308.166c.068.108.075.232.021.18l-2.092 4.998a.789.789 0 0 0 0 .48l2.157 5.065a.362.362 0 0 1-.02.349.737.737 0 0 1-.485.167H55.4a.354.354 0 0 1-.324-.207l-1.397-3.256a.355.355 0 0 0-.645 0l-1.494 3.256a.348.348 0 0 1-.32.207h-1.024a.347.347 0 0 1-.321-.207l-1.4-3.256a.34.34 0 0 0-.32-.205.346.346 0 0 0-.327.205l-1.488 3.256a.362.362 0 0 1-.324.207h-.746a.348.348 0 0 1-.306-.167.352.352 0 0 1-.014-.35l2.15-5.067zm2.105 0l1.552 3.577 1.549-3.576a.344.344 0 0 0 .006-.308l-1.488-3.798-1.62 3.798a.362.362 0 0 0 0 .31v-.003z" fill="#FFF"/></g></svg><svg width="144" height="104" viewBox="-20 -20 144 104" id="logo-163yun-white" x="144" xmlns="http://www.w3.org/2000/svg"><g fill="#FFF" fill-rule="evenodd"><path d="M26.746 41.31a.534.534 0 0 0 .248-.153 1.71 1.71 0 0 1-1.186-.796c.28.137.575.24.88.305.166.06.046-.2.046-.2-2.249-1.349-2.154-2.068-2.154-2.068a5.26 5.26 0 0 0 1.186.794c-.844-.775-.307-.49-.307-.49a6.436 6.436 0 0 0 6.958.371 4.91 4.91 0 0 0 1.747-6.972 5.41 5.41 0 0 0-5.733-2.305 15.614 15.614 0 0 1-4.957 7.817c-3.973 3.623-4.62 5.943-4.675 6.945-.011-1.171.342-4.004 3.517-7.138h-.193a20.067 20.067 0 0 0-3.283 4.24 4.044 4.044 0 0 1 .965-2.12 2.782 2.782 0 0 0-.579.385c-.061.112-.064-1.43 1.931-3.467a19.142 19.142 0 0 0 4.331-5.401 68.647 68.647 0 0 1-9.496 4.189c.481.308.981.584 1.498.826 0 0 .702.401-.772 0a7.018 7.018 0 0 0 1.738.77s-.749.611-3.862-.963c0 0-.379.048-.193.193.29.294.613.553.965.77a2.29 2.29 0 0 1-1.737-.77.7.7 0 0 0 0 .385 4.384 4.384 0 0 1-.644-.287c-5.502 1.472-8.045.865-8.045.865a28.964 28.964 0 0 0 7.26-1.352 7.323 7.323 0 0 1-.215-.16c-1.166.228-2.418.46-3.194.602a26.81 26.81 0 0 0 2.941-.807 8.665 8.665 0 0 1-2.881-5.471 5.105 5.105 0 0 0-5.454 2.176 4.883 4.883 0 0 0 1.737 6.936 6.396 6.396 0 0 0 6.92-.369s.534-.283-.305.488a5.209 5.209 0 0 0 1.176-.79s.09.715-2.142 2.056c0 0-.118.26.047.2.303-.066.597-.168.875-.304a1.7 1.7 0 0 1-1.176.792.533.533 0 0 0 .246.153s-4.826 2.038-8.063-.783A7.564 7.564 0 0 1 .89 31.06a7.436 7.436 0 0 1 7.807-3.33c0-.28.007-.566.023-.864C9.058 20.532 14.755 18 18.644 18c3.193 0 9.384 1.447 10.038 9.785v.03a7.33 7.33 0 0 1 8 3.318 7.586 7.586 0 0 1-1.833 9.39c-3.216 2.875-8.103.787-8.103.787zm-7.712-20.076c-3.542 0-7.292 2.465-7.145 7.13.008.233.027.458.051.68a39.01 39.01 0 0 0 6.128 3.366s-2.782-.893-2.894-.963a7.687 7.687 0 0 0-1.352-.386c.868.458 1.772.845 2.703 1.156a10.962 10.962 0 0 1-4.019-.954 8.217 8.217 0 0 0 2.163 2.985c3.88-1.6 7.666-3.415 11.344-5.435.05-.026.1-.049.15-.074.01-.124.015-.248.015-.372a7.465 7.465 0 0 0-7.144-7.132v-.001zm5.546 17.164l-.156-.157.156.157zm-5.781 6.16c-.002.19.012.38.041.569a1.703 1.703 0 0 1-.041-.568v-.002zM8.787 36.125c-.26.053-.516.101-.762.14l.762-.14zm4.137 2.165l.044-.044-.044.044zm5.557-1.44l.176.039-.176-.04zM103.007 29.868a.404.404 0 0 1-.255.102h-9.476a.344.344 0 0 0-.322.206l-3.77 8.154a.345.345 0 0 0 .02.344c.062.107.178.171.301.168h10.543a.336.336 0 0 0 .292-.147.35.35 0 0 0 .048-.326l-1.574-4.522a.362.362 0 0 1 .338-.473h1.026c.155 0 .29.096.338.069l2.217 6.385a.612.612 0 0 1-.045.497.347.347 0 0 1-.289.152H86.796a.362.362 0 0 1-.301-.165.34.34 0 0 1-.018-.346l4.225-9.486a.367.367 0 0 0-.015-.345.383.383 0 0 0-.308-.165h-5.211a.355.355 0 0 1-.357-.362v-.906a.362.362 0 0 1 .1-.259.354.354 0 0 1 .257-.1h17.58a.362.362 0 0 1 .255.1.354.354 0 0 1 .104.26v.909a.362.362 0 0 1-.1.256zm-1.5-5.782H86.135a.362.362 0 0 1-.362-.361v-.905a.326.326 0 0 1 .104-.255.353.353 0 0 1 .254-.112h15.374c.097 0 .19.04.256.112.07.066.108.16.103.255v.905a.362.362 0 0 1-.355.361zM80.833 41.151h-3.46c.07 0-.017-.037-.09-.107a.318.318 0 0 1-.106-.245v-.89a.34.34 0 0 1 .106-.25.326.326 0 0 1 .252-.101h1.859c.2 0 .361-.162.361-.362v-5.2a.34.34 0 0 0-.105-.25.334.334 0 0 0-.254-.103h-2.321a.333.333 0 0 0-.298.162L72.05 40.26a.348.348 0 0 1-.298.167h-.313a2.815 2.815 0 0 1-1.027-.187.355.355 0 0 1 .011-.367l4.114-5.683a.352.352 0 0 0 .012-.362.337.337 0 0 0-.313-.181h-3.412a.331.331 0 0 0-.295.153l-5.305 6.481a.37.37 0 0 1-.292.15h-.37c-.35-.001-.698-.068-1.024-.198a.354.354 0 0 1 .025-.374l4.612-5.645c.08-.11.09-.255.026-.374a.34.34 0 0 0-.318-.192h-3.462a.362.362 0 0 1-.29-.154.35.35 0 0 1-.046-.329l.658-2.27a.314.314 0 0 1 .18-.204.334.334 0 0 1 .28-.04h.976c.104.017.198.07.267.148a.633.633 0 0 1-.079.366l-.188.563a.732.732 0 0 1-.045.09.352.352 0 0 0 .33.226h14.54a.332.332 0 0 1 .25.108c.1.115.141.272.11.422v8.396a.6.6 0 0 1-.533.181zM77.666 30.21H67.86c-1.376 0-2.26-.543-2.26-1.925v-4.186a2.004 2.004 0 0 1 2.26-2.12h9.809c1.38 0 2.442.73 2.442 2.12v4.19c.002 1.386-1.062 1.925-2.442 1.925l-.003-.004zm.842-5.596a1 1 0 0 0-1.198-1.106h-9.089c-.8 0-1.016.313-1.016 1.106v.699h11.304v-.699zm0 2.34h-11.3v.815c0 .796.217.93 1.016.93h9.091c.796 0 1.199-.133 1.199-.93v-.814h-.006zM59.043 41.01h-3.306c.068 0-.016-.04-.09-.115a.336.336 0 0 1-.107-.253v-.821c0-.2.162-.362.361-.362h1.682a.34.34 0 0 0 .255-.098.362.362 0 0 0 .106-.259v-14.74c0-.2-.162-.363-.361-.363H44.198a.362.362 0 0 0-.359.36v16.305a.368.368 0 0 1-.362.362h-.904a.362.362 0 0 1-.362-.362V22.735a.335.335 0 0 1 .104-.252.35.35 0 0 1 .254-.108h16.64a.372.372 0 0 1 .362.362v17.906a.338.338 0 0 1-.11.253.493.493 0 0 1-.418.114zM47.1 31.786a.328.328 0 0 0 0-.308l-1.92-5.002a.356.356 0 0 1 .025-.347.346.346 0 0 1 .302-.166h.85a.347.347 0 0 1 .32.208l1.146 2.952a.355.355 0 1 0 .653 0l1.322-2.95a.353.353 0 0 1 .325-.208h1.44c.14 0 .266.081.326.208l1.141 2.95a.355.355 0 0 0 .651 0L55 26.173a.37.37 0 0 1 .329-.208h.841a.352.352 0 0 1 .308.166c.068.108.075.232.021.18l-2.092 4.998a.789.789 0 0 0 0 .48l2.157 5.065a.362.362 0 0 1-.02.349.737.737 0 0 1-.485.167H55.4a.354.354 0 0 1-.324-.207l-1.397-3.256a.355.355 0 0 0-.645 0l-1.494 3.256a.348.348 0 0 1-.32.207h-1.024a.347.347 0 0 1-.321-.207l-1.4-3.256a.34.34 0 0 0-.32-.205.346.346 0 0 0-.327.205l-1.488 3.256a.362.362 0 0 1-.324.207h-.746a.348.348 0 0 1-.306-.167.352.352 0 0 1-.014-.35l2.15-5.067zm2.105 0l1.552 3.577 1.549-3.576a.344.344 0 0 0 .006-.308l-1.488-3.798-1.62 3.798a.362.362 0 0 0 0 .31v-.003z"/></g></svg></svg>