<?xml version="1.0" encoding="UTF-8"?>
<svg width="24px" height="24px" viewBox="0 0 24 24" version="1.1" xmlns="http://www.w3.org/2000/svg" xmlns:xlink="http://www.w3.org/1999/xlink">
    <!-- Generator: Sketch 39.1 (31720) - http://www.bohemiancoding.com/sketch -->
    <title>Slice</title>
    <desc>Created with Sketch.</desc>
    <defs></defs>
    <g id="Page-1" stroke="none" stroke-width="1" fill="none" fill-rule="evenodd">
        <g id="area" transform="translate(4.000000, 1.000000)">
            <path d="M2.743,15.742 L4.229,17.228 C2.879,17.411 2,17.687 2,18 C2,18.552 4.686,19 8,19 C11.314,19 14,18.552 14,18 C14,17.687 13.121,17.412 11.772,17.228 L13.258,15.742 C14.935,16.292 16,17.1 16,18 C16,19.657 12.418,21 8,21 C3.582,21 0,19.657 0,18 C0,17.1 1.065,16.292 2.743,15.742 L2.743,15.742 Z" id="矩形_95" fill="#000000"></path>
            <path d="M11.779,13.877 L8,17.657 L4.221,13.878 C1.60490268,12.2006653 0.407851696,8.9993723 1.28159155,6.01709202 C2.1553314,3.03481174 4.89065575,0.985614725 7.99829422,0.985203553 C11.1059327,0.984792381 13.8417992,3.0332655 14.7163282,6.01531447 C15.5908572,8.99736344 14.3946534,12.1989731 11.779,13.877 L11.779,13.877 Z M8,3 C5.74888984,2.99294886 3.7722583,4.49516577 3.17628859,6.66596442 C2.58031887,8.83676307 3.51284624,11.1376587 5.452,12.281 L8,14.828 L10.548,12.28 C12.4861109,11.1362371 13.4178196,8.83595986 12.8219713,6.6658372 C12.2261229,4.49571454 10.2504284,2.99372003 8,3 L8,3 Z" id="矩形_93_拷贝_3" fill="#000000"></path>
            <circle id="椭圆_19" fill="#306CC7" cx="8" cy="8" r="2"></circle>
        </g>
    </g>
</svg>