<?xml version="1.0" encoding="utf-8"?>
<!-- Generated by IcoMoon.io -->
<!DOCTYPE svg PUBLIC "-//W3C//DTD SVG 1.1//EN" "http://www.w3.org/Graphics/SVG/1.1/DTD/svg11.dtd">
<svg version="1.1" xmlns="http://www.w3.org/2000/svg" xmlns:xlink="http://www.w3.org/1999/xlink" width="32" height="32" viewBox="0 0 32 32">
<path d="M23.27 21.321l-5.247-5.247 5.396-5.396c0.15-0.15 0.15-0.45-0.15-0.6l-1.199-1.349c-0.15-0.15-0.45-0.15-0.75 0l-5.247 5.396-5.396-5.396c-0.15-0.15-0.45-0.15-0.6 0l-1.349 1.349c-0.15 0.15-0.15 0.45 0 0.6l5.396 5.396-5.396 5.247c-0.15 0.3-0.15 0.6 0 0.75l1.349 1.199c0.15 0.15 0.45 0.15 0.75 0l5.246-5.247 5.396 5.396c0.15 0.15 0.45 0.15 0.6-0.15l1.199-1.199c0.3-0.15 0.3-0.45 0-0.75v0z"></path>
</svg>
