<?xml version="1.0" encoding="utf-8"?>
<!-- Generated by IcoMoon.io -->
<!DOCTYPE svg PUBLIC "-//W3C//DTD SVG 1.1//EN" "http://www.w3.org/Graphics/SVG/1.1/DTD/svg11.dtd">
<svg version="1.1" xmlns="http://www.w3.org/2000/svg" xmlns:xlink="http://www.w3.org/1999/xlink" width="32" height="32" viewBox="0 0 32 32">
<path fill="#bac2cf" d="M16 32c-8.837 0-16-7.163-16-16s7.163-16 16-16c8.837 0 16 7.163 16 16s-7.163 16-16 16zM14.233 27.461h3.358v-3.632h-3.358v3.632zM15.97 6.837c-3.614 0-6.174 1.831-6.857 5.749l2.958 0.487c0.37-2.546 1.963-3.547 3.899-3.547 2.19 0 3.726 1.088 3.726 2.919 0 1.573-0.825 2.315-2.759 3.803-1.253 0.974-2.59 1.831-2.59 4.206v1.115h3.129v-1.115c0-1.774 1.282-2.318 2.59-3.346 1.936-1.518 2.759-2.633 2.759-4.663 0-3.52-2.274-5.607-6.855-5.607z"></path>
</svg>
