<svg xmlns="http://www.w3.org/2000/svg" width="16" height="16" viewBox="0 0 16 16">
  <metadata><?xpacket begin="﻿" id="W5M0MpCehiHzreSzNTczkc9d"?>
<x:xmpmeta xmlns:x="adobe:ns:meta/" x:xmptk="Adobe XMP Core 5.6-c138 79.159824, 2016/09/14-01:09:01        ">
   <rdf:RDF xmlns:rdf="http://www.w3.org/1999/02/22-rdf-syntax-ns#">
      <rdf:Description rdf:about=""/>
   </rdf:RDF>
</x:xmpmeta>
                                                                                                    
                                                                                                    
                                                                                                    
                                                                                                    
                                                                                                    
                                                                                                    
                                                                                                    
                                                                                                    
                                                                                                    
                                                                                                    
                                                                                                    
                                                                                                    
                                                                                                    
                                                                                                    
                                                                                                    
                                                                                                    
                                                                                                    
                                                                                                    
                                                                                                    
                                                                                                    
                           
<?xpacket end="w"?></metadata>
<defs>
    <style>
      .cls-1 {
        fill: #b3bdc6;
        fill-rule: evenodd;
      }
    </style>
  </defs>
  <path id="_拷贝" data-name="~ 拷贝" class="cls-1" d="M16,7l-2,7a1.089,1.089,0,0,1-1,1H3a1.148,1.148,0,0,1-1-1L0,7A0.972,0.972,0,0,1,.06,6.7,4.551,4.551,0,0,1,0,6C0,2.686,3.582,0,8,0s8,2.686,8,6a4.544,4.544,0,0,1-.06.7A0.974,0.974,0,0,1,16,7ZM10.78,3.968a1.516,1.516,0,0,1-1.245.975c-0.93,0-1.56-1.32-2.94-1.32A2.971,2.971,0,0,0,4.15,5.318L5.3,6.188A1.528,1.528,0,0,1,6.55,5.2c0.945,0,1.56,1.32,2.955,1.32a2.962,2.962,0,0,0,2.43-1.68Zm0,5a1.516,1.516,0,0,1-1.245.975c-0.93,0-1.56-1.32-2.94-1.32A2.971,2.971,0,0,0,4.15,10.318L5.3,11.188A1.529,1.529,0,0,1,6.55,10.2c0.945,0,1.56,1.32,2.955,1.32a2.962,2.962,0,0,0,2.43-1.68Z"/>
</svg>
