<svg width="115" height="28" viewBox="0 0 115 28" fill="none" xmlns="http://www.w3.org/2000/svg">
<path fill-rule="evenodd" clip-rule="evenodd" d="M24.4208 23.7481C24.4208 23.7481 24.4468 23.7497 24.4775 23.7516L24.5431 23.7554L24.5695 23.7462L24.5846 23.7595C24.6994 23.779 24.7856 23.8769 24.7856 23.993C24.7856 24.0546 24.7615 24.114 24.7192 24.1582L24.6967 24.1989L24.6793 24.1945C21.9499 26.6481 18.4231 28 14.7462 28C13.5887 28 12.4278 27.8644 11.2947 27.5969L11.2847 27.5942C11.1841 27.5646 11.1143 27.4724 11.1143 27.3672C11.1143 27.2728 11.1713 27.1879 11.2559 27.1504L11.2557 27.1469L11.279 27.1417C11.2803 27.1412 11.2817 27.1409 11.2831 27.1404C11.2969 27.1358 11.3115 27.1325 11.3273 27.1314C11.3406 27.1295 11.3921 27.126 11.7513 27.1087L11.7795 27.107C13.1181 27.0362 14.6936 26.7069 16.1017 26.204C16.8566 25.9341 18.1887 25.244 18.25 25.212C19.9893 24.2108 21.7809 23.7033 23.5753 23.7033C23.603 23.7033 24.0234 23.7201 24.4208 23.7481ZM23.5755 18.9693C25.0242 18.9693 26.454 19.1858 27.8252 19.6128C27.8968 19.635 27.9543 19.6874 27.9831 19.7565C28.0121 19.826 28.0091 19.9038 27.9747 19.9705C27.6514 20.5961 27.2795 21.2048 26.8693 21.7796C26.8091 21.8639 26.7006 21.9024 26.5994 21.8759C25.621 21.616 24.6035 21.4842 23.5755 21.4842C22.0331 21.4842 20.4932 21.8048 18.9983 22.4371C18.7186 22.5553 18.4384 22.6872 18.1658 22.8282C16.1664 23.939 13.9893 24.7455 12.036 25.0989L11.989 25.1222L11.9793 25.109C10.9368 25.2899 9.8689 25.3818 8.80422 25.3818C7.89524 25.3818 6.59646 25.1914 6.00458 25.0631C5.8931 25.0387 5.7911 24.992 5.70132 24.924C4.63827 24.1191 3.80117 23.2877 2.98686 22.2279C2.92203 22.1436 2.92094 22.0291 2.98442 21.9434C3.04816 21.8574 3.15775 21.8251 3.25757 21.8626C5.00636 22.5185 6.82079 22.8372 8.80422 22.8372C10.9056 22.8372 12.9883 22.4072 14.9937 21.559C15.4145 21.3808 15.8363 21.1801 16.2475 20.962C18.4455 19.7937 20.5019 19.1541 22.5333 19.007L22.5775 18.9875L22.5886 19.0033C22.9188 18.9807 23.2505 18.9693 23.5755 18.9693ZM21.4422 0C21.5344 0 21.6185 0.0501824 21.6627 0.131288L21.6665 0.137798L21.6736 0.152446C21.683 0.172248 21.6912 0.189065 21.6993 0.207511C21.9098 0.642063 22.1103 1.15908 22.2418 1.51632C22.3162 1.71922 22.3766 1.89282 22.4144 2.00268C22.4531 2.11634 22.4713 2.16923 22.4784 2.19772L22.4795 2.19745C22.8828 3.5323 23.0871 4.92303 23.0871 6.33057C23.0871 8.25785 22.7097 10.1276 21.9652 11.8875C21.2461 13.5875 20.2169 15.1144 18.9057 16.4254C17.5947 17.7363 16.068 18.7658 14.3678 19.4851C12.6079 20.2295 10.7384 20.6068 8.81113 20.6068C7.34635 20.6068 5.93446 20.4134 4.61426 20.032C3.28565 19.6482 2.04085 19.0712 0.914599 18.3171C0.821287 18.2544 0.749946 18.1611 0.713327 18.0532C0.350657 16.9855 0.137721 16.0841 0.00209334 15.0403C-0.0103844 14.9443 0.033559 14.854 0.116835 14.8052C0.199568 14.7561 0.299661 14.7609 0.37724 14.8182C0.861704 15.1751 1.55829 15.671 2.12603 16.0093C3.00002 16.5531 4.01071 16.8404 5.0499 16.8404C6.53177 16.8404 7.92494 16.2632 8.9728 15.2153C9.91297 14.2748 10.4848 13.0303 10.5822 11.7104C10.6945 10.1924 10.1585 8.66419 9.11168 7.51705C9.11033 7.51569 9.09649 7.49942 9.0832 7.48423C9.07425 7.47392 9.06557 7.46388 9.06205 7.46008L9.05472 7.4514C9.01539 7.40556 8.99369 7.34778 8.99369 7.28757C8.99369 7.21351 9.02597 7.14407 9.0813 7.0966L9.08185 7.09497L9.10436 7.0787C9.13908 7.05456 9.17326 7.0372 9.20337 7.02201C9.21829 7.01414 9.23294 7.00709 9.24677 6.99895L11.0278 5.97062L11.0284 5.97143C11.0563 5.95407 11.1418 5.90497 11.4236 5.74195C13.1463 4.74752 19.9644 0.812141 21.3025 0.0393321C21.3217 0.0282106 21.3421 0.0192592 21.3632 0.012749C21.3871 0.00461135 21.4145 0 21.4422 0ZM20.1483 3.62235L20.1369 3.62507C20.1163 3.63185 20.0995 3.64215 20.0788 3.65463C20.0712 3.65924 20.0634 3.66386 20.0555 3.66847L20.0449 3.67416C18.7524 4.41876 13.5983 7.39444 12.5669 7.9912L12.5523 7.99961C12.5417 8.00558 12.5282 8.01345 12.523 8.01643C12.5214 8.01752 12.5192 8.01887 12.517 8.02023L12.5027 8.03271C12.4823 8.05251 12.4712 8.07882 12.4712 8.10703C12.4712 8.11761 12.4728 8.12846 12.4761 8.13877L12.4782 8.14582C12.4799 8.15125 12.4937 8.19031 12.4967 8.19736C13.1013 9.65319 13.2652 11.2452 12.9711 12.8C12.6695 14.3926 11.9018 15.843 10.7512 16.9936C10.5624 17.1822 10.2607 17.4328 9.85465 17.7385L9.85384 17.7374C9.84462 17.7456 9.83512 17.7526 9.82753 17.7581L9.77084 17.7985C9.75212 17.8118 9.7334 17.8248 9.71876 17.8354L9.68973 17.8576C9.66261 17.8774 9.64714 17.9075 9.64714 17.9409C9.64714 17.9978 9.69353 18.0445 9.75049 18.0445L9.76053 18.0437L9.76487 18.044C9.76568 18.044 9.76623 18.0442 9.76704 18.0442C9.83187 18.0472 9.92057 18.0399 9.94987 18.0377C9.95393 18.0374 9.95719 18.0372 9.95936 18.0369C11.1412 17.9232 12.2949 17.6311 13.3883 17.1683C13.8074 16.9912 14.2194 16.7883 14.6125 16.5651C15.5282 16.0456 16.3743 15.4003 17.1276 14.6473C18.2085 13.5661 19.0567 12.3082 19.6489 10.9077C20.2614 9.45951 20.572 7.91959 20.572 6.33057C20.572 5.46934 20.4795 4.61217 20.2964 3.78348L20.2958 3.7805C20.2948 3.77534 20.2831 3.72435 20.2798 3.71187L20.2777 3.70292C20.2668 3.64514 20.2099 3.60554 20.1483 3.62235ZM23.5754 14.2452C25.5252 14.2452 27.446 14.549 29.2834 15.1474C29.4009 15.1854 29.4725 15.3017 29.4535 15.4235C29.3502 16.0995 29.1983 16.7738 29.0027 17.4268C28.9826 17.4938 28.9376 17.5483 28.8755 17.58C28.8389 17.5993 28.799 17.6088 28.7588 17.6088C28.7312 17.6088 28.7032 17.6042 28.6764 17.5949C27.0421 17.041 25.3258 16.7603 23.5754 16.7603C23.0204 16.7603 22.4611 16.789 21.9132 16.8455C21.8348 16.8544 21.7621 16.8159 21.7244 16.7467C21.6864 16.6778 21.6934 16.5964 21.7423 16.5349C22.2604 15.8817 22.7323 15.184 23.1449 14.4614C23.2209 14.3282 23.3641 14.2452 23.5187 14.2452H23.5754Z" fill="white"/>
<path fill-rule="evenodd" clip-rule="evenodd" d="M51.2027 22.2159H49.8456C49.6124 21.6953 49.3867 21.1365 49.1675 20.5406C48.9472 19.9446 48.7215 19.3175 48.4883 18.6592C48.2691 19.3037 48.0499 19.924 47.8307 20.52C47.6116 21.1159 47.3924 21.6812 47.1729 22.2159H43.9241C43.7049 21.6812 43.4858 21.1097 43.2666 20.4996C43.0471 19.8896 42.8206 19.2562 42.5882 18.5976C42.3552 19.2562 42.1257 19.8896 41.8989 20.4996C41.6732 21.1097 41.4503 21.6812 41.2311 22.2159H39.4419C39.8393 21.2711 40.2301 20.2664 40.6145 19.2038C40.9978 18.1422 41.3683 17.0761 41.7245 16.0071C41.3401 14.8011 40.981 13.5986 40.6452 12.3991C40.3094 11.1994 40.0175 10.0587 39.7712 8.9756H41.4364C41.5875 9.6201 41.7619 10.2947 41.9605 11.0008C42.1593 11.7069 42.3755 12.4374 42.6088 13.1901C42.841 12.3823 43.0509 11.6212 43.2357 10.9083C43.4204 10.1957 43.5753 9.54469 43.6982 8.95525H45.3428C45.1507 9.91496 44.8903 10.9981 44.5621 12.203C44.2328 13.4104 43.869 14.6497 43.4717 15.9252C43.801 16.953 44.1406 17.9604 44.4894 18.9472C44.8393 19.9343 45.1917 20.8661 45.5489 21.7431C45.9043 20.8393 46.258 19.8996 46.6079 18.9269C46.9568 17.9539 47.2888 16.9736 47.6048 15.9865C47.2207 14.7805 46.8605 13.5848 46.5246 12.3991C46.1888 11.2135 45.8913 10.0726 45.6311 8.9756H47.2755C47.4258 9.63339 47.6013 10.3161 47.7998 11.0211C47.9984 11.7275 48.214 12.4577 48.4473 13.2107C48.6806 12.3888 48.8895 11.6174 49.075 10.8983C49.2597 10.1781 49.42 9.53059 49.5573 8.95525H51.2233C51.0172 9.94208 50.753 11.0456 50.4313 12.2657C50.1096 13.4858 49.7493 14.7395 49.3519 16.0277C49.6813 17.0145 50.02 17.9846 50.3697 18.9369C50.7196 19.8896 51.0723 20.798 51.4284 21.6609L51.2027 22.2159ZM50.8642 24.0525L51.8193 21.1596V7.845H39.2984V24.1076H37.1194V5.97388H53.9983V21.1686L53.0432 24.0525H50.8642Z" fill="white"/>
<path fill-rule="evenodd" clip-rule="evenodd" d="M59.9753 12.0386H70.6663V10.5377H59.9753V12.0386ZM59.9756 8.97527H70.6666V7.51537H59.9756V8.97527ZM55.9252 19.6663C56.6109 18.6933 57.221 17.6858 57.7556 16.6439C58.29 15.6029 58.7145 14.5954 59.0297 13.6216H57.6929V5.89136H72.9695V13.6216H61.2507C61.1816 13.8687 61.1024 14.1123 61.0137 14.3521C60.9241 14.5916 60.8319 14.8279 60.7356 15.0609H73.381V21.7072L72.4257 24.1279H70.2046L71.16 21.8073V16.8501H69.022C68.7065 18.2614 68.2681 19.5914 67.7058 20.8389C67.1441 22.0859 66.4857 23.1818 65.7319 24.1279H62.9363C63.9362 23.045 64.7665 21.8936 65.424 20.6735C66.0815 19.4544 66.5817 18.1793 66.9249 16.8501H64.4166C63.9232 18.2614 63.286 19.5944 62.5042 20.849C61.7227 22.1027 60.8805 23.1959 59.9756 24.1279H57.0558C58.2208 23.0586 59.2386 21.9041 60.109 20.6631C60.9792 19.4238 61.6818 18.1521 62.2161 16.8501H59.9756C59.4542 17.9191 58.9196 18.8585 58.3719 19.6663H55.9252Z" fill="white"/>
<path fill-rule="evenodd" clip-rule="evenodd" d="M94.1023 15.4528V17.2932H90.3612V22.2076H94.1023V24.0681H84.5164V22.2076H88.2579V17.2932H84.5164V15.4528H94.1023ZM80.2903 18.3853V15.7764H76.2448C76.9055 13.5922 77.4513 11.4488 77.8834 9.34543H76.3663V7.5253H78.207C78.2604 7.22909 78.3114 6.93885 78.3584 6.65566C78.4053 6.37247 78.4492 6.08276 78.4899 5.78601H80.4517L80.1687 7.5253H84.2132V9.34543H79.8044C79.6292 10.195 79.4472 11.0071 79.2584 11.7824C79.0696 12.5579 78.8808 13.2689 78.692 13.9158H80.3301V12.0387H82.2924V13.9158H83.95V14.4214C85.1094 13.3698 86.1849 12.2915 87.1758 11.1859C88.167 10.0805 88.9995 9.05546 89.6738 8.11203H84.5571V6.23114H93.4755C93.1654 6.75656 92.8082 7.31996 92.404 7.91971C91.999 8.51973 91.5609 9.123 91.0895 9.72953C91.345 10.0401 91.6214 10.3838 91.9185 10.7608C92.2147 11.1387 92.5185 11.5328 92.8285 11.9441C93.1388 12.3556 93.4484 12.7768 93.7584 13.2081C94.0687 13.6397 94.3655 14.0574 94.6484 14.4619H91.9792C91.6418 13.9633 91.2948 13.4509 90.9376 12.9249C90.5804 12.3992 90.206 11.8665 89.8149 11.3272C89.2894 11.9612 88.767 12.5476 88.2476 13.0866C87.7289 13.6261 87.2472 14.0845 86.802 14.4619H83.95V15.7764H82.2924V18.1629L84.0919 17.9605V19.8615L82.2924 20.0641V24.1085H80.2903V20.2662L76.4878 20.6706V18.79L80.2903 18.3853Z" fill="white"/>
<path fill-rule="evenodd" clip-rule="evenodd" d="M105.657 5.76587C105.59 5.99535 105.519 6.22104 105.445 6.44347C105.37 6.6659 105.3 6.87802 105.233 7.08038H112.169V14.5226H114.192V16.4235H112.169V21.7073L111.21 24.128H108.89L109.864 21.8074V16.4235H100.723V18.0616C100.723 18.8705 100.699 19.5685 100.652 20.1549C100.605 20.7411 100.531 21.2641 100.43 21.7225C100.329 22.1804 100.2 22.5987 100.045 22.9763C99.8903 23.3533 99.7045 23.7309 99.4888 24.1085H96.9409C97.197 23.6905 97.4194 23.2757 97.6079 22.865C97.797 22.4533 97.9519 22.0155 98.0734 21.5505C98.1949 21.0851 98.2826 20.5694 98.3365 20.0033C98.39 19.4369 98.4174 18.7764 98.4174 18.0215V16.4235H96.0507V14.5226H98.4174V7.08038H102.543C102.705 6.67593 102.846 6.23813 102.968 5.76587H105.657ZM106.109 17.1199L106.502 20.3346L104.213 20.6143L103.82 17.3999L106.109 17.1199ZM109.864 8.9005H100.723V14.5226H109.864V8.9005ZM106.115 10.1583L106.496 13.2797L104.207 13.5594L103.826 10.438L106.115 10.1583Z" fill="white"/>
</svg>
