<svg width="224" height="120" viewBox="0 0 224 120" fill="none" xmlns="http://www.w3.org/2000/svg">
<rect x="0.5" y="0.5" width="223" height="119" rx="3.5" fill="white"/>
<path d="M17.37 58.16C18.49 58.55 19.6 59.06 20.68 59.69L21.07 59.09C19.95 58.54 18.71 58.07 17.37 57.67V57.49H21.22V56.82H17.37V54.82H16.63V56.82H12.78V57.49H15.94C15.38 58.13 14.32 58.7 12.77 59.2L13.16 59.82C14.83 59.17 15.97 58.39 16.57 57.49H16.63V59.31H17.37V58.16ZM16.87 61.44C17.81 62.66 19.22 63.51 21.08 64L21.44 63.36C19.75 62.96 18.44 62.26 17.5 61.25H21.3V60.58H17.21C17.29 60.29 17.36 59.97 17.4 59.63H16.66C16.62 59.97 16.55 60.28 16.45 60.58H12.7V61.25H16.16C16 61.54 15.79 61.8 15.55 62.03C14.94 62.59 13.95 63.02 12.58 63.32L12.86 63.99C14.39 63.62 15.48 63.12 16.13 62.48C16.43 62.18 16.67 61.83 16.87 61.44ZM14.56 54.97L13.94 55.18C14.26 55.61 14.52 56.06 14.72 56.52L15.33 56.36C15.11 55.84 14.85 55.37 14.56 54.97ZM19.41 54.95C19.19 55.5 18.92 55.96 18.61 56.32L19.21 56.54C19.55 56.12 19.83 55.65 20.04 55.11L19.41 54.95ZM22.93 55.28V55.92H23.95V57.42H22.67V58.08H23.91C23.81 58.9 23.48 59.51 22.92 59.93L23.46 60.4C24.12 59.88 24.5 59.11 24.61 58.08H25.92V60.28H26.62V58.08H27.85V57.42H26.62V55.92H27.63V55.28H22.93ZM24.64 55.92H25.92V57.42H24.64V55.92ZM28.44 55.51V58.95H29.13V55.51H28.44ZM23.17 61.26V61.92H26.68V63.09H22.61V63.75H31.39V63.09H27.4V61.92H30.84V61.26H27.4V60.39H26.68V61.26H23.17ZM30.14 60.37C30.67 60.37 30.94 60.06 30.94 59.45V54.96H30.25V59.28C30.25 59.58 30.13 59.74 29.9 59.74C29.5 59.74 29.09 59.72 28.65 59.69L28.8 60.37H30.14Z" fill="#666666"/>
<path d="M36.18 55.86L36.26 57.81L34.47 57.13L34.25 57.79L36.09 58.34L34.85 59.81L35.39 60.24L36.53 58.66L37.67 60.24L38.21 59.81L36.97 58.34L38.81 57.79L38.59 57.13L36.81 57.81L36.88 55.86H36.18Z" fill="#E95446"/>
<path d="M71.37 58.16C72.49 58.55 73.6 59.06 74.68 59.69L75.07 59.09C73.95 58.54 72.71 58.07 71.37 57.67V57.49H75.22V56.82H71.37V54.82H70.63V56.82H66.78V57.49H69.94C69.38 58.13 68.32 58.7 66.77 59.2L67.16 59.82C68.83 59.17 69.97 58.39 70.57 57.49H70.63V59.31H71.37V58.16ZM70.87 61.44C71.81 62.66 73.22 63.51 75.08 64L75.44 63.36C73.75 62.96 72.44 62.26 71.5 61.25H75.3V60.58H71.21C71.29 60.29 71.36 59.97 71.4 59.63H70.66C70.62 59.97 70.55 60.28 70.45 60.58H66.7V61.25H70.16C70 61.54 69.79 61.8 69.55 62.03C68.94 62.59 67.95 63.02 66.58 63.32L66.86 63.99C68.39 63.62 69.48 63.12 70.13 62.48C70.43 62.18 70.67 61.83 70.87 61.44ZM68.56 54.97L67.94 55.18C68.26 55.61 68.52 56.06 68.72 56.52L69.33 56.36C69.11 55.84 68.85 55.37 68.56 54.97ZM73.41 54.95C73.19 55.5 72.92 55.96 72.61 56.32L73.21 56.54C73.55 56.12 73.83 55.65 74.04 55.11L73.41 54.95ZM76.93 55.28V55.92H77.95V57.42H76.67V58.08H77.91C77.81 58.9 77.48 59.51 76.92 59.93L77.46 60.4C78.12 59.88 78.5 59.11 78.61 58.08H79.92V60.28H80.62V58.08H81.85V57.42H80.62V55.92H81.63V55.28H76.93ZM78.64 55.92H79.92V57.42H78.64V55.92ZM82.44 55.51V58.95H83.13V55.51H82.44ZM77.17 61.26V61.92H80.68V63.09H76.61V63.75H85.39V63.09H81.4V61.92H84.84V61.26H81.4V60.39H80.68V61.26H77.17ZM84.14 60.37C84.67 60.37 84.94 60.06 84.94 59.45V54.96H84.25V59.28C84.25 59.58 84.13 59.74 83.9 59.74C83.5 59.74 83.09 59.72 82.65 59.69L82.8 60.37H84.14ZM90.81 55.86L88 63H88.88L89.64 61H92.92L93.68 63H94.57L91.76 55.86H90.81ZM89.9 60.31L91.27 56.74H91.31L92.66 60.31H89.9Z" fill="#333333"/>
<path d="M148.37 58.16C149.49 58.55 150.6 59.06 151.68 59.69L152.07 59.09C150.95 58.54 149.71 58.07 148.37 57.67V57.49H152.22V56.82H148.37V54.82H147.63V56.82H143.78V57.49H146.94C146.38 58.13 145.32 58.7 143.77 59.2L144.16 59.82C145.83 59.17 146.97 58.39 147.57 57.49H147.63V59.31H148.37V58.16ZM147.87 61.44C148.81 62.66 150.22 63.51 152.08 64L152.44 63.36C150.75 62.96 149.44 62.26 148.5 61.25H152.3V60.58H148.21C148.29 60.29 148.36 59.97 148.4 59.63H147.66C147.62 59.97 147.55 60.28 147.45 60.58H143.7V61.25H147.16C147 61.54 146.79 61.8 146.55 62.03C145.94 62.59 144.95 63.02 143.58 63.32L143.86 63.99C145.39 63.62 146.48 63.12 147.13 62.48C147.43 62.18 147.67 61.83 147.87 61.44ZM145.56 54.97L144.94 55.18C145.26 55.61 145.52 56.06 145.72 56.52L146.33 56.36C146.11 55.84 145.85 55.37 145.56 54.97ZM150.41 54.95C150.19 55.5 149.92 55.96 149.61 56.32L150.21 56.54C150.55 56.12 150.83 55.65 151.04 55.11L150.41 54.95ZM153.93 55.28V55.92H154.95V57.42H153.67V58.08H154.91C154.81 58.9 154.48 59.51 153.92 59.93L154.46 60.4C155.12 59.88 155.5 59.11 155.61 58.08H156.92V60.28H157.62V58.08H158.85V57.42H157.62V55.92H158.63V55.28H153.93ZM155.64 55.92H156.92V57.42H155.64V55.92ZM159.44 55.51V58.95H160.13V55.51H159.44ZM154.17 61.26V61.92H157.68V63.09H153.61V63.75H162.39V63.09H158.4V61.92H161.84V61.26H158.4V60.39H157.68V61.26H154.17ZM161.14 60.37C161.67 60.37 161.94 60.06 161.94 59.45V54.96H161.25V59.28C161.25 59.58 161.13 59.74 160.9 59.74C160.5 59.74 160.09 59.72 159.65 59.69L159.8 60.37H161.14ZM165.72 55.86V63H168.89C169.62 63 170.2 62.85 170.62 62.57C171.11 62.23 171.36 61.71 171.36 61.01C171.36 60.53 171.22 60.15 170.96 59.85C170.7 59.55 170.34 59.35 169.87 59.27C170.23 59.15 170.52 58.96 170.74 58.7C170.95 58.41 171.06 58.06 171.06 57.66C171.06 57.1 170.87 56.66 170.49 56.34C170.1 56.02 169.57 55.86 168.91 55.86H165.72ZM166.54 56.55H168.72C169.22 56.55 169.6 56.64 169.86 56.84C170.12 57.04 170.25 57.34 170.25 57.74C170.25 58.15 170.11 58.46 169.85 58.67C169.59 58.87 169.21 58.98 168.71 58.98H166.54V56.55ZM166.54 59.66H168.82C169.37 59.66 169.79 59.76 170.08 59.98C170.38 60.2 170.54 60.54 170.54 61C170.54 61.46 170.36 61.81 170.01 62.03C169.71 62.21 169.32 62.31 168.82 62.31H166.54V59.66Z" fill="#333333"/>
<path d="M15.55 32.38H20.02V32.97H20.75V28.75H16.58C18.46 27.88 19.75 26.76 20.47 25.39V24.75H16.57C16.77 24.48 16.95 24.2 17.11 23.9L16.32 23.81C15.72 24.87 14.57 25.77 12.86 26.5L13.34 27.12C14.4 26.62 15.26 26.06 15.94 25.43H19.64C19.17 26.25 18.43 26.96 17.41 27.57C16.98 27.2 16.38 26.78 15.62 26.31L15 26.7C15.76 27.13 16.36 27.53 16.8 27.9C15.65 28.48 14.21 28.94 12.48 29.3L12.86 29.99C13.56 29.82 14.21 29.64 14.83 29.44V32.97H15.55V32.38ZM20.02 31.68H15.55V29.42H20.02V31.68ZM22.58 26.57V27.26H23.96C23.64 28.4 23.1 29.41 22.34 30.3L22.65 31.1C23.23 30.3 23.7 29.41 24.04 28.43V32.97H24.73V28.45C25.03 28.8 25.4 29.27 25.82 29.87L26.22 29.27C25.72 28.73 25.23 28.25 24.73 27.81V27.26H25.96V26.57H24.73V25.03C25.24 24.93 25.72 24.81 26.16 24.69L25.91 24.01C24.95 24.31 23.86 24.51 22.62 24.62L22.76 25.3C23.2 25.26 23.62 25.2 24.04 25.14V26.57H22.58ZM28.26 32.95C28.83 32.95 29.12 32.65 29.12 32.05V26.76H28.38V31.87C28.38 32.16 28.25 32.31 28.01 32.31C27.74 32.31 27.45 32.29 27.15 32.26L27.3 32.95H28.26ZM27 28.2C26.75 29.36 26.36 30.43 25.82 31.39L26.44 31.78C26.97 30.81 27.38 29.66 27.67 28.33L27 28.2ZM30.42 28.13L29.77 28.34C30.19 29.37 30.58 30.55 30.93 31.88L31.59 31.59C31.26 30.36 30.87 29.21 30.42 28.13ZM27.68 25.91H30.54C30.42 26.49 30.27 27.01 30.09 27.48L30.79 27.69C30.99 27.03 31.14 26.36 31.26 25.68V25.21H27.95C28.09 24.79 28.21 24.35 28.3 23.89L27.59 23.8C27.35 25.08 26.88 26.16 26.2 27.04L26.64 27.61C27.05 27.11 27.4 26.54 27.68 25.91Z" fill="#666666"/>
<path d="M36.18 24.86L36.26 26.81L34.47 26.13L34.25 26.79L36.09 27.34L34.85 28.81L35.39 29.24L36.53 27.66L37.67 29.24L38.21 28.81L36.97 27.34L38.81 26.79L38.59 26.13L36.81 26.81L36.88 24.86H36.18Z" fill="#E95446"/>
<path d="M64.73 25.44H61.37V23.87H60.63V25.44H57.27V32.95H57.99V32.3H64.01V32.95H64.73V25.44ZM57.99 31.61V29.1H60.63V31.61H57.99ZM61.37 31.61V29.1H64.01V31.61H61.37ZM57.99 28.43V26.13H60.63V28.43H57.99ZM61.37 26.13H64.01V28.43H61.37V26.13ZM75.24 24.86H71.47C71.34 24.45 71.2 24.08 71.06 23.75L70.24 23.89C70.4 24.18 70.55 24.5 70.69 24.86H66.76V27.09H67.48V25.55H74.52V27.09H75.24V24.86ZM68.3 26.63V27.3H72.59C72.18 27.56 71.57 27.91 70.76 28.33V29.31H66.58V30.01H70.76V31.88C70.76 32.17 70.63 32.32 70.37 32.32C69.95 32.32 69.57 32.31 69.22 32.3L69.39 32.96H70.62C71.2 32.96 71.49 32.68 71.49 32.13V30.01H75.43V29.31H71.49V28.64C72.29 28.2 73.02 27.76 73.67 27.3V26.63H68.3ZM77.28 31.28H83.32C83.3 31.41 83.28 31.5 83.27 31.55C83.15 31.85 82.99 32.05 82.77 32.14C82.55 32.2 82.3 32.24 82.01 32.24C81.68 32.24 81.31 32.23 80.89 32.21L81.13 32.9H82.11C82.67 32.9 83.09 32.81 83.38 32.64C83.66 32.44 83.86 32.13 83.97 31.73C83.99 31.65 84.01 31.5 84.03 31.28H85.23V30.6H84.08C84.12 29.98 84.16 29.12 84.2 28.01H85.49V27.31H84.23L84.32 24.21H78.02C78 25.25 77.94 26.29 77.84 27.31H76.53V28.01H77.77C77.65 29.11 77.48 30.2 77.28 31.28ZM83.38 30.6H78.13C78.28 29.82 78.4 28.95 78.5 28.01H83.5C83.46 29.13 83.42 30 83.38 30.6ZM78.57 27.31C78.63 26.55 78.67 25.75 78.71 24.89H83.59L83.52 27.31H78.57ZM80.46 25.29L79.98 25.72C80.58 26.12 81.14 26.59 81.67 27.13L82.1 26.64C81.6 26.12 81.05 25.67 80.46 25.29ZM80.23 28.33L79.8 28.83C80.38 29.24 80.94 29.73 81.49 30.29L81.94 29.79C81.43 29.27 80.86 28.78 80.23 28.33ZM87.73 30.6L87.28 31.02C87.65 31.3 88.02 31.63 88.39 32.03C88.71 32.37 89 32.71 89.24 33.05L89.74 32.63C89.5 32.29 89.21 31.94 88.88 31.6C88.5 31.2 88.11 30.87 87.73 30.6ZM102.58 26.05H104.06C104.02 27.4 103.81 28.58 103.42 29.59C103.02 28.75 102.7 27.74 102.45 26.57L102.58 26.05ZM103.09 30.31C102.63 31.16 102.02 31.85 101.24 32.39L101.61 32.99C102.36 32.45 102.98 31.78 103.46 30.98C103.96 31.82 104.56 32.5 105.26 33L105.65 32.41C104.93 31.92 104.32 31.23 103.8 30.33C104.36 29.15 104.67 27.72 104.72 26.05H105.37V25.36H102.73C102.81 24.92 102.89 24.44 102.95 23.93L102.25 23.81C102.05 25.71 101.65 27.22 101.06 28.34L101.51 28.89C101.72 28.53 101.92 28.12 102.1 27.66C102.37 28.66 102.7 29.54 103.09 30.31ZM98.35 28.48C98.28 28.68 98.2 28.89 98.11 29.11H96.65V29.74H97.83C97.63 30.14 97.4 30.55 97.14 30.99C97.63 31.17 98.09 31.36 98.53 31.55C97.95 31.88 97.24 32.15 96.42 32.37L96.76 32.97C97.76 32.69 98.59 32.32 99.25 31.86C99.84 32.12 100.35 32.39 100.79 32.65L101.18 32.09C100.74 31.85 100.28 31.63 99.8 31.41C100.32 30.93 100.69 30.36 100.91 29.7V29.11H98.82C98.88 28.93 98.95 28.75 99.02 28.56L98.35 28.48ZM99.14 31.13C98.78 30.98 98.4 30.84 98 30.7C98.2 30.4 98.38 30.08 98.54 29.74H100.26C100.02 30.26 99.64 30.73 99.14 31.13ZM97.44 24.02L96.87 24.21C97.11 24.59 97.33 25.02 97.54 25.51L98.06 25.27C97.88 24.83 97.68 24.41 97.44 24.02ZM100.48 23.99C100.3 24.41 100.04 24.83 99.72 25.26L100.23 25.52C100.55 25.1 100.8 24.67 101 24.23L100.48 23.99ZM96.67 25.75V26.38H98.09C97.79 26.93 97.25 27.43 96.48 27.88L96.83 28.46C97.69 27.88 98.29 27.2 98.62 26.41V28.31H99.29V27.01C99.65 27.25 100.08 27.57 100.58 27.97L100.95 27.41C100.39 27.07 99.83 26.76 99.29 26.49V26.38H101.11V25.75H99.29V23.84H98.62V25.75H96.67ZM115.24 24.86H111.47C111.34 24.45 111.2 24.08 111.06 23.75L110.24 23.89C110.4 24.18 110.55 24.5 110.69 24.86H106.76V27.09H107.48V25.55H114.52V27.09H115.24V24.86ZM108.3 26.63V27.3H112.59C112.18 27.56 111.57 27.91 110.76 28.33V29.31H106.58V30.01H110.76V31.88C110.76 32.17 110.63 32.32 110.37 32.32C109.95 32.32 109.57 32.31 109.22 32.3L109.39 32.96H110.62C111.2 32.96 111.49 32.68 111.49 32.13V30.01H115.43V29.31H111.49V28.64C112.29 28.2 113.02 27.76 113.67 27.3V26.63H108.3ZM125.1 24.51H121.28V32.7H121.97V31.81H124.4V32.6H125.1V24.51ZM121.97 31.13V25.18H124.4V31.13H121.97ZM116.71 26.58V27.25H118.46V27.32C118.05 28.42 117.38 29.41 116.45 30.29L116.75 31.07C117.46 30.3 118.03 29.44 118.46 28.49V32.93H119.16V28.42C119.53 28.84 119.97 29.41 120.49 30.12L120.91 29.5C120.32 28.84 119.74 28.26 119.16 27.75V27.25H120.87V26.58H119.16V25C119.72 24.88 120.25 24.72 120.77 24.53L120.43 23.93C119.43 24.31 118.19 24.56 116.7 24.68L116.93 25.32C117.45 25.28 117.96 25.22 118.46 25.14V26.58H116.71ZM130.63 23.79V25.59H127.05V30.29H127.77V29.66H130.63V33.07H131.37V29.66H134.24V30.29H134.96V25.59H131.37V23.79H130.63ZM127.77 28.96V26.29H130.63V28.96H127.77ZM131.37 28.96V26.29H134.24V28.96H131.37ZM142.43 24.7V30.94H143.13V24.7H142.43ZM144.21 32.91C144.83 32.91 145.15 32.6 145.15 31.98V23.86H144.43V31.8C144.43 32.11 144.27 32.27 143.96 32.27C143.54 32.27 143.09 32.25 142.61 32.22L142.77 32.91H144.21ZM141.43 26.06L138.58 26.5C138.52 25.71 138.49 24.83 138.49 23.85H137.75C137.75 24.87 137.79 25.79 137.87 26.61L136.53 26.82L136.64 27.52L137.94 27.32C138.02 28.02 138.12 28.63 138.26 29.15C138.37 29.59 138.49 29.99 138.63 30.36C137.98 30.96 137.23 31.42 136.39 31.75L136.82 32.4C137.59 32.08 138.29 31.64 138.93 31.1C139.08 31.43 139.25 31.72 139.43 31.98C139.89 32.62 140.35 32.94 140.81 32.94C141.06 32.94 141.29 32.72 141.49 32.3C141.65 31.95 141.8 31.52 141.94 31L141.33 30.61C141.13 31.63 140.95 32.15 140.77 32.18C140.47 32.17 140.13 31.87 139.76 31.28C139.65 31.08 139.54 30.86 139.44 30.61C140.17 29.85 140.79 28.9 141.29 27.78L140.66 27.45C140.25 28.36 139.75 29.15 139.16 29.82C139.05 29.48 138.95 29.1 138.86 28.67C138.77 28.23 138.7 27.75 138.64 27.21L141.54 26.76L141.43 26.06ZM139.81 23.81L139.22 24.1C139.59 24.54 139.94 25.03 140.27 25.58L140.88 25.28C140.54 24.75 140.19 24.26 139.81 23.81ZM149.98 31.01C149 31.39 147.85 31.7 146.53 31.92L146.62 32.62C147.88 32.39 149 32.08 149.98 31.7V31.01ZM148.2 23.78C147.8 24.97 147.33 26.03 146.79 26.95C146.7 27.08 146.6 27.17 146.49 27.21L146.66 27.87C147.22 27.8 147.78 27.73 148.33 27.65C147.81 28.58 147.36 29.24 146.99 29.62C146.9 29.7 146.79 29.77 146.66 29.83L146.86 30.49C147.82 30.36 148.82 30.12 149.87 29.78V29.13C149.15 29.37 148.43 29.56 147.71 29.7C148.29 28.99 149.03 27.79 149.91 26.1L149.27 25.86C149.07 26.26 148.87 26.64 148.69 27C148.24 27.07 147.79 27.13 147.34 27.17C147.86 26.39 148.38 25.35 148.89 24.05L148.2 23.78ZM154.83 25.6L152.34 25.95V23.83H151.62V26.05L150.09 26.27L150.2 26.93L151.64 26.72C151.65 27.2 151.68 27.66 151.73 28.09L149.92 28.38L150.02 29.06L151.82 28.77C151.86 29.03 151.9 29.28 151.96 29.54C152.08 30.08 152.23 30.56 152.42 31C151.68 31.55 150.85 31.97 149.93 32.27L150.35 32.85C151.2 32.59 152 32.18 152.74 31.63C152.8 31.76 152.88 31.88 152.97 32C153.4 32.6 153.85 32.9 154.33 32.92C154.85 32.92 155.25 32.25 155.53 30.93L154.92 30.53C154.74 31.6 154.51 32.14 154.25 32.14C153.99 32.14 153.7 31.89 153.37 31.4C153.33 31.34 153.3 31.27 153.26 31.21C153.88 30.67 154.45 30.01 154.98 29.24L154.41 28.85C153.99 29.49 153.51 30.05 152.97 30.55C152.83 30.15 152.71 29.7 152.61 29.18C152.58 29.02 152.55 28.84 152.53 28.66L155.21 28.24L155.1 27.56L152.45 27.98C152.41 27.55 152.38 27.1 152.36 26.62L154.93 26.26L154.83 25.6ZM153.46 23.8L152.9 24.15C153.4 24.61 153.8 25.04 154.08 25.43L154.64 25.04C154.36 24.69 153.97 24.28 153.46 23.8ZM159.94 30.76C159 31.19 157.89 31.53 156.61 31.79L156.7 32.5C157.92 32.24 159 31.88 159.94 31.44V30.76ZM158.37 23.84C157.93 24.98 157.42 25.98 156.83 26.86C156.73 27 156.63 27.09 156.52 27.13L156.7 27.8C157.3 27.72 157.88 27.64 158.46 27.55C157.89 28.48 157.41 29.14 157.01 29.53C156.92 29.61 156.81 29.68 156.68 29.74L156.87 30.41C157.87 30.27 158.91 30 160 29.61V28.95C159.26 29.23 158.52 29.45 157.78 29.61C158.41 28.88 159.2 27.66 160.16 25.94L159.51 25.69C159.28 26.12 159.06 26.52 158.85 26.89C158.37 26.97 157.9 27.04 157.42 27.08C157.97 26.34 158.51 25.35 159.05 24.11L158.37 23.84ZM164.7 24.3H160.64V31.95H159.77V32.65H165.55V31.95H164.7V24.3ZM161.35 31.95V30.05H163.99V31.95H161.35ZM161.35 29.37V27.48H163.99V29.37H161.35ZM161.35 26.8V24.99H163.99V26.8H161.35ZM173.44 23.8L172.98 24.24C173.49 24.63 173.89 25 174.19 25.36H172.32C172.3 24.88 172.29 24.37 172.29 23.81H171.55C171.55 24.35 171.56 24.86 171.58 25.36H167.45V28.69C167.42 30.32 167.09 31.59 166.45 32.51L167 33C167.74 31.92 168.14 30.48 168.18 28.69V28.39H169.91C169.89 29.49 169.86 30.21 169.8 30.55C169.74 30.83 169.6 30.98 169.38 30.99C169.11 30.99 168.78 30.98 168.39 30.96L168.61 31.61C168.93 31.63 169.22 31.65 169.46 31.65C169.96 31.63 170.27 31.41 170.4 30.98C170.53 30.49 170.61 29.4 170.63 27.71H168.18V26.05H171.61C171.69 27.3 171.83 28.35 172.05 29.19C172.16 29.62 172.29 30.02 172.43 30.39C171.74 31.26 170.89 31.92 169.89 32.37L170.29 32.97C171.23 32.55 172.05 31.94 172.75 31.12C172.9 31.43 173.07 31.71 173.25 31.95C173.73 32.55 174.18 32.85 174.6 32.85C175.05 32.85 175.39 32.18 175.63 30.85L174.98 30.49C174.83 31.52 174.66 32.04 174.48 32.05C174.28 32.05 174.01 31.81 173.68 31.33C173.52 31.1 173.37 30.82 173.23 30.5C173.87 29.6 174.39 28.48 174.79 27.16L174.14 26.88C173.83 27.95 173.43 28.89 172.93 29.69C172.86 29.47 172.79 29.24 172.73 28.99C172.55 28.27 172.42 27.29 172.35 26.05H175.43V25.36H174.21L174.67 24.9C174.33 24.53 173.92 24.16 173.44 23.8Z" fill="#CCCCCC"/>
<path d="M48.5 18C48.5 17.1716 49.1716 16.5 50 16.5H210C210.828 16.5 211.5 17.1716 211.5 18V38C211.5 38.8284 210.828 39.5 210 39.5H50C49.1716 39.5 48.5 38.8284 48.5 38V18Z" stroke="#E5E5E5"/>
<circle cx="55" cy="59" r="6.5" stroke="#E5E5E5"/>
<circle cx="132" cy="59" r="6.5" stroke="#E5E5E5"/>
<rect x="48" y="80" width="80" height="24" rx="2" fill="#337EFF"/>
<path d="M68.83 89.44V90.14H77.2V89.44H73.45C73.3 88.84 73.15 88.3 72.99 87.83L72.16 87.97C72.34 88.41 72.51 88.9 72.67 89.44H68.83ZM68.49 95.72V96.42H77.54V95.72H74.27C74.89 94.32 75.4 92.72 75.81 90.92L75.05 90.72C74.59 92.72 74.06 94.39 73.45 95.72H68.49ZM70.98 90.76L70.23 91.01C70.69 92.42 71.08 93.89 71.38 95.41L72.15 95.22C71.81 93.54 71.42 92.06 70.98 90.76ZM79.69 90.84H82.06V92.22H79.69V90.84ZM82.06 90.19H79.69V88.88H82.06V90.19ZM78.9 96.7C80.21 96.38 81.37 96 82.37 95.58C82.55 95.9 82.71 96.22 82.85 96.53L83.4 96.13C83.07 95.41 82.59 94.56 81.96 93.59L81.41 93.94C81.63 94.28 81.84 94.63 82.04 94.98C81.35 95.25 80.57 95.51 79.69 95.77V92.89H82.74V88.23H78.98V95.63C78.98 95.81 78.87 95.94 78.65 96.01L78.9 96.7ZM86.28 95.62C86.88 95.62 87.18 95.31 87.18 94.69V88.23H83.92V96.97H84.64V88.91H86.46V94.53C86.46 94.8 86.32 94.94 86.04 94.94L85.19 94.92L85.38 95.62H86.28ZM92.29 91.68V93.48C92.29 93.75 92.15 93.89 91.89 93.89C91.59 93.89 91.25 93.87 90.87 93.83L91.05 94.51C91.4 94.53 91.77 94.54 92.15 94.54C92.7 94.52 92.98 94.24 92.99 93.7V91.04H89.43V96.06C89.43 96.57 89.7 96.83 90.26 96.83H92.64C93.11 96.83 93.43 96.75 93.59 96.59C93.77 96.39 93.9 95.87 93.97 95.02L93.29 94.8C93.25 95.35 93.18 95.72 93.09 95.91C93.01 96.07 92.79 96.16 92.45 96.16H90.54C90.28 96.16 90.16 96.04 90.16 95.81V91.68H92.29ZM91.02 87.92C90.22 89.12 89.33 90.16 88.35 91.05L88.77 91.63C89.75 90.71 90.6 89.7 91.34 88.6C91.98 89.28 92.73 90.19 93.59 91.33L94.06 90.83C93.26 89.81 92.42 88.84 91.55 87.92H91.02ZM94.65 88.71V94.94H95.35V88.71H94.65ZM96.32 96.91C96.88 96.91 97.17 96.6 97.17 96V87.86H96.45V95.82C96.45 96.12 96.32 96.27 96.07 96.27C95.61 96.27 95.12 96.25 94.61 96.22L94.77 96.91H96.32ZM106.74 91.93V90.53H107.41V89.93H106.74V88.54H104.6V87.81H103.9V88.54H102.15V89.14H103.9V89.93H101.66V90.53H103.9V91.33H102.15V91.93H103.9V92.73H101.94V93.32H103.9V94.15H101.63V94.76H103.9V95.75H104.6V94.76H107.23V94.15H104.6V93.32H106.94V92.73H104.6V91.93H106.74ZM104.6 89.14H106.04V89.93H104.6V89.14ZM104.6 90.53H106.04V91.33H104.6V90.53ZM104.13 96.11C102.77 96.09 101.74 95.9 101.06 95.52C100.89 95.42 100.73 95.29 100.57 95.12C101.05 94.2 101.32 93.08 101.36 91.76V91.33H99.79C100.27 90.65 100.77 89.86 101.27 88.94V88.35H98.82V89.03H100.46C99.98 89.89 99.44 90.69 98.86 91.43V91.99H100.71C100.65 92.94 100.45 93.77 100.11 94.48C99.85 94.04 99.61 93.46 99.41 92.75L98.81 92.97C99.05 93.83 99.37 94.54 99.76 95.1C99.44 95.56 99.05 95.96 98.58 96.3L99.05 96.91C99.51 96.56 99.91 96.15 100.23 95.68C100.33 95.78 100.44 95.87 100.57 95.97C101.35 96.49 102.64 96.75 104.44 96.75H107.4L107.52 96.06C106.36 96.09 105.23 96.11 104.13 96.11Z" fill="white"/>
<rect x="0.5" y="0.5" width="223" height="119" rx="3.5" stroke="#E5E5E5"/>
</svg>
