<svg width="200" height="94" viewBox="0 0 200 94" fill="none" xmlns="http://www.w3.org/2000/svg">
<rect x="36" y="66" width="91" height="28" rx="2" fill="#5A89E1"/>
<path d="M62.83 77.44V78.14H71.2V77.44H67.45C67.3 76.84 67.15 76.3 66.99 75.83L66.16 75.97C66.34 76.41 66.51 76.9 66.67 77.44H62.83ZM62.49 83.72V84.42H71.54V83.72H68.27C68.89 82.32 69.4 80.72 69.81 78.92L69.05 78.72C68.59 80.72 68.06 82.39 67.45 83.72H62.49ZM64.98 78.76L64.23 79.01C64.69 80.42 65.08 81.89 65.38 83.41L66.15 83.22C65.81 81.54 65.42 80.06 64.98 78.76ZM73.69 78.84H76.06V80.22H73.69V78.84ZM76.06 78.19H73.69V76.88H76.06V78.19ZM72.9 84.7C74.21 84.38 75.37 84 76.37 83.58C76.55 83.9 76.71 84.22 76.85 84.53L77.4 84.13C77.07 83.41 76.59 82.56 75.96 81.59L75.41 81.94C75.63 82.28 75.84 82.63 76.04 82.98C75.35 83.25 74.57 83.51 73.69 83.77V80.89H76.74V76.23H72.98V83.63C72.98 83.81 72.87 83.94 72.65 84.01L72.9 84.7ZM80.28 83.62C80.88 83.62 81.18 83.31 81.18 82.69V76.23H77.92V84.97H78.64V76.91H80.46V82.53C80.46 82.8 80.32 82.94 80.04 82.94L79.19 82.92L79.38 83.62H80.28ZM86.29 79.68V81.48C86.29 81.75 86.15 81.89 85.89 81.89C85.59 81.89 85.25 81.87 84.87 81.83L85.05 82.51C85.4 82.53 85.77 82.54 86.15 82.54C86.7 82.52 86.98 82.24 86.99 81.7V79.04H83.43V84.06C83.43 84.57 83.7 84.83 84.26 84.83H86.64C87.11 84.83 87.43 84.75 87.59 84.59C87.77 84.39 87.9 83.87 87.97 83.02L87.29 82.8C87.25 83.35 87.18 83.72 87.09 83.91C87.01 84.07 86.79 84.16 86.45 84.16H84.54C84.28 84.16 84.16 84.04 84.16 83.81V79.68H86.29ZM85.02 75.92C84.22 77.12 83.33 78.16 82.35 79.05L82.77 79.63C83.75 78.71 84.6 77.7 85.34 76.6C85.98 77.28 86.73 78.19 87.59 79.33L88.06 78.83C87.26 77.81 86.42 76.84 85.55 75.92H85.02ZM88.65 76.71V82.94H89.35V76.71H88.65ZM90.32 84.91C90.88 84.91 91.17 84.6 91.17 84V75.86H90.45V83.82C90.45 84.12 90.32 84.27 90.07 84.27C89.61 84.27 89.12 84.25 88.61 84.22L88.77 84.91H90.32ZM100.74 79.93V78.53H101.41V77.93H100.74V76.54H98.6V75.81H97.9V76.54H96.15V77.14H97.9V77.93H95.66V78.53H97.9V79.33H96.15V79.93H97.9V80.73H95.94V81.32H97.9V82.15H95.63V82.76H97.9V83.75H98.6V82.76H101.23V82.15H98.6V81.32H100.94V80.73H98.6V79.93H100.74ZM98.6 77.14H100.04V77.93H98.6V77.14ZM98.6 78.53H100.04V79.33H98.6V78.53ZM98.13 84.11C96.77 84.09 95.74 83.9 95.06 83.52C94.89 83.42 94.73 83.29 94.57 83.12C95.05 82.2 95.32 81.08 95.36 79.76V79.33H93.79C94.27 78.65 94.77 77.86 95.27 76.94V76.35H92.82V77.03H94.46C93.98 77.89 93.44 78.69 92.86 79.43V79.99H94.71C94.65 80.94 94.45 81.77 94.11 82.48C93.85 82.04 93.61 81.46 93.41 80.75L92.81 80.97C93.05 81.83 93.37 82.54 93.76 83.1C93.44 83.56 93.05 83.96 92.58 84.3L93.05 84.91C93.51 84.56 93.91 84.15 94.23 83.68C94.33 83.78 94.44 83.87 94.57 83.97C95.35 84.49 96.64 84.75 98.44 84.75H101.4L101.52 84.06C100.36 84.09 99.23 84.11 98.13 84.11Z" fill="white"/>
<path d="M3.55 18.38H8.02V18.97H8.75V14.75H4.58C6.46 13.88 7.75 12.76 8.47 11.39V10.75H4.57C4.77 10.48 4.95 10.2 5.11 9.9L4.32 9.81C3.72 10.87 2.57 11.77 0.86 12.5L1.34 13.12C2.4 12.62 3.26 12.06 3.94 11.43H7.64C7.17 12.25 6.43 12.96 5.41 13.57C4.98 13.2 4.38 12.78 3.62 12.31L3 12.7C3.76 13.13 4.36 13.53 4.8 13.9C3.65 14.48 2.21 14.94 0.48 15.3L0.86 15.99C1.56 15.82 2.21 15.64 2.83 15.44V18.97H3.55V18.38ZM8.02 17.68H3.55V15.42H8.02V17.68ZM10.58 12.57V13.26H11.96C11.64 14.4 11.1 15.41 10.34 16.3L10.65 17.1C11.23 16.3 11.7 15.41 12.04 14.43V18.97H12.73V14.45C13.03 14.8 13.4 15.27 13.82 15.87L14.22 15.27C13.72 14.73 13.23 14.25 12.73 13.81V13.26H13.96V12.57H12.73V11.03C13.24 10.93 13.72 10.81 14.16 10.69L13.91 10.01C12.95 10.31 11.86 10.51 10.62 10.62L10.76 11.3C11.2 11.26 11.62 11.2 12.04 11.14V12.57H10.58ZM16.26 18.95C16.83 18.95 17.12 18.65 17.12 18.05V12.76H16.38V17.87C16.38 18.16 16.25 18.31 16.01 18.31C15.74 18.31 15.45 18.29 15.15 18.26L15.3 18.95H16.26ZM15 14.2C14.75 15.36 14.36 16.43 13.82 17.39L14.44 17.78C14.97 16.81 15.38 15.66 15.67 14.33L15 14.2ZM18.42 14.13L17.77 14.34C18.19 15.37 18.58 16.55 18.93 17.88L19.59 17.59C19.26 16.36 18.87 15.21 18.42 14.13ZM15.68 11.91H18.54C18.42 12.49 18.27 13.01 18.09 13.48L18.79 13.69C18.99 13.03 19.14 12.36 19.26 11.68V11.21H15.95C16.09 10.79 16.21 10.35 16.3 9.89L15.59 9.8C15.35 11.08 14.88 12.16 14.2 13.04L14.64 13.61C15.05 13.11 15.4 12.54 15.68 11.91Z" fill="#666666"/>
<path d="M24.18 10.86L24.26 12.81L22.47 12.13L22.25 12.79L24.09 13.34L22.85 14.81L23.39 15.24L24.53 13.66L25.67 15.24L26.21 14.81L24.97 13.34L26.81 12.79L26.59 12.13L24.81 12.81L24.88 10.86H24.18Z" fill="#E95446"/>
<path d="M5.37 46.16C6.49 46.55 7.6 47.06 8.68 47.69L9.07 47.09C7.95 46.54 6.71 46.07 5.37 45.67V45.49H9.22V44.82H5.37V42.82H4.63V44.82H0.78V45.49H3.94C3.38 46.13 2.32 46.7 0.77 47.2L1.16 47.82C2.83 47.17 3.97 46.39 4.57 45.49H4.63V47.31H5.37V46.16ZM4.87 49.44C5.81 50.66 7.22 51.51 9.08 52L9.44 51.36C7.75 50.96 6.44 50.26 5.5 49.25H9.3V48.58H5.21C5.29 48.29 5.36 47.97 5.4 47.63H4.66C4.62 47.97 4.55 48.28 4.45 48.58H0.7V49.25H4.16C4 49.54 3.79 49.8 3.55 50.03C2.94 50.59 1.95 51.02 0.58 51.32L0.86 51.99C2.39 51.62 3.48 51.12 4.13 50.48C4.43 50.18 4.67 49.83 4.87 49.44ZM2.56 42.97L1.94 43.18C2.26 43.61 2.52 44.06 2.72 44.52L3.33 44.36C3.11 43.84 2.85 43.37 2.56 42.97ZM7.41 42.95C7.19 43.5 6.92 43.96 6.61 44.32L7.21 44.54C7.55 44.12 7.83 43.65 8.04 43.11L7.41 42.95ZM10.93 43.28V43.92H11.95V45.42H10.67V46.08H11.91C11.81 46.9 11.48 47.51 10.92 47.93L11.46 48.4C12.12 47.88 12.5 47.11 12.61 46.08H13.92V48.28H14.62V46.08H15.85V45.42H14.62V43.92H15.63V43.28H10.93ZM12.64 43.92H13.92V45.42H12.64V43.92ZM16.44 43.51V46.95H17.13V43.51H16.44ZM11.17 49.26V49.92H14.68V51.09H10.61V51.75H19.39V51.09H15.4V49.92H18.84V49.26H15.4V48.39H14.68V49.26H11.17ZM18.14 48.37C18.67 48.37 18.94 48.06 18.94 47.45V42.96H18.25V47.28C18.25 47.58 18.13 47.74 17.9 47.74C17.5 47.74 17.09 47.72 16.65 47.69L16.8 48.37H18.14Z" fill="#666666"/>
<path d="M24.18 43.86L24.26 45.81L22.47 45.13L22.25 45.79L24.09 46.34L22.85 47.81L23.39 48.24L24.53 46.66L25.67 48.24L26.21 47.81L24.97 46.34L26.81 45.79L26.59 45.13L24.81 45.81L24.88 43.86H24.18Z" fill="#E95446"/>
<path d="M59.37 46.16C60.49 46.55 61.6 47.06 62.68 47.69L63.07 47.09C61.95 46.54 60.71 46.07 59.37 45.67V45.49H63.22V44.82H59.37V42.82H58.63V44.82H54.78V45.49H57.94C57.38 46.13 56.32 46.7 54.77 47.2L55.16 47.82C56.83 47.17 57.97 46.39 58.57 45.49H58.63V47.31H59.37V46.16ZM58.87 49.44C59.81 50.66 61.22 51.51 63.08 52L63.44 51.36C61.75 50.96 60.44 50.26 59.5 49.25H63.3V48.58H59.21C59.29 48.29 59.36 47.97 59.4 47.63H58.66C58.62 47.97 58.55 48.28 58.45 48.58H54.7V49.25H58.16C58 49.54 57.79 49.8 57.55 50.03C56.94 50.59 55.95 51.02 54.58 51.32L54.86 51.99C56.39 51.62 57.48 51.12 58.13 50.48C58.43 50.18 58.67 49.83 58.87 49.44ZM56.56 42.97L55.94 43.18C56.26 43.61 56.52 44.06 56.72 44.52L57.33 44.36C57.11 43.84 56.85 43.37 56.56 42.97ZM61.41 42.95C61.19 43.5 60.92 43.96 60.61 44.32L61.21 44.54C61.55 44.12 61.83 43.65 62.04 43.11L61.41 42.95ZM64.93 43.28V43.92H65.95V45.42H64.67V46.08H65.91C65.81 46.9 65.48 47.51 64.92 47.93L65.46 48.4C66.12 47.88 66.5 47.11 66.61 46.08H67.92V48.28H68.62V46.08H69.85V45.42H68.62V43.92H69.63V43.28H64.93ZM66.64 43.92H67.92V45.42H66.64V43.92ZM70.44 43.51V46.95H71.13V43.51H70.44ZM65.17 49.26V49.92H68.68V51.09H64.61V51.75H73.39V51.09H69.4V49.92H72.84V49.26H69.4V48.39H68.68V49.26H65.17ZM72.14 48.37C72.67 48.37 72.94 48.06 72.94 47.45V42.96H72.25V47.28C72.25 47.58 72.13 47.74 71.9 47.74C71.5 47.74 71.09 47.72 70.65 47.69L70.8 48.37H72.14ZM78.81 43.86L76 51H76.88L77.64 49H80.92L81.68 51H82.57L79.76 43.86H78.81ZM77.9 48.31L79.27 44.74H79.31L80.66 48.31H77.9Z" fill="#666666"/>
<path d="M136.37 46.16C137.49 46.55 138.6 47.06 139.68 47.69L140.07 47.09C138.95 46.54 137.71 46.07 136.37 45.67V45.49H140.22V44.82H136.37V42.82H135.63V44.82H131.78V45.49H134.94C134.38 46.13 133.32 46.7 131.77 47.2L132.16 47.82C133.83 47.17 134.97 46.39 135.57 45.49H135.63V47.31H136.37V46.16ZM135.87 49.44C136.81 50.66 138.22 51.51 140.08 52L140.44 51.36C138.75 50.96 137.44 50.26 136.5 49.25H140.3V48.58H136.21C136.29 48.29 136.36 47.97 136.4 47.63H135.66C135.62 47.97 135.55 48.28 135.45 48.58H131.7V49.25H135.16C135 49.54 134.79 49.8 134.55 50.03C133.94 50.59 132.95 51.02 131.58 51.32L131.86 51.99C133.39 51.62 134.48 51.12 135.13 50.48C135.43 50.18 135.67 49.83 135.87 49.44ZM133.56 42.97L132.94 43.18C133.26 43.61 133.52 44.06 133.72 44.52L134.33 44.36C134.11 43.84 133.85 43.37 133.56 42.97ZM138.41 42.95C138.19 43.5 137.92 43.96 137.61 44.32L138.21 44.54C138.55 44.12 138.83 43.65 139.04 43.11L138.41 42.95ZM141.93 43.28V43.92H142.95V45.42H141.67V46.08H142.91C142.81 46.9 142.48 47.51 141.92 47.93L142.46 48.4C143.12 47.88 143.5 47.11 143.61 46.08H144.92V48.28H145.62V46.08H146.85V45.42H145.62V43.92H146.63V43.28H141.93ZM143.64 43.92H144.92V45.42H143.64V43.92ZM147.44 43.51V46.95H148.13V43.51H147.44ZM142.17 49.26V49.92H145.68V51.09H141.61V51.75H150.39V51.09H146.4V49.92H149.84V49.26H146.4V48.39H145.68V49.26H142.17ZM149.14 48.37C149.67 48.37 149.94 48.06 149.94 47.45V42.96H149.25V47.28C149.25 47.58 149.13 47.74 148.9 47.74C148.5 47.74 148.09 47.72 147.65 47.69L147.8 48.37H149.14ZM153.72 43.86V51H156.89C157.62 51 158.2 50.85 158.62 50.57C159.11 50.23 159.36 49.71 159.36 49.01C159.36 48.53 159.22 48.15 158.96 47.85C158.7 47.55 158.34 47.35 157.87 47.27C158.23 47.15 158.52 46.96 158.74 46.7C158.95 46.41 159.06 46.06 159.06 45.66C159.06 45.1 158.87 44.66 158.49 44.34C158.1 44.02 157.57 43.86 156.91 43.86H153.72ZM154.54 44.55H156.72C157.22 44.55 157.6 44.64 157.86 44.84C158.12 45.04 158.25 45.34 158.25 45.74C158.25 46.15 158.11 46.46 157.85 46.67C157.59 46.87 157.21 46.98 156.71 46.98H154.54V44.55ZM154.54 47.66H156.82C157.37 47.66 157.79 47.76 158.08 47.98C158.38 48.2 158.54 48.54 158.54 49C158.54 49.46 158.36 49.81 158.01 50.03C157.71 50.21 157.32 50.31 156.82 50.31H154.54V47.66Z" fill="#666666"/>
<path d="M52.73 11.44H49.37V9.87H48.63V11.44H45.27V18.95H45.99V18.3H52.01V18.95H52.73V11.44ZM45.99 17.61V15.1H48.63V17.61H45.99ZM49.37 17.61V15.1H52.01V17.61H49.37ZM45.99 14.43V12.13H48.63V14.43H45.99ZM49.37 12.13H52.01V14.43H49.37V12.13ZM63.24 10.86H59.47C59.34 10.45 59.2 10.08 59.06 9.75L58.24 9.89C58.4 10.18 58.55 10.5 58.69 10.86H54.76V13.09H55.48V11.55H62.52V13.09H63.24V10.86ZM56.3 12.63V13.3H60.59C60.18 13.56 59.57 13.91 58.76 14.33V15.31H54.58V16.01H58.76V17.88C58.76 18.17 58.63 18.32 58.37 18.32C57.95 18.32 57.57 18.31 57.22 18.3L57.39 18.96H58.62C59.2 18.96 59.49 18.68 59.49 18.13V16.01H63.43V15.31H59.49V14.64C60.29 14.2 61.02 13.76 61.67 13.3V12.63H56.3ZM65.28 17.28H71.32C71.3 17.41 71.28 17.5 71.27 17.55C71.15 17.85 70.99 18.05 70.77 18.14C70.55 18.2 70.3 18.24 70.01 18.24C69.68 18.24 69.31 18.23 68.89 18.21L69.13 18.9H70.11C70.67 18.9 71.09 18.81 71.38 18.64C71.66 18.44 71.86 18.13 71.97 17.73C71.99 17.65 72.01 17.5 72.03 17.28H73.23V16.6H72.08C72.12 15.98 72.16 15.12 72.2 14.01H73.49V13.31H72.23L72.32 10.21H66.02C66 11.25 65.94 12.29 65.84 13.31H64.53V14.01H65.77C65.65 15.11 65.48 16.2 65.28 17.28ZM71.38 16.6H66.13C66.28 15.82 66.4 14.95 66.5 14.01H71.5C71.46 15.13 71.42 16 71.38 16.6ZM66.57 13.31C66.63 12.55 66.67 11.75 66.71 10.89H71.59L71.52 13.31H66.57ZM68.46 11.29L67.98 11.72C68.58 12.12 69.14 12.59 69.67 13.13L70.1 12.64C69.6 12.12 69.05 11.67 68.46 11.29ZM68.23 14.33L67.8 14.83C68.38 15.24 68.94 15.73 69.49 16.29L69.94 15.79C69.43 15.27 68.86 14.78 68.23 14.33ZM75.73 16.6L75.28 17.02C75.65 17.3 76.02 17.63 76.39 18.03C76.71 18.37 77 18.71 77.24 19.05L77.74 18.63C77.5 18.29 77.21 17.94 76.88 17.6C76.5 17.2 76.11 16.87 75.73 16.6ZM90.58 12.05H92.06C92.02 13.4 91.81 14.58 91.42 15.59C91.02 14.75 90.7 13.74 90.45 12.57L90.58 12.05ZM91.09 16.31C90.63 17.16 90.02 17.85 89.24 18.39L89.61 18.99C90.36 18.45 90.98 17.78 91.46 16.98C91.96 17.82 92.56 18.5 93.26 19L93.65 18.41C92.93 17.92 92.32 17.23 91.8 16.33C92.36 15.15 92.67 13.72 92.72 12.05H93.37V11.36H90.73C90.81 10.92 90.89 10.44 90.95 9.93L90.25 9.81C90.05 11.71 89.65 13.22 89.06 14.34L89.51 14.89C89.72 14.53 89.92 14.12 90.1 13.66C90.37 14.66 90.7 15.54 91.09 16.31ZM86.35 14.48C86.28 14.68 86.2 14.89 86.11 15.11H84.65V15.74H85.83C85.63 16.14 85.4 16.55 85.14 16.99C85.63 17.17 86.09 17.36 86.53 17.55C85.95 17.88 85.24 18.15 84.42 18.37L84.76 18.97C85.76 18.69 86.59 18.32 87.25 17.86C87.84 18.12 88.35 18.39 88.79 18.65L89.18 18.09C88.74 17.85 88.28 17.63 87.8 17.41C88.32 16.93 88.69 16.36 88.91 15.7V15.11H86.82C86.88 14.93 86.95 14.75 87.02 14.56L86.35 14.48ZM87.14 17.13C86.78 16.98 86.4 16.84 86 16.7C86.2 16.4 86.38 16.08 86.54 15.74H88.26C88.02 16.26 87.64 16.73 87.14 17.13ZM85.44 10.02L84.87 10.21C85.11 10.59 85.33 11.02 85.54 11.51L86.06 11.27C85.88 10.83 85.68 10.41 85.44 10.02ZM88.48 9.99C88.3 10.41 88.04 10.83 87.72 11.26L88.23 11.52C88.55 11.1 88.8 10.67 89 10.23L88.48 9.99ZM84.67 11.75V12.38H86.09C85.79 12.93 85.25 13.43 84.48 13.88L84.83 14.46C85.69 13.88 86.29 13.2 86.62 12.41V14.31H87.29V13.01C87.65 13.25 88.08 13.57 88.58 13.97L88.95 13.41C88.39 13.07 87.83 12.76 87.29 12.49V12.38H89.11V11.75H87.29V9.84H86.62V11.75H84.67ZM103.24 10.86H99.47C99.34 10.45 99.2 10.08 99.06 9.75L98.24 9.89C98.4 10.18 98.55 10.5 98.69 10.86H94.76V13.09H95.48V11.55H102.52V13.09H103.24V10.86ZM96.3 12.63V13.3H100.59C100.18 13.56 99.57 13.91 98.76 14.33V15.31H94.58V16.01H98.76V17.88C98.76 18.17 98.63 18.32 98.37 18.32C97.95 18.32 97.57 18.31 97.22 18.3L97.39 18.96H98.62C99.2 18.96 99.49 18.68 99.49 18.13V16.01H103.43V15.31H99.49V14.64C100.29 14.2 101.02 13.76 101.67 13.3V12.63H96.3ZM113.1 10.51H109.28V18.7H109.97V17.81H112.4V18.6H113.1V10.51ZM109.97 17.13V11.18H112.4V17.13H109.97ZM104.71 12.58V13.25H106.46V13.32C106.05 14.42 105.38 15.41 104.45 16.29L104.75 17.07C105.46 16.3 106.03 15.44 106.46 14.49V18.93H107.16V14.42C107.53 14.84 107.97 15.41 108.49 16.12L108.91 15.5C108.32 14.84 107.74 14.26 107.16 13.75V13.25H108.87V12.58H107.16V11C107.72 10.88 108.25 10.72 108.77 10.53L108.43 9.93C107.43 10.31 106.19 10.56 104.7 10.68L104.93 11.32C105.45 11.28 105.96 11.22 106.46 11.14V12.58H104.71ZM118.63 9.79V11.59H115.05V16.29H115.77V15.66H118.63V19.07H119.37V15.66H122.24V16.29H122.96V11.59H119.37V9.79H118.63ZM115.77 14.96V12.29H118.63V14.96H115.77ZM119.37 14.96V12.29H122.24V14.96H119.37ZM130.43 10.7V16.94H131.13V10.7H130.43ZM132.21 18.91C132.83 18.91 133.15 18.6 133.15 17.98V9.86H132.43V17.8C132.43 18.11 132.27 18.27 131.96 18.27C131.54 18.27 131.09 18.25 130.61 18.22L130.77 18.91H132.21ZM129.43 12.06L126.58 12.5C126.52 11.71 126.49 10.83 126.49 9.85H125.75C125.75 10.87 125.79 11.79 125.87 12.61L124.53 12.82L124.64 13.52L125.94 13.32C126.02 14.02 126.12 14.63 126.26 15.15C126.37 15.59 126.49 15.99 126.63 16.36C125.98 16.96 125.23 17.42 124.39 17.75L124.82 18.4C125.59 18.08 126.29 17.64 126.93 17.1C127.08 17.43 127.25 17.72 127.43 17.98C127.89 18.62 128.35 18.94 128.81 18.94C129.06 18.94 129.29 18.72 129.49 18.3C129.65 17.95 129.8 17.52 129.94 17L129.33 16.61C129.13 17.63 128.95 18.15 128.77 18.18C128.47 18.17 128.13 17.87 127.76 17.28C127.65 17.08 127.54 16.86 127.44 16.61C128.17 15.85 128.79 14.9 129.29 13.78L128.66 13.45C128.25 14.36 127.75 15.15 127.16 15.82C127.05 15.48 126.95 15.1 126.86 14.67C126.77 14.23 126.7 13.75 126.64 13.21L129.54 12.76L129.43 12.06ZM127.81 9.81L127.22 10.1C127.59 10.54 127.94 11.03 128.27 11.58L128.88 11.28C128.54 10.75 128.19 10.26 127.81 9.81ZM137.98 17.01C137 17.39 135.85 17.7 134.53 17.92L134.62 18.62C135.88 18.39 137 18.08 137.98 17.7V17.01ZM136.2 9.78C135.8 10.97 135.33 12.03 134.79 12.95C134.7 13.08 134.6 13.17 134.49 13.21L134.66 13.87C135.22 13.8 135.78 13.73 136.33 13.65C135.81 14.58 135.36 15.24 134.99 15.62C134.9 15.7 134.79 15.77 134.66 15.83L134.86 16.49C135.82 16.36 136.82 16.12 137.87 15.78V15.13C137.15 15.37 136.43 15.56 135.71 15.7C136.29 14.99 137.03 13.79 137.91 12.1L137.27 11.86C137.07 12.26 136.87 12.64 136.69 13C136.24 13.07 135.79 13.13 135.34 13.17C135.86 12.39 136.38 11.35 136.89 10.05L136.2 9.78ZM142.83 11.6L140.34 11.95V9.83H139.62V12.05L138.09 12.27L138.2 12.93L139.64 12.72C139.65 13.2 139.68 13.66 139.73 14.09L137.92 14.38L138.02 15.06L139.82 14.77C139.86 15.03 139.9 15.28 139.96 15.54C140.08 16.08 140.23 16.56 140.42 17C139.68 17.55 138.85 17.97 137.93 18.27L138.35 18.85C139.2 18.59 140 18.18 140.74 17.63C140.8 17.76 140.88 17.88 140.97 18C141.4 18.6 141.85 18.9 142.33 18.92C142.85 18.92 143.25 18.25 143.53 16.93L142.92 16.53C142.74 17.6 142.51 18.14 142.25 18.14C141.99 18.14 141.7 17.89 141.37 17.4C141.33 17.34 141.3 17.27 141.26 17.21C141.88 16.67 142.45 16.01 142.98 15.24L142.41 14.85C141.99 15.49 141.51 16.05 140.97 16.55C140.83 16.15 140.71 15.7 140.61 15.18C140.58 15.02 140.55 14.84 140.53 14.66L143.21 14.24L143.1 13.56L140.45 13.98C140.41 13.55 140.38 13.1 140.36 12.62L142.93 12.26L142.83 11.6ZM141.46 9.8L140.9 10.15C141.4 10.61 141.8 11.04 142.08 11.43L142.64 11.04C142.36 10.69 141.97 10.28 141.46 9.8ZM147.94 16.76C147 17.19 145.89 17.53 144.61 17.79L144.7 18.5C145.92 18.24 147 17.88 147.94 17.44V16.76ZM146.37 9.84C145.93 10.98 145.42 11.98 144.83 12.86C144.73 13 144.63 13.09 144.52 13.13L144.7 13.8C145.3 13.72 145.88 13.64 146.46 13.55C145.89 14.48 145.41 15.14 145.01 15.53C144.92 15.61 144.81 15.68 144.68 15.74L144.87 16.41C145.87 16.27 146.91 16 148 15.61V14.95C147.26 15.23 146.52 15.45 145.78 15.61C146.41 14.88 147.2 13.66 148.16 11.94L147.51 11.69C147.28 12.12 147.06 12.52 146.85 12.89C146.37 12.97 145.9 13.04 145.42 13.08C145.97 12.34 146.51 11.35 147.05 10.11L146.37 9.84ZM152.7 10.3H148.64V17.95H147.77V18.65H153.55V17.95H152.7V10.3ZM149.35 17.95V16.05H151.99V17.95H149.35ZM149.35 15.37V13.48H151.99V15.37H149.35ZM149.35 12.8V10.99H151.99V12.8H149.35ZM161.44 9.8L160.98 10.24C161.49 10.63 161.89 11 162.19 11.36H160.32C160.3 10.88 160.29 10.37 160.29 9.81H159.55C159.55 10.35 159.56 10.86 159.58 11.36H155.45V14.69C155.42 16.32 155.09 17.59 154.45 18.51L155 19C155.74 17.92 156.14 16.48 156.18 14.69V14.39H157.91C157.89 15.49 157.86 16.21 157.8 16.55C157.74 16.83 157.6 16.98 157.38 16.99C157.11 16.99 156.78 16.98 156.39 16.96L156.61 17.61C156.93 17.63 157.22 17.65 157.46 17.65C157.96 17.63 158.27 17.41 158.4 16.98C158.53 16.49 158.61 15.4 158.63 13.71H156.18V12.05H159.61C159.69 13.3 159.83 14.35 160.05 15.19C160.16 15.62 160.29 16.02 160.43 16.39C159.74 17.26 158.89 17.92 157.89 18.37L158.29 18.97C159.23 18.55 160.05 17.94 160.75 17.12C160.9 17.43 161.07 17.71 161.25 17.95C161.73 18.55 162.18 18.85 162.6 18.85C163.05 18.85 163.39 18.18 163.63 16.85L162.98 16.49C162.83 17.52 162.66 18.04 162.48 18.05C162.28 18.05 162.01 17.81 161.68 17.33C161.52 17.1 161.37 16.82 161.23 16.5C161.87 15.6 162.39 14.48 162.79 13.16L162.14 12.88C161.83 13.95 161.43 14.89 160.93 15.69C160.86 15.47 160.79 15.24 160.73 14.99C160.55 14.27 160.42 13.29 160.35 12.05H163.43V11.36H162.21L162.67 10.9C162.33 10.53 161.92 10.16 161.44 9.8Z" fill="#666666"/>
<path d="M38 0.5H198C198.828 0.5 199.5 1.17157 199.5 2V26C199.5 26.8284 198.828 27.5 198 27.5H38C37.1716 27.5 36.5 26.8284 36.5 26V2C36.5 1.17157 37.1716 0.5 38 0.5Z" stroke="#E0E3EC"/>
<circle cx="43" cy="47" r="6.5" stroke="#E0E3EC"/>
<circle cx="120" cy="47" r="6.5" stroke="#E0E3EC"/>
</svg>
