<svg xmlns="http://www.w3.org/2000/svg" xmlns:xlink="http://www.w3.org/1999/xlink" fill="none" version="1.1" width="200" height="88" viewBox="0 0 200 88"><g style="mix-blend-mode:passthrough"><g style="mix-blend-mode:passthrough"><path d="M5.36784,41.76276C6.48763,42.15013,7.59766,42.6612,8.67838,43.29271L9.06901,42.6905C7.94922,42.14037,6.70898,41.67162,5.36784,41.27122L5.36784,41.09219L9.21875,41.09219L9.21875,40.42162L5.36784,40.42162L5.36784,38.41966L4.62891,38.41966L4.62891,40.42162L0.777995,40.42162L0.777995,41.09219L3.9388,41.09219C3.37891,41.73021,2.31771,42.29987,0.768229,42.80117L1.15885,43.42292C2.82878,42.77188,3.9681,41.99063,4.57031,41.09219L4.62891,41.09219L4.62891,42.91185L5.36784,42.91185L5.36784,41.76276ZM4.86979,45.04076C5.80729,46.26146,7.22005,47.1111,9.07878,47.6026L9.4401,46.961330000000004C7.75065,46.56094,6.4388,45.86107,5.49805,44.85195L9.30013,44.85195L9.30013,44.18138L5.20833,44.18138C5.28971,43.89167,5.35807,43.57266,5.40039,43.23086L4.6582,43.23086C4.61914,43.57266,4.54753,43.8819,4.44987,44.18138L0.69987,44.18138L0.69987,44.85195L4.16016,44.85195C3.9974,45.14167,3.78906,45.40208,3.54818,45.62995C2.93945,46.1931,1.94987,46.62279,0.579427,46.92227L0.859375,47.5928C2.38932,47.2217,3.47982,46.720439999999996,4.1276,46.08242C4.43034,45.782939999999996,4.66797,45.431380000000004,4.86979,45.04076ZM2.55859,38.5694L1.9401,38.78099C2.25911,39.210679999999996,2.51953,39.6599,2.7181,40.12214L3.33008,39.96263C3.10872,39.4418,2.84831,38.96979,2.55859,38.5694ZM7.40885,38.54987C7.1875,39.1,6.92057,39.56224,6.60807,39.92031L7.21029,40.14167C7.54883,39.72175,7.82878,39.24974,8.04036,38.70938L7.40885,38.54987ZM10.9277,38.8819L10.9277,39.51992L11.9499,39.51992L11.9499,41.02057L10.6673,41.02057L10.6673,41.68138L11.9076,41.68138C11.8099,42.501689999999996,11.4779,43.11042,10.918,43.53034L11.4583,44.002340000000004C12.1191,43.48151,12.5,42.71003,12.6074,41.68138L13.9193,41.68138L13.9193,43.8819L14.6191,43.8819L14.6191,41.68138L15.8496,41.68138L15.8496,41.02057L14.6191,41.02057L14.6191,39.51992L15.6283,39.51992L15.6283,38.8819L10.9277,38.8819ZM12.64,39.51992L13.9193,39.51992L13.9193,41.02057L12.64,41.02057L12.64,39.51992ZM16.4388,39.10977L16.4388,42.55052L17.1289,42.55052L17.1289,39.10977L16.4388,39.10977ZM11.1686,44.86172L11.1686,45.52253L14.6777,45.52253L14.6777,46.69115L10.6087,46.69115L10.6087,47.352000000000004L19.388,47.352000000000004L19.388,46.69115L15.4004,46.69115L15.4004,45.52253L18.8379,45.52253L18.8379,44.86172L15.4004,44.86172L15.4004,43.992580000000004L14.6777,43.992580000000004L14.6777,44.86172L11.1686,44.86172ZM18.138,43.96979C18.6686,43.96979,18.9388,43.66055,18.9388,43.05182L18.9388,38.55964L18.2487,38.55964L18.2487,42.88255C18.2487,43.18203,18.1283,43.34154,17.9004,43.34154C17.5,43.34154,17.0898,43.32201,16.6504,43.29271L16.8001,43.96979L18.138,43.96979Z" fill="#666666" fill-opacity="1"/><path d="M22.1777,39.46133L22.2591,41.4112L20.4688,40.73086L20.2474,41.39167L22.0898,41.9418L20.8496,43.4099L21.39,43.84284L22.5293,42.26081L23.6686,43.84284L24.209,43.4099L22.9688,41.9418L24.8079,41.39167L24.5898,40.73086L22.8092,41.4112L22.8776,39.46133L22.1777,39.46133Z" fill="#E95446" fill-opacity="1"/></g><g style="mix-blend-mode:passthrough"><path d="M59.36784,41.76276C60.48763,42.15013,61.59766,42.6612,62.678380000000004,43.29271L63.06901,42.6905C61.94922,42.14037,60.70898,41.67162,59.36784,41.27122L59.36784,41.09219L63.21875,41.09219L63.21875,40.42162L59.36784,40.42162L59.36784,38.41966L58.62891,38.41966L58.62891,40.42162L54.777995,40.42162L54.777995,41.09219L57.9388,41.09219C57.37891,41.73021,56.31771,42.29987,54.768229,42.80117L55.15885,43.42292C56.82878,42.77188,57.9681,41.99063,58.57031,41.09219L58.62891,41.09219L58.62891,42.91185L59.36784,42.91185L59.36784,41.76276ZM58.86979,45.04076C59.80729,46.26146,61.22005,47.1111,63.07878,47.6026L63.4401,46.961330000000004C61.75065,46.56094,60.4388,45.86107,59.49805,44.85195L63.300129999999996,44.85195L63.300129999999996,44.18138L59.208330000000004,44.18138C59.28971,43.89167,59.35807,43.57266,59.40039,43.23086L58.6582,43.23086C58.61914,43.57266,58.54753,43.8819,58.44987,44.18138L54.69987,44.18138L54.69987,44.85195L58.16016,44.85195C57.9974,45.14167,57.78906,45.40208,57.54818,45.62995C56.93945,46.1931,55.94987,46.62279,54.579427,46.92227L54.859375,47.5928C56.38932,47.2217,57.479820000000004,46.720439999999996,58.1276,46.08242C58.43034,45.782939999999996,58.66797,45.431380000000004,58.86979,45.04076ZM56.55859,38.5694L55.9401,38.78099C56.25911,39.210679999999996,56.51953,39.6599,56.7181,40.12214L57.33008,39.96263C57.10872,39.4418,56.84831,38.96979,56.55859,38.5694ZM61.40885,38.54987C61.1875,39.1,60.92057,39.56224,60.60807,39.92031L61.21029,40.14167C61.54883,39.72175,61.82878,39.24974,62.04036,38.70938L61.40885,38.54987ZM64.9277,38.8819L64.9277,39.51992L65.9499,39.51992L65.9499,41.02057L64.6673,41.02057L64.6673,41.68138L65.9076,41.68138C65.8099,42.501689999999996,65.4779,43.11042,64.918,43.53034L65.4583,44.002340000000004C66.1191,43.48151,66.5,42.71003,66.6074,41.68138L67.91929999999999,41.68138L67.91929999999999,43.8819L68.6191,43.8819L68.6191,41.68138L69.8496,41.68138L69.8496,41.02057L68.6191,41.02057L68.6191,39.51992L69.6283,39.51992L69.6283,38.8819L64.9277,38.8819ZM66.64,39.51992L67.91929999999999,39.51992L67.91929999999999,41.02057L66.64,41.02057L66.64,39.51992ZM70.4388,39.10977L70.4388,42.55052L71.1289,42.55052L71.1289,39.10977L70.4388,39.10977ZM65.1686,44.86172L65.1686,45.52253L68.6777,45.52253L68.6777,46.69115L64.6087,46.69115L64.6087,47.352000000000004L73.388,47.352000000000004L73.388,46.69115L69.4004,46.69115L69.4004,45.52253L72.8379,45.52253L72.8379,44.86172L69.4004,44.86172L69.4004,43.992580000000004L68.6777,43.992580000000004L68.6777,44.86172L65.1686,44.86172ZM72.138,43.96979C72.6686,43.96979,72.9388,43.66055,72.9388,43.05182L72.9388,38.55964L72.2487,38.55964L72.2487,42.88255C72.2487,43.18203,72.1283,43.34154,71.9004,43.34154C71.5,43.34154,71.0898,43.32201,70.6504,43.29271L70.8001,43.96979L72.138,43.96979ZM76.8092,39.46133L74,46.6L74.8789,46.6L75.6374,44.6013L78.9186,44.6013L79.6803,46.6L80.569,46.6L77.7598,39.46133L76.8092,39.46133ZM75.8978,43.9112L77.26820000000001,40.34023L77.3073,40.34023L78.6582,43.9112L75.8978,43.9112Z" fill="#333333" fill-opacity="1"/></g><g style="mix-blend-mode:passthrough"><path d="M136.36784,41.76276C137.48763,42.15013,138.59766,42.6612,139.67838,43.29271L140.06901,42.6905C138.94922,42.14037,137.70898,41.67162,136.36784,41.27122L136.36784,41.09219L140.21875,41.09219L140.21875,40.42162L136.36784,40.42162L136.36784,38.41966L135.62891,38.41966L135.62891,40.42162L131.777995,40.42162L131.777995,41.09219L134.9388,41.09219C134.37891,41.73021,133.31771,42.29987,131.768229,42.80117L132.15885,43.42292C133.82878,42.77188,134.9681,41.99063,135.57031,41.09219L135.62891,41.09219L135.62891,42.91185L136.36784,42.91185L136.36784,41.76276ZM135.86979,45.04076C136.80729,46.26146,138.22005,47.1111,140.07878,47.6026L140.4401,46.961330000000004C138.75065,46.56094,137.4388,45.86107,136.49805,44.85195L140.30013,44.85195L140.30013,44.18138L136.20833,44.18138C136.28971,43.89167,136.35807,43.57266,136.40039,43.23086L135.6582,43.23086C135.61914,43.57266,135.54753,43.8819,135.44987,44.18138L131.69987,44.18138L131.69987,44.85195L135.16016,44.85195C134.9974,45.14167,134.78906,45.40208,134.54818,45.62995C133.93945,46.1931,132.94987,46.62279,131.579427,46.92227L131.859375,47.5928C133.38932,47.2217,134.47982,46.720439999999996,135.1276,46.08242C135.43034,45.782939999999996,135.66797,45.431380000000004,135.86979,45.04076ZM133.55859,38.5694L132.9401,38.78099C133.25911,39.210679999999996,133.51953,39.6599,133.7181,40.12214L134.33008,39.96263C134.10872,39.4418,133.84831,38.96979,133.55859,38.5694ZM138.40885,38.54987C138.1875,39.1,137.92057,39.56224,137.60807,39.92031L138.21029,40.14167C138.54883,39.72175,138.82878,39.24974,139.04036,38.70938L138.40885,38.54987ZM141.9277,38.8819L141.9277,39.51992L142.9499,39.51992L142.9499,41.02057L141.6673,41.02057L141.6673,41.68138L142.9076,41.68138C142.8099,42.501689999999996,142.4779,43.11042,141.918,43.53034L142.4583,44.002340000000004C143.1191,43.48151,143.5,42.71003,143.6074,41.68138L144.9193,41.68138L144.9193,43.8819L145.6191,43.8819L145.6191,41.68138L146.8496,41.68138L146.8496,41.02057L145.6191,41.02057L145.6191,39.51992L146.6283,39.51992L146.6283,38.8819L141.9277,38.8819ZM143.64,39.51992L144.9193,39.51992L144.9193,41.02057L143.64,41.02057L143.64,39.51992ZM147.43880000000001,39.10977L147.43880000000001,42.55052L148.1289,42.55052L148.1289,39.10977L147.43880000000001,39.10977ZM142.1686,44.86172L142.1686,45.52253L145.6777,45.52253L145.6777,46.69115L141.6087,46.69115L141.6087,47.352000000000004L150.388,47.352000000000004L150.388,46.69115L146.4004,46.69115L146.4004,45.52253L149.8379,45.52253L149.8379,44.86172L146.4004,44.86172L146.4004,43.992580000000004L145.6777,43.992580000000004L145.6777,44.86172L142.1686,44.86172ZM149.138,43.96979C149.6686,43.96979,149.93880000000001,43.66055,149.93880000000001,43.05182L149.93880000000001,38.55964L149.24869999999999,38.55964L149.24869999999999,42.88255C149.24869999999999,43.18203,149.1283,43.34154,148.9004,43.34154C148.5,43.34154,148.0898,43.32201,147.6504,43.29271L147.8001,43.96979L149.138,43.96979ZM151.7194,39.46133L151.7194,46.6L154.89,46.6C155.6191,46.6,156.1986,46.45026,156.6185,46.17031C157.11,45.83177,157.35739999999998,45.31094,157.35739999999998,44.61107C157.35739999999998,44.13255,157.2174,43.751689999999996,156.9603,43.45221C156.6999,43.15273,156.3385,42.95091,155.8698,42.87279C156.2279,42.752340000000004,156.51760000000002,42.56029,156.7389,42.29987C156.94729999999998,42.01016,157.0579,41.66185,157.0579,41.26146C157.0579,40.70156,156.8691,40.26211,156.4883,39.93984C156.0977,39.62083,155.5703,39.46133,154.9095,39.46133L151.7194,39.46133ZM152.5397,40.15143L154.7174,40.15143C155.2188,40.15143,155.5996,40.24258,155.86,40.44115C156.1204,40.63971,156.2474,40.94245,156.2474,41.33958C156.2474,41.74974,156.10739999999998,42.06224,155.8503,42.27057C155.5898,42.4724,155.209,42.57982,154.7077,42.57982L152.5397,42.57982L152.5397,40.15143ZM152.5397,43.26016L154.8184,43.26016C155.3685,43.26016,155.7884,43.36107,156.0781,43.58242C156.3776,43.80052,156.5404,44.14232,156.5404,44.6013C156.5404,45.06029,156.3581,45.41185,156.00979999999998,45.62995C155.7103,45.81224,155.3197,45.91315,154.8184,45.91315L152.5397,45.91315L152.5397,43.26016Z" fill="#333333" fill-opacity="1"/></g><g style="mix-blend-mode:passthrough"><g style="mix-blend-mode:passthrough"><path d="M3.54818,15.98086L8.01758,15.98086L8.01758,16.5733L8.75,16.5733L8.75,12.3513L4.58008,12.3513C6.45833,11.48216,7.75065,10.36237,8.47005,8.99193L8.47005,8.35065L4.57031,8.35065C4.76888,8.08047,4.94792,7.80052,5.10742,7.50104L4.31966,7.4099C3.71745,8.47109,2.56836,9.369530000000001,0.859375,10.10195L1.33789,10.72044C2.39909,10.2224,3.25846,9.6625,3.9388,9.03099L7.63997,9.03099C7.16797,9.8513,6.42904,10.56094,5.41016,11.16966C4.97721,10.80182,4.37825,10.3819,3.61979,9.9099L2.99805,10.300519999999999C3.75977,10.73021,4.35872,11.130600000000001,4.79818,11.50169C3.64909,12.08112,2.20703,12.540099999999999,0.478516,12.901430000000001L0.859375,13.59154C1.55924,13.422270000000001,2.20703,13.23997,2.82878,13.041409999999999L2.82878,16.5733L3.54818,16.5733L3.54818,15.98086ZM8.01758,15.28099L3.54818,15.28099L3.54818,13.02187L8.01758,13.02187L8.01758,15.28099ZM10.5794,10.17031L10.5794,10.860420000000001L11.9596,10.860420000000001C11.6374,11.99974,11.097,13.01211,10.3385,13.900780000000001L10.6478,14.70156C11.2272,13.900780000000001,11.6992,13.01211,12.0378,12.03229L12.0378,16.5733L12.7279,16.5733L12.7279,12.05182C13.0273,12.40013,13.3984,12.87214,13.8184,13.47109L14.2188,12.87214C13.7174,12.331769999999999,13.2292,11.85,12.7279,11.41055L12.7279,10.860420000000001L13.9583,10.860420000000001L13.9583,10.17031L12.7279,10.17031L12.7279,8.6306C13.2389,8.52969,13.7174,8.4125,14.1602,8.29206L13.9095,7.61172C12.9492,7.9112,11.8587,8.109770000000001,10.6185,8.22044L10.7585,8.900780000000001C11.1979,8.86172,11.6178,8.79987,12.0378,8.74128L12.0378,10.17031L10.5794,10.17031ZM16.2598,16.5505C16.8294,16.5505,17.1191,16.250999999999998,17.1191,15.65208L17.1191,10.36237L16.3802,10.36237L16.3802,15.47305C16.3802,15.76276,16.25,15.9125,16.0091,15.9125C15.7389,15.9125,15.4492,15.89297,15.1497,15.86042L15.2995,16.5505L16.2598,16.5505ZM15,11.801169999999999C14.7493,12.96003,14.3587,14.03099,13.8184,14.99128L14.4401,15.3819C14.9674,14.41185,15.3776,13.26276,15.6673,11.93138L15,11.801169999999999ZM18.418,11.73281L17.7702,11.94115C18.1901,12.96979,18.5807,14.15143,18.929,15.48281L19.5898,15.1931C19.2578,13.96263,18.8704,12.81029,18.418,11.73281ZM15.6803,9.5095L18.5384,9.5095C18.418,10.09219,18.2682,10.609770000000001,18.0892,11.081769999999999L18.7891,11.290099999999999C18.9876,10.63255,19.1406,9.96198,19.2578,9.28164L19.2578,8.80964L15.9473,8.80964C16.0905,8.389710000000001,16.2077,7.95026,16.2988,7.49128L15.5892,7.40013C15.3483,8.67943,14.8796,9.760159999999999,14.1992,10.64232L14.6387,11.21198C15.0488,10.71068,15.4004,10.141020000000001,15.6803,9.5095Z" fill="#666666" fill-opacity="1"/><path d="M22.1777,8.46133L22.2591,10.411200000000001L20.4688,9.73086L20.2474,10.391670000000001L22.0898,10.9418L20.8496,12.4099L21.39,12.842839999999999L22.5293,11.26081L23.6686,12.842839999999999L24.209,12.4099L22.9688,10.9418L24.8079,10.391670000000001L24.5898,9.73086L22.8092,10.411200000000001L22.8776,8.46133L22.1777,8.46133Z" fill="#E95446" fill-opacity="1"/></g><g style="mix-blend-mode:passthrough"><path d="M52.73047,9.04076L49.36784,9.04076L49.36784,7.471745L48.62891,7.471745L48.62891,9.04076L45.26953,9.04076L45.26953,16.55052L45.98893,16.55052L45.98893,15.90273L52.00781,15.90273L52.00781,16.55052L52.73047,16.55052L52.73047,9.04076ZM45.98893,15.21263L45.98893,12.70287L48.62891,12.70287L48.62891,15.21263L45.98893,15.21263ZM49.36784,15.21263L49.36784,12.70287L52.00781,12.70287L52.00781,15.21263L49.36784,15.21263ZM45.98893,12.03229L45.98893,9.73086L48.62891,9.73086L48.62891,12.03229L45.98893,12.03229ZM49.36784,9.73086L52.00781,9.73086L52.00781,12.03229L49.36784,12.03229L49.36784,9.73086ZM63.238299999999995,8.46133L59.4688,8.46133C59.338499999999996,8.051169999999999,59.1986,7.680079,59.0586,7.351303L58.2383,7.491277C58.397800000000004,7.78099,58.5475,8.1,58.6875,8.46133L54.7585,8.46133L54.7585,10.69115L55.4779,10.69115L55.4779,9.15143L62.5189,9.15143L62.5189,10.69115L63.238299999999995,10.69115L63.238299999999995,8.46133ZM56.2982,10.23216L56.2982,10.90273L60.588499999999996,10.90273C60.178399999999996,11.1599,59.5697,11.51146,58.759100000000004,11.93138L58.759100000000004,12.911200000000001L54.5794,12.911200000000001L54.5794,13.61107L58.759100000000004,13.61107L58.759100000000004,15.48281C58.759100000000004,15.77253,58.6289,15.92227,58.3685,15.92227C57.9486,15.92227,57.5677,15.9125,57.2194,15.90273L57.3887,16.560290000000002L58.6191,16.560290000000002C59.1986,16.560290000000002,59.4883,16.280340000000002,59.4883,15.73021L59.4883,13.61107L63.4303,13.61107L63.4303,12.911200000000001L59.4883,12.911200000000001L59.4883,12.24063C60.289100000000005,11.801169999999999,61.0182,11.36172,61.6693,10.90273L61.6693,10.23216L56.2982,10.23216ZM65.2793,14.880600000000001L71.3177,14.880600000000001C71.29820000000001,15.01081,71.2786,15.10195,71.2689,15.15078C71.1484,15.45026,70.9889,15.65208,70.7676,15.74323C70.5495,15.80182,70.2988,15.84089,70.0091,15.84089C69.6803,15.84089,69.3092,15.83112,68.88929999999999,15.81159L69.1302,16.50169L70.11,16.50169C70.6699,16.50169,71.0898,16.41055,71.3796,16.24128C71.65950000000001,16.04271,71.85810000000001,15.73021,71.9688,15.33307C71.9883,15.25169,72.0078,15.10195,72.03059999999999,14.880600000000001L73.2285,14.880600000000001L73.2285,14.20026L72.07939999999999,14.20026C72.1185,13.581769999999999,72.1576,12.7224,72.1999,11.61237L73.4889,11.61237L73.4889,10.9125L72.22919999999999,10.9125L72.3203,7.810287L66.01820000000001,7.810287C65.9987,8.85195,65.9401,9.89037,65.8392,10.9125L64.5273,10.9125L64.5273,11.61237L65.7676,11.61237C65.6471,12.71263,65.4779,13.79987,65.2793,14.880600000000001ZM71.3796,14.20026L66.1289,14.20026C66.2786,13.422270000000001,66.3991,12.54987,66.5,11.61237L71.5,11.61237C71.4577,12.73216,71.4186,13.6013,71.3796,14.20026ZM66.5684,10.9125C66.6302,10.150780000000001,66.66929999999999,9.35,66.70830000000001,8.49063L71.5879,8.49063L71.5195,10.9125L66.5684,10.9125ZM68.4596,8.89102L67.9779,9.3207C68.5801,9.72109,69.14,10.18984,69.6673,10.73021L70.1003,10.24193C69.599,9.72109,69.0488,9.27188,68.4596,8.89102ZM68.2285,11.93138L67.7988,12.432680000000001C68.3783,12.842839999999999,68.9382,13.33112,69.4883,13.891020000000001L69.9375,13.39297C69.4297,12.87214,68.86,12.380600000000001,68.2285,11.93138ZM75.7285,14.20026L75.2793,14.620180000000001C75.6471,14.90013,76.01820000000001,15.23216,76.38929999999999,15.63255C76.70830000000001,15.97109,76.99799999999999,16.31289,77.2389,16.651429999999998L77.7402,16.23151C77.4993,15.89297,77.2096,15.54141,76.8776,15.20286C76.5,14.80247,76.1094,14.47044,75.7285,14.20026ZM90.5788,9.65273L92.0599,9.65273C92.0176,11.00039,91.8092,12.182030000000001,91.4186,13.19115C91.01820000000001,12.3513,90.69919999999999,11.34219,90.4486,10.17031L90.5788,9.65273ZM91.0898,13.91055C90.6276,14.760159999999999,90.0189,15.45026,89.2376,15.99063L89.6087,16.592840000000002C90.3574,16.05247,90.97919999999999,15.3819,91.4577,14.58112C91.959,15.42096,92.55789999999999,16.101300000000002,93.2578,16.602600000000002L93.64840000000001,16.01016C92.929,15.52188,92.3203,14.831769999999999,91.7995,13.93008C92.3594,12.75169,92.6686,11.322659999999999,92.7207,9.65273L93.3685,9.65273L93.3685,8.96263L90.7285,8.96263C90.8099,8.519919999999999,90.888,8.041409999999999,90.9499,7.530339L90.25,7.409897C90.04820000000001,9.31094,89.64779999999999,10.821349999999999,89.0586,11.94115L89.5078,12.49128C89.71940000000001,12.129950000000001,89.918,11.71979,90.1003,11.26081C90.37039999999999,12.260159999999999,90.69919999999999,13.14232,91.0898,13.91055ZM86.34700000000001,12.08112C86.2786,12.28294,86.1973,12.49128,86.1094,12.71263L84.64779999999999,12.71263L84.64779999999999,13.34089L85.82939999999999,13.34089C85.6276,13.74128,85.3997,14.151430000000001,85.13929999999999,14.59089C85.6276,14.77318,86.0898,14.96198,86.5293,15.15078C85.9499,15.48281,85.237,15.753,84.4199,15.97109L84.7585,16.57331C85.7578,16.290100000000002,86.58789999999999,15.92227,87.2487,15.46003C87.83789999999999,15.72044,88.34899999999999,15.99063,88.7884,16.25104L89.179,15.69115C88.7396,15.45026,88.2773,15.23216,87.7988,15.01081C88.3197,14.53229,88.6875,13.96263,88.9089,13.30182L88.9089,12.71263L86.819,12.71263C86.8776,12.530339999999999,86.94919999999999,12.3513,87.0176,12.1625L86.34700000000001,12.08112ZM87.138,14.73086C86.7799,14.58112,86.3991,14.44115,85.9987,14.301169999999999C86.1973,14.00169,86.37960000000001,13.682680000000001,86.53909999999999,13.34089L88.2578,13.34089C88.0202,13.86172,87.63929999999999,14.33047,87.138,14.73086ZM85.4388,7.621485L84.8691,7.810287C85.11,8.19115,85.3281,8.62083,85.53970000000001,9.11237L86.0573,8.87148C85.8783,8.43203,85.6797,8.01211,85.4388,7.621485ZM88.47919999999999,7.592188C88.3001,8.01211,88.03970000000001,8.43203,87.7174,8.86172L88.2285,9.12214C88.5475,8.702210000000001,88.79820000000001,8.27253,89,7.8298179999999995L88.47919999999999,7.592188ZM84.6673,9.35L84.6673,9.98151L86.0898,9.98151C85.78710000000001,10.53164,85.25,11.02969,84.4785,11.48216L84.82679999999999,12.061589999999999C85.68950000000001,11.48216,86.2884,10.80182,86.6172,10.01081L86.6172,11.911850000000001L87.2878,11.911850000000001L87.2878,10.609770000000001C87.6491,10.85065,88.0788,11.16966,88.5801,11.57005L88.9479,11.010159999999999C88.388,10.67162,87.8281,10.36237,87.2878,10.09219L87.2878,9.98151L89.1074,9.98151L89.1074,9.35L87.2878,9.35L87.2878,7.442449L86.6172,7.442449L86.6172,9.35L84.6673,9.35ZM103.23830000000001,8.46133L99.4688,8.46133C99.33850000000001,8.051169999999999,99.1986,7.680079,99.0586,7.351303L98.23830000000001,7.491277C98.39779999999999,7.78099,98.5475,8.1,98.6875,8.46133L94.7585,8.46133L94.7585,10.69115L95.4779,10.69115L95.4779,9.15143L102.5189,9.15143L102.5189,10.69115L103.23830000000001,10.69115L103.23830000000001,8.46133ZM96.29820000000001,10.23216L96.29820000000001,10.90273L100.58850000000001,10.90273C100.17840000000001,11.1599,99.5697,11.51146,98.75909999999999,11.93138L98.75909999999999,12.911200000000001L94.57939999999999,12.911200000000001L94.57939999999999,13.61107L98.75909999999999,13.61107L98.75909999999999,15.48281C98.75909999999999,15.77253,98.6289,15.92227,98.3685,15.92227C97.9486,15.92227,97.5677,15.9125,97.21940000000001,15.90273L97.3887,16.560290000000002L98.6191,16.560290000000002C99.1986,16.560290000000002,99.48830000000001,16.280340000000002,99.48830000000001,15.73021L99.48830000000001,13.61107L103.4303,13.61107L103.4303,12.911200000000001L99.48830000000001,12.911200000000001L99.48830000000001,12.24063C100.28909999999999,11.801169999999999,101.01820000000001,11.36172,101.66929999999999,10.90273L101.66929999999999,10.23216L96.29820000000001,10.23216ZM113.0983,8.10977L109.2799,8.10977L109.2799,16.30313L109.9701,16.30313L109.9701,15.4112L112.3984,15.4112L112.3984,16.20221L113.0983,16.20221L113.0983,8.10977ZM109.9701,14.73086L109.9701,8.78034L112.3984,8.78034L112.3984,14.73086L109.9701,14.73086ZM104.7096,10.18008L104.7096,10.85065L106.4577,10.85065L106.4577,10.922270000000001C106.0475,12.02253,105.37700000000001,13.01211,104.44919999999999,13.891020000000001L104.7487,14.672270000000001C105.45830000000001,13.900780000000001,106.02799999999999,13.041409999999999,106.4577,12.09089L106.4577,16.53099L107.1576,16.53099L107.1576,12.02253C107.5286,12.442450000000001,107.96809999999999,13.01211,108.4889,13.72175L108.9089,13.1C108.3197,12.442450000000001,107.7402,11.859770000000001,107.1576,11.35195L107.1576,10.85065L108.8698,10.85065L108.8698,10.18008L107.1576,10.18008L107.1576,8.6013C107.7174,8.48086,108.248,8.32135,108.7689,8.13255L108.4303,7.530339C107.4277,7.911199,106.1875,8.16185,104.6999,8.28229L104.9277,8.92031C105.4486,8.88125,105.9596,8.822659999999999,106.4577,8.74128L106.4577,10.18008L104.7096,10.18008ZM118.6289,7.390366L118.6289,9.1905L115.0482,9.1905L115.0482,13.891020000000001L115.7676,13.891020000000001L115.7676,13.26276L118.6289,13.26276L118.6289,16.67096L119.3678,16.67096L119.3678,13.26276L122.2389,13.26276L122.2389,13.891020000000001L122.9583,13.891020000000001L122.9583,9.1905L119.3678,9.1905L119.3678,7.390366L118.6289,7.390366ZM115.7676,12.56289L115.7676,9.89037L118.6289,9.89037L118.6289,12.56289L115.7676,12.56289ZM119.3678,12.56289L119.3678,9.89037L122.2389,9.89037L122.2389,12.56289L119.3678,12.56289ZM130.429,8.30182L130.429,14.54206L131.1289,14.54206L131.1289,8.30182L130.429,8.30182ZM132.2096,16.51146C132.8281,16.51146,133.1504,16.20221,133.1504,15.58047L133.1504,7.46198L132.42770000000002,7.46198L132.42770000000002,15.40143C132.42770000000002,15.71068,132.26819999999998,15.87018,131.959,15.87018C131.53910000000002,15.87018,131.0898,15.85065,130.60809999999998,15.82135L130.76760000000002,16.51146L132.2096,16.51146ZM129.4297,9.6625L126.5781,10.10195C126.5195,9.31094,126.487,8.43203,126.487,7.452214L125.748,7.452214C125.748,8.47109,125.7871,9.39232,125.8685,10.21263L124.5273,10.420960000000001L124.638,11.12083L125.9401,10.922270000000001C126.0182,11.62214,126.1191,12.23086,126.2591,12.75169C126.3698,13.19115,126.487,13.59154,126.6302,13.96263C125.9792,14.561589999999999,125.2272,15.02057,124.3874,15.3526L124.8171,16.00039C125.5885,15.68138,126.2884,15.24193,126.9297,14.70156C127.0794,15.03034,127.2487,15.32005,127.4277,15.58047C127.89,16.22175,128.349,16.54076,128.80790000000002,16.54076C129.0586,16.54076,129.28969999999998,16.32266,129.48829999999998,15.90273C129.64780000000002,15.55117,129.7975,15.12148,129.9375,14.60065L129.3288,14.21003C129.1302,15.23216,128.9479,15.753,128.7689,15.78229C128.4694,15.77253,128.1276,15.47305,127.7598,14.880600000000001C127.6491,14.682030000000001,127.5384,14.46068,127.4375,14.21003C128.16989999999998,13.45156,128.7884,12.50104,129.28969999999998,11.38125L128.6582,11.05247C128.248,11.96068,127.75,12.75169,127.1576,13.422270000000001C127.0501,13.08047,126.9492,12.70287,126.8581,12.269919999999999C126.7702,11.83047,126.6986,11.35195,126.64,10.811589999999999L129.5404,10.36237L129.4297,9.6625ZM127.8086,7.409897L127.2194,7.69961C127.5872,8.14232,127.9388,8.6306,128.26760000000002,9.18073L128.87959999999998,8.88125C128.5378,8.35065,128.1895,7.86237,127.8086,7.409897ZM137.9779,14.610420000000001C136.998,14.99128,135.849,15.30052,134.5273,15.52188L134.61849999999998,16.22175C135.8783,15.99063,136.998,15.68138,137.9779,15.30052L137.9779,14.610420000000001ZM136.19729999999998,7.3806C135.8001,8.57201,135.3281,9.629950000000001,134.7878,10.551169999999999C134.6999,10.68138,134.599,10.77253,134.48829999999998,10.811589999999999L134.6576,11.4724C135.2174,11.400780000000001,135.7773,11.332419999999999,136.3275,11.25104C135.8099,12.182030000000001,135.35739999999998,12.842839999999999,134.9896,13.22044C134.89839999999998,13.30182,134.7878,13.370180000000001,134.6576,13.432030000000001L134.8594,14.092839999999999C135.8197,13.96263,136.81900000000002,13.72175,137.8672,13.379950000000001L137.8672,12.73216C137.14780000000002,12.96979,136.4284,13.161850000000001,135.709,13.30182C136.2884,12.59219,137.0273,11.391020000000001,137.90949999999998,9.70156L137.26819999999998,9.46068C137.0697,9.86107,136.8678,10.24193,136.68880000000001,10.6C136.2396,10.67162,135.7871,10.73021,135.3379,10.77253C135.8587,9.99128,136.37959999999998,8.94961,136.8874,7.6507819999999995L136.19729999999998,7.3806ZM142.8281,9.20026L140.3379,9.55182L140.3379,7.429428L139.61849999999998,7.429428L139.61849999999998,9.65273L138.0885,9.87083L138.19920000000002,10.53164L139.638,10.32005C139.64780000000002,10.80182,139.6803,11.26081,139.7292,11.6905L137.91930000000002,11.98021L138.0202,12.66055L139.8203,12.37083C139.8594,12.63125,139.89839999999998,12.8819,139.96030000000002,13.14232C140.0775,13.682680000000001,140.2305,14.161200000000001,140.41930000000002,14.60065C139.6803,15.15078,138.8503,15.5707,137.929,15.87018L138.349,16.45286C139.1986,16.19245,139.99939999999998,15.78229,140.73829999999998,15.23216C140.8001,15.36237,140.8783,15.48281,140.9694,15.6C141.3991,16.20221,141.8483,16.50169,142.33010000000002,16.52122C142.8477,16.52122,143.248,15.85065,143.52800000000002,14.53229L142.91930000000002,14.1319C142.74020000000002,15.20286,142.5091,15.74323,142.24869999999999,15.74323C141.98829999999998,15.74323,141.6986,15.49258,141.3698,15.00104C141.3275,14.942450000000001,141.2982,14.87083,141.2591,14.81224C141.8776,14.27188,142.4505,13.61107,142.9779,12.842839999999999L142.4082,12.452210000000001C141.98829999999998,13.09023,141.50979999999998,13.65013,140.9694,14.151430000000001C140.82940000000002,13.75104,140.709,13.30182,140.60809999999998,12.78099C140.5788,12.62148,140.5495,12.442450000000001,140.5299,12.260159999999999L143.209,11.84023L143.0983,11.1599L140.4486,11.57982C140.40949999999998,11.15013,140.3802,10.70091,140.35739999999998,10.2224L142.929,9.86107L142.8281,9.20026ZM141.4577,7.400131L140.89780000000002,7.7516929999999995C141.3991,8.21068,141.7995,8.64037,142.07940000000002,9.03099L142.6393,8.64037C142.3594,8.29206,141.9688,7.881902,141.4577,7.400131ZM147.939,14.363019999999999C146.998,14.79271,145.888,15.13125,144.60899999999998,15.39167L144.7,16.101300000000002C145.917,15.84089,146.998,15.48281,147.939,15.0401L147.939,14.363019999999999ZM146.37,7.442449C145.92700000000002,8.58177,145.41899999999998,9.58112,144.827,10.46003C144.72899999999998,10.6,144.628,10.69115,144.518,10.73021L144.7,11.400780000000001C145.299,11.322659999999999,145.878,11.24128,146.458,11.15013C145.888,12.08112,145.41,12.74193,145.00900000000001,13.13255C144.918,13.21068,144.80700000000002,13.28229,144.67700000000002,13.34089L144.869,14.01146C145.868,13.87148,146.91,13.6013,147.997,13.21068L147.997,12.54987C147.25799999999998,12.82982,146.51999999999998,13.051169999999999,145.777,13.21068C146.409,12.48151,147.2,11.26081,148.16,9.54206L147.50900000000001,9.291409999999999C147.27800000000002,9.72109,147.06,10.12148,146.848,10.49258C146.37,10.5707,145.898,10.64232,145.41899999999998,10.68138C145.969,9.942450000000001,146.51,8.94961,147.05,7.709375L146.37,7.442449ZM152.69799999999998,7.901433L148.639,7.901433L148.639,15.55117L147.76999999999998,15.55117L147.76999999999998,16.25104L153.551,16.25104L153.551,15.55117L152.69799999999998,15.55117L152.69799999999998,7.901433ZM149.348,15.55117L149.348,13.65013L151.988,13.65013L151.988,15.55117L149.348,15.55117ZM149.348,12.96979L149.348,11.081769999999999L151.988,11.081769999999999L151.988,12.96979L149.348,12.96979ZM149.348,10.40143L149.348,8.59154L151.988,8.59154L151.988,10.40143L149.348,10.40143ZM161.438,7.400131L160.97899999999998,7.839584C161.49,8.23021,161.89100000000002,8.6013,162.19,8.96263L160.31799999999998,8.96263C160.299,8.48086,160.289,7.969792,160.289,7.409897L159.55,7.409897C159.55,7.950261,159.56,8.46133,159.579,8.96263L155.449,8.96263L155.449,12.29271C155.41899999999998,13.92031,155.087,15.1931,154.449,16.111069999999998L154.999,16.602600000000002C155.738,15.52188,156.139,14.08307,156.178,12.29271L156.178,11.98997L157.91,11.98997C157.89,13.09023,157.857,13.81289,157.799,14.151430000000001C157.74,14.43138,157.6,14.58112,157.37900000000002,14.59089C157.10899999999998,14.59089,156.78,14.58112,156.389,14.561589999999999L156.607,15.21263C156.93,15.23216,157.219,15.25169,157.45999999999998,15.25169C157.958,15.23216,158.268,15.01081,158.398,14.58112C158.52800000000002,14.092839999999999,158.60899999999998,13.00234,158.62900000000002,11.30964L156.178,11.30964L156.178,9.65273L159.60899999999998,9.65273C159.69,10.90273,159.82999999999998,11.95091,160.048,12.790759999999999C160.159,13.22044,160.289,13.62083,160.429,13.99193C159.739,14.86107,158.889,15.52188,157.89,15.97109L158.29000000000002,16.57331C159.228,16.15013,160.048,15.54141,160.748,14.72109C160.898,15.03034,161.07,15.31029,161.249,15.55117C161.728,16.15013,162.18,16.45286,162.6,16.45286C163.049,16.45286,163.388,15.78229,163.62900000000002,14.45091L162.978,14.092839999999999C162.828,15.12148,162.659,15.64232,162.48000000000002,15.65208C162.27800000000002,15.65208,162.00799999999998,15.4112,161.679,14.932680000000001C161.51999999999998,14.70156,161.37,14.42162,161.23000000000002,14.102599999999999C161.868,13.20091,162.389,12.08112,162.789,10.76276L162.138,10.47956C161.829,11.550519999999999,161.428,12.49128,160.93,13.29206C160.85899999999998,13.0707,160.79000000000002,12.842839999999999,160.72899999999998,12.59219C160.549,11.87279,160.41899999999998,10.889710000000001,160.348,9.65273L163.43,9.65273L163.43,8.96263L162.20999999999998,8.96263L162.66899999999998,8.50039C162.32999999999998,8.13255,161.92000000000002,7.761459,161.438,7.400131Z" fill="#CCCCCC" fill-opacity="1"/></g><g style="mix-blend-mode:passthrough"><path d="M37.29308,1.29247Q37.59632,1,38.02617,1L118,1L197.974,1Q198.404,1,198.707,1.29247Q199,1.57513,199,1.97381L199,22.0262Q199,22.4249,198.707,22.7075Q198.404,23,197.974,23L118,23L38.02617,23Q37.59631,23,37.29308,22.7075Q37,22.4249,37,22.0262L37,1.97381Q37,1.57513,37.29308,1.29247ZM197.974,0L38.02617,0C36.921597,0,36,0.869241,36,1.97381L36,22.0262C36,23.1308,36.921597,24,38.02617,24L197.974,24C199.078,24,200,23.1308,200,22.0262L200,1.97381C200,0.869241,199.078,0,197.974,0Z" fill-rule="evenodd" fill="#E5E5E5" fill-opacity="1"/></g></g><g style="mix-blend-mode:passthrough"><ellipse cx="43" cy="43" rx="6.5" ry="6.5" fill-opacity="0" stroke-opacity="1" stroke="#E5E5E5" fill="none" stroke-width="1"/></g><g style="mix-blend-mode:passthrough"><ellipse cx="120" cy="43" rx="6.5" ry="6.5" fill-opacity="0" stroke-opacity="1" stroke="#E5E5E5" fill="none" stroke-width="1"/></g><g style="mix-blend-mode:passthrough"><g style="mix-blend-mode:passthrough"><rect x="36" y="64" width="80" height="24" rx="2" fill="#337EFF" fill-opacity="1"/><g style="mix-blend-mode:passthrough"><path d="M56.826823,73.04075L56.826823,73.74062L65.19922,73.74062L65.19922,73.04075L61.44922,73.04075C61.29948,72.4418,61.14974,71.90143,60.99023,71.42943L60.16016,71.5694C60.33919,72.01211,60.50846,72.50039,60.66797,73.04075L56.826823,73.04075ZM56.488281,79.32005L56.488281,80.0232L65.53776,80.0232L65.53776,79.32005L62.26953,79.32005C62.88802,77.92031,63.39909,76.322,63.80924,74.52187L63.04753,74.32005C62.58854,76.322,62.05794,77.99193,61.44922,79.32005L56.488281,79.32005ZM58.97852,74.36237L58.229820000000004,74.60977C58.6888,76.02253,59.07943,77.49062,59.37891,79.01080999999999L60.14714,78.822C59.80859,77.14232,59.41797,75.6612,58.97852,74.36237ZM67.6895,74.44049L70.0592,74.44049L70.0592,75.8207L67.6895,75.8207L67.6895,74.44049ZM70.0592,73.79271L67.6895,73.79271L67.6895,72.48086L70.0592,72.48086L70.0592,73.79271ZM66.8984,80.3031C68.207,79.98086,69.3691,79.6,70.3685,79.18008C70.5475,79.50234,70.7103,79.82135,70.8503,80.1306L71.4004,79.73021C71.0684,79.01080999999999,70.5898,78.1612,69.9583,77.19115L69.4082,77.54271C69.6296,77.88125,69.8379,78.23281,70.0397,78.58112C69.3496,78.8513,68.5684,79.11172,67.6895,79.37214L67.6895,76.49128L70.7396,76.49128L70.7396,71.82982L66.9798,71.82982L66.9798,79.23216C66.9798,79.4112,66.8691,79.54141,66.6478,79.61302L66.8984,80.3031ZM74.27799999999999,79.22239C74.8802,79.22239,75.1797,78.91315,75.1797,78.29141L75.1797,71.82982L71.918,71.82982L71.918,80.5733L72.6374,80.5733L72.6374,72.51016L74.4603,72.51016L74.4603,78.1319C74.4603,78.40208,74.3203,78.54205999999999,74.0404,78.54205999999999L73.1875,78.52253L73.3796,79.22239L74.27799999999999,79.22239ZM80.2904,75.28034L80.2904,77.08047C80.2904,77.35065,80.1471,77.49062,79.89,77.49062C79.5872,77.49062,79.2487,77.47109,78.8678,77.43203L79.0501,78.11237C79.3984,78.1319,79.7695,78.14167,80.1471,78.14167C80.6973,78.12214,80.9772,77.84219,80.9902,77.30182L80.9902,74.64232L77.429,74.64232L77.429,79.66185C77.429,80.1729,77.6992,80.4301,78.2591,80.4301L80.6387,80.4301C81.1074,80.4301,81.4297,80.352,81.5892,80.19239999999999C81.76820000000001,79.99062,81.8984,79.47305,81.9701,78.62018L81.2897,78.40208C81.2474,78.95221,81.179,79.32005,81.0879,79.51211C81.0098,79.67161,80.7884,79.76276,80.4499,79.76276L78.5391,79.76276C78.2786,79.76276,78.1582,79.64232,78.1582,79.4112L78.1582,75.28034L80.2904,75.28034ZM79.0176,71.52057C78.2201,72.72174,77.3281,73.76016,76.3483,74.65208L76.76820000000001,75.23151C77.748,74.31029,78.5977,73.30117,79.3398,72.20091C79.9779,72.88125,80.7298,73.79271,81.5892,74.93203L82.0579,74.43073C81.2604,73.41185,80.4173,72.4418,79.54820000000001,71.52057L79.0176,71.52057ZM82.6504,72.31159L82.6504,78.54205999999999L83.3503,78.54205999999999L83.3503,72.31159L82.6504,72.31159ZM84.3203,80.5115C84.8802,80.5115,85.1699,80.2022,85.1699,79.6L85.1699,71.46198L84.4505,71.46198L84.4505,79.42096C84.4505,79.72044,84.3203,79.87018,84.0697,79.87018C83.6074,79.87018,83.1191,79.85065,82.60810000000001,79.82135L82.7676,80.5115L84.3203,80.5115ZM94.7402,75.53099L94.7402,74.13125L95.4108,74.13125L95.4108,73.53229L94.7402,73.53229L94.7402,72.14232L92.5983,72.14232L92.5983,71.4099L91.89840000000001,71.4099L91.89840000000001,72.14232L90.1471,72.14232L90.1471,72.74128L91.89840000000001,72.74128L91.89840000000001,73.53229L89.6589,73.53229L89.6589,74.13125L91.89840000000001,74.13125L91.89840000000001,74.93203L90.1471,74.93203L90.1471,75.53099L91.89840000000001,75.53099L91.89840000000001,76.33177L89.9388,76.33177L89.9388,76.92096L91.89840000000001,76.92096L91.89840000000001,77.75104L89.62960000000001,77.75104L89.62960000000001,78.36302L91.89840000000001,78.36302L91.89840000000001,79.3526L92.5983,79.3526L92.5983,78.36302L95.2285,78.36302L95.2285,77.75104L92.5983,77.75104L92.5983,76.92096L94.9388,76.92096L94.9388,76.33177L92.5983,76.33177L92.5983,75.53099L94.7402,75.53099ZM92.5983,72.74128L94.0404,72.74128L94.0404,73.53229L92.5983,73.53229L92.5983,72.74128ZM92.5983,74.13125L94.0404,74.13125L94.0404,74.93203L92.5983,74.93203L92.5983,74.13125ZM92.12960000000001,79.71068C90.7689,79.69114,89.7402,79.50234,89.0599,79.12148C88.8874,79.02056999999999,88.7279,78.89036,88.5684,78.72109C89.0501,77.79987,89.31710000000001,76.68008,89.3594,75.36172L89.3594,74.93203L87.7871,74.93203C88.2689,74.25169,88.7702,73.46068,89.26820000000001,72.53945L89.26820000000001,71.95026L86.8171,71.95026L86.8171,72.6306L88.4577,72.6306C87.97919999999999,73.48997,87.4388,74.29075,86.8594,75.02969L86.8594,75.59284L88.70830000000001,75.59284C88.6497,76.5401,88.4479,77.37018,88.1094,78.08306999999999C87.849,77.64036,87.60810000000001,77.06094,87.40950000000001,76.3513L86.8073,76.57266C87.04820000000001,77.43203,87.3672,78.14167,87.7578,78.70156C87.4388,79.16055,87.04820000000001,79.56094,86.57939999999999,79.90273L87.04820000000001,80.5115C87.5072,80.1632,87.9076,79.75299,88.2298,79.28099C88.3275,79.3819,88.4382,79.47305,88.5684,79.5707C89.34960000000001,80.0915,90.6387,80.352,92.4388,80.352L95.39779999999999,80.352L95.51820000000001,79.66185C94.3594,79.69114,93.2298,79.71068,92.12960000000001,79.71068Z" fill="#FFFFFF" fill-opacity="1"/></g></g></g></g></svg>