<svg width="224" height="56" viewBox="0 0 224 56" fill="none" xmlns="http://www.w3.org/2000/svg">
<rect x="0.5" y="0.5" width="223" height="55" rx="3.5" fill="white"/>
<path d="M14.55 32.38H19.02V32.97H19.75V28.75H15.58C17.46 27.88 18.75 26.76 19.47 25.39V24.75H15.57C15.77 24.48 15.95 24.2 16.11 23.9L15.32 23.81C14.72 24.87 13.57 25.77 11.86 26.5L12.34 27.12C13.4 26.62 14.26 26.06 14.94 25.43H18.64C18.17 26.25 17.43 26.96 16.41 27.57C15.98 27.2 15.38 26.78 14.62 26.31L14 26.7C14.76 27.13 15.36 27.53 15.8 27.9C14.65 28.48 13.21 28.94 11.48 29.3L11.86 29.99C12.56 29.82 13.21 29.64 13.83 29.44V32.97H14.55V32.38ZM19.02 31.68H14.55V29.42H19.02V31.68ZM21.58 26.57V27.26H22.96C22.64 28.4 22.1 29.41 21.34 30.3L21.65 31.1C22.23 30.3 22.7 29.41 23.04 28.43V32.97H23.73V28.45C24.03 28.8 24.4 29.27 24.82 29.87L25.22 29.27C24.72 28.73 24.23 28.25 23.73 27.81V27.26H24.96V26.57H23.73V25.03C24.24 24.93 24.72 24.81 25.16 24.69L24.91 24.01C23.95 24.31 22.86 24.51 21.62 24.62L21.76 25.3C22.2 25.26 22.62 25.2 23.04 25.14V26.57H21.58ZM27.26 32.95C27.83 32.95 28.12 32.65 28.12 32.05V26.76H27.38V31.87C27.38 32.16 27.25 32.31 27.01 32.31C26.74 32.31 26.45 32.29 26.15 32.26L26.3 32.95H27.26ZM26 28.2C25.75 29.36 25.36 30.43 24.82 31.39L25.44 31.78C25.97 30.81 26.38 29.66 26.67 28.33L26 28.2ZM29.42 28.13L28.77 28.34C29.19 29.37 29.58 30.55 29.93 31.88L30.59 31.59C30.26 30.36 29.87 29.21 29.42 28.13ZM26.68 25.91H29.54C29.42 26.49 29.27 27.01 29.09 27.48L29.79 27.69C29.99 27.03 30.14 26.36 30.26 25.68V25.21H26.95C27.09 24.79 27.21 24.35 27.3 23.89L26.59 23.8C26.35 25.08 25.88 26.16 25.2 27.04L25.64 27.61C26.05 27.11 26.4 26.54 26.68 25.91Z" fill="#666666"/>
<path d="M53.14 23.83V24.48H50.72V25.07H53.14V25.74H51.12V26.32H53.14V27H50.44V27.6H56.56V27H53.83V26.32H55.95V25.74H53.83V25.07H56.31V24.48H53.83V23.83H53.14ZM51.89 30.12H55.12V30.85H51.89V30.12ZM55.12 29.56H51.89V28.82H55.12V29.56ZM51.89 31.41H55.12V31.98C55.12 32.21 54.99 32.33 54.75 32.33L53.95 32.3L54.12 32.94H54.96C55.52 32.94 55.81 32.67 55.81 32.13V28.23H51.2V33H51.89V31.41ZM48.63 23.94L48.12 24.43C48.84 24.97 49.41 25.48 49.83 25.96L50.32 25.46C49.86 24.95 49.3 24.44 48.63 23.94ZM47.42 26.89V27.58H48.85V31.55C48.85 31.72 48.77 31.87 48.62 32.01L48.9 32.65C49.52 32.2 50.12 31.68 50.68 31.1L50.49 30.34C50.15 30.69 49.84 31 49.54 31.28V26.89H47.42ZM59.29 26.61V28.1H58.3C58.55 27.46 58.78 26.73 59 25.91H60.93V25.23H59.17C59.26 24.83 59.35 24.4 59.44 23.95L58.78 23.8C58.69 24.3 58.6 24.77 58.5 25.23H57.51V25.91H58.34C58.11 26.8 57.86 27.55 57.58 28.15L57.73 28.75H59.29V30.24C58.71 30.35 58.09 30.45 57.43 30.53L57.52 31.23C58.13 31.14 58.72 31.04 59.29 30.93V33H59.96V30.78L60.91 30.54V29.86C60.61 29.94 60.3 30.02 59.96 30.1V28.75H60.88V28.1H59.96V26.61H59.29ZM62.24 26.1V26.69H65.11V26.09H62.25C62.75 25.61 63.23 25.08 63.71 24.5C64.47 25.48 65.32 26.31 66.26 26.99L66.64 26.42C65.73 25.78 64.84 24.93 63.97 23.85H63.45C62.64 24.85 61.72 25.73 60.7 26.48L61.09 27.08C61.48 26.78 61.86 26.45 62.24 26.1ZM62.94 32.93C63.43 32.93 63.68 32.67 63.68 32.16V27.49H61.32V33H61.95V31.13H63.07V32.03C63.07 32.25 62.96 32.36 62.74 32.36L62.3 32.34L62.46 32.93H62.94ZM61.95 30.57V29.62H63.07V30.57H61.95ZM61.95 29.06V28.07H63.07V29.06H61.95ZM64.28 27.77V31.36H64.84V27.77H64.28ZM65.37 32.95C65.85 32.95 66.1 32.66 66.1 32.09V27.32H65.47V31.93C65.47 32.21 65.36 32.36 65.15 32.36C64.9 32.36 64.64 32.34 64.37 32.32L64.52 32.95H65.37ZM71.56 26.15C70.92 28.81 69.53 30.85 67.39 32.25L67.82 32.86C69.92 31.5 71.3 29.54 71.96 26.99C72.01 27.11 72.06 27.25 72.12 27.41C73.15 30.05 74.47 31.87 76.09 32.85L76.54 32.27C74.96 31.28 73.71 29.59 72.77 27.2C72.15 25.58 71.4 24.45 70.51 23.83L69.91 24.21C70.55 24.67 71.1 25.31 71.56 26.15ZM80.55 32.38H85.02V32.97H85.75V28.75H81.58C83.46 27.88 84.75 26.76 85.47 25.39V24.75H81.57C81.77 24.48 81.95 24.2 82.11 23.9L81.32 23.81C80.72 24.87 79.57 25.77 77.86 26.5L78.34 27.12C79.4 26.62 80.26 26.06 80.94 25.43H84.64C84.17 26.25 83.43 26.96 82.41 27.57C81.98 27.2 81.38 26.78 80.62 26.31L80 26.7C80.76 27.13 81.36 27.53 81.8 27.9C80.65 28.48 79.21 28.94 77.48 29.3L77.86 29.99C78.56 29.82 79.21 29.64 79.83 29.44V32.97H80.55V32.38ZM85.02 31.68H80.55V29.42H85.02V31.68ZM87.58 26.57V27.26H88.96C88.64 28.4 88.1 29.41 87.34 30.3L87.65 31.1C88.23 30.3 88.7 29.41 89.04 28.43V32.97H89.73V28.45C90.03 28.8 90.4 29.27 90.82 29.87L91.22 29.27C90.72 28.73 90.23 28.25 89.73 27.81V27.26H90.96V26.57H89.73V25.03C90.24 24.93 90.72 24.81 91.16 24.69L90.91 24.01C89.95 24.31 88.86 24.51 87.62 24.62L87.76 25.3C88.2 25.26 88.62 25.2 89.04 25.14V26.57H87.58ZM93.26 32.95C93.83 32.95 94.12 32.65 94.12 32.05V26.76H93.38V31.87C93.38 32.16 93.25 32.31 93.01 32.31C92.74 32.31 92.45 32.29 92.15 32.26L92.3 32.95H93.26ZM92 28.2C91.75 29.36 91.36 30.43 90.82 31.39L91.44 31.78C91.97 30.81 92.38 29.66 92.67 28.33L92 28.2ZM95.42 28.13L94.77 28.34C95.19 29.37 95.58 30.55 95.93 31.88L96.59 31.59C96.26 30.36 95.87 29.21 95.42 28.13ZM92.68 25.91H95.54C95.42 26.49 95.27 27.01 95.09 27.48L95.79 27.69C95.99 27.03 96.14 26.36 96.26 25.68V25.21H92.95C93.09 24.79 93.21 24.35 93.3 23.89L92.59 23.8C92.35 25.08 91.88 26.16 91.2 27.04L91.64 27.61C92.05 27.11 92.4 26.54 92.68 25.91Z" fill="#CCCCCC"/>
<path d="M39.5 18C39.5 17.1716 40.1716 16.5 41 16.5H137C137.828 16.5 138.5 17.1716 138.5 18V38C138.5 38.8284 137.828 39.5 137 39.5H41C40.1716 39.5 39.5 38.8284 39.5 38V18Z" stroke="#E5E5E5"/>
<rect x="153" y="16" width="60" height="24" rx="2" fill="#337EFF"/>
<path d="M175.03 27.58V31.26H181.01V27.58H175.03ZM180.31 30.62H175.73V29.74H180.31V30.62ZM175.73 29.13V28.22H180.31V29.13H175.73ZM173.91 24.73V25.39H177C176.22 26.09 175.03 26.68 173.43 27.14L173.81 27.78C175.56 27.15 176.83 26.35 177.61 25.39H177.67V27.26H178.37V25.39H178.43C179.17 26.37 180.44 27.16 182.24 27.77L182.55 27.12C180.97 26.7 179.81 26.12 179.06 25.39H182.13V24.73H178.37V23.81H177.67V24.73H173.91ZM173.71 32.04V32.71H182.3V32.04H173.71ZM187.23 26.75V31.33H190.29V26.75H187.23ZM189.61 30.71H187.93V29.32H189.61V30.71ZM187.93 28.72V27.37H189.61V28.72H187.93ZM187.89 23.8C187.6 24.98 187.04 25.97 186.2 26.79L186.65 27.37C187.19 26.85 187.63 26.25 187.98 25.58H191.52C191.5 28.82 191.46 30.76 191.39 31.39C191.31 31.98 191.04 32.28 190.58 32.28C190.29 32.28 189.95 32.26 189.55 32.24L189.72 32.89C190.17 32.91 190.49 32.92 190.67 32.92C191.51 32.92 191.99 32.5 192.09 31.67C192.18 30.81 192.23 28.55 192.23 24.9H188.29C188.41 24.58 188.52 24.25 188.61 23.9L187.89 23.8ZM184.62 23.93L184.12 24.42C184.84 24.96 185.4 25.48 185.82 25.97L186.31 25.47C185.85 24.95 185.28 24.44 184.62 23.93ZM183.42 26.89V27.58H184.89V31.56C184.89 31.72 184.81 31.87 184.67 32L184.95 32.64C185.61 32.19 186.23 31.68 186.81 31.1L186.61 30.34C186.24 30.71 185.9 31.04 185.58 31.32V26.89H183.42Z" fill="white"/>
<rect x="0.5" y="0.5" width="223" height="55" rx="3.5" stroke="#E5E5E5"/>
</svg>
