<svg xmlns="http://www.w3.org/2000/svg" xmlns:xlink="http://www.w3.org/1999/xlink" fill="none" version="1.1" width="197.9921875" height="24" viewBox="0 0 197.9921875 24"><g style="mix-blend-mode:passthrough"><g style="mix-blend-mode:passthrough"><g style="mix-blend-mode:passthrough"><path d="M3.54818,15.98086L8.01758,15.98086L8.01758,16.5733L8.75,16.5733L8.75,12.3513L4.58008,12.3513C6.45833,11.48216,7.75065,10.36237,8.47005,8.99193L8.47005,8.35065L4.57031,8.35065C4.76888,8.08047,4.94792,7.80052,5.10742,7.50104L4.31966,7.4099C3.71745,8.47109,2.56836,9.369530000000001,0.859375,10.10195L1.33789,10.72044C2.39909,10.2224,3.25846,9.6625,3.9388,9.03099L7.63997,9.03099C7.16797,9.8513,6.42904,10.56094,5.41016,11.16966C4.97721,10.80182,4.37825,10.3819,3.61979,9.9099L2.99805,10.300519999999999C3.75977,10.73021,4.35872,11.130600000000001,4.79818,11.50169C3.64909,12.08112,2.20703,12.540099999999999,0.478516,12.901430000000001L0.859375,13.59154C1.55924,13.422270000000001,2.20703,13.23997,2.82878,13.041409999999999L2.82878,16.5733L3.54818,16.5733L3.54818,15.98086ZM8.01758,15.28099L3.54818,15.28099L3.54818,13.02188L8.01758,13.02188L8.01758,15.28099ZM10.5794,10.17031L10.5794,10.860420000000001L11.9596,10.860420000000001C11.6374,11.99974,11.097,13.01211,10.3385,13.900780000000001L10.6478,14.70156C11.2272,13.900780000000001,11.6992,13.01211,12.0378,12.03229L12.0378,16.5733L12.7279,16.5733L12.7279,12.05182C13.0273,12.40013,13.3984,12.87214,13.8184,13.47109L14.2188,12.87214C13.7174,12.331769999999999,13.2292,11.85,12.7279,11.41055L12.7279,10.860420000000001L13.9583,10.860420000000001L13.9583,10.17031L12.7279,10.17031L12.7279,8.6306C13.2389,8.52969,13.7174,8.4125,14.1602,8.29206L13.9095,7.61172C12.9492,7.9112,11.8587,8.109770000000001,10.6185,8.22044L10.7585,8.900780000000001C11.1979,8.86172,11.6178,8.79987,12.0378,8.74128L12.0378,10.17031L10.5794,10.17031ZM16.2598,16.5505C16.8294,16.5505,17.1191,16.250999999999998,17.1191,15.65208L17.1191,10.36237L16.3802,10.36237L16.3802,15.47305C16.3802,15.76276,16.25,15.9125,16.0091,15.9125C15.7389,15.9125,15.4492,15.89297,15.1497,15.86042L15.2995,16.5505L16.2598,16.5505ZM15,11.801169999999999C14.7493,12.96003,14.3587,14.03099,13.8184,14.99128L14.4401,15.3819C14.9674,14.41185,15.3776,13.26276,15.6673,11.93138L15,11.801169999999999ZM18.418,11.73281L17.7702,11.94115C18.1901,12.96979,18.5807,14.15143,18.929,15.48281L19.5898,15.1931C19.2578,13.96263,18.8704,12.81029,18.418,11.73281ZM15.6803,9.50951L18.5384,9.50951C18.418,10.09219,18.2682,10.609770000000001,18.0892,11.081769999999999L18.7891,11.290099999999999C18.9876,10.63255,19.1406,9.96198,19.2578,9.28164L19.2578,8.80964L15.9473,8.80964C16.0905,8.389710000000001,16.2077,7.95026,16.2988,7.49128L15.5892,7.40013C15.3483,8.67943,14.8796,9.760159999999999,14.1992,10.64232L14.6387,11.21198C15.0488,10.71068,15.4004,10.141020000000001,15.6803,9.50951Z" fill="#666666" fill-opacity="1"/></g><g style="mix-blend-mode:passthrough"><path d="M42.13932,7.429428L42.13932,8.08047L39.71745,8.08047L39.71745,8.66966L42.13932,8.66966L42.13932,9.34023L40.11784,9.34023L40.11784,9.91966L42.13932,9.91966L42.13932,10.6L39.4375,10.6L39.4375,11.202210000000001L45.56055,11.202210000000001L45.56055,10.6L42.82943,10.6L42.82943,9.91966L44.948570000000004,9.91966L44.948570000000004,9.34023L42.82943,9.34023L42.82943,8.66966L45.3099,8.66966L45.3099,8.08047L42.82943,8.08047L42.82943,7.429428L42.13932,7.429428ZM40.88932,13.72175L44.11849,13.72175L44.11849,14.45091L40.88932,14.45091L40.88932,13.72175ZM44.11849,13.161850000000001L40.88932,13.161850000000001L40.88932,12.422920000000001L44.11849,12.422920000000001L44.11849,13.161850000000001ZM40.88932,15.01081L44.11849,15.01081L44.11849,15.58047C44.11849,15.81159,43.98828,15.93203,43.75065,15.93203L42.94987,15.90273L43.11914,16.54076L43.95898,16.54076C44.518879999999996,16.54076,44.80859,16.27057,44.80859,15.73021L44.80859,11.83047L40.19922,11.83047L40.19922,16.602600000000002L40.88932,16.602600000000002L40.88932,15.01081ZM37.6276,7.540105L37.11979,8.03164C37.83919,8.57201,38.40885,9.07982,38.82878,9.561589999999999L39.31706,9.06029C38.85807,8.55247,38.29818,8.041409999999999,37.6276,7.540105ZM36.419922,10.49258L36.419922,11.182680000000001L37.84896,11.182680000000001L37.84896,15.15078C37.84896,15.32005,37.76758,15.47305,37.61784,15.61302L37.89779,16.25104C38.51953,15.80182,39.11849,15.28099,39.67839,14.70156L39.489580000000004,13.943100000000001C39.14779,14.291409999999999,38.83854,14.60065,38.53906,14.880600000000001L38.53906,10.49258L36.419922,10.49258ZM48.288399999999996,10.21263L48.288399999999996,11.70026L47.2988,11.70026C47.5495,11.06224,47.7773,10.32982,47.9987,9.50951L49.929,9.50951L49.929,8.832419999999999L48.168,8.832419999999999C48.259100000000004,8.43203,48.347,8.00234,48.4382,7.54987L47.7773,7.400131C47.6895,7.901433,47.5983,8.37018,47.4974,8.832419999999999L46.5078,8.832419999999999L46.5078,9.50951L47.3379,9.50951C47.11,10.40143,46.8594,11.15013,46.5794,11.75234L46.7292,12.3513L48.288399999999996,12.3513L48.288399999999996,13.84219C47.709,13.95287,47.087199999999996,14.050519999999999,46.4297,14.1319L46.5176,14.831769999999999C47.129599999999996,14.74063,47.7188,14.64297,48.288399999999996,14.53229L48.288399999999996,16.602600000000002L48.959,16.602600000000002L48.959,14.38255L49.9095,14.141670000000001L49.9095,13.46133C49.61,13.54271,49.2975,13.62083,48.959,13.702210000000001L48.959,12.3513L49.8802,12.3513L49.8802,11.70026L48.959,11.70026L48.959,10.21263L48.288399999999996,10.21263ZM51.2376,9.70156L51.2376,10.29076L54.1087,10.29076L54.1087,9.6918L51.2474,9.6918C51.7487,9.21003,52.2305,8.67943,52.709,8.1C53.4674,9.07982,54.3203,9.9099,55.2578,10.59023L55.6387,10.02057C54.7305,9.38255,53.838499999999996,8.52969,52.9694,7.452214L52.4486,7.452214C51.638,8.45156,50.7201,9.33047,49.697900000000004,10.082419999999999L50.088499999999996,10.68138C50.4792,10.3819,50.86,10.04987,51.2376,9.70156ZM51.9375,16.53099C52.429,16.53099,52.6797,16.27057,52.6797,15.76276L52.6797,11.09154L50.3197,11.09154L50.3197,16.602600000000002L50.947900000000004,16.602600000000002L50.947900000000004,14.73086L52.0677,14.73086L52.0677,15.63255C52.0677,15.85065,51.960300000000004,15.96133,51.7389,15.96133L51.2995,15.9418L51.459,16.53099L51.9375,16.53099ZM50.947900000000004,14.170960000000001L50.947900000000004,13.22044L52.0677,13.22044L52.0677,14.170960000000001L50.947900000000004,14.170960000000001ZM50.947900000000004,12.66055L50.947900000000004,11.670960000000001L52.0677,11.670960000000001L52.0677,12.66055L50.947900000000004,12.66055ZM53.2786,11.37148L53.2786,14.96198L53.838499999999996,14.96198L53.838499999999996,11.37148L53.2786,11.37148ZM54.3691,16.55052C54.8477,16.55052,55.098299999999995,16.26081,55.098299999999995,15.69115L55.098299999999995,10.922270000000001L54.4701,10.922270000000001L54.4701,15.53164C54.4701,15.81159,54.3594,15.96133,54.147800000000004,15.96133C53.900400000000005,15.96133,53.64,15.9418,53.3698,15.92227L53.5195,16.55052L54.3691,16.55052ZM60.5573,9.75039C59.9193,12.4099,58.5293,14.45091,56.3874,15.85065L56.817099999999996,16.46263C58.9199,15.10195,60.3001,13.14232,60.9577,10.59023C61.0098,10.71068,61.0586,10.85065,61.120400000000004,11.010159999999999C62.149100000000004,13.65013,63.4674,15.47305,65.0885,16.45286L65.5378,15.87018C63.959,14.880600000000001,62.709,13.19115,61.7682,10.80182C61.149699999999996,9.18073,60.397800000000004,8.051169999999999,59.509100000000004,7.429428L58.9102,7.810287C59.5482,8.27253,60.098299999999995,8.91055,60.5573,9.75039ZM69.54820000000001,15.98086L74.0176,15.98086L74.0176,16.57331L74.75,16.57331L74.75,12.3513L70.5801,12.3513C72.45830000000001,11.48216,73.7507,10.36237,74.4701,8.99193L74.4701,8.35065L70.5703,8.35065C70.7689,8.08047,70.9479,7.800521,71.1074,7.501042L70.3197,7.409897C69.7174,8.47109,68.5684,9.369530000000001,66.8594,10.10195L67.3379,10.72044C68.3991,10.2224,69.2585,9.6625,69.9388,9.03099L73.64,9.03099C73.168,9.8513,72.429,10.56094,71.4102,11.16966C70.97720000000001,10.80182,70.3783,10.3819,69.6198,9.9099L68.99799999999999,10.30052C69.7598,10.73021,70.3587,11.130600000000001,70.79820000000001,11.50169C69.6491,12.08112,68.207,12.540099999999999,66.4785,12.901430000000001L66.8594,13.59154C67.5592,13.422270000000001,68.207,13.23997,68.8288,13.041409999999999L68.8288,16.57331L69.54820000000001,16.57331L69.54820000000001,15.98086ZM74.0176,15.28099L69.54820000000001,15.28099L69.54820000000001,13.02188L74.0176,13.02188L74.0176,15.28099ZM76.57939999999999,10.17031L76.57939999999999,10.86042L77.9596,10.86042C77.6374,11.99974,77.09700000000001,13.01211,76.33850000000001,13.900780000000001L76.64779999999999,14.70156C77.22720000000001,13.900780000000001,77.69919999999999,13.01211,78.0378,12.03229L78.0378,16.57331L78.7279,16.57331L78.7279,12.05182C79.0273,12.40013,79.39840000000001,12.87214,79.8184,13.47109L80.2188,12.87214C79.7174,12.331769999999999,79.22919999999999,11.85,78.7279,11.41055L78.7279,10.86042L79.95830000000001,10.86042L79.95830000000001,10.17031L78.7279,10.17031L78.7279,8.6306C79.2389,8.52969,79.7174,8.4125,80.1602,8.29206L79.90950000000001,7.611719C78.94919999999999,7.911199,77.8587,8.10977,76.6185,8.22044L76.7585,8.90078C77.1979,8.86172,77.6178,8.79987,78.0378,8.74128L78.0378,10.17031L76.57939999999999,10.17031ZM82.2598,16.55052C82.82939999999999,16.55052,83.1191,16.25104,83.1191,15.65208L83.1191,10.36237L82.3802,10.36237L82.3802,15.47305C82.3802,15.76276,82.25,15.9125,82.00909999999999,15.9125C81.7389,15.9125,81.44919999999999,15.89297,81.1497,15.86042L81.2995,16.55052L82.2598,16.55052ZM81,11.801169999999999C80.7493,12.96003,80.3587,14.03099,79.8184,14.99128L80.4401,15.3819C80.9674,14.411850000000001,81.3776,13.26276,81.6673,11.93138L81,11.801169999999999ZM84.418,11.73281L83.7702,11.94115C84.1901,12.96979,84.58070000000001,14.151430000000001,84.929,15.48281L85.5898,15.1931C85.2578,13.96263,84.87039999999999,12.81029,84.418,11.73281ZM81.6803,9.50951L84.5384,9.50951C84.418,10.09219,84.26820000000001,10.609770000000001,84.0892,11.081769999999999L84.78909999999999,11.290099999999999C84.9876,10.63255,85.1406,9.96198,85.2578,9.28164L85.2578,8.80964L81.9473,8.80964C82.09049999999999,8.389710000000001,82.2077,7.950261,82.2988,7.491277L81.5892,7.400131C81.3483,8.67943,80.87960000000001,9.760159999999999,80.19919999999999,10.64232L80.6387,11.21198C81.0488,10.71068,81.40039999999999,10.141020000000001,81.6803,9.50951Z" fill="#CCCCCC" fill-opacity="1"/></g><g style="mix-blend-mode:passthrough"><path d="M29.29038,1.28997Q29.58887,1,30.01561,1L78,1L125.9844,1Q126.4111,1,126.7096,1.28997Q127,1.57206,127,1.97381L127,12L127,22.0262Q127,22.4279,126.7096,22.71Q126.4111,23,125.9844,23L78,23L30.01561,23Q29.58887,23,29.29038,22.71Q29,22.4279,29,22.0262L29,1.97381Q29,1.57205,29.29038,1.28997ZM125.9844,0L30.01561,0C28.911037,0,28,0.869241,28,1.97381L28,22.0262C28,23.1308,28.911037,24,30.01561,24L125.9844,24C127.089,24,128,23.1308,128,22.0262L128,1.97381C128,0.869241,127.089,0,125.9844,0Z" fill-rule="evenodd" fill="#E5E5E5" fill-opacity="1"/></g></g><g style="mix-blend-mode:passthrough"><rect x="137.9921875" y="0" width="60" height="24" rx="2" fill="#337EFF" fill-opacity="1"/><g style="mix-blend-mode:passthrough"><path d="M158.0201775,11.182680000000001L158.0201775,14.86107L163.9999975,14.86107L163.9999975,11.182680000000001L158.0201775,11.182680000000001ZM163.3001275,14.22305L158.7200475,14.22305L158.7200475,13.34089L163.3001275,13.34089L163.3001275,14.22305ZM158.7200475,12.73216L158.7200475,11.8207L163.3001275,11.8207L163.3001275,12.73216L158.7200475,12.73216ZM156.9003905,8.33112L156.9003905,8.99193L159.9895875,8.99193C159.2115875,9.6918,158.0201775,10.28099,156.4218755,10.73997L156.7994795,11.38125C158.5507775,10.74974,159.8203075,9.952210000000001,160.6015675,8.99193L160.6601575,8.99193L160.6601575,10.860420000000001L161.3600275,10.860420000000001L161.3600275,8.99193L161.4218775,8.99193C162.1608075,9.97175,163.4303375,10.76276,165.2304675,11.37148L165.5429675,10.72044C163.9609375,10.300519999999999,162.8020875,9.72109,162.0501275,8.99193L165.1197875,8.99193L165.1197875,8.33112L161.3600275,8.33112L161.3600275,7.4099L160.6601575,7.4099L160.6601575,8.33112L156.9003905,8.33112ZM156.7018225,15.64232L156.7018225,16.3129L165.2923175,16.3129L165.2923175,15.64232L156.7018225,15.64232ZM173.5539875,10.352599999999999L173.5539875,14.93268L176.6138875,14.93268L176.6138875,10.352599999999999L173.5539875,10.352599999999999ZM175.9335875,14.31094L174.2538875,14.31094L174.2538875,12.920960000000001L175.9335875,12.920960000000001L175.9335875,14.31094ZM174.2538875,12.322009999999999L174.2538875,10.97109L175.9335875,10.97109L175.9335875,12.322009999999999L174.2538875,12.322009999999999ZM174.2148875,7.40013C173.9250875,8.58177,173.3651875,9.571349999999999,172.5253875,10.391670000000001L172.97458749999998,10.97109C173.5149875,10.45026,173.9543875,9.8513,174.3026875,9.18073L177.8443875,9.18073C177.8248875,12.422920000000001,177.7857875,14.36302,177.7141875,14.99128C177.6360875,15.58047,177.36588749999999,15.8832,176.9036875,15.8832C176.6138875,15.8832,176.2753875,15.86042,175.8749875,15.84089L176.0442875,16.4919C176.49348750000001,16.511499999999998,176.8157875,16.5212,176.9947875,16.5212C177.8345875,16.5212,178.3131875,16.101300000000002,178.4140875,15.27122C178.5051875,14.41185,178.5539875,12.15273,178.5539875,8.50039L174.6151875,8.50039C174.7356875,8.18138,174.8430875,7.84935,174.9342875,7.50104L174.2148875,7.40013ZM170.9433875,7.53034L170.4452875,8.02188C171.1646875,8.56224,171.7245875,9.07982,172.1444875,9.571349999999999L172.6327875,9.07005C172.1737875,8.55247,171.6041875,8.041409999999999,170.9433875,7.53034ZM169.7454875,10.49258L169.7454875,11.182680000000001L171.2135875,11.182680000000001L171.2135875,15.16055C171.2135875,15.32005,171.1353875,15.47305,170.9954875,15.6L171.2753875,16.241300000000003C171.9329875,15.79206,172.5546875,15.28099,173.1340875,14.70156L172.9355875,13.943100000000001C172.56448749999998,14.31094,172.2226875,14.64297,171.9036875,14.92292L171.9036875,10.49258L169.7454875,10.49258Z" fill="#FFFFFF" fill-opacity="1"/></g></g></g></svg>