<svg width="200" height="64" viewBox="0 0 200 64" fill="none" xmlns="http://www.w3.org/2000/svg">
<path d="M3.55 17.38H8.02V17.97H8.75V13.75H4.58C6.46 12.88 7.75 11.76 8.47 10.39V9.75H4.57C4.77 9.48 4.95 9.2 5.11 8.9L4.32 8.81C3.72 9.87 2.57 10.77 0.86 11.5L1.34 12.12C2.4 11.62 3.26 11.06 3.94 10.43H7.64C7.17 11.25 6.43 11.96 5.41 12.57C4.98 12.2 4.38 11.78 3.62 11.31L3 11.7C3.76 12.13 4.36 12.53 4.8 12.9C3.65 13.48 2.21 13.94 0.48 14.3L0.86 14.99C1.56 14.82 2.21 14.64 2.83 14.44V17.97H3.55V17.38ZM8.02 16.68H3.55V14.42H8.02V16.68ZM10.58 11.57V12.26H11.96C11.64 13.4 11.1 14.41 10.34 15.3L10.65 16.1C11.23 15.3 11.7 14.41 12.04 13.43V17.97H12.73V13.45C13.03 13.8 13.4 14.27 13.82 14.87L14.22 14.27C13.72 13.73 13.23 13.25 12.73 12.81V12.26H13.96V11.57H12.73V10.03C13.24 9.93 13.72 9.81 14.16 9.69L13.91 9.01C12.95 9.31 11.86 9.51 10.62 9.62L10.76 10.3C11.2 10.26 11.62 10.2 12.04 10.14V11.57H10.58ZM16.26 17.95C16.83 17.95 17.12 17.65 17.12 17.05V11.76H16.38V16.87C16.38 17.16 16.25 17.31 16.01 17.31C15.74 17.31 15.45 17.29 15.15 17.26L15.3 17.95H16.26ZM15 13.2C14.75 14.36 14.36 15.43 13.82 16.39L14.44 16.78C14.97 15.81 15.38 14.66 15.67 13.33L15 13.2ZM18.42 13.13L17.77 13.34C18.19 14.37 18.58 15.55 18.93 16.88L19.59 16.59C19.26 15.36 18.87 14.21 18.42 13.13ZM15.68 10.91H18.54C18.42 11.49 18.27 12.01 18.09 12.48L18.79 12.69C18.99 12.03 19.14 11.36 19.26 10.68V10.21H15.95C16.09 9.79 16.21 9.35 16.3 8.89L15.59 8.8C15.35 10.08 14.88 11.16 14.2 12.04L14.64 12.61C15.05 12.11 15.4 11.54 15.68 10.91Z" fill="#666666"/>
<path d="M3.55 53.38H8.02V53.97H8.75V49.75H4.58C6.46 48.88 7.75 47.76 8.47 46.39V45.75H4.57C4.77 45.48 4.95 45.2 5.11 44.9L4.32 44.81C3.72 45.87 2.57 46.77 0.86 47.5L1.34 48.12C2.4 47.62 3.26 47.06 3.94 46.43H7.64C7.17 47.25 6.43 47.96 5.41 48.57C4.98 48.2 4.38 47.78 3.62 47.31L3 47.7C3.76 48.13 4.36 48.53 4.8 48.9C3.65 49.48 2.21 49.94 0.48 50.3L0.86 50.99C1.56 50.82 2.21 50.64 2.83 50.44V53.97H3.55V53.38ZM8.02 52.68H3.55V50.42H8.02V52.68ZM10.58 47.57V48.26H11.96C11.64 49.4 11.1 50.41 10.34 51.3L10.65 52.1C11.23 51.3 11.7 50.41 12.04 49.43V53.97H12.73V49.45C13.03 49.8 13.4 50.27 13.82 50.87L14.22 50.27C13.72 49.73 13.23 49.25 12.73 48.81V48.26H13.96V47.57H12.73V46.03C13.24 45.93 13.72 45.81 14.16 45.69L13.91 45.01C12.95 45.31 11.86 45.51 10.62 45.62L10.76 46.3C11.2 46.26 11.62 46.2 12.04 46.14V47.57H10.58ZM16.26 53.95C16.83 53.95 17.12 53.65 17.12 53.05V47.76H16.38V52.87C16.38 53.16 16.25 53.31 16.01 53.31C15.74 53.31 15.45 53.29 15.15 53.26L15.3 53.95H16.26ZM15 49.2C14.75 50.36 14.36 51.43 13.82 52.39L14.44 52.78C14.97 51.81 15.38 50.66 15.67 49.33L15 49.2ZM18.42 49.13L17.77 49.34C18.19 50.37 18.58 51.55 18.93 52.88L19.59 52.59C19.26 51.36 18.87 50.21 18.42 49.13ZM15.68 46.91H18.54C18.42 47.49 18.27 48.01 18.09 48.48L18.79 48.69C18.99 48.03 19.14 47.36 19.26 46.68V46.21H15.95C16.09 45.79 16.21 45.35 16.3 44.89L15.59 44.8C15.35 46.08 14.88 47.16 14.2 48.04L14.64 48.61C15.05 48.11 15.4 47.54 15.68 46.91Z" fill="#666666"/>
<path d="M111.55 17.38H116.02V17.97H116.75V13.75H112.58C114.46 12.88 115.75 11.76 116.47 10.39V9.75H112.57C112.77 9.48 112.95 9.2 113.11 8.9L112.32 8.81C111.72 9.87 110.57 10.77 108.86 11.5L109.34 12.12C110.4 11.62 111.26 11.06 111.94 10.43H115.64C115.17 11.25 114.43 11.96 113.41 12.57C112.98 12.2 112.38 11.78 111.62 11.31L111 11.7C111.76 12.13 112.36 12.53 112.8 12.9C111.65 13.48 110.21 13.94 108.48 14.3L108.86 14.99C109.56 14.82 110.21 14.64 110.83 14.44V17.97H111.55V17.38ZM116.02 16.68H111.55V14.42H116.02V16.68ZM118.58 11.57V12.26H119.96C119.64 13.4 119.1 14.41 118.34 15.3L118.65 16.1C119.23 15.3 119.7 14.41 120.04 13.43V17.97H120.73V13.45C121.03 13.8 121.4 14.27 121.82 14.87L122.22 14.27C121.72 13.73 121.23 13.25 120.73 12.81V12.26H121.96V11.57H120.73V10.03C121.24 9.93 121.72 9.81 122.16 9.69L121.91 9.01C120.95 9.31 119.86 9.51 118.62 9.62L118.76 10.3C119.2 10.26 119.62 10.2 120.04 10.14V11.57H118.58ZM124.26 17.95C124.83 17.95 125.12 17.65 125.12 17.05V11.76H124.38V16.87C124.38 17.16 124.25 17.31 124.01 17.31C123.74 17.31 123.45 17.29 123.15 17.26L123.3 17.95H124.26ZM123 13.2C122.75 14.36 122.36 15.43 121.82 16.39L122.44 16.78C122.97 15.81 123.38 14.66 123.67 13.33L123 13.2ZM126.42 13.13L125.77 13.34C126.19 14.37 126.58 15.55 126.93 16.88L127.59 16.59C127.26 15.36 126.87 14.21 126.42 13.13ZM123.68 10.91H126.54C126.42 11.49 126.27 12.01 126.09 12.48L126.79 12.69C126.99 12.03 127.14 11.36 127.26 10.68V10.21H123.95C124.09 9.79 124.21 9.35 124.3 8.89L123.59 8.8C123.35 10.08 122.88 11.16 122.2 12.04L122.64 12.61C123.05 12.11 123.4 11.54 123.68 10.91Z" fill="#666666"/>
<path d="M42.14 8.83V9.48H39.72V10.07H42.14V10.74H40.12V11.32H42.14V12H39.44V12.6H45.56V12H42.83V11.32H44.95V10.74H42.83V10.07H45.31V9.48H42.83V8.83H42.14ZM40.89 15.12H44.12V15.85H40.89V15.12ZM44.12 14.56H40.89V13.82H44.12V14.56ZM40.89 16.41H44.12V16.98C44.12 17.21 43.99 17.33 43.75 17.33L42.95 17.3L43.12 17.94H43.96C44.52 17.94 44.81 17.67 44.81 17.13V13.23H40.2V18H40.89V16.41ZM37.63 8.94L37.12 9.43C37.84 9.97 38.41 10.48 38.83 10.96L39.32 10.46C38.86 9.95 38.3 9.44 37.63 8.94ZM36.42 11.89V12.58H37.85V16.55C37.85 16.72 37.77 16.87 37.62 17.01L37.9 17.65C38.52 17.2 39.12 16.68 39.68 16.1L39.49 15.34C39.15 15.69 38.84 16 38.54 16.28V11.89H36.42ZM47.26 8.99L46.77 9.46C47.48 10.02 48.04 10.55 48.45 11.05L48.95 10.55C48.49 10.03 47.93 9.51 47.26 8.99ZM53.07 17.82H55.39L55.57 17.1C55.3 17.12 54.92 17.13 54.44 17.14C53.94 17.15 53.45 17.16 52.97 17.16C52.19 17.16 51.53 17.15 51.01 17.14C50.41 17.12 49.96 17.04 49.65 16.9C49.37 16.77 49.11 16.56 48.87 16.27C48.79 16.18 48.71 16.1 48.63 16.04V12.3H46.54V12.96H47.96V16C47.54 16.18 47.07 16.7 46.53 17.55L47.07 18.04C47.63 17.1 48.03 16.64 48.28 16.64C48.4 16.64 48.53 16.72 48.67 16.89C48.98 17.25 49.33 17.5 49.72 17.62C50.12 17.73 50.65 17.79 51.29 17.8C51.93 17.81 52.53 17.82 53.07 17.82ZM52.21 8.8V10.08H50.89C51.01 9.76 51.12 9.43 51.22 9.08L50.53 8.94C50.29 9.84 49.9 10.67 49.36 11.42L49.99 11.81C50.21 11.49 50.41 11.15 50.59 10.77H52.21V12.2H49.61V12.9H51.22C51.19 13.52 51.09 14.06 50.92 14.5C50.66 15.1 50.13 15.6 49.32 16L49.79 16.57C50.73 16.08 51.34 15.45 51.6 14.69C51.77 14.19 51.87 13.59 51.9 12.9H52.91V15.74C52.91 15.96 52.97 16.14 53.11 16.28C53.24 16.42 53.43 16.49 53.69 16.49H54.41C54.75 16.48 54.99 16.4 55.13 16.26C55.28 16.1 55.39 15.61 55.45 14.78L54.82 14.57C54.78 15.28 54.7 15.68 54.58 15.77C54.5 15.83 54.4 15.86 54.26 15.86H53.9C53.68 15.86 53.58 15.76 53.58 15.58V12.9H55.26V12.2H52.91V10.77H54.91V10.08H52.91V8.8H52.21ZM60.13 9.23V9.88H60.63C60.91 10.64 61.36 11.27 61.99 11.78C61.37 12.08 60.63 12.32 59.78 12.52L60.12 13.13C61.09 12.89 61.93 12.59 62.63 12.21C63.35 12.63 64.27 12.92 65.37 13.07L65.63 12.43C64.72 12.31 63.94 12.1 63.3 11.8C64.06 11.26 64.58 10.61 64.87 9.83V9.23H60.13ZM61.34 9.88H64.11C63.8 10.48 63.31 10.99 62.63 11.42C62.04 11.02 61.61 10.5 61.34 9.88ZM57.62 17.91C58.21 17.91 58.51 17.62 58.51 17.04V14.17C58.9 14.01 59.28 13.84 59.65 13.66V12.93C59.27 13.12 58.89 13.3 58.51 13.46V11.44H59.63V10.75H58.51V8.86H57.77V10.75H56.55V11.44H57.77V13.73C57.32 13.88 56.86 14.01 56.39 14.12L56.57 14.84C56.97 14.72 57.37 14.59 57.77 14.45V16.85C57.77 17.11 57.63 17.25 57.37 17.25C57.12 17.25 56.86 17.23 56.6 17.21L56.75 17.91H57.62ZM60.3 13.85V14.51H62.3V15.65H59.79V16.32H62.3V17.9H63V16.32H65.48V15.65H63V14.51H64.97V13.85H63V12.97H62.3V13.85H60.3Z" fill="#666666"/>
<path d="M150.14 8.83V9.48H147.72V10.07H150.14V10.74H148.12V11.32H150.14V12H147.44V12.6H153.56V12H150.83V11.32H152.95V10.74H150.83V10.07H153.31V9.48H150.83V8.83H150.14ZM148.89 15.12H152.12V15.85H148.89V15.12ZM152.12 14.56H148.89V13.82H152.12V14.56ZM148.89 16.41H152.12V16.98C152.12 17.21 151.99 17.33 151.75 17.33L150.95 17.3L151.12 17.94H151.96C152.52 17.94 152.81 17.67 152.81 17.13V13.23H148.2V18H148.89V16.41ZM145.63 8.94L145.12 9.43C145.84 9.97 146.41 10.48 146.83 10.96L147.32 10.46C146.86 9.95 146.3 9.44 145.63 8.94ZM144.42 11.89V12.58H145.85V16.55C145.85 16.72 145.77 16.87 145.62 17.01L145.9 17.65C146.52 17.2 147.12 16.68 147.68 16.1L147.49 15.34C147.15 15.69 146.84 16 146.54 16.28V11.89H144.42ZM155.26 8.99L154.77 9.46C155.48 10.02 156.04 10.55 156.45 11.05L156.95 10.55C156.49 10.03 155.93 9.51 155.26 8.99ZM161.07 17.82H163.39L163.57 17.1C163.3 17.12 162.92 17.13 162.44 17.14C161.94 17.15 161.45 17.16 160.97 17.16C160.19 17.16 159.53 17.15 159.01 17.14C158.41 17.12 157.96 17.04 157.65 16.9C157.37 16.77 157.11 16.56 156.87 16.27C156.79 16.18 156.71 16.1 156.63 16.04V12.3H154.54V12.96H155.96V16C155.54 16.18 155.07 16.7 154.53 17.55L155.07 18.04C155.63 17.1 156.03 16.64 156.28 16.64C156.4 16.64 156.53 16.72 156.67 16.89C156.98 17.25 157.33 17.5 157.72 17.62C158.12 17.73 158.65 17.79 159.29 17.8C159.93 17.81 160.53 17.82 161.07 17.82ZM160.21 8.8V10.08H158.89C159.01 9.76 159.12 9.43 159.22 9.08L158.53 8.94C158.29 9.84 157.9 10.67 157.36 11.42L157.99 11.81C158.21 11.49 158.41 11.15 158.59 10.77H160.21V12.2H157.61V12.9H159.22C159.19 13.52 159.09 14.06 158.92 14.5C158.66 15.1 158.13 15.6 157.32 16L157.79 16.57C158.73 16.08 159.34 15.45 159.6 14.69C159.77 14.19 159.87 13.59 159.9 12.9H160.91V15.74C160.91 15.96 160.97 16.14 161.11 16.28C161.24 16.42 161.43 16.49 161.69 16.49H162.41C162.75 16.48 162.99 16.4 163.13 16.26C163.28 16.1 163.39 15.61 163.45 14.78L162.82 14.57C162.78 15.28 162.7 15.68 162.58 15.77C162.5 15.83 162.4 15.86 162.26 15.86H161.9C161.68 15.86 161.58 15.76 161.58 15.58V12.9H163.26V12.2H160.91V10.77H162.91V10.08H160.91V8.8H160.21ZM168.13 9.23V9.88H168.63C168.91 10.64 169.36 11.27 169.99 11.78C169.37 12.08 168.63 12.32 167.78 12.52L168.12 13.13C169.09 12.89 169.93 12.59 170.63 12.21C171.35 12.63 172.27 12.92 173.37 13.07L173.63 12.43C172.72 12.31 171.94 12.1 171.3 11.8C172.06 11.26 172.58 10.61 172.87 9.83V9.23H168.13ZM169.34 9.88H172.11C171.8 10.48 171.31 10.99 170.63 11.42C170.04 11.02 169.61 10.5 169.34 9.88ZM165.62 17.91C166.21 17.91 166.51 17.62 166.51 17.04V14.17C166.9 14.01 167.28 13.84 167.65 13.66V12.93C167.27 13.12 166.89 13.3 166.51 13.46V11.44H167.63V10.75H166.51V8.86H165.77V10.75H164.55V11.44H165.77V13.73C165.32 13.88 164.86 14.01 164.39 14.12L164.57 14.84C164.97 14.72 165.37 14.59 165.77 14.45V16.85C165.77 17.11 165.63 17.25 165.37 17.25C165.12 17.25 164.86 17.23 164.6 17.21L164.75 17.91H165.62ZM168.3 13.85V14.51H170.3V15.65H167.79V16.32H170.3V17.9H171V16.32H173.48V15.65H171V14.51H172.97V13.85H171V12.97H170.3V13.85H168.3Z" fill="#666666"/>
<path d="M42.14 44.83V45.48H39.72V46.07H42.14V46.74H40.12V47.32H42.14V48H39.44V48.6H45.56V48H42.83V47.32H44.95V46.74H42.83V46.07H45.31V45.48H42.83V44.83H42.14ZM40.89 51.12H44.12V51.85H40.89V51.12ZM44.12 50.56H40.89V49.82H44.12V50.56ZM40.89 52.41H44.12V52.98C44.12 53.21 43.99 53.33 43.75 53.33L42.95 53.3L43.12 53.94H43.96C44.52 53.94 44.81 53.67 44.81 53.13V49.23H40.2V54H40.89V52.41ZM37.63 44.94L37.12 45.43C37.84 45.97 38.41 46.48 38.83 46.96L39.32 46.46C38.86 45.95 38.3 45.44 37.63 44.94ZM36.42 47.89V48.58H37.85V52.55C37.85 52.72 37.77 52.87 37.62 53.01L37.9 53.65C38.52 53.2 39.12 52.68 39.68 52.1L39.49 51.34C39.15 51.69 38.84 52 38.54 52.28V47.89H36.42ZM47.26 44.99L46.77 45.46C47.48 46.02 48.04 46.55 48.45 47.05L48.95 46.55C48.49 46.03 47.93 45.51 47.26 44.99ZM53.07 53.82H55.39L55.57 53.1C55.3 53.12 54.92 53.13 54.44 53.14C53.94 53.15 53.45 53.16 52.97 53.16C52.19 53.16 51.53 53.15 51.01 53.14C50.41 53.12 49.96 53.04 49.65 52.9C49.37 52.77 49.11 52.56 48.87 52.27C48.79 52.18 48.71 52.1 48.63 52.04V48.3H46.54V48.96H47.96V52C47.54 52.18 47.07 52.7 46.53 53.55L47.07 54.04C47.63 53.1 48.03 52.64 48.28 52.64C48.4 52.64 48.53 52.72 48.67 52.89C48.98 53.25 49.33 53.5 49.72 53.62C50.12 53.73 50.65 53.79 51.29 53.8C51.93 53.81 52.53 53.82 53.07 53.82ZM52.21 44.8V46.08H50.89C51.01 45.76 51.12 45.43 51.22 45.08L50.53 44.94C50.29 45.84 49.9 46.67 49.36 47.42L49.99 47.81C50.21 47.49 50.41 47.15 50.59 46.77H52.21V48.2H49.61V48.9H51.22C51.19 49.52 51.09 50.06 50.92 50.5C50.66 51.1 50.13 51.6 49.32 52L49.79 52.57C50.73 52.08 51.34 51.45 51.6 50.69C51.77 50.19 51.87 49.59 51.9 48.9H52.91V51.74C52.91 51.96 52.97 52.14 53.11 52.28C53.24 52.42 53.43 52.49 53.69 52.49H54.41C54.75 52.48 54.99 52.4 55.13 52.26C55.28 52.1 55.39 51.61 55.45 50.78L54.82 50.57C54.78 51.28 54.7 51.68 54.58 51.77C54.5 51.83 54.4 51.86 54.26 51.86H53.9C53.68 51.86 53.58 51.76 53.58 51.58V48.9H55.26V48.2H52.91V46.77H54.91V46.08H52.91V44.8H52.21ZM60.13 45.23V45.88H60.63C60.91 46.64 61.36 47.27 61.99 47.78C61.37 48.08 60.63 48.32 59.78 48.52L60.12 49.13C61.09 48.89 61.93 48.59 62.63 48.21C63.35 48.63 64.27 48.92 65.37 49.07L65.63 48.43C64.72 48.31 63.94 48.1 63.3 47.8C64.06 47.26 64.58 46.61 64.87 45.83V45.23H60.13ZM61.34 45.88H64.11C63.8 46.48 63.31 46.99 62.63 47.42C62.04 47.02 61.61 46.5 61.34 45.88ZM57.62 53.91C58.21 53.91 58.51 53.62 58.51 53.04V50.17C58.9 50.01 59.28 49.84 59.65 49.66V48.93C59.27 49.12 58.89 49.3 58.51 49.46V47.44H59.63V46.75H58.51V44.86H57.77V46.75H56.55V47.44H57.77V49.73C57.32 49.88 56.86 50.01 56.39 50.12L56.57 50.84C56.97 50.72 57.37 50.59 57.77 50.45V52.85C57.77 53.11 57.63 53.25 57.37 53.25C57.12 53.25 56.86 53.23 56.6 53.21L56.75 53.91H57.62ZM60.3 49.85V50.51H62.3V51.65H59.79V52.32H62.3V53.9H63V52.32H65.48V51.65H63V50.51H64.97V49.85H63V48.97H62.3V49.85H60.3Z" fill="#666666"/>
<path d="M30 0.5H90C90.8284 0.5 91.5 1.17157 91.5 2V26C91.5 26.8284 90.8284 27.5 90 27.5H30C29.1716 27.5 28.5 26.8284 28.5 26V2C28.5 1.17157 29.1716 0.5 30 0.5Z" stroke="#E0E3EC"/>
<g opacity="0.6">
<path d="M82 14.625L84.64 11.985L85.3942 12.7392L82 16.1333L78.6059 12.7392L79.36 11.985L82 14.625Z" fill="#919AA0"/>
</g>
<g opacity="0.6">
<path d="M190 14.625L192.64 11.985L193.394 12.7392L190 16.1333L186.606 12.7392L187.36 11.985L190 14.625Z" fill="#919AA0"/>
</g>
<g opacity="0.6">
<path d="M82 50.625L84.64 47.985L85.3942 48.7392L82 52.1333L78.6059 48.7392L79.36 47.985L82 50.625Z" fill="#919AA0"/>
</g>
<path d="M30 36.5H90C90.8284 36.5 91.5 37.1716 91.5 38V62C91.5 62.8284 90.8284 63.5 90 63.5H30C29.1716 63.5 28.5 62.8284 28.5 62V38C28.5 37.1716 29.1716 36.5 30 36.5Z" stroke="#E0E3EC"/>
<path d="M138 0.5H198C198.828 0.5 199.5 1.17157 199.5 2V26C199.5 26.8284 198.828 27.5 198 27.5H138C137.172 27.5 136.5 26.8284 136.5 26V2C136.5 1.17157 137.172 0.5 138 0.5Z" stroke="#E0E3EC"/>
<rect x="136" y="36" width="64" height="28" rx="2" fill="#5A89E1"/>
<path d="M160.03 49.58V53.26H166.01V49.58H160.03ZM165.31 52.62H160.73V51.74H165.31V52.62ZM160.73 51.13V50.22H165.31V51.13H160.73ZM158.91 46.73V47.39H162C161.22 48.09 160.03 48.68 158.43 49.14L158.81 49.78C160.56 49.15 161.83 48.35 162.61 47.39H162.67V49.26H163.37V47.39H163.43C164.17 48.37 165.44 49.16 167.24 49.77L167.55 49.12C165.97 48.7 164.81 48.12 164.06 47.39H167.13V46.73H163.37V45.81H162.67V46.73H158.91ZM158.71 54.04V54.71H167.3V54.04H158.71ZM172.23 48.75V53.33H175.29V48.75H172.23ZM174.61 52.71H172.93V51.32H174.61V52.71ZM172.93 50.72V49.37H174.61V50.72H172.93ZM172.89 45.8C172.6 46.98 172.04 47.97 171.2 48.79L171.65 49.37C172.19 48.85 172.63 48.25 172.98 47.58H176.52C176.5 50.82 176.46 52.76 176.39 53.39C176.31 53.98 176.04 54.28 175.58 54.28C175.29 54.28 174.95 54.26 174.55 54.24L174.72 54.89C175.17 54.91 175.49 54.92 175.67 54.92C176.51 54.92 176.99 54.5 177.09 53.67C177.18 52.81 177.23 50.55 177.23 46.9H173.29C173.41 46.58 173.52 46.25 173.61 45.9L172.89 45.8ZM169.62 45.93L169.12 46.42C169.84 46.96 170.4 47.48 170.82 47.97L171.31 47.47C170.85 46.95 170.28 46.44 169.62 45.93ZM168.42 48.89V49.58H169.89V53.56C169.89 53.72 169.81 53.87 169.67 54L169.95 54.64C170.61 54.19 171.23 53.68 171.81 53.1L171.61 52.34C171.24 52.71 170.9 53.04 170.58 53.32V48.89H168.42Z" fill="white"/>
</svg>
