<svg width="200" height="28" viewBox="0 0 200 28" fill="none" xmlns="http://www.w3.org/2000/svg">
<rect x="136" width="64" height="28" rx="2" fill="#5A89E1"/>
<path d="M160.03 13.58V17.26H166.01V13.58H160.03ZM165.31 16.62H160.73V15.74H165.31V16.62ZM160.73 15.13V14.22H165.31V15.13H160.73ZM158.91 10.73V11.39H162C161.22 12.09 160.03 12.68 158.43 13.14L158.81 13.78C160.56 13.15 161.83 12.35 162.61 11.39H162.67V13.26H163.37V11.39H163.43C164.17 12.37 165.44 13.16 167.24 13.77L167.55 13.12C165.97 12.7 164.81 12.12 164.06 11.39H167.13V10.73H163.37V9.81H162.67V10.73H158.91ZM158.71 18.04V18.71H167.3V18.04H158.71ZM172.23 12.75V17.33H175.29V12.75H172.23ZM174.61 16.71H172.93V15.32H174.61V16.71ZM172.93 14.72V13.37H174.61V14.72H172.93ZM172.89 9.8C172.6 10.98 172.04 11.97 171.2 12.79L171.65 13.37C172.19 12.85 172.63 12.25 172.98 11.58H176.52C176.5 14.82 176.46 16.76 176.39 17.39C176.31 17.98 176.04 18.28 175.58 18.28C175.29 18.28 174.95 18.26 174.55 18.24L174.72 18.89C175.17 18.91 175.49 18.92 175.67 18.92C176.51 18.92 176.99 18.5 177.09 17.67C177.18 16.81 177.23 14.55 177.23 10.9H173.29C173.41 10.58 173.52 10.25 173.61 9.9L172.89 9.8ZM169.62 9.93L169.12 10.42C169.84 10.96 170.4 11.48 170.82 11.97L171.31 11.47C170.85 10.95 170.28 10.44 169.62 9.93ZM168.42 12.89V13.58H169.89V17.56C169.89 17.72 169.81 17.87 169.67 18L169.95 18.64C170.61 18.19 171.23 17.68 171.81 17.1L171.61 16.34C171.24 16.71 170.9 17.04 170.58 17.32V12.89H168.42Z" fill="white"/>
<path d="M3.55 17.38H8.02V17.97H8.75V13.75H4.58C6.46 12.88 7.75 11.76 8.47 10.39V9.75H4.57C4.77 9.48 4.95 9.2 5.11 8.9L4.32 8.81C3.72 9.87 2.57 10.77 0.86 11.5L1.34 12.12C2.4 11.62 3.26 11.06 3.94 10.43H7.64C7.17 11.25 6.43 11.96 5.41 12.57C4.98 12.2 4.38 11.78 3.62 11.31L3 11.7C3.76 12.13 4.36 12.53 4.8 12.9C3.65 13.48 2.21 13.94 0.48 14.3L0.86 14.99C1.56 14.82 2.21 14.64 2.83 14.44V17.97H3.55V17.38ZM8.02 16.68H3.55V14.42H8.02V16.68ZM10.58 11.57V12.26H11.96C11.64 13.4 11.1 14.41 10.34 15.3L10.65 16.1C11.23 15.3 11.7 14.41 12.04 13.43V17.97H12.73V13.45C13.03 13.8 13.4 14.27 13.82 14.87L14.22 14.27C13.72 13.73 13.23 13.25 12.73 12.81V12.26H13.96V11.57H12.73V10.03C13.24 9.93 13.72 9.81 14.16 9.69L13.91 9.01C12.95 9.31 11.86 9.51 10.62 9.62L10.76 10.3C11.2 10.26 11.62 10.2 12.04 10.14V11.57H10.58ZM16.26 17.95C16.83 17.95 17.12 17.65 17.12 17.05V11.76H16.38V16.87C16.38 17.16 16.25 17.31 16.01 17.31C15.74 17.31 15.45 17.29 15.15 17.26L15.3 17.95H16.26ZM15 13.2C14.75 14.36 14.36 15.43 13.82 16.39L14.44 16.78C14.97 15.81 15.38 14.66 15.67 13.33L15 13.2ZM18.42 13.13L17.77 13.34C18.19 14.37 18.58 15.55 18.93 16.88L19.59 16.59C19.26 15.36 18.87 14.21 18.42 13.13ZM15.68 10.91H18.54C18.42 11.49 18.27 12.01 18.09 12.48L18.79 12.69C18.99 12.03 19.14 11.36 19.26 10.68V10.21H15.95C16.09 9.79 16.21 9.35 16.3 8.89L15.59 8.8C15.35 10.08 14.88 11.16 14.2 12.04L14.64 12.61C15.05 12.11 15.4 11.54 15.68 10.91Z" fill="#666666"/>
<path d="M42.14 8.83V9.48H39.72V10.07H42.14V10.74H40.12V11.32H42.14V12H39.44V12.6H45.56V12H42.83V11.32H44.95V10.74H42.83V10.07H45.31V9.48H42.83V8.83H42.14ZM40.89 15.12H44.12V15.85H40.89V15.12ZM44.12 14.56H40.89V13.82H44.12V14.56ZM40.89 16.41H44.12V16.98C44.12 17.21 43.99 17.33 43.75 17.33L42.95 17.3L43.12 17.94H43.96C44.52 17.94 44.81 17.67 44.81 17.13V13.23H40.2V18H40.89V16.41ZM37.63 8.94L37.12 9.43C37.84 9.97 38.41 10.48 38.83 10.96L39.32 10.46C38.86 9.95 38.3 9.44 37.63 8.94ZM36.42 11.89V12.58H37.85V16.55C37.85 16.72 37.77 16.87 37.62 17.01L37.9 17.65C38.52 17.2 39.12 16.68 39.68 16.1L39.49 15.34C39.15 15.69 38.84 16 38.54 16.28V11.89H36.42ZM48.29 11.61V13.1H47.3C47.55 12.46 47.78 11.73 48 10.91H49.93V10.23H48.17C48.26 9.83 48.35 9.4 48.44 8.95L47.78 8.8C47.69 9.3 47.6 9.77 47.5 10.23H46.51V10.91H47.34C47.11 11.8 46.86 12.55 46.58 13.15L46.73 13.75H48.29V15.24C47.71 15.35 47.09 15.45 46.43 15.53L46.52 16.23C47.13 16.14 47.72 16.04 48.29 15.93V18H48.96V15.78L49.91 15.54V14.86C49.61 14.94 49.3 15.02 48.96 15.1V13.75H49.88V13.1H48.96V11.61H48.29ZM51.24 11.1V11.69H54.11V11.09H51.25C51.75 10.61 52.23 10.08 52.71 9.5C53.47 10.48 54.32 11.31 55.26 11.99L55.64 11.42C54.73 10.78 53.84 9.93 52.97 8.85H52.45C51.64 9.85 50.72 10.73 49.7 11.48L50.09 12.08C50.48 11.78 50.86 11.45 51.24 11.1ZM51.94 17.93C52.43 17.93 52.68 17.67 52.68 17.16V12.49H50.32V18H50.95V16.13H52.07V17.03C52.07 17.25 51.96 17.36 51.74 17.36L51.3 17.34L51.46 17.93H51.94ZM50.95 15.57V14.62H52.07V15.57H50.95ZM50.95 14.06V13.07H52.07V14.06H50.95ZM53.28 12.77V16.36H53.84V12.77H53.28ZM54.37 17.95C54.85 17.95 55.1 17.66 55.1 17.09V12.32H54.47V16.93C54.47 17.21 54.36 17.36 54.15 17.36C53.9 17.36 53.64 17.34 53.37 17.32L53.52 17.95H54.37ZM60.56 11.15C59.92 13.81 58.53 15.85 56.39 17.25L56.82 17.86C58.92 16.5 60.3 14.54 60.96 11.99C61.01 12.11 61.06 12.25 61.12 12.41C62.15 15.05 63.47 16.87 65.09 17.85L65.54 17.27C63.96 16.28 62.71 14.59 61.77 12.2C61.15 10.58 60.4 9.45 59.51 8.83L58.91 9.21C59.55 9.67 60.1 10.31 60.56 11.15ZM69.55 17.38H74.02V17.97H74.75V13.75H70.58C72.46 12.88 73.75 11.76 74.47 10.39V9.75H70.57C70.77 9.48 70.95 9.2 71.11 8.9L70.32 8.81C69.72 9.87 68.57 10.77 66.86 11.5L67.34 12.12C68.4 11.62 69.26 11.06 69.94 10.43H73.64C73.17 11.25 72.43 11.96 71.41 12.57C70.98 12.2 70.38 11.78 69.62 11.31L69 11.7C69.76 12.13 70.36 12.53 70.8 12.9C69.65 13.48 68.21 13.94 66.48 14.3L66.86 14.99C67.56 14.82 68.21 14.64 68.83 14.44V17.97H69.55V17.38ZM74.02 16.68H69.55V14.42H74.02V16.68ZM76.58 11.57V12.26H77.96C77.64 13.4 77.1 14.41 76.34 15.3L76.65 16.1C77.23 15.3 77.7 14.41 78.04 13.43V17.97H78.73V13.45C79.03 13.8 79.4 14.27 79.82 14.87L80.22 14.27C79.72 13.73 79.23 13.25 78.73 12.81V12.26H79.96V11.57H78.73V10.03C79.24 9.93 79.72 9.81 80.16 9.69L79.91 9.01C78.95 9.31 77.86 9.51 76.62 9.62L76.76 10.3C77.2 10.26 77.62 10.2 78.04 10.14V11.57H76.58ZM82.26 17.95C82.83 17.95 83.12 17.65 83.12 17.05V11.76H82.38V16.87C82.38 17.16 82.25 17.31 82.01 17.31C81.74 17.31 81.45 17.29 81.15 17.26L81.3 17.95H82.26ZM81 13.2C80.75 14.36 80.36 15.43 79.82 16.39L80.44 16.78C80.97 15.81 81.38 14.66 81.67 13.33L81 13.2ZM84.42 13.13L83.77 13.34C84.19 14.37 84.58 15.55 84.93 16.88L85.59 16.59C85.26 15.36 84.87 14.21 84.42 13.13ZM81.68 10.91H84.54C84.42 11.49 84.27 12.01 84.09 12.48L84.79 12.69C84.99 12.03 85.14 11.36 85.26 10.68V10.21H81.95C82.09 9.79 82.21 9.35 82.3 8.89L81.59 8.8C81.35 10.08 80.88 11.16 80.2 12.04L80.64 12.61C81.05 12.11 81.4 11.54 81.68 10.91Z" fill="#666666"/>
<path d="M30 0.5H126C126.828 0.5 127.5 1.17157 127.5 2V26C127.5 26.8284 126.828 27.5 126 27.5H30C29.1716 27.5 28.5 26.8284 28.5 26V2C28.5 1.17157 29.1716 0.5 30 0.5Z" stroke="#E0E3EC"/>
</svg>
