<svg width="224" height="250" viewBox="0 0 224 250" fill="none" xmlns="http://www.w3.org/2000/svg">
<rect x="0.5" y="0.5" width="223" height="249" rx="3.5" fill="white"/>
<path d="M15.55 73.38H20.02V73.97H20.75V69.75H16.58C18.46 68.88 19.75 67.76 20.47 66.39V65.75H16.57C16.77 65.48 16.95 65.2 17.11 64.9L16.32 64.81C15.72 65.87 14.57 66.77 12.86 67.5L13.34 68.12C14.4 67.62 15.26 67.06 15.94 66.43H19.64C19.17 67.25 18.43 67.96 17.41 68.57C16.98 68.2 16.38 67.78 15.62 67.31L15 67.7C15.76 68.13 16.36 68.53 16.8 68.9C15.65 69.48 14.21 69.94 12.48 70.3L12.86 70.99C13.56 70.82 14.21 70.64 14.83 70.44V73.97H15.55V73.38ZM20.02 72.68H15.55V70.42H20.02V72.68ZM22.58 67.57V68.26H23.96C23.64 69.4 23.1 70.41 22.34 71.3L22.65 72.1C23.23 71.3 23.7 70.41 24.04 69.43V73.97H24.73V69.45C25.03 69.8 25.4 70.27 25.82 70.87L26.22 70.27C25.72 69.73 25.23 69.25 24.73 68.81V68.26H25.96V67.57H24.73V66.03C25.24 65.93 25.72 65.81 26.16 65.69L25.91 65.01C24.95 65.31 23.86 65.51 22.62 65.62L22.76 66.3C23.2 66.26 23.62 66.2 24.04 66.14V67.57H22.58ZM28.26 73.95C28.83 73.95 29.12 73.65 29.12 73.05V67.76H28.38V72.87C28.38 73.16 28.25 73.31 28.01 73.31C27.74 73.31 27.45 73.29 27.15 73.26L27.3 73.95H28.26ZM27 69.2C26.75 70.36 26.36 71.43 25.82 72.39L26.44 72.78C26.97 71.81 27.38 70.66 27.67 69.33L27 69.2ZM30.42 69.13L29.77 69.34C30.19 70.37 30.58 71.55 30.93 72.88L31.59 72.59C31.26 71.36 30.87 70.21 30.42 69.13ZM27.68 66.91H30.54C30.42 67.49 30.27 68.01 30.09 68.48L30.79 68.69C30.99 68.03 31.14 67.36 31.26 66.68V66.21H27.95C28.09 65.79 28.21 65.35 28.3 64.89L27.59 64.8C27.35 66.08 26.88 67.16 26.2 68.04L26.64 68.61C27.05 68.11 27.4 67.54 27.68 66.91Z" fill="#666666"/>
<path d="M62.14 64.83V65.48H59.72V66.07H62.14V66.74H60.12V67.32H62.14V68H59.44V68.6H65.56V68H62.83V67.32H64.95V66.74H62.83V66.07H65.31V65.48H62.83V64.83H62.14ZM60.89 71.12H64.12V71.85H60.89V71.12ZM64.12 70.56H60.89V69.82H64.12V70.56ZM60.89 72.41H64.12V72.98C64.12 73.21 63.99 73.33 63.75 73.33L62.95 73.3L63.12 73.94H63.96C64.52 73.94 64.81 73.67 64.81 73.13V69.23H60.2V74H60.89V72.41ZM57.63 64.94L57.12 65.43C57.84 65.97 58.41 66.48 58.83 66.96L59.32 66.46C58.86 65.95 58.3 65.44 57.63 64.94ZM56.42 67.89V68.58H57.85V72.55C57.85 72.72 57.77 72.87 57.62 73.01L57.9 73.65C58.52 73.2 59.12 72.68 59.68 72.1L59.49 71.34C59.15 71.69 58.84 72 58.54 72.28V67.89H56.42ZM68.29 67.61V69.1H67.3C67.55 68.46 67.78 67.73 68 66.91H69.93V66.23H68.17C68.26 65.83 68.35 65.4 68.44 64.95L67.78 64.8C67.69 65.3 67.6 65.77 67.5 66.23H66.51V66.91H67.34C67.11 67.8 66.86 68.55 66.58 69.15L66.73 69.75H68.29V71.24C67.71 71.35 67.09 71.45 66.43 71.53L66.52 72.23C67.13 72.14 67.72 72.04 68.29 71.93V74H68.96V71.78L69.91 71.54V70.86C69.61 70.94 69.3 71.02 68.96 71.1V69.75H69.88V69.1H68.96V67.61H68.29ZM71.24 67.1V67.69H74.11V67.09H71.25C71.75 66.61 72.23 66.08 72.71 65.5C73.47 66.48 74.32 67.31 75.26 67.99L75.64 67.42C74.73 66.78 73.84 65.93 72.97 64.85H72.45C71.64 65.85 70.72 66.73 69.7 67.48L70.09 68.08C70.48 67.78 70.86 67.45 71.24 67.1ZM71.94 73.93C72.43 73.93 72.68 73.67 72.68 73.16V68.49H70.32V74H70.95V72.13H72.07V73.03C72.07 73.25 71.96 73.36 71.74 73.36L71.3 73.34L71.46 73.93H71.94ZM70.95 71.57V70.62H72.07V71.57H70.95ZM70.95 70.06V69.07H72.07V70.06H70.95ZM73.28 68.77V72.36H73.84V68.77H73.28ZM74.37 73.95C74.85 73.95 75.1 73.66 75.1 73.09V68.32H74.47V72.93C74.47 73.21 74.36 73.36 74.15 73.36C73.9 73.36 73.64 73.34 73.37 73.32L73.52 73.95H74.37ZM80.56 67.15C79.92 69.81 78.53 71.85 76.39 73.25L76.82 73.86C78.92 72.5 80.3 70.54 80.96 67.99C81.01 68.11 81.06 68.25 81.12 68.41C82.15 71.05 83.47 72.87 85.09 73.85L85.54 73.27C83.96 72.28 82.71 70.59 81.77 68.2C81.15 66.58 80.4 65.45 79.51 64.83L78.91 65.21C79.55 65.67 80.1 66.31 80.56 67.15ZM89.55 73.38H94.02V73.97H94.75V69.75H90.58C92.46 68.88 93.75 67.76 94.47 66.39V65.75H90.57C90.77 65.48 90.95 65.2 91.11 64.9L90.32 64.81C89.72 65.87 88.57 66.77 86.86 67.5L87.34 68.12C88.4 67.62 89.26 67.06 89.94 66.43H93.64C93.17 67.25 92.43 67.96 91.41 68.57C90.98 68.2 90.38 67.78 89.62 67.31L89 67.7C89.76 68.13 90.36 68.53 90.8 68.9C89.65 69.48 88.21 69.94 86.48 70.3L86.86 70.99C87.56 70.82 88.21 70.64 88.83 70.44V73.97H89.55V73.38ZM94.02 72.68H89.55V70.42H94.02V72.68ZM96.58 67.57V68.26H97.96C97.64 69.4 97.1 70.41 96.34 71.3L96.65 72.1C97.23 71.3 97.7 70.41 98.04 69.43V73.97H98.73V69.45C99.03 69.8 99.4 70.27 99.82 70.87L100.22 70.27C99.72 69.73 99.23 69.25 98.73 68.81V68.26H99.96V67.57H98.73V66.03C99.24 65.93 99.72 65.81 100.16 65.69L99.91 65.01C98.95 65.31 97.86 65.51 96.62 65.62L96.76 66.3C97.2 66.26 97.62 66.2 98.04 66.14V67.57H96.58ZM102.26 73.95C102.83 73.95 103.12 73.65 103.12 73.05V67.76H102.38V72.87C102.38 73.16 102.25 73.31 102.01 73.31C101.74 73.31 101.45 73.29 101.15 73.26L101.3 73.95H102.26ZM101 69.2C100.75 70.36 100.36 71.43 99.82 72.39L100.44 72.78C100.97 71.81 101.38 70.66 101.67 69.33L101 69.2ZM104.42 69.13L103.77 69.34C104.19 70.37 104.58 71.55 104.93 72.88L105.59 72.59C105.26 71.36 104.87 70.21 104.42 69.13ZM101.68 66.91H104.54C104.42 67.49 104.27 68.01 104.09 68.48L104.79 68.69C104.99 68.03 105.14 67.36 105.26 66.68V66.21H101.95C102.09 65.79 102.21 65.35 102.3 64.89L101.59 64.8C101.35 66.08 100.88 67.16 100.2 68.04L100.64 68.61C101.05 68.11 101.4 67.54 101.68 66.91Z" fill="#CCCCCC"/>
<path d="M48.5 59C48.5 58.1716 49.1716 57.5 50 57.5H210C210.828 57.5 211.5 58.1716 211.5 59V79C211.5 79.8284 210.828 80.5 210 80.5H50C49.1716 80.5 48.5 79.8284 48.5 79V59Z" stroke="#E5E5E5"/>
<path d="M14.69 105.64C14.01 106.36 13.25 107 12.42 107.55L12.64 108.3C13.4 107.74 14.09 107.13 14.69 106.49V109.97H15.4V100.89H14.69V105.64ZM13.23 101.88L12.55 102.1C12.93 102.86 13.28 103.74 13.59 104.74L14.22 104.45C13.94 103.54 13.61 102.68 13.23 101.88ZM19.98 101.03L19.42 101.38C19.94 101.97 20.36 102.51 20.66 103.01L21.22 102.61C20.93 102.16 20.52 101.63 19.98 101.03ZM18.87 100.86H18.16C18.16 101.47 18.14 102.36 18.11 103.52H16.06V104.21H18.07C17.87 106.19 17.1 107.94 15.76 109.44L16.24 109.98C17.38 108.76 18.17 107.24 18.59 105.43C19.03 107.25 19.88 108.76 21.14 109.95L21.63 109.41C20.25 108.19 19.35 106.45 18.92 104.21H21.28V103.52H18.84C18.86 102.48 18.87 101.6 18.87 100.86ZM26.64 100.74C26.6 101.14 26.52 101.52 26.41 101.88H22.88V102.57H26.16C25.98 102.96 25.76 103.31 25.48 103.61C24.85 104.27 23.82 104.79 22.4 105.15L22.68 105.81C23.88 105.49 24.82 105.09 25.48 104.6C25.96 104.98 26.44 105.41 26.92 105.89L27.42 105.39C26.88 104.9 26.4 104.5 25.96 104.19C25.99 104.15 26.02 104.12 26.06 104.08C26.43 103.66 26.73 103.15 26.95 102.57H27.1C27.6 103.93 28.95 105 31.17 105.78L31.55 105.16C29.56 104.54 28.32 103.68 27.83 102.57H31.03V101.88H27.17C27.25 101.54 27.32 101.19 27.36 100.81L26.64 100.74ZM23.43 106.65C23.24 107.55 22.93 108.37 22.51 109.11L23.13 109.5C23.56 108.74 23.9 107.84 24.14 106.8L23.43 106.65ZM27.22 106.29L26.59 106.49C26.91 107 27.2 107.59 27.48 108.26L28.14 107.97C27.88 107.37 27.57 106.81 27.22 106.29ZM30.21 106.5L29.52 106.72C29.99 107.43 30.42 108.25 30.81 109.19L31.47 108.9C31.11 108.04 30.69 107.24 30.21 106.5ZM28.38 109.79C28.76 109.79 29.03 109.7 29.21 109.53C29.41 109.33 29.55 108.79 29.62 107.89L28.94 107.67C28.9 108.36 28.82 108.77 28.7 108.91C28.61 109.03 28.46 109.09 28.25 109.09H26.07C25.77 109.09 25.63 108.94 25.63 108.64V106.62H24.89V108.79C24.89 109.45 25.2 109.79 25.84 109.79H28.38Z" fill="#666666"/>
<path d="M62.14 100.83V101.48H59.72V102.07H62.14V102.74H60.12V103.32H62.14V104H59.44V104.6H65.56V104H62.83V103.32H64.95V102.74H62.83V102.07H65.31V101.48H62.83V100.83H62.14ZM60.89 107.12H64.12V107.85H60.89V107.12ZM64.12 106.56H60.89V105.82H64.12V106.56ZM60.89 108.41H64.12V108.98C64.12 109.21 63.99 109.33 63.75 109.33L62.95 109.3L63.12 109.94H63.96C64.52 109.94 64.81 109.67 64.81 109.13V105.23H60.2V110H60.89V108.41ZM57.63 100.94L57.12 101.43C57.84 101.97 58.41 102.48 58.83 102.96L59.32 102.46C58.86 101.95 58.3 101.44 57.63 100.94ZM56.42 103.89V104.58H57.85V108.55C57.85 108.72 57.77 108.87 57.62 109.01L57.9 109.65C58.52 109.2 59.12 108.68 59.68 108.1L59.49 107.34C59.15 107.69 58.84 108 58.54 108.28V103.89H56.42ZM67.26 100.99L66.77 101.46C67.48 102.02 68.04 102.55 68.45 103.05L68.95 102.55C68.49 102.03 67.93 101.51 67.26 100.99ZM73.07 109.82H75.39L75.57 109.1C75.3 109.12 74.92 109.13 74.44 109.14C73.94 109.15 73.45 109.16 72.97 109.16C72.19 109.16 71.53 109.15 71.01 109.14C70.41 109.12 69.96 109.04 69.65 108.9C69.37 108.77 69.11 108.56 68.87 108.27C68.79 108.18 68.71 108.1 68.63 108.04V104.3H66.54V104.96H67.96V108C67.54 108.18 67.07 108.7 66.53 109.55L67.07 110.04C67.63 109.1 68.03 108.64 68.28 108.64C68.4 108.64 68.53 108.72 68.67 108.89C68.98 109.25 69.33 109.5 69.72 109.62C70.12 109.73 70.65 109.79 71.29 109.8C71.93 109.81 72.53 109.82 73.07 109.82ZM72.21 100.8V102.08H70.89C71.01 101.76 71.12 101.43 71.22 101.08L70.53 100.94C70.29 101.84 69.9 102.67 69.36 103.42L69.99 103.81C70.21 103.49 70.41 103.15 70.59 102.77H72.21V104.2H69.61V104.9H71.22C71.19 105.52 71.09 106.06 70.92 106.5C70.66 107.1 70.13 107.6 69.32 108L69.79 108.57C70.73 108.08 71.34 107.45 71.6 106.69C71.77 106.19 71.87 105.59 71.9 104.9H72.91V107.74C72.91 107.96 72.97 108.14 73.11 108.28C73.24 108.42 73.43 108.49 73.69 108.49H74.41C74.75 108.48 74.99 108.4 75.13 108.26C75.28 108.1 75.39 107.61 75.45 106.78L74.82 106.57C74.78 107.28 74.7 107.68 74.58 107.77C74.5 107.83 74.4 107.86 74.26 107.86H73.9C73.68 107.86 73.58 107.76 73.58 107.58V104.9H75.26V104.2H72.91V102.77H74.91V102.08H72.91V100.8H72.21ZM80.13 101.23V101.88H80.63C80.91 102.64 81.36 103.27 81.99 103.78C81.37 104.08 80.63 104.32 79.78 104.52L80.12 105.13C81.09 104.89 81.93 104.59 82.63 104.21C83.35 104.63 84.27 104.92 85.37 105.07L85.63 104.43C84.72 104.31 83.94 104.1 83.3 103.8C84.06 103.26 84.58 102.61 84.87 101.83V101.23H80.13ZM81.34 101.88H84.11C83.8 102.48 83.31 102.99 82.63 103.42C82.04 103.02 81.61 102.5 81.34 101.88ZM77.62 109.91C78.21 109.91 78.51 109.62 78.51 109.04V106.17C78.9 106.01 79.28 105.84 79.65 105.66V104.93C79.27 105.12 78.89 105.3 78.51 105.46V103.44H79.63V102.75H78.51V100.86H77.77V102.75H76.55V103.44H77.77V105.73C77.32 105.88 76.86 106.01 76.39 106.12L76.57 106.84C76.97 106.72 77.37 106.59 77.77 106.45V108.85C77.77 109.11 77.63 109.25 77.37 109.25C77.12 109.25 76.86 109.23 76.6 109.21L76.75 109.91H77.62ZM80.3 105.85V106.51H82.3V107.65H79.79V108.32H82.3V109.9H83V108.32H85.48V107.65H83V106.51H84.97V105.85H83V104.97H82.3V105.85H80.3Z" fill="#CCCCCC"/>
<path d="M48.5 95C48.5 94.1716 49.1716 93.5 50 93.5H210C210.828 93.5 211.5 94.1716 211.5 95V115C211.5 115.828 210.828 116.5 210 116.5H50C49.1716 116.5 48.5 115.828 48.5 115V95Z" stroke="#E5E5E5"/>
<path d="M201.517 104.125L202.125 104.735L199 107.875L195.875 104.735L196.483 104.125L199 106.654L201.517 104.125Z" fill="#999999"/>
<rect x="12" y="16" width="200" height="32" fill="#F7F8FA"/>
<path d="M43.424 32.46V33.204H39.668V36.708H40.784V34.236H43.424V37.236H44.576V34.236H47.252V35.16C47.252 35.448 47.084 35.592 46.76 35.592L45.92 35.544L46.22 36.624H47.132C47.96 36.624 48.38 36.216 48.38 35.412V33.204H44.576V32.46H47.24V29.652H40.808V32.46H43.424ZM43.424 26.1V27.84H41.9C41.66 27.264 41.396 26.772 41.12 26.34L40.04 26.736C40.304 27.072 40.544 27.444 40.748 27.84H38.876V30.444H40.028V28.92H47.972V30.432H49.124V27.84H47.132C47.372 27.504 47.624 27.108 47.864 26.652L46.784 26.256C46.544 26.808 46.244 27.336 45.908 27.84H44.576V26.1H43.424ZM46.136 31.512H41.912V30.6H46.136V31.512ZM52.712 30.516H55.472V32.352H52.712V30.516ZM52.652 33.408H55.472V36.828H56.624V33.408H59.6V35.196C59.6 35.664 59.396 35.904 59.012 35.904C58.604 35.904 58.172 35.88 57.704 35.844L58.004 36.96H59.384C60.296 36.96 60.764 36.504 60.764 35.604V26.568H51.56V32.448C51.536 34.032 51.164 35.34 50.444 36.372L51.32 37.152C52.064 36.168 52.508 34.92 52.652 33.408ZM59.6 32.352H56.624V30.516H59.6V32.352ZM59.6 29.472H56.624V27.672H59.6V29.472ZM55.472 27.672V29.472H52.712V27.672H55.472ZM63.464 32.436V33.516H67.46V35.676C67.46 36.012 67.292 36.18 66.956 36.18C66.584 36.18 66.188 36.156 65.768 36.108L66.032 37.2H67.352C68.192 37.2 68.612 36.78 68.612 35.964V33.516H72.5V32.436H68.612V31.44H67.46V32.436H63.464ZM65.372 34.068C64.652 34.812 63.764 35.472 62.708 36.024L63.452 36.996C64.52 36.36 65.42 35.616 66.164 34.764L65.372 34.068ZM72.272 36.948L73.1 36.12C72.044 35.172 71.144 34.464 70.376 33.996L69.644 34.704C70.604 35.4 71.48 36.144 72.272 36.948ZM66.284 26.052C65.42 27.3 64.388 28.284 63.188 29.004L63.92 29.88C64.424 29.544 64.904 29.172 65.36 28.764C65.816 29.196 66.32 29.58 66.896 29.94C65.624 30.468 64.16 30.852 62.492 31.08L62.996 32.1C64.928 31.788 66.608 31.272 68.024 30.552C69.404 31.224 71.06 31.692 72.992 31.968L73.52 30.924C71.852 30.72 70.4 30.384 69.152 29.904C70.04 29.328 70.808 28.644 71.456 27.864V26.988H66.92C67.076 26.76 67.232 26.532 67.388 26.292L66.284 26.052ZM66.056 28.056L66.116 27.996H70.004C69.428 28.524 68.756 28.992 68.012 29.4C67.256 29.016 66.608 28.572 66.056 28.056ZM77.012 26.064C76.436 27.912 75.548 29.532 74.348 30.924L74.72 32.136C75.092 31.74 75.452 31.332 75.788 30.9V37.236H76.904V29.244C77.384 28.404 77.78 27.504 78.08 26.556L77.012 26.064ZM79.028 26.928C78.788 28.464 78.308 29.772 77.612 30.84L78.344 31.788C78.776 31.164 79.136 30.48 79.436 29.724H81.248V32.304H77.84V33.408H81.248V37.188H82.388V33.408H85.484V32.304H82.388V29.724H85.04V28.608H82.388V26.208H81.248V28.608H79.808C79.94 28.128 80.048 27.612 80.144 27.072L79.028 26.928Z" fill="#666666"/>
<path d="M25 32.7807L28.3 29.4807L29.2427 30.4233L25 34.666L20.7573 30.4233L21.7 29.4807L25 32.7807Z" fill="#999999"/>
<line x1="12" y1="47.5" x2="212" y2="47.5" stroke="#E5E5E5"/>
<path d="M15.55 190.38H20.02V190.97H20.75V186.75H16.58C18.46 185.88 19.75 184.76 20.47 183.39V182.75H16.57C16.77 182.48 16.95 182.2 17.11 181.9L16.32 181.81C15.72 182.87 14.57 183.77 12.86 184.5L13.34 185.12C14.4 184.62 15.26 184.06 15.94 183.43H19.64C19.17 184.25 18.43 184.96 17.41 185.57C16.98 185.2 16.38 184.78 15.62 184.31L15 184.7C15.76 185.13 16.36 185.53 16.8 185.9C15.65 186.48 14.21 186.94 12.48 187.3L12.86 187.99C13.56 187.82 14.21 187.64 14.83 187.44V190.97H15.55V190.38ZM20.02 189.68H15.55V187.42H20.02V189.68ZM22.58 184.57V185.26H23.96C23.64 186.4 23.1 187.41 22.34 188.3L22.65 189.1C23.23 188.3 23.7 187.41 24.04 186.43V190.97H24.73V186.45C25.03 186.8 25.4 187.27 25.82 187.87L26.22 187.27C25.72 186.73 25.23 186.25 24.73 185.81V185.26H25.96V184.57H24.73V183.03C25.24 182.93 25.72 182.81 26.16 182.69L25.91 182.01C24.95 182.31 23.86 182.51 22.62 182.62L22.76 183.3C23.2 183.26 23.62 183.2 24.04 183.14V184.57H22.58ZM28.26 190.95C28.83 190.95 29.12 190.65 29.12 190.05V184.76H28.38V189.87C28.38 190.16 28.25 190.31 28.01 190.31C27.74 190.31 27.45 190.29 27.15 190.26L27.3 190.95H28.26ZM27 186.2C26.75 187.36 26.36 188.43 25.82 189.39L26.44 189.78C26.97 188.81 27.38 187.66 27.67 186.33L27 186.2ZM30.42 186.13L29.77 186.34C30.19 187.37 30.58 188.55 30.93 189.88L31.59 189.59C31.26 188.36 30.87 187.21 30.42 186.13ZM27.68 183.91H30.54C30.42 184.49 30.27 185.01 30.09 185.48L30.79 185.69C30.99 185.03 31.14 184.36 31.26 183.68V183.21H27.95C28.09 182.79 28.21 182.35 28.3 181.89L27.59 181.8C27.35 183.08 26.88 184.16 26.2 185.04L26.64 185.61C27.05 185.11 27.4 184.54 27.68 183.91Z" fill="#666666"/>
<path d="M62.14 181.83V182.48H59.72V183.07H62.14V183.74H60.12V184.32H62.14V185H59.44V185.6H65.56V185H62.83V184.32H64.95V183.74H62.83V183.07H65.31V182.48H62.83V181.83H62.14ZM60.89 188.12H64.12V188.85H60.89V188.12ZM64.12 187.56H60.89V186.82H64.12V187.56ZM60.89 189.41H64.12V189.98C64.12 190.21 63.99 190.33 63.75 190.33L62.95 190.3L63.12 190.94H63.96C64.52 190.94 64.81 190.67 64.81 190.13V186.23H60.2V191H60.89V189.41ZM57.63 181.94L57.12 182.43C57.84 182.97 58.41 183.48 58.83 183.96L59.32 183.46C58.86 182.95 58.3 182.44 57.63 181.94ZM56.42 184.89V185.58H57.85V189.55C57.85 189.72 57.77 189.87 57.62 190.01L57.9 190.65C58.52 190.2 59.12 189.68 59.68 189.1L59.49 188.34C59.15 188.69 58.84 189 58.54 189.28V184.89H56.42ZM68.29 184.61V186.1H67.3C67.55 185.46 67.78 184.73 68 183.91H69.93V183.23H68.17C68.26 182.83 68.35 182.4 68.44 181.95L67.78 181.8C67.69 182.3 67.6 182.77 67.5 183.23H66.51V183.91H67.34C67.11 184.8 66.86 185.55 66.58 186.15L66.73 186.75H68.29V188.24C67.71 188.35 67.09 188.45 66.43 188.53L66.52 189.23C67.13 189.14 67.72 189.04 68.29 188.93V191H68.96V188.78L69.91 188.54V187.86C69.61 187.94 69.3 188.02 68.96 188.1V186.75H69.88V186.1H68.96V184.61H68.29ZM71.24 184.1V184.69H74.11V184.09H71.25C71.75 183.61 72.23 183.08 72.71 182.5C73.47 183.48 74.32 184.31 75.26 184.99L75.64 184.42C74.73 183.78 73.84 182.93 72.97 181.85H72.45C71.64 182.85 70.72 183.73 69.7 184.48L70.09 185.08C70.48 184.78 70.86 184.45 71.24 184.1ZM71.94 190.93C72.43 190.93 72.68 190.67 72.68 190.16V185.49H70.32V191H70.95V189.13H72.07V190.03C72.07 190.25 71.96 190.36 71.74 190.36L71.3 190.34L71.46 190.93H71.94ZM70.95 188.57V187.62H72.07V188.57H70.95ZM70.95 187.06V186.07H72.07V187.06H70.95ZM73.28 185.77V189.36H73.84V185.77H73.28ZM74.37 190.95C74.85 190.95 75.1 190.66 75.1 190.09V185.32H74.47V189.93C74.47 190.21 74.36 190.36 74.15 190.36C73.9 190.36 73.64 190.34 73.37 190.32L73.52 190.95H74.37ZM80.56 184.15C79.92 186.81 78.53 188.85 76.39 190.25L76.82 190.86C78.92 189.5 80.3 187.54 80.96 184.99C81.01 185.11 81.06 185.25 81.12 185.41C82.15 188.05 83.47 189.87 85.09 190.85L85.54 190.27C83.96 189.28 82.71 187.59 81.77 185.2C81.15 183.58 80.4 182.45 79.51 181.83L78.91 182.21C79.55 182.67 80.1 183.31 80.56 184.15ZM89.55 190.38H94.02V190.97H94.75V186.75H90.58C92.46 185.88 93.75 184.76 94.47 183.39V182.75H90.57C90.77 182.48 90.95 182.2 91.11 181.9L90.32 181.81C89.72 182.87 88.57 183.77 86.86 184.5L87.34 185.12C88.4 184.62 89.26 184.06 89.94 183.43H93.64C93.17 184.25 92.43 184.96 91.41 185.57C90.98 185.2 90.38 184.78 89.62 184.31L89 184.7C89.76 185.13 90.36 185.53 90.8 185.9C89.65 186.48 88.21 186.94 86.48 187.3L86.86 187.99C87.56 187.82 88.21 187.64 88.83 187.44V190.97H89.55V190.38ZM94.02 189.68H89.55V187.42H94.02V189.68ZM96.58 184.57V185.26H97.96C97.64 186.4 97.1 187.41 96.34 188.3L96.65 189.1C97.23 188.3 97.7 187.41 98.04 186.43V190.97H98.73V186.45C99.03 186.8 99.4 187.27 99.82 187.87L100.22 187.27C99.72 186.73 99.23 186.25 98.73 185.81V185.26H99.96V184.57H98.73V183.03C99.24 182.93 99.72 182.81 100.16 182.69L99.91 182.01C98.95 182.31 97.86 182.51 96.62 182.62L96.76 183.3C97.2 183.26 97.62 183.2 98.04 183.14V184.57H96.58ZM102.26 190.95C102.83 190.95 103.12 190.65 103.12 190.05V184.76H102.38V189.87C102.38 190.16 102.25 190.31 102.01 190.31C101.74 190.31 101.45 190.29 101.15 190.26L101.3 190.95H102.26ZM101 186.2C100.75 187.36 100.36 188.43 99.82 189.39L100.44 189.78C100.97 188.81 101.38 187.66 101.67 186.33L101 186.2ZM104.42 186.13L103.77 186.34C104.19 187.37 104.58 188.55 104.93 189.88L105.59 189.59C105.26 188.36 104.87 187.21 104.42 186.13ZM101.68 183.91H104.54C104.42 184.49 104.27 185.01 104.09 185.48L104.79 185.69C104.99 185.03 105.14 184.36 105.26 183.68V183.21H101.95C102.09 182.79 102.21 182.35 102.3 181.89L101.59 181.8C101.35 183.08 100.88 184.16 100.2 185.04L100.64 185.61C101.05 185.11 101.4 184.54 101.68 183.91Z" fill="#CCCCCC"/>
<path d="M48.5 176C48.5 175.172 49.1716 174.5 50 174.5H210C210.828 174.5 211.5 175.172 211.5 176V196C211.5 196.828 210.828 197.5 210 197.5H50C49.1716 197.5 48.5 196.828 48.5 196V176Z" stroke="#E5E5E5"/>
<path d="M14.69 222.64C14.01 223.36 13.25 224 12.42 224.55L12.64 225.3C13.4 224.74 14.09 224.13 14.69 223.49V226.97H15.4V217.89H14.69V222.64ZM13.23 218.88L12.55 219.1C12.93 219.86 13.28 220.74 13.59 221.74L14.22 221.45C13.94 220.54 13.61 219.68 13.23 218.88ZM19.98 218.03L19.42 218.38C19.94 218.97 20.36 219.51 20.66 220.01L21.22 219.61C20.93 219.16 20.52 218.63 19.98 218.03ZM18.87 217.86H18.16C18.16 218.47 18.14 219.36 18.11 220.52H16.06V221.21H18.07C17.87 223.19 17.1 224.94 15.76 226.44L16.24 226.98C17.38 225.76 18.17 224.24 18.59 222.43C19.03 224.25 19.88 225.76 21.14 226.95L21.63 226.41C20.25 225.19 19.35 223.45 18.92 221.21H21.28V220.52H18.84C18.86 219.48 18.87 218.6 18.87 217.86ZM26.64 217.74C26.6 218.14 26.52 218.52 26.41 218.88H22.88V219.57H26.16C25.98 219.96 25.76 220.31 25.48 220.61C24.85 221.27 23.82 221.79 22.4 222.15L22.68 222.81C23.88 222.49 24.82 222.09 25.48 221.6C25.96 221.98 26.44 222.41 26.92 222.89L27.42 222.39C26.88 221.9 26.4 221.5 25.96 221.19C25.99 221.15 26.02 221.12 26.06 221.08C26.43 220.66 26.73 220.15 26.95 219.57H27.1C27.6 220.93 28.95 222 31.17 222.78L31.55 222.16C29.56 221.54 28.32 220.68 27.83 219.57H31.03V218.88H27.17C27.25 218.54 27.32 218.19 27.36 217.81L26.64 217.74ZM23.43 223.65C23.24 224.55 22.93 225.37 22.51 226.11L23.13 226.5C23.56 225.74 23.9 224.84 24.14 223.8L23.43 223.65ZM27.22 223.29L26.59 223.49C26.91 224 27.2 224.59 27.48 225.26L28.14 224.97C27.88 224.37 27.57 223.81 27.22 223.29ZM30.21 223.5L29.52 223.72C29.99 224.43 30.42 225.25 30.81 226.19L31.47 225.9C31.11 225.04 30.69 224.24 30.21 223.5ZM28.38 226.79C28.76 226.79 29.03 226.7 29.21 226.53C29.41 226.33 29.55 225.79 29.62 224.89L28.94 224.67C28.9 225.36 28.82 225.77 28.7 225.91C28.61 226.03 28.46 226.09 28.25 226.09H26.07C25.77 226.09 25.63 225.94 25.63 225.64V223.62H24.89V225.79C24.89 226.45 25.2 226.79 25.84 226.79H28.38Z" fill="#666666"/>
<path d="M62.14 217.83V218.48H59.72V219.07H62.14V219.74H60.12V220.32H62.14V221H59.44V221.6H65.56V221H62.83V220.32H64.95V219.74H62.83V219.07H65.31V218.48H62.83V217.83H62.14ZM60.89 224.12H64.12V224.85H60.89V224.12ZM64.12 223.56H60.89V222.82H64.12V223.56ZM60.89 225.41H64.12V225.98C64.12 226.21 63.99 226.33 63.75 226.33L62.95 226.3L63.12 226.94H63.96C64.52 226.94 64.81 226.67 64.81 226.13V222.23H60.2V227H60.89V225.41ZM57.63 217.94L57.12 218.43C57.84 218.97 58.41 219.48 58.83 219.96L59.32 219.46C58.86 218.95 58.3 218.44 57.63 217.94ZM56.42 220.89V221.58H57.85V225.55C57.85 225.72 57.77 225.87 57.62 226.01L57.9 226.65C58.52 226.2 59.12 225.68 59.68 225.1L59.49 224.34C59.15 224.69 58.84 225 58.54 225.28V220.89H56.42ZM67.26 217.99L66.77 218.46C67.48 219.02 68.04 219.55 68.45 220.05L68.95 219.55C68.49 219.03 67.93 218.51 67.26 217.99ZM73.07 226.82H75.39L75.57 226.1C75.3 226.12 74.92 226.13 74.44 226.14C73.94 226.15 73.45 226.16 72.97 226.16C72.19 226.16 71.53 226.15 71.01 226.14C70.41 226.12 69.96 226.04 69.65 225.9C69.37 225.77 69.11 225.56 68.87 225.27C68.79 225.18 68.71 225.1 68.63 225.04V221.3H66.54V221.96H67.96V225C67.54 225.18 67.07 225.7 66.53 226.55L67.07 227.04C67.63 226.1 68.03 225.64 68.28 225.64C68.4 225.64 68.53 225.72 68.67 225.89C68.98 226.25 69.33 226.5 69.72 226.62C70.12 226.73 70.65 226.79 71.29 226.8C71.93 226.81 72.53 226.82 73.07 226.82ZM72.21 217.8V219.08H70.89C71.01 218.76 71.12 218.43 71.22 218.08L70.53 217.94C70.29 218.84 69.9 219.67 69.36 220.42L69.99 220.81C70.21 220.49 70.41 220.15 70.59 219.77H72.21V221.2H69.61V221.9H71.22C71.19 222.52 71.09 223.06 70.92 223.5C70.66 224.1 70.13 224.6 69.32 225L69.79 225.57C70.73 225.08 71.34 224.45 71.6 223.69C71.77 223.19 71.87 222.59 71.9 221.9H72.91V224.74C72.91 224.96 72.97 225.14 73.11 225.28C73.24 225.42 73.43 225.49 73.69 225.49H74.41C74.75 225.48 74.99 225.4 75.13 225.26C75.28 225.1 75.39 224.61 75.45 223.78L74.82 223.57C74.78 224.28 74.7 224.68 74.58 224.77C74.5 224.83 74.4 224.86 74.26 224.86H73.9C73.68 224.86 73.58 224.76 73.58 224.58V221.9H75.26V221.2H72.91V219.77H74.91V219.08H72.91V217.8H72.21ZM80.13 218.23V218.88H80.63C80.91 219.64 81.36 220.27 81.99 220.78C81.37 221.08 80.63 221.32 79.78 221.52L80.12 222.13C81.09 221.89 81.93 221.59 82.63 221.21C83.35 221.63 84.27 221.92 85.37 222.07L85.63 221.43C84.72 221.31 83.94 221.1 83.3 220.8C84.06 220.26 84.58 219.61 84.87 218.83V218.23H80.13ZM81.34 218.88H84.11C83.8 219.48 83.31 219.99 82.63 220.42C82.04 220.02 81.61 219.5 81.34 218.88ZM77.62 226.91C78.21 226.91 78.51 226.62 78.51 226.04V223.17C78.9 223.01 79.28 222.84 79.65 222.66V221.93C79.27 222.12 78.89 222.3 78.51 222.46V220.44H79.63V219.75H78.51V217.86H77.77V219.75H76.55V220.44H77.77V222.73C77.32 222.88 76.86 223.01 76.39 223.12L76.57 223.84C76.97 223.72 77.37 223.59 77.77 223.45V225.85C77.77 226.11 77.63 226.25 77.37 226.25C77.12 226.25 76.86 226.23 76.6 226.21L76.75 226.91H77.62ZM80.3 222.85V223.51H82.3V224.65H79.79V225.32H82.3V226.9H83V225.32H85.48V224.65H83V223.51H84.97V222.85H83V221.97H82.3V222.85H80.3Z" fill="#CCCCCC"/>
<path d="M48.5 212C48.5 211.172 49.1716 210.5 50 210.5H210C210.828 210.5 211.5 211.172 211.5 212V232C211.5 232.828 210.828 233.5 210 233.5H50C49.1716 233.5 48.5 232.828 48.5 232V212Z" stroke="#E5E5E5"/>
<path d="M201.517 221.125L202.125 221.735L199 224.875L195.875 221.735L196.483 221.125L199 223.654L201.517 221.125Z" fill="#999999"/>
<rect x="12" y="133" width="200" height="32" fill="#F7F8FA"/>
<path d="M38.804 143.568V144.636H43.436V145.464H39.8V150.396H43.244C43.124 150.876 42.944 151.296 42.728 151.632C42.128 151.32 41.564 150.972 41.048 150.564L40.172 151.164C40.7 151.608 41.288 152.016 41.936 152.376C41.168 152.844 40.016 153.12 38.48 153.216L38.972 154.26C40.832 154.044 42.188 153.6 43.052 152.928C44.828 153.72 46.916 154.164 49.316 154.272L49.604 153.168C47.372 153.096 45.44 152.748 43.784 152.1C44.06 151.656 44.264 151.092 44.396 150.396H48.236V145.464H44.564V144.636H49.208V143.568H38.804ZM47.108 149.4H44.528C44.552 149.172 44.564 148.932 44.564 148.668V148.38H47.108V149.4ZM43.4 149.4H40.928V148.38H43.436V148.668C43.436 148.908 43.424 149.16 43.4 149.4ZM40.928 147.444V146.436H43.436V147.444H40.928ZM44.564 146.436H47.108V147.444H44.564V146.436ZM55.832 143.1C54.788 144.204 53.204 144.948 51.08 145.332L51.752 146.376C53.012 146.1 54.104 145.692 55.04 145.14H58.268C57.632 145.992 56.756 146.652 55.652 147.12C55.292 146.688 54.908 146.28 54.512 145.896L53.528 146.364C53.888 146.7 54.248 147.072 54.584 147.48C53.792 147.696 52.892 147.828 51.884 147.888L52.364 148.92C55.88 148.632 58.28 147.324 59.576 145.02V144.132H56.372C56.528 143.976 56.684 143.808 56.852 143.628L55.832 143.1ZM55.64 150.6L54.632 151.08C55.028 151.464 55.412 151.908 55.784 152.388C54.476 152.796 52.916 153 51.104 153L51.56 154.092C56.24 153.972 59.432 152.508 61.148 149.7V148.812H58.088C58.328 148.62 58.568 148.404 58.784 148.176L57.812 147.648C56.588 148.944 54.656 149.712 52.04 149.964L52.724 150.984C54.128 150.708 55.352 150.324 56.396 149.844H59.684C58.988 150.744 58.04 151.452 56.864 151.98C56.48 151.488 56.072 151.032 55.64 150.6ZM63.464 149.436V150.516H67.46V152.676C67.46 153.012 67.292 153.18 66.956 153.18C66.584 153.18 66.188 153.156 65.768 153.108L66.032 154.2H67.352C68.192 154.2 68.612 153.78 68.612 152.964V150.516H72.5V149.436H68.612V148.44H67.46V149.436H63.464ZM65.372 151.068C64.652 151.812 63.764 152.472 62.708 153.024L63.452 153.996C64.52 153.36 65.42 152.616 66.164 151.764L65.372 151.068ZM72.272 153.948L73.1 153.12C72.044 152.172 71.144 151.464 70.376 150.996L69.644 151.704C70.604 152.4 71.48 153.144 72.272 153.948ZM66.284 143.052C65.42 144.3 64.388 145.284 63.188 146.004L63.92 146.88C64.424 146.544 64.904 146.172 65.36 145.764C65.816 146.196 66.32 146.58 66.896 146.94C65.624 147.468 64.16 147.852 62.492 148.08L62.996 149.1C64.928 148.788 66.608 148.272 68.024 147.552C69.404 148.224 71.06 148.692 72.992 148.968L73.52 147.924C71.852 147.72 70.4 147.384 69.152 146.904C70.04 146.328 70.808 145.644 71.456 144.864V143.988H66.92C67.076 143.76 67.232 143.532 67.388 143.292L66.284 143.052ZM66.056 145.056L66.116 144.996H70.004C69.428 145.524 68.756 145.992 68.012 146.4C67.256 146.016 66.608 145.572 66.056 145.056ZM77.012 143.064C76.436 144.912 75.548 146.532 74.348 147.924L74.72 149.136C75.092 148.74 75.452 148.332 75.788 147.9V154.236H76.904V146.244C77.384 145.404 77.78 144.504 78.08 143.556L77.012 143.064ZM79.028 143.928C78.788 145.464 78.308 146.772 77.612 147.84L78.344 148.788C78.776 148.164 79.136 147.48 79.436 146.724H81.248V149.304H77.84V150.408H81.248V154.188H82.388V150.408H85.484V149.304H82.388V146.724H85.04V145.608H82.388V143.208H81.248V145.608H79.808C79.94 145.128 80.048 144.612 80.144 144.072L79.028 143.928Z" fill="#666666"/>
<path d="M25 149.781L28.3 146.481L29.2427 147.423L25 151.666L20.7573 147.423L21.7 146.481L25 149.781Z" fill="#999999"/>
<line x1="12" y1="164.5" x2="212" y2="164.5" stroke="#E5E5E5"/>
<rect x="0.5" y="0.5" width="223" height="249" rx="3.5" stroke="#E5E5E5"/>
</svg>
