<svg width="200" height="224" viewBox="0 0 200 224" fill="none" xmlns="http://www.w3.org/2000/svg">
<rect width="200" height="32" fill="#F5F7FB"/>
<path d="M11.55 57.38H16.02V57.97H16.75V53.75H12.58C14.46 52.88 15.75 51.76 16.47 50.39V49.75H12.57C12.77 49.48 12.95 49.2 13.11 48.9L12.32 48.81C11.72 49.87 10.57 50.77 8.86 51.5L9.34 52.12C10.4 51.62 11.26 51.06 11.94 50.43H15.64C15.17 51.25 14.43 51.96 13.41 52.57C12.98 52.2 12.38 51.78 11.62 51.31L11 51.7C11.76 52.13 12.36 52.53 12.8 52.9C11.65 53.48 10.21 53.94 8.48 54.3L8.86 54.99C9.56 54.82 10.21 54.64 10.83 54.44V57.97H11.55V57.38ZM16.02 56.68H11.55V54.42H16.02V56.68ZM18.58 51.57V52.26H19.96C19.64 53.4 19.1 54.41 18.34 55.3L18.65 56.1C19.23 55.3 19.7 54.41 20.04 53.43V57.97H20.73V53.45C21.03 53.8 21.4 54.27 21.82 54.87L22.22 54.27C21.72 53.73 21.23 53.25 20.73 52.81V52.26H21.96V51.57H20.73V50.03C21.24 49.93 21.72 49.81 22.16 49.69L21.91 49.01C20.95 49.31 19.86 49.51 18.62 49.62L18.76 50.3C19.2 50.26 19.62 50.2 20.04 50.14V51.57H18.58ZM24.26 57.95C24.83 57.95 25.12 57.65 25.12 57.05V51.76H24.38V56.87C24.38 57.16 24.25 57.31 24.01 57.31C23.74 57.31 23.45 57.29 23.15 57.26L23.3 57.95H24.26ZM23 53.2C22.75 54.36 22.36 55.43 21.82 56.39L22.44 56.78C22.97 55.81 23.38 54.66 23.67 53.33L23 53.2ZM26.42 53.13L25.77 53.34C26.19 54.37 26.58 55.55 26.93 56.88L27.59 56.59C27.26 55.36 26.87 54.21 26.42 53.13ZM23.68 50.91H26.54C26.42 51.49 26.27 52.01 26.09 52.48L26.79 52.69C26.99 52.03 27.14 51.36 27.26 50.68V50.21H23.95C24.09 49.79 24.21 49.35 24.3 48.89L23.59 48.8C23.35 50.08 22.88 51.16 22.2 52.04L22.64 52.61C23.05 52.11 23.4 51.54 23.68 50.91Z" fill="#666666"/>
<path d="M10.69 89.64C10.01 90.36 9.25 91 8.42 91.55L8.64 92.3C9.4 91.74 10.09 91.13 10.69 90.49V93.97H11.4V84.89H10.69V89.64ZM9.23 85.88L8.55 86.1C8.93 86.86 9.28 87.74 9.59 88.74L10.22 88.45C9.94 87.54 9.61 86.68 9.23 85.88ZM15.98 85.03L15.42 85.38C15.94 85.97 16.36 86.51 16.66 87.01L17.22 86.61C16.93 86.16 16.52 85.63 15.98 85.03ZM14.87 84.86H14.16C14.16 85.47 14.14 86.36 14.11 87.52H12.06V88.21H14.07C13.87 90.19 13.1 91.94 11.76 93.44L12.24 93.98C13.38 92.76 14.17 91.24 14.59 89.43C15.03 91.25 15.88 92.76 17.14 93.95L17.63 93.41C16.25 92.19 15.35 90.45 14.92 88.21H17.28V87.52H14.84C14.86 86.48 14.87 85.6 14.87 84.86ZM22.64 84.74C22.6 85.14 22.52 85.52 22.41 85.88H18.88V86.57H22.16C21.98 86.96 21.76 87.31 21.48 87.61C20.85 88.27 19.82 88.79 18.4 89.15L18.68 89.81C19.88 89.49 20.82 89.09 21.48 88.6C21.96 88.98 22.44 89.41 22.92 89.89L23.42 89.39C22.88 88.9 22.4 88.5 21.96 88.19C21.99 88.15 22.02 88.12 22.06 88.08C22.43 87.66 22.73 87.15 22.95 86.57H23.1C23.6 87.93 24.95 89 27.17 89.78L27.55 89.16C25.56 88.54 24.32 87.68 23.83 86.57H27.03V85.88H23.17C23.25 85.54 23.32 85.19 23.36 84.81L22.64 84.74ZM19.43 90.65C19.24 91.55 18.93 92.37 18.51 93.11L19.13 93.5C19.56 92.74 19.9 91.84 20.14 90.8L19.43 90.65ZM23.22 90.29L22.59 90.49C22.91 91 23.2 91.59 23.48 92.26L24.14 91.97C23.88 91.37 23.57 90.81 23.22 90.29ZM26.21 90.5L25.52 90.72C25.99 91.43 26.42 92.25 26.81 93.19L27.47 92.9C27.11 92.04 26.69 91.24 26.21 90.5ZM24.38 93.79C24.76 93.79 25.03 93.7 25.21 93.53C25.41 93.33 25.55 92.79 25.62 91.89L24.94 91.67C24.9 92.36 24.82 92.77 24.7 92.91C24.61 93.03 24.46 93.09 24.25 93.09H22.07C21.77 93.09 21.63 92.94 21.63 92.64V90.62H20.89V92.79C20.89 93.45 21.2 93.79 21.84 93.79H24.38Z" fill="#666666"/>
<path d="M50.14 48.83V49.48H47.72V50.07H50.14V50.74H48.12V51.32H50.14V52H47.44V52.6H53.56V52H50.83V51.32H52.95V50.74H50.83V50.07H53.31V49.48H50.83V48.83H50.14ZM48.89 55.12H52.12V55.85H48.89V55.12ZM52.12 54.56H48.89V53.82H52.12V54.56ZM48.89 56.41H52.12V56.98C52.12 57.21 51.99 57.33 51.75 57.33L50.95 57.3L51.12 57.94H51.96C52.52 57.94 52.81 57.67 52.81 57.13V53.23H48.2V58H48.89V56.41ZM45.63 48.94L45.12 49.43C45.84 49.97 46.41 50.48 46.83 50.96L47.32 50.46C46.86 49.95 46.3 49.44 45.63 48.94ZM44.42 51.89V52.58H45.85V56.55C45.85 56.72 45.77 56.87 45.62 57.01L45.9 57.65C46.52 57.2 47.12 56.68 47.68 56.1L47.49 55.34C47.15 55.69 46.84 56 46.54 56.28V51.89H44.42ZM56.29 51.61V53.1H55.3C55.55 52.46 55.78 51.73 56 50.91H57.93V50.23H56.17C56.26 49.83 56.35 49.4 56.44 48.95L55.78 48.8C55.69 49.3 55.6 49.77 55.5 50.23H54.51V50.91H55.34C55.11 51.8 54.86 52.55 54.58 53.15L54.73 53.75H56.29V55.24C55.71 55.35 55.09 55.45 54.43 55.53L54.52 56.23C55.13 56.14 55.72 56.04 56.29 55.93V58H56.96V55.78L57.91 55.54V54.86C57.61 54.94 57.3 55.02 56.96 55.1V53.75H57.88V53.1H56.96V51.61H56.29ZM59.24 51.1V51.69H62.11V51.09H59.25C59.75 50.61 60.23 50.08 60.71 49.5C61.47 50.48 62.32 51.31 63.26 51.99L63.64 51.42C62.73 50.78 61.84 49.93 60.97 48.85H60.45C59.64 49.85 58.72 50.73 57.7 51.48L58.09 52.08C58.48 51.78 58.86 51.45 59.24 51.1ZM59.94 57.93C60.43 57.93 60.68 57.67 60.68 57.16V52.49H58.32V58H58.95V56.13H60.07V57.03C60.07 57.25 59.96 57.36 59.74 57.36L59.3 57.34L59.46 57.93H59.94ZM58.95 55.57V54.62H60.07V55.57H58.95ZM58.95 54.06V53.07H60.07V54.06H58.95ZM61.28 52.77V56.36H61.84V52.77H61.28ZM62.37 57.95C62.85 57.95 63.1 57.66 63.1 57.09V52.32H62.47V56.93C62.47 57.21 62.36 57.36 62.15 57.36C61.9 57.36 61.64 57.34 61.37 57.32L61.52 57.95H62.37ZM68.56 51.15C67.92 53.81 66.53 55.85 64.39 57.25L64.82 57.86C66.92 56.5 68.3 54.54 68.96 51.99C69.01 52.11 69.06 52.25 69.12 52.41C70.15 55.05 71.47 56.87 73.09 57.85L73.54 57.27C71.96 56.28 70.71 54.59 69.77 52.2C69.15 50.58 68.4 49.45 67.51 48.83L66.91 49.21C67.55 49.67 68.1 50.31 68.56 51.15ZM77.55 57.38H82.02V57.97H82.75V53.75H78.58C80.46 52.88 81.75 51.76 82.47 50.39V49.75H78.57C78.77 49.48 78.95 49.2 79.11 48.9L78.32 48.81C77.72 49.87 76.57 50.77 74.86 51.5L75.34 52.12C76.4 51.62 77.26 51.06 77.94 50.43H81.64C81.17 51.25 80.43 51.96 79.41 52.57C78.98 52.2 78.38 51.78 77.62 51.31L77 51.7C77.76 52.13 78.36 52.53 78.8 52.9C77.65 53.48 76.21 53.94 74.48 54.3L74.86 54.99C75.56 54.82 76.21 54.64 76.83 54.44V57.97H77.55V57.38ZM82.02 56.68H77.55V54.42H82.02V56.68ZM84.58 51.57V52.26H85.96C85.64 53.4 85.1 54.41 84.34 55.3L84.65 56.1C85.23 55.3 85.7 54.41 86.04 53.43V57.97H86.73V53.45C87.03 53.8 87.4 54.27 87.82 54.87L88.22 54.27C87.72 53.73 87.23 53.25 86.73 52.81V52.26H87.96V51.57H86.73V50.03C87.24 49.93 87.72 49.81 88.16 49.69L87.91 49.01C86.95 49.31 85.86 49.51 84.62 49.62L84.76 50.3C85.2 50.26 85.62 50.2 86.04 50.14V51.57H84.58ZM90.26 57.95C90.83 57.95 91.12 57.65 91.12 57.05V51.76H90.38V56.87C90.38 57.16 90.25 57.31 90.01 57.31C89.74 57.31 89.45 57.29 89.15 57.26L89.3 57.95H90.26ZM89 53.2C88.75 54.36 88.36 55.43 87.82 56.39L88.44 56.78C88.97 55.81 89.38 54.66 89.67 53.33L89 53.2ZM92.42 53.13L91.77 53.34C92.19 54.37 92.58 55.55 92.93 56.88L93.59 56.59C93.26 55.36 92.87 54.21 92.42 53.13ZM89.68 50.91H92.54C92.42 51.49 92.27 52.01 92.09 52.48L92.79 52.69C92.99 52.03 93.14 51.36 93.26 50.68V50.21H89.95C90.09 49.79 90.21 49.35 90.3 48.89L89.59 48.8C89.35 50.08 88.88 51.16 88.2 52.04L88.64 52.61C89.05 52.11 89.4 51.54 89.68 50.91Z" fill="#666666"/>
<path d="M50.14 84.83V85.48H47.72V86.07H50.14V86.74H48.12V87.32H50.14V88H47.44V88.6H53.56V88H50.83V87.32H52.95V86.74H50.83V86.07H53.31V85.48H50.83V84.83H50.14ZM48.89 91.12H52.12V91.85H48.89V91.12ZM52.12 90.56H48.89V89.82H52.12V90.56ZM48.89 92.41H52.12V92.98C52.12 93.21 51.99 93.33 51.75 93.33L50.95 93.3L51.12 93.94H51.96C52.52 93.94 52.81 93.67 52.81 93.13V89.23H48.2V94H48.89V92.41ZM45.63 84.94L45.12 85.43C45.84 85.97 46.41 86.48 46.83 86.96L47.32 86.46C46.86 85.95 46.3 85.44 45.63 84.94ZM44.42 87.89V88.58H45.85V92.55C45.85 92.72 45.77 92.87 45.62 93.01L45.9 93.65C46.52 93.2 47.12 92.68 47.68 92.1L47.49 91.34C47.15 91.69 46.84 92 46.54 92.28V87.89H44.42ZM55.26 84.99L54.77 85.46C55.48 86.02 56.04 86.55 56.45 87.05L56.95 86.55C56.49 86.03 55.93 85.51 55.26 84.99ZM61.07 93.82H63.39L63.57 93.1C63.3 93.12 62.92 93.13 62.44 93.14C61.94 93.15 61.45 93.16 60.97 93.16C60.19 93.16 59.53 93.15 59.01 93.14C58.41 93.12 57.96 93.04 57.65 92.9C57.37 92.77 57.11 92.56 56.87 92.27C56.79 92.18 56.71 92.1 56.63 92.04V88.3H54.54V88.96H55.96V92C55.54 92.18 55.07 92.7 54.53 93.55L55.07 94.04C55.63 93.1 56.03 92.64 56.28 92.64C56.4 92.64 56.53 92.72 56.67 92.89C56.98 93.25 57.33 93.5 57.72 93.62C58.12 93.73 58.65 93.79 59.29 93.8C59.93 93.81 60.53 93.82 61.07 93.82ZM60.21 84.8V86.08H58.89C59.01 85.76 59.12 85.43 59.22 85.08L58.53 84.94C58.29 85.84 57.9 86.67 57.36 87.42L57.99 87.81C58.21 87.49 58.41 87.15 58.59 86.77H60.21V88.2H57.61V88.9H59.22C59.19 89.52 59.09 90.06 58.92 90.5C58.66 91.1 58.13 91.6 57.32 92L57.79 92.57C58.73 92.08 59.34 91.45 59.6 90.69C59.77 90.19 59.87 89.59 59.9 88.9H60.91V91.74C60.91 91.96 60.97 92.14 61.11 92.28C61.24 92.42 61.43 92.49 61.69 92.49H62.41C62.75 92.48 62.99 92.4 63.13 92.26C63.28 92.1 63.39 91.61 63.45 90.78L62.82 90.57C62.78 91.28 62.7 91.68 62.58 91.77C62.5 91.83 62.4 91.86 62.26 91.86H61.9C61.68 91.86 61.58 91.76 61.58 91.58V88.9H63.26V88.2H60.91V86.77H62.91V86.08H60.91V84.8H60.21ZM68.13 85.23V85.88H68.63C68.91 86.64 69.36 87.27 69.99 87.78C69.37 88.08 68.63 88.32 67.78 88.52L68.12 89.13C69.09 88.89 69.93 88.59 70.63 88.21C71.35 88.63 72.27 88.92 73.37 89.07L73.63 88.43C72.72 88.31 71.94 88.1 71.3 87.8C72.06 87.26 72.58 86.61 72.87 85.83V85.23H68.13ZM69.34 85.88H72.11C71.8 86.48 71.31 86.99 70.63 87.42C70.04 87.02 69.61 86.5 69.34 85.88ZM65.62 93.91C66.21 93.91 66.51 93.62 66.51 93.04V90.17C66.9 90.01 67.28 89.84 67.65 89.66V88.93C67.27 89.12 66.89 89.3 66.51 89.46V87.44H67.63V86.75H66.51V84.86H65.77V86.75H64.55V87.44H65.77V89.73C65.32 89.88 64.86 90.01 64.39 90.12L64.57 90.84C64.97 90.72 65.37 90.59 65.77 90.45V92.85C65.77 93.11 65.63 93.25 65.37 93.25C65.12 93.25 64.86 93.23 64.6 93.21L64.75 93.91H65.62ZM68.3 89.85V90.51H70.3V91.65H67.79V92.32H70.3V93.9H71V92.32H73.48V91.65H71V90.51H72.97V89.85H71V88.97H70.3V89.85H68.3Z" fill="#666666"/>
<path d="M38 40.5H190C190.828 40.5 191.5 41.1716 191.5 42V66C191.5 66.8284 190.828 67.5 190 67.5H38C37.1716 67.5 36.5 66.8284 36.5 66V42C36.5 41.1716 37.1716 40.5 38 40.5Z" stroke="#E0E3EC"/>
<path d="M38 76.5H190C190.828 76.5 191.5 77.1716 191.5 78V102C191.5 102.828 190.828 103.5 190 103.5H38C37.1716 103.5 36.5 102.828 36.5 102V78C36.5 77.1716 37.1716 76.5 38 76.5Z" stroke="#E0E3EC"/>
<g opacity="0.6">
<path d="M180 90.625L182.64 87.985L183.394 88.7392L180 92.1333L176.606 88.7392L177.36 87.985L180 90.625Z" fill="#919AA0"/>
</g>
<path d="M31.424 16.46V17.204H27.668V20.708H28.784V18.236H31.424V21.236H32.576V18.236H35.252V19.16C35.252 19.448 35.084 19.592 34.76 19.592L33.92 19.544L34.22 20.624H35.132C35.96 20.624 36.38 20.216 36.38 19.412V17.204H32.576V16.46H35.24V13.652H28.808V16.46H31.424ZM31.424 10.1V11.84H29.9C29.66 11.264 29.396 10.772 29.12 10.34L28.04 10.736C28.304 11.072 28.544 11.444 28.748 11.84H26.876V14.444H28.028V12.92H35.972V14.432H37.124V11.84H35.132C35.372 11.504 35.624 11.108 35.864 10.652L34.784 10.256C34.544 10.808 34.244 11.336 33.908 11.84H32.576V10.1H31.424ZM34.136 15.512H29.912V14.6H34.136V15.512ZM40.712 14.516H43.472V16.352H40.712V14.516ZM40.652 17.408H43.472V20.828H44.624V17.408H47.6V19.196C47.6 19.664 47.396 19.904 47.012 19.904C46.604 19.904 46.172 19.88 45.704 19.844L46.004 20.96H47.384C48.296 20.96 48.764 20.504 48.764 19.604V10.568H39.56V16.448C39.536 18.032 39.164 19.34 38.444 20.372L39.32 21.152C40.064 20.168 40.508 18.92 40.652 17.408ZM47.6 16.352H44.624V14.516H47.6V16.352ZM47.6 13.472H44.624V11.672H47.6V13.472ZM43.472 11.672V13.472H40.712V11.672H43.472ZM51.464 16.436V17.516H55.46V19.676C55.46 20.012 55.292 20.18 54.956 20.18C54.584 20.18 54.188 20.156 53.768 20.108L54.032 21.2H55.352C56.192 21.2 56.612 20.78 56.612 19.964V17.516H60.5V16.436H56.612V15.44H55.46V16.436H51.464ZM53.372 18.068C52.652 18.812 51.764 19.472 50.708 20.024L51.452 20.996C52.52 20.36 53.42 19.616 54.164 18.764L53.372 18.068ZM60.272 20.948L61.1 20.12C60.044 19.172 59.144 18.464 58.376 17.996L57.644 18.704C58.604 19.4 59.48 20.144 60.272 20.948ZM54.284 10.052C53.42 11.3 52.388 12.284 51.188 13.004L51.92 13.88C52.424 13.544 52.904 13.172 53.36 12.764C53.816 13.196 54.32 13.58 54.896 13.94C53.624 14.468 52.16 14.852 50.492 15.08L50.996 16.1C52.928 15.788 54.608 15.272 56.024 14.552C57.404 15.224 59.06 15.692 60.992 15.968L61.52 14.924C59.852 14.72 58.4 14.384 57.152 13.904C58.04 13.328 58.808 12.644 59.456 11.864V10.988H54.92C55.076 10.76 55.232 10.532 55.388 10.292L54.284 10.052ZM54.056 12.056L54.116 11.996H58.004C57.428 12.524 56.756 12.992 56.012 13.4C55.256 13.016 54.608 12.572 54.056 12.056ZM65.012 10.064C64.436 11.912 63.548 13.532 62.348 14.924L62.72 16.136C63.092 15.74 63.452 15.332 63.788 14.9V21.236H64.904V13.244C65.384 12.404 65.78 11.504 66.08 10.556L65.012 10.064ZM67.028 10.928C66.788 12.464 66.308 13.772 65.612 14.84L66.344 15.788C66.776 15.164 67.136 14.48 67.436 13.724H69.248V16.304H65.84V17.408H69.248V21.188H70.388V17.408H73.484V16.304H70.388V13.724H73.04V12.608H70.388V10.208H69.248V12.608H67.808C67.94 12.128 68.048 11.612 68.144 11.072L67.028 10.928Z" fill="#666666"/>
<g opacity="0.6">
<path d="M13 16.7813L16.3 13.4813L17.2427 14.424L13 18.6667L8.75734 14.424L9.70001 13.4813L13 16.7813Z" fill="#919AA0"/>
</g>
<line y1="31.5" x2="200" y2="31.5" stroke="#DFE3EC"/>
<rect y="120" width="200" height="32" fill="#F5F7FB"/>
<path d="M11.55 177.38H16.02V177.97H16.75V173.75H12.58C14.46 172.88 15.75 171.76 16.47 170.39V169.75H12.57C12.77 169.48 12.95 169.2 13.11 168.9L12.32 168.81C11.72 169.87 10.57 170.77 8.86 171.5L9.34 172.12C10.4 171.62 11.26 171.06 11.94 170.43H15.64C15.17 171.25 14.43 171.96 13.41 172.57C12.98 172.2 12.38 171.78 11.62 171.31L11 171.7C11.76 172.13 12.36 172.53 12.8 172.9C11.65 173.48 10.21 173.94 8.48 174.3L8.86 174.99C9.56 174.82 10.21 174.64 10.83 174.44V177.97H11.55V177.38ZM16.02 176.68H11.55V174.42H16.02V176.68ZM18.58 171.57V172.26H19.96C19.64 173.4 19.1 174.41 18.34 175.3L18.65 176.1C19.23 175.3 19.7 174.41 20.04 173.43V177.97H20.73V173.45C21.03 173.8 21.4 174.27 21.82 174.87L22.22 174.27C21.72 173.73 21.23 173.25 20.73 172.81V172.26H21.96V171.57H20.73V170.03C21.24 169.93 21.72 169.81 22.16 169.69L21.91 169.01C20.95 169.31 19.86 169.51 18.62 169.62L18.76 170.3C19.2 170.26 19.62 170.2 20.04 170.14V171.57H18.58ZM24.26 177.95C24.83 177.95 25.12 177.65 25.12 177.05V171.76H24.38V176.87C24.38 177.16 24.25 177.31 24.01 177.31C23.74 177.31 23.45 177.29 23.15 177.26L23.3 177.95H24.26ZM23 173.2C22.75 174.36 22.36 175.43 21.82 176.39L22.44 176.78C22.97 175.81 23.38 174.66 23.67 173.33L23 173.2ZM26.42 173.13L25.77 173.34C26.19 174.37 26.58 175.55 26.93 176.88L27.59 176.59C27.26 175.36 26.87 174.21 26.42 173.13ZM23.68 170.91H26.54C26.42 171.49 26.27 172.01 26.09 172.48L26.79 172.69C26.99 172.03 27.14 171.36 27.26 170.68V170.21H23.95C24.09 169.79 24.21 169.35 24.3 168.89L23.59 168.8C23.35 170.08 22.88 171.16 22.2 172.04L22.64 172.61C23.05 172.11 23.4 171.54 23.68 170.91Z" fill="#666666"/>
<path d="M10.69 209.64C10.01 210.36 9.25 211 8.42 211.55L8.64 212.3C9.4 211.74 10.09 211.13 10.69 210.49V213.97H11.4V204.89H10.69V209.64ZM9.23 205.88L8.55 206.1C8.93 206.86 9.28 207.74 9.59 208.74L10.22 208.45C9.94 207.54 9.61 206.68 9.23 205.88ZM15.98 205.03L15.42 205.38C15.94 205.97 16.36 206.51 16.66 207.01L17.22 206.61C16.93 206.16 16.52 205.63 15.98 205.03ZM14.87 204.86H14.16C14.16 205.47 14.14 206.36 14.11 207.52H12.06V208.21H14.07C13.87 210.19 13.1 211.94 11.76 213.44L12.24 213.98C13.38 212.76 14.17 211.24 14.59 209.43C15.03 211.25 15.88 212.76 17.14 213.95L17.63 213.41C16.25 212.19 15.35 210.45 14.92 208.21H17.28V207.52H14.84C14.86 206.48 14.87 205.6 14.87 204.86ZM22.64 204.74C22.6 205.14 22.52 205.52 22.41 205.88H18.88V206.57H22.16C21.98 206.96 21.76 207.31 21.48 207.61C20.85 208.27 19.82 208.79 18.4 209.15L18.68 209.81C19.88 209.49 20.82 209.09 21.48 208.6C21.96 208.98 22.44 209.41 22.92 209.89L23.42 209.39C22.88 208.9 22.4 208.5 21.96 208.19C21.99 208.15 22.02 208.12 22.06 208.08C22.43 207.66 22.73 207.15 22.95 206.57H23.1C23.6 207.93 24.95 209 27.17 209.78L27.55 209.16C25.56 208.54 24.32 207.68 23.83 206.57H27.03V205.88H23.17C23.25 205.54 23.32 205.19 23.36 204.81L22.64 204.74ZM19.43 210.65C19.24 211.55 18.93 212.37 18.51 213.11L19.13 213.5C19.56 212.74 19.9 211.84 20.14 210.8L19.43 210.65ZM23.22 210.29L22.59 210.49C22.91 211 23.2 211.59 23.48 212.26L24.14 211.97C23.88 211.37 23.57 210.81 23.22 210.29ZM26.21 210.5L25.52 210.72C25.99 211.43 26.42 212.25 26.81 213.19L27.47 212.9C27.11 212.04 26.69 211.24 26.21 210.5ZM24.38 213.79C24.76 213.79 25.03 213.7 25.21 213.53C25.41 213.33 25.55 212.79 25.62 211.89L24.94 211.67C24.9 212.36 24.82 212.77 24.7 212.91C24.61 213.03 24.46 213.09 24.25 213.09H22.07C21.77 213.09 21.63 212.94 21.63 212.64V210.62H20.89V212.79C20.89 213.45 21.2 213.79 21.84 213.79H24.38Z" fill="#666666"/>
<path d="M50.14 168.83V169.48H47.72V170.07H50.14V170.74H48.12V171.32H50.14V172H47.44V172.6H53.56V172H50.83V171.32H52.95V170.74H50.83V170.07H53.31V169.48H50.83V168.83H50.14ZM48.89 175.12H52.12V175.85H48.89V175.12ZM52.12 174.56H48.89V173.82H52.12V174.56ZM48.89 176.41H52.12V176.98C52.12 177.21 51.99 177.33 51.75 177.33L50.95 177.3L51.12 177.94H51.96C52.52 177.94 52.81 177.67 52.81 177.13V173.23H48.2V178H48.89V176.41ZM45.63 168.94L45.12 169.43C45.84 169.97 46.41 170.48 46.83 170.96L47.32 170.46C46.86 169.95 46.3 169.44 45.63 168.94ZM44.42 171.89V172.58H45.85V176.55C45.85 176.72 45.77 176.87 45.62 177.01L45.9 177.65C46.52 177.2 47.12 176.68 47.68 176.1L47.49 175.34C47.15 175.69 46.84 176 46.54 176.28V171.89H44.42ZM56.29 171.61V173.1H55.3C55.55 172.46 55.78 171.73 56 170.91H57.93V170.23H56.17C56.26 169.83 56.35 169.4 56.44 168.95L55.78 168.8C55.69 169.3 55.6 169.77 55.5 170.23H54.51V170.91H55.34C55.11 171.8 54.86 172.55 54.58 173.15L54.73 173.75H56.29V175.24C55.71 175.35 55.09 175.45 54.43 175.53L54.52 176.23C55.13 176.14 55.72 176.04 56.29 175.93V178H56.96V175.78L57.91 175.54V174.86C57.61 174.94 57.3 175.02 56.96 175.1V173.75H57.88V173.1H56.96V171.61H56.29ZM59.24 171.1V171.69H62.11V171.09H59.25C59.75 170.61 60.23 170.08 60.71 169.5C61.47 170.48 62.32 171.31 63.26 171.99L63.64 171.42C62.73 170.78 61.84 169.93 60.97 168.85H60.45C59.64 169.85 58.72 170.73 57.7 171.48L58.09 172.08C58.48 171.78 58.86 171.45 59.24 171.1ZM59.94 177.93C60.43 177.93 60.68 177.67 60.68 177.16V172.49H58.32V178H58.95V176.13H60.07V177.03C60.07 177.25 59.96 177.36 59.74 177.36L59.3 177.34L59.46 177.93H59.94ZM58.95 175.57V174.62H60.07V175.57H58.95ZM58.95 174.06V173.07H60.07V174.06H58.95ZM61.28 172.77V176.36H61.84V172.77H61.28ZM62.37 177.95C62.85 177.95 63.1 177.66 63.1 177.09V172.32H62.47V176.93C62.47 177.21 62.36 177.36 62.15 177.36C61.9 177.36 61.64 177.34 61.37 177.32L61.52 177.95H62.37ZM68.56 171.15C67.92 173.81 66.53 175.85 64.39 177.25L64.82 177.86C66.92 176.5 68.3 174.54 68.96 171.99C69.01 172.11 69.06 172.25 69.12 172.41C70.15 175.05 71.47 176.87 73.09 177.85L73.54 177.27C71.96 176.28 70.71 174.59 69.77 172.2C69.15 170.58 68.4 169.45 67.51 168.83L66.91 169.21C67.55 169.67 68.1 170.31 68.56 171.15ZM77.55 177.38H82.02V177.97H82.75V173.75H78.58C80.46 172.88 81.75 171.76 82.47 170.39V169.75H78.57C78.77 169.48 78.95 169.2 79.11 168.9L78.32 168.81C77.72 169.87 76.57 170.77 74.86 171.5L75.34 172.12C76.4 171.62 77.26 171.06 77.94 170.43H81.64C81.17 171.25 80.43 171.96 79.41 172.57C78.98 172.2 78.38 171.78 77.62 171.31L77 171.7C77.76 172.13 78.36 172.53 78.8 172.9C77.65 173.48 76.21 173.94 74.48 174.3L74.86 174.99C75.56 174.82 76.21 174.64 76.83 174.44V177.97H77.55V177.38ZM82.02 176.68H77.55V174.42H82.02V176.68ZM84.58 171.57V172.26H85.96C85.64 173.4 85.1 174.41 84.34 175.3L84.65 176.1C85.23 175.3 85.7 174.41 86.04 173.43V177.97H86.73V173.45C87.03 173.8 87.4 174.27 87.82 174.87L88.22 174.27C87.72 173.73 87.23 173.25 86.73 172.81V172.26H87.96V171.57H86.73V170.03C87.24 169.93 87.72 169.81 88.16 169.69L87.91 169.01C86.95 169.31 85.86 169.51 84.62 169.62L84.76 170.3C85.2 170.26 85.62 170.2 86.04 170.14V171.57H84.58ZM90.26 177.95C90.83 177.95 91.12 177.65 91.12 177.05V171.76H90.38V176.87C90.38 177.16 90.25 177.31 90.01 177.31C89.74 177.31 89.45 177.29 89.15 177.26L89.3 177.95H90.26ZM89 173.2C88.75 174.36 88.36 175.43 87.82 176.39L88.44 176.78C88.97 175.81 89.38 174.66 89.67 173.33L89 173.2ZM92.42 173.13L91.77 173.34C92.19 174.37 92.58 175.55 92.93 176.88L93.59 176.59C93.26 175.36 92.87 174.21 92.42 173.13ZM89.68 170.91H92.54C92.42 171.49 92.27 172.01 92.09 172.48L92.79 172.69C92.99 172.03 93.14 171.36 93.26 170.68V170.21H89.95C90.09 169.79 90.21 169.35 90.3 168.89L89.59 168.8C89.35 170.08 88.88 171.16 88.2 172.04L88.64 172.61C89.05 172.11 89.4 171.54 89.68 170.91Z" fill="#666666"/>
<path d="M50.14 204.83V205.48H47.72V206.07H50.14V206.74H48.12V207.32H50.14V208H47.44V208.6H53.56V208H50.83V207.32H52.95V206.74H50.83V206.07H53.31V205.48H50.83V204.83H50.14ZM48.89 211.12H52.12V211.85H48.89V211.12ZM52.12 210.56H48.89V209.82H52.12V210.56ZM48.89 212.41H52.12V212.98C52.12 213.21 51.99 213.33 51.75 213.33L50.95 213.3L51.12 213.94H51.96C52.52 213.94 52.81 213.67 52.81 213.13V209.23H48.2V214H48.89V212.41ZM45.63 204.94L45.12 205.43C45.84 205.97 46.41 206.48 46.83 206.96L47.32 206.46C46.86 205.95 46.3 205.44 45.63 204.94ZM44.42 207.89V208.58H45.85V212.55C45.85 212.72 45.77 212.87 45.62 213.01L45.9 213.65C46.52 213.2 47.12 212.68 47.68 212.1L47.49 211.34C47.15 211.69 46.84 212 46.54 212.28V207.89H44.42ZM55.26 204.99L54.77 205.46C55.48 206.02 56.04 206.55 56.45 207.05L56.95 206.55C56.49 206.03 55.93 205.51 55.26 204.99ZM61.07 213.82H63.39L63.57 213.1C63.3 213.12 62.92 213.13 62.44 213.14C61.94 213.15 61.45 213.16 60.97 213.16C60.19 213.16 59.53 213.15 59.01 213.14C58.41 213.12 57.96 213.04 57.65 212.9C57.37 212.77 57.11 212.56 56.87 212.27C56.79 212.18 56.71 212.1 56.63 212.04V208.3H54.54V208.96H55.96V212C55.54 212.18 55.07 212.7 54.53 213.55L55.07 214.04C55.63 213.1 56.03 212.64 56.28 212.64C56.4 212.64 56.53 212.72 56.67 212.89C56.98 213.25 57.33 213.5 57.72 213.62C58.12 213.73 58.65 213.79 59.29 213.8C59.93 213.81 60.53 213.82 61.07 213.82ZM60.21 204.8V206.08H58.89C59.01 205.76 59.12 205.43 59.22 205.08L58.53 204.94C58.29 205.84 57.9 206.67 57.36 207.42L57.99 207.81C58.21 207.49 58.41 207.15 58.59 206.77H60.21V208.2H57.61V208.9H59.22C59.19 209.52 59.09 210.06 58.92 210.5C58.66 211.1 58.13 211.6 57.32 212L57.79 212.57C58.73 212.08 59.34 211.45 59.6 210.69C59.77 210.19 59.87 209.59 59.9 208.9H60.91V211.74C60.91 211.96 60.97 212.14 61.11 212.28C61.24 212.42 61.43 212.49 61.69 212.49H62.41C62.75 212.48 62.99 212.4 63.13 212.26C63.28 212.1 63.39 211.61 63.45 210.78L62.82 210.57C62.78 211.28 62.7 211.68 62.58 211.77C62.5 211.83 62.4 211.86 62.26 211.86H61.9C61.68 211.86 61.58 211.76 61.58 211.58V208.9H63.26V208.2H60.91V206.77H62.91V206.08H60.91V204.8H60.21ZM68.13 205.23V205.88H68.63C68.91 206.64 69.36 207.27 69.99 207.78C69.37 208.08 68.63 208.32 67.78 208.52L68.12 209.13C69.09 208.89 69.93 208.59 70.63 208.21C71.35 208.63 72.27 208.92 73.37 209.07L73.63 208.43C72.72 208.31 71.94 208.1 71.3 207.8C72.06 207.26 72.58 206.61 72.87 205.83V205.23H68.13ZM69.34 205.88H72.11C71.8 206.48 71.31 206.99 70.63 207.42C70.04 207.02 69.61 206.5 69.34 205.88ZM65.62 213.91C66.21 213.91 66.51 213.62 66.51 213.04V210.17C66.9 210.01 67.28 209.84 67.65 209.66V208.93C67.27 209.12 66.89 209.3 66.51 209.46V207.44H67.63V206.75H66.51V204.86H65.77V206.75H64.55V207.44H65.77V209.73C65.32 209.88 64.86 210.01 64.39 210.12L64.57 210.84C64.97 210.72 65.37 210.59 65.77 210.45V212.85C65.77 213.11 65.63 213.25 65.37 213.25C65.12 213.25 64.86 213.23 64.6 213.21L64.75 213.91H65.62ZM68.3 209.85V210.51H70.3V211.65H67.79V212.32H70.3V213.9H71V212.32H73.48V211.65H71V210.51H72.97V209.85H71V208.97H70.3V209.85H68.3Z" fill="#666666"/>
<path d="M38 160.5H190C190.828 160.5 191.5 161.172 191.5 162V186C191.5 186.828 190.828 187.5 190 187.5H38C37.1716 187.5 36.5 186.828 36.5 186V162C36.5 161.172 37.1716 160.5 38 160.5Z" stroke="#E0E3EC"/>
<path d="M38 196.5H190C190.828 196.5 191.5 197.172 191.5 198V222C191.5 222.828 190.828 223.5 190 223.5H38C37.1716 223.5 36.5 222.828 36.5 222V198C36.5 197.172 37.1716 196.5 38 196.5Z" stroke="#E0E3EC"/>
<g opacity="0.6">
<path d="M180 210.625L182.64 207.985L183.394 208.739L180 212.133L176.606 208.739L177.36 207.985L180 210.625Z" fill="#919AA0"/>
</g>
<path d="M31.424 136.46V137.204H27.668V140.708H28.784V138.236H31.424V141.236H32.576V138.236H35.252V139.16C35.252 139.448 35.084 139.592 34.76 139.592L33.92 139.544L34.22 140.624H35.132C35.96 140.624 36.38 140.216 36.38 139.412V137.204H32.576V136.46H35.24V133.652H28.808V136.46H31.424ZM31.424 130.1V131.84H29.9C29.66 131.264 29.396 130.772 29.12 130.34L28.04 130.736C28.304 131.072 28.544 131.444 28.748 131.84H26.876V134.444H28.028V132.92H35.972V134.432H37.124V131.84H35.132C35.372 131.504 35.624 131.108 35.864 130.652L34.784 130.256C34.544 130.808 34.244 131.336 33.908 131.84H32.576V130.1H31.424ZM34.136 135.512H29.912V134.6H34.136V135.512ZM40.712 134.516H43.472V136.352H40.712V134.516ZM40.652 137.408H43.472V140.828H44.624V137.408H47.6V139.196C47.6 139.664 47.396 139.904 47.012 139.904C46.604 139.904 46.172 139.88 45.704 139.844L46.004 140.96H47.384C48.296 140.96 48.764 140.504 48.764 139.604V130.568H39.56V136.448C39.536 138.032 39.164 139.34 38.444 140.372L39.32 141.152C40.064 140.168 40.508 138.92 40.652 137.408ZM47.6 136.352H44.624V134.516H47.6V136.352ZM47.6 133.472H44.624V131.672H47.6V133.472ZM43.472 131.672V133.472H40.712V131.672H43.472ZM51.464 136.436V137.516H55.46V139.676C55.46 140.012 55.292 140.18 54.956 140.18C54.584 140.18 54.188 140.156 53.768 140.108L54.032 141.2H55.352C56.192 141.2 56.612 140.78 56.612 139.964V137.516H60.5V136.436H56.612V135.44H55.46V136.436H51.464ZM53.372 138.068C52.652 138.812 51.764 139.472 50.708 140.024L51.452 140.996C52.52 140.36 53.42 139.616 54.164 138.764L53.372 138.068ZM60.272 140.948L61.1 140.12C60.044 139.172 59.144 138.464 58.376 137.996L57.644 138.704C58.604 139.4 59.48 140.144 60.272 140.948ZM54.284 130.052C53.42 131.3 52.388 132.284 51.188 133.004L51.92 133.88C52.424 133.544 52.904 133.172 53.36 132.764C53.816 133.196 54.32 133.58 54.896 133.94C53.624 134.468 52.16 134.852 50.492 135.08L50.996 136.1C52.928 135.788 54.608 135.272 56.024 134.552C57.404 135.224 59.06 135.692 60.992 135.968L61.52 134.924C59.852 134.72 58.4 134.384 57.152 133.904C58.04 133.328 58.808 132.644 59.456 131.864V130.988H54.92C55.076 130.76 55.232 130.532 55.388 130.292L54.284 130.052ZM54.056 132.056L54.116 131.996H58.004C57.428 132.524 56.756 132.992 56.012 133.4C55.256 133.016 54.608 132.572 54.056 132.056ZM65.012 130.064C64.436 131.912 63.548 133.532 62.348 134.924L62.72 136.136C63.092 135.74 63.452 135.332 63.788 134.9V141.236H64.904V133.244C65.384 132.404 65.78 131.504 66.08 130.556L65.012 130.064ZM67.028 130.928C66.788 132.464 66.308 133.772 65.612 134.84L66.344 135.788C66.776 135.164 67.136 134.48 67.436 133.724H69.248V136.304H65.84V137.408H69.248V141.188H70.388V137.408H73.484V136.304H70.388V133.724H73.04V132.608H70.388V130.208H69.248V132.608H67.808C67.94 132.128 68.048 131.612 68.144 131.072L67.028 130.928Z" fill="#666666"/>
<g opacity="0.6">
<path d="M13 136.781L16.3 133.481L17.2427 134.424L13 138.667L8.75734 134.424L9.70001 133.481L13 136.781Z" fill="#919AA0"/>
</g>
<line y1="151.5" x2="200" y2="151.5" stroke="#DFE3EC"/>
</svg>
