<?xml version="1.0" encoding="utf-8"?>
<!-- Generated by IcoMoon.io -->
<!DOCTYPE svg PUBLIC "-//W3C//DTD SVG 1.1//EN" "http://www.w3.org/Graphics/SVG/1.1/DTD/svg11.dtd">
<svg version="1.1" xmlns="http://www.w3.org/2000/svg" xmlns:xlink="http://www.w3.org/1999/xlink" width="32" height="32" viewBox="0 0 32 32">
<path fill="#ff867f" d="M16 32c-8.836 0-16-7.164-16-16s7.164-16 16-16c8.836 0 16 7.164 16 16s-7.164 16-16 16zM2.909 16c0 7.231 5.86 13.091 13.091 13.091 3.091 0 5.926-1.078 8.166-2.868l-18.388-18.388c-1.791 2.24-2.868 5.075-2.868 8.166zM16 2.909c-3.091 0-5.926 1.078-8.166 2.868l18.388 18.388c1.791-2.24 2.868-5.075 2.868-8.166 0-7.231-5.862-13.091-13.091-13.091z"></path>
</svg>
