<?xml version="1.0" encoding="utf-8"?>
<!-- Generated by IcoMoon.io -->
<!DOCTYPE svg PUBLIC "-//W3C//DTD SVG 1.1//EN" "http://www.w3.org/Graphics/SVG/1.1/DTD/svg11.dtd">
<svg version="1.1" xmlns="http://www.w3.org/2000/svg" xmlns:xlink="http://www.w3.org/1999/xlink" width="32" height="32" viewBox="0 0 32 32">
<path fill="#000" d="M15.975 32c-8.823 0-15.975-7.152-15.975-15.975 0-6.55 3.941-12.178 9.58-14.645 0.312-0.136 0.462 3.107-0.008 3.376-3.916 2.229-6.556 6.441-6.556 11.269 0 7.157 5.802 12.959 12.959 12.959s12.959-5.802 12.959-12.959c0-4.85-2.665-9.079-6.611-11.301l0.121-3.31c5.599 2.484 9.505 8.091 9.505 14.611 0 8.823-7.152 15.975-15.975 15.975zM16.926 14.232l-1.048 0.048c-0.58 0.026-1.048-0.422-1.048-1.003l0.030-12.18c0.002-0.58 0.473-1.072 1.053-1.099l0.006 0.003 0.829-0.002 0.848 0.275 0.411 0.677-0.030 12.181c0 0.58-0.471 1.072-1.051 1.099z"></path>
</svg>
