<?xml version="1.0" encoding="utf-8"?>
<!-- Generated by IcoMoon.io -->
<!DOCTYPE svg PUBLIC "-//W3C//DTD SVG 1.1//EN" "http://www.w3.org/Graphics/SVG/1.1/DTD/svg11.dtd">
<svg version="1.1" xmlns="http://www.w3.org/2000/svg" xmlns:xlink="http://www.w3.org/1999/xlink" width="32" height="32" viewBox="0 0 32 32">
<path fill="#fbcc3e" d="M16 31.998c-5.918 0-11.074-3.221-13.842-7.998h-0.558c0 0 0.026-0.318 0.118-0.818-1.091-2.162-1.718-4.597-1.718-7.182 0-8.837 7.163-16 16-16s16 7.163 16 16c0 8.835-7.163 15.998-16 15.998zM16 3.021c-7.168 0-12.979 5.811-12.979 12.979 0 1.059 0.141 2.083 0.379 3.069 1.166-1.645 3.069-3.069 6.2-3.069 7.429 0 8 0 8 0l-4.8-4.8 3.2-1.6 8 8v1.6h-14.4c0 0-3.928-0.205-4.65 3.584 2.283 3.712 6.371 6.194 11.050 6.194 7.168 0 12.979-5.81 12.979-12.978s-5.811-12.979-12.979-12.979z"></path>
</svg>
