<?xml version="1.0" encoding="utf-8"?>
<!-- Generated by IcoMoon.io -->
<!DOCTYPE svg PUBLIC "-//W3C//DTD SVG 1.1//EN" "http://www.w3.org/Graphics/SVG/1.1/DTD/svg11.dtd">
<svg version="1.1" xmlns="http://www.w3.org/2000/svg" xmlns:xlink="http://www.w3.org/1999/xlink" width="30" height="32" viewBox="0 0 30 32">
<path fill="#5795d8" d="M28.465 29.659c0.074 0.699-0.563 1.027-1.185 1.007l-24.995 0.003c-0.608-0.003-1.048-0.597-1.045-1.207l-0.003-16.605c0.003-0.61 0.59-1.048 1.199-1.045h4.064l0.023-2.111c0.024-4.651 3.789-8.402 8.407-8.378 4.619 0.026 8.342 3.817 8.318 8.468l-0.022 2.019 4.205-0.001c0.608 0.003 1.048 0.598 1.045 1.207l-0.011 16.643zM21.125 10.281c0.019-3.754-2.763-6.814-6.213-6.835-3.451-0.020-6.262 3.007-6.281 6.762l-0.060 1.6c0 0.081 2.836-0.020 6.287 0s6.401 0 6.287 0l-0.019-1.528zM26.383 13.904h-23.051v14.669h23.051v-14.669zM14.857 17.048c1.157 0 2.096 0.938 2.096 2.096 0 0.776-0.426 1.446-1.054 1.807l-0.027 3.431-2.062-0.014 0.027-3.405c-0.639-0.359-1.075-1.035-1.075-1.82 0-1.158 0.938-2.096 2.096-2.096z"></path>
</svg>
