<svg width="120" height="145" viewBox="0 0 120 145" fill="none" xmlns="http://www.w3.org/2000/svg">
<path d="M4.73682 3.68421C4.73682 1.64948 6.38629 0 8.42103 0H104.632C106.666 0 108.316 1.64948 108.316 3.68421V25.7895C108.316 27.8242 106.666 29.4737 104.632 29.4737H8.42103C6.3863 29.4737 4.73682 27.8242 4.73682 25.7895V3.68421Z" fill="#337EFF"/>
<path d="M20.1828 9.38524V10.3008H25.1086V20.5521H26.0499V13.2279C27.2105 13.8468 28.6547 14.7237 30.3697 15.8584L30.9242 15.0331C29.2736 13.9758 27.6489 13.0473 26.0499 12.2479V10.3008H31.6463V9.38524H20.1828ZM37.5778 10.7779V11.6676H44.3863V10.7779H41.4721C41.2915 10.0042 41.0852 9.30787 40.866 8.70182L39.9247 8.85655C40.1568 9.44971 40.376 10.0816 40.5565 10.7779H37.5778ZM37.2426 19.0821V19.9847H44.6828V19.0821H42.1555C42.7486 17.2252 43.2515 15.1105 43.6642 12.7379L42.7744 12.5058C42.3231 15.1363 41.8073 17.3284 41.2142 19.0821H37.2426ZM39.0607 12.6476L38.2097 12.9184C38.6352 14.6979 38.9963 16.5418 39.2799 18.4502L40.1439 18.231C39.8344 16.1292 39.4734 14.2723 39.0607 12.6476ZM37.2684 13.7952C36.7784 14.066 36.2884 14.3239 35.7855 14.556V11.9642H37.2168V11.0744H35.7855V8.7405H34.8442V11.0744H33.0776V11.9642H34.8442V14.9429C34.2123 15.175 33.5547 15.3813 32.8842 15.5489L33.1163 16.4773C33.6965 16.2968 34.2768 16.0905 34.8442 15.8713V19.0305C34.8442 19.3916 34.6636 19.5721 34.3155 19.5721C33.9802 19.5721 33.6321 19.5463 33.271 19.5205L33.4773 20.4231H34.6378C35.3986 20.4231 35.7855 20.0363 35.7855 19.2626V15.4716C36.2884 15.2394 36.7784 14.9944 37.2684 14.7366V13.7952ZM46.1142 9.55287V10.3781H49.0799V11.3323H49.9826V10.3781H53.4384V11.2679H54.341V10.3781H57.2681V9.55287H54.341V8.70182H53.4384V9.55287H49.9826V8.71471H49.0799V9.55287H46.1142ZM55.2565 12.7894C54.831 13.5502 54.3281 14.2079 53.7478 14.7623L54.4313 15.2652C55.0502 14.6721 55.5789 13.9629 56.0302 13.1634L55.2565 12.7894ZM51.6331 13.086L50.8594 13.331C51.1044 13.821 51.3107 14.3497 51.4784 14.8913L52.3036 14.685C52.1102 14.0789 51.891 13.5502 51.6331 13.086ZM48.3192 13.2537L47.5326 13.5116C47.8678 14.0918 48.1902 14.7623 48.4739 15.5102L49.2347 15.175C48.9768 14.4916 48.6673 13.8468 48.3192 13.2537ZM55.9657 11.3581C53.5415 11.7321 50.4984 11.9255 46.8363 11.9255L47.1199 12.7894C50.9884 12.7894 54.0831 12.5573 56.4171 12.1189L55.9657 11.3581ZM46.3076 16.0389V16.9029H50.3565C49.4023 17.8958 47.9323 18.721 45.9207 19.3658L46.4365 20.2297C48.6157 19.3529 50.1889 18.2439 51.1689 16.9029H51.2592V20.5263H52.1618V16.9029H52.2521C53.1547 18.115 54.715 19.2239 56.9071 20.2297L57.5389 19.4173C55.4757 18.6823 53.98 17.8442 53.0515 16.9029H57.1134V16.0389H52.1618V15.2137H51.2592V16.0389H46.3076ZM60.1049 10.7134V16.0131H64.141V17.2381H58.8799V18.115H64.141V20.565H65.0694V18.115H70.3305V17.2381H65.0694V16.0131H69.1055V10.7134H66.6297C67.0165 10.1847 67.3647 9.59155 67.6742 8.93392L66.7715 8.61155C66.4492 9.35945 66.0752 10.0687 65.6626 10.7134H60.1049ZM68.2028 15.1879H65.0694V13.7437H68.2028V15.1879ZM64.141 15.1879H61.0076V13.7437H64.141V15.1879ZM61.0076 12.9442V11.5258H64.141V12.9442H61.0076ZM65.0694 11.5258H68.2028V12.9442H65.0694V11.5258ZM62.3873 8.67603L61.6007 9.04997C62.0392 9.53997 62.4389 10.0816 62.8257 10.7005L63.5994 10.3137C63.2126 9.7205 62.8128 9.16603 62.3873 8.67603Z" fill="white"/>
<path d="M89.9203 11.9736L90.8158 12.8733L86.2105 17.4999L81.6052 12.8733L82.5007 11.9736L86.2105 15.7007L89.9203 11.9736Z" fill="white"/>
<g filter="url(#filter0_d_31739_156001)">
<rect x="4.73682" y="36.842" width="110.526" height="103.158" rx="3.68421" fill="white"/>
<path d="M17.4143 53.1708L16.7824 53.7769C17.698 54.499 18.4201 55.1824 18.9488 55.8271L19.5935 55.1824C19.0003 54.5119 18.2782 53.8414 17.4143 53.1708ZM24.9061 64.5569H27.8977L28.1298 63.6285C27.7817 63.6542 27.2917 63.6671 26.6727 63.68C26.028 63.6929 25.3961 63.7058 24.7772 63.7058C23.7714 63.7058 22.9203 63.6929 22.2498 63.68C21.4761 63.6542 20.8959 63.5511 20.4961 63.3706C20.1351 63.2029 19.7998 62.9321 19.4903 62.5582C19.3872 62.4421 19.284 62.339 19.1809 62.2616V57.439H16.4859V58.29H18.3169V62.21C17.7753 62.4421 17.1693 63.1127 16.473 64.2087L17.1693 64.8406C17.8914 63.6285 18.4072 63.0353 18.7296 63.0353C18.8843 63.0353 19.0519 63.1385 19.2324 63.3577C19.6322 63.8219 20.0835 64.1442 20.5864 64.299C21.1022 64.4408 21.7856 64.5182 22.6109 64.5311C23.4361 64.544 24.2098 64.5569 24.9061 64.5569ZM23.7972 52.9258V54.5764H22.0951C22.2498 54.1637 22.3917 53.7382 22.5206 53.2869L21.6309 53.1064C21.3214 54.2669 20.8185 55.3371 20.1222 56.3042L20.9346 56.8071C21.2182 56.3945 21.4761 55.9561 21.7082 55.4661H23.7972V57.31H20.4446V58.2127H22.5206C22.4819 59.0121 22.353 59.7085 22.1338 60.2758C21.7985 61.0495 21.1151 61.6942 20.0706 62.21L20.6767 62.945C21.8888 62.3132 22.6753 61.5008 23.0106 60.5208C23.2298 59.8761 23.3588 59.1024 23.3974 58.2127H24.6998V61.8748C24.6998 62.1585 24.7772 62.3906 24.9577 62.5711C25.1253 62.7516 25.3703 62.8419 25.7056 62.8419H26.634C27.0724 62.829 27.3819 62.7258 27.5624 62.5453C27.7559 62.339 27.8977 61.7071 27.9751 60.6369L27.1627 60.3661C27.1111 61.2816 27.008 61.7974 26.8532 61.9135C26.7501 61.9908 26.6211 62.0295 26.4406 62.0295H25.9764C25.6927 62.0295 25.5638 61.9006 25.5638 61.6685V58.2127H27.7301V57.31H24.6998V55.4661H27.2788V54.5764H24.6998V52.9258H23.7972ZM30.928 55.1308V61.2558C30.3864 61.4106 29.8319 61.5524 29.2517 61.6942L29.5224 62.6098C31.0182 62.21 32.3335 61.7716 33.4682 61.2945V60.3661C32.9653 60.5724 32.4367 60.7658 31.8822 60.9592V55.1308H33.378V54.2282H29.3935V55.1308H30.928ZM33.868 53.519V54.4216H37.0143C36.9498 54.8987 36.8596 55.3629 36.7306 55.8014H34.4611V61.8619H35.3509V56.6524H39.4901V61.8619H40.3927V55.8014H37.659C37.7622 55.3629 37.8524 54.9116 37.9298 54.4216H41.0117V53.519H33.868ZM38.4714 61.8877L37.8524 62.4808C38.9614 63.3319 39.8382 64.1314 40.483 64.8792L41.1535 64.2087C40.4314 63.435 39.5288 62.6614 38.4714 61.8877ZM36.8982 57.4777V59.6956C36.8596 60.8174 36.563 61.7329 36.0214 62.4292C35.4282 63.0998 34.3709 63.6414 32.8751 64.0411L33.378 64.8406C34.9253 64.4021 36.0343 63.7961 36.7177 63.0353C37.414 62.1971 37.7751 61.0882 37.8267 59.6956V57.4777H36.8982ZM42.2238 58.3029V59.2314H53.8161V58.3029H42.2238Z" fill="#337EFF"/>
<path d="M17.4143 82.6464L16.7824 83.2525C17.698 83.9746 18.4201 84.658 18.9488 85.3027L19.5935 84.658C19.0003 83.9875 18.2782 83.3169 17.4143 82.6464ZM24.9061 94.0325H27.8977L28.1298 93.104C27.7817 93.1298 27.2917 93.1427 26.6727 93.1556C26.028 93.1685 25.3961 93.1814 24.7772 93.1814C23.7714 93.1814 22.9203 93.1685 22.2498 93.1556C21.4761 93.1298 20.8959 93.0267 20.4961 92.8462C20.1351 92.6785 19.7998 92.4077 19.4903 92.0338C19.3872 91.9177 19.284 91.8146 19.1809 91.7372V86.9146H16.4859V87.7656H18.3169V91.6856C17.7753 91.9177 17.1693 92.5883 16.473 93.6843L17.1693 94.3162C17.8914 93.104 18.4072 92.5109 18.7296 92.5109C18.8843 92.5109 19.0519 92.614 19.2324 92.8333C19.6322 93.2975 20.0835 93.6198 20.5864 93.7746C21.1022 93.9164 21.7856 93.9938 22.6109 94.0067C23.4361 94.0196 24.2098 94.0325 24.9061 94.0325ZM23.7972 82.4014V84.0519H22.0951C22.2498 83.6393 22.3917 83.2138 22.5206 82.7625L21.6309 82.5819C21.3214 83.7425 20.8185 84.8127 20.1222 85.7798L20.9346 86.2827C21.2182 85.8701 21.4761 85.4317 21.7082 84.9417H23.7972V86.7856H20.4446V87.6883H22.5206C22.4819 88.4877 22.353 89.184 22.1338 89.7514C21.7985 90.5251 21.1151 91.1698 20.0706 91.6856L20.6767 92.4206C21.8888 91.7888 22.6753 90.9764 23.0106 89.9964C23.2298 89.3517 23.3588 88.578 23.3974 87.6883H24.6998V91.3504C24.6998 91.634 24.7772 91.8662 24.9577 92.0467C25.1253 92.2272 25.3703 92.3175 25.7056 92.3175H26.634C27.0724 92.3046 27.3819 92.2014 27.5624 92.0209C27.7559 91.8146 27.8977 91.1827 27.9751 90.1125L27.1627 89.8417C27.1111 90.7572 27.008 91.273 26.8532 91.389C26.7501 91.4664 26.6211 91.5051 26.4406 91.5051H25.9764C25.6927 91.5051 25.5638 91.3762 25.5638 91.144V87.6883H27.7301V86.7856H24.6998V84.9417H27.2788V84.0519H24.6998V82.4014H23.7972ZM30.928 84.6064V90.7314C30.3864 90.8862 29.8319 91.028 29.2517 91.1698L29.5224 92.0854C31.0182 91.6856 32.3335 91.2472 33.4682 90.7701V89.8417C32.9653 90.048 32.4367 90.2414 31.8822 90.4348V84.6064H33.378V83.7038H29.3935V84.6064H30.928ZM33.868 82.9946V83.8972H37.0143C36.9498 84.3743 36.8596 84.8385 36.7306 85.2769H34.4611V91.3375H35.3509V86.128H39.4901V91.3375H40.3927V85.2769H37.659C37.7622 84.8385 37.8524 84.3872 37.9298 83.8972H41.0117V82.9946H33.868ZM38.4714 91.3633L37.8524 91.9564C38.9614 92.8075 39.8382 93.6069 40.483 94.3548L41.1535 93.6843C40.4314 92.9106 39.5288 92.1369 38.4714 91.3633ZM36.8982 86.9533V89.1711C36.8596 90.293 36.563 91.2085 36.0214 91.9048C35.4282 92.5754 34.3709 93.1169 32.8751 93.5167L33.378 94.3162C34.9253 93.8777 36.0343 93.2717 36.7177 92.5109C37.414 91.6727 37.7751 90.5638 37.8267 89.1711V86.9533H36.8982ZM43.4488 83.8714V84.7869H52.604V83.8714H43.4488ZM42.2624 91.9822V92.9235H53.7774V91.9822H42.2624Z" fill="#333333"/>
<path d="M17.4143 112.12L16.7824 112.726C17.698 113.448 18.4201 114.132 18.9488 114.776L19.5935 114.132C19.0003 113.461 18.2782 112.791 17.4143 112.12ZM24.9061 123.506H27.8977L28.1298 122.578C27.7817 122.603 27.2917 122.616 26.6727 122.629C26.028 122.642 25.3961 122.655 24.7772 122.655C23.7714 122.655 22.9203 122.642 22.2498 122.629C21.4761 122.603 20.8959 122.5 20.4961 122.32C20.1351 122.152 19.7998 121.881 19.4903 121.507C19.3872 121.391 19.284 121.288 19.1809 121.211V116.388H16.4859V117.239H18.3169V121.159C17.7753 121.391 17.1693 122.062 16.473 123.158L17.1693 123.79C17.8914 122.578 18.4072 121.985 18.7296 121.985C18.8843 121.985 19.0519 122.088 19.2324 122.307C19.6322 122.771 20.0835 123.093 20.5864 123.248C21.1022 123.39 21.7856 123.467 22.6109 123.48C23.4361 123.493 24.2098 123.506 24.9061 123.506ZM23.7972 111.875V113.526H22.0951C22.2498 113.113 22.3917 112.687 22.5206 112.236L21.6309 112.056C21.3214 113.216 20.8185 114.286 20.1222 115.253L20.9346 115.756C21.2182 115.344 21.4761 114.905 21.7082 114.415H23.7972V116.259H20.4446V117.162H22.5206C22.4819 117.961 22.353 118.658 22.1338 119.225C21.7985 119.999 21.1151 120.643 20.0706 121.159L20.6767 121.894C21.8888 121.262 22.6753 120.45 23.0106 119.47C23.2298 118.825 23.3588 118.052 23.3974 117.162H24.6998V120.824C24.6998 121.108 24.7772 121.34 24.9577 121.52C25.1253 121.701 25.3703 121.791 25.7056 121.791H26.634C27.0724 121.778 27.3819 121.675 27.5624 121.495C27.7559 121.288 27.8977 120.656 27.9751 119.586L27.1627 119.315C27.1111 120.231 27.008 120.747 26.8532 120.863C26.7501 120.94 26.6211 120.979 26.4406 120.979H25.9764C25.6927 120.979 25.5638 120.85 25.5638 120.618V117.162H27.7301V116.259H24.6998V114.415H27.2788V113.526H24.6998V111.875H23.7972ZM30.928 114.08V120.205C30.3864 120.36 29.8319 120.502 29.2517 120.643L29.5224 121.559C31.0182 121.159 32.3335 120.721 33.4682 120.244V119.315C32.9653 119.522 32.4367 119.715 31.8822 119.908V114.08H33.378V113.177H29.3935V114.08H30.928ZM33.868 112.468V113.371H37.0143C36.9498 113.848 36.8596 114.312 36.7306 114.751H34.4611V120.811H35.3509V115.602H39.4901V120.811H40.3927V114.751H37.659C37.7622 114.312 37.8524 113.861 37.9298 113.371H41.0117V112.468H33.868ZM38.4714 120.837L37.8524 121.43C38.9614 122.281 39.8382 123.081 40.483 123.828L41.1535 123.158C40.4314 122.384 39.5288 121.611 38.4714 120.837ZM36.8982 116.427V118.645C36.8596 119.767 36.563 120.682 36.0214 121.378C35.4282 122.049 34.3709 122.591 32.8751 122.99L33.378 123.79C34.9253 123.351 36.0343 122.745 36.7177 121.985C37.414 121.146 37.7751 120.037 37.8267 118.645V116.427H36.8982ZM43.1651 112.894V113.796H52.9135V112.894H43.1651ZM44.029 117.355V118.258H52.0367V117.355H44.029ZM42.2109 122.126V123.055H53.8419V122.126H42.2109Z" fill="#333333"/>
<rect x="4.27629" y="36.3815" width="111.447" height="104.079" rx="4.14474" stroke="#E5E5E5" stroke-width="0.921053"/>
</g>
<defs>
<filter id="filter0_d_31739_156001" x="0.131463" y="32.2367" width="119.737" height="112.368" filterUnits="userSpaceOnUse" color-interpolation-filters="sRGB">
<feFlood flood-opacity="0" result="BackgroundImageFix"/>
<feColorMatrix in="SourceAlpha" type="matrix" values="0 0 0 0 0 0 0 0 0 0 0 0 0 0 0 0 0 0 127 0" result="hardAlpha"/>
<feOffset/>
<feGaussianBlur stdDeviation="1.84211"/>
<feColorMatrix type="matrix" values="0 0 0 0 0 0 0 0 0 0 0 0 0 0 0 0 0 0 0.1 0"/>
<feBlend mode="normal" in2="BackgroundImageFix" result="effect1_dropShadow_31739_156001"/>
<feBlend mode="normal" in="SourceGraphic" in2="effect1_dropShadow_31739_156001" result="shape"/>
</filter>
</defs>
</svg>
