<svg width="125" height="148" viewBox="0 0 125 148" fill="none" xmlns="http://www.w3.org/2000/svg">
<path d="M21.77 10.304V11.298H27.118V22.428H28.14V14.476C29.4 15.148 30.968 16.1 32.83 17.332L33.432 16.436C31.64 15.288 29.876 14.28 28.14 13.412V11.298H34.216V10.304H21.77ZM40.656 11.816V12.782H48.048V11.816H44.884C44.688 10.976 44.464 10.22 44.226 9.562L43.204 9.73C43.456 10.374 43.694 11.06 43.89 11.816H40.656ZM40.292 20.832V21.812H48.37V20.832H45.626C46.27 18.816 46.816 16.52 47.264 13.944L46.298 13.692C45.808 16.548 45.248 18.928 44.604 20.832H40.292ZM42.266 13.846L41.342 14.14C41.804 16.072 42.196 18.074 42.504 20.146L43.442 19.908C43.106 17.626 42.714 15.61 42.266 13.846ZM40.32 15.092C39.788 15.386 39.256 15.666 38.71 15.918V13.104H40.264V12.138H38.71V9.604H37.688V12.138H35.77V13.104H37.688V16.338C37.002 16.59 36.288 16.814 35.56 16.996L35.812 18.004C36.442 17.808 37.072 17.584 37.688 17.346V20.776C37.688 21.168 37.492 21.364 37.114 21.364C36.75 21.364 36.372 21.336 35.98 21.308L36.204 22.288H37.464C38.29 22.288 38.71 21.868 38.71 21.028V16.912C39.256 16.66 39.788 16.394 40.32 16.114V15.092ZM49.924 10.486V11.382H53.144V12.418H54.124V11.382H57.876V12.348H58.856V11.382H62.034V10.486H58.856V9.562H57.876V10.486H54.124V9.576H53.144V10.486H49.924ZM59.85 14C59.388 14.826 58.842 15.54 58.212 16.142L58.954 16.688C59.626 16.044 60.2 15.274 60.69 14.406L59.85 14ZM55.916 14.322L55.076 14.588C55.342 15.12 55.566 15.694 55.748 16.282L56.644 16.058C56.434 15.4 56.196 14.826 55.916 14.322ZM52.318 14.504L51.464 14.784C51.828 15.414 52.178 16.142 52.486 16.954L53.312 16.59C53.032 15.848 52.696 15.148 52.318 14.504ZM60.62 12.446C57.988 12.852 54.684 13.062 50.708 13.062L51.016 14C55.216 14 58.576 13.748 61.11 13.272L60.62 12.446ZM50.134 17.528V18.466H54.53C53.494 19.544 51.898 20.44 49.714 21.14L50.274 22.078C52.64 21.126 54.348 19.922 55.412 18.466H55.51V22.4H56.49V18.466H56.588C57.568 19.782 59.262 20.986 61.642 22.078L62.328 21.196C60.088 20.398 58.464 19.488 57.456 18.466H61.866V17.528H56.49V16.632H55.51V17.528H50.134ZM65.114 11.746V17.5H69.496V18.83H63.784V19.782H69.496V22.442H70.504V19.782H76.216V18.83H70.504V17.5H74.886V11.746H72.198C72.618 11.172 72.996 10.528 73.332 9.814L72.352 9.464C72.002 10.276 71.596 11.046 71.148 11.746H65.114ZM73.906 16.604H70.504V15.036H73.906V16.604ZM69.496 16.604H66.094V15.036H69.496V16.604ZM66.094 14.168V12.628H69.496V14.168H66.094ZM70.504 12.628H73.906V14.168H70.504V12.628ZM67.592 9.534L66.738 9.94C67.214 10.472 67.648 11.06 68.068 11.732L68.908 11.312C68.488 10.668 68.054 10.066 67.592 9.534Z" fill="#337EFF"/>
<path d="M4 4C4 1.23858 6.23858 -1 9 -1H93V1H9C7.34315 1 6 2.34315 6 4H4ZM93 33H9C6.23858 33 4 30.7614 4 28H6C6 29.6569 7.34315 31 9 31H93V33ZM9 33C6.23858 33 4 30.7614 4 28V4C4 1.23858 6.23858 -1 9 -1V1C7.34315 1 6 2.34315 6 4V28C6 29.6569 7.34315 31 9 31V33ZM93 0V32V0Z" fill="#337EFF" mask="url(#path-1-inside-1_32458_182768)"/>
<path d="M112.6 16.2C112.6 15.5373 113.137 15 113.8 15C114.463 15 115 15.5373 115 16.2C115 16.8627 114.463 17.4 113.8 17.4C113.137 17.4 112.6 16.8627 112.6 16.2Z" fill="#337EFF"/>
<path d="M107.8 16.2C107.8 15.5373 108.337 15 109 15C109.663 15 110.2 15.5373 110.2 16.2C110.2 16.8627 109.663 17.4 109 17.4C108.337 17.4 107.8 16.8627 107.8 16.2Z" fill="#337EFF"/>
<path d="M104.2 15C103.537 15 103 15.5373 103 16.2C103 16.8627 103.537 17.4 104.2 17.4C104.863 17.4 105.4 16.8627 105.4 16.2C105.4 15.5373 104.863 15 104.2 15Z" fill="#337EFF"/>
<path d="M121 0.5H93.5V31.5H121C122.933 31.5 124.5 29.933 124.5 28V4C124.5 2.067 122.933 0.5 121 0.5Z" stroke="#337EFF"/>
<g filter="url(#filter0_d_32458_182768)">
<rect x="5" y="39.3684" width="110.526" height="103.158" rx="3.68421" fill="white"/>
<path d="M17.6776 55.6971L17.0458 56.3032C17.9613 57.0253 18.6834 57.7087 19.2121 58.3535L19.8569 57.7087C19.2637 57.0382 18.5416 56.3677 17.6776 55.6971ZM25.1695 67.0832H28.1611L28.3932 66.1548C28.045 66.1806 27.555 66.1935 26.9361 66.2064C26.2913 66.2193 25.6595 66.2322 25.0405 66.2322C24.0347 66.2322 23.1837 66.2193 22.5132 66.2064C21.7395 66.1806 21.1592 66.0774 20.7595 65.8969C20.3984 65.7293 20.0632 65.4585 19.7537 65.0845C19.6505 64.9685 19.5474 64.8653 19.4442 64.7879V59.9653H16.7492V60.8164H18.5803V64.7364C18.0387 64.9685 17.4326 65.639 16.7363 66.735L17.4326 67.3669C18.1547 66.1548 18.6705 65.5616 18.9929 65.5616C19.1476 65.5616 19.3153 65.6648 19.4958 65.884C19.8955 66.3482 20.3469 66.6706 20.8497 66.8253C21.3655 66.9672 22.049 67.0445 22.8742 67.0574C23.6995 67.0703 24.4732 67.0832 25.1695 67.0832ZM24.0605 55.4521V57.1027H22.3584C22.5132 56.69 22.655 56.2645 22.784 55.8132L21.8942 55.6327C21.5847 56.7932 21.0819 57.8635 20.3855 58.8306L21.1979 59.3335C21.4816 58.9208 21.7395 58.4824 21.9716 57.9924H24.0605V59.8364H20.7079V60.739H22.784C22.7453 61.5385 22.6163 62.2348 22.3971 62.8021C22.0619 63.5758 21.3784 64.2206 20.334 64.7364L20.94 65.4714C22.1521 64.8395 22.9387 64.0271 23.274 63.0471C23.4932 62.4024 23.6221 61.6287 23.6608 60.739H24.9632V64.4011C24.9632 64.6848 25.0405 64.9169 25.2211 65.0974C25.3887 65.2779 25.6337 65.3682 25.969 65.3682H26.8974C27.3358 65.3553 27.6453 65.2522 27.8258 65.0716C28.0192 64.8653 28.1611 64.2335 28.2384 63.1632L27.4261 62.8924C27.3745 63.8079 27.2713 64.3237 27.1166 64.4398C27.0134 64.5171 26.8845 64.5558 26.704 64.5558H26.2397C25.9561 64.5558 25.8271 64.4269 25.8271 64.1948V60.739H27.9934V59.8364H24.9632V57.9924H27.5421V57.1027H24.9632V55.4521H24.0605Z" fill="#337EFF"/>
<path d="M31.1913 57.6571V63.7821C30.6497 63.9369 30.0953 64.0787 29.515 64.2206L29.7858 65.1361C31.2816 64.7364 32.5969 64.2979 33.7316 63.8208V62.8924C33.2287 63.0987 32.7 63.2921 32.1455 63.4856V57.6571H33.6413V56.7545H29.6569V57.6571H31.1913ZM34.1313 56.0453V56.9479H37.2776C37.2132 57.425 37.1229 57.8893 36.994 58.3277H34.7245V64.3882H35.6142V59.1787H39.7534V64.3882H40.6561V58.3277H37.9224C38.0255 57.8893 38.1158 57.4379 38.1932 56.9479H41.275V56.0453H34.1313ZM38.7347 64.414L38.1158 65.0071C39.2248 65.8582 40.1016 66.6577 40.7463 67.4056L41.4169 66.735C40.6947 65.9614 39.7921 65.1877 38.7347 64.414ZM37.1616 60.004V62.2219C37.1229 63.3437 36.8263 64.2593 36.2847 64.9556C35.6916 65.6261 34.6342 66.1677 33.1384 66.5674L33.6413 67.3669C35.1887 66.9285 36.2976 66.3224 36.9811 65.5616C37.6774 64.7235 38.0384 63.6145 38.09 62.2219V60.004H37.1616Z" fill="#337EFF"/>
<path d="M42.4871 60.8293V61.7577H54.0795V60.8293H42.4871Z" fill="#337EFF"/>
<path d="M17.6776 85.1727L17.0458 85.7788C17.9613 86.5009 18.6834 87.1843 19.2121 87.8291L19.8569 87.1843C19.2637 86.5138 18.5416 85.8433 17.6776 85.1727ZM25.1695 96.5588H28.1611L28.3932 95.6304C28.045 95.6562 27.555 95.6691 26.9361 95.6819C26.2913 95.6948 25.6595 95.7077 25.0405 95.7077C24.0347 95.7077 23.1837 95.6948 22.5132 95.6819C21.7395 95.6562 21.1592 95.553 20.7595 95.3725C20.3984 95.2048 20.0632 94.9341 19.7537 94.5601C19.6505 94.4441 19.5474 94.3409 19.4442 94.2635V89.4409H16.7492V90.2919H18.5803V94.2119C18.0387 94.4441 17.4326 95.1146 16.7363 96.2106L17.4326 96.8425C18.1547 95.6304 18.6705 95.0372 18.9929 95.0372C19.1476 95.0372 19.3153 95.1404 19.4958 95.3596C19.8955 95.8238 20.3469 96.1462 20.8497 96.3009C21.3655 96.4427 22.049 96.5201 22.8742 96.533C23.6995 96.5459 24.4732 96.5588 25.1695 96.5588ZM24.0605 84.9277V86.5783H22.3584C22.5132 86.1656 22.655 85.7401 22.784 85.2888L21.8942 85.1083C21.5847 86.2688 21.0819 87.3391 20.3855 88.3062L21.1979 88.8091C21.4816 88.3964 21.7395 87.958 21.9716 87.468H24.0605V89.3119H20.7079V90.2146H22.784C22.7453 91.0141 22.6163 91.7104 22.3971 92.2777C22.0619 93.0514 21.3784 93.6962 20.334 94.2119L20.94 94.9469C22.1521 94.3151 22.9387 93.5027 23.274 92.5227C23.4932 91.878 23.6221 91.1043 23.6608 90.2146H24.9632V93.8767C24.9632 94.1604 25.0405 94.3925 25.2211 94.573C25.3887 94.7535 25.6337 94.8438 25.969 94.8438H26.8974C27.3358 94.8309 27.6453 94.7277 27.8258 94.5472C28.0192 94.3409 28.1611 93.7091 28.2384 92.6388L27.4261 92.368C27.3745 93.2835 27.2713 93.7993 27.1166 93.9154C27.0134 93.9927 26.8845 94.0314 26.704 94.0314H26.2397C25.9561 94.0314 25.8271 93.9025 25.8271 93.6704V90.2146H27.9934V89.3119H24.9632V87.468H27.5421V86.5783H24.9632V84.9277H24.0605Z" fill="#333333"/>
<path d="M31.1913 87.1327V93.2577C30.6497 93.4125 30.0953 93.5543 29.515 93.6962L29.7858 94.6117C31.2816 94.2119 32.5969 93.7735 33.7316 93.2964V92.368C33.2287 92.5743 32.7 92.7677 32.1455 92.9612V87.1327H33.6413V86.2301H29.6569V87.1327H31.1913ZM34.1313 85.5209V86.4235H37.2776C37.2132 86.9006 37.1229 87.3648 36.994 87.8033H34.7245V93.8638H35.6142V88.6543H39.7534V93.8638H40.6561V87.8033H37.9224C38.0255 87.3648 38.1158 86.9135 38.1932 86.4235H41.275V85.5209H34.1313ZM38.7347 93.8896L38.1158 94.4827C39.2248 95.3338 40.1016 96.1333 40.7463 96.8812L41.4169 96.2106C40.6947 95.4369 39.7921 94.6633 38.7347 93.8896ZM37.1616 89.4796V91.6975C37.1229 92.8193 36.8263 93.7348 36.2847 94.4312C35.6916 95.1017 34.6342 95.6433 33.1384 96.043L33.6413 96.8425C35.1887 96.4041 36.2976 95.798 36.9811 95.0372C37.6774 94.1991 38.0384 93.0901 38.09 91.6975V89.4796H37.1616Z" fill="#333333"/>
<path d="M43.7121 86.3977V87.3133H52.8674V86.3977H43.7121ZM42.5258 94.5085V95.4498H54.0408V94.5085H42.5258Z" fill="#333333"/>
<path d="M17.6776 114.646L17.0458 115.252C17.9613 115.975 18.6834 116.658 19.2121 117.303L19.8569 116.658C19.2637 115.987 18.5416 115.317 17.6776 114.646ZM25.1695 126.032H28.1611L28.3932 125.104C28.045 125.13 27.555 125.143 26.9361 125.156C26.2913 125.168 25.6595 125.181 25.0405 125.181C24.0347 125.181 23.1837 125.168 22.5132 125.156C21.7395 125.13 21.1592 125.027 20.7595 124.846C20.3984 124.678 20.0632 124.408 19.7537 124.034C19.6505 123.918 19.5474 123.815 19.4442 123.737V118.915H16.7492V119.766H18.5803V123.686C18.0387 123.918 17.4326 124.588 16.7363 125.684L17.4326 126.316C18.1547 125.104 18.6705 124.511 18.9929 124.511C19.1476 124.511 19.3153 124.614 19.4958 124.833C19.8955 125.297 20.3469 125.62 20.8497 125.775C21.3655 125.916 22.049 125.994 22.8742 126.007C23.6995 126.02 24.4732 126.032 25.1695 126.032ZM24.0605 114.401V116.052H22.3584C22.5132 115.639 22.655 115.214 22.784 114.762L21.8942 114.582C21.5847 115.742 21.0819 116.813 20.3855 117.78L21.1979 118.283C21.4816 117.87 21.7395 117.432 21.9716 116.942H24.0605V118.786H20.7079V119.688H22.784C22.7453 120.488 22.6163 121.184 22.3971 121.751C22.0619 122.525 21.3784 123.17 20.334 123.686L20.94 124.421C22.1521 123.789 22.9387 122.976 23.274 121.996C23.4932 121.352 23.6221 120.578 23.6608 119.688H24.9632V123.35C24.9632 123.634 25.0405 123.866 25.2211 124.047C25.3887 124.227 25.6337 124.317 25.969 124.317H26.8974C27.3358 124.305 27.6453 124.201 27.8258 124.021C28.0192 123.815 28.1611 123.183 28.2384 122.112L27.4261 121.842C27.3745 122.757 27.2713 123.273 27.1166 123.389C27.0134 123.466 26.8845 123.505 26.704 123.505H26.2397C25.9561 123.505 25.8271 123.376 25.8271 123.144V119.688H27.9934V118.786H24.9632V116.942H27.5421V116.052H24.9632V114.401H24.0605Z" fill="#333333"/>
<path d="M31.1913 116.606V122.731C30.6497 122.886 30.0953 123.028 29.515 123.17L29.7858 124.085C31.2816 123.686 32.5969 123.247 33.7316 122.77V121.842C33.2287 122.048 32.7 122.241 32.1455 122.435V116.606H33.6413V115.704H29.6569V116.606H31.1913ZM34.1313 114.995V115.897H37.2776C37.2132 116.374 37.1229 116.838 36.994 117.277H34.7245V123.337H35.6142V118.128H39.7534V123.337H40.6561V117.277H37.9224C38.0255 116.838 38.1158 116.387 38.1932 115.897H41.275V114.995H34.1313ZM38.7347 123.363L38.1158 123.956C39.2248 124.807 40.1016 125.607 40.7463 126.355L41.4169 125.684C40.6947 124.911 39.7921 124.137 38.7347 123.363ZM37.1616 118.953V121.171C37.1229 122.293 36.8263 123.208 36.2847 123.905C35.6916 124.575 34.6342 125.117 33.1384 125.517L33.6413 126.316C35.1887 125.878 36.2976 125.272 36.9811 124.511C37.6774 123.673 38.0384 122.564 38.09 121.171V118.953H37.1616Z" fill="#333333"/>
<path d="M43.4284 115.42V116.323H53.1769V115.42H43.4284ZM44.2924 119.882V120.784H52.3V119.882H44.2924ZM42.4742 124.653V125.581H54.1053V124.653H42.4742Z" fill="#333333"/>
<rect x="4.53947" y="38.9079" width="111.447" height="104.079" rx="4.14474" stroke="#E5E5E5" stroke-width="0.921053"/>
</g>
<defs>
<filter id="filter0_d_32458_182768" x="0.394891" y="34.7631" width="119.737" height="112.368" filterUnits="userSpaceOnUse" color-interpolation-filters="sRGB">
<feFlood flood-opacity="0" result="BackgroundImageFix"/>
<feColorMatrix in="SourceAlpha" type="matrix" values="0 0 0 0 0 0 0 0 0 0 0 0 0 0 0 0 0 0 127 0" result="hardAlpha"/>
<feOffset/>
<feGaussianBlur stdDeviation="1.84211"/>
<feColorMatrix type="matrix" values="0 0 0 0 0 0 0 0 0 0 0 0 0 0 0 0 0 0 0.1 0"/>
<feBlend mode="normal" in2="BackgroundImageFix" result="effect1_dropShadow_32458_182768"/>
<feBlend mode="normal" in="SourceGraphic" in2="effect1_dropShadow_32458_182768" result="shape"/>
</filter>
</defs>
</svg>
