<svg width="164" height="90" viewBox="0 0 164 90" fill="none" xmlns="http://www.w3.org/2000/svg">
<path d="M0.702728 49.8263C0.702728 48.278 1.95783 47.0229 3.50608 47.0229H77.0942C78.6424 47.0229 79.8975 48.278 79.8975 49.8263V86.2699C79.8975 87.8182 78.6424 89.0733 77.0942 89.0733H3.50608C1.95783 89.0733 0.702728 87.8182 0.702728 86.2699V49.8263Z" fill="white"/>
<line x1="9.11276" y1="75.3015" x2="72.1883" y2="75.3015" stroke="#E5E5E5" stroke-width="0.350419" stroke-dasharray="1.4 1.4"/>
<line x1="9.11276" y1="66.1205" x2="72.1883" y2="66.1205" stroke="#E5E5E5" stroke-width="0.350419" stroke-dasharray="1.4 1.4"/>
<line x1="9.11276" y1="56.3088" x2="72.1883" y2="56.3088" stroke="#E5E5E5" stroke-width="0.350419" stroke-dasharray="1.4 1.4"/>
<rect x="28.0355" y="81.3641" width="24.5294" height="3.50419" rx="0.700839" fill="#F5F5F5"/>
<path d="M12.617 66.6465C21.0871 64.5816 24.7168 70.0944 32.2914 69.8159C44.9003 69.3523 45.5793 48.8929 57.9743 60.2215C62.6526 64.4973 67.2297 64.4333 68.6841 64.0895" stroke="#B0C2F5" stroke-width="0.700839" stroke-linecap="round"/>
<path d="M12.617 70.7838C20.5254 72.0615 21.8238 54.8114 31.1486 55.4504C38.5209 55.9555 45.6136 69.1522 54.0476 68.8671C61.2247 68.6246 63.3725 58.1337 68.6841 58.9004" stroke="#CDDBFF" stroke-width="0.700839" stroke-linecap="round"/>
<circle cx="12.6169" cy="70.8515" r="1.05126" fill="#CDDBFF" stroke="white" stroke-width="0.700839"/>
<circle cx="12.6169" cy="66.6465" r="1.05126" fill="#B0C2F5" stroke="white" stroke-width="0.700839"/>
<circle cx="26.6338" cy="68.749" r="1.05126" fill="#B0C2F5" stroke="white" stroke-width="0.700839"/>
<circle cx="40.6505" cy="65.9456" r="1.05126" fill="#B0C2F5" stroke="white" stroke-width="0.700839"/>
<circle cx="40.6505" cy="61.7406" r="1.05126" fill="#B0C2F5" stroke="white" stroke-width="0.700839"/>
<circle cx="54.6673" cy="57.5355" r="1.05126" fill="#B0C2F5" stroke="white" stroke-width="0.700839"/>
<circle cx="68.6841" cy="63.8431" r="1.05126" fill="#B0C2F5" stroke="white" stroke-width="0.700839"/>
<circle cx="26.6338" cy="56.8347" r="1.05126" fill="#CDDBFF" stroke="white" stroke-width="0.700839"/>
<circle cx="40.6505" cy="61.0397" r="1.05126" fill="#CDDBFF" stroke="white" stroke-width="0.700839"/>
<circle cx="54.6673" cy="68.749" r="1.05126" fill="#CDDBFF" stroke="white" stroke-width="0.700839"/>
<circle cx="68.6841" cy="58.9372" r="1.05126" fill="#CDDBFF" stroke="white" stroke-width="0.700839"/>
<path d="M84.1026 49.8263C84.1026 48.278 85.3577 47.0229 86.9059 47.0229H160.494C162.042 47.0229 163.297 48.278 163.297 49.8263V86.2699C163.297 87.8182 162.042 89.0733 160.494 89.0733H86.9059C85.3577 89.0733 84.1026 87.8182 84.1026 86.2699V49.8263Z" fill="white"/>
<line x1="92.5126" y1="75.3015" x2="155.588" y2="75.3015" stroke="#E5E5E5" stroke-width="0.350419" stroke-dasharray="1.4 1.4"/>
<line x1="92.5126" y1="66.1206" x2="155.588" y2="66.1206" stroke="#E5E5E5" stroke-width="0.350419" stroke-dasharray="1.4 1.4"/>
<line x1="92.5126" y1="56.3088" x2="155.588" y2="56.3088" stroke="#E5E5E5" stroke-width="0.350419" stroke-dasharray="1.4 1.4"/>
<rect x="111.435" y="81.3641" width="24.5294" height="3.50419" rx="0.700839" fill="#F5F5F5"/>
<path d="M98.1193 55.5733C98.1193 54.7992 98.7468 54.1716 99.521 54.1716H102.324C103.098 54.1716 103.726 54.7992 103.726 55.5733V75.1968H98.1193V55.5733Z" fill="#E4E5F4"/>
<path d="M109.333 61.3201C109.333 60.546 109.96 59.9185 110.734 59.9185H113.538C114.312 59.9185 114.94 60.546 114.94 61.3201V75.3369H109.333V61.3201Z" fill="#E4E5F4"/>
<path d="M120.546 66.9269C120.546 66.1528 121.174 65.5252 121.948 65.5252H124.751C125.525 65.5252 126.153 66.1528 126.153 66.9269V75.337H120.546V66.9269Z" fill="#E4E5F4"/>
<path d="M131.76 71.1319C131.76 70.3578 132.387 69.7303 133.161 69.7303H135.965C136.739 69.7303 137.366 70.3578 137.366 71.1319V75.337H131.76V71.1319Z" fill="#E4E5F4"/>
<path d="M142.973 73.2344C142.973 72.4603 143.601 71.8328 144.375 71.8328H147.178C147.952 71.8328 148.58 72.4603 148.58 73.2344V75.337H142.973V73.2344Z" fill="#E4E5F4"/>
<path d="M0.702728 3.57092C0.702728 2.02267 1.95783 0.767563 3.50608 0.767563H77.0942C78.6424 0.767563 79.8975 2.02267 79.8975 3.57092V40.0145C79.8975 41.5628 78.6424 42.8179 77.0942 42.8179H3.50608C1.95783 42.8179 0.702728 41.5628 0.702728 40.0145V3.57092Z" fill="white"/>
<line x1="9.11276" y1="29.0461" x2="72.1883" y2="29.0462" stroke="#E5E5E5" stroke-width="0.350419" stroke-dasharray="1.4 1.4"/>
<line x1="9.11276" y1="19.8652" x2="72.1883" y2="19.8652" stroke="#E5E5E5" stroke-width="0.350419" stroke-dasharray="1.4 1.4"/>
<line x1="9.11276" y1="10.0534" x2="72.1883" y2="10.0534" stroke="#E5E5E5" stroke-width="0.350419" stroke-dasharray="1.4 1.4"/>
<rect x="28.0355" y="35.1087" width="24.5294" height="3.50419" rx="0.700839" fill="#F5F5F5"/>
<path d="M16.1219 18.7088C16.1219 18.3217 16.4356 18.0079 16.8227 18.0079H19.6261C20.0131 18.0079 20.3269 18.3217 20.3269 18.7088V29.2214H16.1219V18.7088Z" fill="#6583ED"/>
<path d="M46.9581 20.8113C46.9581 20.4242 47.2718 20.1104 47.6589 20.1104H50.4623C50.8493 20.1104 51.1631 20.4242 51.1631 20.8113V29.2213H46.9581V20.8113Z" fill="#6583ED"/>
<path d="M23.1296 8.89702C23.1296 8.50996 23.4434 8.19618 23.8304 8.19618H26.6338C27.0208 8.19618 27.3346 8.50996 27.3346 8.89702V29.2213H23.1296V8.89702Z" fill="#8CCAF2"/>
<path d="M53.9665 18.7088C53.9665 18.3217 54.2802 18.0079 54.6673 18.0079H57.4707C57.8577 18.0079 58.1715 18.3217 58.1715 18.7088V29.2214H53.9665V18.7088Z" fill="#8CCAF2"/>
<path d="M30.1386 15.9054C30.1386 15.5184 30.4524 15.2046 30.8395 15.2046H33.6428C34.0299 15.2046 34.3437 15.5184 34.3437 15.9054V29.2214H30.1386V15.9054Z" fill="#E5AA63"/>
<path d="M60.9749 23.6146C60.9749 23.2276 61.2886 22.9138 61.6757 22.9138H64.479C64.8661 22.9138 65.1799 23.2276 65.1799 23.6146V29.2214H60.9749V23.6146Z" fill="#E5AA63"/>
<path d="M84.1026 3.57092C84.1026 2.02267 85.3577 0.767563 86.9059 0.767563H160.494C162.042 0.767563 163.297 2.02267 163.297 3.57092V40.0145C163.297 41.5628 162.042 42.8179 160.494 42.8179H86.9059C85.3577 42.8179 84.1026 41.5628 84.1026 40.0145V3.57092Z" fill="white"/>
<rect x="111.435" y="35.1087" width="24.5294" height="3.50419" rx="0.700839" fill="#F5F5F5"/>
<path d="M107.931 7.77596C109.872 7.77596 111.769 8.3514 113.382 9.42953C114.996 10.5077 116.253 12.04 116.996 13.8329C117.739 15.6258 117.933 17.5986 117.554 19.5019C117.176 21.4052 116.241 23.1535 114.869 24.5257C113.497 25.8978 111.749 26.8323 109.845 27.2109C107.942 27.5895 105.969 27.3952 104.176 26.6526C102.383 25.9099 100.851 24.6523 99.7729 23.0388C98.6947 21.4253 98.1193 19.5283 98.1193 17.5877H102.114C102.114 18.7382 102.455 19.8628 103.094 20.8194C103.734 21.776 104.642 22.5216 105.705 22.9619C106.768 23.4022 107.937 23.5173 109.066 23.2929C110.194 23.0684 111.231 22.5144 112.044 21.7009C112.858 20.8874 113.412 19.8509 113.636 18.7225C113.861 17.5942 113.745 16.4246 113.305 15.3616C112.865 14.2987 112.119 13.3902 111.163 12.7511C110.206 12.1119 109.082 11.7707 107.931 11.7707V7.77596Z" fill="#E3EAFD"/>
<path d="M98.1193 17.5877C98.1193 15.9259 98.5414 14.2913 99.346 12.8372C100.151 11.3832 101.311 10.1573 102.719 9.2746L104.841 12.6592C104.006 13.1825 103.318 13.9093 102.841 14.7714C102.364 15.6334 102.114 16.6025 102.114 17.5877H98.1193Z" fill="#CDDBFF"/>
<path d="M102.424 9.4674C104.095 8.33365 106.076 7.74343 108.096 7.77734L108.029 11.7715C106.831 11.7514 105.657 12.1014 104.666 12.7735L102.424 9.4674Z" fill="#B0C2F5"/>
<rect x="125.452" y="10.5793" width="28.7344" height="3.50419" rx="0.700839" fill="#E4E5F4"/>
<rect x="125.452" y="16.1861" width="17.521" height="3.50419" rx="0.700839" fill="#E4E5F4"/>
<rect x="125.452" y="21.7928" width="6.30755" height="3.50419" rx="0.700839" fill="#E4E5F4"/>
</svg>
