<svg width="197" height="32" viewBox="0 0 197 32" fill="none" xmlns="http://www.w3.org/2000/svg">
<path d="M2 0.5H63.5V31.5H2C1.17157 31.5 0.5 30.8284 0.5 30V2C0.5 1.17157 1.17157 0.5 2 0.5Z" stroke="#6690E4"/>
<path d="M136.5 0.5H195C195.828 0.5 196.5 1.17157 196.5 2V30C196.5 30.8284 195.828 31.5 195 31.5H136.5V0.5Z" stroke="#6690E4"/>
<path d="M63.5 0.5H136.5V31.5H63.5V0.5Z" stroke="#6690E4"/>
<path d="M19.372 11.432L16 20H17.056L17.968 17.6H21.904L22.816 20H23.884L20.512 11.432H19.372ZM18.28 16.772L19.924 12.488H19.972L21.592 16.772H18.28ZM27.5947 13.628C26.6587 13.628 25.9747 14.024 25.5307 14.816V13.796H24.6307V22.376H25.5907V18.872C26.0707 19.736 26.7547 20.168 27.6427 20.168C28.5307 20.168 29.2147 19.832 29.7187 19.184C30.1747 18.584 30.4147 17.828 30.4147 16.916C30.4147 15.98 30.1747 15.224 29.7067 14.624C29.1907 13.952 28.4827 13.628 27.5947 13.628ZM27.4747 14.42C28.1347 14.42 28.6387 14.66 28.9867 15.164C29.2747 15.596 29.4307 16.184 29.4307 16.916C29.4307 17.66 29.2747 18.248 28.9627 18.68C28.6147 19.136 28.1107 19.376 27.4387 19.376C26.8627 19.376 26.4187 19.148 26.0827 18.716C25.7227 18.272 25.5547 17.696 25.5547 16.976V16.856C25.5547 16.16 25.7107 15.584 26.0227 15.152C26.3587 14.66 26.8507 14.42 27.4747 14.42ZM34.626 13.628C33.69 13.628 33.006 14.024 32.562 14.816V13.796H31.662V22.376H32.622V18.872C33.102 19.736 33.786 20.168 34.674 20.168C35.562 20.168 36.246 19.832 36.75 19.184C37.206 18.584 37.446 17.828 37.446 16.916C37.446 15.98 37.206 15.224 36.738 14.624C36.222 13.952 35.514 13.628 34.626 13.628ZM34.506 14.42C35.166 14.42 35.67 14.66 36.018 15.164C36.306 15.596 36.462 16.184 36.462 16.916C36.462 17.66 36.306 18.248 35.994 18.68C35.646 19.136 35.142 19.376 34.47 19.376C33.894 19.376 33.45 19.148 33.114 18.716C32.754 18.272 32.586 17.696 32.586 16.976V16.856C32.586 16.16 32.742 15.584 33.054 15.152C33.39 14.66 33.882 14.42 34.506 14.42ZM38.8852 11.264V20H39.8332V11.264H38.8852ZM44.0734 13.628C43.1734 13.628 42.4654 13.952 41.9374 14.6C41.4094 15.212 41.1574 15.98 41.1574 16.892C41.1574 17.9 41.4214 18.692 41.9734 19.292C42.5014 19.868 43.2214 20.168 44.1094 20.168C44.9134 20.168 45.5734 19.928 46.0894 19.472C46.5094 19.088 46.7854 18.608 46.9294 18.008H45.9694C45.8134 18.44 45.6094 18.764 45.3454 18.98C45.0334 19.232 44.6134 19.364 44.1094 19.364C43.5214 19.364 43.0534 19.172 42.7174 18.788C42.3814 18.404 42.2014 17.864 42.1534 17.168H47.0494C47.0254 16.088 46.7854 15.236 46.3294 14.636C45.8254 13.964 45.0694 13.628 44.0734 13.628ZM44.0974 14.432C45.2734 14.432 45.9334 15.092 46.0534 16.424H42.1774C42.2374 15.812 42.4294 15.332 42.7654 14.972C43.1014 14.612 43.5454 14.432 44.0974 14.432Z" fill="#666666"/>
<path d="M156.56 11.264C155.24 11.264 154.208 11.708 153.488 12.62C152.828 13.436 152.504 14.48 152.504 15.752C152.504 17.024 152.816 18.056 153.464 18.848C154.172 19.724 155.192 20.168 156.524 20.168C157.436 20.168 158.228 19.904 158.888 19.388C159.596 18.836 160.04 18.056 160.232 17.06H159.284C159.116 17.804 158.768 18.368 158.264 18.752C157.784 19.112 157.208 19.292 156.524 19.292C155.516 19.292 154.76 18.956 154.232 18.296C153.728 17.672 153.488 16.82 153.488 15.752C153.488 14.684 153.74 13.832 154.244 13.184C154.784 12.488 155.552 12.14 156.548 12.14C157.22 12.14 157.784 12.296 158.252 12.62C158.732 12.956 159.044 13.436 159.164 14.06H160.112C159.992 13.208 159.608 12.524 158.96 12.02C158.312 11.516 157.508 11.264 156.56 11.264ZM164.174 13.628C163.43 13.628 162.842 13.772 162.386 14.06C161.882 14.372 161.558 14.864 161.426 15.512L162.374 15.584C162.47 15.188 162.674 14.888 162.998 14.696C163.286 14.504 163.658 14.42 164.114 14.42C165.194 14.42 165.734 14.936 165.734 15.98V16.304L164.246 16.328C163.31 16.34 162.59 16.52 162.086 16.856C161.51 17.216 161.234 17.744 161.234 18.452C161.234 18.956 161.426 19.376 161.81 19.7C162.182 20.012 162.674 20.168 163.298 20.168C163.874 20.168 164.39 20.036 164.846 19.784C165.23 19.568 165.554 19.292 165.794 18.956V20H166.694V16.016C166.694 15.296 166.502 14.732 166.142 14.324C165.71 13.856 165.062 13.628 164.174 13.628ZM165.734 17.024V17.552C165.734 18.032 165.506 18.464 165.062 18.836C164.606 19.22 164.09 19.412 163.502 19.412C163.118 19.412 162.806 19.316 162.566 19.136C162.326 18.944 162.218 18.716 162.218 18.428C162.218 17.528 162.914 17.072 164.306 17.048L165.734 17.024ZM168.178 11.264V20H169.138V17.804L170.122 16.916L172.546 20H173.782L170.782 16.292L173.518 13.796H172.246L169.138 16.676V11.264H168.178ZM177.085 13.628C176.185 13.628 175.477 13.952 174.949 14.6C174.421 15.212 174.169 15.98 174.169 16.892C174.169 17.9 174.433 18.692 174.985 19.292C175.513 19.868 176.233 20.168 177.121 20.168C177.925 20.168 178.585 19.928 179.101 19.472C179.521 19.088 179.797 18.608 179.941 18.008H178.981C178.825 18.44 178.621 18.764 178.357 18.98C178.045 19.232 177.625 19.364 177.121 19.364C176.533 19.364 176.065 19.172 175.729 18.788C175.393 18.404 175.213 17.864 175.165 17.168H180.061C180.037 16.088 179.797 15.236 179.341 14.636C178.837 13.964 178.081 13.628 177.085 13.628ZM177.109 14.432C178.285 14.432 178.945 15.092 179.065 16.424H175.189C175.249 15.812 175.441 15.332 175.777 14.972C176.113 14.612 176.557 14.432 177.109 14.432Z" fill="#666666"/>
<path d="M79.864 11.432V20H83.668C84.544 20 85.24 19.82 85.744 19.484C86.332 19.076 86.632 18.452 86.632 17.612C86.632 17.036 86.464 16.58 86.152 16.22C85.84 15.86 85.408 15.62 84.844 15.524C85.276 15.38 85.624 15.152 85.888 14.84C86.14 14.492 86.272 14.072 86.272 13.592C86.272 12.92 86.044 12.392 85.588 12.008C85.12 11.624 84.484 11.432 83.692 11.432H79.864ZM80.848 12.26H83.464C84.064 12.26 84.52 12.368 84.832 12.608C85.144 12.848 85.3 13.208 85.3 13.688C85.3 14.18 85.132 14.552 84.82 14.804C84.508 15.044 84.052 15.176 83.452 15.176H80.848V12.26ZM80.848 15.992H83.584C84.244 15.992 84.748 16.112 85.096 16.376C85.456 16.64 85.648 17.048 85.648 17.6C85.648 18.152 85.432 18.572 85.012 18.836C84.652 19.052 84.184 19.172 83.584 19.172H80.848V15.992ZM90.5651 13.628C89.8211 13.628 89.2331 13.772 88.7771 14.06C88.2731 14.372 87.9491 14.864 87.8171 15.512L88.7651 15.584C88.8611 15.188 89.0651 14.888 89.3891 14.696C89.6771 14.504 90.0491 14.42 90.5051 14.42C91.5851 14.42 92.1251 14.936 92.1251 15.98V16.304L90.6371 16.328C89.7011 16.34 88.9811 16.52 88.4771 16.856C87.9011 17.216 87.6251 17.744 87.6251 18.452C87.6251 18.956 87.8171 19.376 88.2011 19.7C88.5731 20.012 89.0651 20.168 89.6891 20.168C90.2651 20.168 90.7811 20.036 91.2371 19.784C91.6211 19.568 91.9451 19.292 92.1851 18.956V20H93.0851V16.016C93.0851 15.296 92.8931 14.732 92.5331 14.324C92.1011 13.856 91.4531 13.628 90.5651 13.628ZM92.1251 17.024V17.552C92.1251 18.032 91.8971 18.464 91.4531 18.836C90.9971 19.22 90.4811 19.412 89.8931 19.412C89.5091 19.412 89.1971 19.316 88.9571 19.136C88.7171 18.944 88.6091 18.716 88.6091 18.428C88.6091 17.528 89.3051 17.072 90.6971 17.048L92.1251 17.024ZM97.4722 13.628C97.0642 13.628 96.6922 13.724 96.3562 13.916C96.0202 14.096 95.7442 14.36 95.5282 14.708V13.796H94.5682V20H95.5282V16.256C95.5642 15.692 95.7442 15.248 96.0802 14.912C96.3922 14.6 96.7642 14.444 97.1962 14.444C98.2762 14.444 98.8282 15.044 98.8282 16.256V20H99.7882V16.184C99.7882 14.48 99.0082 13.628 97.4722 13.628ZM103.971 13.628C103.227 13.628 102.639 13.772 102.183 14.06C101.679 14.372 101.355 14.864 101.223 15.512L102.171 15.584C102.267 15.188 102.471 14.888 102.795 14.696C103.083 14.504 103.455 14.42 103.911 14.42C104.991 14.42 105.531 14.936 105.531 15.98V16.304L104.043 16.328C103.107 16.34 102.387 16.52 101.883 16.856C101.307 17.216 101.031 17.744 101.031 18.452C101.031 18.956 101.223 19.376 101.607 19.7C101.979 20.012 102.471 20.168 103.095 20.168C103.671 20.168 104.187 20.036 104.643 19.784C105.027 19.568 105.351 19.292 105.591 18.956V20H106.491V16.016C106.491 15.296 106.299 14.732 105.939 14.324C105.507 13.856 104.859 13.628 103.971 13.628ZM105.531 17.024V17.552C105.531 18.032 105.303 18.464 104.859 18.836C104.403 19.22 103.887 19.412 103.299 19.412C102.915 19.412 102.603 19.316 102.363 19.136C102.123 18.944 102.015 18.716 102.015 18.428C102.015 17.528 102.711 17.072 104.103 17.048L105.531 17.024ZM110.878 13.628C110.47 13.628 110.098 13.724 109.762 13.916C109.426 14.096 109.15 14.36 108.934 14.708V13.796H107.974V20H108.934V16.256C108.97 15.692 109.15 15.248 109.486 14.912C109.798 14.6 110.17 14.444 110.602 14.444C111.682 14.444 112.234 15.044 112.234 16.256V20H113.194V16.184C113.194 14.48 112.414 13.628 110.878 13.628ZM117.378 13.628C116.634 13.628 116.046 13.772 115.59 14.06C115.086 14.372 114.762 14.864 114.63 15.512L115.578 15.584C115.674 15.188 115.878 14.888 116.202 14.696C116.49 14.504 116.862 14.42 117.318 14.42C118.398 14.42 118.938 14.936 118.938 15.98V16.304L117.45 16.328C116.514 16.34 115.794 16.52 115.29 16.856C114.714 17.216 114.438 17.744 114.438 18.452C114.438 18.956 114.63 19.376 115.014 19.7C115.386 20.012 115.878 20.168 116.502 20.168C117.078 20.168 117.594 20.036 118.05 19.784C118.434 19.568 118.758 19.292 118.998 18.956V20H119.898V16.016C119.898 15.296 119.706 14.732 119.346 14.324C118.914 13.856 118.266 13.628 117.378 13.628ZM118.938 17.024V17.552C118.938 18.032 118.71 18.464 118.266 18.836C117.81 19.22 117.294 19.412 116.706 19.412C116.322 19.412 116.01 19.316 115.77 19.136C115.53 18.944 115.422 18.716 115.422 18.428C115.422 17.528 116.118 17.072 117.51 17.048L118.938 17.024Z" fill="#666666"/>
</svg>
