<svg width="200" height="25" viewBox="0 0 200 25" fill="none" xmlns="http://www.w3.org/2000/svg">
<path d="M2 0.5H49.5V24.5H2C1.17157 24.5 0.5 23.8284 0.5 23V2C0.5 1.17157 1.17157 0.5 2 0.5Z" stroke="#6690E4"/>
<path d="M49.5 0.5H94C94.8284 0.5 95.5 1.17157 95.5 2V23C95.5 23.8284 94.8284 24.5 94 24.5H49.5V0.5Z" stroke="#6690E4"/>
<path d="M14.81 8.86L12 16H12.88L13.64 14H16.92L17.68 16H18.57L15.76 8.86H14.81ZM13.9 13.31L15.27 9.74H15.31L16.66 13.31H13.9ZM21.6623 10.69C20.8823 10.69 20.3123 11.02 19.9423 11.68V10.83H19.1923V17.98H19.9923V15.06C20.3923 15.78 20.9623 16.14 21.7023 16.14C22.4423 16.14 23.0123 15.86 23.4323 15.32C23.8123 14.82 24.0123 14.19 24.0123 13.43C24.0123 12.65 23.8123 12.02 23.4223 11.52C22.9923 10.96 22.4023 10.69 21.6623 10.69ZM21.5623 11.35C22.1123 11.35 22.5323 11.55 22.8223 11.97C23.0623 12.33 23.1923 12.82 23.1923 13.43C23.1923 14.05 23.0623 14.54 22.8023 14.9C22.5123 15.28 22.0923 15.48 21.5323 15.48C21.0523 15.48 20.6823 15.29 20.4023 14.93C20.1023 14.56 19.9623 14.08 19.9623 13.48V13.38C19.9623 12.8 20.0923 12.32 20.3523 11.96C20.6323 11.55 21.0423 11.35 21.5623 11.35ZM27.5216 10.69C26.7416 10.69 26.1716 11.02 25.8016 11.68V10.83H25.0516V17.98H25.8516V15.06C26.2516 15.78 26.8216 16.14 27.5616 16.14C28.3016 16.14 28.8716 15.86 29.2916 15.32C29.6716 14.82 29.8716 14.19 29.8716 13.43C29.8716 12.65 29.6716 12.02 29.2816 11.52C28.8516 10.96 28.2616 10.69 27.5216 10.69ZM27.4216 11.35C27.9716 11.35 28.3916 11.55 28.6816 11.97C28.9216 12.33 29.0516 12.82 29.0516 13.43C29.0516 14.05 28.9216 14.54 28.6616 14.9C28.3716 15.28 27.9516 15.48 27.3916 15.48C26.9116 15.48 26.5416 15.29 26.2616 14.93C25.9616 14.56 25.8216 14.08 25.8216 13.48V13.38C25.8216 12.8 25.9516 12.32 26.2116 11.96C26.4916 11.55 26.9016 11.35 27.4216 11.35ZM31.071 8.72V16H31.861V8.72H31.071ZM35.3945 10.69C34.6445 10.69 34.0545 10.96 33.6145 11.5C33.1745 12.01 32.9645 12.65 32.9645 13.41C32.9645 14.25 33.1845 14.91 33.6445 15.41C34.0845 15.89 34.6845 16.14 35.4245 16.14C36.0945 16.14 36.6445 15.94 37.0745 15.56C37.4245 15.24 37.6545 14.84 37.7745 14.34H36.9745C36.8445 14.7 36.6745 14.97 36.4545 15.15C36.1945 15.36 35.8445 15.47 35.4245 15.47C34.9345 15.47 34.5445 15.31 34.2645 14.99C33.9845 14.67 33.8345 14.22 33.7945 13.64H37.8745C37.8545 12.74 37.6545 12.03 37.2745 11.53C36.8545 10.97 36.2245 10.69 35.3945 10.69ZM35.4145 11.36C36.3945 11.36 36.9445 11.91 37.0445 13.02H33.8145C33.8645 12.51 34.0245 12.11 34.3045 11.81C34.5845 11.51 34.9545 11.36 35.4145 11.36Z" fill="#666666"/>
<path d="M64.8 8.72C63.7 8.72 62.84 9.09 62.24 9.85C61.69 10.53 61.42 11.4 61.42 12.46C61.42 13.52 61.68 14.38 62.22 15.04C62.81 15.77 63.66 16.14 64.77 16.14C65.53 16.14 66.19 15.92 66.74 15.49C67.33 15.03 67.7 14.38 67.86 13.55H67.07C66.93 14.17 66.64 14.64 66.22 14.96C65.82 15.26 65.34 15.41 64.77 15.41C63.93 15.41 63.3 15.13 62.86 14.58C62.44 14.06 62.24 13.35 62.24 12.46C62.24 11.57 62.45 10.86 62.87 10.32C63.32 9.74 63.96 9.45 64.79 9.45C65.35 9.45 65.82 9.58 66.21 9.85C66.61 10.13 66.87 10.53 66.97 11.05H67.76C67.66 10.34 67.34 9.77 66.8 9.35C66.26 8.93 65.59 8.72 64.8 8.72ZM71.1454 10.69C70.5254 10.69 70.0354 10.81 69.6554 11.05C69.2354 11.31 68.9654 11.72 68.8554 12.26L69.6454 12.32C69.7254 11.99 69.8954 11.74 70.1654 11.58C70.4054 11.42 70.7154 11.35 71.0954 11.35C71.9954 11.35 72.4454 11.78 72.4454 12.65V12.92L71.2054 12.94C70.4254 12.95 69.8254 13.1 69.4054 13.38C68.9254 13.68 68.6954 14.12 68.6954 14.71C68.6954 15.13 68.8554 15.48 69.1754 15.75C69.4854 16.01 69.8954 16.14 70.4154 16.14C70.8954 16.14 71.3254 16.03 71.7054 15.82C72.0254 15.64 72.2954 15.41 72.4954 15.13V16H73.2454V12.68C73.2454 12.08 73.0854 11.61 72.7854 11.27C72.4254 10.88 71.8854 10.69 71.1454 10.69ZM72.4454 13.52V13.96C72.4454 14.36 72.2554 14.72 71.8854 15.03C71.5054 15.35 71.0754 15.51 70.5854 15.51C70.2654 15.51 70.0054 15.43 69.8054 15.28C69.6054 15.12 69.5154 14.93 69.5154 14.69C69.5154 13.94 70.0954 13.56 71.2554 13.54L72.4454 13.52ZM74.4813 8.72V16H75.2813V14.17L76.1013 13.43L78.1213 16H79.1513L76.6513 12.91L78.9313 10.83H77.8713L75.2813 13.23V8.72H74.4813ZM81.9043 10.69C81.1543 10.69 80.5643 10.96 80.1243 11.5C79.6843 12.01 79.4743 12.65 79.4743 13.41C79.4743 14.25 79.6943 14.91 80.1543 15.41C80.5943 15.89 81.1943 16.14 81.9343 16.14C82.6043 16.14 83.1543 15.94 83.5843 15.56C83.9343 15.24 84.1643 14.84 84.2843 14.34H83.4843C83.3543 14.7 83.1843 14.97 82.9643 15.15C82.7043 15.36 82.3543 15.47 81.9343 15.47C81.4443 15.47 81.0543 15.31 80.7743 14.99C80.4943 14.67 80.3443 14.22 80.3043 13.64H84.3843C84.3643 12.74 84.1643 12.03 83.7843 11.53C83.3643 10.97 82.7343 10.69 81.9043 10.69ZM81.9243 11.36C82.9043 11.36 83.4543 11.91 83.5543 13.02H80.3243C80.3743 12.51 80.5343 12.11 80.8143 11.81C81.0943 11.51 81.4643 11.36 81.9243 11.36Z" fill="#666666"/>
<path d="M106 0.5H153.5V24.5H106C105.172 24.5 104.5 23.8284 104.5 23V2C104.5 1.17157 105.172 0.5 106 0.5Z" stroke="#6690E4"/>
<path d="M153.5 0.5H198C198.828 0.5 199.5 1.17157 199.5 2V23C199.5 23.8284 198.828 24.5 198 24.5H153.5V0.5Z" stroke="#6690E4"/>
<path d="M118.81 8.86L116 16H116.88L117.64 14H120.92L121.68 16H122.57L119.76 8.86H118.81ZM117.9 13.31L119.27 9.74H119.31L120.66 13.31H117.9ZM125.662 10.69C124.882 10.69 124.312 11.02 123.942 11.68V10.83H123.192V17.98H123.992V15.06C124.392 15.78 124.962 16.14 125.702 16.14C126.442 16.14 127.012 15.86 127.432 15.32C127.812 14.82 128.012 14.19 128.012 13.43C128.012 12.65 127.812 12.02 127.422 11.52C126.992 10.96 126.402 10.69 125.662 10.69ZM125.562 11.35C126.112 11.35 126.532 11.55 126.822 11.97C127.062 12.33 127.192 12.82 127.192 13.43C127.192 14.05 127.062 14.54 126.802 14.9C126.512 15.28 126.092 15.48 125.532 15.48C125.052 15.48 124.682 15.29 124.402 14.93C124.102 14.56 123.962 14.08 123.962 13.48V13.38C123.962 12.8 124.092 12.32 124.352 11.96C124.632 11.55 125.042 11.35 125.562 11.35ZM131.522 10.69C130.742 10.69 130.172 11.02 129.802 11.68V10.83H129.052V17.98H129.852V15.06C130.252 15.78 130.822 16.14 131.562 16.14C132.302 16.14 132.872 15.86 133.292 15.32C133.672 14.82 133.872 14.19 133.872 13.43C133.872 12.65 133.672 12.02 133.282 11.52C132.852 10.96 132.262 10.69 131.522 10.69ZM131.422 11.35C131.972 11.35 132.392 11.55 132.682 11.97C132.922 12.33 133.052 12.82 133.052 13.43C133.052 14.05 132.922 14.54 132.662 14.9C132.372 15.28 131.952 15.48 131.392 15.48C130.912 15.48 130.542 15.29 130.262 14.93C129.962 14.56 129.822 14.08 129.822 13.48V13.38C129.822 12.8 129.952 12.32 130.212 11.96C130.492 11.55 130.902 11.35 131.422 11.35ZM135.071 8.72V16H135.861V8.72H135.071ZM139.395 10.69C138.645 10.69 138.055 10.96 137.615 11.5C137.175 12.01 136.965 12.65 136.965 13.41C136.965 14.25 137.185 14.91 137.645 15.41C138.085 15.89 138.685 16.14 139.425 16.14C140.095 16.14 140.645 15.94 141.075 15.56C141.425 15.24 141.655 14.84 141.775 14.34H140.975C140.845 14.7 140.675 14.97 140.455 15.15C140.195 15.36 139.845 15.47 139.425 15.47C138.935 15.47 138.545 15.31 138.265 14.99C137.985 14.67 137.835 14.22 137.795 13.64H141.875C141.855 12.74 141.655 12.03 141.275 11.53C140.855 10.97 140.225 10.69 139.395 10.69ZM139.415 11.36C140.395 11.36 140.945 11.91 141.045 13.02H137.815C137.865 12.51 138.025 12.11 138.305 11.81C138.585 11.51 138.955 11.36 139.415 11.36Z" fill="#666666"/>
<path d="M168.8 8.72C167.7 8.72 166.84 9.09 166.24 9.85C165.69 10.53 165.42 11.4 165.42 12.46C165.42 13.52 165.68 14.38 166.22 15.04C166.81 15.77 167.66 16.14 168.77 16.14C169.53 16.14 170.19 15.92 170.74 15.49C171.33 15.03 171.7 14.38 171.86 13.55H171.07C170.93 14.17 170.64 14.64 170.22 14.96C169.82 15.26 169.34 15.41 168.77 15.41C167.93 15.41 167.3 15.13 166.86 14.58C166.44 14.06 166.24 13.35 166.24 12.46C166.24 11.57 166.45 10.86 166.87 10.32C167.32 9.74 167.96 9.45 168.79 9.45C169.35 9.45 169.82 9.58 170.21 9.85C170.61 10.13 170.87 10.53 170.97 11.05H171.76C171.66 10.34 171.34 9.77 170.8 9.35C170.26 8.93 169.59 8.72 168.8 8.72ZM175.145 10.69C174.525 10.69 174.035 10.81 173.655 11.05C173.235 11.31 172.965 11.72 172.855 12.26L173.645 12.32C173.725 11.99 173.895 11.74 174.165 11.58C174.405 11.42 174.715 11.35 175.095 11.35C175.995 11.35 176.445 11.78 176.445 12.65V12.92L175.205 12.94C174.425 12.95 173.825 13.1 173.405 13.38C172.925 13.68 172.695 14.12 172.695 14.71C172.695 15.13 172.855 15.48 173.175 15.75C173.485 16.01 173.895 16.14 174.415 16.14C174.895 16.14 175.325 16.03 175.705 15.82C176.025 15.64 176.295 15.41 176.495 15.13V16H177.245V12.68C177.245 12.08 177.085 11.61 176.785 11.27C176.425 10.88 175.885 10.69 175.145 10.69ZM176.445 13.52V13.96C176.445 14.36 176.255 14.72 175.885 15.03C175.505 15.35 175.075 15.51 174.585 15.51C174.265 15.51 174.005 15.43 173.805 15.28C173.605 15.12 173.515 14.93 173.515 14.69C173.515 13.94 174.095 13.56 175.255 13.54L176.445 13.52ZM178.481 8.72V16H179.281V14.17L180.101 13.43L182.121 16H183.151L180.651 12.91L182.931 10.83H181.871L179.281 13.23V8.72H178.481ZM185.904 10.69C185.154 10.69 184.564 10.96 184.124 11.5C183.684 12.01 183.474 12.65 183.474 13.41C183.474 14.25 183.694 14.91 184.154 15.41C184.594 15.89 185.194 16.14 185.934 16.14C186.604 16.14 187.154 15.94 187.584 15.56C187.934 15.24 188.164 14.84 188.284 14.34H187.484C187.354 14.7 187.184 14.97 186.964 15.15C186.704 15.36 186.354 15.47 185.934 15.47C185.444 15.47 185.054 15.31 184.774 14.99C184.494 14.67 184.344 14.22 184.304 13.64H188.384C188.364 12.74 188.164 12.03 187.784 11.53C187.364 10.97 186.734 10.69 185.904 10.69ZM185.924 11.36C186.904 11.36 187.454 11.91 187.554 13.02H184.324C184.374 12.51 184.534 12.11 184.814 11.81C185.094 11.51 185.464 11.36 185.924 11.36Z" fill="#666666"/>
</svg>
