<svg width="196" height="40" viewBox="0 0 196 40" fill="none" xmlns="http://www.w3.org/2000/svg">
<path d="M2 8.5H39.5V39.5H2C1.17157 39.5 0.5 38.8284 0.5 38V10C0.5 9.17157 1.17157 8.5 2 8.5Z" stroke="#6690E4"/>
<path d="M156.5 8.5H194C194.828 8.5 195.5 9.17157 195.5 10V38C195.5 38.8284 194.828 39.5 194 39.5H156.5V8.5Z" stroke="#6690E4"/>
<path d="M39.5 8.5H78.5V39.5H39.5V8.5Z" stroke="#6690E4"/>
<path d="M78.5 8.5H117.5V39.5H78.5V8.5Z" stroke="#6690E4"/>
<path d="M117.5 8.5H156.5V39.5H117.5V8.5Z" stroke="#6690E4"/>
<path d="M20.76 19.432C20.472 19.756 20.136 20.044 19.728 20.308C19.32 20.548 18.912 20.716 18.528 20.824V21.808C19.332 21.568 20.004 21.184 20.544 20.632V28H21.528V19.432H20.76Z" fill="#666666"/>
<path d="M173.26 19.432L172.804 24.16H173.74C173.908 23.824 174.172 23.56 174.508 23.392C174.832 23.212 175.192 23.128 175.6 23.128C176.224 23.128 176.716 23.308 177.064 23.692C177.424 24.064 177.616 24.592 177.616 25.276C177.616 25.876 177.412 26.368 177.028 26.752C176.632 27.136 176.14 27.328 175.54 27.328C175.012 27.328 174.568 27.196 174.232 26.944C173.848 26.656 173.632 26.236 173.584 25.696H172.612C172.672 26.476 172.996 27.1 173.596 27.556C174.124 27.964 174.772 28.168 175.528 28.168C176.368 28.168 177.088 27.904 177.664 27.388C178.276 26.836 178.588 26.128 178.588 25.264C178.588 24.34 178.324 23.62 177.82 23.092C177.316 22.576 176.656 22.324 175.84 22.324C175.444 22.324 175.084 22.384 174.748 22.528C174.376 22.672 174.064 22.888 173.824 23.176H173.776L174.064 20.308H178.24V19.432H173.26Z" fill="#666666"/>
<path d="M58.72 19.264C57.856 19.264 57.148 19.552 56.62 20.128C56.092 20.692 55.816 21.46 55.816 22.42H56.8C56.812 21.664 56.992 21.088 57.328 20.704C57.64 20.296 58.096 20.104 58.684 20.104C59.236 20.104 59.68 20.248 59.992 20.536C60.304 20.824 60.46 21.22 60.46 21.748C60.46 22.3 60.232 22.816 59.8 23.284C59.572 23.524 59.128 23.872 58.456 24.352C57.544 24.976 56.932 25.492 56.596 25.876C56.02 26.512 55.744 27.22 55.744 28H61.456V27.124H56.956C57.112 26.548 57.736 25.888 58.828 25.156C59.716 24.556 60.304 24.088 60.604 23.776C61.156 23.176 61.444 22.504 61.444 21.76C61.444 21.016 61.18 20.404 60.676 19.948C60.16 19.492 59.512 19.264 58.72 19.264Z" fill="#666666"/>
<path d="M97.684 19.264C96.868 19.264 96.208 19.492 95.704 19.96C95.176 20.428 94.864 21.076 94.792 21.904H95.764C95.824 21.328 96.016 20.884 96.352 20.572C96.676 20.26 97.12 20.116 97.696 20.116C98.248 20.116 98.692 20.248 99.004 20.536C99.292 20.8 99.448 21.172 99.448 21.652C99.448 22.132 99.292 22.504 98.992 22.768C98.692 23.02 98.26 23.152 97.684 23.152H97.024V23.92H97.72C98.32 23.92 98.776 24.052 99.112 24.34C99.448 24.628 99.616 25.024 99.616 25.54C99.616 26.044 99.436 26.464 99.1 26.8C98.728 27.148 98.236 27.328 97.624 27.328C97.084 27.328 96.64 27.172 96.28 26.884C95.86 26.536 95.632 26.02 95.608 25.348H94.612C94.684 26.308 95.02 27.04 95.632 27.544C96.148 27.952 96.808 28.168 97.624 28.168C98.512 28.168 99.232 27.916 99.784 27.412C100.324 26.92 100.6 26.284 100.6 25.504C100.6 25 100.456 24.58 100.168 24.244C99.904 23.908 99.52 23.668 99.016 23.512C99.952 23.2 100.42 22.552 100.42 21.592C100.42 20.872 100.168 20.308 99.676 19.888C99.172 19.468 98.5 19.264 97.684 19.264Z" fill="#666666"/>
<path d="M137.608 19.432L133.288 25.12V26.056H137.596V28H138.532V26.056H139.924V25.252H138.532V19.432H137.608ZM137.56 20.716H137.596V25.252H134.116L137.56 20.716Z" fill="#666666"/>
<rect x="122" width="30" height="13" fill="#E87B76"/>
<path d="M127.6 2.264C126.7 2.264 126.004 2.492 125.5 2.96C125.032 3.38 124.804 3.908 124.804 4.532C124.804 4.988 124.912 5.372 125.128 5.684C125.356 6.02 125.692 6.272 126.148 6.428V6.452C125.692 6.56 125.32 6.812 125.008 7.196C124.672 7.604 124.504 8.084 124.504 8.636C124.504 9.392 124.768 10.004 125.296 10.46C125.836 10.928 126.604 11.168 127.6 11.168C128.584 11.168 129.352 10.928 129.904 10.46C130.432 10.004 130.696 9.392 130.696 8.636C130.696 8.084 130.528 7.604 130.192 7.196C129.88 6.812 129.496 6.56 129.052 6.452V6.428C129.496 6.272 129.832 6.02 130.072 5.684C130.288 5.372 130.396 4.988 130.396 4.532C130.396 3.908 130.156 3.38 129.7 2.96C129.196 2.492 128.488 2.264 127.6 2.264ZM127.6 3.068C128.2 3.068 128.68 3.224 129.028 3.536C129.316 3.8 129.472 4.148 129.472 4.568C129.472 5 129.34 5.36 129.076 5.624C128.752 5.936 128.26 6.104 127.6 6.104C126.928 6.104 126.436 5.936 126.124 5.624C125.86 5.36 125.728 5 125.728 4.568C125.728 4.148 125.872 3.8 126.172 3.536C126.508 3.224 126.988 3.068 127.6 3.068ZM127.6 6.872C128.284 6.872 128.824 7.04 129.208 7.388C129.544 7.7 129.724 8.12 129.724 8.636C129.724 9.14 129.544 9.548 129.208 9.86C128.824 10.196 128.296 10.364 127.6 10.364C126.904 10.364 126.364 10.196 126.004 9.872C125.644 9.56 125.476 9.14 125.476 8.636C125.476 8.12 125.644 7.7 126.004 7.388C126.376 7.04 126.904 6.872 127.6 6.872ZM134.795 2.264C133.895 2.264 133.199 2.492 132.695 2.96C132.227 3.38 131.999 3.908 131.999 4.532C131.999 4.988 132.107 5.372 132.323 5.684C132.551 6.02 132.887 6.272 133.343 6.428V6.452C132.887 6.56 132.515 6.812 132.203 7.196C131.867 7.604 131.699 8.084 131.699 8.636C131.699 9.392 131.963 10.004 132.491 10.46C133.031 10.928 133.799 11.168 134.795 11.168C135.779 11.168 136.547 10.928 137.099 10.46C137.627 10.004 137.891 9.392 137.891 8.636C137.891 8.084 137.723 7.604 137.387 7.196C137.075 6.812 136.691 6.56 136.247 6.452V6.428C136.691 6.272 137.027 6.02 137.267 5.684C137.483 5.372 137.591 4.988 137.591 4.532C137.591 3.908 137.351 3.38 136.895 2.96C136.391 2.492 135.683 2.264 134.795 2.264ZM134.795 3.068C135.395 3.068 135.875 3.224 136.223 3.536C136.511 3.8 136.667 4.148 136.667 4.568C136.667 5 136.535 5.36 136.271 5.624C135.947 5.936 135.455 6.104 134.795 6.104C134.123 6.104 133.631 5.936 133.319 5.624C133.055 5.36 132.923 5 132.923 4.568C132.923 4.148 133.067 3.8 133.367 3.536C133.703 3.224 134.183 3.068 134.795 3.068ZM134.795 6.872C135.479 6.872 136.019 7.04 136.403 7.388C136.739 7.7 136.919 8.12 136.919 8.636C136.919 9.14 136.739 9.548 136.403 9.86C136.019 10.196 135.491 10.364 134.795 10.364C134.099 10.364 133.559 10.196 133.199 9.872C132.839 9.56 132.671 9.14 132.671 8.636C132.671 8.12 132.839 7.7 133.199 7.388C133.571 7.04 134.099 6.872 134.795 6.872ZM149.011 1.232C147.499 1.808 145.807 2.12 143.923 2.168V6.44C143.851 8.6 143.335 10.292 142.399 11.528L143.011 12.164C144.103 10.736 144.691 8.828 144.763 6.44V5.912H147.043V12.272H147.919V5.912H149.743V5.084H144.763V2.888C146.491 2.804 148.039 2.516 149.431 2.012L149.011 1.232ZM140.611 12.068C141.307 12.068 141.667 11.696 141.667 10.976V7.556C142.183 7.34 142.699 7.124 143.203 6.884V6.008C142.699 6.26 142.183 6.488 141.667 6.704V4.232H143.155V3.404H141.667V1.208H140.815V3.404H139.111V4.232H140.815V7.016C140.191 7.22 139.567 7.4 138.919 7.544L139.123 8.408C139.699 8.24 140.263 8.06 140.815 7.868V10.76C140.815 11.12 140.647 11.3 140.311 11.3C139.987 11.3 139.651 11.276 139.291 11.24L139.483 12.068H140.611Z" fill="white"/>
<rect x="83" width="30" height="13" fill="#E87B76"/>
<path d="M88.6 2.264C87.7 2.264 87.004 2.492 86.5 2.96C86.032 3.38 85.804 3.908 85.804 4.532C85.804 4.988 85.912 5.372 86.128 5.684C86.356 6.02 86.692 6.272 87.148 6.428V6.452C86.692 6.56 86.32 6.812 86.008 7.196C85.672 7.604 85.504 8.084 85.504 8.636C85.504 9.392 85.768 10.004 86.296 10.46C86.836 10.928 87.604 11.168 88.6 11.168C89.584 11.168 90.352 10.928 90.904 10.46C91.432 10.004 91.696 9.392 91.696 8.636C91.696 8.084 91.528 7.604 91.192 7.196C90.88 6.812 90.496 6.56 90.052 6.452V6.428C90.496 6.272 90.832 6.02 91.072 5.684C91.288 5.372 91.396 4.988 91.396 4.532C91.396 3.908 91.156 3.38 90.7 2.96C90.196 2.492 89.488 2.264 88.6 2.264ZM88.6 3.068C89.2 3.068 89.68 3.224 90.028 3.536C90.316 3.8 90.472 4.148 90.472 4.568C90.472 5 90.34 5.36 90.076 5.624C89.752 5.936 89.26 6.104 88.6 6.104C87.928 6.104 87.436 5.936 87.124 5.624C86.86 5.36 86.728 5 86.728 4.568C86.728 4.148 86.872 3.8 87.172 3.536C87.508 3.224 87.988 3.068 88.6 3.068ZM88.6 6.872C89.284 6.872 89.824 7.04 90.208 7.388C90.544 7.7 90.724 8.12 90.724 8.636C90.724 9.14 90.544 9.548 90.208 9.86C89.824 10.196 89.296 10.364 88.6 10.364C87.904 10.364 87.364 10.196 87.004 9.872C86.644 9.56 86.476 9.14 86.476 8.636C86.476 8.12 86.644 7.7 87.004 7.388C87.376 7.04 87.904 6.872 88.6 6.872ZM95.7953 2.264C94.8953 2.264 94.1993 2.492 93.6953 2.96C93.2273 3.38 92.9993 3.908 92.9993 4.532C92.9993 4.988 93.1073 5.372 93.3233 5.684C93.5513 6.02 93.8873 6.272 94.3433 6.428V6.452C93.8873 6.56 93.5153 6.812 93.2033 7.196C92.8673 7.604 92.6993 8.084 92.6993 8.636C92.6993 9.392 92.9633 10.004 93.4913 10.46C94.0313 10.928 94.7993 11.168 95.7953 11.168C96.7793 11.168 97.5473 10.928 98.0993 10.46C98.6273 10.004 98.8913 9.392 98.8913 8.636C98.8913 8.084 98.7233 7.604 98.3873 7.196C98.0753 6.812 97.6913 6.56 97.2473 6.452V6.428C97.6913 6.272 98.0273 6.02 98.2673 5.684C98.4833 5.372 98.5913 4.988 98.5913 4.532C98.5913 3.908 98.3513 3.38 97.8953 2.96C97.3913 2.492 96.6833 2.264 95.7953 2.264ZM95.7953 3.068C96.3953 3.068 96.8753 3.224 97.2233 3.536C97.5113 3.8 97.6673 4.148 97.6673 4.568C97.6673 5 97.5353 5.36 97.2713 5.624C96.9473 5.936 96.4553 6.104 95.7953 6.104C95.1233 6.104 94.6313 5.936 94.3193 5.624C94.0553 5.36 93.9233 5 93.9233 4.568C93.9233 4.148 94.0673 3.8 94.3673 3.536C94.7033 3.224 95.1833 3.068 95.7953 3.068ZM95.7953 6.872C96.4793 6.872 97.0193 7.04 97.4033 7.388C97.7393 7.7 97.9193 8.12 97.9193 8.636C97.9193 9.14 97.7393 9.548 97.4033 9.86C97.0193 10.196 96.4913 10.364 95.7953 10.364C95.0993 10.364 94.5593 10.196 94.1993 9.872C93.8393 9.56 93.6713 9.14 93.6713 8.636C93.6713 8.12 93.8393 7.7 94.1993 7.388C94.5713 7.04 95.0993 6.872 95.7953 6.872ZM110.011 1.232C108.499 1.808 106.807 2.12 104.923 2.168V6.44C104.851 8.6 104.335 10.292 103.399 11.528L104.011 12.164C105.103 10.736 105.691 8.828 105.763 6.44V5.912H108.043V12.272H108.919V5.912H110.743V5.084H105.763V2.888C107.491 2.804 109.039 2.516 110.431 2.012L110.011 1.232ZM101.611 12.068C102.307 12.068 102.667 11.696 102.667 10.976V7.556C103.183 7.34 103.699 7.124 104.203 6.884V6.008C103.699 6.26 103.183 6.488 102.667 6.704V4.232H104.155V3.404H102.667V1.208H101.815V3.404H100.111V4.232H101.815V7.016C101.191 7.22 100.567 7.4 99.9186 7.544L100.123 8.408C100.699 8.24 101.263 8.06 101.815 7.868V10.76C101.815 11.12 101.647 11.3 101.311 11.3C100.987 11.3 100.651 11.276 100.291 11.24L100.483 12.068H101.611Z" fill="white"/>
<rect x="161" width="30" height="13" fill="#E87B76"/>
<path d="M166.6 2.264C165.7 2.264 165.004 2.492 164.5 2.96C164.032 3.38 163.804 3.908 163.804 4.532C163.804 4.988 163.912 5.372 164.128 5.684C164.356 6.02 164.692 6.272 165.148 6.428V6.452C164.692 6.56 164.32 6.812 164.008 7.196C163.672 7.604 163.504 8.084 163.504 8.636C163.504 9.392 163.768 10.004 164.296 10.46C164.836 10.928 165.604 11.168 166.6 11.168C167.584 11.168 168.352 10.928 168.904 10.46C169.432 10.004 169.696 9.392 169.696 8.636C169.696 8.084 169.528 7.604 169.192 7.196C168.88 6.812 168.496 6.56 168.052 6.452V6.428C168.496 6.272 168.832 6.02 169.072 5.684C169.288 5.372 169.396 4.988 169.396 4.532C169.396 3.908 169.156 3.38 168.7 2.96C168.196 2.492 167.488 2.264 166.6 2.264ZM166.6 3.068C167.2 3.068 167.68 3.224 168.028 3.536C168.316 3.8 168.472 4.148 168.472 4.568C168.472 5 168.34 5.36 168.076 5.624C167.752 5.936 167.26 6.104 166.6 6.104C165.928 6.104 165.436 5.936 165.124 5.624C164.86 5.36 164.728 5 164.728 4.568C164.728 4.148 164.872 3.8 165.172 3.536C165.508 3.224 165.988 3.068 166.6 3.068ZM166.6 6.872C167.284 6.872 167.824 7.04 168.208 7.388C168.544 7.7 168.724 8.12 168.724 8.636C168.724 9.14 168.544 9.548 168.208 9.86C167.824 10.196 167.296 10.364 166.6 10.364C165.904 10.364 165.364 10.196 165.004 9.872C164.644 9.56 164.476 9.14 164.476 8.636C164.476 8.12 164.644 7.7 165.004 7.388C165.376 7.04 165.904 6.872 166.6 6.872ZM173.795 2.264C172.895 2.264 172.199 2.492 171.695 2.96C171.227 3.38 170.999 3.908 170.999 4.532C170.999 4.988 171.107 5.372 171.323 5.684C171.551 6.02 171.887 6.272 172.343 6.428V6.452C171.887 6.56 171.515 6.812 171.203 7.196C170.867 7.604 170.699 8.084 170.699 8.636C170.699 9.392 170.963 10.004 171.491 10.46C172.031 10.928 172.799 11.168 173.795 11.168C174.779 11.168 175.547 10.928 176.099 10.46C176.627 10.004 176.891 9.392 176.891 8.636C176.891 8.084 176.723 7.604 176.387 7.196C176.075 6.812 175.691 6.56 175.247 6.452V6.428C175.691 6.272 176.027 6.02 176.267 5.684C176.483 5.372 176.591 4.988 176.591 4.532C176.591 3.908 176.351 3.38 175.895 2.96C175.391 2.492 174.683 2.264 173.795 2.264ZM173.795 3.068C174.395 3.068 174.875 3.224 175.223 3.536C175.511 3.8 175.667 4.148 175.667 4.568C175.667 5 175.535 5.36 175.271 5.624C174.947 5.936 174.455 6.104 173.795 6.104C173.123 6.104 172.631 5.936 172.319 5.624C172.055 5.36 171.923 5 171.923 4.568C171.923 4.148 172.067 3.8 172.367 3.536C172.703 3.224 173.183 3.068 173.795 3.068ZM173.795 6.872C174.479 6.872 175.019 7.04 175.403 7.388C175.739 7.7 175.919 8.12 175.919 8.636C175.919 9.14 175.739 9.548 175.403 9.86C175.019 10.196 174.491 10.364 173.795 10.364C173.099 10.364 172.559 10.196 172.199 9.872C171.839 9.56 171.671 9.14 171.671 8.636C171.671 8.12 171.839 7.7 172.199 7.388C172.571 7.04 173.099 6.872 173.795 6.872ZM188.011 1.232C186.499 1.808 184.807 2.12 182.923 2.168V6.44C182.851 8.6 182.335 10.292 181.399 11.528L182.011 12.164C183.103 10.736 183.691 8.828 183.763 6.44V5.912H186.043V12.272H186.919V5.912H188.743V5.084H183.763V2.888C185.491 2.804 187.039 2.516 188.431 2.012L188.011 1.232ZM179.611 12.068C180.307 12.068 180.667 11.696 180.667 10.976V7.556C181.183 7.34 181.699 7.124 182.203 6.884V6.008C181.699 6.26 181.183 6.488 180.667 6.704V4.232H182.155V3.404H180.667V1.208H179.815V3.404H178.111V4.232H179.815V7.016C179.191 7.22 178.567 7.4 177.919 7.544L178.123 8.408C178.699 8.24 179.263 8.06 179.815 7.868V10.76C179.815 11.12 179.647 11.3 179.311 11.3C178.987 11.3 178.651 11.276 178.291 11.24L178.483 12.068H179.611Z" fill="white"/>
</svg>
