<svg width="240" height="32" viewBox="0 0 240 32" fill="none" xmlns="http://www.w3.org/2000/svg">
<rect x="0.5" y="0.5" width="239" height="31" rx="3.5" fill="white" stroke="#E5E5E5"/>
<path d="M44.596 9.562V10.472H41.208V11.298H44.596V12.236H41.768V13.048H44.596V14H40.816V14.84H49.384V14H45.562V13.048H48.53V12.236H45.562V11.298H49.034V10.472H45.562V9.562H44.596ZM42.846 18.368H47.368V19.39H42.846V18.368ZM47.368 17.584H42.846V16.548H47.368V17.584ZM42.846 20.174H47.368V20.972C47.368 21.294 47.186 21.462 46.85 21.462L45.73 21.42L45.968 22.316H47.144C47.928 22.316 48.334 21.938 48.334 21.182V15.722H41.88V22.4H42.846V20.174ZM38.282 9.716L37.568 10.402C38.576 11.158 39.374 11.872 39.962 12.544L40.648 11.844C40.004 11.13 39.22 10.416 38.282 9.716ZM36.588 13.846V14.812H38.59V20.37C38.59 20.608 38.478 20.818 38.268 21.014L38.66 21.91C39.528 21.28 40.368 20.552 41.152 19.74L40.886 18.676C40.41 19.166 39.976 19.6 39.556 19.992V13.846H36.588ZM51.764 9.786L51.078 10.444C52.072 11.228 52.856 11.97 53.43 12.67L54.13 11.97C53.486 11.242 52.702 10.514 51.764 9.786ZM59.898 22.148H63.146L63.398 21.14C63.02 21.168 62.488 21.182 61.816 21.196C61.116 21.21 60.43 21.224 59.758 21.224C58.666 21.224 57.742 21.21 57.014 21.196C56.174 21.168 55.544 21.056 55.11 20.86C54.718 20.678 54.354 20.384 54.018 19.978C53.906 19.852 53.794 19.74 53.682 19.656V14.42H50.756V15.344H52.744V19.6C52.156 19.852 51.498 20.58 50.742 21.77L51.498 22.456C52.282 21.14 52.842 20.496 53.192 20.496C53.36 20.496 53.542 20.608 53.738 20.846C54.172 21.35 54.662 21.7 55.208 21.868C55.768 22.022 56.51 22.106 57.406 22.12C58.302 22.134 59.142 22.148 59.898 22.148ZM58.694 9.52V11.312H56.846C57.014 10.864 57.168 10.402 57.308 9.912L56.342 9.716C56.006 10.976 55.46 12.138 54.704 13.188L55.586 13.734C55.894 13.286 56.174 12.81 56.426 12.278H58.694V14.28H55.054V15.26H57.308C57.266 16.128 57.126 16.884 56.888 17.5C56.524 18.34 55.782 19.04 54.648 19.6L55.306 20.398C56.622 19.712 57.476 18.83 57.84 17.766C58.078 17.066 58.218 16.226 58.26 15.26H59.674V19.236C59.674 19.544 59.758 19.796 59.954 19.992C60.136 20.188 60.402 20.286 60.766 20.286H61.774C62.25 20.272 62.586 20.16 62.782 19.964C62.992 19.74 63.146 19.054 63.23 17.892L62.348 17.598C62.292 18.592 62.18 19.152 62.012 19.278C61.9 19.362 61.76 19.404 61.564 19.404H61.06C60.752 19.404 60.612 19.264 60.612 19.012V15.26H62.964V14.28H59.674V12.278H62.474V11.312H59.674V9.52H58.694ZM69.782 10.122V11.032H70.482C70.874 12.096 71.504 12.978 72.386 13.692C71.518 14.112 70.482 14.448 69.292 14.728L69.768 15.582C71.126 15.246 72.302 14.826 73.282 14.294C74.29 14.882 75.578 15.288 77.118 15.498L77.482 14.602C76.208 14.434 75.116 14.14 74.22 13.72C75.284 12.964 76.012 12.054 76.418 10.962V10.122H69.782ZM71.476 11.032H75.354C74.92 11.872 74.234 12.586 73.282 13.188C72.456 12.628 71.854 11.9 71.476 11.032ZM66.268 22.274C67.094 22.274 67.514 21.868 67.514 21.056V17.038C68.06 16.814 68.592 16.576 69.11 16.324V15.302C68.578 15.568 68.046 15.82 67.514 16.044V13.216H69.082V12.25H67.514V9.604H66.478V12.25H64.77V13.216H66.478V16.422C65.848 16.632 65.204 16.814 64.546 16.968L64.798 17.976C65.358 17.808 65.918 17.626 66.478 17.43V20.79C66.478 21.154 66.282 21.35 65.918 21.35C65.568 21.35 65.204 21.322 64.84 21.294L65.05 22.274H66.268ZM70.02 16.59V17.514H72.82V19.11H69.306V20.048H72.82V22.26H73.8V20.048H77.272V19.11H73.8V17.514H76.558V16.59H73.8V15.358H72.82V16.59H70.02ZM83.18 10.612H79.148V21.266H80.128V19.992H82.2V20.93H83.18V10.612ZM80.128 19.054V15.68H82.2V19.054H80.128ZM80.128 14.742V11.536H82.2V14.742H80.128ZM85.196 14.784L84.37 15.302C85.21 16.59 85.868 17.766 86.358 18.816L87.198 18.228C86.736 17.248 86.064 16.1 85.196 14.784ZM88.388 22.26C89.256 22.26 89.69 21.812 89.69 20.93V13.104H91.412V12.138H89.69V9.674H88.668V12.138H83.824V13.104H88.668V20.678C88.668 21.112 88.458 21.336 88.052 21.336C87.31 21.336 86.54 21.308 85.728 21.28L85.938 22.26H88.388ZM96.284 13.356V19.88H101.604V13.356H96.284ZM100.666 18.984H97.236V17.066H100.666V18.984ZM97.236 16.17V14.252H100.666V16.17H97.236ZM103.172 22.288C104.11 22.288 104.586 21.784 104.586 20.804V10.262H98.174V11.2H103.606V20.524C103.606 21.084 103.382 21.378 102.962 21.378L101.744 21.35L101.996 22.288H103.172ZM93.386 11.886V22.414H94.366V11.886H93.386ZM95.416 9.436L94.492 9.842C95.122 10.598 95.696 11.466 96.228 12.446L97.124 11.97C96.634 11.046 96.06 10.206 95.416 9.436Z" fill="#CCCCCC"/>
<g clip-path="url(#clip0_2288_13647)">
<path d="M20.001 8C24.4015 8 28.0015 11.6 28.0015 15.9995C28.0015 20.4 24.4015 24 20.001 24C15.6014 24 12.0015 20.4 12.0015 15.9995C12.0015 11.6 15.6014 8 20.001 8ZM20.001 8.99994C19.0802 8.99422 18.1674 9.17136 17.3156 9.5211C16.4638 9.87083 15.6899 10.3862 15.0388 11.0373C14.3877 11.6884 13.8723 12.4623 13.5226 13.3141C13.1728 14.1659 12.9957 15.0787 13.0014 15.9995C12.9955 16.9204 13.1726 17.8333 13.5223 18.6852C13.8719 19.5371 14.3873 20.3111 15.0384 20.9623C15.6895 21.6136 16.4635 22.129 17.3154 22.4788C18.1672 22.8286 19.0801 23.0058 20.001 23.0001C20.9219 23.0059 21.8349 22.8288 22.6869 22.4791C23.5389 22.1294 24.3129 21.6139 24.9642 20.9627C25.6154 20.3115 26.1308 19.5374 26.4806 18.6854C26.8303 17.8334 27.0074 16.9205 27.0015 15.9995C27.0072 15.0786 26.8301 14.1658 26.4803 13.3139C26.1305 12.462 25.615 11.6881 24.9638 11.037C24.3126 10.3858 23.5386 9.87048 22.6866 9.5208C21.8347 9.17113 20.9218 8.99408 20.001 8.99994ZM20.001 10.9998V15.9995L24.0017 18.0034L23.5238 18.8911L19.001 16.6828V10.9998H20.001Z" fill="#CCCCCC"/>
</g>
<defs>
<clipPath id="clip0_2288_13647">
<rect width="16" height="16" fill="white" transform="translate(12 8)"/>
</clipPath>
</defs>
</svg>
