<svg width="212" height="97" viewBox="0 0 212 97" fill="none" xmlns="http://www.w3.org/2000/svg">
<g filter="url(#filter0_d)">
<path d="M6 6.28998H206V90.29H6V6.28998Z" fill="white"/>
<path d="M6.5 6.78998H205.5V89.79H6.5V6.78998Z" stroke="#E0E3EC"/>
</g>
<path d="M18.924 19.266V20.226H20.952V23.982H18.744V24.966H21.036C20.484 25.542 19.68 26.022 18.6 26.406L19.188 27.366C19.92 27.006 20.556 26.61 21.084 26.166V27.126H23.448V28.074H19.344V29.13H28.572V28.074H24.552V27.126H26.892V26.142C27.444 26.61 28.128 27.018 28.956 27.378L29.424 26.394C28.368 26.034 27.54 25.566 26.952 24.966H29.244V23.982H27.036V20.226H29.064V19.266H27.036V18.438H25.932V19.266H22.056V18.438H20.952V19.266H18.924ZM21.132 26.118C21.54 25.758 21.876 25.374 22.152 24.966H25.824C26.088 25.374 26.436 25.758 26.868 26.118H24.552V25.278H23.448V26.118H21.132ZM22.056 23.982V23.334H25.932V23.982H22.056ZM22.056 22.446V21.798H25.932V22.446H22.056ZM22.056 20.91V20.226H25.932V20.91H22.056ZM30.828 20.562V21.654H34.524C33.66 23.646 32.28 25.29 30.384 26.562L31.044 27.63C33.084 26.07 34.548 24.078 35.412 21.654H35.424V26.07H33.048V27.162H35.424V29.526H36.576V27.162H39.048V26.07H36.576V21.654H36.588C37.392 23.802 38.796 25.746 40.8 27.474L41.58 26.49C39.636 25.074 38.268 23.454 37.476 21.654H41.16V20.562H36.576V18.486H35.424V20.562H30.828Z" fill="#666666"/>
<path d="M18 42.29H194V50.29H18V42.29Z" fill="#F0F1F5"/>
<path d="M18 56.29H194V64.29H18V56.29Z" fill="#F0F1F5"/>
<path d="M18 70.29H106V78.29H18V70.29Z" fill="#F0F1F5"/>
<defs>
<filter id="filter0_d" x="0" y="0.289978" width="212" height="96" filterUnits="userSpaceOnUse" color-interpolation-filters="sRGB">
<feFlood flood-opacity="0" result="BackgroundImageFix"/>
<feColorMatrix in="SourceAlpha" type="matrix" values="0 0 0 0 0 0 0 0 0 0 0 0 0 0 0 0 0 0 127 0"/>
<feOffset/>
<feGaussianBlur stdDeviation="3"/>
<feColorMatrix type="matrix" values="0 0 0 0 0 0 0 0 0 0 0 0 0 0 0 0 0 0 0.05 0"/>
<feBlend mode="normal" in2="BackgroundImageFix" result="effect1_dropShadow"/>
<feBlend mode="normal" in="SourceGraphic" in2="effect1_dropShadow" result="shape"/>
</filter>
</defs>
</svg>
