<svg width="178" height="12" viewBox="0 0 178 12" fill="none" xmlns="http://www.w3.org/2000/svg">
<path d="M8.41 3.77H5.28C5.34 3.51 5.4 3.24 5.45 2.96H9.46V2.04H7.05C7.21 1.74 7.36 1.41 7.5 1.05L6.56 0.719999C6.4 1.18 6.21 1.62 6 2.04H3.95C3.78 1.54 3.6 1.1 3.4 0.74L2.47 1.09C2.65 1.39 2.81 1.7 2.95 2.04H0.54V2.96H4.44C4.4 3.24 4.36 3.51 4.3 3.77H1.59V10.04H2.53V9.68H7.47V10.04H8.41V3.77ZM2.53 8.82V7.96H7.47V8.82H2.53ZM2.53 7.13V6.29H7.47V7.13H2.53ZM2.53 5.47V4.63H7.47V5.47H2.53ZM18.2 2.92H15.3C15.38 2.64 15.44 2.34 15.5 2.04H19.43V1.14H10.57V2.04H14.47C14.43 2.34 14.37 2.63 14.31 2.92H11.76V7.78H12.72V3.85H17.24V7.77H18.2V2.92ZM15.73 7.66L15.21 8.45C16.38 8.84 17.52 9.38 18.64 10.06L19.23 9.16C18.18 8.57 17.01 8.07 15.73 7.66ZM14.52 4.33V5.92C14.47 6.76 14.19 7.44 13.67 7.96C13.15 8.45 12.16 8.85 10.7 9.17L11.24 10.02C12.7 9.68 13.76 9.21 14.4 8.59C15.06 7.92 15.42 7.03 15.48 5.92V4.33H14.52ZM35.7048 2.83V6.81H38.1848V8.86C38.1848 9.04 38.0748 9.13 37.8648 9.13C37.5848 9.13 37.2848 9.11 36.9748 9.07L37.1848 10H38.1948C38.8148 10 39.1348 9.69 39.1348 9.09V6.81H41.3848V2.83H38.6748C38.7548 2.59 38.8148 2.33 38.8748 2.07H42.0748V1.14H33.8148V5.04C33.7948 6.88 33.5448 8.33 33.0648 9.37L33.7848 10.01C34.4048 8.76 34.7348 7.1 34.7748 5.04V2.07H37.9348C37.8848 2.33 37.8248 2.58 37.7448 2.83H35.7048ZM40.4648 5.95H36.6248V5.21H40.4648V5.95ZM36.6248 4.4V3.69H40.4648V4.4H36.6248ZM36.3548 7.12C35.9348 7.92 35.4248 8.61 34.8248 9.19L35.6148 9.75C36.2148 9.12 36.7448 8.38 37.1848 7.52L36.3548 7.12ZM40.6548 7.11L39.8948 7.59C40.5348 8.39 41.0348 9.12 41.4048 9.78L42.1948 9.24C41.8348 8.63 41.3148 7.92 40.6548 7.11ZM43.6048 1.18V2.02H44.5348V3.31H43.3448V4.19H44.4748C44.3648 4.89 44.0648 5.43 43.5848 5.8L44.3048 6.43C44.9248 5.93 45.2848 5.18 45.4048 4.19H46.5248V6.31H47.4448V4.19H48.6048V3.31H47.4448V2.02H48.3848V1.18H43.6048ZM45.4548 2.02H46.5248V3.31H45.4548V2.02ZM49.0448 1.48V4.91H49.9548V1.48H49.0448ZM43.8548 7.15V8.02H47.2848V8.95H43.2948V9.82H52.1348V8.95H48.2248V8.02H51.5848V7.15H48.2248V6.42H47.2848V7.15H43.8548ZM50.8648 6.42C51.4648 6.42 51.7648 6.06 51.7648 5.35V0.93H50.8548V5.13C50.8548 5.44 50.7448 5.6 50.5448 5.6C50.1548 5.6 49.7448 5.58 49.3148 5.54L49.5248 6.42H50.8648ZM56.6848 7.59C55.7248 8.04 54.5948 8.4 53.2948 8.66L53.4148 9.61C54.6348 9.33 55.7248 8.96 56.6848 8.49V7.59ZM54.9748 0.77C54.5748 1.83 54.1148 2.78 53.5748 3.64C53.4548 3.82 53.3148 3.94 53.1648 4L53.4048 4.88C53.9448 4.81 54.4648 4.74 54.9848 4.67C54.4848 5.46 54.0748 6.02 53.7448 6.35C53.6248 6.46 53.4848 6.55 53.3148 6.63L53.5648 7.5C54.5648 7.36 55.6348 7.08 56.7648 6.67V5.8C56.0848 6.06 55.4248 6.26 54.7648 6.42C55.3648 5.69 56.1048 4.54 56.9748 2.98L56.1148 2.66C55.8948 3.06 55.6948 3.43 55.4948 3.79C55.1148 3.85 54.7248 3.9 54.3448 3.94C54.8648 3.22 55.3748 2.28 55.8748 1.12L54.9748 0.77ZM61.4948 1.24H57.2748V8.76H56.4548V9.68H62.2948V8.76H61.4948V1.24ZM58.2048 8.76V7.14H60.5648V8.76H58.2048ZM58.2048 6.24V4.6H60.5648V6.24H58.2048ZM58.2048 3.71V2.15H60.5648V3.71H58.2048ZM65.2248 0.719999C64.7448 2.26 64.0048 3.61 63.0048 4.77L63.3148 5.78C63.6248 5.45 63.9248 5.11 64.2048 4.75V10.03H65.1348V3.37C65.5348 2.67 65.8648 1.92 66.1148 1.13L65.2248 0.719999ZM66.9048 1.44C66.7048 2.72 66.3048 3.81 65.7248 4.7L66.3348 5.49C66.6948 4.97 66.9948 4.4 67.2448 3.77H68.7548V5.92H65.9148V6.84H68.7548V9.99H69.7048V6.84H72.2848V5.92H69.7048V3.77H71.9148V2.84H69.7048V0.84H68.7548V2.84H67.5548C67.6648 2.44 67.7548 2.01 67.8348 1.56L66.9048 1.44Z" fill="#337EFF"/>
<path d="M23.8301 3.83V4.79L27.6301 6.42L23.8301 8.05V9.01L28.8801 6.81V6.02L23.8301 3.83ZM76.5449 3.83V4.79L80.3449 6.42L76.5449 8.05V9.01L81.5949 6.81V6.02L76.5449 3.83ZM139.68 3.83V4.79L143.48 6.42L139.68 8.05V9.01L144.73 6.81V6.02L139.68 3.83ZM149.084 1.14V2.05H153.134C153.064 2.41 152.964 2.76 152.834 3.1H149.584V10.06H150.504V9.64H156.654V10.06H157.574V3.1H153.794C153.924 2.76 154.024 2.41 154.104 2.05H158.044V1.14H149.084ZM150.504 8.76V3.97H151.644V8.76H150.504ZM152.534 8.76V7.68H154.594V8.76H152.534ZM155.484 8.76V3.97H156.654V8.76H155.484ZM152.534 6.87V5.83H154.594V6.87H152.534ZM152.534 5.01V3.97H154.594V5.01H152.534ZM164.984 3.78H160.714C160.974 3.45 161.214 3.09 161.454 2.7H166.454C166.434 4.7 166.404 5.87 166.344 6.23C166.304 6.57 166.144 6.75 165.884 6.75C165.684 6.75 165.444 6.73 165.164 6.7L165.394 7.55C165.694 7.57 165.904 7.59 166.024 7.59C166.754 7.59 167.164 7.27 167.264 6.65C167.364 6.03 167.424 4.41 167.424 1.79H161.954C162.084 1.51 162.214 1.23 162.344 0.93L161.384 0.709999C160.764 2.11 160.014 3.21 159.134 4.01L159.794 4.81C160.024 4.59 160.254 4.34 160.474 4.08V8.99C160.474 9.59 160.814 9.9 161.494 9.9H166.784C167.284 9.88 167.614 9.66 167.754 9.25C167.844 8.99 167.924 8.56 167.984 7.96L167.084 7.67C167.024 8.26 166.974 8.62 166.914 8.75C166.834 8.91 166.694 8.99 166.484 9.01H161.884C161.574 9.01 161.424 8.88 161.424 8.62V6.99H164.984V3.78ZM161.424 6.13V4.64H164.024V6.13H161.424ZM176.314 9.95C176.964 9.95 177.294 9.67 177.294 9.11V5.24H176.644C177.024 4.85 177.334 4.44 177.574 4.01L176.824 3.65C176.594 4.07 176.284 4.48 175.884 4.9L176.554 5.24H174.854V3.78H173.934V5.24H172.314L172.884 4.96C172.624 4.49 172.334 4.06 172.014 3.67L171.264 4.01C171.574 4.36 171.864 4.77 172.134 5.24H171.414V9.97H172.334V8.59H176.384V8.92C176.384 9.09 176.274 9.18 176.054 9.18L174.834 9.15L175.044 9.95H176.314ZM172.334 7.84V7.33H176.384V7.84H172.334ZM172.334 6.58V6.06H176.384V6.58H172.334ZM176.724 1.97V2.71H170.824V1.97H176.724ZM170.824 3.54H177.644V1.12H169.904V4.54C169.894 6.48 169.594 8.07 169.014 9.31L169.824 10.03C170.484 8.5 170.814 6.67 170.824 4.54V3.54Z" fill="#666666"/>
<path d="M86.1297 1.86V9H87.2197V3.63H87.2597L90.9497 9H92.0097V1.86H90.9197V7.17H90.8797L87.2297 1.86H86.1297ZM95.6448 3.69C95.0048 3.69 94.4848 3.8 94.1048 4.04C93.6648 4.3 93.3848 4.72 93.2748 5.28L94.3248 5.37C94.3848 5.08 94.5348 4.87 94.7748 4.73C94.9748 4.61 95.2448 4.55 95.5748 4.55C96.3548 4.55 96.7448 4.91 96.7448 5.63V5.84L95.5848 5.87C94.8248 5.89 94.2248 6.04 93.8048 6.34C93.3448 6.65 93.1148 7.1 93.1148 7.68C93.1148 8.11 93.2748 8.46 93.6048 8.73C93.9048 9 94.3248 9.14 94.8648 9.14C95.3248 9.14 95.7248 9.05 96.0648 8.89C96.3648 8.74 96.6148 8.53 96.8148 8.27V9H97.7948V5.7C97.7948 5.07 97.6348 4.59 97.3248 4.26C96.9648 3.88 96.4048 3.69 95.6448 3.69ZM96.7448 6.61V6.91C96.7448 7.31 96.5748 7.65 96.2548 7.92C95.9348 8.19 95.5548 8.33 95.1048 8.33C94.8348 8.33 94.6148 8.26 94.4548 8.13C94.2848 8 94.2048 7.84 94.2048 7.64C94.2048 7 94.6848 6.66 95.6548 6.64L96.7448 6.61ZM98.4582 3.83L100.378 9H101.438L103.358 3.83H102.208L100.908 7.68L99.6082 3.83H98.4582ZM104.758 1.76C104.548 1.76 104.378 1.82 104.238 1.96C104.098 2.09 104.028 2.26 104.028 2.47C104.028 2.67 104.098 2.85 104.238 2.99C104.378 3.12 104.548 3.19 104.758 3.19C104.958 3.19 105.138 3.12 105.278 2.99C105.418 2.85 105.498 2.68 105.498 2.47C105.498 2.26 105.428 2.09 105.288 1.96C105.148 1.82 104.968 1.76 104.758 1.76ZM104.228 3.83V9H105.288V3.83H104.228ZM108.873 3.69C108.173 3.69 107.603 3.93 107.173 4.42C106.733 4.9 106.523 5.52 106.523 6.3C106.523 7.08 106.733 7.7 107.173 8.17C107.603 8.64 108.173 8.88 108.873 8.88C109.553 8.88 110.073 8.59 110.453 8.02V8.82C110.453 9.79 110.003 10.28 109.103 10.28C108.683 10.28 108.373 10.21 108.183 10.09C107.983 9.96 107.863 9.74 107.803 9.44H106.743C106.843 10.01 107.073 10.43 107.453 10.71C107.833 10.98 108.383 11.12 109.103 11.12C110.703 11.12 111.513 10.3 111.513 8.66V3.83H110.453V4.52C110.073 3.96 109.553 3.69 108.873 3.69ZM109.033 4.55C109.483 4.55 109.833 4.7 110.093 5.02C110.333 5.33 110.463 5.76 110.463 6.3C110.463 6.83 110.333 7.25 110.093 7.56C109.833 7.86 109.483 8.01 109.033 8.01C108.513 8.01 108.143 7.83 107.913 7.49C107.713 7.2 107.613 6.8 107.613 6.3C107.613 5.75 107.733 5.32 107.993 5.02C108.233 4.7 108.583 4.55 109.033 4.55ZM115.039 3.69C114.399 3.69 113.879 3.8 113.499 4.04C113.059 4.3 112.779 4.72 112.669 5.28L113.719 5.37C113.779 5.08 113.929 4.87 114.169 4.73C114.369 4.61 114.639 4.55 114.969 4.55C115.749 4.55 116.139 4.91 116.139 5.63V5.84L114.979 5.87C114.219 5.89 113.619 6.04 113.199 6.34C112.739 6.65 112.509 7.1 112.509 7.68C112.509 8.11 112.669 8.46 112.999 8.73C113.299 9 113.719 9.14 114.259 9.14C114.719 9.14 115.119 9.05 115.459 8.89C115.759 8.74 116.009 8.53 116.209 8.27V9H117.189V5.7C117.189 5.07 117.029 4.59 116.719 4.26C116.359 3.88 115.799 3.69 115.039 3.69ZM116.139 6.61V6.91C116.139 7.31 115.969 7.65 115.649 7.92C115.329 8.19 114.949 8.33 114.499 8.33C114.229 8.33 114.009 8.26 113.849 8.13C113.679 8 113.599 7.84 113.599 7.64C113.599 7 114.079 6.66 115.049 6.64L116.139 6.61ZM119.973 2.16L118.913 2.6V3.83H117.953V4.71H118.913V7.71C118.913 8.12 119.003 8.43 119.203 8.65C119.403 8.88 119.733 9 120.173 9H121.023V8.12H120.343C120.213 8.12 120.123 8.08 120.063 8.02C120.003 7.95 119.973 7.85 119.973 7.71V4.71H121.153V3.83H119.973V2.16ZM122.756 1.76C122.546 1.76 122.376 1.82 122.236 1.96C122.096 2.09 122.026 2.26 122.026 2.47C122.026 2.67 122.096 2.85 122.236 2.99C122.376 3.12 122.546 3.19 122.756 3.19C122.956 3.19 123.136 3.12 123.276 2.99C123.416 2.85 123.496 2.68 123.496 2.47C123.496 2.26 123.426 2.09 123.286 1.96C123.146 1.82 122.966 1.76 122.756 1.76ZM122.226 3.83V9H123.286V3.83H122.226ZM127.101 3.69C126.321 3.69 125.691 3.95 125.221 4.47C124.751 4.98 124.521 5.63 124.521 6.42C124.521 7.2 124.751 7.85 125.211 8.35C125.691 8.87 126.321 9.14 127.101 9.14C127.881 9.14 128.511 8.87 128.991 8.35C129.451 7.85 129.681 7.2 129.681 6.42C129.681 5.63 129.441 4.98 128.981 4.47C128.511 3.95 127.881 3.69 127.101 3.69ZM127.101 4.56C127.591 4.56 127.971 4.75 128.251 5.14C128.491 5.47 128.611 5.9 128.611 6.42C128.611 6.93 128.491 7.35 128.251 7.69C127.971 8.07 127.591 8.27 127.101 8.27C126.611 8.27 126.231 8.07 125.961 7.69C125.721 7.36 125.611 6.94 125.611 6.42C125.611 5.9 125.721 5.47 125.961 5.14C126.231 4.75 126.611 4.56 127.101 4.56ZM133.308 3.69C132.988 3.69 132.698 3.75 132.438 3.89C132.178 4.02 131.948 4.21 131.748 4.47V3.83H130.688V9H131.748V5.89C131.788 5.47 131.938 5.14 132.178 4.9C132.398 4.68 132.668 4.58 132.968 4.58C133.768 4.58 134.178 5.02 134.178 5.9V9H135.238V5.81C135.238 4.39 134.588 3.69 133.308 3.69Z" fill="#CCCCCC"/>
</svg>
