<svg width="200" height="120" viewBox="0 0 200 120" fill="none" xmlns="http://www.w3.org/2000/svg">
<path d="M1 0.5H87C87.2761 0.5 87.5 0.723857 87.5 1V119C87.5 119.276 87.2761 119.5 87 119.5H0.999999C0.723857 119.5 0.5 119.276 0.5 119V0.999999C0.5 0.723857 0.723857 0.5 1 0.5Z" stroke="#DDE1EC"/>
<path d="M11.12 36.72C10.38 36.72 9.77 36.88 9.3 37.2C8.77 37.54 8.51 38.03 8.51 38.65C8.51 39.25 8.78 39.71 9.33 40.03C9.56 40.15 10.11 40.35 10.97 40.61C11.77 40.84 12.28 41.01 12.48 41.13C12.95 41.38 13.19 41.73 13.19 42.18C13.19 42.56 13.01 42.86 12.65 43.08C12.29 43.3 11.81 43.41 11.23 43.41C10.59 43.41 10.11 43.27 9.78 43.01C9.42 42.72 9.2 42.26 9.13 41.64H8.32C8.38 42.52 8.69 43.17 9.25 43.6C9.73 43.96 10.39 44.14 11.23 44.14C12.08 44.14 12.75 43.96 13.25 43.61C13.75 43.25 14 42.75 14 42.13C14 41.48 13.7 40.98 13.11 40.62C12.81 40.44 12.19 40.21 11.25 39.93C10.56 39.73 10.12 39.58 9.94 39.48C9.53 39.26 9.33 38.97 9.33 38.61C9.33 38.2 9.5 37.9 9.84 37.7C10.14 37.52 10.55 37.44 11.08 37.44C11.66 37.44 12.11 37.56 12.43 37.82C12.74 38.07 12.94 38.45 13.03 38.97H13.84C13.77 38.22 13.5 37.65 13.02 37.27C12.56 36.9 11.92 36.72 11.12 36.72ZM18.1584 36.72C17.0784 36.72 16.2384 37.08 15.6184 37.8C15.0284 38.48 14.7384 39.36 14.7384 40.44C14.7384 41.51 15.0284 42.39 15.6184 43.07C16.2384 43.78 17.0784 44.14 18.1484 44.14C18.9084 44.14 19.5584 43.95 20.0984 43.59C20.3684 43.95 20.6384 44.33 20.9184 44.73L21.4584 44.26C21.1884 43.87 20.9184 43.49 20.6384 43.13C20.6484 43.11 20.6684 43.09 20.6884 43.07C21.2684 42.39 21.5684 41.52 21.5684 40.44C21.5684 39.35 21.2684 38.47 20.6884 37.79C20.0684 37.07 19.2184 36.72 18.1584 36.72ZM18.1584 37.45C18.9784 37.45 19.6184 37.72 20.0784 38.27C20.5184 38.81 20.7484 39.53 20.7484 40.44C20.7484 41.29 20.5484 41.98 20.1484 42.51C19.7484 42.02 19.3384 41.56 18.9284 41.12L18.4384 41.59C18.8384 42.01 19.2384 42.48 19.6384 42.99C19.2384 43.27 18.7384 43.41 18.1484 43.41C17.3284 43.41 16.6784 43.13 16.2184 42.57C15.7784 42.03 15.5584 41.32 15.5584 40.44C15.5584 39.55 15.7784 38.84 16.2184 38.3C16.6884 37.73 17.3384 37.45 18.1584 37.45ZM22.7044 36.86V44H27.6444V43.29H23.5144V36.86H22.7044Z" fill="#666666"/>
<path d="M123.8 36.72C122.7 36.72 121.84 37.09 121.24 37.85C120.69 38.53 120.42 39.4 120.42 40.46C120.42 41.52 120.68 42.38 121.22 43.04C121.81 43.77 122.66 44.14 123.77 44.14C124.53 44.14 125.19 43.92 125.74 43.49C126.33 43.03 126.7 42.38 126.86 41.55H126.07C125.93 42.17 125.64 42.64 125.22 42.96C124.82 43.26 124.34 43.41 123.77 43.41C122.93 43.41 122.3 43.13 121.86 42.58C121.44 42.06 121.24 41.35 121.24 40.46C121.24 39.57 121.45 38.86 121.87 38.32C122.32 37.74 122.96 37.45 123.79 37.45C124.35 37.45 124.82 37.58 125.21 37.85C125.61 38.13 125.87 38.53 125.97 39.05H126.76C126.66 38.34 126.34 37.77 125.8 37.35C125.26 36.93 124.59 36.72 123.8 36.72ZM130.395 36.72C129.655 36.72 129.045 36.88 128.575 37.2C128.045 37.54 127.785 38.03 127.785 38.65C127.785 39.25 128.055 39.71 128.605 40.03C128.835 40.15 129.385 40.35 130.245 40.61C131.045 40.84 131.555 41.01 131.755 41.13C132.225 41.38 132.465 41.73 132.465 42.18C132.465 42.56 132.285 42.86 131.925 43.08C131.565 43.3 131.085 43.41 130.505 43.41C129.865 43.41 129.385 43.27 129.055 43.01C128.695 42.72 128.475 42.26 128.405 41.64H127.595C127.655 42.52 127.965 43.17 128.525 43.6C129.005 43.96 129.665 44.14 130.505 44.14C131.355 44.14 132.025 43.96 132.525 43.61C133.025 43.25 133.275 42.75 133.275 42.13C133.275 41.48 132.975 40.98 132.385 40.62C132.085 40.44 131.465 40.21 130.525 39.93C129.835 39.73 129.395 39.58 129.215 39.48C128.805 39.26 128.605 38.97 128.605 38.61C128.605 38.2 128.775 37.9 129.115 37.7C129.415 37.52 129.825 37.44 130.355 37.44C130.935 37.44 131.385 37.56 131.705 37.82C132.015 38.07 132.215 38.45 132.305 38.97H133.115C133.045 38.22 132.775 37.65 132.295 37.27C131.835 36.9 131.195 36.72 130.395 36.72ZM136.714 36.72C135.974 36.72 135.364 36.88 134.894 37.2C134.364 37.54 134.104 38.03 134.104 38.65C134.104 39.25 134.374 39.71 134.924 40.03C135.154 40.15 135.704 40.35 136.564 40.61C137.364 40.84 137.874 41.01 138.074 41.13C138.544 41.38 138.784 41.73 138.784 42.18C138.784 42.56 138.604 42.86 138.244 43.08C137.884 43.3 137.404 43.41 136.824 43.41C136.184 43.41 135.704 43.27 135.374 43.01C135.014 42.72 134.794 42.26 134.724 41.64H133.914C133.974 42.52 134.284 43.17 134.844 43.6C135.324 43.96 135.984 44.14 136.824 44.14C137.674 44.14 138.344 43.96 138.844 43.61C139.344 43.25 139.594 42.75 139.594 42.13C139.594 41.48 139.294 40.98 138.704 40.62C138.404 40.44 137.784 40.21 136.844 39.93C136.154 39.73 135.714 39.58 135.534 39.48C135.124 39.26 134.924 38.97 134.924 38.61C134.924 38.2 135.094 37.9 135.434 37.7C135.734 37.52 136.144 37.44 136.674 37.44C137.254 37.44 137.704 37.56 138.024 37.82C138.334 38.07 138.534 38.45 138.624 38.97H139.434C139.364 38.22 139.094 37.65 138.614 37.27C138.154 36.9 137.514 36.72 136.714 36.72Z" fill="#666666"/>
<path d="M11.64 52.86V57.69C11.64 58.28 11.53 58.71 11.32 58.98C11.1 59.26 10.75 59.41 10.27 59.41C9.4 59.41 8.97 58.92 8.97 57.96V57.72H8.15V57.97C8.15 58.67 8.33 59.21 8.71 59.59C9.07 59.95 9.58 60.14 10.25 60.14C11.04 60.14 11.62 59.92 11.98 59.48C12.3 59.08 12.46 58.5 12.46 57.72V52.86H11.64ZM16.286 52.72C15.546 52.72 14.936 52.88 14.466 53.2C13.936 53.54 13.676 54.03 13.676 54.65C13.676 55.25 13.946 55.71 14.496 56.03C14.726 56.15 15.276 56.35 16.136 56.61C16.936 56.84 17.446 57.01 17.646 57.13C18.116 57.38 18.356 57.73 18.356 58.18C18.356 58.56 18.176 58.86 17.816 59.08C17.456 59.3 16.976 59.41 16.396 59.41C15.756 59.41 15.276 59.27 14.946 59.01C14.586 58.72 14.366 58.26 14.296 57.64H13.486C13.546 58.52 13.856 59.17 14.416 59.6C14.896 59.96 15.556 60.14 16.396 60.14C17.246 60.14 17.916 59.96 18.416 59.61C18.916 59.25 19.166 58.75 19.166 58.13C19.166 57.48 18.866 56.98 18.276 56.62C17.976 56.44 17.356 56.21 16.416 55.93C15.726 55.73 15.286 55.58 15.106 55.48C14.696 55.26 14.496 54.97 14.496 54.61C14.496 54.2 14.666 53.9 15.006 53.7C15.306 53.52 15.716 53.44 16.246 53.44C16.826 53.44 17.276 53.56 17.596 53.82C17.906 54.07 18.106 54.45 18.196 54.97H19.006C18.936 54.22 18.666 53.65 18.186 53.27C17.726 52.9 17.086 52.72 16.286 52.72ZM23.3244 52.72C22.2444 52.72 21.4044 53.08 20.7844 53.8C20.1944 54.48 19.9044 55.36 19.9044 56.44C19.9044 57.51 20.1944 58.39 20.7844 59.07C21.4044 59.78 22.2444 60.14 23.3144 60.14C24.3844 60.14 25.2344 59.78 25.8544 59.07C26.4344 58.39 26.7344 57.52 26.7344 56.44C26.7344 55.35 26.4344 54.47 25.8544 53.79C25.2344 53.07 24.3844 52.72 23.3244 52.72ZM23.3244 53.45C24.1444 53.45 24.7844 53.72 25.2444 54.27C25.6844 54.81 25.9144 55.53 25.9144 56.44C25.9144 57.34 25.6844 58.05 25.2444 58.59C24.7844 59.13 24.1344 59.41 23.3144 59.41C22.4944 59.41 21.8444 59.13 21.3844 58.57C20.9444 58.03 20.7244 57.32 20.7244 56.44C20.7244 55.55 20.9444 54.84 21.3844 54.3C21.8544 53.73 22.5044 53.45 23.3244 53.45ZM27.8704 52.86V60H28.6904V54.13H28.7204L32.7804 60H33.6204V52.86H32.8004V58.67H32.7704L28.7304 52.86H27.8704Z" fill="#666666"/>
<path d="M120.72 52.86V60H121.54V56.67H125.67V60H126.49V52.86H125.67V55.96H121.54V52.86H120.72ZM127.367 52.86V53.57H129.887V60H130.697V53.57H133.217V52.86H127.367ZM134.109 52.86V60H134.929V54.32H134.959L137.429 60H138.169L140.639 54.32H140.669V60H141.489V52.86H140.469L137.819 58.95H137.789L135.129 52.86H134.109ZM142.927 52.86V60H147.867V59.29H143.737V52.86H142.927Z" fill="#666666"/>
<path d="M1 1H87V28H1V1Z" fill="#F5F7FB"/>
<path d="M113 1H199V28H113V1Z" fill="#F5F7FB"/>
<path d="M9 9.5H19C19.2761 9.5 19.5 9.72386 19.5 10V20C19.5 20.2761 19.2761 20.5 19 20.5H9C8.72386 20.5 8.5 20.2761 8.5 20V10C8.5 9.72386 8.72386 9.5 9 9.5Z" fill="white" stroke="#DDE1EC"/>
<path d="M121 9.5H131C131.276 9.5 131.5 9.72386 131.5 10V20C131.5 20.2761 131.276 20.5 131 20.5H121C120.724 20.5 120.5 20.2761 120.5 20V10C120.5 9.72386 120.724 9.5 121 9.5Z" fill="white" stroke="#DDE1EC"/>
<path d="M24.72 11.28V11.98H27.58C26.96 14.25 25.92 16.01 24.46 17.25L24.83 17.91C25.77 17.16 26.56 16.18 27.2 14.96H29.48V18.01H26.17V18.71H33.46V18.01H30.21V14.96H32.65V14.27H27.53C27.83 13.57 28.1 12.81 28.32 11.98H33.45V11.28H28.49C28.59 10.84 28.67 10.37 28.75 9.88L28.03 9.79C27.95 10.3 27.86 10.8 27.75 11.28H24.72ZM42.14 18.91C42.82 18.91 43.16 18.55 43.16 17.85V9.9H42.44V17.68C42.44 18.07 42.25 18.27 41.89 18.27C41.49 18.27 41.06 18.25 40.62 18.22L40.78 18.91H42.14ZM40.31 10.66V16.98H41.01V10.66H40.31ZM34.72 10.26V10.96H36.27C36.06 12.6 35.46 13.88 34.48 14.82L34.82 15.49C35.09 15.24 35.34 14.96 35.57 14.66C36.23 15.02 36.81 15.41 37.32 15.83C36.68 16.87 35.79 17.68 34.66 18.26L35.01 18.9C37.23 17.77 38.59 15.79 39.08 12.97V12.33H36.7C36.82 11.9 36.91 11.44 36.98 10.96H39.57V10.26H34.72ZM35.93 14.11C36.13 13.77 36.31 13.41 36.47 13.01H38.39C38.23 13.82 37.98 14.56 37.65 15.23C37.15 14.84 36.58 14.47 35.93 14.11ZM45.04 10.7V11.36H48.63V12.31H45.62V12.97H48.63V13.92H44.69V14.57H47.9C47.16 15.44 46 16.15 44.4 16.71L44.78 17.33C45.46 17.06 46.06 16.76 46.6 16.43V18C46.6 18.16 46.49 18.28 46.28 18.36L46.52 18.98C47.59 18.72 48.64 18.38 49.68 17.96L49.54 17.29C48.8 17.59 48.06 17.86 47.31 18.08V15.95C47.86 15.53 48.31 15.07 48.66 14.57H49.01C49.85 16.74 51.21 18.2 53.07 18.95L53.45 18.32C52.52 17.97 51.72 17.44 51.06 16.74C51.7 16.46 52.27 16.06 52.78 15.55L52.28 15.07C51.76 15.62 51.22 16.02 50.66 16.28C50.27 15.78 49.94 15.21 49.67 14.57H53.31V13.92H49.37V12.97H52.38V12.31H49.37V11.36H52.96V10.7H49.37V9.85H48.63V10.7H45.04Z" fill="#666666"/>
<path d="M144.52 14.19H139.5C139.92 13.53 140.27 12.79 140.57 11.97H145.45V11.28H140.79C140.92 10.83 141.03 10.36 141.13 9.87L140.4 9.78C140.3 10.3 140.18 10.8 140.03 11.28H136.7V11.97H139.79C139.09 13.8 137.95 15.23 136.37 16.25L136.75 16.93C137.59 16.4 138.33 15.74 138.96 14.95V19.01H139.68V18.46H143.81V19.01H144.52V14.19ZM139.68 17.77V14.88H143.81V17.77H139.68ZM154.14 18.91C154.82 18.91 155.16 18.55 155.16 17.85V9.9H154.44V17.68C154.44 18.07 154.25 18.27 153.89 18.27C153.49 18.27 153.06 18.25 152.62 18.22L152.78 18.91H154.14ZM152.31 10.66V16.98H153.01V10.66H152.31ZM146.72 10.26V10.96H148.27C148.06 12.6 147.46 13.88 146.48 14.82L146.82 15.49C147.09 15.24 147.34 14.96 147.57 14.66C148.23 15.02 148.81 15.41 149.32 15.83C148.68 16.87 147.79 17.68 146.66 18.26L147.01 18.9C149.23 17.77 150.59 15.79 151.08 12.97V12.33H148.7C148.82 11.9 148.91 11.44 148.98 10.96H151.57V10.26H146.72ZM147.93 14.11C148.13 13.77 148.31 13.41 148.47 13.01H150.39C150.23 13.82 149.98 14.56 149.65 15.23C149.15 14.84 148.58 14.47 147.93 14.11ZM157.04 10.7V11.36H160.63V12.31H157.62V12.97H160.63V13.92H156.69V14.57H159.9C159.16 15.44 158 16.15 156.4 16.71L156.78 17.33C157.46 17.06 158.06 16.76 158.6 16.43V18C158.6 18.16 158.49 18.28 158.28 18.36L158.52 18.98C159.59 18.72 160.64 18.38 161.68 17.96L161.54 17.29C160.8 17.59 160.06 17.86 159.31 18.08V15.95C159.86 15.53 160.31 15.07 160.66 14.57H161.01C161.85 16.74 163.21 18.2 165.07 18.95L165.45 18.32C164.52 17.97 163.72 17.44 163.06 16.74C163.7 16.46 164.27 16.06 164.78 15.55L164.28 15.07C163.76 15.62 163.22 16.02 162.66 16.28C162.27 15.78 161.94 15.21 161.67 14.57H165.31V13.92H161.37V12.97H164.38V12.31H161.37V11.36H164.96V10.7H161.37V9.85H160.63V10.7H157.04Z" fill="#666666"/>
<line opacity="0.88" y1="28.5" x2="88" y2="28.5" stroke="#DFE3EC"/>
<line opacity="0.88" x1="112" y1="28.5" x2="200" y2="28.5" stroke="#DFE3EC"/>
<path d="M113 0.5H199C199.276 0.5 199.5 0.723857 199.5 1V119C199.5 119.276 199.276 119.5 199 119.5H113C112.724 119.5 112.5 119.276 112.5 119V0.999999C112.5 0.723857 112.724 0.5 113 0.5Z" stroke="#DDE1EC"/>
<circle cx="100" cy="50" r="8" fill="#CED5E4"/>
<path d="M99.375 50L102.015 52.64L101.261 53.3941L97.8667 50L101.261 46.6059L102.015 47.36L99.375 50Z" fill="white"/>
<circle cx="100" cy="70" r="8" fill="#CED5E4"/>
<path d="M100.625 70L97.985 67.36L98.7392 66.6059L102.133 70L98.7392 73.3941L97.985 72.64L100.625 70Z" fill="white"/>
</svg>
