<svg width="200" height="120" viewBox="0 0 200 120" fill="none" xmlns="http://www.w3.org/2000/svg">
<path d="M1 0.5H87C87.2761 0.5 87.5 0.723857 87.5 1V119C87.5 119.276 87.2761 119.5 87 119.5H0.999999C0.723857 119.5 0.5 119.276 0.5 119V0.999999C0.5 0.723857 0.723857 0.5 1 0.5Z" stroke="#DDE1EC"/>
<path d="M11.2 36.72C10.44 36.72 9.81 36.89 9.31 37.23C8.78 37.59 8.52 38.08 8.52 38.71C8.52 39.33 8.79 39.81 9.34 40.14C9.56 40.26 10.1 40.45 10.98 40.73C11.77 40.97 12.24 41.13 12.4 41.21C12.85 41.44 13.08 41.75 13.08 42.15C13.08 42.47 12.92 42.72 12.6 42.9C12.28 43.08 11.85 43.18 11.31 43.18C10.71 43.18 10.27 43.07 9.98 42.85C9.66 42.61 9.46 42.2 9.38 41.64H8.3C8.36 42.54 8.68 43.2 9.27 43.62C9.76 43.96 10.44 44.14 11.31 44.14C12.21 44.14 12.91 43.96 13.41 43.6C13.91 43.23 14.16 42.73 14.16 42.09C14.16 41.43 13.85 40.92 13.24 40.55C12.96 40.38 12.33 40.15 11.37 39.85C10.7 39.65 10.29 39.5 10.13 39.41C9.77 39.22 9.6 38.97 9.6 38.65C9.6 38.29 9.75 38.03 10.06 37.87C10.31 37.73 10.67 37.66 11.14 37.66C11.68 37.66 12.08 37.76 12.36 37.97C12.64 38.17 12.82 38.51 12.92 38.97H14C13.93 38.19 13.65 37.62 13.15 37.25C12.68 36.89 12.03 36.72 11.2 36.72ZM18.3346 36.72C17.2446 36.72 16.3846 37.07 15.7646 37.79C15.1646 38.47 14.8746 39.35 14.8746 40.44C14.8746 41.52 15.1646 42.4 15.7646 43.08C16.3846 43.78 17.2446 44.14 18.3346 44.14C19.0746 44.14 19.7046 43.98 20.2346 43.66C20.4946 44.01 20.7546 44.38 21.0246 44.77L21.7246 44.15C21.4646 43.77 21.1946 43.41 20.9346 43.06C21.5146 42.38 21.8046 41.51 21.8046 40.44C21.8046 39.34 21.5046 38.45 20.9046 37.78C20.2746 37.07 19.4146 36.72 18.3346 36.72ZM18.3346 37.68C19.0946 37.68 19.6846 37.92 20.0946 38.42C20.4946 38.91 20.7046 39.58 20.7046 40.44C20.7046 41.17 20.5546 41.76 20.2546 42.22C19.8946 41.8 19.5346 41.39 19.1746 41.01L18.5446 41.63C18.8946 42 19.2546 42.41 19.6146 42.86C19.2646 43.07 18.8346 43.18 18.3346 43.18C17.5746 43.18 16.9846 42.92 16.5646 42.42C16.1646 41.93 15.9646 41.27 15.9646 40.44C15.9646 39.6 16.1646 38.94 16.5646 38.45C16.9846 37.93 17.5746 37.68 18.3346 37.68ZM22.909 36.86V44H27.919V43.07H23.989V36.86H22.909Z" fill="#666666"/>
<path d="M10.496 53.176C9.904 53.176 9.416 53.304 9.04 53.56C8.616 53.832 8.408 54.224 8.408 54.72C8.408 55.2 8.624 55.568 9.064 55.824C9.248 55.92 9.688 56.08 10.376 56.288C11.016 56.472 11.424 56.608 11.584 56.704C11.96 56.904 12.152 57.184 12.152 57.544C12.152 57.848 12.008 58.088 11.72 58.264C11.432 58.44 11.048 58.528 10.584 58.528C10.072 58.528 9.688 58.416 9.424 58.208C9.136 57.976 8.96 57.608 8.904 57.112H8.256C8.304 57.816 8.552 58.336 9 58.68C9.384 58.968 9.912 59.112 10.584 59.112C11.264 59.112 11.8 58.968 12.2 58.688C12.6 58.4 12.8 58 12.8 57.504C12.8 56.984 12.56 56.584 12.088 56.296C11.848 56.152 11.352 55.968 10.6 55.744C10.048 55.584 9.696 55.464 9.552 55.384C9.224 55.208 9.064 54.976 9.064 54.688C9.064 54.36 9.2 54.12 9.472 53.96C9.712 53.816 10.04 53.752 10.464 53.752C10.928 53.752 11.288 53.848 11.544 54.056C11.792 54.256 11.952 54.56 12.024 54.976H12.672C12.616 54.376 12.4 53.92 12.016 53.616C11.648 53.32 11.136 53.176 10.496 53.176ZM16.1267 53.176C15.2627 53.176 14.5907 53.464 14.0947 54.04C13.6227 54.584 13.3907 55.288 13.3907 56.152C13.3907 57.008 13.6227 57.712 14.0947 58.256C14.5907 58.824 15.2627 59.112 16.1187 59.112C16.7267 59.112 17.2467 58.96 17.6787 58.672C17.8947 58.96 18.1107 59.264 18.3347 59.584L18.7667 59.208C18.5507 58.896 18.3347 58.592 18.1107 58.304C18.1187 58.288 18.1347 58.272 18.1507 58.256C18.6147 57.712 18.8547 57.016 18.8547 56.152C18.8547 55.28 18.6147 54.576 18.1507 54.032C17.6547 53.456 16.9747 53.176 16.1267 53.176ZM16.1267 53.76C16.7827 53.76 17.2947 53.976 17.6627 54.416C18.0147 54.848 18.1987 55.424 18.1987 56.152C18.1987 56.832 18.0387 57.384 17.7187 57.808C17.3987 57.416 17.0707 57.048 16.7427 56.696L16.3507 57.072C16.6707 57.408 16.9907 57.784 17.3107 58.192C16.9907 58.416 16.5907 58.528 16.1187 58.528C15.4627 58.528 14.9427 58.304 14.5747 57.856C14.2227 57.424 14.0467 56.856 14.0467 56.152C14.0467 55.44 14.2227 54.872 14.5747 54.44C14.9507 53.984 15.4707 53.76 16.1267 53.76ZM19.7635 53.288V59H23.7155V58.432H20.4115V53.288H19.7635ZM27.5787 53.304C27.4427 53.304 27.3307 53.344 27.2347 53.44C27.1387 53.52 27.0987 53.632 27.0987 53.776C27.0987 53.912 27.1387 54.024 27.2347 54.12C27.3307 54.208 27.4427 54.256 27.5787 54.256C27.7147 54.256 27.8267 54.208 27.9227 54.12C28.0187 54.024 28.0667 53.912 28.0667 53.776C28.0667 53.632 28.0187 53.52 27.9227 53.44C27.8267 53.344 27.7147 53.304 27.5787 53.304ZM27.2587 54.864V59H27.8987V54.864H27.2587ZM30.5616 54.752C30.0976 54.752 29.7136 54.856 29.4256 55.064C29.1136 55.272 28.9616 55.544 28.9616 55.896C28.9616 56.248 29.1136 56.512 29.4336 56.704C29.6256 56.832 29.9696 56.952 30.4576 57.072C30.9056 57.184 31.2016 57.272 31.3376 57.336C31.5936 57.464 31.7296 57.64 31.7296 57.872C31.7296 58.336 31.3536 58.576 30.6176 58.576C30.2656 58.576 30.0016 58.512 29.8256 58.384C29.6496 58.24 29.5296 58.008 29.4816 57.68H28.8576C28.9536 58.632 29.5456 59.112 30.6336 59.112C31.8016 59.112 32.3856 58.68 32.3856 57.832C32.3856 57.472 32.2176 57.192 31.8896 56.984C31.6736 56.848 31.3216 56.72 30.8256 56.6C30.4096 56.488 30.1216 56.4 29.9696 56.328C29.7296 56.208 29.6176 56.056 29.6176 55.88C29.6176 55.696 29.7056 55.552 29.8816 55.448C30.0416 55.336 30.2656 55.288 30.5536 55.288C30.8816 55.288 31.1376 55.352 31.3136 55.48C31.4736 55.592 31.5776 55.784 31.6336 56.04H32.2576C32.1456 55.176 31.5856 54.752 30.5616 54.752ZM37.6007 54.752C37.1047 54.752 36.7127 54.848 36.4087 55.04C36.0727 55.248 35.8567 55.576 35.7687 56.008L36.4007 56.056C36.4647 55.792 36.6007 55.592 36.8167 55.464C37.0087 55.336 37.2567 55.28 37.5607 55.28C38.2807 55.28 38.6407 55.624 38.6407 56.32V56.536L37.6487 56.552C37.0247 56.56 36.5447 56.68 36.2087 56.904C35.8247 57.144 35.6407 57.496 35.6407 57.968C35.6407 58.304 35.7687 58.584 36.0247 58.8C36.2727 59.008 36.6007 59.112 37.0167 59.112C37.4007 59.112 37.7447 59.024 38.0487 58.856C38.3047 58.712 38.5207 58.528 38.6807 58.304V59H39.2807V56.344C39.2807 55.864 39.1527 55.488 38.9127 55.216C38.6247 54.904 38.1927 54.752 37.6007 54.752ZM38.6407 57.016V57.368C38.6407 57.688 38.4887 57.976 38.1927 58.224C37.8887 58.48 37.5447 58.608 37.1527 58.608C36.8967 58.608 36.6887 58.544 36.5287 58.424C36.3687 58.296 36.2967 58.144 36.2967 57.952C36.2967 57.352 36.7607 57.048 37.6887 57.032L38.6407 57.016ZM44.3975 54.752C43.9335 54.752 43.5495 54.856 43.2615 55.064C42.9495 55.272 42.7975 55.544 42.7975 55.896C42.7975 56.248 42.9495 56.512 43.2695 56.704C43.4615 56.832 43.8055 56.952 44.2935 57.072C44.7415 57.184 45.0375 57.272 45.1735 57.336C45.4295 57.464 45.5655 57.64 45.5655 57.872C45.5655 58.336 45.1895 58.576 44.4535 58.576C44.1015 58.576 43.8375 58.512 43.6615 58.384C43.4855 58.24 43.3655 58.008 43.3175 57.68H42.6935C42.7895 58.632 43.3815 59.112 44.4695 59.112C45.6375 59.112 46.2215 58.68 46.2215 57.832C46.2215 57.472 46.0535 57.192 45.7255 56.984C45.5095 56.848 45.1575 56.72 44.6615 56.6C44.2455 56.488 43.9575 56.4 43.8055 56.328C43.5655 56.208 43.4535 56.056 43.4535 55.88C43.4535 55.696 43.5415 55.552 43.7175 55.448C43.8775 55.336 44.1015 55.288 44.3895 55.288C44.7175 55.288 44.9735 55.352 45.1495 55.48C45.3095 55.592 45.4135 55.784 45.4695 56.04H46.0935C45.9815 55.176 45.4215 54.752 44.3975 54.752ZM48.9486 54.752C48.3246 54.752 47.8686 55.016 47.5726 55.544V54.864H46.9726V60.584H47.6126V58.248C47.9326 58.824 48.3886 59.112 48.9806 59.112C49.5726 59.112 50.0286 58.888 50.3646 58.456C50.6686 58.056 50.8286 57.552 50.8286 56.944C50.8286 56.32 50.6686 55.816 50.3566 55.416C50.0126 54.968 49.5406 54.752 48.9486 54.752ZM48.8686 55.28C49.3086 55.28 49.6446 55.44 49.8766 55.776C50.0686 56.064 50.1726 56.456 50.1726 56.944C50.1726 57.44 50.0686 57.832 49.8606 58.12C49.6286 58.424 49.2926 58.584 48.8446 58.584C48.4606 58.584 48.1646 58.432 47.9406 58.144C47.7006 57.848 47.5886 57.464 47.5886 56.984V56.904C47.5886 56.44 47.6926 56.056 47.9006 55.768C48.1246 55.44 48.4526 55.28 48.8686 55.28ZM53.3641 54.752C52.7641 54.752 52.2921 54.968 51.9401 55.4C51.5881 55.808 51.4201 56.32 51.4201 56.928C51.4201 57.6 51.5961 58.128 51.9641 58.528C52.3161 58.912 52.7961 59.112 53.3881 59.112C53.9241 59.112 54.3641 58.952 54.7081 58.648C54.9881 58.392 55.1721 58.072 55.2681 57.672H54.6281C54.5241 57.96 54.3881 58.176 54.2121 58.32C54.0041 58.488 53.7241 58.576 53.3881 58.576C52.9961 58.576 52.6841 58.448 52.4601 58.192C52.2361 57.936 52.1161 57.576 52.0841 57.112H55.3481C55.3321 56.392 55.1721 55.824 54.8681 55.424C54.5321 54.976 54.0281 54.752 53.3641 54.752ZM53.3801 55.288C54.1641 55.288 54.6041 55.728 54.6841 56.616H52.1001C52.1401 56.208 52.2681 55.888 52.4921 55.648C52.7161 55.408 53.0121 55.288 53.3801 55.288ZM57.8816 54.752C57.2656 54.752 56.7776 54.968 56.4256 55.408C56.0976 55.808 55.9376 56.32 55.9376 56.952C55.9376 57.584 56.0976 58.096 56.4256 58.488C56.7696 58.904 57.2496 59.112 57.8736 59.112C58.3856 59.112 58.7936 58.976 59.1056 58.712C59.4256 58.44 59.6256 58.032 59.7216 57.504H59.0816C58.9856 58.216 58.5776 58.576 57.8736 58.576C57.4576 58.576 57.1376 58.424 56.9216 58.136C56.6976 57.848 56.5936 57.448 56.5936 56.944C56.5936 56.44 56.7056 56.04 56.9296 55.744C57.1616 55.44 57.4816 55.288 57.8816 55.288C58.2096 55.288 58.4736 55.36 58.6816 55.52C58.8816 55.68 59.0096 55.92 59.0656 56.24H59.6976C59.6256 55.736 59.4336 55.36 59.1136 55.112C58.8016 54.872 58.3936 54.752 57.8816 54.752ZM62.1286 53.288C61.7766 53.288 61.5046 53.384 61.3206 53.584C61.1446 53.776 61.0566 54.04 61.0566 54.392V54.864H60.0166V55.4H61.0566V59H61.6966V55.4H63.5846V59H64.2166V54.864H61.6966V54.408C61.6966 54.208 61.7366 54.064 61.8166 53.976C61.8966 53.88 62.0326 53.84 62.2086 53.84H62.9206V53.288H62.1286ZM67.1238 54.752C66.5078 54.752 66.0197 54.968 65.6678 55.408C65.3398 55.808 65.1798 56.32 65.1798 56.952C65.1798 57.584 65.3398 58.096 65.6678 58.488C66.0118 58.904 66.4918 59.112 67.1158 59.112C67.6278 59.112 68.0358 58.976 68.3478 58.712C68.6678 58.44 68.8678 58.032 68.9638 57.504H68.3238C68.2278 58.216 67.8198 58.576 67.1158 58.576C66.6998 58.576 66.3798 58.424 66.1638 58.136C65.9398 57.848 65.8358 57.448 65.8358 56.944C65.8358 56.44 65.9478 56.04 66.1718 55.744C66.4038 55.44 66.7238 55.288 67.1238 55.288C67.4518 55.288 67.7158 55.36 67.9238 55.52C68.1238 55.68 68.2518 55.92 68.3078 56.24H68.9398C68.8678 55.736 68.6758 55.36 68.3558 55.112C68.0438 54.872 67.6358 54.752 67.1238 54.752ZM72.9388 58.048C72.7948 58.048 72.6828 58.096 72.5948 58.192C72.4988 58.288 72.4508 58.4 72.4508 58.544C72.4508 58.68 72.4988 58.792 72.5948 58.888C72.6828 58.984 72.7948 59.032 72.9388 59.032C73.0668 59.032 73.1868 58.984 73.2828 58.888C73.3788 58.792 73.4268 58.68 73.4268 58.544C73.4268 58.4 73.3788 58.288 73.2828 58.192C73.1868 58.096 73.0668 58.048 72.9388 58.048ZM75.0482 58.048C74.9042 58.048 74.7922 58.096 74.7042 58.192C74.6082 58.288 74.5602 58.4 74.5602 58.544C74.5602 58.68 74.6082 58.792 74.7042 58.888C74.7922 58.984 74.9042 59.032 75.0482 59.032C75.1762 59.032 75.2962 58.984 75.3922 58.888C75.4882 58.792 75.5362 58.68 75.5362 58.544C75.5362 58.4 75.4882 58.288 75.3922 58.192C75.2962 58.096 75.1762 58.048 75.0482 58.048ZM77.1576 58.048C77.0136 58.048 76.9016 58.096 76.8136 58.192C76.7176 58.288 76.6696 58.4 76.6696 58.544C76.6696 58.68 76.7176 58.792 76.8136 58.888C76.9016 58.984 77.0136 59.032 77.1576 59.032C77.2856 59.032 77.4056 58.984 77.5016 58.888C77.5976 58.792 77.6456 58.68 77.6456 58.544C77.6456 58.4 77.5976 58.288 77.5016 58.192C77.4056 58.096 77.2856 58.048 77.1576 58.048Z" fill="#666666"/>
<path d="M123.04 53.176C122.16 53.176 121.472 53.472 120.992 54.08C120.552 54.624 120.336 55.32 120.336 56.168C120.336 57.016 120.544 57.704 120.976 58.232C121.448 58.816 122.128 59.112 123.016 59.112C123.624 59.112 124.152 58.936 124.592 58.592C125.064 58.224 125.36 57.704 125.488 57.04H124.856C124.744 57.536 124.512 57.912 124.176 58.168C123.856 58.408 123.472 58.528 123.016 58.528C122.344 58.528 121.84 58.304 121.488 57.864C121.152 57.448 120.992 56.88 120.992 56.168C120.992 55.456 121.16 54.888 121.496 54.456C121.856 53.992 122.368 53.76 123.032 53.76C123.48 53.76 123.856 53.864 124.168 54.08C124.488 54.304 124.696 54.624 124.776 55.04H125.408C125.328 54.472 125.072 54.016 124.64 53.68C124.208 53.344 123.672 53.176 123.04 53.176ZM128.316 53.176C127.724 53.176 127.236 53.304 126.86 53.56C126.436 53.832 126.228 54.224 126.228 54.72C126.228 55.2 126.444 55.568 126.884 55.824C127.068 55.92 127.508 56.08 128.196 56.288C128.836 56.472 129.244 56.608 129.404 56.704C129.78 56.904 129.972 57.184 129.972 57.544C129.972 57.848 129.828 58.088 129.54 58.264C129.252 58.44 128.868 58.528 128.404 58.528C127.892 58.528 127.508 58.416 127.244 58.208C126.956 57.976 126.78 57.608 126.724 57.112H126.076C126.124 57.816 126.372 58.336 126.82 58.68C127.204 58.968 127.732 59.112 128.404 59.112C129.084 59.112 129.62 58.968 130.02 58.688C130.42 58.4 130.62 58 130.62 57.504C130.62 56.984 130.38 56.584 129.908 56.296C129.668 56.152 129.172 55.968 128.42 55.744C127.868 55.584 127.516 55.464 127.372 55.384C127.044 55.208 126.884 54.976 126.884 54.688C126.884 54.36 127.02 54.12 127.292 53.96C127.532 53.816 127.86 53.752 128.284 53.752C128.748 53.752 129.108 53.848 129.364 54.056C129.612 54.256 129.772 54.56 129.844 54.976H130.492C130.436 54.376 130.22 53.92 129.836 53.616C129.468 53.32 128.956 53.176 128.316 53.176ZM133.371 53.176C132.779 53.176 132.291 53.304 131.915 53.56C131.491 53.832 131.283 54.224 131.283 54.72C131.283 55.2 131.499 55.568 131.939 55.824C132.123 55.92 132.563 56.08 133.251 56.288C133.891 56.472 134.299 56.608 134.459 56.704C134.835 56.904 135.027 57.184 135.027 57.544C135.027 57.848 134.883 58.088 134.595 58.264C134.307 58.44 133.923 58.528 133.459 58.528C132.947 58.528 132.563 58.416 132.299 58.208C132.011 57.976 131.835 57.608 131.779 57.112H131.131C131.179 57.816 131.427 58.336 131.875 58.68C132.259 58.968 132.787 59.112 133.459 59.112C134.139 59.112 134.675 58.968 135.075 58.688C135.475 58.4 135.675 58 135.675 57.504C135.675 56.984 135.435 56.584 134.963 56.296C134.723 56.152 134.227 55.968 133.475 55.744C132.923 55.584 132.571 55.464 132.427 55.384C132.099 55.208 131.939 54.976 131.939 54.688C131.939 54.36 132.075 54.12 132.347 53.96C132.587 53.816 132.915 53.752 133.339 53.752C133.803 53.752 134.163 53.848 134.419 54.056C134.667 54.256 134.827 54.56 134.899 54.976H135.547C135.491 54.376 135.275 53.92 134.891 53.616C134.523 53.32 134.011 53.176 133.371 53.176ZM139.618 53.304C139.482 53.304 139.37 53.344 139.274 53.44C139.178 53.52 139.138 53.632 139.138 53.776C139.138 53.912 139.178 54.024 139.274 54.12C139.37 54.208 139.482 54.256 139.618 54.256C139.754 54.256 139.866 54.208 139.962 54.12C140.058 54.024 140.106 53.912 140.106 53.776C140.106 53.632 140.058 53.52 139.962 53.44C139.866 53.344 139.754 53.304 139.618 53.304ZM139.298 54.864V59H139.938V54.864H139.298ZM142.601 54.752C142.137 54.752 141.753 54.856 141.465 55.064C141.153 55.272 141.001 55.544 141.001 55.896C141.001 56.248 141.153 56.512 141.473 56.704C141.665 56.832 142.009 56.952 142.497 57.072C142.945 57.184 143.241 57.272 143.377 57.336C143.633 57.464 143.769 57.64 143.769 57.872C143.769 58.336 143.393 58.576 142.657 58.576C142.305 58.576 142.041 58.512 141.865 58.384C141.689 58.24 141.569 58.008 141.521 57.68H140.897C140.993 58.632 141.585 59.112 142.673 59.112C143.841 59.112 144.425 58.68 144.425 57.832C144.425 57.472 144.257 57.192 143.929 56.984C143.713 56.848 143.361 56.72 142.865 56.6C142.449 56.488 142.161 56.4 142.009 56.328C141.769 56.208 141.657 56.056 141.657 55.88C141.657 55.696 141.745 55.552 141.921 55.448C142.081 55.336 142.305 55.288 142.593 55.288C142.921 55.288 143.177 55.352 143.353 55.48C143.513 55.592 143.617 55.784 143.673 56.04H144.297C144.185 55.176 143.625 54.752 142.601 54.752ZM149.64 54.752C149.144 54.752 148.752 54.848 148.448 55.04C148.112 55.248 147.896 55.576 147.808 56.008L148.44 56.056C148.504 55.792 148.64 55.592 148.856 55.464C149.048 55.336 149.296 55.28 149.6 55.28C150.32 55.28 150.68 55.624 150.68 56.32V56.536L149.688 56.552C149.064 56.56 148.584 56.68 148.248 56.904C147.864 57.144 147.68 57.496 147.68 57.968C147.68 58.304 147.808 58.584 148.064 58.8C148.312 59.008 148.64 59.112 149.056 59.112C149.44 59.112 149.784 59.024 150.088 58.856C150.344 58.712 150.56 58.528 150.72 58.304V59H151.32V56.344C151.32 55.864 151.192 55.488 150.952 55.216C150.664 54.904 150.232 54.752 149.64 54.752ZM150.68 57.016V57.368C150.68 57.688 150.528 57.976 150.232 58.224C149.928 58.48 149.584 58.608 149.192 58.608C148.936 58.608 148.728 58.544 148.568 58.424C148.408 58.296 148.336 58.144 148.336 57.952C148.336 57.352 148.8 57.048 149.728 57.032L150.68 57.016ZM156.437 54.752C155.973 54.752 155.589 54.856 155.301 55.064C154.989 55.272 154.837 55.544 154.837 55.896C154.837 56.248 154.989 56.512 155.309 56.704C155.501 56.832 155.845 56.952 156.333 57.072C156.781 57.184 157.077 57.272 157.213 57.336C157.469 57.464 157.605 57.64 157.605 57.872C157.605 58.336 157.229 58.576 156.493 58.576C156.141 58.576 155.877 58.512 155.701 58.384C155.525 58.24 155.405 58.008 155.357 57.68H154.733C154.829 58.632 155.421 59.112 156.509 59.112C157.677 59.112 158.261 58.68 158.261 57.832C158.261 57.472 158.093 57.192 157.765 56.984C157.549 56.848 157.197 56.72 156.701 56.6C156.285 56.488 155.997 56.4 155.845 56.328C155.605 56.208 155.493 56.056 155.493 55.88C155.493 55.696 155.581 55.552 155.757 55.448C155.917 55.336 156.141 55.288 156.429 55.288C156.757 55.288 157.013 55.352 157.189 55.48C157.349 55.592 157.453 55.784 157.509 56.04H158.133C158.021 55.176 157.461 54.752 156.437 54.752ZM160.988 54.752C160.364 54.752 159.908 55.016 159.612 55.544V54.864H159.012V60.584H159.652V58.248C159.972 58.824 160.428 59.112 161.02 59.112C161.612 59.112 162.068 58.888 162.404 58.456C162.708 58.056 162.868 57.552 162.868 56.944C162.868 56.32 162.708 55.816 162.396 55.416C162.052 54.968 161.58 54.752 160.988 54.752ZM160.908 55.28C161.348 55.28 161.684 55.44 161.916 55.776C162.108 56.064 162.212 56.456 162.212 56.944C162.212 57.44 162.108 57.832 161.9 58.12C161.668 58.424 161.332 58.584 160.884 58.584C160.5 58.584 160.204 58.432 159.98 58.144C159.74 57.848 159.628 57.464 159.628 56.984V56.904C159.628 56.44 159.732 56.056 159.94 55.768C160.164 55.44 160.492 55.28 160.908 55.28ZM165.403 54.752C164.803 54.752 164.331 54.968 163.979 55.4C163.627 55.808 163.459 56.32 163.459 56.928C163.459 57.6 163.635 58.128 164.003 58.528C164.355 58.912 164.835 59.112 165.427 59.112C165.963 59.112 166.403 58.952 166.747 58.648C167.027 58.392 167.211 58.072 167.307 57.672H166.667C166.563 57.96 166.427 58.176 166.251 58.32C166.043 58.488 165.763 58.576 165.427 58.576C165.035 58.576 164.723 58.448 164.499 58.192C164.275 57.936 164.155 57.576 164.123 57.112H167.387C167.371 56.392 167.211 55.824 166.907 55.424C166.571 54.976 166.067 54.752 165.403 54.752ZM165.419 55.288C166.203 55.288 166.643 55.728 166.723 56.616H164.139C164.179 56.208 164.307 55.888 164.531 55.648C164.755 55.408 165.051 55.288 165.419 55.288ZM169.921 54.752C169.305 54.752 168.817 54.968 168.465 55.408C168.137 55.808 167.977 56.32 167.977 56.952C167.977 57.584 168.137 58.096 168.465 58.488C168.809 58.904 169.289 59.112 169.913 59.112C170.425 59.112 170.833 58.976 171.145 58.712C171.465 58.44 171.665 58.032 171.761 57.504H171.121C171.025 58.216 170.617 58.576 169.913 58.576C169.497 58.576 169.177 58.424 168.961 58.136C168.737 57.848 168.633 57.448 168.633 56.944C168.633 56.44 168.745 56.04 168.969 55.744C169.201 55.44 169.521 55.288 169.921 55.288C170.249 55.288 170.513 55.36 170.721 55.52C170.921 55.68 171.049 55.92 171.105 56.24H171.737C171.665 55.736 171.473 55.36 171.153 55.112C170.841 54.872 170.433 54.752 169.921 54.752ZM174.168 53.288C173.816 53.288 173.544 53.384 173.36 53.584C173.184 53.776 173.096 54.04 173.096 54.392V54.864H172.056V55.4H173.096V59H173.736V55.4H175.624V59H176.256V54.864H173.736V54.408C173.736 54.208 173.776 54.064 173.856 53.976C173.936 53.88 174.072 53.84 174.248 53.84H174.96V53.288H174.168ZM179.163 54.752C178.547 54.752 178.059 54.968 177.707 55.408C177.379 55.808 177.219 56.32 177.219 56.952C177.219 57.584 177.379 58.096 177.707 58.488C178.051 58.904 178.531 59.112 179.155 59.112C179.667 59.112 180.075 58.976 180.387 58.712C180.707 58.44 180.907 58.032 181.003 57.504H180.363C180.267 58.216 179.859 58.576 179.155 58.576C178.739 58.576 178.419 58.424 178.203 58.136C177.979 57.848 177.875 57.448 177.875 56.944C177.875 56.44 177.987 56.04 178.211 55.744C178.443 55.44 178.763 55.288 179.163 55.288C179.491 55.288 179.755 55.36 179.963 55.52C180.163 55.68 180.291 55.92 180.347 56.24H180.979C180.907 55.736 180.715 55.36 180.395 55.112C180.083 54.872 179.675 54.752 179.163 54.752ZM184.978 58.048C184.834 58.048 184.722 58.096 184.634 58.192C184.538 58.288 184.49 58.4 184.49 58.544C184.49 58.68 184.538 58.792 184.634 58.888C184.722 58.984 184.834 59.032 184.978 59.032C185.106 59.032 185.226 58.984 185.322 58.888C185.418 58.792 185.466 58.68 185.466 58.544C185.466 58.4 185.418 58.288 185.322 58.192C185.226 58.096 185.106 58.048 184.978 58.048ZM187.087 58.048C186.943 58.048 186.831 58.096 186.743 58.192C186.647 58.288 186.599 58.4 186.599 58.544C186.599 58.68 186.647 58.792 186.743 58.888C186.831 58.984 186.943 59.032 187.087 59.032C187.215 59.032 187.335 58.984 187.431 58.888C187.527 58.792 187.575 58.68 187.575 58.544C187.575 58.4 187.527 58.288 187.431 58.192C187.335 58.096 187.215 58.048 187.087 58.048ZM189.197 58.048C189.053 58.048 188.941 58.096 188.853 58.192C188.757 58.288 188.709 58.4 188.709 58.544C188.709 58.68 188.757 58.792 188.853 58.888C188.941 58.984 189.053 59.032 189.197 59.032C189.325 59.032 189.445 58.984 189.541 58.888C189.637 58.792 189.685 58.68 189.685 58.544C189.685 58.4 189.637 58.288 189.541 58.192C189.445 58.096 189.325 58.048 189.197 58.048Z" fill="#666666"/>
<path d="M10.912 91.288V95.152C10.912 95.624 10.824 95.968 10.656 96.184C10.48 96.408 10.2 96.528 9.816 96.528C9.12 96.528 8.776 96.136 8.776 95.368V95.176H8.12V95.376C8.12 95.936 8.264 96.368 8.568 96.672C8.856 96.96 9.264 97.112 9.8 97.112C10.432 97.112 10.896 96.936 11.184 96.584C11.44 96.264 11.568 95.8 11.568 95.176V91.288H10.912ZM14.6288 91.176C14.0368 91.176 13.5488 91.304 13.1728 91.56C12.7488 91.832 12.5408 92.224 12.5408 92.72C12.5408 93.2 12.7568 93.568 13.1968 93.824C13.3808 93.92 13.8208 94.08 14.5088 94.288C15.1488 94.472 15.5568 94.608 15.7168 94.704C16.0928 94.904 16.2848 95.184 16.2848 95.544C16.2848 95.848 16.1408 96.088 15.8528 96.264C15.5648 96.44 15.1808 96.528 14.7168 96.528C14.2048 96.528 13.8208 96.416 13.5568 96.208C13.2688 95.976 13.0928 95.608 13.0368 95.112H12.3888C12.4368 95.816 12.6848 96.336 13.1328 96.68C13.5168 96.968 14.0448 97.112 14.7168 97.112C15.3968 97.112 15.9328 96.968 16.3328 96.688C16.7328 96.4 16.9328 96 16.9328 95.504C16.9328 94.984 16.6928 94.584 16.2208 94.296C15.9808 94.152 15.4848 93.968 14.7328 93.744C14.1808 93.584 13.8288 93.464 13.6848 93.384C13.3568 93.208 13.1968 92.976 13.1968 92.688C13.1968 92.36 13.3328 92.12 13.6048 91.96C13.8448 91.816 14.1728 91.752 14.5968 91.752C15.0608 91.752 15.4208 91.848 15.6768 92.056C15.9248 92.256 16.0848 92.56 16.1568 92.976H16.8048C16.7488 92.376 16.5328 91.92 16.1488 91.616C15.7808 91.32 15.2688 91.176 14.6288 91.176ZM20.2595 91.176C19.3955 91.176 18.7235 91.464 18.2275 92.04C17.7555 92.584 17.5235 93.288 17.5235 94.152C17.5235 95.008 17.7555 95.712 18.2275 96.256C18.7235 96.824 19.3955 97.112 20.2515 97.112C21.1075 97.112 21.7875 96.824 22.2835 96.256C22.7475 95.712 22.9875 95.016 22.9875 94.152C22.9875 93.28 22.7475 92.576 22.2835 92.032C21.7875 91.456 21.1075 91.176 20.2595 91.176ZM20.2595 91.76C20.9155 91.76 21.4275 91.976 21.7955 92.416C22.1475 92.848 22.3315 93.424 22.3315 94.152C22.3315 94.872 22.1475 95.44 21.7955 95.872C21.4275 96.304 20.9075 96.528 20.2515 96.528C19.5955 96.528 19.0755 96.304 18.7075 95.856C18.3555 95.424 18.1795 94.856 18.1795 94.152C18.1795 93.44 18.3555 92.872 18.7075 92.44C19.0835 91.984 19.6035 91.76 20.2595 91.76ZM23.8963 91.288V97H24.5523V92.304H24.5763L27.8243 97H28.4963V91.288H27.8403V95.936H27.8163L24.5843 91.288H23.8963ZM32.7584 91.304C32.6224 91.304 32.5104 91.344 32.4144 91.44C32.3184 91.52 32.2784 91.632 32.2784 91.776C32.2784 91.912 32.3184 92.024 32.4144 92.12C32.5104 92.208 32.6224 92.256 32.7584 92.256C32.8944 92.256 33.0064 92.208 33.1024 92.12C33.1984 92.024 33.2464 91.912 33.2464 91.776C33.2464 91.632 33.1984 91.52 33.1024 91.44C33.0064 91.344 32.8944 91.304 32.7584 91.304ZM32.4384 92.864V97H33.0784V92.864H32.4384ZM35.7413 92.752C35.2773 92.752 34.8933 92.856 34.6053 93.064C34.2933 93.272 34.1413 93.544 34.1413 93.896C34.1413 94.248 34.2933 94.512 34.6133 94.704C34.8053 94.832 35.1493 94.952 35.6373 95.072C36.0853 95.184 36.3813 95.272 36.5173 95.336C36.7733 95.464 36.9093 95.64 36.9093 95.872C36.9093 96.336 36.5333 96.576 35.7973 96.576C35.4453 96.576 35.1813 96.512 35.0053 96.384C34.8293 96.24 34.7093 96.008 34.6613 95.68H34.0373C34.1333 96.632 34.7253 97.112 35.8133 97.112C36.9813 97.112 37.5653 96.68 37.5653 95.832C37.5653 95.472 37.3973 95.192 37.0693 94.984C36.8533 94.848 36.5013 94.72 36.0053 94.6C35.5893 94.488 35.3013 94.4 35.1493 94.328C34.9093 94.208 34.7973 94.056 34.7973 93.88C34.7973 93.696 34.8853 93.552 35.0613 93.448C35.2213 93.336 35.4453 93.288 35.7333 93.288C36.0613 93.288 36.3173 93.352 36.4933 93.48C36.6533 93.592 36.7573 93.784 36.8133 94.04H37.4373C37.3253 93.176 36.7653 92.752 35.7413 92.752ZM42.7804 92.752C42.2844 92.752 41.8924 92.848 41.5884 93.04C41.2524 93.248 41.0364 93.576 40.9484 94.008L41.5804 94.056C41.6444 93.792 41.7804 93.592 41.9964 93.464C42.1884 93.336 42.4364 93.28 42.7404 93.28C43.4604 93.28 43.8204 93.624 43.8204 94.32V94.536L42.8284 94.552C42.2044 94.56 41.7244 94.68 41.3884 94.904C41.0044 95.144 40.8204 95.496 40.8204 95.968C40.8204 96.304 40.9484 96.584 41.2044 96.8C41.4524 97.008 41.7804 97.112 42.1964 97.112C42.5804 97.112 42.9244 97.024 43.2284 96.856C43.4844 96.712 43.7004 96.528 43.8604 96.304V97H44.4604V94.344C44.4604 93.864 44.3324 93.488 44.0924 93.216C43.8044 92.904 43.3724 92.752 42.7804 92.752ZM43.8204 95.016V95.368C43.8204 95.688 43.6684 95.976 43.3724 96.224C43.0684 96.48 42.7244 96.608 42.3324 96.608C42.0764 96.608 41.8684 96.544 41.7084 96.424C41.5484 96.296 41.4764 96.144 41.4764 95.952C41.4764 95.352 41.9404 95.048 42.8684 95.032L43.8204 95.016ZM49.5772 92.752C49.1132 92.752 48.7292 92.856 48.4412 93.064C48.1292 93.272 47.9772 93.544 47.9772 93.896C47.9772 94.248 48.1292 94.512 48.4492 94.704C48.6412 94.832 48.9852 94.952 49.4732 95.072C49.9212 95.184 50.2172 95.272 50.3532 95.336C50.6092 95.464 50.7452 95.64 50.7452 95.872C50.7452 96.336 50.3692 96.576 49.6332 96.576C49.2812 96.576 49.0172 96.512 48.8412 96.384C48.6652 96.24 48.5452 96.008 48.4972 95.68H47.8732C47.9692 96.632 48.5612 97.112 49.6492 97.112C50.8172 97.112 51.4012 96.68 51.4012 95.832C51.4012 95.472 51.2332 95.192 50.9052 94.984C50.6892 94.848 50.3372 94.72 49.8412 94.6C49.4252 94.488 49.1372 94.4 48.9852 94.328C48.7452 94.208 48.6332 94.056 48.6332 93.88C48.6332 93.696 48.7212 93.552 48.8972 93.448C49.0572 93.336 49.2812 93.288 49.5692 93.288C49.8972 93.288 50.1532 93.352 50.3292 93.48C50.4892 93.592 50.5932 93.784 50.6492 94.04H51.2732C51.1612 93.176 50.6012 92.752 49.5772 92.752ZM54.1283 92.752C53.5043 92.752 53.0483 93.016 52.7523 93.544V92.864H52.1523V98.584H52.7923V96.248C53.1123 96.824 53.5683 97.112 54.1603 97.112C54.7523 97.112 55.2083 96.888 55.5443 96.456C55.8483 96.056 56.0083 95.552 56.0083 94.944C56.0083 94.32 55.8483 93.816 55.5363 93.416C55.1923 92.968 54.7203 92.752 54.1283 92.752ZM54.0483 93.28C54.4883 93.28 54.8243 93.44 55.0563 93.776C55.2483 94.064 55.3523 94.456 55.3523 94.944C55.3523 95.44 55.2483 95.832 55.0403 96.12C54.8083 96.424 54.4723 96.584 54.0243 96.584C53.6403 96.584 53.3443 96.432 53.1203 96.144C52.8803 95.848 52.7683 95.464 52.7683 94.984V94.904C52.7683 94.44 52.8723 94.056 53.0803 93.768C53.3043 93.44 53.6323 93.28 54.0483 93.28ZM58.5438 92.752C57.9438 92.752 57.4718 92.968 57.1198 93.4C56.7678 93.808 56.5998 94.32 56.5998 94.928C56.5998 95.6 56.7758 96.128 57.1438 96.528C57.4958 96.912 57.9758 97.112 58.5678 97.112C59.1038 97.112 59.5438 96.952 59.8878 96.648C60.1678 96.392 60.3518 96.072 60.4478 95.672H59.8078C59.7038 95.96 59.5678 96.176 59.3918 96.32C59.1838 96.488 58.9038 96.576 58.5678 96.576C58.1758 96.576 57.8638 96.448 57.6398 96.192C57.4158 95.936 57.2958 95.576 57.2638 95.112H60.5278C60.5118 94.392 60.3518 93.824 60.0478 93.424C59.7118 92.976 59.2078 92.752 58.5438 92.752ZM58.5598 93.288C59.3438 93.288 59.7838 93.728 59.8638 94.616H57.2798C57.3198 94.208 57.4478 93.888 57.6718 93.648C57.8958 93.408 58.1918 93.288 58.5598 93.288ZM63.0613 92.752C62.4453 92.752 61.9572 92.968 61.6053 93.408C61.2773 93.808 61.1173 94.32 61.1173 94.952C61.1173 95.584 61.2773 96.096 61.6053 96.488C61.9493 96.904 62.4293 97.112 63.0533 97.112C63.5653 97.112 63.9733 96.976 64.2853 96.712C64.6053 96.44 64.8053 96.032 64.9013 95.504H64.2613C64.1653 96.216 63.7573 96.576 63.0533 96.576C62.6373 96.576 62.3173 96.424 62.1013 96.136C61.8773 95.848 61.7733 95.448 61.7733 94.944C61.7733 94.44 61.8853 94.04 62.1093 93.744C62.3413 93.44 62.6613 93.288 63.0613 93.288C63.3893 93.288 63.6533 93.36 63.8613 93.52C64.0613 93.68 64.1893 93.92 64.2453 94.24H64.8773C64.8053 93.736 64.6133 93.36 64.2933 93.112C63.9813 92.872 63.5733 92.752 63.0613 92.752ZM67.3083 91.288C66.9563 91.288 66.6843 91.384 66.5003 91.584C66.3243 91.776 66.2363 92.04 66.2363 92.392V92.864H65.1963V93.4H66.2363V97H66.8763V93.4H68.7643V97H69.3963V92.864H66.8763V92.408C66.8763 92.208 66.9163 92.064 66.9963 91.976C67.0763 91.88 67.2122 91.84 67.3883 91.84H68.1003V91.288H67.3083ZM72.3034 92.752C71.6874 92.752 71.1994 92.968 70.8474 93.408C70.5194 93.808 70.3594 94.32 70.3594 94.952C70.3594 95.584 70.5194 96.096 70.8474 96.488C71.1914 96.904 71.6714 97.112 72.2954 97.112C72.8074 97.112 73.2154 96.976 73.5274 96.712C73.8474 96.44 74.0474 96.032 74.1434 95.504H73.5034C73.4074 96.216 72.9994 96.576 72.2954 96.576C71.8794 96.576 71.5594 96.424 71.3434 96.136C71.1194 95.848 71.0154 95.448 71.0154 94.944C71.0154 94.44 71.1274 94.04 71.3514 93.744C71.5834 93.44 71.9034 93.288 72.3034 93.288C72.6314 93.288 72.8954 93.36 73.1034 93.52C73.3034 93.68 73.4314 93.92 73.4874 94.24H74.1194C74.0474 93.736 73.8554 93.36 73.5354 93.112C73.2234 92.872 72.8154 92.752 72.3034 92.752ZM78.1185 96.048C77.9745 96.048 77.8625 96.096 77.7745 96.192C77.6785 96.288 77.6305 96.4 77.6305 96.544C77.6305 96.68 77.6785 96.792 77.7745 96.888C77.8625 96.984 77.9745 97.032 78.1185 97.032C78.2465 97.032 78.3665 96.984 78.4625 96.888C78.5585 96.792 78.6065 96.68 78.6065 96.544C78.6065 96.4 78.5585 96.288 78.4625 96.192C78.3665 96.096 78.2465 96.048 78.1185 96.048ZM80.2279 96.048C80.0839 96.048 79.9719 96.096 79.8839 96.192C79.7879 96.288 79.7399 96.4 79.7399 96.544C79.7399 96.68 79.7879 96.792 79.8839 96.888C79.9719 96.984 80.0839 97.032 80.2279 97.032C80.3559 97.032 80.4759 96.984 80.5719 96.888C80.6679 96.792 80.7159 96.68 80.7159 96.544C80.7159 96.4 80.6679 96.288 80.5719 96.192C80.4759 96.096 80.3559 96.048 80.2279 96.048ZM82.3372 96.048C82.1933 96.048 82.0813 96.096 81.9933 96.192C81.8973 96.288 81.8493 96.4 81.8493 96.544C81.8493 96.68 81.8973 96.792 81.9933 96.888C82.0813 96.984 82.1933 97.032 82.3372 97.032C82.4653 97.032 82.5853 96.984 82.6813 96.888C82.7773 96.792 82.8253 96.68 82.8253 96.544C82.8253 96.4 82.7773 96.288 82.6813 96.192C82.5853 96.096 82.4653 96.048 82.3372 96.048Z" fill="#666666"/>
<path d="M120.576 91.288V97H121.232V94.336H124.536V97H125.192V91.288H124.536V93.768H121.232V91.288H120.576ZM125.894 91.288V91.856H127.91V97H128.558V91.856H130.574V91.288H125.894ZM131.287 91.288V97H131.943V92.456H131.967L133.943 97H134.535L136.511 92.456H136.535V97H137.191V91.288H136.375L134.255 96.16H134.231L132.103 91.288H131.287ZM138.342 91.288V97H142.294V96.432H138.99V91.288H138.342ZM146.157 91.304C146.021 91.304 145.909 91.344 145.813 91.44C145.717 91.52 145.677 91.632 145.677 91.776C145.677 91.912 145.717 92.024 145.813 92.12C145.909 92.208 146.021 92.256 146.157 92.256C146.293 92.256 146.405 92.208 146.501 92.12C146.597 92.024 146.645 91.912 146.645 91.776C146.645 91.632 146.597 91.52 146.501 91.44C146.405 91.344 146.293 91.304 146.157 91.304ZM145.837 92.864V97H146.477V92.864H145.837ZM149.14 92.752C148.676 92.752 148.292 92.856 148.004 93.064C147.692 93.272 147.54 93.544 147.54 93.896C147.54 94.248 147.692 94.512 148.012 94.704C148.204 94.832 148.548 94.952 149.036 95.072C149.484 95.184 149.78 95.272 149.916 95.336C150.172 95.464 150.308 95.64 150.308 95.872C150.308 96.336 149.932 96.576 149.196 96.576C148.844 96.576 148.58 96.512 148.404 96.384C148.228 96.24 148.108 96.008 148.06 95.68H147.436C147.532 96.632 148.124 97.112 149.212 97.112C150.38 97.112 150.964 96.68 150.964 95.832C150.964 95.472 150.796 95.192 150.468 94.984C150.252 94.848 149.9 94.72 149.404 94.6C148.988 94.488 148.7 94.4 148.548 94.328C148.308 94.208 148.196 94.056 148.196 93.88C148.196 93.696 148.284 93.552 148.46 93.448C148.62 93.336 148.844 93.288 149.132 93.288C149.46 93.288 149.716 93.352 149.892 93.48C150.052 93.592 150.156 93.784 150.212 94.04H150.836C150.724 93.176 150.164 92.752 149.14 92.752ZM156.179 92.752C155.683 92.752 155.291 92.848 154.987 93.04C154.651 93.248 154.435 93.576 154.347 94.008L154.979 94.056C155.043 93.792 155.179 93.592 155.395 93.464C155.587 93.336 155.835 93.28 156.139 93.28C156.859 93.28 157.219 93.624 157.219 94.32V94.536L156.227 94.552C155.603 94.56 155.123 94.68 154.787 94.904C154.403 95.144 154.219 95.496 154.219 95.968C154.219 96.304 154.347 96.584 154.603 96.8C154.851 97.008 155.179 97.112 155.595 97.112C155.979 97.112 156.323 97.024 156.627 96.856C156.883 96.712 157.099 96.528 157.259 96.304V97H157.859V94.344C157.859 93.864 157.731 93.488 157.491 93.216C157.203 92.904 156.771 92.752 156.179 92.752ZM157.219 95.016V95.368C157.219 95.688 157.067 95.976 156.771 96.224C156.467 96.48 156.123 96.608 155.731 96.608C155.475 96.608 155.267 96.544 155.107 96.424C154.947 96.296 154.875 96.144 154.875 95.952C154.875 95.352 155.339 95.048 156.267 95.032L157.219 95.016ZM162.976 92.752C162.512 92.752 162.128 92.856 161.84 93.064C161.528 93.272 161.376 93.544 161.376 93.896C161.376 94.248 161.528 94.512 161.848 94.704C162.04 94.832 162.384 94.952 162.872 95.072C163.32 95.184 163.616 95.272 163.752 95.336C164.008 95.464 164.144 95.64 164.144 95.872C164.144 96.336 163.768 96.576 163.032 96.576C162.68 96.576 162.416 96.512 162.24 96.384C162.064 96.24 161.944 96.008 161.896 95.68H161.272C161.368 96.632 161.96 97.112 163.048 97.112C164.216 97.112 164.8 96.68 164.8 95.832C164.8 95.472 164.632 95.192 164.304 94.984C164.088 94.848 163.736 94.72 163.24 94.6C162.824 94.488 162.536 94.4 162.384 94.328C162.144 94.208 162.032 94.056 162.032 93.88C162.032 93.696 162.12 93.552 162.296 93.448C162.456 93.336 162.68 93.288 162.968 93.288C163.296 93.288 163.552 93.352 163.728 93.48C163.888 93.592 163.992 93.784 164.048 94.04H164.672C164.56 93.176 164 92.752 162.976 92.752ZM167.527 92.752C166.903 92.752 166.447 93.016 166.151 93.544V92.864H165.551V98.584H166.191V96.248C166.511 96.824 166.967 97.112 167.559 97.112C168.151 97.112 168.607 96.888 168.943 96.456C169.247 96.056 169.407 95.552 169.407 94.944C169.407 94.32 169.247 93.816 168.935 93.416C168.591 92.968 168.119 92.752 167.527 92.752ZM167.447 93.28C167.887 93.28 168.223 93.44 168.455 93.776C168.647 94.064 168.751 94.456 168.751 94.944C168.751 95.44 168.647 95.832 168.439 96.12C168.207 96.424 167.871 96.584 167.423 96.584C167.039 96.584 166.743 96.432 166.519 96.144C166.279 95.848 166.167 95.464 166.167 94.984V94.904C166.167 94.44 166.271 94.056 166.479 93.768C166.703 93.44 167.031 93.28 167.447 93.28ZM171.942 92.752C171.342 92.752 170.87 92.968 170.518 93.4C170.166 93.808 169.998 94.32 169.998 94.928C169.998 95.6 170.174 96.128 170.542 96.528C170.894 96.912 171.374 97.112 171.966 97.112C172.502 97.112 172.942 96.952 173.286 96.648C173.566 96.392 173.75 96.072 173.846 95.672H173.206C173.102 95.96 172.966 96.176 172.79 96.32C172.582 96.488 172.302 96.576 171.966 96.576C171.574 96.576 171.262 96.448 171.038 96.192C170.814 95.936 170.694 95.576 170.662 95.112H173.926C173.91 94.392 173.75 93.824 173.446 93.424C173.11 92.976 172.606 92.752 171.942 92.752ZM171.958 93.288C172.742 93.288 173.182 93.728 173.262 94.616H170.678C170.718 94.208 170.846 93.888 171.07 93.648C171.294 93.408 171.59 93.288 171.958 93.288ZM176.46 92.752C175.844 92.752 175.356 92.968 175.004 93.408C174.676 93.808 174.516 94.32 174.516 94.952C174.516 95.584 174.676 96.096 175.004 96.488C175.348 96.904 175.828 97.112 176.452 97.112C176.964 97.112 177.372 96.976 177.684 96.712C178.004 96.44 178.204 96.032 178.3 95.504H177.66C177.564 96.216 177.156 96.576 176.452 96.576C176.036 96.576 175.716 96.424 175.5 96.136C175.276 95.848 175.172 95.448 175.172 94.944C175.172 94.44 175.284 94.04 175.508 93.744C175.74 93.44 176.06 93.288 176.46 93.288C176.788 93.288 177.052 93.36 177.26 93.52C177.46 93.68 177.588 93.92 177.644 94.24H178.276C178.204 93.736 178.012 93.36 177.692 93.112C177.38 92.872 176.972 92.752 176.46 92.752ZM180.707 91.288C180.355 91.288 180.083 91.384 179.899 91.584C179.723 91.776 179.635 92.04 179.635 92.392V92.864H178.595V93.4H179.635V97H180.275V93.4H182.163V97H182.795V92.864H180.275V92.408C180.275 92.208 180.315 92.064 180.395 91.976C180.475 91.88 180.611 91.84 180.787 91.84H181.499V91.288H180.707ZM185.702 92.752C185.086 92.752 184.598 92.968 184.246 93.408C183.918 93.808 183.758 94.32 183.758 94.952C183.758 95.584 183.918 96.096 184.246 96.488C184.59 96.904 185.07 97.112 185.694 97.112C186.206 97.112 186.614 96.976 186.926 96.712C187.246 96.44 187.446 96.032 187.542 95.504H186.902C186.806 96.216 186.398 96.576 185.694 96.576C185.278 96.576 184.958 96.424 184.742 96.136C184.518 95.848 184.414 95.448 184.414 94.944C184.414 94.44 184.526 94.04 184.75 93.744C184.982 93.44 185.302 93.288 185.702 93.288C186.03 93.288 186.294 93.36 186.502 93.52C186.702 93.68 186.83 93.92 186.886 94.24H187.518C187.446 93.736 187.254 93.36 186.934 93.112C186.622 92.872 186.214 92.752 185.702 92.752ZM191.517 96.048C191.373 96.048 191.261 96.096 191.173 96.192C191.077 96.288 191.029 96.4 191.029 96.544C191.029 96.68 191.077 96.792 191.173 96.888C191.261 96.984 191.373 97.032 191.517 97.032C191.645 97.032 191.765 96.984 191.861 96.888C191.957 96.792 192.005 96.68 192.005 96.544C192.005 96.4 191.957 96.288 191.861 96.192C191.765 96.096 191.645 96.048 191.517 96.048ZM193.626 96.048C193.482 96.048 193.37 96.096 193.282 96.192C193.186 96.288 193.138 96.4 193.138 96.544C193.138 96.68 193.186 96.792 193.282 96.888C193.37 96.984 193.482 97.032 193.626 97.032C193.754 97.032 193.874 96.984 193.97 96.888C194.066 96.792 194.114 96.68 194.114 96.544C194.114 96.4 194.066 96.288 193.97 96.192C193.874 96.096 193.754 96.048 193.626 96.048ZM195.736 96.048C195.592 96.048 195.48 96.096 195.392 96.192C195.296 96.288 195.248 96.4 195.248 96.544C195.248 96.68 195.296 96.792 195.392 96.888C195.48 96.984 195.592 97.032 195.736 97.032C195.864 97.032 195.984 96.984 196.08 96.888C196.176 96.792 196.224 96.68 196.224 96.544C196.224 96.4 196.176 96.288 196.08 96.192C195.984 96.096 195.864 96.048 195.736 96.048Z" fill="#666666"/>
<path d="M123.8 36.72C122.66 36.72 121.8 37.09 121.2 37.85C120.66 38.52 120.4 39.38 120.4 40.44C120.4 41.52 120.65 42.38 121.17 43.02C121.76 43.76 122.64 44.14 123.81 44.14C124.58 44.14 125.24 43.92 125.79 43.48C126.38 43.01 126.75 42.36 126.91 41.53H125.85C125.71 42.09 125.46 42.51 125.1 42.79C124.76 43.05 124.32 43.18 123.8 43.18C123 43.18 122.41 42.93 122.03 42.43C121.67 41.96 121.49 41.3 121.49 40.44C121.49 39.61 121.67 38.95 122.04 38.47C122.43 37.94 123.01 37.68 123.78 37.68C124.3 37.68 124.72 37.79 125.06 38.02C125.4 38.25 125.63 38.61 125.75 39.09H126.81C126.7 38.37 126.38 37.79 125.86 37.37C125.32 36.93 124.63 36.72 123.8 36.72ZM130.514 36.72C129.754 36.72 129.124 36.89 128.624 37.23C128.094 37.59 127.834 38.08 127.834 38.71C127.834 39.33 128.104 39.81 128.654 40.14C128.874 40.26 129.414 40.45 130.294 40.73C131.084 40.97 131.554 41.13 131.714 41.21C132.164 41.44 132.394 41.75 132.394 42.15C132.394 42.47 132.234 42.72 131.914 42.9C131.594 43.08 131.164 43.18 130.624 43.18C130.024 43.18 129.584 43.07 129.294 42.85C128.974 42.61 128.774 42.2 128.694 41.64H127.614C127.674 42.54 127.994 43.2 128.584 43.62C129.074 43.96 129.754 44.14 130.624 44.14C131.524 44.14 132.224 43.96 132.724 43.6C133.224 43.23 133.474 42.73 133.474 42.09C133.474 41.43 133.164 40.92 132.554 40.55C132.274 40.38 131.644 40.15 130.684 39.85C130.014 39.65 129.604 39.5 129.444 39.41C129.084 39.22 128.914 38.97 128.914 38.65C128.914 38.29 129.064 38.03 129.374 37.87C129.624 37.73 129.984 37.66 130.454 37.66C130.994 37.66 131.394 37.76 131.674 37.97C131.954 38.17 132.134 38.51 132.234 38.97H133.314C133.244 38.19 132.964 37.62 132.464 37.25C131.994 36.89 131.344 36.72 130.514 36.72ZM136.989 36.72C136.229 36.72 135.599 36.89 135.099 37.23C134.569 37.59 134.309 38.08 134.309 38.71C134.309 39.33 134.579 39.81 135.129 40.14C135.349 40.26 135.889 40.45 136.769 40.73C137.559 40.97 138.029 41.13 138.189 41.21C138.639 41.44 138.869 41.75 138.869 42.15C138.869 42.47 138.709 42.72 138.389 42.9C138.069 43.08 137.639 43.18 137.099 43.18C136.499 43.18 136.059 43.07 135.769 42.85C135.449 42.61 135.249 42.2 135.169 41.64H134.089C134.149 42.54 134.469 43.2 135.059 43.62C135.549 43.96 136.229 44.14 137.099 44.14C137.999 44.14 138.699 43.96 139.199 43.6C139.699 43.23 139.949 42.73 139.949 42.09C139.949 41.43 139.639 40.92 139.029 40.55C138.749 40.38 138.119 40.15 137.159 39.85C136.489 39.65 136.079 39.5 135.919 39.41C135.559 39.22 135.389 38.97 135.389 38.65C135.389 38.29 135.539 38.03 135.849 37.87C136.099 37.73 136.459 37.66 136.929 37.66C137.469 37.66 137.869 37.76 138.149 37.97C138.429 38.17 138.609 38.51 138.709 38.97H139.789C139.719 38.19 139.439 37.62 138.939 37.25C138.469 36.89 137.819 36.72 136.989 36.72Z" fill="#666666"/>
<path d="M11.54 74.86V79.66C11.54 80.19 11.44 80.57 11.26 80.81C11.07 81.05 10.77 81.18 10.35 81.18C9.61 81.18 9.24 80.75 9.24 79.9V79.67H8.15V79.91C8.15 80.61 8.34 81.15 8.72 81.55C9.08 81.94 9.62 82.14 10.33 82.14C11.15 82.14 11.75 81.92 12.13 81.5C12.46 81.1 12.63 80.5 12.63 79.7V74.86H11.54ZM16.532 74.72C15.772 74.72 15.142 74.89 14.642 75.23C14.112 75.59 13.852 76.08 13.852 76.71C13.852 77.33 14.122 77.81 14.672 78.14C14.892 78.26 15.432 78.45 16.312 78.73C17.102 78.97 17.572 79.13 17.732 79.21C18.182 79.44 18.412 79.75 18.412 80.15C18.412 80.47 18.252 80.72 17.932 80.9C17.612 81.08 17.182 81.18 16.642 81.18C16.042 81.18 15.602 81.07 15.312 80.85C14.992 80.61 14.792 80.2 14.712 79.64H13.632C13.692 80.54 14.012 81.2 14.602 81.62C15.092 81.96 15.772 82.14 16.642 82.14C17.542 82.14 18.242 81.96 18.742 81.6C19.242 81.23 19.492 80.73 19.492 80.09C19.492 79.43 19.182 78.92 18.572 78.55C18.292 78.38 17.662 78.15 16.702 77.85C16.032 77.65 15.622 77.5 15.462 77.41C15.102 77.22 14.932 76.97 14.932 76.65C14.932 76.29 15.082 76.03 15.392 75.87C15.642 75.73 16.002 75.66 16.472 75.66C17.012 75.66 17.412 75.76 17.692 75.97C17.972 76.17 18.152 76.51 18.252 76.97H19.332C19.262 76.19 18.982 75.62 18.482 75.25C18.012 74.89 17.362 74.72 16.532 74.72ZM23.6666 74.72C22.5766 74.72 21.7166 75.07 21.0966 75.79C20.4966 76.47 20.2066 77.35 20.2066 78.44C20.2066 79.52 20.4966 80.4 21.0966 81.08C21.7166 81.78 22.5766 82.14 23.6666 82.14C24.7466 82.14 25.6066 81.79 26.2366 81.09C26.8366 80.41 27.1366 79.53 27.1366 78.44C27.1366 77.34 26.8366 76.45 26.2366 75.78C25.6066 75.07 24.7466 74.72 23.6666 74.72ZM23.6666 75.68C24.4266 75.68 25.0166 75.92 25.4266 76.42C25.8266 76.91 26.0366 77.58 26.0366 78.44C26.0366 79.29 25.8266 79.96 25.4266 80.44C25.0166 80.93 24.4266 81.18 23.6666 81.18C22.9066 81.18 22.3166 80.92 21.8966 80.42C21.4966 79.93 21.2966 79.27 21.2966 78.44C21.2966 77.6 21.4966 76.94 21.8966 76.45C22.3166 75.93 22.9066 75.68 23.6666 75.68ZM28.241 74.86V82H29.331V76.63H29.371L33.061 82H34.121V74.86H33.031V80.17H32.991L29.341 74.86H28.241Z" fill="#666666"/>
<path d="M120.7 74.86V82H121.79V78.8H125.53V82H126.62V74.86H125.53V77.87H121.79V74.86H120.7ZM127.474 74.86V75.79H129.864V82H130.944V75.79H133.324V74.86H127.474ZM134.186 74.86V82H135.276V76.9H135.316L137.506 82H138.446L140.636 76.9H140.676V82H141.766V74.86H140.476L137.996 80.58H137.966L135.476 74.86H134.186ZM143.171 74.86V82H148.181V81.07H144.251V74.86H143.171Z" fill="#666666"/>
<path d="M1 1H87V28H1V1Z" fill="#F5F7FB"/>
<path d="M113 1H199V28H113V1Z" fill="#F5F7FB"/>
<path d="M9 9.5H19C19.2761 9.5 19.5 9.72386 19.5 10V20C19.5 20.2761 19.2761 20.5 19 20.5H9C8.72386 20.5 8.5 20.2761 8.5 20V10C8.5 9.72386 8.72386 9.5 9 9.5Z" fill="white" stroke="#DDE1EC"/>
<path d="M121 9.5H131C131.276 9.5 131.5 9.72386 131.5 10V20C131.5 20.2761 131.276 20.5 131 20.5H121C120.724 20.5 120.5 20.2761 120.5 20V10C120.5 9.72386 120.724 9.5 121 9.5Z" fill="white" stroke="#DDE1EC"/>
<path d="M24.72 11.28V11.98H27.58C26.96 14.25 25.92 16.01 24.46 17.25L24.83 17.91C25.77 17.16 26.56 16.18 27.2 14.96H29.48V18.01H26.17V18.71H33.46V18.01H30.21V14.96H32.65V14.27H27.53C27.83 13.57 28.1 12.81 28.32 11.98H33.45V11.28H28.49C28.59 10.84 28.67 10.37 28.75 9.88L28.03 9.79C27.95 10.3 27.86 10.8 27.75 11.28H24.72ZM42.14 18.91C42.82 18.91 43.16 18.55 43.16 17.85V9.9H42.44V17.68C42.44 18.07 42.25 18.27 41.89 18.27C41.49 18.27 41.06 18.25 40.62 18.22L40.78 18.91H42.14ZM40.31 10.66V16.98H41.01V10.66H40.31ZM34.72 10.26V10.96H36.27C36.06 12.6 35.46 13.88 34.48 14.82L34.82 15.49C35.09 15.24 35.34 14.96 35.57 14.66C36.23 15.02 36.81 15.41 37.32 15.83C36.68 16.87 35.79 17.68 34.66 18.26L35.01 18.9C37.23 17.77 38.59 15.79 39.08 12.97V12.33H36.7C36.82 11.9 36.91 11.44 36.98 10.96H39.57V10.26H34.72ZM35.93 14.11C36.13 13.77 36.31 13.41 36.47 13.01H38.39C38.23 13.82 37.98 14.56 37.65 15.23C37.15 14.84 36.58 14.47 35.93 14.11ZM45.04 10.7V11.36H48.63V12.31H45.62V12.97H48.63V13.92H44.69V14.57H47.9C47.16 15.44 46 16.15 44.4 16.71L44.78 17.33C45.46 17.06 46.06 16.76 46.6 16.43V18C46.6 18.16 46.49 18.28 46.28 18.36L46.52 18.98C47.59 18.72 48.64 18.38 49.68 17.96L49.54 17.29C48.8 17.59 48.06 17.86 47.31 18.08V15.95C47.86 15.53 48.31 15.07 48.66 14.57H49.01C49.85 16.74 51.21 18.2 53.07 18.95L53.45 18.32C52.52 17.97 51.72 17.44 51.06 16.74C51.7 16.46 52.27 16.06 52.78 15.55L52.28 15.07C51.76 15.62 51.22 16.02 50.66 16.28C50.27 15.78 49.94 15.21 49.67 14.57H53.31V13.92H49.37V12.97H52.38V12.31H49.37V11.36H52.96V10.7H49.37V9.85H48.63V10.7H45.04Z" fill="#666666"/>
<path d="M144.52 14.19H139.5C139.92 13.53 140.27 12.79 140.57 11.97H145.45V11.28H140.79C140.92 10.83 141.03 10.36 141.13 9.87L140.4 9.78C140.3 10.3 140.18 10.8 140.03 11.28H136.7V11.97H139.79C139.09 13.8 137.95 15.23 136.37 16.25L136.75 16.93C137.59 16.4 138.33 15.74 138.96 14.95V19.01H139.68V18.46H143.81V19.01H144.52V14.19ZM139.68 17.77V14.88H143.81V17.77H139.68ZM154.14 18.91C154.82 18.91 155.16 18.55 155.16 17.85V9.9H154.44V17.68C154.44 18.07 154.25 18.27 153.89 18.27C153.49 18.27 153.06 18.25 152.62 18.22L152.78 18.91H154.14ZM152.31 10.66V16.98H153.01V10.66H152.31ZM146.72 10.26V10.96H148.27C148.06 12.6 147.46 13.88 146.48 14.82L146.82 15.49C147.09 15.24 147.34 14.96 147.57 14.66C148.23 15.02 148.81 15.41 149.32 15.83C148.68 16.87 147.79 17.68 146.66 18.26L147.01 18.9C149.23 17.77 150.59 15.79 151.08 12.97V12.33H148.7C148.82 11.9 148.91 11.44 148.98 10.96H151.57V10.26H146.72ZM147.93 14.11C148.13 13.77 148.31 13.41 148.47 13.01H150.39C150.23 13.82 149.98 14.56 149.65 15.23C149.15 14.84 148.58 14.47 147.93 14.11ZM157.04 10.7V11.36H160.63V12.31H157.62V12.97H160.63V13.92H156.69V14.57H159.9C159.16 15.44 158 16.15 156.4 16.71L156.78 17.33C157.46 17.06 158.06 16.76 158.6 16.43V18C158.6 18.16 158.49 18.28 158.28 18.36L158.52 18.98C159.59 18.72 160.64 18.38 161.68 17.96L161.54 17.29C160.8 17.59 160.06 17.86 159.31 18.08V15.95C159.86 15.53 160.31 15.07 160.66 14.57H161.01C161.85 16.74 163.21 18.2 165.07 18.95L165.45 18.32C164.52 17.97 163.72 17.44 163.06 16.74C163.7 16.46 164.27 16.06 164.78 15.55L164.28 15.07C163.76 15.62 163.22 16.02 162.66 16.28C162.27 15.78 161.94 15.21 161.67 14.57H165.31V13.92H161.37V12.97H164.38V12.31H161.37V11.36H164.96V10.7H161.37V9.85H160.63V10.7H157.04Z" fill="#666666"/>
<line opacity="0.88" y1="28.5" x2="88" y2="28.5" stroke="#DFE3EC"/>
<line opacity="0.88" x1="112" y1="28.5" x2="200" y2="28.5" stroke="#DFE3EC"/>
<path d="M113 0.5H199C199.276 0.5 199.5 0.723857 199.5 1V119C199.5 119.276 199.276 119.5 199 119.5H113C112.724 119.5 112.5 119.276 112.5 119V0.999999C112.5 0.723857 112.724 0.5 113 0.5Z" stroke="#DDE1EC"/>
<circle cx="100" cy="50" r="8" fill="#CED5E4"/>
<path d="M99.375 50L102.015 52.64L101.261 53.3941L97.8667 50L101.261 46.6059L102.015 47.36L99.375 50Z" fill="white"/>
<circle cx="100" cy="70" r="8" fill="#CED5E4"/>
<path d="M100.625 70L97.985 67.36L98.7392 66.6059L102.133 70L98.7392 73.3941L97.985 72.64L100.625 70Z" fill="white"/>
</svg>
