<svg width="16" height="16" viewBox="0 0 16 16" fill="none" xmlns="http://www.w3.org/2000/svg">
<path d="M10.369 4.60206C10.5057 4.46542 10.7273 4.46542 10.864 4.60206L11.2175 4.95562C11.3542 5.09234 11.3542 5.31392 11.2175 5.45056L8.70725 7.96082L11.2175 10.4711C11.3542 10.6077 11.3542 10.8294 11.2175 10.966L10.864 11.3196C10.7272 11.4563 10.5057 11.4562 10.369 11.3196L7.85876 8.80931L5.34849 11.3196C5.21185 11.4562 4.99028 11.4563 4.85355 11.3196L4.5 10.966C4.36336 10.8294 4.36336 10.6077 4.5 10.4711L7.01026 7.96082L4.5 5.45056C4.36336 5.31392 4.36327 5.09234 4.5 4.95562L4.85355 4.60206C4.92701 4.52861 5.02506 4.4946 5.12122 4.50012C5.20391 4.50496 5.28531 4.53888 5.34849 4.60206L7.85876 7.11233L10.369 4.60206Z" fill="#999999"/>
<path d="M16 8C16 12.4183 12.4183 16 8 16C3.58172 16 0 12.4183 0 8C0 3.58172 3.58172 0 8 0C12.4183 0 16 3.58172 16 8ZM15 8C15 4.13401 11.866 1 8 1C4.13401 1 1 4.13401 1 8C1 11.866 4.13401 15 8 15C11.866 15 15 11.866 15 8Z" fill="#999999"/>
</svg>
