<svg width="16" height="16" viewBox="0 0 16 16" fill="none" xmlns="http://www.w3.org/2000/svg">
<path d="M8.53879 9.44247C9.22842 9.38698 9.90328 9.22214 10.5384 8.95559L11.5021 10.7079L12.466 10.1778L11.5133 8.44567C11.5749 8.4065 11.6359 8.36625 11.6963 8.32493C12.1511 8.01379 12.5619 7.6481 12.9207 7.23806L14.0864 8.40378L14.8643 7.62597L13.5794 6.34112C13.7868 6.00125 13.9637 5.64148 14.1068 5.26574L14.3025 4.75177L13.2746 4.36022L13.0788 4.8742C12.6857 5.90623 11.9866 6.79348 11.0752 7.41708C10.1637 8.04068 9.08347 8.37085 7.97914 8.36335C6.8748 8.35585 5.79913 8.01104 4.89624 7.37512C3.99335 6.73919 3.30636 5.84253 2.92732 4.80525L2.73854 4.28867L1.70536 4.66621L1.89414 5.1828C2.0378 5.57593 2.21822 5.95227 2.43195 6.3073L1.11328 7.62597L1.8911 8.40378L3.08588 7.20901C3.43142 7.60859 3.82613 7.96687 4.26283 8.27444C4.33381 8.32444 4.40569 8.37294 4.4784 8.41993L3.51157 10.1778L4.4754 10.7079L5.44946 8.93691C6.08038 9.20718 6.75172 9.3768 7.43879 9.43788V11.5479H8.53879V9.44247Z" fill="#666666"/>
</svg>
