<svg width="16" height="16" viewBox="0 0 16 16" fill="none" xmlns="http://www.w3.org/2000/svg">
<path d="M10.6353 8.00018C10.6353 9.42164 9.48298 10.574 8.06152 10.574C6.64005 10.574 5.48773 9.42164 5.48773 8.00018C5.48773 6.57872 6.64005 5.42639 8.06152 5.42639C9.48298 5.42639 10.6353 6.57872 10.6353 8.00018ZM9.55929 8.00018C9.55929 7.17298 8.88872 6.5024 8.06152 6.5024C7.23432 6.5024 6.56374 7.17298 6.56374 8.00018C6.56374 8.82738 7.23432 9.49795 8.06152 9.49795C8.88872 9.49795 9.55929 8.82738 9.55929 8.00018Z" fill="#666666"/>
<path d="M15 7.99953C15 9.28642 12.941 13.1471 8.05078 13.1471C3.16059 13.1471 1.10156 9.28642 1.10156 7.99953C1.10156 6.71264 3.67535 2.85196 8.05078 2.85196C12.4262 2.85196 15 6.71264 15 7.99953ZM13.924 7.99953C13.924 8.00079 13.9206 7.92464 13.8637 7.75984C13.8103 7.60509 13.7228 7.40974 13.5948 7.18542C13.3387 6.73643 12.9466 6.21658 12.4267 5.72485C11.3882 4.74241 9.90382 3.92797 8.05078 3.92797C6.19774 3.92797 4.71339 4.74241 3.67482 5.72485C3.15498 6.21658 2.76284 6.73643 2.50674 7.18542C2.3788 7.40974 2.29125 7.60509 2.23786 7.75984C2.18342 7.91761 2.17794 7.99439 2.17757 7.99953C2.17757 7.99956 2.17757 7.9996 2.17757 7.99953C2.17757 8.0895 2.23164 8.40116 2.46353 8.8684C2.68268 9.30998 3.02523 9.81708 3.5032 10.295C4.44603 11.2379 5.91631 12.0711 8.05078 12.0711C10.1853 12.0711 11.6555 11.2379 12.5984 10.295C13.0763 9.81708 13.4189 9.30998 13.638 8.8684C13.8699 8.40116 13.924 8.0895 13.924 7.99953Z" fill="#666666"/>
</svg>
