<svg xmlns="http://www.w3.org/2000/svg" width="16" height="16" viewBox="0 0 16 16" fill="none">
<path d="M8 16C12.4183 16 16 12.4183 16 8C16 3.58172 12.4183 0 8 0C3.58172 0 0 3.58172 0 8C0 12.4183 3.58172 16 8 16ZM7.4123 4.20059C7.4123 3.86922 7.68093 3.60059 8.0123 3.60059C8.34368 3.60059 8.6123 3.86922 8.6123 4.20059V9.40059C8.6123 9.73196 8.34368 10.0006 8.0123 10.0006C7.68093 10.0006 7.4123 9.73196 7.4123 9.40059V4.20059ZM7.2002 11.6044C7.2002 11.1626 7.55837 10.8044 8.0002 10.8044C8.44202 10.8044 8.8002 11.1626 8.8002 11.6044C8.8002 12.0462 8.44202 12.4044 8.0002 12.4044C7.55837 12.4044 7.2002 12.0462 7.2002 11.6044Z" fill="white"/>
</svg>