<svg width="64" height="20" viewBox="0 0 64 20" fill="none" xmlns="http://www.w3.org/2000/svg">
<rect width="64" height="20" rx="2" fill="#337EFF"/>
<path d="M13.568 7.088V9.92H9.68V10.724H13.568V13.94H8.684V14.792H19.328V13.94H14.444V10.724H18.332V9.92H14.444V7.088H18.908V6.236H13.964L14.432 6.056C14.264 5.48 14.036 4.856 13.736 4.172L12.896 4.4C13.184 4.988 13.436 5.6 13.64 6.236H9.104V7.088H13.568ZM20.696 4.676V5.456H24.236V6.524H21.44V9.548H24.596C24.404 9.884 24.2 10.244 23.984 10.616H20.54V11.408H23.504C23.24 11.816 22.976 12.236 22.688 12.656C23.684 12.884 24.68 13.148 25.676 13.448C24.596 13.868 22.976 14.204 20.84 14.456L21.164 15.224C23.756 14.876 25.628 14.396 26.768 13.784C28.1 14.216 29.432 14.708 30.752 15.272L31.292 14.564C30.02 14.06 28.772 13.628 27.548 13.256C28.184 12.74 28.628 12.128 28.868 11.408H31.448V10.616H24.956C25.148 10.28 25.352 9.932 25.568 9.548H30.56V6.524H27.764V5.456H31.304V4.676H20.696ZM26.624 12.98C25.7 12.716 24.8 12.488 23.912 12.296C24.092 12.032 24.284 11.732 24.488 11.408H27.992C27.752 12.032 27.296 12.56 26.624 12.98ZM26.936 6.524H25.064V5.456H26.936V6.524ZM29.732 8.804H27.764V7.28H29.732V8.804ZM26.936 8.804H25.064V7.28H26.936V8.804ZM24.236 8.804H22.268V7.28H24.236V8.804ZM34.292 4.232V6.5H32.828V7.328H34.292C33.92 8.84 33.308 10.196 32.444 11.372L32.816 12.308C33.416 11.372 33.908 10.34 34.292 9.212V15.188H35.144V9.176C35.504 9.632 35.924 10.232 36.416 10.988L36.908 10.256C36.32 9.524 35.732 8.852 35.144 8.252V7.328H36.536V6.5H35.144V4.232H34.292ZM37.832 9.656C37.496 11.144 36.956 12.488 36.212 13.7L36.956 14.18C37.676 12.956 38.24 11.516 38.624 9.836L37.832 9.656ZM42.176 9.596L41.396 9.848C41.864 11.144 42.296 12.62 42.692 14.288L43.472 13.94C43.112 12.404 42.68 10.952 42.176 9.596ZM39.488 15.068C40.184 15.068 40.544 14.708 40.544 14V8.66H43.484V7.832H36.752V8.66H39.68V13.784C39.68 14.132 39.512 14.312 39.188 14.312C38.84 14.312 38.48 14.288 38.096 14.264L38.264 15.068H39.488ZM37.388 4.916V5.732H42.86V4.916H37.388ZM52.808 11.072C52.448 12.2 52.04 13.172 51.572 13.988H44.948V14.792H55.076V13.988H52.496C52.952 13.196 53.336 12.296 53.648 11.3L52.808 11.072ZM47.072 11.216L46.292 11.468C46.676 12.164 46.988 12.896 47.228 13.664L48.008 13.46C47.732 12.62 47.42 11.864 47.072 11.216ZM49.844 10.976L49.052 11.228C49.364 11.972 49.616 12.752 49.82 13.568L50.588 13.364C50.372 12.464 50.12 11.672 49.844 10.976ZM46.892 9.824V10.592H53.12V9.824H46.892ZM46.412 5.996H47.324C47.54 6.464 47.72 6.956 47.876 7.46L48.668 7.172C48.548 6.812 48.38 6.416 48.188 5.996H49.916V5.228H46.76C46.868 4.94 46.976 4.652 47.072 4.34L46.232 4.16C45.896 5.264 45.356 6.272 44.612 7.184L45.356 7.652C45.752 7.148 46.1 6.596 46.412 5.996ZM51.464 5.996H52.508C52.772 6.5 53.012 7.028 53.228 7.568L54.02 7.28C53.864 6.872 53.66 6.452 53.396 5.996H55.304V5.228H51.8C51.896 4.94 51.992 4.652 52.088 4.34L51.26 4.16C51.008 5.096 50.6 5.936 50.036 6.704L50.768 7.172C51.02 6.812 51.248 6.416 51.464 5.996ZM49.724 7.184C48.344 8.204 46.616 9.056 44.552 9.752L44.96 10.496C47.048 9.764 48.728 8.9 50 7.892C51.392 8.972 53.06 9.836 55.028 10.508L55.448 9.764C53.492 9.14 51.764 8.276 50.276 7.184H49.724Z" fill="white"/>
</svg>
