<svg width="64" height="20" viewBox="0 0 64 20" fill="none" xmlns="http://www.w3.org/2000/svg">
<rect width="64" height="20" rx="2" fill="#F24957"/>
<path d="M13.244 5.528V6.308H14.54V7.844H12.932V8.648H19.544V7.844H17.912V6.308H19.268V5.528H17.912V4.16H17.096V5.528H15.356V4.16H14.54V5.528H13.244ZM15.356 7.844V6.308H17.096V7.844H15.356ZM18.74 9.608H13.796V15.212H14.624V14.636H17.924V15.224H18.74V9.608ZM14.624 13.856V12.476H17.924V13.856H14.624ZM14.624 11.708V10.376H17.924V11.708H14.624ZM10.076 4.22C9.728 5.672 9.164 6.992 8.384 8.192L9.092 8.636C9.536 7.964 9.92 7.208 10.256 6.38H12.824V5.552H10.568C10.688 5.18 10.808 4.796 10.916 4.388L10.076 4.22ZM9.716 7.976V8.756H10.472V10.232H8.828V11.024H10.472V13.76C10.472 13.928 10.352 14.048 10.112 14.12L10.472 14.864C11.504 14.576 12.428 14.216 13.22 13.784L13.064 13.016C12.464 13.376 11.888 13.652 11.312 13.844V11.024H12.98V10.232H11.312V8.756H12.572V7.976H9.716ZM25.112 4.676V7.808H30.656V4.676H25.112ZM29.828 7.052H25.94V5.444H29.828V7.052ZM24.452 10.916V11.72H27.14C27.02 12.056 26.876 12.368 26.708 12.656C26.192 13.4 25.28 14.012 23.984 14.468L24.452 15.2C25.796 14.72 26.756 14.072 27.356 13.244C27.596 12.884 27.788 12.488 27.944 12.032C28.58 13.304 29.612 14.348 31.028 15.164L31.604 14.492C30.236 13.796 29.228 12.872 28.58 11.72H31.46V10.916H28.208C28.268 10.52 28.304 10.088 28.316 9.632V9.584H31.088V8.78H24.764V9.584H27.464V9.632C27.452 10.088 27.416 10.508 27.344 10.916H24.452ZM21.956 4.316L21.344 4.904C22.208 5.552 22.88 6.164 23.384 6.74L23.972 6.14C23.42 5.528 22.748 4.916 21.956 4.316ZM20.504 7.868V8.696H22.268V13.484C22.268 13.676 22.172 13.844 22.004 14L22.34 14.768C23.06 14.24 23.744 13.628 24.392 12.932L24.164 12.02C23.78 12.428 23.432 12.788 23.096 13.112V7.868H20.504ZM34.292 4.232V6.5H32.828V7.328H34.292C33.92 8.84 33.308 10.196 32.444 11.372L32.816 12.308C33.416 11.372 33.908 10.34 34.292 9.212V15.188H35.144V9.176C35.504 9.632 35.924 10.232 36.416 10.988L36.908 10.256C36.32 9.524 35.732 8.852 35.144 8.252V7.328H36.536V6.5H35.144V4.232H34.292ZM37.832 9.656C37.496 11.144 36.956 12.488 36.212 13.7L36.956 14.18C37.676 12.956 38.24 11.516 38.624 9.836L37.832 9.656ZM42.176 9.596L41.396 9.848C41.864 11.144 42.296 12.62 42.692 14.288L43.472 13.94C43.112 12.404 42.68 10.952 42.176 9.596ZM39.488 15.068C40.184 15.068 40.544 14.708 40.544 14V8.66H43.484V7.832H36.752V8.66H39.68V13.784C39.68 14.132 39.512 14.312 39.188 14.312C38.84 14.312 38.48 14.288 38.096 14.264L38.264 15.068H39.488ZM37.388 4.916V5.732H42.86V4.916H37.388ZM52.808 11.072C52.448 12.2 52.04 13.172 51.572 13.988H44.948V14.792H55.076V13.988H52.496C52.952 13.196 53.336 12.296 53.648 11.3L52.808 11.072ZM47.072 11.216L46.292 11.468C46.676 12.164 46.988 12.896 47.228 13.664L48.008 13.46C47.732 12.62 47.42 11.864 47.072 11.216ZM49.844 10.976L49.052 11.228C49.364 11.972 49.616 12.752 49.82 13.568L50.588 13.364C50.372 12.464 50.12 11.672 49.844 10.976ZM46.892 9.824V10.592H53.12V9.824H46.892ZM46.412 5.996H47.324C47.54 6.464 47.72 6.956 47.876 7.46L48.668 7.172C48.548 6.812 48.38 6.416 48.188 5.996H49.916V5.228H46.76C46.868 4.94 46.976 4.652 47.072 4.34L46.232 4.16C45.896 5.264 45.356 6.272 44.612 7.184L45.356 7.652C45.752 7.148 46.1 6.596 46.412 5.996ZM51.464 5.996H52.508C52.772 6.5 53.012 7.028 53.228 7.568L54.02 7.28C53.864 6.872 53.66 6.452 53.396 5.996H55.304V5.228H51.8C51.896 4.94 51.992 4.652 52.088 4.34L51.26 4.16C51.008 5.096 50.6 5.936 50.036 6.704L50.768 7.172C51.02 6.812 51.248 6.416 51.464 5.996ZM49.724 7.184C48.344 8.204 46.616 9.056 44.552 9.752L44.96 10.496C47.048 9.764 48.728 8.9 50 7.892C51.392 8.972 53.06 9.836 55.028 10.508L55.448 9.764C53.492 9.14 51.764 8.276 50.276 7.184H49.724Z" fill="white"/>
</svg>
