<svg width="52" height="24" viewBox="0 0 52 24" fill="none" xmlns="http://www.w3.org/2000/svg">
<rect width="52" height="24" rx="2" fill="#26BD71"/>
<path d="M8.732 9.352V10.192H13.256C12.632 13.144 11.048 15.256 8.492 16.516L9.032 17.236C11.588 15.904 13.244 13.78 13.988 10.864C14.888 13.576 16.544 15.664 18.956 17.152L19.496 16.456C17.036 14.992 15.38 12.904 14.54 10.192H19.268V9.352H14.288C14.384 8.608 14.444 7.828 14.444 6.988V6.208H13.556V7.18C13.544 7.936 13.496 8.656 13.4 9.352H8.732ZM22.292 6.232V8.5H20.828V9.328H22.292C21.92 10.84 21.308 12.196 20.444 13.372L20.816 14.308C21.416 13.372 21.908 12.34 22.292 11.212V17.188H23.144V11.176C23.504 11.632 23.924 12.232 24.416 12.988L24.908 12.256C24.32 11.524 23.732 10.852 23.144 10.252V9.328H24.536V8.5H23.144V6.232H22.292ZM25.832 11.656C25.496 13.144 24.956 14.488 24.212 15.7L24.956 16.18C25.676 14.956 26.24 13.516 26.624 11.836L25.832 11.656ZM30.176 11.596L29.396 11.848C29.864 13.144 30.296 14.62 30.692 16.288L31.472 15.94C31.112 14.404 30.68 12.952 30.176 11.596ZM27.488 17.068C28.184 17.068 28.544 16.708 28.544 16V10.66H31.484V9.832H24.752V10.66H27.68V15.784C27.68 16.132 27.512 16.312 27.188 16.312C26.84 16.312 26.48 16.288 26.096 16.264L26.264 17.068H27.488ZM25.388 6.916V7.732H30.86V6.916H25.388ZM40.808 13.072C40.448 14.2 40.04 15.172 39.572 15.988H32.948V16.792H43.076V15.988H40.496C40.952 15.196 41.336 14.296 41.648 13.3L40.808 13.072ZM35.072 13.216L34.292 13.468C34.676 14.164 34.988 14.896 35.228 15.664L36.008 15.46C35.732 14.62 35.42 13.864 35.072 13.216ZM37.844 12.976L37.052 13.228C37.364 13.972 37.616 14.752 37.82 15.568L38.588 15.364C38.372 14.464 38.12 13.672 37.844 12.976ZM34.892 11.824V12.592H41.12V11.824H34.892ZM34.412 7.996H35.324C35.54 8.464 35.72 8.956 35.876 9.46L36.668 9.172C36.548 8.812 36.38 8.416 36.188 7.996H37.916V7.228H34.76C34.868 6.94 34.976 6.652 35.072 6.34L34.232 6.16C33.896 7.264 33.356 8.272 32.612 9.184L33.356 9.652C33.752 9.148 34.1 8.596 34.412 7.996ZM39.464 7.996H40.508C40.772 8.5 41.012 9.028 41.228 9.568L42.02 9.28C41.864 8.872 41.66 8.452 41.396 7.996H43.304V7.228H39.8C39.896 6.94 39.992 6.652 40.088 6.34L39.26 6.16C39.008 7.096 38.6 7.936 38.036 8.704L38.768 9.172C39.02 8.812 39.248 8.416 39.464 7.996ZM37.724 9.184C36.344 10.204 34.616 11.056 32.552 11.752L32.96 12.496C35.048 11.764 36.728 10.9 38 9.892C39.392 10.972 41.06 11.836 43.028 12.508L43.448 11.764C41.492 11.14 39.764 10.276 38.276 9.184H37.724Z" fill="white"/>
</svg>
