<svg xmlns="http://www.w3.org/2000/svg" xmlns:xlink="http://www.w3.org/1999/xlink" fill="none" version="1.1" width="16" height="16" viewBox="0 0 16 16"><defs><clipPath id="master_svg0_983_071260"><rect x="0" y="0" width="16" height="16" rx="8"/></clipPath></defs><g clip-path="url(#master_svg0_983_071260)"><rect x="0" y="0" width="16" height="16" rx="8" fill="#002BE7" fill-opacity="1"/><g><path d="M2.7394784375,10.694969023437501Q3.2771184375,11.2068190234375,3.9703184375,11.486979023437499Q4.6854184375,11.7759990234375,5.464518437500001,11.7759990234375L7.8307584375,11.7759990234375Q7.8891484375,11.7759990234375,7.9330684375,11.7327790234375Q7.9630484375,11.703289023437499,7.9728684375,11.6669390234375L8.5748584375,10.803169023437501L8.577868437500001,10.797229023437499Q8.6190584375,10.7161890234375,8.5810484375,10.6414090234375Q8.5384684375,10.5576090234375,8.4413984375,10.5576090234375L5.4136284375,10.5576090234375Q4.879248437499999,10.5576090234375,4.3924084375,10.3538290234375Q3.9211284375,10.156559023437499,3.5604184375,9.797039023437499Q3.1987384375000003,9.4365590234375,3.0048684375,8.9692690234375Q2.8035884375,8.4841290234375,2.8126084375,7.9515590234375Q2.8216084375,7.4380690234374995,3.0364384375,6.9702490234375Q3.2432384375,6.5198990234375,3.6126984375,6.1702690234375Q3.9803884375,5.8223290234375,4.4528184374999995,5.6271790234375Q4.9391584375,5.4262890234375,5.466148437499999,5.4173490234375L7.8816484375,5.4173590234375Q7.9463984375,5.4173590234375,7.9998584375,5.3647590234375L8.0062084375,5.3585190234375L8.6257384375,4.4695620234375L8.6287584375,4.4636260234375Q8.6699384375,4.3825840234375,8.6319384375,4.3078002234375Q8.5893484375,4.2239990234375,8.492288437500001,4.2239990234375L5.4136284375,4.2239990234375Q4.6259484375,4.2239990234375,3.9082684375,4.5256480234375Q3.2154084375,4.8168650234375,2.6837984375,5.3472790234375Q2.1521904375,5.8776990234375,1.8651484375,6.5641890234375Q1.5678315575,7.2752490234375,1.5774498365,8.0512690234375Q1.5810558475,8.3385690234375,1.6271945375,8.6158190234375Q1.6533447374999999,8.7729490234375,1.6931574375,8.9268490234375Q1.7704224375,9.225529023437499,1.8991464375,9.5120490234375Q2.1997544375,10.181139023437499,2.7394784375,10.694969023437501ZM9.9717084375,11.6843190234375L8.529818437500001,9.0906390234375C8.476018437499999,8.993869023437501,8.4760684375,8.8761590234375,8.5299484375,8.779429023437501L9.9630584375,6.2066790234375L9.9723784375,6.1972990234375Q10.0253184375,6.1439990234375,10.0900584375,6.1439990234375L11.0320284375,6.1439990234375Q11.1287184375,6.1439990234375,11.1706884375,6.2284890234375005Q11.2073884375,6.302389023437501,11.1675884375,6.3825190234375L11.1666284375,6.3844490234375L11.1655884375,6.3863390234375L9.8394084375,8.7801690234375C9.7860084375,8.876559023437501,9.7859584375,8.9936490234375,9.8392784375,9.0900790234375L11.1914384375,11.5355790234375L11.1923784375,11.5374790234375Q11.2338184375,11.6209090234375,11.1802384375,11.7018090234375Q11.1311084375,11.7759990234375,11.0568184375,11.7759990234375L10.1148484375,11.7759990234375Q9.9881084375,11.7759990234375,9.9717084375,11.6843190234375ZM13.0269484375,8.7801690234375L11.7007484375,6.3863390234375L11.6996484375,6.3844490234375L11.6987484375,6.3825190234375Q11.6589484375,6.3023790234375,11.6956484375,6.2284890234375005Q11.7375484375,6.1439990234375,11.8342484375,6.1439990234375L12.7762484375,6.1439990234375Q12.8409484375,6.1439990234375,12.8939484375,6.1972990234375L12.9032484375,6.2066790234375L14.3363484375,8.779429023437501C14.3902484375,8.8761590234375,14.3903484375,8.993859023437501,14.3365484375,9.0906390234375L12.8946484375,11.6843090234375Q12.8782484375,11.7759890234375,12.7514484375,11.7759890234375L11.8094484375,11.7759890234375Q11.7352484375,11.7759890234375,11.6860484375,11.7018090234375Q11.6324484375,11.6209090234375,11.6739484375,11.5374790234375L11.6748484375,11.5355790234375L13.0270484375,9.0900890234375C13.0803484375,8.9936490234375,13.0803484375,8.876559023437501,13.0269484375,8.7801690234375Z" fill="#FFFFFF" fill-opacity="1"/></g></g></svg>