<svg xmlns="http://www.w3.org/2000/svg" xmlns:xlink="http://www.w3.org/1999/xlink" fill="none" version="1.1" width="223.0009765625" height="24" viewBox="0 0 223.0009765625 24"><defs><clipPath id="master_svg0_280_72284"><rect x="-0.6345861554145813" y="-0.6345861554145813" width="134.5322643518448" height="20.306756615638733" rx="0"/></clipPath></defs><g><g clip-path="url(#master_svg0_280_72284)"><g><path d="M15.3577,18.7202765625L9.45604,18.7202765625C4.31589,18.7202765625,0.0641703,14.6589765625,0.000711708,9.5188065625C-0.0627468,4.3152065625,4.12552,0.0634765625,9.32912,0.0634765625L17.0076,0.0634765625C17.1345,0.0634765625,17.198,0.1903935625,17.1345,0.3173105625L15.6115,2.5383665625C15.5481,2.6018165625,15.5481,2.6018165625,15.4846,2.6018165625L9.45604,2.6018165625C5.77544,2.6652765625,2.66597,5.5843765625,2.60251,9.2649765625C2.53905,13.0724765625,5.58506,16.1184765625,9.32912,16.1184765625L16.8807,16.1184765625C17.0076,16.1184765625,17.0711,16.2453765625,17.0076,16.3723765625L15.4846,18.5933765625C15.4846,18.6568765625,15.4211,18.7202765625,15.3577,18.7202765625Z" fill="#333333" fill-opacity="1"/></g><g><path d="M49.180324999999996,17.0069C48.609225,17.0069,48.164925,16.5627,48.164925,15.9916L48.164925,0.190376C48.164925,0.0634586,48.101525,0,47.974625,0L45.880425,0C45.753524999999996,0,45.690125,0.0634586,45.690125,0.190376L45.690125,6.79007C44.484325,5.64782,42.834445,4.94977,40.994145,4.94977C37.186635,4.94977,34.140625,8.05924,34.140625,11.8033C34.140625,15.6108,37.250095,18.6568,40.994145,18.6568C42.897905,18.6568,44.547825,17.8953,45.817025,16.6896C46.197725,17.8319,47.213125,18.6568,48.482225,18.6568L49.116825,18.6568C49.180324999999996,18.6568,49.307225,18.5934,49.307225,18.4665L49.307225,17.1338C49.370725,17.0704,49.307225,17.0069,49.180324999999996,17.0069ZM41.057615,16.3089C38.582724999999996,16.3089,36.615515,14.2782,36.615515,11.8668C36.615515,9.39188,38.646185,7.42466,41.057615,7.42466C43.532495,7.42466,45.499725,9.45533,45.499725,11.8668C45.499725,14.2782,43.532495,16.3089,41.057615,16.3089Z" fill="#333333" fill-opacity="1"/></g><g><path d="M101.53346875,17.0064640625C100.96226874999999,17.0064640625,100.51806875,16.5622640625,100.51806875,15.9911640625L100.51806875,5.7108240625C100.51806875,5.5839060625,100.45466875,5.5204470625,100.32766875,5.5204470625L98.23356875,5.5204470625C98.10666875,5.5204470625,98.04316875,5.5839060625,98.04316875,5.7108240625L98.04316875,6.4088640625C96.71056875,5.2666130625,94.99718874999999,4.5685680625,93.09343875,4.6954854625C89.60321875,4.8858610625,86.81104275,7.6780440625,86.55720275,11.104804062500001C86.30337275,15.1661640625,89.47629875,18.5294640625,93.47417875,18.5294640625C95.25101875,18.5294640625,96.90096875,17.8314640625,98.17006875,16.689164062499998C98.48736875,17.8314640625,99.56616875,18.7198640625,100.83536875,18.7198640625L101.46996874999999,18.7198640625C101.59686875,18.7198640625,101.66036875,18.6563640625,101.66036875,18.5294640625L101.66036875,17.1333640625C101.72376875,17.0699640625,101.66036875,17.0064640625,101.53346875,17.0064640625ZM93.53764875,16.1180640625C91.06276875,16.1180640625,89.03208875,14.0873640625,89.03208875,11.612474062499999C89.03208875,9.1375840625,91.06275875,7.1069140625,93.53764875,7.1069140625C96.01252875,7.1069140625,98.04316875,9.1375840625,98.04316875,11.612474062499999C98.04316875,14.0873640625,96.01253875,16.1180640625,93.53764875,16.1180640625Z" fill="#333333" fill-opacity="1"/></g><g><rect x="129.7734375" y="16.0546875" width="2.6652591228485107" height="2.665261745452881" rx="0" fill="#002BE7" fill-opacity="1"/></g><g><path d="M25.12998,18.46681875L21.385930000000002,11.74024875L25.06652,5.14055375C25.12998,5.01363575,25.06652,4.88671875,24.9396,4.88671875L22.52818,4.88671875Q22.46472,4.88671875,22.40126,4.95017735L18.59375,11.74024875L22.46472,18.65721875C22.46472,18.72071875,22.52818,18.72071875,22.591639999999998,18.72071875L25.003059999999998,18.72071875C25.06652,18.72071875,25.19344,18.59381875,25.12998,18.46681875Z" fill="#002BE7" fill-opacity="1"/></g><g><path d="M26.335653275,18.46681875L30.079709375,11.74024875L26.399110775,5.14055375C26.335653275,5.01363575,26.399110775,4.88671875,26.526028375,4.88671875L28.937449375,4.88671875Q29.000909375,4.88671875,29.064369375,4.95017735L32.871879375,11.74024875L29.000909375,18.65721875C29.000909375,18.72071875,28.937459375,18.72071875,28.873999375,18.72071875L26.462570375,18.72071875C26.399110775,18.72071875,26.272195675,18.59381875,26.335653275,18.46681875Z" fill="#002BE7" fill-opacity="1"/></g><g><path d="M64.34635312500001,13.0719609375C64.409753125,12.6912109375,64.473253125,12.247000937500001,64.473253125,11.8662509375C64.473253125,7.9318209374999995,61.109953125000004,4.6954279375,57.112043125,5.0127211375C53.748743125,5.2665549375,50.956569125,7.9952809375000005,50.766192025,11.358580937500001C50.512357125,15.3565109375,53.685283125,18.7198109375,57.619713125,18.7198109375C60.094603125,18.7198109375,62.252153125,17.450610937500002,63.457853125,15.4834109375C63.521353125,15.3565109375,63.457853125,15.2295109375,63.330953125,15.2295109375L60.602273124999996,15.2295109375C60.538813125000004,15.2295109375,60.538813125000004,15.2295109375,60.475353125,15.2930109375C59.713853125,15.9276109375,58.698513125,16.3083109375,57.619713125,16.3083109375C55.589043125,16.3083109375,53.875663125,14.9122709375,53.304533125,13.0719709375L64.34635312500001,13.0719609375ZM57.556253125,7.360690937499999C59.586923125,7.360690937499999,61.300353125,8.7567809375,61.871453125,10.5970809375L53.241073125,10.5970809375C53.812203124999996,8.7567809375,55.525583125,7.360690937499999,57.556253125,7.360690937499999Z" fill="#333333" fill-opacity="1"/></g><g><path d="M128.377603125,13.0094609375C128.441003125,12.6287109375,128.50450312499999,12.184500937500001,128.50450312499999,11.8037509375C128.50450312499999,7.8693109375,125.141203125,4.6329229375,121.143303125,4.9502163375C117.779993125,5.2040509375,114.987824125,7.9327709375,114.797446825,11.296080937500001C114.543616125,15.2940109375,117.716543125,18.6573109375,121.65097312500001,18.6573109375C124.125853125,18.6573109375,126.283403125,17.388110937500002,127.489203125,15.4209109375C127.552603125,15.2940109375,127.489203125,15.1670109375,127.36220312500001,15.1670109375L124.633523125,15.1670109375C124.570063125,15.1670109375,124.570063125,15.1670109375,124.506603125,15.2305109375C123.745103125,15.8651109375,122.729763125,16.2458109375,121.65097312500001,16.2458109375C119.620303125,16.2458109375,117.906923125,14.8497609375,117.335793125,13.0094609375L128.377603125,13.0094609375ZM121.587523125,7.3616409375C123.618193125,7.3616409375,125.331603125,8.7577309375,125.902703125,10.598030937499999L117.335803125,10.598030937499999C117.843463125,8.7577309375,119.556843125,7.3616409375,121.587523125,7.3616409375Z" fill="#333333" fill-opacity="1"/></g><g><path d="M81.672075,18.5937421875L85.923775,5.0770771875C85.987275,4.9501591875,85.860275,4.8232421875,85.733375,4.8232421875L83.575775,4.8232421875C83.51237499999999,4.8232421875,83.448875,4.8867007875,83.385475,4.9501591875L80.085575,15.2939421875L76.785775,5.0136181875C76.785775,4.9501591875,76.722275,4.8867010875,76.595375,4.8867010875L74.501245,4.8867010875C74.437785,4.8867010875,74.374325,4.9501591875,74.310865,5.0136181875L71.074485,15.6112421875L67.647725,5.0136181875C67.647725,4.9501591875,67.584265,4.8867007875,67.457345,4.8867007875L65.299753,4.8867007875C65.1728374,4.8867007875,65.109375,5.0136181875,65.109375,5.1405351875L69.424555,18.6572421875C69.424555,18.720642187499998,69.488015,18.784142187500002,69.614935,18.784142187500002L72.470575,18.784142187500002C72.534025,18.784142187500002,72.597485,18.720642187499998,72.660945,18.6572421875L75.580075,9.2653421875L78.626075,18.6572421875C78.626075,18.720642187499998,78.689475,18.784142187500002,78.816475,18.784142187500002L81.481675,18.784142187500002C81.545175,18.720642187499998,81.608575,18.6572421875,81.672075,18.5937421875Z" fill="#333333" fill-opacity="1"/></g><g><path d="M102.422764075,5.14055375L106.737944375,18.72071875L109.910874375,18.72071875L114.099184375,5.14055375C114.162584375,5.01363675,114.035684375,4.886719052594,113.908784375,4.886719052594L111.687714375,4.886719052594C111.62425437499999,4.886719052594,111.560804375,4.95017765,111.497334375,5.01363575L108.197494375,15.61121875L104.834194375,5.01363575C104.834194375,4.95017735,104.770724375,4.88671875,104.643814375,4.88671875L102.486226475,4.88671875C102.422764075,4.88671875,102.359311275,5.01363575,102.422764075,5.14055375Z" fill="#333333" fill-opacity="1"/></g></g><g><path d="M141.328125,0.158647L141.328125,18.342C141.328125,18.4296,141.3991535,18.5007,141.486772,18.5007L148.079645,18.5007C151.08882499999999,18.5007,153.365425,17.6721,154.935525,16.0134C154.935825,16.013,154.935825,16.013,154.936125,16.0127C156.427525,14.4067,157.186325,12.1525,157.186325,9.25072C157.186325,6.32274,156.453625,4.06842,154.988325,2.51385C154.988125,2.51364,154.988225,2.51379,154.988025,2.51358C153.417925,0.829419,151.141295,0,148.131985,0L141.486772,0C141.3991535,0,141.328125,0.0710285,141.328125,0.158647M144.338515,2.41013L147.608605,2.41013C149.963415,2.41013,151.690425,2.95398,152.789525,4.06776C152.789925,4.06824,152.790025,4.06835,152.790525,4.06883C153.836925,5.1569,154.386325,6.86707,154.386325,9.25072C154.386325,11.5822,153.836925,13.2924,152.76432499999999,14.4066C152.763925,14.407,152.763825,14.4071,152.763325,14.4076C151.664225,15.5214,149.911095,16.0913,147.556275,16.0913L144.338515,16.0913C144.250895,16.0913,144.179865,16.0203,144.179865,15.9327L144.179865,2.56878C144.179865,2.48116,144.250895,2.41013,144.338515,2.41013M179.639025,4.74199C178.017125,4.74199,176.682825,5.07863,175.66242499999998,5.77799C175.66162500000002,5.77851,175.661225,5.77874,175.660525,5.77925C174.640525,6.45292,174.143625,7.41108,174.143625,8.62843C174.143625,9.76802,174.666425,10.6746,175.71202499999998,11.3221C175.713325,11.323,175.714225,11.3235,175.715525,11.3244C176.343825,11.7383,177.468525,12.1269,179.063325,12.4895C179.063525,12.4896,179.063225,12.4895,179.063325,12.4895C180.448425,12.7999,181.363825,13.059,181.78322500000002,13.266C181.784525,13.2666,181.785325,13.267,181.78652499999998,13.2676C182.570525,13.6305,182.988625,14.1482,182.988625,14.7953C182.988625,15.9877,181.889625,16.6092,179.74372499999998,16.6092C178.698525,16.6092,177.96642500000002,16.4287,177.495325,16.0928C177.49382500000002,16.0917,177.492725,16.0909,177.491225,16.0897C177.044125,15.7442,176.715225,15.142,176.549225,14.3046C176.534225,14.2289,176.468625,14.1738,176.391425,14.1738L173.978925,14.1738C173.88502499999998,14.1738,173.811325,14.2539,173.822925,14.3471C174.192625,17.3417,176.176025,18.8636,179.822225,18.8636C183.82602500000002,18.8636,185.841025,17.4387,185.841025,14.6142C185.841025,13.4219,185.291625,12.4897,184.218825,11.816C184.218525,11.8158,184.218625,11.8159,184.218425,11.8157C183.485725,11.3493,182.33462500000002,10.909,180.791125,10.5461C180.790525,10.546,180.790425,10.5459,180.789825,10.5458C179.430325,10.2092,178.541125,9.95006,178.069925,9.74299C178.06912499999999,9.74264,178.068825,9.7425,178.068025,9.74214C177.335925,9.40539,176.96982500000001,9.01726,176.96982500000001,8.55093C176.96982500000001,8.0339,177.203825,7.62055,177.697825,7.36104C177.701225,7.35926,177.703925,7.35767,177.707225,7.35567C178.125925,7.09918,178.75242500000002,6.99636,179.586725,6.99636C180.528325,6.99636,181.260725,7.15118,181.73182500000001,7.46236C181.732425,7.4628,181.73272500000002,7.46295,181.733325,7.46338C182.154425,7.73317,182.458225,8.18943,182.666925,8.85299C182.688125,8.92041,182.749425,8.96528,182.820125,8.96528L185.218925,8.96528C185.313525,8.96528,185.387125,8.88211,185.374125,8.78845C184.999725,6.08241,183.07172500000001,4.74199,179.639025,4.74199ZM188.764225,5.26511L188.764225,18.342C188.764225,18.4296,188.835225,18.5007,188.922925,18.5007L191.382625,18.5007C191.470225,18.5007,191.541225,18.4296,191.541225,18.342L191.541225,5.26511C191.541225,5.17749,191.470225,5.10646,191.382625,5.10646L188.922925,5.10646C188.835225,5.10646,188.764225,5.17749,188.764225,5.26511M205.043025,15.9616L205.043025,18.0372C205.043025,20.5502,203.867425,21.8239,201.507825,21.8239C200.409825,21.8239,199.601025,21.6385,199.098325,21.3274C199.097425,21.3268,199.096825,21.3265,199.095925,21.3259C198.605725,21.0069,198.29762499999998,20.4848,198.135925,19.7746C198.119125,19.7007,198.054425,19.6478,197.978625,19.6478L195.521525,19.6478C195.422725,19.6478,195.347525,19.7357,195.367125,19.8326C195.64702499999999,21.2149,196.234025,22.2422,197.188125,22.9367C197.188825,22.9372,197.189125,22.9374,197.18982499999998,22.9379C198.18642499999999,23.638,199.625825,24,201.507825,24C205.698925,24,207.81152500000002,21.8745,207.81152500000002,17.6236L207.81152500000002,5.26511C207.81152500000002,5.17749,207.74042500000002,5.10646,207.652825,5.10646L205.201625,5.10646C205.114025,5.10646,205.043025,5.17749,205.043025,5.26511L205.043025,15.9616ZM217.95002499999998,4.74199C217.113425,4.74199,216.355125,4.89671,215.675225,5.25894C215.673825,5.25969,215.672825,5.26016,215.671425,5.26087C215.116825,5.53575,214.61442499999998,5.91419,214.164125,6.4099C214.062625,6.52175,213.867725,6.45138,213.867725,6.30028L213.867725,5.26358C213.867725,5.17596,213.79672499999998,5.10493,213.709025,5.10493L211.25242500000002,5.10493C211.164825,5.10493,211.09382499999998,5.17596,211.09382499999998,5.26358L211.09382499999998,18.342C211.09382499999998,18.4296,211.164825,18.5007,211.25242500000002,18.5007L213.709025,18.5007C213.79672499999998,18.5007,213.867725,18.4296,213.867725,18.342L213.867725,10.45C213.867725,10.4449,213.867925,10.4401,213.868425,10.4351C213.97412500000002,9.3505,214.36632500000002,8.49737,214.992925,7.87723C215.568625,7.30712,216.275225,7.04777,217.060325,7.04777C219.15382499999998,7.04777,220.226725,8.18799,220.226725,10.4684L220.226725,18.342C220.226725,18.4296,220.297725,18.5007,220.385325,18.5007L222.841925,18.5007C222.929525,18.5007,223.00052499999998,18.4296,223.00052499999998,18.342L223.00052499999998,10.2352C223.00052499999998,6.55592,221.299625,4.74199,217.95002499999998,4.74199Z" fill="#333333" fill-opacity="1"/></g><g><path d="M172.724615625,12.9438990625C172.780115625,12.5986090625,172.829915625,12.2152990625,172.829915625,11.881279062499999C172.829915625,7.9840890625,169.465415625,4.7783290625,165.466045625,5.0925866625C165.465845625,5.0926025625,165.466135625,5.0925800625,165.465935625,5.0925951625C162.101495625,5.3440460625,159.308380625,8.0467790625,159.117781925,11.3781090625C159.117761025,11.3784790625,159.117768525,11.3783490625,159.117745125,11.3787190625C158.864002625,15.3386890625,162.038055625,18.6699890625,165.973845625,18.6699890625C168.447325625,18.6699890625,170.604015625,17.415189062499998,171.810815625,15.4696890625C171.813215625,15.4657890625,171.815115625,15.4624890625,171.81711562499999,15.4583890625C171.875715625,15.3345890625,171.812215625,15.2127890625,171.687215625,15.2127890625L168.95751562499998,15.2127890625C168.895695625,15.2127890625,168.894065625,15.2127890625,168.835415625,15.2707890625C168.832015625,15.2741890625,168.828895625,15.2769890625,168.825185625,15.2800890625C168.064005625,15.9059890625,167.050515625,16.2813890625,165.973845625,16.2813890625C164.018595625,16.2813890625,162.357395625,15.0002490625,161.726105625,13.2787590625C161.689235625,13.1782190625,161.765945625,13.0755890625,161.873035625,13.0755890625L172.568815625,13.0755890625C172.646215625,13.0755890625,172.712415625,13.0203690625,172.724615625,12.9438990625M165.910375625,7.4812090625C167.865625625,7.4812090625,169.526815625,8.7623190625,170.158115625,10.4838090625C170.195015625,10.5843490625,170.118315625,10.6869790625,170.011215625,10.6869790625L161.865945625,10.6869790625C161.760985625,10.6869790625,161.684445625,10.5884490625,161.717565625,10.4888390625C162.290675625,8.7648090625,163.953205625,7.4812090625,165.910375625,7.4812090625Z" fill="#333333" fill-opacity="1"/></g><g><rect x="188.794921875" y="0.6484375" width="2.6611084938049316" height="2.6400461196899414" rx="0" fill="#002BE7" fill-opacity="1"/></g><g><path d="M200.86635437500001,18.67066875Q201.022884375,18.67066875,201.179214375,18.662468750000002Q201.335554375,18.65416875,201.491324375,18.637868750000003Q201.647094375,18.62146875,201.801924375,18.59686875Q201.956754375,18.572368750000003,202.110274375,18.53966875Q202.263794375,18.507068750000002,202.415624375,18.46646875Q202.567464375,18.42576875,202.717244375,18.37726875Q202.867034375,18.32866875,203.014404375,18.27236875Q203.161784375,18.215968750000002,203.306394375,18.15196875Q203.451004375,18.08796875,203.592494375,18.01646875Q203.733994375,17.944868749999998,203.872034375,17.86606875Q204.010084375,17.78716875,204.144334375,17.70116875Q204.278594375,17.61526875,204.408734375,17.522268750000002Q204.538834375,17.429368750000002,204.664634375,17.32966875Q204.790334375,17.23006875,204.911334375,17.12396875Q205.032334375,17.017868749999998,205.148334375,16.90546875Q205.264234375,16.79316875,205.374934375,16.67486875Q205.485634375,16.55666875,205.590734375,16.432668749999998Q205.695834375,16.30876875,205.795134375,16.179468749999998Q205.894434375,16.050168749999997,205.987734375,15.91576875Q206.080934375,15.78146875,206.167934375,15.64236875Q206.254834375,15.50326875,206.335334375,15.35976875Q206.415834375,15.21636875,206.489634375,15.06876875Q206.563334375,14.92129875,206.630334375,14.77008875Q206.697234375,14.61887875,206.757134375,14.46433875Q206.817034375,14.30979875,206.869734375,14.15230875Q206.922534375,13.99481875,206.967934375,13.83474875Q207.013334375,13.67467875,207.05143437499999,13.51242875Q207.089434375,13.35016875,207.119934375,13.18610875Q207.150534375,13.02205875,207.173434375,12.85659875Q207.196434375,12.69113875,207.211734375,12.52466875Q207.227134375,12.35820875,207.234834375,12.19113875Q207.242434375,12.02406875,207.242434375,11.85679875Q207.242434375,11.689528750000001,207.234834375,11.52245875Q207.227134375,11.35538875,207.211734375,11.188928749999999Q207.196434375,11.02245875,207.173434375,10.856998749999999Q207.150534375,10.69153875,207.119934375,10.52748875Q207.089434375,10.36342875,207.05143437499999,10.20116875Q207.013334375,10.03891875,206.967934375,9.87884875Q206.922534375,9.71877875,206.869734375,9.56128875Q206.817034375,9.40379875,206.757134375,9.24925875Q206.697234375,9.09471875,206.630334375,8.94350875Q206.563334375,8.79229875,206.489634375,8.64477875Q206.415834375,8.49725875,206.335334375,8.35378875Q206.254834375,8.210318749999999,206.167934375,8.07123875Q206.080934375,7.93215875,205.987734375,7.79780875Q205.894434375,7.663448750000001,205.795134375,7.53414875Q205.695834375,7.40484875,205.590734375,7.28090875Q205.485634375,7.15696875,205.374934375,7.03868875Q205.264234375,6.92041875,205.148334375,6.80808875Q205.032334375,6.69574875,204.911334375,6.58963875Q204.790334375,6.48351875,204.664634375,6.38387875Q204.538834375,6.28423875,204.408734375,6.19130875Q204.278594375,6.09837875,204.144334375,6.01238175Q204.010084375,5.92638775,203.872034375,5.84753675Q203.733994375,5.76868675,203.592494375,5.6971697500000005Q203.451004375,5.62565175,203.306394375,5.5616407500000005Q203.161784375,5.49762875,203.014404375,5.44127775Q202.867034375,5.38492575,202.717244375,5.33636975Q202.567464375,5.28781375,202.415624375,5.24717075Q202.263794375,5.20652775,202.110274375,5.17389475Q201.956754375,5.14126175,201.801924375,5.11671815Q201.647094375,5.09217455,201.491324375,5.07577925Q201.335554375,5.05938385,201.179214375,5.05117631Q201.022884375,5.04296875,200.86635437500001,5.04296875Q200.709834375,5.04296875,200.553494375,5.05117631Q200.397154375,5.05938385,200.241384375,5.07577925Q200.085614375,5.09217455,199.930784375,5.11671815Q199.775954375,5.14126175,199.622434375,5.17389475Q199.468914375,5.20652775,199.317084375,5.24717075Q199.165254375,5.28781375,199.015464375,5.33636975Q198.865684375,5.38492575,198.718304375,5.44127775Q198.570934375,5.49762875,198.426314375,5.5616407500000005Q198.281704375,5.62565175,198.140214375,5.6971697500000005Q197.998714375,5.76868675,197.860674375,5.84753675Q197.722634375,5.92638775,197.588374375,6.01238175Q197.454114375,6.09837875,197.323974375,6.19130875Q197.193824375,6.28423875,197.068104375,6.38387875Q196.942384375,6.48351875,196.821384375,6.58963875Q196.700394375,6.69574875,196.584414375,6.80808875Q196.468434375,6.92041875,196.357754375,7.03868875Q196.247074375,7.15696875,196.141964375,7.28090875Q196.036844375,7.40484875,195.937544375,7.53414875Q195.838244375,7.663448750000001,195.745004375,7.79780875Q195.651764375,7.93215875,195.564804375,8.07123875Q195.477843375,8.210318749999999,195.397374375,8.35378875Q195.316904375,8.49725875,195.243118375,8.64477875Q195.169333375,8.79229875,195.102410375,8.94350875Q195.035487375,9.09471875,194.975587375,9.24925875Q194.915688375,9.40379875,194.862956375,9.56128875Q194.810224375,9.71877875,194.764788375,9.87884875Q194.719351375,10.03891875,194.681318375,10.20117875Q194.643286375,10.36342875,194.612749375,10.52748875Q194.582213275,10.69153875,194.559246275,10.856998749999999Q194.536279275,11.02245875,194.520937175,11.188928749999999Q194.505594975,11.35538875,194.497914695,11.52245875Q194.490234375,11.689528750000001,194.490234375,11.85679875Q194.490234375,12.02406875,194.497914695,12.19113875Q194.505594975,12.35820875,194.520937175,12.52466875Q194.536279275,12.69113875,194.559246275,12.85659875Q194.582213275,13.02205875,194.612749375,13.18610875Q194.643286375,13.35016875,194.681318375,13.51242875Q194.719351375,13.67467875,194.764788375,13.83474875Q194.810224375,13.99481875,194.862956375,14.15230875Q194.915688375,14.30979875,194.975587375,14.46433875Q195.035487375,14.61887875,195.102410375,14.77008875Q195.169333375,14.92129875,195.243118375,15.06876875Q195.316904375,15.21636875,195.397374375,15.35976875Q195.477843375,15.50326875,195.564804375,15.64236875Q195.651764375,15.78146875,195.745004375,15.91576875Q195.838244375,16.050168749999997,195.937544375,16.179468749999998Q196.036844375,16.30876875,196.141964375,16.432668749999998Q196.247074375,16.55666875,196.357754375,16.67486875Q196.468434375,16.79316875,196.584414375,16.90546875Q196.700394375,17.017868749999998,196.821384375,17.12396875Q196.942384375,17.23006875,197.068104375,17.32966875Q197.193824375,17.429368750000002,197.323974375,17.522268750000002Q197.454114375,17.61526875,197.588374375,17.70116875Q197.722634375,17.78716875,197.860674375,17.86606875Q197.998714375,17.944868749999998,198.140214375,18.01646875Q198.281704375,18.08796875,198.426314375,18.15196875Q198.570934375,18.215968750000002,198.718304375,18.27236875Q198.865684375,18.32866875,199.015464375,18.37726875Q199.165254375,18.42576875,199.317084375,18.46646875Q199.468914375,18.507068750000002,199.622434375,18.53966875Q199.775954375,18.572368750000003,199.930784375,18.59686875Q200.085614375,18.62146875,200.241384375,18.637868750000003Q200.397154375,18.65416875,200.553494375,18.662468750000002Q200.709834375,18.67066875,200.86635437500001,18.67066875ZM200.865494375,16.38606875Q200.969544375,16.38606875,201.073474375,16.380568750000002Q201.177394375,16.37516875,201.280944375,16.36426875Q201.384494375,16.35336875,201.48741437500001,16.33696875Q201.590344375,16.32066875,201.692394375,16.29896875Q201.794444375,16.277268749999998,201.895374375,16.25026875Q201.996304375,16.223268750000003,202.095874375,16.19096875Q202.195444375,16.15876875,202.293414375,16.12126875Q202.391384375,16.08376875,202.487514375,16.04126875Q202.583644375,15.99866875,202.677704375,15.95116875Q202.771764375,15.90366875,202.863524375,15.85116875Q202.955294375,15.79876875,203.044544375,15.74166875Q203.133784375,15.68446875,203.220304375,15.62266875Q203.306814375,15.56086875,203.390394375,15.49466875Q203.473964375,15.42846875,203.554394375,15.35786875Q203.634824375,15.28736875,203.711924375,15.21266875Q203.789024375,15.13796875,203.86259437500001,15.05936875Q203.936174375,14.98076875,204.006044375,14.89837875Q204.075924375,14.81599875,204.141934375,14.73003875Q204.207934375,14.64408875,204.269924375,14.55477875Q204.331904375,14.46546875,204.389714375,14.37301875Q204.447514375,14.28056875,204.501034375,14.18518875Q204.554534375,14.08981875,204.603534375,13.99175875Q204.652634375,13.89369875,204.697134375,13.79317875Q204.74153437500001,13.69266875,204.781434375,13.58993875Q204.821234375,13.48720875,204.85623437499999,13.38251875Q204.89133437499999,13.27782875,204.921534375,13.17141875Q204.951734375,13.06501875,204.977034375,12.95715875Q205.002334375,12.849298749999999,205.022634375,12.74024875Q205.042934375,12.63118875,205.058134375,12.52119875Q205.073434375,12.41120875,205.083634375,12.30055875Q205.093834375,12.189898750000001,205.098934375,12.07883875Q205.104034375,11.96778875,205.104034375,11.85659875Q205.104034375,11.74539875,205.098934375,11.634348750000001Q205.093834375,11.523288749999999,205.083634375,11.41262875Q205.073434375,11.30197875,205.058134375,11.19198875Q205.042934375,11.08199875,205.022634375,10.97293875Q205.002334375,10.863888750000001,204.977034375,10.756028749999999Q204.951734375,10.64816875,204.921534375,10.54176875Q204.89133437499999,10.435358749999999,204.85623437499999,10.330668750000001Q204.821234375,10.22597875,204.781434375,10.12324875Q204.74153437500001,10.02051875,204.697134375,9.920008750000001Q204.652634375,9.81948875,204.603534375,9.721428750000001Q204.554534375,9.623368750000001,204.501034375,9.527988749999999Q204.447514375,9.43261875,204.389714375,9.34016875Q204.331904375,9.24771875,204.269924375,9.15840875Q204.207934375,9.06909875,204.141934375,8.98314875Q204.075924375,8.89718875,204.006044375,8.814808750000001Q203.936174375,8.73241875,203.86259437500001,8.65378875Q203.789024375,8.57516875,203.711924375,8.50049875Q203.634824375,8.42582875,203.554394375,8.35528875Q203.473964375,8.28474875,203.390394375,8.21850875Q203.306814375,8.152268750000001,203.220304375,8.09049875Q203.133784375,8.02871875,203.044544375,7.97155875Q202.955294375,7.91439875,202.863524375,7.8619787500000005Q202.771764375,7.80956875,202.677704375,7.76201875Q202.583644375,7.71447875,202.487514375,7.67192875Q202.391384375,7.62937875,202.293414375,7.59191875Q202.195444375,7.55445875,202.095874375,7.52218875Q201.996304375,7.48990875,201.895374375,7.462888749999999Q201.794444375,7.43586875,201.692394375,7.41417875Q201.590344375,7.39248875,201.48741437500001,7.37616875Q201.384494375,7.35985875,201.280944375,7.3489587499999995Q201.177394375,7.33805875,201.07346437500001,7.33260875Q200.969544375,7.32714875,200.865494375,7.32714875Q200.761444375,7.32714875,200.657514375,7.33260875Q200.553594375,7.33805875,200.450044375,7.3489587499999995Q200.346494375,7.35985875,200.243574375,7.37616875Q200.140644375,7.39248875,200.038594375,7.41417875Q199.936544375,7.43586875,199.835614375,7.462888749999999Q199.734684375,7.48990875,199.635114375,7.52218875Q199.535544375,7.55445875,199.437574375,7.59191875Q199.339604375,7.62937875,199.243474375,7.67192875Q199.147344375,7.71447875,199.053284375,7.76201875Q198.959224375,7.80956875,198.867464375,7.8619787500000005Q198.775694375,7.91439875,198.686444375,7.97155875Q198.597204375,8.02871875,198.510684375,8.09049875Q198.424174375,8.152268750000001,198.340594375,8.21850875Q198.257024375,8.28474875,198.176594375,8.35528875Q198.096164375,8.42582875,198.019064375,8.50049875Q197.941964375,8.57516875,197.868394375,8.65378875Q197.794814375,8.73241875,197.724944375,8.814808750000001Q197.655064375,8.89718875,197.589054375,8.98314875Q197.523044375,9.06909875,197.461064375,9.15840875Q197.399084375,9.24771875,197.341274375,9.34016875Q197.283464375,9.43261875,197.229974375,9.527988749999999Q197.176484375,9.623368750000001,197.127434375,9.721428750000001Q197.078384375,9.81948875,197.033894375,9.920008750000001Q196.989414375,10.02051875,196.949594375,10.12324875Q196.909774375,10.22597875,196.874724375,10.330668750000001Q196.839664375,10.435358749999999,196.809464375,10.54176875Q196.779254375,10.64816875,196.753974375,10.756028749999999Q196.728694375,10.863888750000001,196.708394375,10.97293875Q196.688094375,11.08199875,196.672824375,11.19198875Q196.657564375,11.30197875,196.647364375,11.41262875Q196.637164375,11.523288749999999,196.632054375,11.634348750000001Q196.626954375,11.74539875,196.626954375,11.85659875Q196.626954375,11.96778875,196.632054375,12.07883875Q196.637164375,12.189898750000001,196.647364375,12.30055875Q196.657564375,12.41120875,196.672824375,12.52119875Q196.688094375,12.63118875,196.708394375,12.74024875Q196.728694375,12.849298749999999,196.753974375,12.95715875Q196.779254375,13.06501875,196.809464375,13.17141875Q196.839664375,13.27782875,196.874724375,13.38251875Q196.909774375,13.48720875,196.949594375,13.58993875Q196.989414375,13.69266875,197.033894375,13.79317875Q197.078384375,13.89369875,197.127434375,13.99175875Q197.176484375,14.08981875,197.229974375,14.18518875Q197.283464375,14.28056875,197.341274375,14.37301875Q197.399084375,14.46546875,197.461064375,14.55477875Q197.523044375,14.64408875,197.589054375,14.73003875Q197.655064375,14.81599875,197.724944375,14.89837875Q197.794814375,14.98076875,197.868394375,15.05936875Q197.941964375,15.13796875,198.019064375,15.21266875Q198.096164375,15.28736875,198.176594375,15.35786875Q198.257024375,15.42846875,198.340594375,15.49466875Q198.424174375,15.56086875,198.510684375,15.62266875Q198.597204375,15.68446875,198.686444375,15.74166875Q198.775694375,15.79876875,198.867464375,15.85116875Q198.959224375,15.90366875,199.053284375,15.95116875Q199.147344375,15.99866875,199.243474375,16.04126875Q199.339604375,16.08376875,199.437574375,16.12126875Q199.535544375,16.15876875,199.635114375,16.19096875Q199.734684375,16.223268750000003,199.835614375,16.25026875Q199.936544375,16.277268749999998,200.038594375,16.29896875Q200.140644375,16.32066875,200.243574375,16.33696875Q200.346494375,16.35336875,200.450044375,16.36426875Q200.553594375,16.37516875,200.657514375,16.380568750000002Q200.761444375,16.38606875,200.865494375,16.38606875Z" fill-rule="evenodd" fill="#333333" fill-opacity="1"/></g></g></svg>