<svg xmlns="http://www.w3.org/2000/svg" xmlns:xlink="http://www.w3.org/1999/xlink" fill="none" version="1.1" width="376.09942626953125" height="72.82339477539062" viewBox="0 0 376.09942626953125 72.82339477539062"><defs><clipPath id="master_svg0_280_70638"><rect x="0" y="0" width="376.09942626953125" height="72.82339477539062" rx="0"/></clipPath><clipPath id="master_svg1_280_73382"><rect x="28.993030905723572" y="23.555530905723572" width="190.70400166511536" height="28.785107851028442" rx="0"/></clipPath></defs><g clip-path="url(#master_svg0_280_70638)"><rect x="0" y="0" width="376.09942626953125" height="72.82339477539062" rx="0" fill="#333333" fill-opacity="1"/><g clip-path="url(#master_svg1_280_73382)"><g><path d="M51.660725,50.991221875L43.294925,50.991221875C36.008555,50.991221875,29.9815886,45.234221875,29.89163387,37.948021875C29.8016791,30.571801875,35.738695,24.544921875,43.115025,24.544921875L53.999525,24.544921875C54.179424999999995,24.544921875,54.269324999999995,24.724828875,54.179424999999995,24.904735875L52.020525,28.053101875C51.930525,28.143051875,51.930525,28.143051875,51.840625,28.143051875L43.294925,28.143051875C38.077515,28.233011875,33.669735,32.370861875,33.579775,37.588121875C33.489825,42.985321875,37.807645,47.303121875,43.115025,47.303121875L53.819625,47.303121875C53.999525,47.303121875,54.089425,47.483021875,53.999525,47.662921874999995L51.840625,50.811321875000004C51.840625,50.901221875000005,51.750625,50.991221875,51.660725,50.991221875Z" fill="#FFFFFF" fill-opacity="1"/></g><g><path d="M99.6083625,48.562578125C98.7987625,48.562578125,98.1690625,47.932878125,98.1690625,47.123378125L98.1690625,24.724938125C98.1690625,24.545031525,98.07906249999999,24.455078125,97.8991625,24.455078125L94.9306625,24.455078125C94.75076250000001,24.455078125,94.66086250000001,24.545031525,94.66086250000001,24.724938125L94.66086250000001,34.080088125C92.9516625,32.460928125,90.6128625,31.471438125,88.0041725,31.471438125C82.6068925,31.471438125,78.2890625,35.879178124999996,78.2890625,41.186378125000005C78.2890625,46.583578125,82.6968425,50.901378125,88.0041725,50.901378125C90.7028625,50.901378125,93.0416625,49.821978125,94.8407625,48.112778125C95.3804625,49.731978125,96.8197625,50.901378125,98.6188625,50.901378125L99.5183625,50.901378125C99.6083625,50.901378125,99.7882625,50.811378125000005,99.7882625,50.631478125L99.7882625,48.742478125000005C99.8781625,48.652578125000005,99.7882625,48.562578125,99.6083625,48.562578125ZM88.0941325,47.573078124999995C84.5858925,47.573078124999995,81.7973025,44.694578125,81.7973025,41.276378125C81.7973025,37.768178125,84.6758525,34.979578125,88.0941325,34.979578125C91.6023625,34.979578125,94.3909625,37.858178125,94.3909625,41.276378125C94.3909625,44.694578125,91.6023625,47.573078124999995,88.0941325,47.573078124999995Z" fill="#FFFFFF" fill-opacity="1"/></g><g><path d="M173.8198125,48.5628203125C173.0102125,48.5628203125,172.3805125,47.9331203125,172.3805125,47.1235203125L172.3805125,32.5510803125C172.3805125,32.3711803125,172.2906125,32.2812203125,172.1107125,32.2812203125L169.1422125,32.2812203125C168.9622125,32.2812203125,168.8723125,32.3711803125,168.8723125,32.5510803125L168.8723125,33.5405703125C166.9832125,31.9214103125,164.5545125,30.9319223125,161.8558325,31.1118298125C156.9083225,31.3816903125,152.9503165,35.3396403125,152.5904897,40.1971203125C152.2306765,45.9541203125,156.7284125,50.7216203125,162.3955525,50.7216203125C164.9143125,50.7216203125,167.2531125,49.732220312500004,169.0522125,48.1130203125C169.5020125,49.732220312500004,171.0312125,50.9915203125,172.8303125,50.9915203125L173.7298125,50.9915203125C173.9097125,50.9915203125,173.9997125,50.9016203125,173.9997125,50.7216203125L173.9997125,48.7427203125C174.0897125,48.6527203125,173.9997125,48.5628203125,173.8198125,48.5628203125ZM162.4855225,47.303420312499995C158.9772925,47.303420312499995,156.0987325,44.4249203125,156.0987325,40.9167503125C156.0987325,37.408570312500004,158.9772825,34.5300603125,162.4855225,34.5300603125C165.99371250000002,34.5300603125,168.8723125,37.4085603125,168.8723125,40.9167503125C168.8723125,44.4249203125,165.9938125,47.303420312499995,162.4855225,47.303420312499995Z" fill="#FFFFFF" fill-opacity="1"/></g><g><rect x="213.849609375" y="47.212890625" width="3.7780981063842773" height="3.7780416011810303" rx="0" fill="#FFFFFF" fill-opacity="1"/></g><g><path d="M65.51534,50.6318359375L60.20801,41.0967959375L65.42538,31.7416499375C65.51534,31.5617429375,65.42538,31.3818359375,65.24547,31.3818359375L61.82719,31.3818359375Q61.73724,31.3818359375,61.64728,31.4717892375L56.25,41.0967959375L61.73724,50.9017359375C61.73724,50.9916359375,61.82719,50.9916359375,61.91715,50.9916359375L65.33543,50.9916359375C65.42539,50.9916359375,65.6053,50.8117359375,65.51534,50.6318359375Z" fill="#FFFFFF" fill-opacity="1"/></g><g><path d="M67.22373335,50.6318359375L72.53105875,41.0967959375L67.31368675,31.7416499375C67.22373335,31.5617429375,67.31368675,31.3818359375,67.49359675,31.3818359375L70.91187875,31.3818359375Q71.00182875,31.3818359375,71.09178875,31.4717892375L76.48906875,41.0967959375L71.00182875,50.9017359375C71.00182875,50.9916359375,70.91187875,50.9916359375,70.82191875,50.9916359375L67.40364375,50.9916359375C67.31368675,50.9916359375,67.13378005,50.8117359375,67.22373335,50.6318359375Z" fill="#FFFFFF" fill-opacity="1"/></g><g><path d="M121.1064375,42.98585C121.1963375,42.44615,121.2863375,41.81645,121.2863375,41.27671C121.2863375,35.699600000000004,116.5187375,31.111974,110.8515975,31.561741C106.0839875,31.921554,102.1259885,35.78955,101.8561216,40.55708C101.4963015,46.22415,105.9940375,50.99165,111.5712375,50.99165C115.0794375,50.99165,118.13793749999999,49.19265,119.8470375,46.40405C119.9370375,46.22415,119.8470375,46.04425,119.6671375,46.04425L115.7991375,46.04425C115.7091375,46.04425,115.7091375,46.04425,115.6192375,46.13415C114.5397375,47.03375,113.1004375,47.57345,111.5712375,47.57345C108.6926875,47.57345,106.2639075,45.59445,105.4543075,42.98585L121.1064375,42.98585ZM111.4812775,34.89002C114.3598375,34.89002,116.7886375,36.86899,117.5982375,39.47764L105.3643575,39.47764C106.1739475,36.86899,108.6027275,34.89002,111.4812775,34.89002Z" fill="#FFFFFF" fill-opacity="1"/></g><g><path d="M211.870109375,42.89600625C211.960109375,42.35620625,212.050009375,41.72660625,212.050009375,41.18685625C212.050009375,35.60974625,207.282409375,31.02212325,201.615269375,31.47189035C196.847669375,31.83170325,192.889667375,35.69969625,192.619800275,40.467226249999996C192.259987375,46.13430625,196.757719375,50.90180625,202.334909375,50.90180625C205.843109375,50.90180625,208.901609375,49.10270625,210.610709375,46.31420625C210.700709375,46.13430625,210.610709375,45.95440625,210.430809375,45.95440625L206.562809375,45.95440625C206.472809375,45.95440625,206.472809375,45.95440625,206.382909375,46.04430625C205.303409375,46.94390625,203.864109375,47.48360625,202.334909375,47.48360625C199.456369375,47.48360625,197.027589375,45.50460625,196.217989375,42.89600625L211.870109375,42.89600625ZM202.244969375,34.89011625C205.123509375,34.89011625,207.552309375,36.86909625,208.361909375,39.477746249999996L196.217999375,39.477746249999996C196.937629375,36.86909625,199.366409375,34.89011625,202.244969375,34.89011625Z" fill="#FFFFFF" fill-opacity="1"/></g><g><path d="M145.66374687500002,50.810915625L151.690746875,31.650829625C151.780646875,31.470922625,151.600746875,31.291015625,151.420846875,31.291015625L148.36234687500001,31.291015625C148.272446875,31.291015625,148.182446875,31.380968925,148.092546875,31.470922625L143.414846875,46.133315625L138.737246875,31.560875625C138.737246875,31.470922625,138.647246875,31.380969325,138.467346875,31.380969325L135.498846875,31.380969325C135.408846875,31.380969325,135.318946875,31.470922625,135.228946875,31.560875625L130.641296875,46.583115625L125.783746875,31.560875625C125.783746875,31.470922625,125.693786875,31.380968925,125.513876875,31.380968925L122.455413875,31.380968925C122.275507075,31.380968925,122.185546875,31.560875625,122.185546875,31.740781625L128.302466875,50.900815625C128.302466875,50.990815624999996,128.392426875,51.080715624999996,128.572336875,51.080715624999996L132.620346875,51.080715624999996C132.710246875,51.080715624999996,132.800246875,50.990815624999996,132.890146875,50.900815625L137.028046875,37.587745625L141.345946875,50.900815625C141.345946875,50.990815624999996,141.435846875,51.080715624999996,141.615746875,51.080715624999996L145.393846875,51.080715624999996C145.483846875,50.990815624999996,145.573746875,50.900815625,145.66374687500002,50.810915625Z" fill="#FFFFFF" fill-opacity="1"/></g><g><path d="M175.08022115,31.7416499375L181.19714875,50.9916359375L185.69486875,50.9916359375L191.63186875,31.7416499375C191.72186875,31.5617429375,191.54196875,31.381836366431,191.36206875,31.381836366431L188.21356875,31.381836366431C188.12366875,31.381836366431,188.03366875,31.4717896375,187.94376875,31.5617429375L183.26610875,46.5839359375L178.49849875,31.5617429375C178.49849875,31.4717892375,178.40853875,31.3818359375,178.22863875,31.3818359375L175.17018175,31.3818359375C175.08022115,31.3818359375,174.99027465,31.5617429375,175.08022115,31.7416499375Z" fill="#FFFFFF" fill-opacity="1"/></g></g><g><path d="M230.23046875,24.679965125L230.23046875,50.715978125C230.23046875,50.840178125,230.33115375,50.940878125,230.45535575,50.940878125L239.80097875,50.940878125C244.06656875,50.940878125,247.29366875,49.754678125,249.51936875,47.380178125C249.51976875,47.379678125,249.51996875,47.379478125,249.52046875,47.378978125C251.63446875,45.079878125,252.71006875,41.852678125,252.71006875,37.698578125C252.71006875,33.506848125,251.67146875,30.279558125,249.59436875,28.054018125C249.59406875,28.053718125,249.59406875,28.053788125,249.59386875,28.053488125C247.36816875,25.642468125,244.14096875,24.455078125,239.87516875,24.455078125L230.45535575,24.455078125C230.33115375,24.455078125,230.23046875,24.555763125,230.23046875,24.679965125M234.49779875,27.905448125L239.13327875,27.905448125C242.47126875,27.905448125,244.91926875000001,28.684018125,246.47726875,30.278478125C246.47796875,30.279148125,246.47826875,30.279458124999998,246.47886875,30.280138125C247.96216875,31.837848125,248.74086875,34.286128125,248.74086875,37.698578125C248.74086875,41.036278124999995,247.96216875,43.484578125,246.44176875,45.079678125C246.44106875,45.080278125,246.44086875,45.080578125,246.44026875,45.081178125C244.88216875,46.675678125000005,242.39706875,47.491578125000004,239.05908875,47.491578125000004L234.49779875,47.491578125000004C234.37359875,47.491578125000004,234.27290875,47.390978125000004,234.27290875,47.266778125L234.27290875,28.130338125C234.27290875,28.006138125,234.37359875,27.905448125,234.49779875,27.905448125M284.53756875,31.243778125C282.23846875,31.243778125,280.34706875,31.725698125,278.90056875,32.726858125C278.89946875,32.727608125,278.89876875,32.728068125,278.89766875,32.728798125C277.45196875,33.693228125,276.74766875,35.064878125,276.74766875,36.807678125C276.74766875,38.439078125,277.48866875,39.736978125,278.97076875,40.663978125C278.97266875,40.665178125,278.97396875,40.666078125,278.97586875,40.667278124999996C279.86656875,41.259778125,281.46076875,41.816178125,283.72136875,42.335278125C283.72156875,42.335278125,283.72126875,42.335278125,283.72146875,42.335278125C285.68486875,42.779578125,286.98226875,43.150478125,287.57686875,43.446878125C287.57866875,43.447778125,287.57996875,43.448378125000005,287.58176875,43.449178125C288.69306875,43.968778125,289.28576875,44.709778125,289.28576875,45.636278125000004C289.28576875,47.343378125,287.72776875,48.233078125,284.68596875000003,48.233078125C283.20446875,48.233078125,282.16666875,47.974678125,281.49886875,47.493878124999995C281.49666875,47.492278125,281.49496875,47.490978125,281.49286875,47.489378125C280.85916875,46.994678125,280.39296875,46.132478125,280.15766874999997,44.933778125C280.13656875,44.826278125,280.04316875,44.746478124999996,279.93366875,44.746478124999996L276.51386875000003,44.746478124999996C276.38086875,44.746478124999996,276.27676875,44.862478124999996,276.29296875,44.994578125000004C276.81706875,49.281678125,279.62846875,51.460478125,284.79726875,51.460478125C290.47276875,51.460478125,293.32906875,49.420578125,293.32906875,45.376978125C293.32906875,43.670078125,292.55026875,42.335478125,291.02956875,41.371078125C291.02916875,41.370778125,291.02916875,41.370778125,291.02876875,41.370578125C289.99026875,40.702878125,288.35856875,40.072578125,286.17076875,39.553078125C286.16996875,39.552878125,286.16956875,39.552778125,286.16866875,39.552578125C284.24176875,39.070778125000004,282.98126875,38.699778125,282.31336875,38.403278125C282.31216875,38.402778125,282.31156875,38.402478125,282.31036875,38.401978125C281.27276875,37.919878125,280.75386875,37.364278125,280.75386875,36.696678125C280.75386875,35.956578125,281.08556875,35.364878125000004,281.78566875,34.993278125C281.79046875,34.990778125,281.79456875,34.988378125,281.79926875,34.985478125C282.39276875,34.618378125,283.28076875,34.471178125,284.46336875,34.471178125C285.79796875,34.471178125,286.83626875,34.692778125000004,287.50396875,35.138278125C287.50496875,35.138878125,287.50546875,35.139178125,287.50636875,35.139878124999996C288.10266875,35.525678125,288.53306875,36.177978124999996,288.82886874999997,37.126378125C288.85876875,37.222178125,288.94686875,37.289878125,289.04726875,37.289878125L292.44746875,37.289878125C292.58146875,37.289878125,292.68606875,37.174978125,292.66796875,37.042278124999996C292.13916875,33.164588125,289.40576875,31.243778125,284.53756875,31.243778125ZM297.47286875,31.990448125L297.47286875,50.715978125C297.47286875,50.840178125,297.57346875,50.940878125,297.69766875,50.940878125L301.18446875,50.940878125C301.30866875,50.940878125,301.40936875,50.840178125,301.40936875,50.715978125L301.40936875,31.990448125C301.40936875,31.866248125,301.30866875,31.765568125,301.18446875,31.765568125L297.69766875,31.765568125C297.57346875,31.765568125,297.47286875,31.866248125,297.47286875,31.990448125M320.54856875,47.305978124999996L320.54856875,50.277378125C320.54856875,53.874978125,318.88216875,55.698478125,315.53736875,55.698478125C313.98096875,55.698478125,312.83446875,55.433078125,312.12186875,54.987778125C312.12046875,54.986978125,312.11956875,54.986378125,312.11826874999997,54.985478125C311.42346875,54.528778125,310.98676875,53.781478125,310.75746875,52.764678125C310.73386875,52.659778125,310.64176875,52.583178125,310.53416875,52.583178125L307.05106875,52.583178125C306.91116875,52.583178125,306.80516875,52.710478125,306.83266875,52.847678125C307.22936875,54.826578125,308.06146875,56.297178125,309.41396875,57.291478125C309.41486875,57.292178125,309.41546875,57.292578125,309.41646875000004,57.293278125C310.82926875,58.295678125,312.86946875,58.813778125,315.53736875,58.813778125C321.47836875,58.813778125,324.47296875,55.770978125,324.47296875,49.685278124999996L324.47296875,31.990448125C324.47296875,31.866248125,324.37226875,31.765568125,324.24806875,31.765568125L320.77336875000003,31.765568125C320.64916875,31.765568125,320.54856875,31.866248125,320.54856875,31.990448125L320.54856875,47.305978124999996ZM338.84446875000003,31.243778125C337.65846875,31.243778125,336.58446875,31.465248125,335.62046875,31.983758125C335.61846875000003,31.984838125,335.61646874999997,31.985638125,335.61446875,31.986668125C334.82846875,32.380178125,334.11646874999997,32.921938125,333.47846875,33.631588125C333.33446875,33.791248124999996,333.05746875,33.690758125,333.05746875,33.476018124999996L333.05746875,31.988258125C333.05746875,31.864058125,332.95746875,31.763368125,332.83346875,31.763368125L329.35066875,31.763368125C329.22646875,31.763368125,329.12576875,31.864058125,329.12576875,31.988258125L329.12576875,50.715978125C329.12576875,50.840178125,329.22646875,50.940878125,329.35066875,50.940878125L332.83346875,50.940878125C332.95746875,50.940878125,333.05746875,50.840178125,333.05746875,50.715978125L333.05746875,39.415178125C333.05746875,39.408078125,333.05846875,39.401478125,333.05846875,39.394378125C333.20846875,37.841578125,333.76446875,36.620078125,334.65246875,35.732278125C335.46946875000003,34.916078125,336.47046875,34.544778125,337.58346875,34.544778125C340.55146875,34.544778125,342.07146875,36.177078125,342.07146875,39.441878125L342.07146875,50.715978125C342.07146875,50.840178125,342.17246875,50.940878125,342.29646875000003,50.940878125L345.77946875,50.940878125C345.90346875,50.940878125,346.00446875,50.840178125,346.00446875,50.715978125L346.00446875,39.107878125C346.00446875,33.840628125,343.59246874999997,31.243778125,338.84446875000003,31.243778125Z" fill="#FFFFFF" fill-opacity="1"/></g><g><path d="M274.73418125,42.9863203125C274.81288125,42.4920203125,274.88348125,41.9433203125,274.88348125,41.4651003125C274.88348125,35.8858603125,270.11418125,31.2964733125,264.44500125,31.7463016125C264.44471125,31.7463245125,264.44491125,31.7463085125,264.44462125,31.7463303125C259.67550125,32.1063573125,255.71623325,35.9755703125,255.44600935,40.7446703125C255.44598035,40.7451803125,255.44597965,40.7451903125,255.44594715,40.7457103125C255.08630425,46.4148203125,259.58561125,51.1839203125,265.16472125,51.1839203125C268.67098125,51.1839203125,271.72808125,49.3875203125,273.43878125,46.6023203125C273.44218125,46.5968203125,273.44498125,46.5919203125,273.44768125,46.5861203125C273.53078125,46.4089203125,273.44088125,46.2345203125,273.26368125,46.2345203125L269.39418125,46.2345203125C269.30658125,46.2345203125,269.30428125,46.2345203125,269.22118125,46.3175203125C269.21638125,46.3223203125,269.21178125,46.3265203125,269.20658125,46.3308203125C268.12758125,47.2269203125,266.69098125,47.764320312500004,265.16472125,47.764320312500004C262.39308125,47.764320312500004,260.03827125,45.9302203125,259.14340125,43.4657203125C259.09168125,43.3233203125,259.19924125,43.1749203125,259.35077125,43.1749203125L274.51298125,43.1749203125C274.62288125,43.1749203125,274.71698125,43.0949203125,274.73418125,42.9863203125M265.07474125,35.1658903125C267.84638125,35.1658903125,270.20118125,36.9999403125,271.09608125,39.4644603125C271.14778125,39.6068903125,271.04018125,39.755320312500004,270.88868125,39.755320312500004L259.34085125,39.755320312500004C259.19229125,39.755320312500004,259.08484125,39.612770312500004,259.13128125,39.4716603125C259.94369125,37.0035203125,262.30039125,35.1658903125,265.07474125,35.1658903125Z" fill="#FFFFFF" fill-opacity="1"/></g><g><rect x="297.513671875" y="25.384765625" width="3.772214651107788" height="3.7795279026031494" rx="0" fill="#FFFFFF" fill-opacity="1"/></g><g><path d="M314.62821375,51.183428125Q314.85009375,51.183428125,315.07171375,51.171628125Q315.29332375,51.159928125,315.51413375,51.136428124999995Q315.73494375,51.112928124999996,315.95444375,51.077828124999996Q316.17394375,51.042628125,316.39154375,50.995928125Q316.60914375,50.949228125000005,316.82434375,50.891028125Q317.03964375,50.832828125,317.25194375,50.763328125Q317.46424375,50.693828124999996,317.67314375,50.613128125Q317.88204375,50.532528125,318.08704375,50.440828124999996Q318.29204375,50.349228124999996,318.49264375,50.246828125Q318.69324375,50.144428125000005,318.88884375,50.031528125Q319.08454375,49.918628125,319.27484375,49.795528125000004Q319.46514375,49.672428124999996,319.64964375,49.539428125Q319.83414375,49.406328125,320.01234375,49.263728125Q320.19054375,49.121028124999995,320.36214375,48.969128125Q320.53364375,48.817228125,320.69804375,48.656428125000005Q320.86244375,48.495628124999996,321.01934375,48.326228125Q321.17624375,48.156928125,321.32524375,47.979528125Q321.47424375,47.802128124999996,321.61494375,47.616928125Q321.75574375,47.431828124999996,321.88794375,47.239528125Q322.02004375,47.047228125000004,322.14334375,46.848028125Q322.26664375,46.648928125,322.38064375,46.443528125Q322.49474375,46.238128125,322.59934375,46.026928125Q322.70394375,45.815828124999996,322.79884375,45.599328125Q322.89364375,45.382828125,322.97854375,45.161628125Q323.06344375,44.940328125,323.13824375,44.714928125Q323.21294375,44.489428125,323.27744375,44.260228125Q323.34184375,44.031128125,323.39574375,43.798828125Q323.44964375,43.566528125,323.49294375,43.331628125Q323.53624375,43.096828125,323.56874375,42.859928124999996Q323.60134375,42.623028125,323.62304375,42.384728125Q323.64484375,42.146428125,323.65574375,41.907228125Q323.66664375,41.668068125,323.66654375,41.428608125Q323.66664375,41.189138125,323.65574375,40.949958125Q323.64484375,40.710788125,323.62304375,40.472468125Q323.60134375,40.234158125,323.56874375,39.997278125Q323.53624375,39.760408125,323.49294375,39.525538125Q323.44964375,39.290678125,323.39574375,39.058388125Q323.34184375,38.826098125,323.27744375,38.596948125Q323.21294375,38.367788125,323.13824375,38.142318125Q323.06344375,37.916848125,322.97854375,37.695618125Q322.89364375,37.474378125,322.79884375,37.257898125Q322.70394375,37.041428125,322.59934375,36.830238125Q322.49474375,36.619048125,322.38064375,36.413648125Q322.26664375,36.208248125,322.14334375,36.009138125Q322.02004375,35.810028125,321.88794375,35.617688125Q321.75574375,35.425348125,321.61494375,35.240238125Q321.47424375,35.055128125,321.32524375,34.877698125Q321.17624375,34.700268125,321.01934375,34.530938125Q320.86244375,34.361608125000004,320.69804375,34.200788125Q320.53364375,34.039978125,320.36214375,33.888058125Q320.19054375,33.736148125,320.01234375,33.593498124999996Q319.83414375,33.450848125,319.64964375,33.317808125Q319.46514375,33.184768125,319.27484375,33.061658125Q319.08454375,32.938548125,318.88884375,32.825658125Q318.69324375,32.712778125,318.49264375,32.610391125Q318.29204375,32.508006125,318.08704375,32.416366125Q317.88204375,32.324726125,317.67314375,32.244053125Q317.46424375,32.163379125,317.25194375,32.093865125Q317.03964375,32.024352125,316.82434375,31.966166125Q316.60914375,31.907981125,316.39154375,31.861263125Q316.17394375,31.814546125,315.95444375,31.779409125Q315.73494375,31.744271825,315.51413375,31.720800025Q315.29332375,31.697328225,315.07171375,31.685578225Q314.85009375,31.673828125,314.62821375,31.673828125Q314.40634375,31.673828125,314.18472375,31.685578225Q313.96311375,31.697328225,313.74230375,31.720800025Q313.52149375,31.744271825,313.30201375,31.779409125Q313.08253375,31.814546125,312.86491375,31.861263125Q312.64730375,31.907981125,312.43207375,31.966166125Q312.21684375,32.024352125,312.00451375,32.093865125Q311.79219375,32.163379125,311.58328375,32.244053125Q311.37437375,32.324726125,311.16938375,32.416366125Q310.96439375,32.508006125,310.76381375,32.610391125Q310.56323375,32.712778125,310.36755375,32.825658125Q310.17187375,32.938548125,309.98156375,33.061658125Q309.79125375,33.184768125,309.60676375,33.317808125Q309.42228375,33.450848125,309.24406375,33.593498124999996Q309.06585375,33.736148125,308.89433375,33.888058125Q308.72282375,34.039978125,308.55841375,34.200788125Q308.39401375,34.361608125000004,308.23712375,34.530938125Q308.08023375,34.700268125,307.93122375,34.877698125Q307.78222375,35.055128125,307.64146375,35.240238125Q307.50070375,35.425348125,307.36852375,35.617688125Q307.23635375,35.810028125,307.11308375,36.009138125Q306.98981375,36.208248125,306.87574375,36.413648125Q306.76167375,36.619048125,306.65708375,36.830238125Q306.55248975,37.041428125,306.45762475,37.257898125Q306.36275875,37.474378125,306.27784875,37.695618125Q306.19293975,37.916848125,306.11819075,38.142318125Q306.04344175,38.367788125,305.97903275,38.596948125Q305.91462475,38.826098125,305.86071275,39.058388125Q305.80679975,39.290678125,305.76351375,39.525538125Q305.72022675,39.760408125,305.68767045,39.997278125Q305.65511395,40.234158125,305.63336595,40.472468125Q305.61161795,40.710788125,305.60073085,40.949958125Q305.58984375,41.189138125,305.58984375,41.428608125Q305.58984375,41.668068125,305.60073085,41.907228125Q305.61161795,42.146428125,305.63336595,42.384728125Q305.65511395,42.623028125,305.68767045,42.859928124999996Q305.72022675,43.096828125,305.76351375,43.331628125Q305.80679975,43.566528125,305.86071275,43.798828125Q305.91462475,44.031128125,305.97903275,44.260228125Q306.04344175,44.489428125,306.11819075,44.714928125Q306.19293975,44.940328125,306.27784875,45.161628125Q306.36275875,45.382828125,306.45762475,45.599328125Q306.55248975,45.815828124999996,306.65708375,46.026928125Q306.76167375,46.238128125,306.87574375,46.443528125Q306.98981375,46.648928125,307.11308375,46.848028125Q307.23635375,47.047228125000004,307.36852375,47.239528125Q307.50070375,47.431828124999996,307.64146375,47.616928125Q307.78222375,47.802128124999996,307.93122375,47.979528125Q308.08023375,48.156928125,308.23712375,48.326228125Q308.39401375,48.495628124999996,308.55841375,48.656428125000005Q308.72282375,48.817228125,308.89433375,48.969128125Q309.06585375,49.121028124999995,309.24406375,49.263728125Q309.42228375,49.406328125,309.60676375,49.539428125Q309.79125375,49.672428124999996,309.98156375,49.795528125000004Q310.17187375,49.918628125,310.36755375,50.031528125Q310.56323375,50.144428125000005,310.76381375,50.246828125Q310.96439375,50.349228124999996,311.16938375,50.440828124999996Q311.37437375,50.532528125,311.58328375,50.613128125Q311.79219375,50.693828124999996,312.00451375,50.763328125Q312.21684375,50.832828125,312.43207375,50.891028125Q312.64730375,50.949228125000005,312.86492375,50.995928125Q313.08253375,51.042628125,313.30201375,51.077828124999996Q313.52149375,51.112928124999996,313.74230375,51.136428124999995Q313.96311375,51.159928125,314.18472375,51.171628125Q314.40634375,51.183428125,314.62821375,51.183428125ZM314.62742375,47.914128125000005Q314.77491375,47.914128125000005,314.92223375,47.906328125Q315.06955375,47.898528125,315.21633375,47.882928125Q315.36312375,47.867328125,315.50901375,47.843928125000005Q315.65494375,47.820628125,315.79954375,47.789528125000004Q315.94424375,47.758528125,316.08734375,47.719828125Q316.23034375,47.681128125,316.37154375,47.634928125Q316.51264375,47.588728125,316.65154375,47.535128125Q316.79044375,47.481428125,316.92664375,47.420528125000004Q317.06294375,47.359628125,317.19624375,47.291528125Q317.32964375,47.223528125,317.45974375,47.148428125Q317.58974375,47.073428125,317.71624375,46.991628125Q317.84284375,46.909728125,317.96544375,46.821328125Q318.08804375,46.732928125,318.20654375,46.638028125Q318.32504375,46.543228125,318.43904375,46.442228125Q318.55304375000003,46.341228125,318.66234375,46.234328125Q318.77164375,46.127428125,318.87594375,46.014928125Q318.98024375,45.902328125,319.07924375,45.784428125Q319.17834375,45.666428124999996,319.27184375,45.543428125Q319.36544375,45.420328125,319.45334375,45.292528125000004Q319.54114375,45.164628125,319.62314375,45.032328125Q319.70504375,44.899928125,319.78084375,44.763428125000004Q319.85674375,44.626828125,319.92624375,44.486428125Q319.99574375,44.346028125000004,320.05884375,44.202128125Q320.12194375,44.058228125,320.17834375,43.911228125Q320.23474375,43.764128125,320.28444375,43.614228125Q320.33414375,43.464428125,320.37694375,43.312028125Q320.41984375,43.159728125,320.45564375,43.005328125Q320.49144375,42.850928124999996,320.52024375,42.694728125Q320.54904375,42.538628125,320.57064375,42.381228125Q320.59234375,42.223728125,320.60674375,42.065328125Q320.62124375,41.906928125,320.62844375,41.747928125Q320.63574375,41.588918125,320.63574375,41.429728125Q320.63574375,41.270548125,320.62844375,41.111558125Q320.62124375,40.952568125,320.60674375,40.794148125Q320.59234375,40.635728125,320.57064375,40.478268125Q320.54904375,40.320808125,320.52024375,40.164688125Q320.49144375,40.008558125,320.45564375,39.854148125Q320.41984375,39.699728125,320.37694375,39.547408125Q320.33414375,39.395078125,320.28444375,39.245198125Q320.23474375,39.095318125,320.17834375,38.948248125Q320.12194375,38.801188125,320.05884375,38.657288125Q319.99574375,38.513388125,319.92624375,38.372998125Q319.85674375,38.232608125,319.78084375,38.096078125Q319.70504375,37.959538125,319.62314375,37.827178125Q319.54114375,37.694828125,319.45334375,37.566968125Q319.36544375,37.439108125,319.27184375,37.316058125Q319.17834375,37.193008125,319.07924375,37.075058125Q318.98024375,36.957118125,318.87594375,36.844558125Q318.77164375,36.731998125,318.66234375,36.625098125Q318.55304375000003,36.518188125,318.43904375,36.417208125Q318.32504375,36.316218125,318.20654375,36.221398125Q318.08804375,36.126568125,317.96544375,36.038138125Q317.84284375,35.949698125,317.71624375,35.867858125Q317.58974375,35.786018125,317.45974375,35.710988125Q317.32964375,35.635948125,317.19624375,35.567888125Q317.06294375,35.499828125,316.92664375,35.438908125Q316.79044375,35.377988125,316.65154375,35.324368125Q316.51264375,35.270738125,316.37154375,35.224528125Q316.23034375,35.178318125,316.08734375,35.139638125Q315.94424375,35.100968125,315.79954375,35.069908125Q315.65494375,35.038858125,315.50901375,35.015498125Q315.36312375,34.992138125,315.21633375,34.976538125Q315.06955375,34.960938125,314.92223375,34.953128125Q314.77491375,34.945308125,314.62742375,34.945308125Q314.47992375,34.945308125,314.33260375,34.953128125Q314.18529375,34.960938125,314.03850375,34.976538125Q313.89172375,34.992138125,313.74582375,35.015498125Q313.59992375,35.038858125,313.45526375,35.069908125Q313.31060375,35.100968125,313.16752375,35.139638125Q313.02445375,35.178318125,312.88331375,35.224528125Q312.74216375,35.270738125,312.60329375,35.324368125Q312.46441375,35.377988125,312.32815375,35.438908125Q312.19188375,35.499828125,312.05855375,35.567888125Q311.92521375,35.635948125,311.79513375,35.710988125Q311.66505375,35.786018125,311.53854375,35.867858125Q311.41203375,35.949698125,311.28939375,36.038138125Q311.16676375,36.126568125,311.04829375,36.221398125Q310.92982375,36.316218125,310.81580375,36.417208125Q310.70179375,36.518188125,310.59250375,36.625098125Q310.48322375,36.731998125,310.37892375,36.844558125Q310.27463375,36.957118125,310.17557375,37.075058125Q310.07652375,37.193008125,309.98295375,37.316058125Q309.88938375,37.439108125,309.80152375,37.566968125Q309.71366375,37.694828125,309.63171375,37.827178125Q309.54977375,37.959538125,309.47394375,38.096078125Q309.39812375,38.232608125,309.32859375,38.372998125Q309.25906375,38.513388125,309.19600375,38.657288125Q309.13293375,38.801188125,309.07649375,38.948248125Q309.02005375,39.095318125,308.97036375,39.245198125Q308.92067375,39.395078125,308.87785375,39.547408125Q308.83504375,39.699728125,308.79920375,39.854148125Q308.76336375,40.008558125,308.73458375,40.164688125Q308.70581375,40.320808125,308.68417375,40.478268125Q308.66253375,40.635728125,308.64807375,40.794148125Q308.63361375,40.952568125,308.62637375,41.111558125Q308.61914375,41.270548125,308.61914375,41.429728125Q308.61914375,41.588918125,308.62637375,41.747928125Q308.63361375,41.906928125,308.64807375,42.065328125Q308.66253375,42.223728125,308.68417375,42.381228125Q308.70581375,42.538628125,308.73458375,42.694728125Q308.76336375,42.850928124999996,308.79920375,43.005328125Q308.83504375,43.159728125,308.87785375,43.312028125Q308.92067375,43.464428125,308.97036375,43.614228125Q309.02005375,43.764128125,309.07649375,43.911228125Q309.13293375,44.058228125,309.19600375,44.202128125Q309.25906375,44.346028125000004,309.32859375,44.486428125Q309.39812375,44.626828125,309.47394375,44.763428125000004Q309.54977375,44.899928125,309.63171375,45.032328125Q309.71366375,45.164628125,309.80152375,45.292528125000004Q309.88938375,45.420328125,309.98295375,45.543428125Q310.07652375,45.666428124999996,310.17557375,45.784428125Q310.27463375,45.902328125,310.37892375,46.014928125Q310.48322375,46.127428125,310.59250375,46.234328125Q310.70179375,46.341228125,310.81580375,46.442228125Q310.92982375,46.543228125,311.04829375,46.638028125Q311.16676375,46.732928125,311.28939375,46.821328125Q311.41203375,46.909728125,311.53854375,46.991628125Q311.66505375,47.073428125,311.79513375,47.148428125Q311.92521375,47.223528125,312.05855375,47.291528125Q312.19188375,47.359628125,312.32815375,47.420528125000004Q312.46441375,47.481428125,312.60329375,47.535128125Q312.74216375,47.588728125,312.88330375,47.634928125Q313.02445375,47.681128125,313.16752375,47.719828125Q313.31060375,47.758528125,313.45526375,47.789528125000004Q313.59992375,47.820628125,313.74582375,47.843928125000005Q313.89172375,47.867328125,314.03850375,47.882928125Q314.18529375,47.898528125,314.33260375,47.906328125Q314.47992375,47.914128125000005,314.62742375,47.914128125000005Z" fill-rule="evenodd" fill="#FFFFFF" fill-opacity="1"/></g></g></svg>