<svg xmlns="http://www.w3.org/2000/svg" xmlns:xlink="http://www.w3.org/1999/xlink" fill="none" version="1.1" width="200" height="218" viewBox="0 0 200 218"><defs><clipPath id="master_svg0_8548_346764"><rect x="182" y="85" width="10" height="10" rx="0"/></clipPath><clipPath id="master_svg1_8548_346765"><rect x="182" y="202" width="10" height="10" rx="0"/></clipPath></defs><g style="mix-blend-mode:passthrough"><g style="mix-blend-mode:passthrough"><g style="mix-blend-mode:passthrough"><g style="mix-blend-mode:passthrough"><path d="M3.54818,56.98086L8.01758,56.98086L8.01758,57.5733L8.75,57.5733L8.75,53.3513L4.58008,53.3513C6.45833,52.48216,7.75065,51.36237,8.47005,49.991929999999996L8.47005,49.35065L4.57031,49.35065C4.76888,49.08047,4.94792,48.80052,5.10742,48.50104L4.31966,48.4099C3.71745,49.47109,2.56836,50.36953,0.859375,51.10195L1.33789,51.720439999999996C2.39909,51.2224,3.25846,50.6625,3.9388,50.03099L7.63997,50.03099C7.16797,50.8513,6.42904,51.56094,5.41016,52.16966C4.97721,51.80182,4.37825,51.3819,3.61979,50.9099L2.99805,51.30052C3.75977,51.73021,4.35872,52.1306,4.79818,52.501689999999996C3.64909,53.08112,2.20703,53.5401,0.478516,53.90143L0.859375,54.59154C1.55924,54.42227,2.20703,54.23997,2.82878,54.04141L2.82878,57.5733L3.54818,57.5733L3.54818,56.98086ZM8.01758,56.28099L3.54818,56.28099L3.54818,54.02188L8.01758,54.02188L8.01758,56.28099ZM10.5794,51.17031L10.5794,51.86042L11.9596,51.86042C11.6374,52.99974,11.097,54.01211,10.3385,54.90078L10.6478,55.70156C11.2272,54.90078,11.6992,54.01211,12.0378,53.03229L12.0378,57.5733L12.7279,57.5733L12.7279,53.05182C13.0273,53.40013,13.3984,53.87214,13.8184,54.471090000000004L14.2188,53.87214C13.7174,53.33177,13.2292,52.85,12.7279,52.41055L12.7279,51.86042L13.9583,51.86042L13.9583,51.17031L12.7279,51.17031L12.7279,49.6306C13.2389,49.52969,13.7174,49.4125,14.1602,49.29206L13.9095,48.61172C12.9492,48.9112,11.8587,49.10977,10.6185,49.220439999999996L10.7585,49.90078C11.1979,49.86172,11.6178,49.79987,12.0378,49.74128L12.0378,51.17031L10.5794,51.17031ZM16.2598,57.5505C16.8294,57.5505,17.1191,57.251,17.1191,56.65208L17.1191,51.36237L16.3802,51.36237L16.3802,56.47305C16.3802,56.76276,16.25,56.9125,16.0091,56.9125C15.7389,56.9125,15.4492,56.89297,15.1497,56.86042L15.2995,57.5505L16.2598,57.5505ZM15,52.80117C14.7493,53.96003,14.3587,55.03099,13.8184,55.99128L14.4401,56.3819C14.9674,55.41185,15.3776,54.26276,15.6673,52.93138L15,52.80117ZM18.418,52.73281L17.7702,52.94115C18.1901,53.96979,18.5807,55.15143,18.929,56.48281L19.5898,56.1931C19.2578,54.96263,18.8704,53.81029,18.418,52.73281ZM15.6803,50.50951L18.5384,50.50951C18.418,51.09219,18.2682,51.60977,18.0892,52.08177L18.7891,52.2901C18.9876,51.63255,19.1406,50.96198,19.2578,50.28164L19.2578,49.80964L15.9473,49.80964C16.0905,49.38971,16.2077,48.95026,16.2988,48.49128L15.5892,48.40013C15.3483,49.679429999999996,14.8796,50.76016,14.1992,51.64232L14.6387,52.21198C15.0488,51.710679999999996,15.4004,51.14102,15.6803,50.50951Z" fill="#666666" fill-opacity="1"/></g><g style="mix-blend-mode:passthrough"><path d="M50.13932,48.429428L50.13932,49.08047L47.71745,49.08047L47.71745,49.66966L50.13932,49.66966L50.13932,50.34023L48.11784,50.34023L48.11784,50.91966L50.13932,50.91966L50.13932,51.6L47.4375,51.6L47.4375,52.20221L53.56055,52.20221L53.56055,51.6L50.82943,51.6L50.82943,50.91966L52.948570000000004,50.91966L52.948570000000004,50.34023L50.82943,50.34023L50.82943,49.66966L53.3099,49.66966L53.3099,49.08047L50.82943,49.08047L50.82943,48.429428L50.13932,48.429428ZM48.88932,54.72175L52.11849,54.72175L52.11849,55.45091L48.88932,55.45091L48.88932,54.72175ZM52.11849,54.16185L48.88932,54.16185L48.88932,53.42292L52.11849,53.42292L52.11849,54.16185ZM48.88932,56.01081L52.11849,56.01081L52.11849,56.58047C52.11849,56.81159,51.98828,56.93203,51.75065,56.93203L50.94987,56.90273L51.11914,57.54076L51.95898,57.54076C52.518879999999996,57.54076,52.80859,57.27057,52.80859,56.73021L52.80859,52.83047L48.19922,52.83047L48.19922,57.6026L48.88932,57.6026L48.88932,56.01081ZM45.6276,48.540105L45.11979,49.03164C45.83919,49.57201,46.40885,50.07982,46.82878,50.56159L47.31706,50.06029C46.85807,49.55247,46.29818,49.04141,45.6276,48.540105ZM44.419922,51.49258L44.419922,52.18268L45.84896,52.18268L45.84896,56.15078C45.84896,56.32005,45.76758,56.47305,45.61784,56.61302L45.89779,57.25104C46.51953,56.80182,47.11849,56.28099,47.67839,55.70156L47.489580000000004,54.9431C47.14779,55.29141,46.83854,55.60065,46.53906,55.8806L46.53906,51.49258L44.419922,51.49258ZM56.288399999999996,51.21263L56.288399999999996,52.70026L55.2988,52.70026C55.5495,52.06224,55.7773,51.32982,55.9987,50.50951L57.929,50.50951L57.929,49.83242L56.168,49.83242C56.259100000000004,49.43203,56.347,49.00234,56.4382,48.54987L55.7773,48.400131C55.6895,48.901433,55.5983,49.37018,55.4974,49.83242L54.5078,49.83242L54.5078,50.50951L55.3379,50.50951C55.11,51.40143,54.8594,52.15013,54.5794,52.752340000000004L54.7292,53.3513L56.288399999999996,53.3513L56.288399999999996,54.84219C55.709,54.95287,55.087199999999996,55.05052,54.4297,55.1319L54.5176,55.83177C55.129599999999996,55.74063,55.7188,55.64297,56.288399999999996,55.53229L56.288399999999996,57.6026L56.959,57.6026L56.959,55.38255L57.9095,55.14167L57.9095,54.461330000000004C57.61,54.54271,57.2975,54.62083,56.959,54.70221L56.959,53.3513L57.8802,53.3513L57.8802,52.70026L56.959,52.70026L56.959,51.21263L56.288399999999996,51.21263ZM59.2376,50.70156L59.2376,51.29076L62.1087,51.29076L62.1087,50.6918L59.2474,50.6918C59.7487,50.21003,60.2305,49.679429999999996,60.709,49.1C61.4674,50.07982,62.3203,50.9099,63.2578,51.59023L63.6387,51.02057C62.7305,50.38255,61.838499999999996,49.52969,60.9694,48.452214L60.4486,48.452214C59.638,49.45156,58.7201,50.33047,57.697900000000004,51.08242L58.088499999999996,51.68138C58.4792,51.3819,58.86,51.04987,59.2376,50.70156ZM59.9375,57.53099C60.429,57.53099,60.6797,57.27057,60.6797,56.76276L60.6797,52.09154L58.3197,52.09154L58.3197,57.6026L58.947900000000004,57.6026L58.947900000000004,55.73086L60.0677,55.73086L60.0677,56.63255C60.0677,56.85065,59.960300000000004,56.961330000000004,59.7389,56.961330000000004L59.2995,56.9418L59.459,57.53099L59.9375,57.53099ZM58.947900000000004,55.17096L58.947900000000004,54.220439999999996L60.0677,54.220439999999996L60.0677,55.17096L58.947900000000004,55.17096ZM58.947900000000004,53.66055L58.947900000000004,52.67096L60.0677,52.67096L60.0677,53.66055L58.947900000000004,53.66055ZM61.2786,52.37148L61.2786,55.96198L61.838499999999996,55.96198L61.838499999999996,52.37148L61.2786,52.37148ZM62.3691,57.55052C62.8477,57.55052,63.098299999999995,57.26081,63.098299999999995,56.69115L63.098299999999995,51.92227L62.4701,51.92227L62.4701,56.531639999999996C62.4701,56.81159,62.3594,56.961330000000004,62.147800000000004,56.961330000000004C61.900400000000005,56.961330000000004,61.64,56.9418,61.3698,56.92227L61.5195,57.55052L62.3691,57.55052ZM68.5573,50.75039C67.91929999999999,53.4099,66.5293,55.45091,64.3874,56.85065L64.8171,57.462630000000004C66.9199,56.10195,68.3001,54.14232,68.9577,51.59023C69.0098,51.710679999999996,69.0586,51.85065,69.1204,52.01016C70.1491,54.65013,71.4674,56.47305,73.0885,57.45286L73.5378,56.87018C71.959,55.8806,70.709,54.19115,69.76820000000001,51.80182C69.1497,50.18073,68.3978,49.05117,67.5091,48.429428L66.9102,48.810287C67.54820000000001,49.27253,68.0983,49.91055,68.5573,50.75039ZM77.54820000000001,56.98086L82.0176,56.98086L82.0176,57.57331L82.75,57.57331L82.75,53.3513L78.5801,53.3513C80.45830000000001,52.48216,81.7507,51.36237,82.4701,49.991929999999996L82.4701,49.35065L78.5703,49.35065C78.7689,49.08047,78.9479,48.800521,79.1074,48.501042L78.3197,48.409897C77.7174,49.47109,76.5684,50.36953,74.8594,51.10195L75.3379,51.720439999999996C76.3991,51.2224,77.2585,50.6625,77.9388,50.03099L81.64,50.03099C81.168,50.8513,80.429,51.56094,79.4102,52.16966C78.97720000000001,51.80182,78.3783,51.3819,77.6198,50.9099L76.99799999999999,51.30052C77.7598,51.73021,78.3587,52.1306,78.79820000000001,52.501689999999996C77.6491,53.08112,76.207,53.5401,74.4785,53.90143L74.8594,54.59154C75.5592,54.42227,76.207,54.23997,76.8288,54.04141L76.8288,57.57331L77.54820000000001,57.57331L77.54820000000001,56.98086ZM82.0176,56.28099L77.54820000000001,56.28099L77.54820000000001,54.02188L82.0176,54.02188L82.0176,56.28099ZM84.57939999999999,51.17031L84.57939999999999,51.86042L85.9596,51.86042C85.6374,52.99974,85.09700000000001,54.01211,84.33850000000001,54.90078L84.64779999999999,55.70156C85.22720000000001,54.90078,85.69919999999999,54.01211,86.0378,53.03229L86.0378,57.57331L86.7279,57.57331L86.7279,53.05182C87.0273,53.40013,87.39840000000001,53.87214,87.8184,54.471090000000004L88.2188,53.87214C87.7174,53.33177,87.22919999999999,52.85,86.7279,52.41055L86.7279,51.86042L87.95830000000001,51.86042L87.95830000000001,51.17031L86.7279,51.17031L86.7279,49.6306C87.2389,49.52969,87.7174,49.4125,88.1602,49.29206L87.90950000000001,48.611719C86.94919999999999,48.911199,85.8587,49.10977,84.6185,49.220439999999996L84.7585,49.90078C85.1979,49.86172,85.6178,49.79987,86.0378,49.74128L86.0378,51.17031L84.57939999999999,51.17031ZM90.2598,57.55052C90.82939999999999,57.55052,91.1191,57.25104,91.1191,56.65208L91.1191,51.36237L90.3802,51.36237L90.3802,56.47305C90.3802,56.76276,90.25,56.9125,90.00909999999999,56.9125C89.7389,56.9125,89.44919999999999,56.89297,89.1497,56.86042L89.2995,57.55052L90.2598,57.55052ZM89,52.80117C88.7493,53.96003,88.3587,55.03099,87.8184,55.99128L88.4401,56.3819C88.9674,55.41185,89.3776,54.26276,89.6673,52.93138L89,52.80117ZM92.418,52.73281L91.7702,52.94115C92.1901,53.96979,92.58070000000001,55.15143,92.929,56.48281L93.5898,56.1931C93.2578,54.96263,92.87039999999999,53.81029,92.418,52.73281ZM89.6803,50.50951L92.5384,50.50951C92.418,51.09219,92.26820000000001,51.60977,92.0892,52.08177L92.78909999999999,52.2901C92.9876,51.63255,93.1406,50.96198,93.2578,50.28164L93.2578,49.80964L89.9473,49.80964C90.09049999999999,49.38971,90.2077,48.950261,90.2988,48.491277L89.5892,48.400131C89.3483,49.679429999999996,88.87960000000001,50.76016,88.19919999999999,51.64232L88.6387,52.21198C89.0488,51.710679999999996,89.40039999999999,51.14102,89.6803,50.50951Z" fill="#CCCCCC" fill-opacity="1"/></g><g style="mix-blend-mode:passthrough"><path d="M37.29308,42.29247Q37.59632,42,38.02617,42L118,42L197.974,42Q198.404,42,198.707,42.29247Q199,42.57513,199,42.97381L199,63.0262Q199,63.4249,198.707,63.707499999999996Q198.404,64,197.974,64L118,64L38.02617,64Q37.59631,64,37.29308,63.707499999999996Q37,63.4249,37,63.0262L37,42.97381Q37,42.57513,37.29308,42.29247ZM197.974,41L38.02617,41C36.921597,41,36,41.869241,36,42.97381L36,63.0262C36,64.1308,36.921597,65,38.02617,65L197.974,65C199.078,65,200,64.1308,200,63.0262L200,42.97381C200,41.869241,199.078,41,197.974,41Z" fill-rule="evenodd" fill="#E5E5E5" fill-opacity="1"/></g></g><g style="mix-blend-mode:passthrough"><g style="mix-blend-mode:passthrough"><path d="M2.6888,89.24063C2.00846,89.96003,1.25,90.6013,0.419922,91.15143L0.638021,91.90013C1.39974,91.34023,2.08984,90.73151,2.6888,90.09023L2.6888,93.5733L3.39844,93.5733L3.39844,84.49128L2.6888,84.49128L2.6888,89.24063ZM1.22721,85.48086L0.546875,85.70221C0.927734,86.46068,1.2793,87.33958,1.58854,88.34219L2.22005,88.05247C1.9401,87.14102,1.60807,86.28164,1.22721,85.48086ZM7.97852,84.63125L7.41862,84.97956C7.93945,85.57201,8.35938,86.11237,8.65885,86.61042L9.21875,86.21003C8.92904,85.76081,8.51888,85.23021,7.97852,84.63125ZM6.86849,84.46198L6.15885,84.46198C6.15885,85.0707,6.13932,85.96263,6.11003,87.12148L4.05924,87.12148L4.05924,87.81159L6.06771,87.81159C5.86914,89.79076,5.09766,91.54205999999999,3.75977,93.0427L4.23828,93.5831C5.3776,92.36237,6.16862,90.84219,6.58854,89.03229C7.02799,90.85195,7.8776,92.36237,9.14062,93.5505L9.62891,93.0102C8.2487,91.79271,7.35026,90.05117,6.92057,87.81159L9.2806,87.81159L9.2806,87.12148L6.83919,87.12148C6.85872,86.07982,6.86849,85.20091,6.86849,84.46198ZM14.6387,84.34154C14.5996,84.74193,14.5182,85.11953,14.4076,85.48086L10.8789,85.48086L10.8789,86.17096L14.1602,86.17096C13.9779,86.56159,13.7598,86.9099,13.4798,87.21263C12.8483,87.87018,11.8197,88.39102,10.3971,88.75234L10.6771,89.4099C11.8783,89.09089,12.819,88.6905,13.4798,88.20221C13.9583,88.57982,14.4401,89.01276,14.9186,89.49128L15.4199,88.98997C14.8796,88.50169,14.3978,88.1013,13.9583,87.79206C13.9876,87.74974,14.0202,87.72044,14.0592,87.68138C14.4303,87.26146,14.7298,86.75039,14.9479,86.17096L15.0977,86.17096C15.599,87.53164,16.9499,88.6026,19.1699,89.3806L19.5508,88.76211C17.5586,88.14037,16.3184,87.28099,15.8301,86.17096L19.0299,86.17096L19.0299,85.48086L15.1693,85.48086C15.2474,85.14232,15.319,84.79076,15.3581,84.4099L14.6387,84.34154ZM11.429,90.253C11.237,91.15143,10.9277,91.97175,10.5078,92.71068L11.1296,93.1013C11.5592,92.34284,11.8978,91.44115,12.1387,90.40273L11.429,90.253ZM15.2181,89.89167L14.5898,90.09023C14.9089,90.6013,15.1986,91.1905,15.4785,91.86107L16.1393,91.57135C15.8789,90.9724,15.5697,90.4125,15.2181,89.89167ZM18.2096,90.1L17.5195,90.32135C17.9883,91.03099,18.418,91.8513,18.8086,92.79205999999999L19.4694,92.50234C19.1081,91.64297,18.6882,90.84219,18.2096,90.1ZM16.3802,93.391C16.7578,93.391,17.028,93.3031,17.2103,93.1306C17.4089,92.93203,17.5488,92.39167,17.6204,91.48997L16.9401,91.27188C16.8978,91.96198,16.8197,92.37214,16.6992,92.51211C16.6081,92.63255,16.4583,92.69115,16.25,92.69115L14.069,92.69115C13.7695,92.69115,13.6296,92.54141,13.6296,92.24193L13.6296,90.22044L12.8874,90.22044L12.8874,92.39167C12.8874,93.0525,13.1999,93.391,13.8379,93.391L16.3802,93.391Z" fill="#666666" fill-opacity="1"/></g><g style="mix-blend-mode:passthrough"><path d="M50.13932,84.429428L50.13932,85.08047L47.71745,85.08047L47.71745,85.66966L50.13932,85.66966L50.13932,86.34023L48.11784,86.34023L48.11784,86.91966L50.13932,86.91966L50.13932,87.6L47.4375,87.6L47.4375,88.20221L53.56055,88.20221L53.56055,87.6L50.82943,87.6L50.82943,86.91966L52.948570000000004,86.91966L52.948570000000004,86.34023L50.82943,86.34023L50.82943,85.66966L53.3099,85.66966L53.3099,85.08047L50.82943,85.08047L50.82943,84.429428L50.13932,84.429428ZM48.88932,90.72175L52.11849,90.72175L52.11849,91.45091L48.88932,91.45091L48.88932,90.72175ZM52.11849,90.16185L48.88932,90.16185L48.88932,89.42292L52.11849,89.42292L52.11849,90.16185ZM48.88932,92.01080999999999L52.11849,92.01080999999999L52.11849,92.58047C52.11849,92.81159,51.98828,92.93203,51.75065,92.93203L50.94987,92.90273L51.11914,93.54076L51.95898,93.54076C52.518879999999996,93.54076,52.80859,93.27056999999999,52.80859,92.73021L52.80859,88.83047L48.19922,88.83047L48.19922,93.6026L48.88932,93.6026L48.88932,92.01080999999999ZM45.6276,84.540105L45.11979,85.03164C45.83919,85.57201,46.40885,86.07982,46.82878,86.56159L47.31706,86.06029C46.85807,85.55247,46.29818,85.04141,45.6276,84.540105ZM44.419922,87.49258L44.419922,88.18268L45.84896,88.18268L45.84896,92.15078C45.84896,92.32005,45.76758,92.47305,45.61784,92.61302L45.89779,93.25104C46.51953,92.80181999999999,47.11849,92.28099,47.67839,91.70156L47.489580000000004,90.9431C47.14779,91.29141,46.83854,91.60065,46.53906,91.8806L46.53906,87.49258L44.419922,87.49258ZM55.2598,84.592188L54.7682,85.06094C55.4779,85.62083,56.037800000000004,86.15143,56.447900000000004,86.65273L56.9492,86.15143C56.487,85.6306,55.927099999999996,85.10977,55.2598,84.592188ZM61.0703,93.42031L63.388000000000005,93.42031L63.5703,92.70091C63.3001,92.72044,62.9193,92.73021,62.4375,92.74323C61.939499999999995,92.753,61.447900000000004,92.76276,60.9694,92.76276C60.188199999999995,92.76276,59.5273,92.753,59.0098,92.74323C58.4076,92.72044,57.9583,92.64232,57.649100000000004,92.50234C57.3691,92.37214,57.1087,92.16055,56.8678,91.87083C56.789699999999996,91.78294,56.7083,91.70156,56.6302,91.64297L56.6302,87.90273L54.5371,87.90273L54.5371,88.56029L55.9596,88.56029L55.9596,91.60065C55.539699999999996,91.78294,55.0677,92.30052,54.5273,93.15013L55.0677,93.64167C55.6276,92.70091,56.028,92.24193,56.2786,92.24193C56.399100000000004,92.24193,56.5293,92.32005,56.6693,92.49258C56.9785,92.85065,57.3301,93.1013,57.7174,93.22175C58.1178,93.33242,58.6484,93.39102,59.289699999999996,93.40078C59.9277,93.41055,60.5299,93.42031,61.0703,93.42031ZM60.2077,84.400131L60.2077,85.67943L58.8893,85.67943C59.0098,85.36042,59.120400000000004,85.03164,59.2181,84.680079L58.528,84.540105C58.2904,85.4418,57.899699999999996,86.27188,57.3594,87.02057L57.9876,87.4112C58.209,87.09219,58.4076,86.75039,58.5898,86.36953L60.2077,86.36953L60.2077,87.80182L57.61,87.80182L57.61,88.50169L59.2181,88.50169C59.1888,89.12018,59.0879,89.66055,58.9186,90.1C58.6582,90.70221,58.1276,91.20026,57.317099999999996,91.60065L57.7891,92.17031C58.7298,91.68203,59.338499999999996,91.05052,59.599000000000004,90.29206C59.7682,89.79076,59.8691,89.1918,59.8984,88.50169L60.9076,88.50169L60.9076,91.34023C60.9076,91.56159,60.9694,91.74063,61.1094,91.8806C61.239599999999996,92.02056999999999,61.428399999999996,92.09219,61.6888,92.09219L62.4082,92.09219C62.75,92.08242,62.9876,92.00104,63.1276,91.86107C63.2806,91.70156,63.388000000000005,91.21003,63.4499,90.37995L62.8184,90.17162C62.7793,90.88125,62.697900000000004,91.28164,62.5807,91.37279C62.499300000000005,91.43138,62.398399999999995,91.46068,62.2585,91.46068L61.900400000000005,91.46068C61.679,91.46068,61.5781,91.36302,61.5781,91.18073L61.5781,88.50169L63.2578,88.50169L63.2578,87.80182L60.9076,87.80182L60.9076,86.36953L62.9095,86.36953L62.9095,85.67943L60.9076,85.67943L60.9076,84.400131L60.2077,84.400131ZM68.1276,84.829818L68.1276,85.48086L68.6289,85.48086C68.9089,86.24258,69.35810000000001,86.87083,69.9896,87.3819C69.3678,87.68138,68.6289,87.92227,67.7793,88.12083L68.1178,88.73281C69.0879,88.49193,69.9277,88.19245,70.6276,87.81159C71.3503,88.23151,72.26820000000001,88.52122,73.3685,88.67096L73.6289,88.02969C72.7207,87.9125,71.9395,87.70091,71.29820000000001,87.40143C72.0599,86.86107,72.58070000000001,86.21003,72.8704,85.43203L72.8704,84.829818L68.1276,84.829818ZM69.3385,85.48086L72.1087,85.48086C71.7995,86.07982,71.3079,86.59089,70.6276,87.02057C70.0384,86.62018,69.6087,86.1026,69.3385,85.48086ZM65.6178,93.51146C66.207,93.51146,66.5098,93.22175,66.5098,92.64232L66.5098,89.77122C66.8971,89.61172,67.27799999999999,89.44245,67.6491,89.26016L67.6491,88.53099C67.26820000000001,88.71979,66.8874,88.90208,66.5098,89.06159L66.5098,87.0401L67.6296,87.0401L67.6296,86.35L66.5098,86.35L66.5098,84.46198L65.7676,84.46198L65.7676,86.35L64.5469,86.35L64.5469,87.0401L65.7676,87.0401L65.7676,89.33177C65.3184,89.48151,64.8594,89.61172,64.3874,89.7224L64.5697,90.4418C64.9701,90.32135,65.3672,90.19115,65.7676,90.05117L65.7676,92.45026C65.7676,92.71068,65.6276,92.85065,65.3672,92.85065C65.1198,92.85065,64.8594,92.83112,64.599,92.81159L64.7487,93.51146L65.6178,93.51146ZM68.3001,89.45221L68.3001,90.11302L70.2988,90.11302L70.2988,91.25234L67.7891,91.25234L67.7891,91.92292L70.2988,91.92292L70.2988,93.50169L70.9987,93.50169L70.9987,91.92292L73.47919999999999,91.92292L73.47919999999999,91.25234L70.9987,91.25234L70.9987,90.11302L72.96809999999999,90.11302L72.96809999999999,89.45221L70.9987,89.45221L70.9987,88.57005L70.2988,88.57005L70.2988,89.45221L68.3001,89.45221Z" fill="#CCCCCC" fill-opacity="1"/></g><g style="mix-blend-mode:passthrough"><path d="M37.29308,78.29247Q37.59632,78,38.02617,78L118,78L197.974,78Q198.404,78,198.707,78.29247Q199,78.57513,199,78.97381L199,99.0262Q199,99.42490000000001,198.707,99.7075Q198.404,100,197.974,100L118,100L38.02617,100Q37.59631,100,37.29308,99.7075Q37,99.42490000000001,37,99.0262L37,78.97381Q37,78.57513,37.29308,78.29247ZM197.974,77L38.02617,77C36.921597,77,36,77.869241,36,78.97381L36,99.0262C36,100.1308,36.921597,101,38.02617,101L197.974,101C199.078,101,200,100.1308,200,99.0262L200,78.97381C200,77.869241,199.078,77,197.974,77Z" fill-rule="evenodd" fill="#E5E5E5" fill-opacity="1"/></g><g style="mix-blend-mode:passthrough" clip-path="url(#master_svg0_8548_346764)"><g style="mix-blend-mode:passthrough" transform="matrix(1,-1.7484555314695172e-7,1.7484555314695172e-7,1,-0.000015408264374627834,0.00003214972608134303)"><path d="M189.51736,88.125C189.51736,88.125,190.125,88.735465,190.125,88.735465C190.125,88.735465,187,91.875,187,91.875C187,91.875,183.875,88.735465,183.875,88.735465C183.875,88.735465,184.482639,88.125,184.482639,88.125C184.482639,88.125,187,90.65407,187,90.65407C187,90.65407,189.51736,88.125,189.51736,88.125Z" fill="#999999" fill-opacity="1"/></g></g></g><g style="mix-blend-mode:passthrough"><g style="mix-blend-mode:passthrough"><rect x="0" y="0" width="200" height="32" rx="0" fill="#F7F8FA" fill-opacity="1"/></g><g style="mix-blend-mode:passthrough"><path d="M31.42188,16.78094L31.42188,17.52703L27.66797,17.52703L27.66797,21.030900000000003L28.78125,21.030900000000003L28.78125,18.55828L31.42188,18.55828L31.42188,21.5583L32.57422,21.5583L32.57422,18.55828L35.25,18.55828L35.25,19.480159999999998C35.25,19.76922,35.08203,19.91375,34.75781,19.91375L33.91797,19.86687L34.21875,20.945L35.12891,20.945C35.95703,20.945,36.3789,20.5387,36.3789,19.73406L36.3789,17.52703L32.57422,17.52703L32.57422,16.78094L35.23828,16.78094L35.23828,13.972339999999999L28.80469,13.972339999999999L28.80469,16.78094L31.42188,16.78094ZM31.42188,10.421562L31.42188,12.159839999999999L29.89844,12.159839999999999C29.66016,11.58562,29.39453,11.09344,29.11719,10.659843L28.03906,11.05828C28.30078,11.39422,28.54297,11.76531,28.74609,12.159839999999999L26.875,12.159839999999999L26.875,14.76531L28.02734,14.76531L28.02734,13.24187L35.97266,13.24187L35.97266,14.753589999999999L37.1211,14.753589999999999L37.1211,12.159839999999999L35.12891,12.159839999999999C35.37109,11.82391,35.62109,11.42937,35.86328,10.972343L34.78125,10.577812C34.54297,11.128589999999999,34.24219,11.65594,33.90625,12.159839999999999L32.57422,12.159839999999999L32.57422,10.421562L31.42188,10.421562ZM34.13281,15.83172L29.91016,15.83172L29.91016,14.92156L34.13281,14.92156L34.13281,15.83172ZM40.7109,14.835619999999999L43.4688,14.835619999999999L43.4688,16.67547L40.7109,16.67547L40.7109,14.835619999999999ZM40.6484,17.730159999999998L43.4688,17.730159999999998L43.4688,21.1481L44.6211,21.1481L44.6211,17.730159999999998L47.5977,17.730159999999998L47.5977,19.51922C47.5977,19.98406,47.3945,20.2262,47.011700000000005,20.2262C46.601600000000005,20.2262,46.1719,20.2028,45.7031,20.1677L46.0039,21.280900000000003L47.3828,21.280900000000003C48.2969,21.280900000000003,48.761700000000005,20.8278,48.761700000000005,19.92547L48.761700000000005,10.890312L39.5586,10.890312L39.5586,16.76922C39.5352,18.355159999999998,39.1641,19.66375,38.4414,20.695L39.3164,21.4723C40.0625,20.4919,40.5078,19.24187,40.6484,17.730159999999998ZM47.5977,16.67547L44.6211,16.67547L44.6211,14.835619999999999L47.5977,14.835619999999999L47.5977,16.67547ZM47.5977,13.79266L44.6211,13.79266L44.6211,11.99187L47.5977,11.99187L47.5977,13.79266ZM43.4688,11.99187L43.4688,13.79266L40.7109,13.79266L40.7109,11.99187L43.4688,11.99187ZM51.460899999999995,16.7575L51.460899999999995,17.83953L55.457,17.83953L55.457,19.99969C55.457,20.3356,55.289100000000005,20.5036,54.9531,20.5036C54.582,20.5036,54.1875,20.4762,53.7656,20.4294L54.0312,21.5231L55.351600000000005,21.5231C56.1914,21.5231,56.6094,21.1012,56.6094,20.2848L56.6094,17.83953L60.5,17.83953L60.5,16.7575L56.6094,16.7575L56.6094,15.76141L55.457,15.76141L55.457,16.7575L51.460899999999995,16.7575ZM53.3711,18.39031C52.648399999999995,19.1325,51.761700000000005,19.792659999999998,50.707,20.3473L51.449200000000005,21.3161C52.5195,20.6833,53.418,19.93719,54.164100000000005,19.08562L53.3711,18.39031ZM60.2695,21.269199999999998L61.0977,20.4411C60.043,19.49578,59.1445,18.784840000000003,58.375,18.316090000000003L57.6445,19.02703C58.6016,19.722340000000003,59.4805,20.4645,60.2695,21.269199999999998ZM54.2812,10.374687C53.418,11.62078,52.386700000000005,12.60516,51.1875,13.32391L51.918,14.20281C52.4219,13.86687,52.9023,13.49187,53.3594,13.08562C53.8125,13.51922,54.3203,13.90203,54.8945,14.26141C53.6211,14.78875,52.1602,15.17156,50.488299999999995,15.40203L50.9922,16.42156C52.925799999999995,16.10906,54.6055,15.593440000000001,56.023399999999995,14.874690000000001C57.4023,15.54656,59.0586,16.01531,60.9922,16.28875L61.5195,15.24578C59.8516,15.04266,58.3984,14.70672,57.1523,14.22625C58.0391,13.64812,58.8086,12.96453,59.4531,12.187190000000001L59.4531,11.30828L54.918,11.30828C55.074200000000005,11.08172,55.2305,10.85125,55.386700000000005,10.612968L54.2812,10.374687ZM54.0547,12.378589999999999L54.113299999999995,12.316089999999999L58.0039,12.316089999999999C57.425799999999995,12.843440000000001,56.7539,13.312190000000001,56.011700000000005,13.722339999999999C55.2539,13.33562,54.6055,12.89422,54.0547,12.378589999999999ZM65.01169999999999,10.386406000000001C64.4336,12.23406,63.5469,13.85516,62.3477,15.24578L62.7188,16.45672C63.0898,16.06219,63.4492,15.65203,63.7852,15.222339999999999L63.7852,21.5583L64.9023,21.5583L64.9023,13.566089999999999C65.3828,12.72625,65.7773,11.82391,66.0781,10.878593L65.01169999999999,10.386406000000001ZM67.0273,11.24969C66.7852,12.784839999999999,66.3047,14.093440000000001,65.6094,15.159839999999999L66.3438,16.10906C66.77340000000001,15.48406,67.1328,14.80047,67.4336,14.04656L69.2461,14.04656L69.2461,16.62469L65.8398,16.62469L65.8398,17.730159999999998L69.2461,17.730159999999998L69.2461,21.511400000000002L70.38669999999999,21.511400000000002L70.38669999999999,17.730159999999998L73.4844,17.730159999999998L73.4844,16.62469L70.38669999999999,16.62469L70.38669999999999,14.04656L73.03909999999999,14.04656L73.03909999999999,12.92937L70.38669999999999,12.92937L70.38669999999999,10.530937L69.2461,10.530937L69.2461,12.92937L67.8047,12.92937C67.9375,12.44891,68.0469,11.93328,68.1445,11.39422L67.0273,11.24969Z" fill="#666666" fill-opacity="1"/></g><g style="mix-blend-mode:passthrough" transform="matrix(-1,-8.742277657347586e-8,8.742277657347586e-8,-1,35.99999816412169,42.00000157360998)"><g style="mix-blend-mode:passthrough" transform="matrix(1,2.6469779601696886e-23,-2.6469779601696886e-23,1,0,0)"></g><g style="mix-blend-mode:passthrough"><path d="M22.999994397563935,25.219314375C22.999994397563935,25.219314375,19.699991397563934,28.519314375,19.699991397563934,28.519314375C19.699991397563934,28.519314375,18.757324397563934,27.576654375,18.757324397563934,27.576654375C18.757324397563934,27.576654375,22.999994397563935,23.333984375,22.999994397563935,23.333984375C22.999994397563935,23.333984375,27.242654397563932,27.576654375,27.242654397563932,27.576654375C27.242654397563932,27.576654375,26.299994397563935,28.519314375,26.299994397563935,28.519314375C26.299994397563935,28.519314375,22.999994397563935,25.219314375,22.999994397563935,25.219314375Z" fill="#999999" fill-opacity="1"/></g></g><g style="mix-blend-mode:passthrough"><line x1="0" y1="31.5" x2="200" y2="31.5" fill-opacity="0" stroke-opacity="1" stroke="#E5E5E5" fill="none" stroke-width="1"/></g></g></g><g style="mix-blend-mode:passthrough"><g style="mix-blend-mode:passthrough"><g style="mix-blend-mode:passthrough"><path d="M3.54818,173.98086L8.01758,173.98086L8.01758,174.5733L8.75,174.5733L8.75,170.3513L4.58008,170.3513C6.45833,169.48216,7.75065,168.36237,8.47005,166.99193L8.47005,166.35065L4.57031,166.35065C4.76888,166.08047,4.94792,165.80052,5.10742,165.50104L4.31966,165.4099C3.71745,166.47109,2.56836,167.36953,0.859375,168.10195L1.33789,168.72044C2.39909,168.2224,3.25846,167.6625,3.9388,167.03099L7.63997,167.03099C7.16797,167.8513,6.42904,168.56094,5.41016,169.16966C4.97721,168.80182,4.37825,168.3819,3.61979,167.9099L2.99805,168.30052C3.75977,168.73021,4.35872,169.1306,4.79818,169.50169C3.64909,170.08112,2.20703,170.5401,0.478516,170.90143L0.859375,171.59154C1.55924,171.42227,2.20703,171.23997,2.82878,171.04141L2.82878,174.5733L3.54818,174.5733L3.54818,173.98086ZM8.01758,173.28099L3.54818,173.28099L3.54818,171.02188L8.01758,171.02188L8.01758,173.28099ZM10.5794,168.17031L10.5794,168.86042L11.9596,168.86042C11.6374,169.99974,11.097,171.01211,10.3385,171.90078L10.6478,172.70156C11.2272,171.90078,11.6992,171.01211,12.0378,170.03229L12.0378,174.5733L12.7279,174.5733L12.7279,170.05182C13.0273,170.40013,13.3984,170.87214,13.8184,171.47109L14.2188,170.87214C13.7174,170.33177,13.2292,169.85,12.7279,169.41055L12.7279,168.86042L13.9583,168.86042L13.9583,168.17031L12.7279,168.17031L12.7279,166.6306C13.2389,166.52969,13.7174,166.4125,14.1602,166.29206L13.9095,165.61172C12.9492,165.9112,11.8587,166.10977,10.6185,166.22044L10.7585,166.90078C11.1979,166.86172,11.6178,166.79987,12.0378,166.74128L12.0378,168.17031L10.5794,168.17031ZM16.2598,174.5505C16.8294,174.5505,17.1191,174.251,17.1191,173.65208L17.1191,168.36237L16.3802,168.36237L16.3802,173.47305C16.3802,173.76276000000001,16.25,173.9125,16.0091,173.9125C15.7389,173.9125,15.4492,173.89297,15.1497,173.86042L15.2995,174.5505L16.2598,174.5505ZM15,169.80117C14.7493,170.96003,14.3587,172.03099,13.8184,172.99128L14.4401,173.3819C14.9674,172.41185,15.3776,171.26276000000001,15.6673,169.93138L15,169.80117ZM18.418,169.73281L17.7702,169.94115C18.1901,170.96979,18.5807,172.15143,18.929,173.48281L19.5898,173.1931C19.2578,171.96263,18.8704,170.81029,18.418,169.73281ZM15.6803,167.50951L18.5384,167.50951C18.418,168.09219,18.2682,168.60977,18.0892,169.08177L18.7891,169.2901C18.9876,168.63255,19.1406,167.96198,19.2578,167.28164L19.2578,166.80964L15.9473,166.80964C16.0905,166.38971,16.2077,165.95026000000001,16.2988,165.49128L15.5892,165.40013C15.3483,166.67943,14.8796,167.76016,14.1992,168.64232L14.6387,169.21198C15.0488,168.71068,15.4004,168.14102,15.6803,167.50951Z" fill="#666666" fill-opacity="1"/></g><g style="mix-blend-mode:passthrough"><path d="M50.13932,165.429428L50.13932,166.08047L47.71745,166.08047L47.71745,166.66966L50.13932,166.66966L50.13932,167.34023L48.11784,167.34023L48.11784,167.91966L50.13932,167.91966L50.13932,168.6L47.4375,168.6L47.4375,169.20221L53.56055,169.20221L53.56055,168.6L50.82943,168.6L50.82943,167.91966L52.948570000000004,167.91966L52.948570000000004,167.34023L50.82943,167.34023L50.82943,166.66966L53.3099,166.66966L53.3099,166.08047L50.82943,166.08047L50.82943,165.429428L50.13932,165.429428ZM48.88932,171.72175L52.11849,171.72175L52.11849,172.45091L48.88932,172.45091L48.88932,171.72175ZM52.11849,171.16185L48.88932,171.16185L48.88932,170.42292L52.11849,170.42292L52.11849,171.16185ZM48.88932,173.01081L52.11849,173.01081L52.11849,173.58047C52.11849,173.81159,51.98828,173.93203,51.75065,173.93203L50.94987,173.90273L51.11914,174.54076L51.95898,174.54076C52.518879999999996,174.54076,52.80859,174.27057,52.80859,173.73021L52.80859,169.83047L48.19922,169.83047L48.19922,174.6026L48.88932,174.6026L48.88932,173.01081ZM45.6276,165.540105L45.11979,166.03164C45.83919,166.57201,46.40885,167.07982,46.82878,167.56159L47.31706,167.06029C46.85807,166.55247,46.29818,166.04141,45.6276,165.540105ZM44.419922,168.49258L44.419922,169.18268L45.84896,169.18268L45.84896,173.15078C45.84896,173.32005,45.76758,173.47305,45.61784,173.61302L45.89779,174.25104C46.51953,173.80182,47.11849,173.28099,47.67839,172.70156L47.489580000000004,171.9431C47.14779,172.29141,46.83854,172.60065,46.53906,172.8806L46.53906,168.49258L44.419922,168.49258ZM56.288399999999996,168.21263L56.288399999999996,169.70026000000001L55.2988,169.70026000000001C55.5495,169.06224,55.7773,168.32982,55.9987,167.50951L57.929,167.50951L57.929,166.83242L56.168,166.83242C56.259100000000004,166.43203,56.347,166.00234,56.4382,165.54987L55.7773,165.400131C55.6895,165.901433,55.5983,166.37018,55.4974,166.83242L54.5078,166.83242L54.5078,167.50951L55.3379,167.50951C55.11,168.40143,54.8594,169.15013,54.5794,169.75234L54.7292,170.3513L56.288399999999996,170.3513L56.288399999999996,171.84219C55.709,171.95287,55.087199999999996,172.05052,54.4297,172.1319L54.5176,172.83177C55.129599999999996,172.74063,55.7188,172.64297,56.288399999999996,172.53229L56.288399999999996,174.6026L56.959,174.6026L56.959,172.38255L57.9095,172.14167L57.9095,171.46133C57.61,171.54271,57.2975,171.62083,56.959,171.70221L56.959,170.3513L57.8802,170.3513L57.8802,169.70026000000001L56.959,169.70026000000001L56.959,168.21263L56.288399999999996,168.21263ZM59.2376,167.70156L59.2376,168.29076L62.1087,168.29076L62.1087,167.6918L59.2474,167.6918C59.7487,167.21003,60.2305,166.67943,60.709,166.1C61.4674,167.07982,62.3203,167.9099,63.2578,168.59023L63.6387,168.02057C62.7305,167.38255,61.838499999999996,166.52969,60.9694,165.452214L60.4486,165.452214C59.638,166.45156,58.7201,167.33047,57.697900000000004,168.08242L58.088499999999996,168.68138C58.4792,168.3819,58.86,168.04987,59.2376,167.70156ZM59.9375,174.53099C60.429,174.53099,60.6797,174.27057,60.6797,173.76276000000001L60.6797,169.09154L58.3197,169.09154L58.3197,174.6026L58.947900000000004,174.6026L58.947900000000004,172.73086L60.0677,172.73086L60.0677,173.63255C60.0677,173.85065,59.960300000000004,173.96133,59.7389,173.96133L59.2995,173.9418L59.459,174.53099L59.9375,174.53099ZM58.947900000000004,172.17096L58.947900000000004,171.22044L60.0677,171.22044L60.0677,172.17096L58.947900000000004,172.17096ZM58.947900000000004,170.66055L58.947900000000004,169.67096L60.0677,169.67096L60.0677,170.66055L58.947900000000004,170.66055ZM61.2786,169.37148L61.2786,172.96198L61.838499999999996,172.96198L61.838499999999996,169.37148L61.2786,169.37148ZM62.3691,174.55052C62.8477,174.55052,63.098299999999995,174.26081,63.098299999999995,173.69115L63.098299999999995,168.92227L62.4701,168.92227L62.4701,173.53164C62.4701,173.81159,62.3594,173.96133,62.147800000000004,173.96133C61.900400000000005,173.96133,61.64,173.9418,61.3698,173.92227L61.5195,174.55052L62.3691,174.55052ZM68.5573,167.75039C67.91929999999999,170.4099,66.5293,172.45091,64.3874,173.85065L64.8171,174.46263C66.9199,173.10195,68.3001,171.14232,68.9577,168.59023C69.0098,168.71068,69.0586,168.85065,69.1204,169.01016C70.1491,171.65013,71.4674,173.47305,73.0885,174.45286L73.5378,173.87018C71.959,172.8806,70.709,171.19115,69.76820000000001,168.80182C69.1497,167.18073,68.3978,166.05117,67.5091,165.429428L66.9102,165.810287C67.54820000000001,166.27253,68.0983,166.91055,68.5573,167.75039ZM77.54820000000001,173.98086L82.0176,173.98086L82.0176,174.57331L82.75,174.57331L82.75,170.3513L78.5801,170.3513C80.45830000000001,169.48216,81.7507,168.36237,82.4701,166.99193L82.4701,166.35065L78.5703,166.35065C78.7689,166.08047,78.9479,165.800521,79.1074,165.501042L78.3197,165.409897C77.7174,166.47109,76.5684,167.36953,74.8594,168.10195L75.3379,168.72044C76.3991,168.2224,77.2585,167.6625,77.9388,167.03099L81.64,167.03099C81.168,167.8513,80.429,168.56094,79.4102,169.16966C78.97720000000001,168.80182,78.3783,168.3819,77.6198,167.9099L76.99799999999999,168.30052C77.7598,168.73021,78.3587,169.1306,78.79820000000001,169.50169C77.6491,170.08112,76.207,170.5401,74.4785,170.90143L74.8594,171.59154C75.5592,171.42227,76.207,171.23997,76.8288,171.04141L76.8288,174.57331L77.54820000000001,174.57331L77.54820000000001,173.98086ZM82.0176,173.28099L77.54820000000001,173.28099L77.54820000000001,171.02188L82.0176,171.02188L82.0176,173.28099ZM84.57939999999999,168.17031L84.57939999999999,168.86042L85.9596,168.86042C85.6374,169.99974,85.09700000000001,171.01211,84.33850000000001,171.90078L84.64779999999999,172.70156C85.22720000000001,171.90078,85.69919999999999,171.01211,86.0378,170.03229L86.0378,174.57331L86.7279,174.57331L86.7279,170.05182C87.0273,170.40013,87.39840000000001,170.87214,87.8184,171.47109L88.2188,170.87214C87.7174,170.33177,87.22919999999999,169.85,86.7279,169.41055L86.7279,168.86042L87.95830000000001,168.86042L87.95830000000001,168.17031L86.7279,168.17031L86.7279,166.6306C87.2389,166.52969,87.7174,166.4125,88.1602,166.29206L87.90950000000001,165.611719C86.94919999999999,165.911199,85.8587,166.10977,84.6185,166.22044L84.7585,166.90078C85.1979,166.86172,85.6178,166.79987,86.0378,166.74128L86.0378,168.17031L84.57939999999999,168.17031ZM90.2598,174.55052C90.82939999999999,174.55052,91.1191,174.25104,91.1191,173.65208L91.1191,168.36237L90.3802,168.36237L90.3802,173.47305C90.3802,173.76276000000001,90.25,173.9125,90.00909999999999,173.9125C89.7389,173.9125,89.44919999999999,173.89297,89.1497,173.86042L89.2995,174.55052L90.2598,174.55052ZM89,169.80117C88.7493,170.96003,88.3587,172.03099,87.8184,172.99128L88.4401,173.3819C88.9674,172.41185,89.3776,171.26276000000001,89.6673,169.93138L89,169.80117ZM92.418,169.73281L91.7702,169.94115C92.1901,170.96979,92.58070000000001,172.15143,92.929,173.48281L93.5898,173.1931C93.2578,171.96263,92.87039999999999,170.81029,92.418,169.73281ZM89.6803,167.50951L92.5384,167.50951C92.418,168.09219,92.26820000000001,168.60977,92.0892,169.08177L92.78909999999999,169.2901C92.9876,168.63255,93.1406,167.96198,93.2578,167.28164L93.2578,166.80964L89.9473,166.80964C90.09049999999999,166.38971,90.2077,165.950261,90.2988,165.491277L89.5892,165.400131C89.3483,166.67943,88.87960000000001,167.76016,88.19919999999999,168.64232L88.6387,169.21198C89.0488,168.71068,89.40039999999999,168.14102,89.6803,167.50951Z" fill="#CCCCCC" fill-opacity="1"/></g><g style="mix-blend-mode:passthrough"><path d="M37.29308,159.29247Q37.59632,159,38.02617,159L118,159L197.974,159Q198.404,159,198.707,159.29247Q199,159.57513,199,159.97381L199,180.0262Q199,180.4249,198.707,180.7075Q198.404,181,197.974,181L118,181L38.02617,181Q37.59631,181,37.29308,180.7075Q37,180.4249,37,180.0262L37,159.97381Q37,159.57513,37.29308,159.29247ZM197.974,158L38.02617,158C36.921597,158,36,158.869241,36,159.97381L36,180.0262C36,181.1308,36.921597,182,38.02617,182L197.974,182C199.078,182,200,181.1308,200,180.0262L200,159.97381C200,158.869241,199.078,158,197.974,158Z" fill-rule="evenodd" fill="#E5E5E5" fill-opacity="1"/></g></g><g style="mix-blend-mode:passthrough"><g style="mix-blend-mode:passthrough"><path d="M2.6888,206.24063C2.00846,206.96003,1.25,207.6013,0.419922,208.15143L0.638021,208.90013C1.39974,208.34023,2.08984,207.73151000000001,2.6888,207.09023L2.6888,210.5733L3.39844,210.5733L3.39844,201.49128L2.6888,201.49128L2.6888,206.24063ZM1.22721,202.48086L0.546875,202.70221C0.927734,203.46068,1.2793,204.33958,1.58854,205.34219L2.22005,205.05247C1.9401,204.14102,1.60807,203.28164,1.22721,202.48086ZM7.97852,201.63125L7.41862,201.97956C7.93945,202.57201,8.35938,203.11237,8.65885,203.61042L9.21875,203.21003C8.92904,202.76081,8.51888,202.23021,7.97852,201.63125ZM6.86849,201.46198L6.15885,201.46198C6.15885,202.0707,6.13932,202.96263,6.11003,204.12148L4.05924,204.12148L4.05924,204.81159L6.06771,204.81159C5.86914,206.79076,5.09766,208.54206,3.75977,210.0427L4.23828,210.5831C5.3776,209.36237,6.16862,207.84219,6.58854,206.03229C7.02799,207.85195,7.8776,209.36237,9.14062,210.5505L9.62891,210.0102C8.2487,208.79271,7.35026,207.05117,6.92057,204.81159L9.2806,204.81159L9.2806,204.12148L6.83919,204.12148C6.85872,203.07982,6.86849,202.20091,6.86849,201.46198ZM14.6387,201.34154C14.5996,201.74193,14.5182,202.11953,14.4076,202.48086L10.8789,202.48086L10.8789,203.17096L14.1602,203.17096C13.9779,203.56159,13.7598,203.9099,13.4798,204.21263C12.8483,204.87018,11.8197,205.39102,10.3971,205.75234L10.6771,206.4099C11.8783,206.09089,12.819,205.6905,13.4798,205.20221C13.9583,205.57982,14.4401,206.01276000000001,14.9186,206.49128L15.4199,205.98997C14.8796,205.50169,14.3978,205.1013,13.9583,204.79206C13.9876,204.74974,14.0202,204.72044,14.0592,204.68138C14.4303,204.26146,14.7298,203.75039,14.9479,203.17096L15.0977,203.17096C15.599,204.53164,16.9499,205.6026,19.1699,206.3806L19.5508,205.76211C17.5586,205.14037,16.3184,204.28099,15.8301,203.17096L19.0299,203.17096L19.0299,202.48086L15.1693,202.48086C15.2474,202.14232,15.319,201.79076,15.3581,201.4099L14.6387,201.34154ZM11.429,207.253C11.237,208.15143,10.9277,208.97175,10.5078,209.71068L11.1296,210.1013C11.5592,209.34284,11.8978,208.44115,12.1387,207.40273L11.429,207.253ZM15.2181,206.89167L14.5898,207.09023C14.9089,207.6013,15.1986,208.1905,15.4785,208.86107L16.1393,208.57135C15.8789,207.9724,15.5697,207.4125,15.2181,206.89167ZM18.2096,207.1L17.5195,207.32135C17.9883,208.03099,18.418,208.8513,18.8086,209.79206L19.4694,209.50234C19.1081,208.64297,18.6882,207.84219,18.2096,207.1ZM16.3802,210.391C16.7578,210.391,17.028,210.3031,17.2103,210.1306C17.4089,209.93203,17.5488,209.39167,17.6204,208.48997L16.9401,208.27188C16.8978,208.96198,16.8197,209.37214,16.6992,209.51211C16.6081,209.63255,16.4583,209.69115,16.25,209.69115L14.069,209.69115C13.7695,209.69115,13.6296,209.54141,13.6296,209.24193L13.6296,207.22044L12.8874,207.22044L12.8874,209.39167C12.8874,210.0525,13.1999,210.391,13.8379,210.391L16.3802,210.391Z" fill="#666666" fill-opacity="1"/></g><g style="mix-blend-mode:passthrough"><path d="M50.13932,201.429428L50.13932,202.08047L47.71745,202.08047L47.71745,202.66966L50.13932,202.66966L50.13932,203.34023L48.11784,203.34023L48.11784,203.91966L50.13932,203.91966L50.13932,204.6L47.4375,204.6L47.4375,205.20221L53.56055,205.20221L53.56055,204.6L50.82943,204.6L50.82943,203.91966L52.948570000000004,203.91966L52.948570000000004,203.34023L50.82943,203.34023L50.82943,202.66966L53.3099,202.66966L53.3099,202.08047L50.82943,202.08047L50.82943,201.429428L50.13932,201.429428ZM48.88932,207.72175L52.11849,207.72175L52.11849,208.45091L48.88932,208.45091L48.88932,207.72175ZM52.11849,207.16185L48.88932,207.16185L48.88932,206.42292L52.11849,206.42292L52.11849,207.16185ZM48.88932,209.01081L52.11849,209.01081L52.11849,209.58047C52.11849,209.81159,51.98828,209.93203,51.75065,209.93203L50.94987,209.90273L51.11914,210.54076L51.95898,210.54076C52.518879999999996,210.54076,52.80859,210.27057,52.80859,209.73021L52.80859,205.83047L48.19922,205.83047L48.19922,210.6026L48.88932,210.6026L48.88932,209.01081ZM45.6276,201.540105L45.11979,202.03164C45.83919,202.57201,46.40885,203.07982,46.82878,203.56159L47.31706,203.06029C46.85807,202.55247,46.29818,202.04141,45.6276,201.540105ZM44.419922,204.49258L44.419922,205.18268L45.84896,205.18268L45.84896,209.15078C45.84896,209.32005,45.76758,209.47305,45.61784,209.61302L45.89779,210.25104C46.51953,209.80182,47.11849,209.28099,47.67839,208.70156L47.489580000000004,207.9431C47.14779,208.29141,46.83854,208.60065,46.53906,208.8806L46.53906,204.49258L44.419922,204.49258ZM55.2598,201.592188L54.7682,202.06094C55.4779,202.62083,56.037800000000004,203.15143,56.447900000000004,203.65273L56.9492,203.15143C56.487,202.6306,55.927099999999996,202.10977,55.2598,201.592188ZM61.0703,210.42031L63.388000000000005,210.42031L63.5703,209.70091C63.3001,209.72044,62.9193,209.73021,62.4375,209.74323C61.939499999999995,209.753,61.447900000000004,209.76276000000001,60.9694,209.76276000000001C60.188199999999995,209.76276000000001,59.5273,209.753,59.0098,209.74323C58.4076,209.72044,57.9583,209.64232,57.649100000000004,209.50234C57.3691,209.37214,57.1087,209.16055,56.8678,208.87083C56.789699999999996,208.78294,56.7083,208.70156,56.6302,208.64297L56.6302,204.90273L54.5371,204.90273L54.5371,205.56029L55.9596,205.56029L55.9596,208.60065C55.539699999999996,208.78294,55.0677,209.30052,54.5273,210.15013L55.0677,210.64167C55.6276,209.70091,56.028,209.24193,56.2786,209.24193C56.399100000000004,209.24193,56.5293,209.32005,56.6693,209.49258C56.9785,209.85065,57.3301,210.1013,57.7174,210.22175C58.1178,210.33242,58.6484,210.39102,59.289699999999996,210.40078C59.9277,210.41055,60.5299,210.42031,61.0703,210.42031ZM60.2077,201.400131L60.2077,202.67943L58.8893,202.67943C59.0098,202.36042,59.120400000000004,202.03164,59.2181,201.680079L58.528,201.540105C58.2904,202.4418,57.899699999999996,203.27188,57.3594,204.02057L57.9876,204.4112C58.209,204.09219,58.4076,203.75039,58.5898,203.36953L60.2077,203.36953L60.2077,204.80182L57.61,204.80182L57.61,205.50169L59.2181,205.50169C59.1888,206.12018,59.0879,206.66055,58.9186,207.1C58.6582,207.70221,58.1276,208.20026000000001,57.317099999999996,208.60065L57.7891,209.17031C58.7298,208.68203,59.338499999999996,208.05052,59.599000000000004,207.29206C59.7682,206.79076,59.8691,206.1918,59.8984,205.50169L60.9076,205.50169L60.9076,208.34023C60.9076,208.56159,60.9694,208.74063,61.1094,208.8806C61.239599999999996,209.02057,61.428399999999996,209.09219,61.6888,209.09219L62.4082,209.09219C62.75,209.08242,62.9876,209.00104,63.1276,208.86107C63.2806,208.70156,63.388000000000005,208.21003,63.4499,207.37995L62.8184,207.17162C62.7793,207.88125,62.697900000000004,208.28164,62.5807,208.37279C62.499300000000005,208.43138,62.398399999999995,208.46068,62.2585,208.46068L61.900400000000005,208.46068C61.679,208.46068,61.5781,208.36302,61.5781,208.18073L61.5781,205.50169L63.2578,205.50169L63.2578,204.80182L60.9076,204.80182L60.9076,203.36953L62.9095,203.36953L62.9095,202.67943L60.9076,202.67943L60.9076,201.400131L60.2077,201.400131ZM68.1276,201.829818L68.1276,202.48086L68.6289,202.48086C68.9089,203.24258,69.35810000000001,203.87083,69.9896,204.3819C69.3678,204.68138,68.6289,204.92227,67.7793,205.12083L68.1178,205.73281C69.0879,205.49193,69.9277,205.19245,70.6276,204.81159C71.3503,205.23151000000001,72.26820000000001,205.52122,73.3685,205.67096L73.6289,205.02969C72.7207,204.9125,71.9395,204.70091,71.29820000000001,204.40143C72.0599,203.86107,72.58070000000001,203.21003,72.8704,202.43203L72.8704,201.829818L68.1276,201.829818ZM69.3385,202.48086L72.1087,202.48086C71.7995,203.07982,71.3079,203.59089,70.6276,204.02057C70.0384,203.62018,69.6087,203.1026,69.3385,202.48086ZM65.6178,210.51146C66.207,210.51146,66.5098,210.22175,66.5098,209.64232L66.5098,206.77122C66.8971,206.61172,67.27799999999999,206.44245,67.6491,206.26016L67.6491,205.53099C67.26820000000001,205.71979,66.8874,205.90208,66.5098,206.06159L66.5098,204.0401L67.6296,204.0401L67.6296,203.35L66.5098,203.35L66.5098,201.46198L65.7676,201.46198L65.7676,203.35L64.5469,203.35L64.5469,204.0401L65.7676,204.0401L65.7676,206.33177C65.3184,206.48151000000001,64.8594,206.61172,64.3874,206.7224L64.5697,207.4418C64.9701,207.32135,65.3672,207.19115,65.7676,207.05117L65.7676,209.45026000000001C65.7676,209.71068,65.6276,209.85065,65.3672,209.85065C65.1198,209.85065,64.8594,209.83112,64.599,209.81159L64.7487,210.51146L65.6178,210.51146ZM68.3001,206.45221L68.3001,207.11302L70.2988,207.11302L70.2988,208.25234L67.7891,208.25234L67.7891,208.92292L70.2988,208.92292L70.2988,210.50169L70.9987,210.50169L70.9987,208.92292L73.47919999999999,208.92292L73.47919999999999,208.25234L70.9987,208.25234L70.9987,207.11302L72.96809999999999,207.11302L72.96809999999999,206.45221L70.9987,206.45221L70.9987,205.57005L70.2988,205.57005L70.2988,206.45221L68.3001,206.45221Z" fill="#CCCCCC" fill-opacity="1"/></g><g style="mix-blend-mode:passthrough"><path d="M37.29308,195.29247Q37.59632,195,38.02617,195L118,195L197.974,195Q198.404,195,198.707,195.29247Q199,195.57513,199,195.97381L199,216.0262Q199,216.4249,198.707,216.7075Q198.404,217,197.974,217L118,217L38.02617,217Q37.59631,217,37.29308,216.7075Q37,216.4249,37,216.0262L37,195.97381Q37,195.57513,37.29308,195.29247ZM197.974,194L38.02617,194C36.921597,194,36,194.869241,36,195.97381L36,216.0262C36,217.1308,36.921597,218,38.02617,218L197.974,218C199.078,218,200,217.1308,200,216.0262L200,195.97381C200,194.869241,199.078,194,197.974,194Z" fill-rule="evenodd" fill="#E5E5E5" fill-opacity="1"/></g><g style="mix-blend-mode:passthrough" clip-path="url(#master_svg1_8548_346765)"><g style="mix-blend-mode:passthrough" transform="matrix(1,-1.7484555314695172e-7,1.7484555314695172e-7,1,-0.000035865194092821184,0.00003214972608134303)"><path d="M189.51736,205.125C189.51736,205.125,190.125,205.735465,190.125,205.735465C190.125,205.735465,187,208.875,187,208.875C187,208.875,183.875,205.735465,183.875,205.735465C183.875,205.735465,184.482639,205.125,184.482639,205.125C184.482639,205.125,187,207.65407,187,207.65407C187,207.65407,189.51736,205.125,189.51736,205.125Z" fill="#999999" fill-opacity="1"/></g></g></g><g style="mix-blend-mode:passthrough"><g style="mix-blend-mode:passthrough"><rect x="0" y="117" width="200" height="32" rx="0" fill="#F7F8FA" fill-opacity="1"/></g><g style="mix-blend-mode:passthrough"><path d="M26.800781,127.890312L26.800781,128.95672L31.43359,128.95672L31.43359,129.78484L27.79688,129.78484L27.79688,134.71844L31.24219,134.71844C31.12109,135.19891,30.94141,135.61687,30.72656,135.95281C30.125,135.64031,29.5625,135.29266,29.04688,134.88641L28.17188,135.48406C28.69922,135.92937,29.28516,136.33953,29.93359,136.69891C29.16797,137.1677,28.01562,137.4411,26.476562,137.5387L26.96875,138.5817C28.83203,138.3669,30.1875,137.9216,31.05078,137.2497C32.82812,138.0427,34.91406,138.488,37.3164,138.5934L37.6016,137.4919C35.37109,137.4177,33.4375,137.07,31.78125,136.42156C32.05859,135.97625,32.26172,135.41375,32.39453,134.71844L36.2344,134.71844L36.2344,129.78484L32.5625,129.78484L32.5625,128.95672L37.207,128.95672L37.207,127.890312L26.800781,127.890312ZM35.10547,133.72234L32.52734,133.72234C32.55078,133.49187,32.5625,133.25359,32.5625,132.98797L32.5625,132.70281L35.10547,132.70281L35.10547,133.72234ZM31.39844,133.72234L28.92578,133.72234L28.92578,132.70281L31.43359,132.70281L31.43359,132.98797C31.43359,133.23016,31.42188,133.48016,31.39844,133.72234ZM28.92578,131.76531L28.92578,130.7575L31.43359,130.7575L31.43359,131.76531L28.92578,131.76531ZM32.5625,130.7575L35.10547,130.7575L35.10547,131.76531L32.5625,131.76531L32.5625,130.7575ZM43.832,127.421562C42.7852,128.52703,41.2031,129.26922,39.0781,129.65203L39.75,130.69891C41.0117,130.42156,42.101600000000005,130.01141,43.039100000000005,129.46062L46.2656,129.46062C45.6289,130.31219,44.7539,130.97234,43.6523,131.44109C43.289100000000005,131.0075,42.9062,130.60125,42.511700000000005,130.21844L41.5273,130.68719C41.8867,131.02312,42.2461,131.39422,42.582,131.80047C41.7891,132.01922,40.8906,132.14812,39.8828,132.21062L40.3633,133.24187C43.8789,132.95281,46.2773,131.64422,47.574200000000005,129.33953L47.574200000000005,128.45281L44.3711,128.45281C44.5273,128.29656,44.6836,128.12859,44.851600000000005,127.948906L43.832,127.421562ZM43.636700000000005,134.92156L42.6289,135.40203C43.0273,135.78484,43.4102,136.23016,43.7812,136.71062C42.4727,137.1169,40.9141,137.32,39.1016,137.32L39.5586,138.4137C44.238299999999995,138.2927,47.4297,136.83172,49.148399999999995,134.02312L49.148399999999995,133.1325L46.085899999999995,133.1325C46.3281,132.94109,46.5664,132.72625,46.7812,132.49578L45.8125,131.96844C44.585899999999995,133.26531,42.6562,134.03484,40.0391,134.28484L40.7227,135.30437C42.125,135.03094,43.351600000000005,134.64422,44.3945,134.16375L47.6836,134.16375C46.988299999999995,135.06609,46.039100000000005,135.77312,44.863299999999995,136.30047C44.4805,135.80828,44.0703,135.35516,43.636700000000005,134.92156ZM51.460899999999995,133.7575L51.460899999999995,134.83953L55.457,134.83953L55.457,136.99969C55.457,137.3356,55.289100000000005,137.5036,54.9531,137.5036C54.582,137.5036,54.1875,137.4762,53.7656,137.4294L54.0312,138.5231L55.351600000000005,138.5231C56.1914,138.5231,56.6094,138.1012,56.6094,137.2848L56.6094,134.83953L60.5,134.83953L60.5,133.7575L56.6094,133.7575L56.6094,132.76141L55.457,132.76141L55.457,133.7575L51.460899999999995,133.7575ZM53.3711,135.39031C52.648399999999995,136.1325,51.761700000000005,136.79266,50.707,137.3473L51.449200000000005,138.3161C52.5195,137.6833,53.418,136.93719,54.164100000000005,136.08562L53.3711,135.39031ZM60.2695,138.2692L61.0977,137.4411C60.043,136.49578,59.1445,135.78484,58.375,135.31609L57.6445,136.02703C58.6016,136.72234,59.4805,137.4645,60.2695,138.2692ZM54.2812,127.374687C53.418,128.62078,52.386700000000005,129.60516,51.1875,130.32391L51.918,131.20281C52.4219,130.86687,52.9023,130.49187,53.3594,130.08562C53.8125,130.51922,54.3203,130.90203,54.8945,131.26141C53.6211,131.78875,52.1602,132.17156,50.488299999999995,132.40203L50.9922,133.42156C52.925799999999995,133.10906,54.6055,132.59344,56.023399999999995,131.87469C57.4023,132.54656,59.0586,133.01531,60.9922,133.28875L61.5195,132.24578C59.8516,132.04266,58.3984,131.70672,57.1523,131.22625C58.0391,130.64812,58.8086,129.96453,59.4531,129.18719L59.4531,128.30828L54.918,128.30828C55.074200000000005,128.08172,55.2305,127.85125,55.386700000000005,127.612968L54.2812,127.374687ZM54.0547,129.37859L54.113299999999995,129.31609L58.0039,129.31609C57.425799999999995,129.84344,56.7539,130.31219,56.011700000000005,130.72234C55.2539,130.33562,54.6055,129.89422,54.0547,129.37859ZM65.01169999999999,127.386406C64.4336,129.23406,63.5469,130.85516,62.3477,132.24578L62.7188,133.45672C63.0898,133.06219,63.4492,132.65203,63.7852,132.22234L63.7852,138.5583L64.9023,138.5583L64.9023,130.56609C65.3828,129.72625,65.7773,128.82391,66.0781,127.878593L65.01169999999999,127.386406ZM67.0273,128.24969C66.7852,129.78484,66.3047,131.09344,65.6094,132.15984L66.3438,133.10906C66.77340000000001,132.48406,67.1328,131.80047,67.4336,131.04656L69.2461,131.04656L69.2461,133.62469L65.8398,133.62469L65.8398,134.73016L69.2461,134.73016L69.2461,138.5114L70.38669999999999,138.5114L70.38669999999999,134.73016L73.4844,134.73016L73.4844,133.62469L70.38669999999999,133.62469L70.38669999999999,131.04656L73.03909999999999,131.04656L73.03909999999999,129.92937L70.38669999999999,129.92937L70.38669999999999,127.530937L69.2461,127.530937L69.2461,129.92937L67.8047,129.92937C67.9375,129.44891,68.0469,128.93328,68.1445,128.39422L67.0273,128.24969Z" fill="#666666" fill-opacity="1"/></g><g style="mix-blend-mode:passthrough" transform="matrix(-1,-8.742277657347586e-8,8.742277657347586e-8,-1,35.99998793565683,276.00000157361)"><g style="mix-blend-mode:passthrough" transform="matrix(1,2.6469779601696886e-23,-2.6469779601696886e-23,1,0,0)"></g><g style="mix-blend-mode:passthrough"><path d="M22.999994397563935,142.219314375C22.999994397563935,142.219314375,19.699991397563934,145.519314375,19.699991397563934,145.519314375C19.699991397563934,145.519314375,18.757324397563934,144.576654375,18.757324397563934,144.576654375C18.757324397563934,144.576654375,22.999994397563935,140.333984375,22.999994397563935,140.333984375C22.999994397563935,140.333984375,27.242654397563932,144.576654375,27.242654397563932,144.576654375C27.242654397563932,144.576654375,26.299994397563935,145.519314375,26.299994397563935,145.519314375C26.299994397563935,145.519314375,22.999994397563935,142.219314375,22.999994397563935,142.219314375Z" fill="#999999" fill-opacity="1"/></g></g><g style="mix-blend-mode:passthrough"><line x1="0" y1="148.5" x2="200" y2="148.5" fill-opacity="0" stroke-opacity="1" stroke="#E5E5E5" fill="none" stroke-width="1"/></g></g></g></g></svg>