<?xml version="1.0" encoding="UTF-8"?>
<svg width="104px" height="64px" viewBox="0 0 104 64" version="1.1" xmlns="http://www.w3.org/2000/svg" xmlns:xlink="http://www.w3.org/1999/xlink">
    <!-- Generator: Sketch 39.1 (31720) - http://www.bohemiancoding.com/sketch -->
    <title>logo-163yun-white</title>
    <desc>Created with Sketch.</desc>
    <defs></defs>
    <g id="Page-1" stroke="none" stroke-width="1" fill="none" fill-rule="evenodd">
        <g id="logo-163yun-white" transform="translate(0.000000, 18.000000)" fill="#FFFFFF">
            <g id="网易云logo.svg">
                <path d="M26.746087,23.3104696 C26.8413377,23.2831822 26.9271283,23.2299545 26.9938783,23.1567304 C26.5015368,23.0770348 26.0685203,22.7863754 25.8082783,22.3609043 C26.0878066,22.4978529 26.3829948,22.6001969 26.6873043,22.6656696 C26.8537043,22.7253565 26.7343304,22.4658087 26.7343304,22.4658087 C24.4852174,21.1174261 24.5801739,20.3975652 24.5801739,20.3975652 C24.937415,20.7151839 25.3362874,20.98262 25.7657739,21.192487 C24.9220174,20.4165565 25.4592,20.7023304 25.4592,20.7023304 C27.505314,22.1792691 30.2257644,22.3242372 32.4172522,21.073113 C33.6108663,20.4145614 34.4770084,19.2894654 34.8083673,17.9671167 C35.1397263,16.644768 34.9064786,15.2441828 34.1644522,14.1005913 C32.9229334,12.2093807 30.6358632,11.2902238 28.430887,11.796313 C27.606591,14.8428242 25.8784003,17.5680116 23.4741565,19.6125913 C19.5013565,23.236313 18.8547478,25.5559652 18.7986783,26.5579826 C18.7878261,25.3868522 19.1414261,22.5535304 22.315687,19.4199652 L22.1230609,19.4199652 C20.844068,20.6799396 19.7399526,22.1058605 18.8402783,23.6595478 C18.9470988,22.8736163 19.2826631,22.136444 19.8052174,21.5397565 C19.5969376,21.6434636 19.4024917,21.7728916 19.2264348,21.9250087 C19.1649391,22.0371478 19.1622261,20.4943304 21.1572174,18.4577391 C22.9170955,16.9356605 24.3847317,15.1054823 25.4881391,13.0569739 C22.4331599,14.690899 19.2588729,16.0912131 15.992487,17.245913 C16.4730371,17.5536855 16.9733177,17.8295045 17.490087,18.0715826 C17.490087,18.0715826 18.1918609,18.473113 16.7177739,18.0715826 C17.2595243,18.4060766 17.844275,18.6652897 18.4559304,18.842087 C18.4559304,18.842087 17.7071304,19.4534261 14.5943652,17.8789565 C14.5943652,17.8789565 14.2154435,17.926887 14.4008348,18.0715826 C14.6902749,18.3663433 15.0142691,18.6250529 15.3657739,18.842087 C14.7024169,18.8490328 14.0686516,18.5679459 13.6285217,18.0715826 C13.5924379,18.1974652 13.5924379,18.3309522 13.6285217,18.4568348 C13.406544,18.3787106 13.1912165,18.2828415 12.9846261,18.1701565 C7.48347826,19.6415304 4.94045217,19.034713 4.94045217,19.034713 C7.40826239,18.895678 9.84812479,18.441319 12.2005565,17.682713 C12.1300174,17.6320696 12.0576696,17.578713 11.9853217,17.5226435 C10.818713,17.7505391 9.56709565,17.9829565 8.79116522,18.1249391 C9.78598939,17.9120627 10.7678904,17.6427344 11.7321043,17.3182609 C10.131514,15.9108859 9.10573348,13.9629975 8.85085217,11.8469565 C6.75586958,11.3494173 4.57395818,12.2198664 3.39673043,14.0228174 C2.65798357,15.1602298 2.42552288,16.5536334 2.75503039,17.869262 C3.0845379,19.1848907 3.94633131,20.3042314 5.13398261,20.9591652 C7.313211,22.2048223 10.0196383,22.0605172 12.0540522,20.5901913 C12.0540522,20.5901913 12.5876174,20.3071304 11.749287,21.0776348 C12.1753358,20.8689343 12.5708768,20.603009 12.9249391,20.2872348 C12.9249391,20.2872348 13.0153739,21.0034783 10.7834435,22.3437217 C10.7834435,22.3437217 10.6649739,22.6032696 10.8304696,22.5435826 C11.1331807,22.4780125 11.4268249,22.375981 11.7049739,22.2397217 C11.4471284,22.6623711 11.0178594,22.9516324 10.5293217,23.0319304 C10.5956279,23.1046147 10.680769,23.1575149 10.7753043,23.1847652 C10.7753043,23.1847652 5.9488,25.2231652 2.71213913,22.4016 C-0.0242048747,20.1081783 -0.784254197,16.2136795 0.888973913,13.059687 C2.54047952,10.428107 5.65391948,9.10057635 8.6962087,9.73078261 C8.6962087,9.45043478 8.70253913,9.16375652 8.71881739,8.86622609 C9.05794783,2.53217391 14.7553391,-3.21288889e-15 18.6440348,-3.21288889e-15 C21.837287,-3.21288889e-15 28.0284522,1.44695652 28.6822957,9.78504348 L28.6822957,9.8157913 C31.7868967,9.05954334 35.0236575,10.4016684 36.6821565,13.1329391 C38.3707137,16.3022233 37.6056218,20.2212909 34.8490435,22.5227826 C31.6331826,25.3977043 26.746087,23.3104696 26.746087,23.3104696 L26.746087,23.3104696 Z M19.0338087,3.23394783 C15.4923826,3.23394783 11.7420522,5.6992 11.8894609,10.3638261 C11.8966957,10.5971478 11.915687,10.8223304 11.9401043,11.0438957 C13.8778615,12.347039 15.9287162,13.4735563 18.0679652,14.4098783 C18.0679652,14.4098783 15.2861913,13.517287 15.1740522,13.4467478 C14.7360989,13.2773037 14.2835402,13.1483472 13.8220522,13.0614957 C14.6903763,13.5191507 15.5943683,13.9056685 16.5251478,14.2172522 C15.1371499,14.1567835 13.7732994,13.8330071 12.5062261,13.2631652 C12.9919935,14.4089249 13.7316677,15.4293784 14.6694261,16.247513 C18.5482733,14.6476801 22.335193,12.8334729 26.0126609,10.813287 C26.0633043,10.7870609 26.1121391,10.7644522 26.1627826,10.7391304 C26.1727304,10.6152348 26.1781565,10.4913391 26.1781565,10.3674435 C26.0088343,6.49601449 22.9055113,3.39779819 19.0338087,3.23485217 L19.0338087,3.23394783 Z M24.5801739,20.3975652 L24.4237217,20.241113 L24.5801739,20.3975652 Z M18.7986783,26.5570783 C18.7974816,26.7477917 18.8113918,26.9383005 18.8402783,27.1268174 C18.7946325,26.9411842 18.7805692,26.7491901 18.7986783,26.558887 L18.7986783,26.5570783 Z M8.78664348,18.1258435 C8.5261913,18.1792 8.27116522,18.2271304 8.02518261,18.265113 L8.78664348,18.1258435 Z M12.9240348,20.2908522 L12.9683478,20.2465391 L12.9240348,20.2908522 Z M18.4812522,18.8502261 L18.6566957,18.8900174 L18.4812522,18.8502261 Z" id="形状_50"></path>
                <path d="M103.007026,11.8677565 C102.936555,11.9305491 102.846332,11.9667021 102.752,11.9699478 L93.2762435,11.9699478 C93.1370719,11.9671307 93.0099472,12.0485477 92.9542957,12.1761391 L89.1831652,20.3297391 C89.1279201,20.4400339 89.1358532,20.5714476 89.2039652,20.6742957 C89.266298,20.7808381 89.3817219,20.8449626 89.505113,20.8416 L100.048,20.8416 C100.164178,20.846687 100.274705,20.7912523 100.340104,20.6950957 C100.409598,20.601105 100.42758,20.4786251 100.388035,20.3686261 L98.8144696,15.846887 C98.7792418,15.7379464 98.797668,15.6187598 98.8641493,15.5255435 C98.9306306,15.4323271 99.0373172,15.3760873 99.1517913,15.373913 L100.178226,15.373913 C100.33287,15.373913 100.467617,15.4697739 100.516452,15.4426435 L102.733009,21.8282435 C102.78905,21.9926601 102.772613,22.1731428 102.687791,22.3247304 C102.622858,22.420175 102.514742,22.4771142 102.399304,22.4766609 L86.795687,22.4766609 C86.6740114,22.4759372 86.5608514,22.41409 86.4945391,22.3120696 C86.4259433,22.2084306 86.4193549,22.0756236 86.4773565,21.9657043 L90.7024696,12.48 C90.755287,12.3694903 90.7495208,12.2399202 90.6870957,12.1345391 C90.6167419,12.0332862 90.5019909,11.9720408 90.378713,11.9699478 L85.1678609,11.9699478 C85.0721038,11.9707007 84.9801151,11.9326825 84.9128298,11.8645454 C84.8455444,11.7964083 84.8086862,11.7039487 84.8106435,11.6082087 L84.8106435,10.7020522 C84.8086407,10.605794 84.8450937,10.5127087 84.9119304,10.4434087 C84.9800596,10.3764664 85.0723723,10.3399327 85.1678609,10.3421217 L102.748383,10.3421217 C102.843395,10.34108 102.935002,10.3774629 103.003409,10.4434087 C103.0717,10.5118957 103.108957,10.6053664 103.106504,10.7020522 L103.106504,11.6118261 C103.10827,11.7068949 103.072533,11.7988362 103.007026,11.8677565 L103.007026,11.8677565 Z M101.507617,6.08626087 L86.1337043,6.08626087 C85.9339213,6.08626087 85.7719652,5.92430474 85.7719652,5.72452174 L85.7719652,4.82017391 C85.7673228,4.72398725 85.8053827,4.63065764 85.8759652,4.56514783 C85.9417678,4.49458206 86.0336068,4.45405522 86.130087,4.4530087 L101.504,4.4530087 C101.601366,4.45233909 101.694421,4.49311249 101.75993,4.56514783 C101.830284,4.63075106 101.868025,4.72410895 101.863026,4.82017391 L101.863026,5.72452174 C101.863056,5.92185844 101.704924,6.08280748 101.507617,6.08626087 L101.507617,6.08626087 Z M80.831513,23.1513043 L77.3723826,23.1513043 C77.441113,23.1513043 77.3552,23.1142261 77.2819478,23.043687 C77.2124747,22.9814421 77.1737982,22.8918581 77.1761391,22.7986087 L77.1761391,21.9096348 C77.1746669,21.8147165 77.2130455,21.7235263 77.2819478,21.6582261 C77.3474861,21.5897154 77.4395704,21.5530797 77.5342609,21.5578435 L79.3926957,21.5578435 C79.5924787,21.5578435 79.7544348,21.3958874 79.7544348,21.1961043 L79.7544348,15.9961043 C79.7556532,15.9014991 79.7172953,15.810686 79.6486261,15.7456 C79.5826577,15.6769813 79.4905261,15.6397996 79.3954087,15.6434087 L77.0739478,15.6434087 C76.9523565,15.6387528 76.8379174,15.7008273 76.775513,15.805287 L72.0512,22.2596174 C71.9878714,22.3637862 71.8746731,22.4272458 71.7527652,22.4269217 L71.4398609,22.4269217 C71.0890405,22.4290225 70.7409181,22.3655324 70.4134261,22.2397217 C70.3489794,22.1250353 70.3531544,21.9841304 70.4242783,21.8734609 L74.5381565,16.1896348 C74.6085592,16.0804729 74.6130791,15.9413985 74.549913,15.8278957 C74.4894341,15.7121021 74.3675339,15.6416396 74.2370087,15.6470261 L70.8249043,15.6470261 C70.7063363,15.6414217 70.5938453,15.6997376 70.530087,15.7998609 L65.2251826,22.2813217 C65.1563982,22.3738752 65.0483832,22.4290531 64.9330783,22.4305391 L64.5632,22.4305391 C64.2122844,22.4299961 63.8646358,22.3631052 63.5385739,22.2333913 C63.4746348,22.1140367 63.4844678,21.9686496 63.5638957,21.8589913 L68.1760696,16.2140522 C68.2557877,16.104572 68.2659724,15.9591769 68.2022957,15.8396522 C68.1433978,15.7184518 68.0186395,15.6433133 67.8839652,15.6479304 L64.4221217,15.6479304 C64.3063257,15.6461075 64.1984027,15.5889521 64.1318261,15.4941913 C64.0618439,15.3992951 64.0444967,15.2754837 64.0857043,15.1650087 L64.7440696,12.8950957 C64.7700265,12.8029451 64.8366292,12.727684 64.9249391,12.690713 C65.0073818,12.637042 65.1093054,12.6224815 65.2034783,12.6509217 L66.1801739,12.6509217 C66.283604,12.6679427 66.3779078,12.7203692 66.4469565,12.7992348 C66.458282,12.9264634 66.4308547,13.0541422 66.3682783,13.1654957 L66.1801739,13.728 C66.167205,13.7591516 66.1520964,13.7893687 66.1349565,13.8184348 C66.1442955,13.8442672 66.1567467,13.8688658 66.1720348,13.891687 C66.238208,13.9881919 66.3480342,14.0454777 66.4650435,14.0445217 L81.0042435,14.0445217 C81.0993048,14.0428582 81.190515,14.0820424 81.2547478,14.1521391 C81.35568,14.267477 81.3962425,14.4236928 81.3641739,14.5735652 L81.3641739,22.9704348 C81.2276753,23.1154428 81.0280859,23.183215 80.831513,23.1513043 L80.831513,23.1513043 Z M77.6662957,12.2086957 L67.8604522,12.2086957 C66.4840348,12.2086957 65.5995826,11.666087 65.5995826,10.2842435 L65.5995826,6.09801739 C65.5595023,5.49890336 65.7901734,4.91338582 66.2281171,4.50259464 C66.6660608,4.09180347 67.2651251,3.89902917 67.8604522,3.97732174 L77.6690087,3.97732174 C79.0490435,3.97732174 80.1107478,4.70893913 80.1107478,6.09801739 L80.1107478,10.2887652 C80.1134609,11.6742261 79.0490435,12.2132174 77.6690087,12.2132174 L77.6662957,12.2086957 Z M78.5082435,6.61349565 C78.5497883,6.29209142 78.4330364,5.97047864 78.1949854,5.75057334 C77.9569343,5.53066804 77.6270921,5.43972899 77.3099826,5.50657391 L68.221287,5.50657391 C67.4218435,5.50657391 67.2048,5.82038261 67.2048,6.61349565 L67.2048,7.31165217 L78.5091478,7.31165217 L78.5091478,6.61801739 L78.5082435,6.61349565 Z M78.5082435,8.95394783 L67.207513,8.95394783 L67.207513,9.76786087 C67.207513,10.563687 67.4245565,10.6984348 68.224,10.6984348 L77.3154087,10.6984348 C78.1112348,10.6984348 78.5136696,10.5645913 78.5136696,9.76786087 L78.5136696,8.95394783 L78.5082435,8.95394783 Z M59.0430609,23.0102261 L55.7367652,23.0102261 C55.8045913,23.0102261 55.7213913,22.9695304 55.6463304,22.8953739 C55.5762415,22.8300728 55.5374082,22.7379261 55.5396174,22.6421565 L55.5396174,21.8210087 C55.5396174,21.6212257 55.7015735,21.4592696 55.9013565,21.4592696 L57.5834435,21.4592696 C57.6784998,21.463541 57.7709972,21.4277884 57.8384696,21.3606957 C57.9069607,21.2921349 57.945078,21.1989592 57.9442783,21.1020522 L57.9442783,6.36118261 C57.9442783,6.1613996 57.7823221,5.99944348 57.5825391,5.99944348 L44.1981913,5.99944348 C44.102407,5.99984732 44.0106929,6.03822412 43.9431652,6.10615652 C43.8759077,6.17317603 43.838429,6.26442843 43.8391652,6.35937391 L43.8391652,22.6638609 C43.8357819,22.8622256 43.6757908,23.0222167 43.4774261,23.0256 L42.5730783,23.0256 C42.4771391,23.0256 42.3851293,22.9874883 42.3172901,22.9196491 C42.2494508,22.8518098 42.2113391,22.7598001 42.2113391,22.6638609 L42.2113391,4.73516522 C42.2085744,4.64010309 42.2463915,4.54835547 42.3153391,4.48285217 C42.3816689,4.41359773 42.4735676,4.37467977 42.5694609,4.37523478 L59.2094609,4.37523478 C59.4070409,4.38045569 59.5659791,4.53939388 59.5712,4.73697391 L59.5712,22.6430609 C59.5723656,22.7391816 59.5325756,22.8312577 59.4617739,22.8962783 C59.3473323,22.9969648 59.192743,23.0390345 59.0430609,23.0102261 L59.0430609,23.0102261 Z M47.1002435,13.7858783 C47.1512101,13.6897216 47.1512101,13.5745567 47.1002435,13.4784 L45.180313,8.47554783 C45.1278405,8.3636698 45.1370809,8.2325925 45.2047304,8.12918261 C45.2686833,8.02397337 45.3836798,7.96062199 45.5067826,7.96278261 L46.3568696,7.96278261 C46.4958681,7.96161444 46.6221718,8.04344496 46.677913,8.17078261 L47.8228174,11.1234783 C47.8805501,11.2528699 48.0085089,11.336644 48.1501913,11.3378087 C48.2917765,11.3377891 48.4197726,11.2535251 48.4757565,11.1234783 L49.797913,8.1725913 C49.8554349,8.04470146 49.9832564,7.96303768 50.1234783,7.9645913 L51.5622957,7.9645913 C51.7021825,7.96496831 51.8293136,8.04596599 51.8887652,8.1725913 L53.0300522,11.1234783 C53.0860708,11.2534805 53.2140594,11.337695 53.3556174,11.337695 C53.4971754,11.337695 53.625164,11.2534805 53.6811826,11.1234783 L54.9988174,8.1725913 C55.060215,8.04643676 55.187704,7.96588055 55.328,7.9645913 L56.1690435,7.9645913 C56.2937947,7.96159796 56.4107958,8.02491616 56.4765217,8.1309913 C56.5452522,8.2386087 56.5515826,8.3634087 56.4982261,8.31186087 L54.4064696,13.309287 C54.3565477,13.4654642 54.3565477,13.6333185 54.4064696,13.7894957 L56.5633391,18.8538435 C56.6168453,18.9660475 56.6089909,19.0978654 56.5425391,19.2029217 C56.4061962,19.3149118 56.2342025,19.3742753 56.0578087,19.3702261 L55.4012522,19.3702261 C55.2616365,19.371345 55.1344346,19.290205 55.0765913,19.1631304 L53.6802783,15.9074783 C53.6220428,15.7819577 53.4962502,15.7016476 53.3578783,15.7016476 C53.2195063,15.7016476 53.0937137,15.7819577 53.0354783,15.9074783 L51.5405913,19.1631304 C51.4845187,19.2896508 51.3588394,19.3709518 51.2204522,19.3702261 L50.1967304,19.3702261 C50.0579469,19.3715507 49.9317026,19.2901141 49.875687,19.1631304 L48.4766609,15.9074783 C48.4218434,15.7797106 48.2945948,15.6983432 48.1556174,15.7021913 C48.0152397,15.6981073 47.88629,15.779192 47.8291478,15.9074783 L46.3405913,19.1631304 C46.2813012,19.2885232 46.1555326,19.368973 46.0168348,19.3702261 L45.2707478,19.3702261 C45.1462728,19.373124 45.0297244,19.3093328 44.9650783,19.2029217 C44.8987322,19.0973492 44.8932273,18.9645446 44.9506087,18.8538435 L47.1002435,13.7858783 Z M49.2046609,13.7858783 L50.7565217,17.3634783 L52.3056696,13.7867826 C52.3560827,13.6910056 52.3584283,13.5770751 52.312,13.4793043 L50.8243478,9.68104348 L49.2046609,13.4793043 C49.1583657,13.5772028 49.1583657,13.6906929 49.2046609,13.7885913 L49.2046609,13.7858783 Z" id="形状_50_拷贝"></path>
            </g>
        </g>
    </g>
</svg>