<svg id="网易云logo.svg" xmlns="http://www.w3.org/2000/svg" width="120" height="30" viewBox="0 0 120 30">
  <metadata><?xpacket begin="﻿" id="W5M0MpCehiHzreSzNTczkc9d"?>
<x:xmpmeta xmlns:x="adobe:ns:meta/" x:xmptk="Adobe XMP Core 5.6-c138 79.159824, 2016/09/14-01:09:01        ">
   <rdf:RDF xmlns:rdf="http://www.w3.org/1999/02/22-rdf-syntax-ns#">
      <rdf:Description rdf:about=""/>
   </rdf:RDF>
</x:xmpmeta>
                                                                                                    
                                                                                                    
                                                                                                    
                                                                                                    
                                                                                                    
                                                                                                    
                                                                                                    
                                                                                                    
                                                                                                    
                                                                                                    
                                                                                                    
                                                                                                    
                                                                                                    
                                                                                                    
                                                                                                    
                                                                                                    
                                                                                                    
                                                                                                    
                                                                                                    
                                                                                                    
                           
<?xpacket end="w"?></metadata>
<defs>
    <style>
      .cls-1 {
        fill: #379ef7;
      }

      .cls-1, .cls-2 {
        fill-rule: evenodd;
      }

      .cls-2 {
        fill: #fff;
      }
    </style>
  </defs>
  <path id="形状_50" data-name="形状 50" class="cls-1" d="M52.559,42.776a0.591,0.591,0,0,0,.274-0.17,1.891,1.891,0,0,1-1.311-.88,4.233,4.233,0,0,0,.972.337c0.184,0.066.052-.221,0.052-0.221-2.487-1.491-2.382-2.287-2.382-2.287a5.816,5.816,0,0,0,1.311.879c-0.933-.858-0.339-0.542-0.339-0.542a7.117,7.117,0,0,0,7.694.41,5.43,5.43,0,0,0,1.932-7.71,5.983,5.983,0,0,0-6.34-2.548,17.265,17.265,0,0,1-5.481,8.643c-4.393,4.007-5.108,6.572-5.17,7.68-0.012-1.295.379-4.428,3.889-7.893H47.447a22.189,22.189,0,0,0-3.63,4.688,4.472,4.472,0,0,1,1.067-2.344,3.076,3.076,0,0,0-.64.426c-0.068.124-.071-1.582,2.135-3.834a21.167,21.167,0,0,0,4.789-5.972,75.908,75.908,0,0,1-10.5,4.632,14.385,14.385,0,0,0,1.656.913s0.776,0.444-.854,0a7.76,7.76,0,0,0,1.922.852s-0.828.676-4.27-1.065c0,0-.419.053-0.214,0.213a5.671,5.671,0,0,0,1.067.852,2.532,2.532,0,0,1-1.921-.852,0.773,0.773,0,0,0,0,.426,4.848,4.848,0,0,1-.712-0.317c-6.083,1.627-8.895.956-8.895,0.956a32.027,32.027,0,0,0,8.028-1.495c-0.078-.056-0.158-0.115-0.238-0.177-1.29.252-2.674,0.509-3.532,0.666a29.646,29.646,0,0,0,3.252-.892A9.582,9.582,0,0,1,32.771,30.1a5.645,5.645,0,0,0-6.031,2.406,5.4,5.4,0,0,0,1.921,7.67,7.072,7.072,0,0,0,7.652-.408s0.59-.313-0.337.539a5.76,5.76,0,0,0,1.3-.874s0.1,0.792-2.368,2.274c0,0-.131.287,0.052,0.221a4.237,4.237,0,0,0,.967-0.336,1.88,1.88,0,0,1-1.3.876,0.589,0.589,0,0,0,.272.169s-5.337,2.254-8.916-.866a8.364,8.364,0,0,1-2.016-10.33A8.223,8.223,0,0,1,32.6,27.76c0-.31.007-0.627,0.025-0.956C33,19.8,39.3,17,43.6,17c3.531,0,10.377,1.6,11.1,10.82,0,0,0,.014,0,0.034a8.105,8.105,0,0,1,8.846,3.668,8.388,8.388,0,0,1-2.027,10.383C57.963,45.084,52.559,42.776,52.559,42.776Zm-8.528-22.2c-3.916,0-8.063,2.726-7.9,7.884,0.008,0.258.029,0.507,0.056,0.752a43.136,43.136,0,0,0,6.776,3.722s-3.076-.987-3.2-1.065a8.5,8.5,0,0,0-1.495-.426,20.085,20.085,0,0,0,2.989,1.278,12.121,12.121,0,0,1-4.444-1.055,9.086,9.086,0,0,0,2.392,3.3,125.2,125.2,0,0,0,12.543-6.009c0.056-.029.11-0.054,0.166-0.082,0.011-.137.017-0.274,0.017-0.411A8.255,8.255,0,0,0,44.031,20.577Zm5.96,18.806h0Zm0.173,0.173-0.173-.173Zm-6.393,6.811a3.994,3.994,0,0,0,.046.63A1.883,1.883,0,0,1,43.771,46.368ZM32.7,37.043c-0.288.059-.57,0.112-0.842,0.154Zm4.575,2.394,0.049-.049Zm0.116-.116h0Zm6.029-1.477,0.194,0.044Z" transform="translate(-19.984 -17)"/>
  <path id="形状_50_拷贝" data-name="形状 50 拷贝" class="cls-2" d="M136.886,30.123a0.447,0.447,0,0,1-.282.113H126.126a0.38,0.38,0,0,0-.356.228L121.6,39.48a0.381,0.381,0,0,0,.023.381,0.374,0.374,0,0,0,.333.185h11.658a0.371,0.371,0,0,0,.323-0.162,0.387,0.387,0,0,0,.053-0.361l-1.74-5A0.4,0.4,0,0,1,132.623,34h1.135c0.171,0,.32.106,0.374,0.076l2.451,7.061a0.677,0.677,0,0,1-.05.549,0.384,0.384,0,0,1-.319.168H118.96a0.4,0.4,0,0,1-.333-0.182,0.376,0.376,0,0,1-.019-0.383L123.28,30.8a0.406,0.406,0,0,0-.017-0.382,0.424,0.424,0,0,0-.341-0.182H117.16a0.392,0.392,0,0,1-.395-0.4V28.834a0.4,0.4,0,0,1,.112-0.286,0.391,0.391,0,0,1,.283-0.112H136.6a0.4,0.4,0,0,1,.282.112,0.391,0.391,0,0,1,.114.286V29.84A0.4,0.4,0,0,1,136.886,30.123Zm-1.658-6.393h-17a0.4,0.4,0,0,1-.4-0.4v-1a0.361,0.361,0,0,1,.115-0.282,0.39,0.39,0,0,1,.281-0.124h17a0.379,0.379,0,0,1,.283.124,0.36,0.36,0,0,1,.114.282v1A0.4,0.4,0,0,1,135.228,23.73ZM112.365,42.6H108.54c0.076,0-.019-0.041-0.1-0.119a0.352,0.352,0,0,1-.117-0.271V41.227a0.375,0.375,0,0,1,.117-0.278,0.361,0.361,0,0,1,.279-0.111h2.055a0.4,0.4,0,0,0,.4-0.4V34.688a0.375,0.375,0,0,0-.117-0.277,0.369,0.369,0,0,0-.28-0.113h-2.567a0.368,0.368,0,0,0-.33.179l-5.224,7.137a0.385,0.385,0,0,1-.33.185h-0.346a3.113,3.113,0,0,1-1.135-.207,0.393,0.393,0,0,1,.012-0.405l4.549-6.285a0.389,0.389,0,0,0,.013-0.4,0.373,0.373,0,0,0-.346-0.2H101.3a0.366,0.366,0,0,0-.326.169l-5.866,7.167a0.409,0.409,0,0,1-.323.165H94.376a3.078,3.078,0,0,1-1.133-.218,0.391,0.391,0,0,1,.028-0.414l5.1-6.242a0.391,0.391,0,0,0,.029-0.414,0.377,0.377,0,0,0-.352-0.212H94.22a0.4,0.4,0,0,1-.321-0.17,0.386,0.386,0,0,1-.051-0.364l0.728-2.51a0.347,0.347,0,0,1,.2-0.226,0.369,0.369,0,0,1,.308-0.044h1.08a0.5,0.5,0,0,1,.295.164,0.7,0.7,0,0,1-.087.405l-0.208.622a0.809,0.809,0,0,1-.05.1,0.374,0.374,0,0,0,.041.081,0.389,0.389,0,0,0,.324.169h16.077a0.367,0.367,0,0,1,.277.119,0.537,0.537,0,0,1,.121.466V42.4A0.663,0.663,0,0,1,112.365,42.6Zm-3.5-12.1H98.022c-1.522,0-2.5-.6-2.5-2.128V23.743a2.216,2.216,0,0,1,2.5-2.345h10.846c1.526,0,2.7.809,2.7,2.345v4.634C111.571,29.909,110.394,30.505,108.868,30.505Zm0.931-6.187a1.106,1.106,0,0,0-1.325-1.224H98.421c-0.884,0-1.124.347-1.124,1.224v0.772h12.5V24.318Zm0,2.588H97.3v0.9c0,0.88.24,1.029,1.124,1.029h10.053c0.88,0,1.325-.148,1.325-1.029v-0.9ZM88.272,42.444H84.616c0.075,0-.017-0.045-0.1-0.127a0.371,0.371,0,0,1-.118-0.28V41.129a0.4,0.4,0,0,1,.4-0.4h1.86a0.376,0.376,0,0,0,.282-0.109,0.4,0.4,0,0,0,.117-0.286v-16.3a0.4,0.4,0,0,0-.4-0.4h-14.8a0.4,0.4,0,0,0-.282.118,0.391,0.391,0,0,0-.115.28V42.061a0.407,0.407,0,0,1-.4.4h-1a0.4,0.4,0,0,1-.4-0.4V22.236a0.37,0.37,0,0,1,.115-0.279,0.386,0.386,0,0,1,.281-0.119h18.4a0.411,0.411,0,0,1,.4.4v19.8a0.374,0.374,0,0,1-.121.28A0.545,0.545,0,0,1,88.272,42.444Zm-13.206-10.2a0.363,0.363,0,0,0,0-.34l-2.123-5.532a0.394,0.394,0,0,1,.027-0.383,0.383,0.383,0,0,1,.334-0.184h0.94a0.384,0.384,0,0,1,.355.23L75.865,29.3a0.4,0.4,0,0,0,.362.237,0.392,0.392,0,0,0,.36-0.237l1.462-3.263a0.39,0.39,0,0,1,.36-0.23H80a0.4,0.4,0,0,1,.361.23L81.623,29.3a0.392,0.392,0,0,0,.72,0L83.8,26.037a0.409,0.409,0,0,1,.364-0.23h0.93a0.389,0.389,0,0,1,.34.184c0.076,0.119.083,0.257,0.024,0.2l-2.313,5.526a0.872,0.872,0,0,0,0,.531l2.385,5.6a0.4,0.4,0,0,1-.023.386,0.815,0.815,0,0,1-.536.185H84.245a0.391,0.391,0,0,1-.359-0.229l-1.544-3.6a0.393,0.393,0,0,0-.713,0l-1.653,3.6a0.385,0.385,0,0,1-.354.229H78.49a0.384,0.384,0,0,1-.355-0.229l-1.547-3.6a0.375,0.375,0,0,0-.355-0.227,0.383,0.383,0,0,0-.361.227l-1.646,3.6a0.4,0.4,0,0,1-.358.229H73.043a0.385,0.385,0,0,1-.338-0.185,0.389,0.389,0,0,1-.016-0.386Zm2.327,0L79.109,36.2l1.713-3.955a0.38,0.38,0,0,0,.007-0.34l-1.645-4.2-1.791,4.2A0.4,0.4,0,0,0,77.393,32.247Z" transform="translate(-19.984 -17)"/>
</svg>
