<?xml version="1.0" encoding="utf-8"?>
<!-- Generated by IcoMoon.io -->
<!DOCTYPE svg PUBLIC "-//W3C//DTD SVG 1.1//EN" "http://www.w3.org/Graphics/SVG/1.1/DTD/svg11.dtd">
<svg version="1.1" xmlns="http://www.w3.org/2000/svg" xmlns:xlink="http://www.w3.org/1999/xlink" width="32" height="32" viewBox="0 0 32 32">
<path fill="#999" d="M30.194 27.258l-5.503-5.518c1.51-2.115 2.41-4.698 2.41-7.493 0-7.125-5.78-12.92-12.887-12.92-7.108 0-12.889 5.795-12.889 12.92 0 7.126 5.78 12.92 12.889 12.92 2.77 0 5.332-0.889 7.436-2.385l5.509 5.524c0.417 0.417 1.296 0.506 1.714 0.087l1.518-1.521c0.417-0.422 0.221-1.191-0.198-1.613v0zM3.471 14.247c0-5.937 4.818-10.766 10.739-10.766s10.741 4.829 10.741 10.766c0 5.937-4.819 10.767-10.741 10.767s-10.739-4.831-10.739-10.767v0z"></path>
</svg>
