<svg width="16" height="16" viewBox="0 0 16 16" xmlns="http://www.w3.org/2000/svg">
<path d="M15.4661 5.89645C15.4004 5.69538 15.1908 5.34394 14.5211 5.24644L11.8561 4.8593C11.2011 4.76394 10.3993 4.18179 10.1057 3.5875L8.91391 1.17247C8.61426 0.565325 8.21533 0.474609 8.0039 0.474609C7.79247 0.474609 7.39354 0.565325 7.09389 1.17247L5.90174 3.5875C5.60852 4.18143 4.80708 4.76394 4.15172 4.8593L1.48669 5.24644C0.816685 5.34359 0.60704 5.69538 0.541682 5.89645C0.476682 6.09752 0.439181 6.50503 0.924186 6.97753L2.85278 8.85719C3.32707 9.3197 3.63314 10.2619 3.521 10.9147L3.06599 13.569C2.97778 14.0826 3.11992 14.3812 3.25492 14.5415C3.52921 14.8665 4.02065 14.9112 4.53851 14.6394L6.92175 13.3862C7.47818 13.0944 8.52962 13.094 9.08605 13.3862L11.47 14.6394C11.7 14.7601 11.9193 14.8215 12.1225 14.8215C12.3764 14.8215 12.6004 14.7223 12.7529 14.5415C12.8879 14.3815 13.03 14.0826 12.9422 13.5694L12.4872 10.9147C12.3754 10.2622 12.6811 9.32006 13.1554 8.85755L15.084 6.97789C15.5686 6.50503 15.5311 6.09752 15.4661 5.89645Z"/>
</svg>
