<svg width="110" height="61" viewBox="0 0 110 61" fill="none" xmlns="http://www.w3.org/2000/svg">
<rect width="110" height="34" rx="2" fill="#5A89E1"/>
<path d="M33.008 12.004V18.164C33.008 19.466 33.344 20.46 34.016 21.16C34.688 21.846 35.682 22.196 36.998 22.196C38.314 22.196 39.308 21.846 39.994 21.146C40.652 20.46 40.988 19.466 40.988 18.164V12.004H39.84V18.178C39.84 19.158 39.616 19.9 39.182 20.404C38.706 20.922 37.978 21.188 36.998 21.188C36.004 21.188 35.276 20.922 34.814 20.404C34.366 19.9 34.156 19.158 34.156 18.178V12.004H33.008ZM46.3201 14.566C45.2281 14.566 44.4301 15.028 43.9121 15.952V14.762H42.8621V24.772H43.9821V20.684C44.5421 21.692 45.3401 22.196 46.3761 22.196C47.4121 22.196 48.2101 21.804 48.7981 21.048C49.3301 20.348 49.6101 19.466 49.6101 18.402C49.6101 17.31 49.3301 16.428 48.7841 15.728C48.1821 14.944 47.3561 14.566 46.3201 14.566ZM46.1801 15.49C46.9501 15.49 47.5381 15.77 47.9441 16.358C48.2801 16.862 48.4621 17.548 48.4621 18.402C48.4621 19.27 48.2801 19.956 47.9161 20.46C47.5101 20.992 46.9221 21.272 46.1381 21.272C45.4661 21.272 44.9481 21.006 44.5561 20.502C44.1361 19.984 43.9401 19.312 43.9401 18.472V18.332C43.9401 17.52 44.1221 16.848 44.4861 16.344C44.8781 15.77 45.4521 15.49 46.1801 15.49ZM51.2893 11.808V22H52.3953V11.808H51.2893ZM57.5942 14.566C56.5022 14.566 55.6482 14.93 55.0042 15.686C54.3882 16.4 54.0802 17.296 54.0802 18.388C54.0802 19.466 54.3882 20.362 55.0042 21.062C55.6482 21.818 56.5022 22.196 57.5942 22.196C58.6722 22.196 59.5402 21.818 60.1982 21.062C60.8002 20.362 61.1082 19.466 61.1082 18.388C61.1082 17.296 60.8002 16.4 60.1842 15.686C59.5402 14.93 58.6722 14.566 57.5942 14.566ZM57.5942 15.504C58.3502 15.504 58.9522 15.798 59.4002 16.386C59.7782 16.918 59.9742 17.576 59.9742 18.388C59.9742 19.172 59.7782 19.844 59.4002 20.376C58.9522 20.964 58.3502 21.258 57.5942 21.258C56.8242 21.258 56.2222 20.964 55.8022 20.376C55.4102 19.844 55.2282 19.186 55.2282 18.388C55.2282 17.576 55.4102 16.918 55.8022 16.386C56.2222 15.798 56.8242 15.504 57.5942 15.504ZM65.7133 14.566C64.8453 14.566 64.1593 14.734 63.6273 15.07C63.0393 15.434 62.6613 16.008 62.5073 16.764L63.6133 16.848C63.7253 16.386 63.9633 16.036 64.3413 15.812C64.6773 15.588 65.1113 15.49 65.6433 15.49C66.9033 15.49 67.5333 16.092 67.5333 17.31V17.688L65.7973 17.716C64.7053 17.73 63.8653 17.94 63.2773 18.332C62.6053 18.752 62.2833 19.368 62.2833 20.194C62.2833 20.782 62.5073 21.272 62.9553 21.65C63.3893 22.014 63.9633 22.196 64.6913 22.196C65.3633 22.196 65.9653 22.042 66.4973 21.748C66.9453 21.496 67.3233 21.174 67.6033 20.782V22H68.6533V17.352C68.6533 16.512 68.4293 15.854 68.0093 15.378C67.5053 14.832 66.7493 14.566 65.7133 14.566ZM67.5333 18.528V19.144C67.5333 19.704 67.2673 20.208 66.7493 20.642C66.2173 21.09 65.6153 21.314 64.9293 21.314C64.4813 21.314 64.1173 21.202 63.8373 20.992C63.5573 20.768 63.4313 20.502 63.4313 20.166C63.4313 19.116 64.2433 18.584 65.8673 18.556L67.5333 18.528ZM75.7316 11.808V16.092C75.1716 15.07 74.3736 14.566 73.3376 14.566C72.3016 14.566 71.5036 14.944 70.9156 15.728C70.3696 16.428 70.1036 17.296 70.1036 18.36C70.1036 19.452 70.3696 20.348 70.9156 21.048C71.5036 21.804 72.3296 22.196 73.3936 22.196C74.4856 22.196 75.2976 21.734 75.8016 20.81V22H76.8516V11.808H75.7316ZM73.5756 15.49C74.2196 15.49 74.7516 15.742 75.1576 16.274C75.5496 16.792 75.7596 17.478 75.7596 18.318V18.458C75.7596 19.27 75.5776 19.928 75.2276 20.432C74.8216 20.992 74.2616 21.272 73.5336 21.272C72.7496 21.272 72.1616 20.978 71.7696 20.418C71.4196 19.914 71.2516 19.228 71.2516 18.36C71.2516 17.492 71.4196 16.82 71.7836 16.33C72.1756 15.77 72.7776 15.49 73.5756 15.49Z" fill="white"/>
<path d="M18.744 49.264V58H19.644V56.98C20.064 57.772 20.748 58.168 21.708 58.168C22.608 58.168 23.316 57.832 23.832 57.184C24.288 56.584 24.528 55.816 24.528 54.88C24.528 53.968 24.288 53.224 23.832 52.624C23.328 51.952 22.632 51.628 21.756 51.628C20.868 51.628 20.184 52.06 19.704 52.936V49.264H18.744ZM21.552 52.42C22.224 52.42 22.728 52.66 23.076 53.14C23.388 53.56 23.544 54.136 23.544 54.88C23.544 55.624 23.388 56.212 23.1 56.644C22.764 57.124 22.26 57.376 21.588 57.376C20.964 57.376 20.472 57.136 20.136 56.656C19.824 56.224 19.668 55.66 19.668 54.964V54.844C19.668 54.124 19.836 53.536 20.196 53.092C20.532 52.636 20.988 52.42 21.552 52.42ZM28.4993 51.628C28.0673 51.628 27.6953 51.76 27.3713 52.024C27.1073 52.228 26.8913 52.516 26.7233 52.876V51.796H25.7753V58H26.7233V54.712C26.7233 54.136 26.8793 53.644 27.2153 53.236C27.5393 52.804 27.9473 52.6 28.4273 52.6C28.7273 52.6 29.0393 52.636 29.3513 52.732V51.772C29.1233 51.676 28.8353 51.628 28.4993 51.628ZM32.7141 51.628C31.8141 51.628 31.1061 51.952 30.5781 52.6C30.0501 53.212 29.7981 53.98 29.7981 54.892C29.7981 55.9 30.0621 56.692 30.6141 57.292C31.1421 57.868 31.8621 58.168 32.7501 58.168C33.5541 58.168 34.2141 57.928 34.7301 57.472C35.1501 57.088 35.4261 56.608 35.5701 56.008H34.6101C34.4541 56.44 34.2501 56.764 33.9861 56.98C33.6741 57.232 33.2541 57.364 32.7501 57.364C32.1621 57.364 31.6941 57.172 31.3581 56.788C31.0221 56.404 30.8421 55.864 30.7941 55.168H35.6901C35.6661 54.088 35.4261 53.236 34.9701 52.636C34.4661 51.964 33.7101 51.628 32.7141 51.628ZM32.7381 52.432C33.9141 52.432 34.5741 53.092 34.6941 54.424H30.8181C30.8781 53.812 31.0701 53.332 31.4061 52.972C31.7421 52.612 32.1861 52.432 32.7381 52.432ZM39.5143 51.628C38.7703 51.628 38.1823 51.772 37.7263 52.06C37.2223 52.372 36.8983 52.864 36.7663 53.512L37.7143 53.584C37.8103 53.188 38.0143 52.888 38.3383 52.696C38.6263 52.504 38.9983 52.42 39.4543 52.42C40.5343 52.42 41.0743 52.936 41.0743 53.98V54.304L39.5863 54.328C38.6503 54.34 37.9303 54.52 37.4263 54.856C36.8503 55.216 36.5743 55.744 36.5743 56.452C36.5743 56.956 36.7663 57.376 37.1503 57.7C37.5223 58.012 38.0143 58.168 38.6383 58.168C39.2143 58.168 39.7303 58.036 40.1863 57.784C40.5703 57.568 40.8943 57.292 41.1343 56.956V58H42.0343V54.016C42.0343 53.296 41.8423 52.732 41.4823 52.324C41.0503 51.856 40.4023 51.628 39.5143 51.628ZM41.0743 55.024V55.552C41.0743 56.032 40.8463 56.464 40.4023 56.836C39.9463 57.22 39.4303 57.412 38.8423 57.412C38.4583 57.412 38.1463 57.316 37.9063 57.136C37.6663 56.944 37.5583 56.716 37.5583 56.428C37.5583 55.528 38.2543 55.072 39.6463 55.048L41.0743 55.024ZM43.5174 49.264V58H44.4774V55.804L45.4614 54.916L47.8854 58H49.1214L46.1214 54.292L48.8574 51.796H47.5854L44.4774 54.676V49.264H43.5174ZM52.353 49.432C51.825 49.432 51.417 49.576 51.141 49.876C50.877 50.164 50.745 50.56 50.745 51.088V51.796H49.185V52.6H50.745V58H51.705V52.6H53.457V51.796H51.705V51.112C51.705 50.812 51.765 50.596 51.885 50.464C52.005 50.32 52.209 50.26 52.473 50.26H53.541V49.432H52.353ZM57.0456 51.628C56.3016 51.628 55.7136 51.772 55.2576 52.06C54.7536 52.372 54.4296 52.864 54.2976 53.512L55.2456 53.584C55.3416 53.188 55.5456 52.888 55.8696 52.696C56.1576 52.504 56.5296 52.42 56.9856 52.42C58.0656 52.42 58.6056 52.936 58.6056 53.98V54.304L57.1176 54.328C56.1816 54.34 55.4616 54.52 54.9576 54.856C54.3816 55.216 54.1056 55.744 54.1056 56.452C54.1056 56.956 54.2976 57.376 54.6816 57.7C55.0536 58.012 55.5456 58.168 56.1696 58.168C56.7456 58.168 57.2616 58.036 57.7176 57.784C58.1016 57.568 58.4256 57.292 58.6656 56.956V58H59.5656V54.016C59.5656 53.296 59.3736 52.732 59.0136 52.324C58.5816 51.856 57.9336 51.628 57.0456 51.628ZM58.6056 55.024V55.552C58.6056 56.032 58.3776 56.464 57.9336 56.836C57.4776 57.22 56.9616 57.412 56.3736 57.412C55.9896 57.412 55.6776 57.316 55.4376 57.136C55.1976 56.944 55.0896 56.716 55.0896 56.428C55.0896 55.528 55.7856 55.072 57.1776 55.048L58.6056 55.024ZM63.2447 51.628C62.5487 51.628 61.9727 51.784 61.5407 52.096C61.0727 52.408 60.8447 52.816 60.8447 53.344C60.8447 53.872 61.0727 54.268 61.5527 54.556C61.8407 54.748 62.3567 54.928 63.0887 55.108C63.7607 55.276 64.2047 55.408 64.4087 55.504C64.7927 55.696 64.9967 55.96 64.9967 56.308C64.9967 57.004 64.4327 57.364 63.3287 57.364C62.8007 57.364 62.4047 57.268 62.1407 57.076C61.8767 56.86 61.6967 56.512 61.6247 56.02H60.6887C60.8327 57.448 61.7207 58.168 63.3527 58.168C65.1047 58.168 65.9807 57.52 65.9807 56.248C65.9807 55.708 65.7287 55.288 65.2367 54.976C64.9127 54.772 64.3847 54.58 63.6407 54.4C63.0167 54.232 62.5847 54.1 62.3567 53.992C61.9967 53.812 61.8287 53.584 61.8287 53.32C61.8287 53.044 61.9607 52.828 62.2247 52.672C62.4647 52.504 62.8007 52.432 63.2327 52.432C63.7247 52.432 64.1087 52.528 64.3727 52.72C64.6127 52.888 64.7687 53.176 64.8527 53.56H65.7887C65.6207 52.264 64.7807 51.628 63.2447 51.628ZM68.7633 49.792L67.8153 50.188V51.796H66.5673V52.6H67.8153V56.548C67.8153 57.016 67.9113 57.364 68.1153 57.604C68.3313 57.868 68.7033 58 69.2073 58H70.1433V57.196H69.3513C69.1353 57.196 68.9793 57.136 68.8953 57.04C68.7993 56.944 68.7633 56.776 68.7633 56.548V52.6H70.2993V51.796H68.7633V49.792ZM72.2129 56.572C71.9969 56.572 71.8289 56.644 71.6969 56.788C71.5529 56.932 71.4809 57.1 71.4809 57.316C71.4809 57.52 71.5529 57.688 71.6969 57.832C71.8289 57.976 71.9969 58.048 72.2129 58.048C72.4049 58.048 72.5849 57.976 72.7289 57.832C72.8729 57.688 72.9449 57.52 72.9449 57.316C72.9449 57.1 72.8729 56.932 72.7289 56.788C72.5849 56.644 72.4049 56.572 72.2129 56.572ZM77.501 51.628C76.565 51.628 75.881 52.024 75.437 52.816V51.796H74.537V60.376H75.497V56.872C75.977 57.736 76.661 58.168 77.549 58.168C78.437 58.168 79.121 57.832 79.625 57.184C80.081 56.584 80.321 55.828 80.321 54.916C80.321 53.98 80.081 53.224 79.613 52.624C79.097 51.952 78.389 51.628 77.501 51.628ZM77.381 52.42C78.041 52.42 78.545 52.66 78.893 53.164C79.181 53.596 79.337 54.184 79.337 54.916C79.337 55.66 79.181 56.248 78.869 56.68C78.521 57.136 78.017 57.376 77.345 57.376C76.769 57.376 76.325 57.148 75.989 56.716C75.629 56.272 75.461 55.696 75.461 54.976V54.856C75.461 54.16 75.617 53.584 75.929 53.152C76.265 52.66 76.757 52.42 77.381 52.42ZM84.4722 51.628C84.0642 51.628 83.6922 51.724 83.3562 51.916C83.0202 52.096 82.7442 52.36 82.5282 52.708V51.796H81.5682V58H82.5282V54.256C82.5642 53.692 82.7442 53.248 83.0802 52.912C83.3922 52.6 83.7642 52.444 84.1962 52.444C85.2762 52.444 85.8282 53.044 85.8282 54.256V58H86.7882V54.184C86.7882 52.48 86.0082 51.628 84.4722 51.628ZM90.8273 51.628C89.9633 51.628 89.2793 51.928 88.7753 52.54C88.2713 53.116 88.0313 53.848 88.0313 54.76C88.0313 55.66 88.2713 56.392 88.7753 56.968C89.2793 57.556 89.9633 57.856 90.8273 57.856C91.7633 57.856 92.4593 57.436 92.9153 56.608V57.7C92.9153 59.068 92.2913 59.764 91.0433 59.764C90.4793 59.764 90.0593 59.656 89.7833 59.452C89.5073 59.26 89.3273 58.948 89.2553 58.528H88.2953C88.4033 59.2 88.6793 59.704 89.1233 60.04C89.5553 60.376 90.2033 60.544 91.0433 60.544C92.9273 60.544 93.8753 59.548 93.8753 57.568V51.796H92.9153V52.864C92.4593 52.036 91.7633 51.628 90.8273 51.628ZM90.9713 52.42C91.5833 52.42 92.0633 52.636 92.4233 53.092C92.7593 53.5 92.9273 54.064 92.9273 54.76C92.9273 55.432 92.7593 55.984 92.4233 56.404C92.0633 56.836 91.5833 57.052 90.9593 57.052C90.2873 57.052 89.7953 56.812 89.4593 56.356C89.1593 55.948 89.0153 55.408 89.0153 54.76C89.0153 54.064 89.1833 53.5 89.5193 53.092C89.8673 52.636 90.3473 52.42 90.9713 52.42Z" fill="#666666"/>
<path d="M1.49973 54.2504L7.12513 48.625C8.03277 47.7173 10.2986 46.5485 12.3751 48.625C14.4516 50.7014 13.2827 52.9673 12.3751 53.8749L7.12514 59.1249C7.07725 59.1727 6.64302 59.5939 5.98025 59.8148C5.05411 60.125 4.12797 59.878 3.37486 59.1249C2.61959 58.3696 2.37472 57.4456 2.68488 56.5195C2.90472 55.8578 3.32698 55.4225 3.37486 55.3746L8.25043 50.499C8.70317 50.0463 9.67502 49.673 10.501 50.499C11.326 51.324 10.9538 52.2969 10.501 52.7496L7.12622 56.1244C6.91945 56.3312 6.58208 56.3312 6.3753 56.1244C6.16743 55.9166 6.16852 55.5803 6.3753 55.3735L9.7512 51.9976C9.91553 51.8246 10.0537 51.5492 9.7512 51.2467C9.44865 50.9441 9.17331 51.0823 8.99701 51.2499L4.12361 56.1233C3.93969 56.3116 3.0647 57.315 4.12361 58.3739C4.5992 58.8495 5.09546 58.991 5.64396 58.8082C6.0684 58.6667 6.37203 58.3761 6.37421 58.3739L11.6252 53.1229C11.8146 52.9292 13.434 51.1814 11.6252 49.3726C9.77078 47.5182 7.95115 49.2965 7.87497 49.3726L2.24848 54.9991C2.0417 55.2059 1.70433 55.2059 1.49755 54.9991C1.29295 54.7924 1.29295 54.4572 1.49973 54.2504V54.2504Z" fill="#A2A5AC"/>
</svg>
