<svg width="106" height="56" viewBox="0 0 106 56" fill="none" xmlns="http://www.w3.org/2000/svg">
<rect width="96" height="32" rx="4" fill="#337EFF"/>
<path d="M32.4995 11.6073V19.8943H31.4995V11.6073L29.5025 13.6043L28.7953 12.8972L31.646 10.0466C31.8412 9.85133 32.1578 9.85133 32.3531 10.0466L35.2037 12.8972L34.4966 13.6043L32.4995 11.6073Z" fill="white"/>
<path d="M26.0996 17.1002V20.8002C26.0996 20.9658 26.2339 21.1002 26.3996 21.1002H37.5996C37.7653 21.1002 37.8996 20.9658 37.8996 20.8002V17.1002H38.8996V20.8002C38.8996 21.5181 38.3176 22.1002 37.5996 22.1002H26.3996C25.6816 22.1002 25.0996 21.5181 25.0996 20.8002V17.1002H26.0996Z" fill="white"/>
<path d="M49.824 9.562V20.86H44.784V21.84H57.244V20.86H50.86V14.868H56.054V13.888H50.86V9.562H49.824ZM60.338 14.588V22.428H61.346V13.062C61.906 12.096 62.354 11.074 62.718 9.996L61.766 9.548C61.08 11.704 59.988 13.622 58.504 15.288L58.826 16.366C59.372 15.806 59.876 15.204 60.338 14.588ZM62.9 11.354V12.334H65.392C65.252 12.866 65.098 13.412 64.93 13.958H62.284V14.924H64.622C64.3 15.862 63.95 16.772 63.586 17.64H69.578C68.934 18.48 68.066 19.278 66.96 20.048C66.148 19.656 65.308 19.292 64.44 18.956L63.908 19.74C65.7 20.412 67.464 21.336 69.172 22.512L69.746 21.644C69.13 21.238 68.5 20.86 67.842 20.51C69.13 19.53 70.068 18.55 70.656 17.57V16.702H64.902C65.126 16.156 65.364 15.568 65.588 14.924H71.44V13.958H65.91C66.078 13.44 66.232 12.894 66.386 12.334H70.866V11.354H66.638C66.764 10.808 66.89 10.234 67.03 9.646L66.05 9.548L65.63 11.354H62.9Z" fill="white"/>
<path d="M11.0611 41.4014C9.9928 41.4014 8.96832 41.8258 8.21301 42.5812L1.82841 48.8698C1.03141 49.6668 0.720147 50.8284 1.01187 51.9171C1.30359 53.0059 2.15397 53.8562 3.24269 54.148C4.33131 54.4397 5.49306 54.1283 6.29005 53.3314L12.6739 47.0436L12.6756 47.0419C13.5404 46.1465 13.528 44.7232 12.6478 43.843C11.7676 42.9628 10.3443 42.9504 9.44894 43.8152L4.577 48.6871L5.33298 49.4485L5.40394 49.378C5.60391 49.1794 6.80418 47.9792 7.95417 46.8288L10.2032 44.5788C10.6796 44.136 11.4212 44.1495 11.8812 44.6096C12.3412 45.0696 12.3548 45.811 11.9122 46.2874L5.55163 52.5739C4.7347 53.3625 3.43647 53.3511 2.63353 52.5481C1.83073 51.7453 1.81918 50.4474 2.60737 49.6304L8.91274 43.3993C10.0667 42.2453 11.9376 42.2453 13.0915 43.3993C14.2455 44.5532 14.2454 46.4242 13.0915 47.5781L8.30356 52.3749L9.06022 53.1316L13.9317 48.2601C15.487 46.6831 15.4771 44.1462 13.9094 42.5815C13.154 41.8259 12.1294 41.4014 11.0611 41.4014Z" fill="#CCCCCC"/>
<path d="M26.568 41.744V46.844H24.984V52.256H25.812V51.368H29.268V46.844H27.408V44.612H29.808V43.82H27.408V41.744H26.568ZM25.812 50.576V47.636H28.44V50.576H25.812ZM35.124 44.372L31.908 44.96C31.836 44.024 31.8 42.944 31.8 41.732H30.96C30.96 42.98 30.996 44.096 31.068 45.104L29.352 45.416L29.484 46.208L31.14 45.908C31.212 46.76 31.332 47.504 31.488 48.152C31.608 48.692 31.74 49.196 31.896 49.652C31.032 50.54 30.06 51.212 28.968 51.68L29.46 52.34C30.432 51.944 31.356 51.32 32.22 50.48C32.376 50.84 32.556 51.164 32.748 51.44C33.252 52.16 33.72 52.52 34.176 52.52C34.716 52.52 35.136 51.704 35.424 50.072L34.716 49.688C34.524 50.936 34.296 51.56 34.032 51.572C33.828 51.572 33.552 51.284 33.216 50.708C33.072 50.468 32.94 50.18 32.808 49.856C33.564 48.98 34.272 47.912 34.92 46.652L34.248 46.196C33.744 47.24 33.168 48.164 32.52 48.956C32.424 48.644 32.34 48.296 32.268 47.924C32.148 47.348 32.04 46.616 31.968 45.752L35.244 45.164L35.124 44.372ZM33.144 41.972L32.532 42.356C33.12 42.992 33.576 43.568 33.912 44.096L34.548 43.652C34.212 43.172 33.744 42.62 33.144 41.972ZM46.608 48.188H41.928V52.64H42.768V52.112H45.768V52.64H46.608V48.188ZM42.768 51.296V48.992H45.768V51.296H42.768ZM37.716 51.128H40.176V51.68H40.92V47.648L41.352 48.224C42.504 47.744 43.5 47.18 44.34 46.52C45.132 47.144 46.08 47.696 47.196 48.188L47.568 47.42C46.536 47.024 45.66 46.556 44.916 46.016C45.684 45.272 46.284 44.42 46.692 43.46V42.8H43.44C43.572 42.512 43.704 42.212 43.848 41.888L42.996 41.708C42.456 43.004 41.772 44.048 40.932 44.852L41.496 45.512C41.832 45.188 42.144 44.828 42.432 44.432C42.768 44.972 43.2 45.488 43.704 45.968C42.948 46.556 42.024 47.072 40.92 47.504V42.548H36.936V51.68H37.716V51.128ZM40.176 50.36H39.288V47.18H40.176V50.36ZM40.176 46.424H39.288V43.34H40.176V46.424ZM38.592 43.34V46.424H37.716V43.34H38.592ZM37.716 47.18H38.592V50.36H37.716V47.18ZM44.268 45.488C43.692 44.984 43.236 44.42 42.876 43.796C42.9 43.736 42.936 43.676 42.984 43.616H45.708C45.348 44.288 44.868 44.912 44.268 45.488ZM53.688 41.732C52.272 43.316 50.508 44.648 48.396 45.704L48.852 46.532C50.988 45.404 52.704 44.06 54 42.5C55.416 44.156 57.108 45.5 59.1 46.52L59.568 45.692C57.588 44.732 55.836 43.412 54.312 41.732H53.688ZM53.904 44.9V51.38H51.6V46.628H50.748V51.38H48.936V52.22H58.92V51.38H54.78V48.428H58.056V47.6H54.78V44.9H53.904ZM67.716 42.74V50.228H68.556V42.74H67.716ZM69.852 52.592C70.596 52.592 70.98 52.22 70.98 51.476V41.732H70.116V51.26C70.116 51.632 69.924 51.824 69.552 51.824C69.048 51.824 68.508 51.8 67.932 51.764L68.124 52.592H69.852ZM66.516 44.372L63.096 44.9C63.024 43.952 62.988 42.896 62.988 41.72H62.1C62.1 42.944 62.148 44.048 62.244 45.032L60.636 45.284L60.768 46.124L62.328 45.884C62.424 46.724 62.544 47.456 62.712 48.08C62.844 48.608 62.988 49.088 63.156 49.532C62.376 50.252 61.476 50.804 60.468 51.2L60.984 51.98C61.908 51.596 62.748 51.068 63.516 50.42C63.696 50.816 63.9 51.164 64.116 51.476C64.668 52.244 65.22 52.628 65.772 52.628C66.072 52.628 66.348 52.364 66.588 51.86C66.78 51.44 66.96 50.924 67.128 50.3L66.396 49.832C66.156 51.056 65.94 51.68 65.724 51.716C65.364 51.704 64.956 51.344 64.512 50.636C64.38 50.396 64.248 50.132 64.128 49.832C65.004 48.92 65.748 47.78 66.348 46.436L65.592 46.04C65.1 47.132 64.5 48.08 63.792 48.884C63.66 48.476 63.54 48.02 63.432 47.504C63.324 46.976 63.24 46.4 63.168 45.752L66.648 45.212L66.516 44.372ZM64.572 41.672L63.864 42.02C64.308 42.548 64.728 43.136 65.124 43.796L65.856 43.436C65.448 42.8 65.028 42.212 64.572 41.672ZM76.908 41.648V43.748H73.332V44.576H76.908V46.976H72.648V47.804H76.908V52.712H77.772V47.804H81.9C81.864 49.316 81.768 50.168 81.6 50.372C81.444 50.564 81.192 50.66 80.832 50.672C80.472 50.672 80.076 50.66 79.668 50.66L79.896 51.476H80.688C80.952 51.476 81.204 51.44 81.468 51.392C81.78 51.32 82.02 51.2 82.188 51.02C82.548 50.624 82.74 49.28 82.752 46.976H81.048L81.288 44.168V43.748H77.772V41.648H76.908ZM77.772 46.976V44.576H80.436L80.208 46.976H77.772ZM80.796 41.696L80.352 42.344C81.18 42.752 81.984 43.316 82.776 44.036L83.232 43.316C82.5 42.692 81.684 42.152 80.796 41.696ZM85.584 50.072C85.368 50.072 85.2 50.144 85.068 50.288C84.924 50.432 84.852 50.6 84.852 50.816C84.852 51.02 84.924 51.188 85.068 51.332C85.2 51.476 85.368 51.548 85.584 51.548C85.776 51.548 85.956 51.476 86.1 51.332C86.244 51.188 86.316 51.02 86.316 50.816C86.316 50.6 86.244 50.432 86.1 50.288C85.956 50.144 85.776 50.072 85.584 50.072ZM90.8721 45.128C89.9361 45.128 89.2521 45.524 88.8081 46.316V45.296H87.9081V53.876H88.8681V50.372C89.3481 51.236 90.0321 51.668 90.9201 51.668C91.8081 51.668 92.4921 51.332 92.9961 50.684C93.4521 50.084 93.6921 49.328 93.6921 48.416C93.6921 47.48 93.4521 46.724 92.9841 46.124C92.4681 45.452 91.7601 45.128 90.8721 45.128ZM90.7521 45.92C91.4121 45.92 91.9161 46.16 92.2641 46.664C92.5521 47.096 92.7081 47.684 92.7081 48.416C92.7081 49.16 92.5521 49.748 92.2401 50.18C91.8921 50.636 91.3881 50.876 90.7161 50.876C90.1401 50.876 89.6961 50.648 89.3601 50.216C89.0001 49.772 88.8321 49.196 88.8321 48.476V48.356C88.8321 47.66 88.9881 47.084 89.3001 46.652C89.6361 46.16 90.1281 45.92 90.7521 45.92ZM99.5233 42.764V46.436C99.0433 45.56 98.3593 45.128 97.4713 45.128C96.5833 45.128 95.8993 45.452 95.3953 46.124C94.9273 46.724 94.6993 47.468 94.6993 48.38C94.6993 49.316 94.9273 50.084 95.3953 50.684C95.8993 51.332 96.6073 51.668 97.5193 51.668C98.4553 51.668 99.1513 51.272 99.5833 50.48V51.5H100.483V42.764H99.5233ZM97.6753 45.92C98.2273 45.92 98.6833 46.136 99.0313 46.592C99.3673 47.036 99.5473 47.624 99.5473 48.344V48.464C99.5473 49.16 99.3913 49.724 99.0913 50.156C98.7433 50.636 98.2633 50.876 97.6393 50.876C96.9673 50.876 96.4633 50.624 96.1273 50.144C95.8273 49.712 95.6833 49.124 95.6833 48.38C95.6833 47.636 95.8273 47.06 96.1393 46.64C96.4753 46.16 96.9913 45.92 97.6753 45.92ZM104.455 42.932C103.927 42.932 103.519 43.076 103.243 43.376C102.979 43.664 102.847 44.06 102.847 44.588V45.296H101.287V46.1H102.847V51.5H103.807V46.1H105.559V45.296H103.807V44.612C103.807 44.312 103.867 44.096 103.987 43.964C104.107 43.82 104.311 43.76 104.575 43.76H105.643V42.932H104.455Z" fill="#666666"/>
</svg>
