<svg t="1689140917196" class="icon" viewBox="0 0 1024 1024" version="1.1" xmlns="http://www.w3.org/2000/svg" p-id="70396" width="200" height="200"><path d="M153.6 938.496a17.066667 17.066667 0 0 0-17.066667 17.066667v51.2c0 9.386667 7.68 17.066667 17.066667 17.066666h648.533333a17.066667 17.066667 0 0 0 17.066667-17.066666v-51.2a17.066667 17.066667 0 0 0-17.066667-17.066667H153.6zM878.762667 44.202667A492.8 492.8 0 0 0 840.021333 42.666667C608.426667 42.666667 401.92 233.045333 349.610667 472.064l-192.341334-0.512a17.066667 17.066667 0 0 0-13.226666 27.818667l301.653333 370.261333a34.133333 34.133333 0 0 0 52.906667 0l301.568-368.64a17.066667 17.066667 0 0 0-13.141334-27.818667L618.581333 472.746667C639.402667 232.277333 730.026667 149.76 878.933333 44.202667z" p-id="70397"></path></svg>