<svg xmlns="http://www.w3.org/2000/svg" xmlns:xlink="http://www.w3.org/1999/xlink" fill="none" version="1.1" width="85" height="32" viewBox="0 0 85 32"><g style="mix-blend-mode:passthrough"><rect x="0" y="0" width="85" height="32" rx="4" fill="#FFFFFF" fill-opacity="1"/><rect x="0.5" y="0.5" width="84" height="31" rx="3.5" fill-opacity="0" stroke-opacity="1" stroke="#E1E3E5" fill="none" stroke-width="1"/><g style="mix-blend-mode:passthrough"><path d="M33.332679999999996,16.4235L35.14193,16.4235L35.14193,18.2145L33.31901,18.2145C33.31901,18.0869,33.332679999999996,17.9638,33.332679999999996,17.849899999999998L33.332679999999996,16.4235ZM33.25065,19.094L35.14193,19.094L35.14193,22.1884L36.0488,22.1884L36.0488,19.094L37.9264,19.094L37.9264,20.971600000000002C37.9264,21.2542,37.7852,21.4046,37.5072,21.4046C37.1973,21.4046,36.878299999999996,21.3772,36.5273,21.3499L36.7643,22.2614L37.7988,22.2614C38.5143,22.2614,38.8789,21.9378,38.8789,21.3089L38.8789,12.92346L36.5273,12.92346C36.946600000000004,12.49963,37.365899999999996,11.97099,37.7852,11.3512L37.7852,10.64026L34.41276,10.64026C34.55404,10.35771,34.70443,10.07971,34.8457,9.78349L33.87956,9.57385C33.16862,11.03219,32.25716,12.22164,31.14974,13.1331L31.77865,13.87138C31.97461,13.70732,32.18424,13.51135,32.39844,13.31539L32.39844,17.904600000000002C32.36654,19.4449,32.020179999999996,20.7347,31.31836,21.7418L32.04753,22.4026C32.6901,21.5048,33.08203,20.411099999999998,33.25065,19.094ZM35.43359,12.92346L32.77214,12.92346C33.16862,12.48596,33.542320000000004,12.012,33.89323,11.49247L36.623,11.49247C36.2311,12.025680000000001,35.83919,12.49963,35.43359,12.92346ZM37.9264,18.2145L36.0488,18.2145L36.0488,16.4235L37.9264,16.4235L37.9264,18.2145ZM37.9264,15.5257L36.0488,15.5257L36.0488,13.81669L37.9264,13.81669L37.9264,15.5257ZM35.14193,13.81669L35.14193,15.5257L33.332679999999996,15.5257L33.332679999999996,13.81669L35.14193,13.81669ZM26.934245,10.389610000000001L26.934245,11.369430000000001L28.52018,11.369430000000001C28.19661,13.39742,27.53581,15.2021,26.528646,16.788L27.11654,17.7223C27.37174,17.330399999999997,27.6224,16.924799999999998,27.85937,16.491799999999998L27.85937,21.9788L28.81185,21.9788L28.81185,20.917L31.26367,20.917L31.26367,14.54586L28.71615,14.54586C29.04883,13.56604,29.317709999999998,12.49963,29.5,11.369430000000001L31.610030000000002,11.369430000000001L31.610030000000002,10.389610000000001L26.934245,10.389610000000001ZM28.81185,20.005499999999998L28.81185,15.471L30.338540000000002,15.471L30.338540000000002,20.005499999999998L28.81185,20.005499999999998ZM47.560500000000005,13.762L47.560500000000005,14.71448L51.2292,14.71448L51.2292,20.8167C51.0924,20.7893,50.9512,20.7483,50.8236,20.7073C49.8164,20.383699999999997,48.977900000000005,19.627200000000002,48.303399999999996,18.4241C48.5586,17.6949,48.7819,16.897399999999998,48.950500000000005,16.0315L47.9707,15.8629C47.4922,18.269199999999998,46.5944,20.1878,45.254599999999996,21.6142L45.897099999999995,22.4163C46.6947,21.6005,47.364599999999996,20.593400000000003,47.911500000000004,19.3903C48.4857,20.3017,49.2422,20.971600000000002,50.1673,21.4046C51.397800000000004,21.9241,53.4167,22.1884,56.2422,22.1884L57.8099,22.1884L57.9922,21.1813C57.2357,21.2405,56.5111,21.2679,55.7956,21.2679C54.3965,21.2542,53.2207,21.1676,52.240899999999996,21.0263L52.240899999999996,18.1279L56.410799999999995,18.1279L56.410799999999995,17.18L52.240899999999996,17.18L52.240899999999996,14.71448L55.7956,14.71448L55.7956,13.762L47.560500000000005,13.762ZM57.3906,11.03219L52.309200000000004,11.03219C52.113299999999995,10.45797,51.89,9.93844,51.6667,9.47815L50.586600000000004,9.64677C50.837199999999996,10.066040000000001,51.0788,10.52633,51.288399999999996,11.03219L45.938199999999995,11.03219L45.938199999999995,14.08557L46.918,14.08557L46.918,11.95732L56.410799999999995,11.95732L56.410799999999995,14.01266L57.3906,14.01266L57.3906,11.03219Z" fill="#666666" fill-opacity="1"/></g></g></svg>