<svg width="212" height="181" viewBox="0 0 212 181" fill="none" xmlns="http://www.w3.org/2000/svg">
<g filter="url(#filter0_d)">
<path d="M6 6.28998H206V174.29H6V6.28998Z" fill="white"/>
<path d="M6.5 6.78998H205.5V173.79H6.5V6.78998Z" stroke="#E0E3EC"/>
</g>
<path d="M20.304 22.71H21.984V24.462H20.304V22.71ZM21.984 21.69H20.304V19.914H21.984V21.69ZM20.28 25.494H21.984V27.906C21.984 28.326 21.852 28.542 21.6 28.542C21.312 28.542 21.012 28.518 20.676 28.482L20.952 29.49H21.912C22.644 29.49 23.016 29.082 23.016 28.266V18.882H19.284V24.774C19.272 26.394 19.032 27.726 18.552 28.77L19.416 29.55C19.908 28.482 20.196 27.126 20.28 25.494ZM24.9 24.306H25.056C25.32 25.422 25.8 26.43 26.496 27.318C26.052 27.822 25.524 28.254 24.9 28.59V24.306ZM24.9 28.626L25.488 29.514C26.16 29.154 26.748 28.698 27.24 28.146C27.744 28.638 28.344 29.094 29.028 29.502L29.592 28.542C28.944 28.158 28.368 27.738 27.876 27.27C28.38 26.442 28.74 25.434 28.956 24.258V23.298H24.9V19.914H27.78C27.756 20.718 27.708 21.222 27.636 21.426C27.564 21.594 27.468 21.702 27.348 21.738C27.228 21.774 27.036 21.798 26.784 21.798C26.448 21.798 26.184 21.786 25.992 21.786L26.292 22.746H27.3C28.068 22.746 28.524 22.494 28.668 21.99C28.812 21.474 28.884 20.442 28.884 18.882H23.832V29.538H24.9V28.626ZM26.028 24.306H27.948C27.756 25.098 27.48 25.806 27.12 26.43C26.628 25.794 26.268 25.086 26.028 24.306ZM33.972 18.402C33.48 19.566 32.532 20.55 31.128 21.354L31.824 22.266C32.316 21.966 32.76 21.642 33.168 21.294C33.66 21.702 34.188 22.086 34.764 22.422C33.516 22.89 32.076 23.226 30.468 23.43L30.996 24.498C32.892 24.21 34.572 23.742 36.012 23.094C37.5 23.802 39.18 24.258 41.04 24.474L41.556 23.406C39.972 23.262 38.544 22.938 37.26 22.458C38.28 21.858 39.156 21.138 39.876 20.31V19.386H34.74C34.884 19.134 35.016 18.858 35.136 18.57L33.972 18.402ZM36 21.894C35.244 21.51 34.548 21.054 33.924 20.538C33.936 20.514 33.96 20.49 33.996 20.454H38.208C37.56 21.006 36.828 21.486 36 21.894ZM35.136 23.826C35.136 24.258 35.088 24.666 35.016 25.05H31.296V26.07H34.668C34.596 26.226 34.5 26.382 34.404 26.538C33.804 27.366 32.52 28.062 30.564 28.638L31.32 29.562C33.54 28.854 34.944 27.966 35.544 26.886C35.688 26.634 35.808 26.358 35.916 26.07H39.168C39.132 27.126 39.036 27.786 38.88 28.038C38.724 28.278 38.34 28.41 37.728 28.422C37.344 28.398 36.84 28.374 36.216 28.35L36.504 29.382C37.08 29.418 37.584 29.442 37.992 29.442C38.832 29.442 39.432 29.226 39.768 28.818C40.104 28.41 40.284 27.15 40.308 25.05H36.168C36.228 24.666 36.264 24.258 36.264 23.826H35.136Z" fill="#666666"/>
<path d="M19.2 46.28V47.21H25.91V48.61H19.67V49.52H25.91V50.98H19.16V51.9H25.91V52.25H26.87V46.28H23.52V43.19H22.52V46.28H19.2ZM26.02 43.62C25.72 44.26 25.33 44.9 24.83 45.54L25.69 46C26.19 45.36 26.59 44.71 26.89 44.03L26.02 43.62ZM20.07 43.7L19.26 44.2C19.77 44.86 20.17 45.46 20.47 46L21.28 45.45C21 44.94 20.59 44.36 20.07 43.7ZM28.76 46.55V47.46H32.11C31.95 48.04 31.76 48.52 31.53 48.91C30.91 49.95 29.87 50.84 28.41 51.6L29.01 52.38C30.61 51.51 31.75 50.48 32.42 49.29C32.64 48.91 32.82 48.44 32.98 47.88C33.72 49.81 35.06 51.31 37.01 52.37L37.6 51.6C35.71 50.63 34.42 49.25 33.72 47.46H37.27V46.55H33.27C33.37 45.93 33.45 45.24 33.5 44.48H36.98V43.57H29.02V44.48H32.54C32.5 45.23 32.42 45.92 32.31 46.55H28.76ZM44.13 47.89H45.31C45.09 48.82 44.75 49.64 44.3 50.36C44.08 49.84 43.78 49.26 43.41 48.6L42.78 49C42.92 49.27 43.06 49.54 43.19 49.81C42.86 50.04 42.52 50.24 42.18 50.41V48.39H43.83V43.43H41.36V47.94C41.03 47.42 40.7 46.94 40.38 46.51V45.75H41.07V44.87H40.38V43.1H39.52V44.87H38.52V45.75H39.52V45.77C39.28 46.95 38.87 48 38.3 48.92L38.7 49.91C39.02 49.28 39.29 48.6 39.52 47.86V52.34H40.38V47.61C40.54 47.91 40.72 48.28 40.92 48.73L41.36 48.06V50.55C41.36 50.7 41.27 50.81 41.1 50.89L41.33 51.69C42.18 51.31 42.91 50.92 43.52 50.52C43.6 50.71 43.68 50.9 43.76 51.1C43.58 51.31 43.39 51.51 43.17 51.71L43.87 52.33C44.65 51.58 45.25 50.63 45.68 49.48V51.42C45.68 51.91 45.98 52.16 46.58 52.16H46.8C47.18 52.13 47.42 52.03 47.52 51.86C47.63 51.67 47.69 51.16 47.69 50.32L47.04 50.07C47.04 50.51 47.03 50.85 47.01 51.08C46.99 51.3 46.91 51.41 46.77 51.43H46.6C46.5 51.41 46.46 51.35 46.46 51.27V48.57H45.97C46.03 48.35 46.08 48.13 46.13 47.89H47.34V47.03H46.27C46.37 46.32 46.43 45.56 46.44 44.74V44.27H47.26V43.43H44.13V44.27H45.66V44.74C45.65 45.55 45.59 46.31 45.48 47.03H44.93C44.99 46.42 45.06 45.71 45.12 44.9L44.38 44.82C44.33 45.71 44.25 46.73 44.13 47.89ZM42.18 46.27H43.02V47.6H42.18V46.27ZM43.02 45.48H42.18V44.21H43.02V45.48ZM55.74 46.7H50.14V50.35H51.08V47.56H54.81V50.34H55.74V46.7ZM52.38 48.12V48.82C52.33 49.52 52.05 50.09 51.55 50.53C51.03 50.94 50.06 51.28 48.64 51.55L49.18 52.39C50.6 52.1 51.63 51.69 52.27 51.15C52.72 50.73 53.03 50.22 53.19 49.6V51.08C53.19 51.8 53.54 52.16 54.24 52.16H56.19C56.57 52.16 56.85 52.08 57.03 51.92C57.23 51.74 57.37 51.21 57.44 50.33L56.57 50.04C56.53 50.64 56.47 51.01 56.38 51.13C56.3 51.23 56.18 51.29 56.02 51.29H54.52C54.24 51.29 54.1 51.15 54.1 50.88V49.26H53.26C53.28 49.12 53.3 48.97 53.31 48.82V48.12H52.38ZM51.05 43.1V46.38H51.99V43.1H51.05ZM49.09 43.51V46.07H50.01V43.51H49.09ZM54.15 44.64H57.32V43.77H54.54L54.72 43.26L53.81 43.02C53.51 43.94 53.02 44.74 52.36 45.41L53.07 46.07C53.48 45.69 53.84 45.21 54.15 44.64ZM55.05 44.8L54.46 45.35C55.02 45.71 55.55 46.13 56.03 46.63L56.62 45.96C56.14 45.51 55.62 45.12 55.05 44.8Z" fill="#999999"/>
<path d="M19.57 110.89V112.95H22.53V113.45H19.33V114.19H22.53V114.76H18.42V115.53H22.53V116.08H19.32V116.84H22.53V117.13C22.53 117.34 22.4 117.45 22.16 117.45C21.8 117.45 21.43 117.42 21.05 117.38L21.25 118.28H22.48C23.14 118.28 23.47 117.97 23.47 117.35V116.84H26.57V115.53H27.58V114.76H26.57V113.45H23.47V112.95H26.43V110.89H23.47V110.39H27.31V109.58H23.47V109.06H22.53V109.58H18.69V110.39H22.53V110.89H19.57ZM25.49 112.24H23.47V111.59H25.49V112.24ZM22.53 112.24H20.51V111.59H22.53V112.24ZM23.47 114.19H25.66V114.76H23.47V114.19ZM25.66 115.53V116.08H23.47V115.53H25.66ZM31.31 109.05C30.9 110.02 30.11 110.84 28.94 111.51L29.52 112.27C29.93 112.02 30.3 111.75 30.64 111.46C31.05 111.8 31.49 112.12 31.97 112.4C30.93 112.79 29.73 113.07 28.39 113.24L28.83 114.13C30.41 113.89 31.81 113.5 33.01 112.96C34.25 113.55 35.65 113.93 37.2 114.11L37.63 113.22C36.31 113.1 35.12 112.83 34.05 112.43C34.9 111.93 35.63 111.33 36.23 110.64V109.87H31.95C32.07 109.66 32.18 109.43 32.28 109.19L31.31 109.05ZM33 111.96C32.37 111.64 31.79 111.26 31.27 110.83C31.28 110.81 31.3 110.79 31.33 110.76H34.84C34.3 111.22 33.69 111.62 33 111.96ZM32.28 113.57C32.28 113.93 32.24 114.27 32.18 114.59H29.08V115.44H31.89C31.83 115.57 31.75 115.7 31.67 115.83C31.17 116.52 30.1 117.1 28.47 117.58L29.1 118.35C30.95 117.76 32.12 117.02 32.62 116.12C32.74 115.91 32.84 115.68 32.93 115.44H35.64C35.61 116.32 35.53 116.87 35.4 117.08C35.27 117.28 34.95 117.39 34.44 117.4C34.12 117.38 33.7 117.36 33.18 117.34L33.42 118.2C33.9 118.23 34.32 118.25 34.66 118.25C35.36 118.25 35.86 118.07 36.14 117.73C36.42 117.39 36.57 116.34 36.59 114.59H33.14C33.19 114.27 33.22 113.93 33.22 113.57H32.28ZM41.5 109.28C41.09 110.03 40.66 110.67 40.2 111.2C39.64 111.83 39.04 112.32 38.4 112.68L38.92 113.51C39.78 112.91 40.44 112.34 40.92 111.8C41.39 111.28 41.86 110.6 42.32 109.78L41.5 109.28ZM41.79 113.9C41.58 114.74 41.29 115.42 40.92 115.95C40.46 116.54 39.77 117.08 38.87 117.56L39.48 118.35C40.5 117.77 41.27 117.11 41.79 116.39C42.19 115.77 42.51 114.94 42.75 113.9H45.01C44.96 115.33 44.85 116.27 44.69 116.71C44.53 117.13 44.19 117.34 43.69 117.34C43.17 117.34 42.61 117.32 42.02 117.3L42.28 118.24H44.17C44.68 118.21 45.05 118.04 45.28 117.74C45.51 117.43 45.67 116.88 45.77 116.1C45.87 115.3 45.93 114.27 45.97 112.99H39.92V113.9H41.79ZM44.54 109.15L43.71 109.62C44.32 111.19 45.4 112.47 46.94 113.47L47.58 112.72C46.1 111.84 45.09 110.65 44.54 109.15ZM51.97 115.88C51.01 116.33 49.88 116.69 48.58 116.95L48.7 117.9C49.92 117.62 51.01 117.25 51.97 116.78V115.88ZM50.26 109.06C49.86 110.12 49.4 111.07 48.86 111.93C48.74 112.11 48.6 112.23 48.45 112.29L48.69 113.17C49.23 113.1 49.75 113.03 50.27 112.96C49.77 113.75 49.36 114.31 49.03 114.64C48.91 114.75 48.77 114.84 48.6 114.92L48.85 115.79C49.85 115.65 50.92 115.37 52.05 114.96V114.09C51.37 114.35 50.71 114.55 50.05 114.71C50.65 113.98 51.39 112.83 52.26 111.27L51.4 110.95C51.18 111.35 50.98 111.72 50.78 112.08C50.4 112.14 50.01 112.19 49.63 112.23C50.15 111.51 50.66 110.57 51.16 109.41L50.26 109.06ZM56.78 109.53H52.56V117.05H51.74V117.97H57.58V117.05H56.78V109.53ZM53.49 117.05V115.43H55.85V117.05H53.49ZM53.49 114.53V112.89H55.85V114.53H53.49ZM53.49 112V110.44H55.85V112H53.49Z" fill="#999999"/>
<path d="M18 60.29H194V68.29H18V60.29Z" fill="#F0F1F5"/>
<path d="M18 126.29H194V134.29H18V126.29Z" fill="#F0F1F5"/>
<path d="M18 74.29H194V82.29H18V74.29Z" fill="#F0F1F5"/>
<path d="M18 140.29H194V148.29H18V140.29Z" fill="#F0F1F5"/>
<path d="M18 88.29H106V96.29H18V88.29Z" fill="#F0F1F5"/>
<path d="M18 154.29H106V162.29H18V154.29Z" fill="#F0F1F5"/>
<defs>
<filter id="filter0_d" x="0" y="0.289978" width="212" height="180" filterUnits="userSpaceOnUse" color-interpolation-filters="sRGB">
<feFlood flood-opacity="0" result="BackgroundImageFix"/>
<feColorMatrix in="SourceAlpha" type="matrix" values="0 0 0 0 0 0 0 0 0 0 0 0 0 0 0 0 0 0 127 0"/>
<feOffset/>
<feGaussianBlur stdDeviation="3"/>
<feColorMatrix type="matrix" values="0 0 0 0 0 0 0 0 0 0 0 0 0 0 0 0 0 0 0.05 0"/>
<feBlend mode="normal" in2="BackgroundImageFix" result="effect1_dropShadow"/>
<feBlend mode="normal" in="SourceGraphic" in2="effect1_dropShadow" result="shape"/>
</filter>
</defs>
</svg>
