<svg width="178" height="12" viewBox="0 0 178 12" fill="none" xmlns="http://www.w3.org/2000/svg">
<path d="M8.41 4.05998H5.28C5.34 3.79998 5.4 3.52998 5.45 3.24998H9.46V2.32998H7.05C7.21 2.02998 7.36 1.69998 7.5 1.33998L6.56 1.00998C6.4 1.46998 6.21 1.90998 6 2.32998H3.95C3.78 1.82998 3.6 1.38998 3.4 1.02998L2.47 1.37998C2.65 1.67998 2.81 1.98998 2.95 2.32998H0.54V3.24998H4.44C4.4 3.52998 4.36 3.79998 4.3 4.05998H1.59V10.33H2.53V9.96998H7.47V10.33H8.41V4.05998ZM2.53 9.10998V8.24998H7.47V9.10998H2.53ZM2.53 7.41998V6.57998H7.47V7.41998H2.53ZM2.53 5.75998V4.91998H7.47V5.75998H2.53ZM18.2 3.20998H15.3C15.38 2.92998 15.44 2.62998 15.5 2.32998H19.43V1.42998H10.57V2.32998H14.47C14.43 2.62998 14.37 2.91998 14.31 3.20998H11.76V8.06998H12.72V4.13998H17.24V8.05998H18.2V3.20998ZM15.73 7.94998L15.21 8.73998C16.38 9.12998 17.52 9.66998 18.64 10.35L19.23 9.44998C18.18 8.85998 17.01 8.35998 15.73 7.94998ZM14.52 4.61998V6.20998C14.47 7.04998 14.19 7.72998 13.67 8.24998C13.15 8.73998 12.16 9.13998 10.7 9.45998L11.24 10.31C12.7 9.96998 13.76 9.49998 14.4 8.87998C15.06 8.20998 15.42 7.31998 15.48 6.20998V4.61998H14.52ZM35.7048 3.11998V7.09998H38.1848V9.14998C38.1848 9.32998 38.0748 9.41998 37.8648 9.41998C37.5848 9.41998 37.2848 9.39998 36.9748 9.35998L37.1848 10.29H38.1948C38.8148 10.29 39.1348 9.97998 39.1348 9.37998V7.09998H41.3848V3.11998H38.6748C38.7548 2.87998 38.8148 2.61998 38.8748 2.35998H42.0748V1.42998H33.8148V5.32998C33.7948 7.16998 33.5448 8.61998 33.0648 9.65998L33.7848 10.3C34.4048 9.04998 34.7348 7.38998 34.7748 5.32998V2.35998H37.9348C37.8848 2.61998 37.8248 2.86998 37.7448 3.11998H35.7048ZM40.4648 6.23998H36.6248V5.49998H40.4648V6.23998ZM36.6248 4.68998V3.97998H40.4648V4.68998H36.6248ZM36.3548 7.40998C35.9348 8.20998 35.4248 8.89998 34.8248 9.47998L35.6148 10.04C36.2148 9.40998 36.7448 8.66998 37.1848 7.80998L36.3548 7.40998ZM40.6548 7.39998L39.8948 7.87998C40.5348 8.67998 41.0348 9.40998 41.4048 10.07L42.1948 9.52998C41.8348 8.91998 41.3148 8.20998 40.6548 7.39998ZM43.6048 1.46998V2.30998H44.5348V3.59998H43.3448V4.47998H44.4748C44.3648 5.17998 44.0648 5.71998 43.5848 6.08998L44.3048 6.71998C44.9248 6.21998 45.2848 5.46998 45.4048 4.47998H46.5248V6.59998H47.4448V4.47998H48.6048V3.59998H47.4448V2.30998H48.3848V1.46998H43.6048ZM45.4548 2.30998H46.5248V3.59998H45.4548V2.30998ZM49.0448 1.76998V5.19998H49.9548V1.76998H49.0448ZM43.8548 7.43998V8.30998H47.2848V9.23998H43.2948V10.11H52.1348V9.23998H48.2248V8.30998H51.5848V7.43998H48.2248V6.70998H47.2848V7.43998H43.8548ZM50.8648 6.70998C51.4648 6.70998 51.7648 6.34998 51.7648 5.63998V1.21998H50.8548V5.41998C50.8548 5.72998 50.7448 5.88998 50.5448 5.88998C50.1548 5.88998 49.7448 5.86998 49.3148 5.82998L49.5248 6.70998H50.8648ZM56.6848 7.87998C55.7248 8.32998 54.5948 8.68998 53.2948 8.94998L53.4148 9.89998C54.6348 9.61998 55.7248 9.24998 56.6848 8.77998V7.87998ZM54.9748 1.05998C54.5748 2.11998 54.1148 3.06998 53.5748 3.92998C53.4548 4.10998 53.3148 4.22998 53.1648 4.28998L53.4048 5.16998C53.9448 5.09998 54.4648 5.02998 54.9848 4.95998C54.4848 5.74998 54.0748 6.30998 53.7448 6.63998C53.6248 6.74998 53.4848 6.83998 53.3148 6.91998L53.5648 7.78998C54.5648 7.64998 55.6348 7.36998 56.7648 6.95998V6.08998C56.0848 6.34998 55.4248 6.54998 54.7648 6.70998C55.3648 5.97998 56.1048 4.82998 56.9748 3.26998L56.1148 2.94998C55.8948 3.34998 55.6948 3.71998 55.4948 4.07998C55.1148 4.13998 54.7248 4.18998 54.3448 4.22998C54.8648 3.50998 55.3748 2.56998 55.8748 1.40998L54.9748 1.05998ZM61.4948 1.52998H57.2748V9.04998H56.4548V9.96998H62.2948V9.04998H61.4948V1.52998ZM58.2048 9.04998V7.42998H60.5648V9.04998H58.2048ZM58.2048 6.52998V4.88998H60.5648V6.52998H58.2048ZM58.2048 3.99998V2.43998H60.5648V3.99998H58.2048ZM65.2248 1.00998C64.7448 2.54998 64.0048 3.89998 63.0048 5.05998L63.3148 6.06998C63.6248 5.73998 63.9248 5.39998 64.2048 5.03998V10.32H65.1348V3.65998C65.5348 2.95998 65.8648 2.20998 66.1148 1.41998L65.2248 1.00998ZM66.9048 1.72998C66.7048 3.00998 66.3048 4.09998 65.7248 4.98998L66.3348 5.77998C66.6948 5.25998 66.9948 4.68998 67.2448 4.05998H68.7548V6.20998H65.9148V7.12998H68.7548V10.28H69.7048V7.12998H72.2848V6.20998H69.7048V4.05998H71.9148V3.12998H69.7048V1.12998H68.7548V3.12998H67.5548C67.6648 2.72998 67.7548 2.29998 67.8348 1.84998L66.9048 1.72998Z" fill="#73A2FF"/>
<path d="M23.8301 4.11998V5.07998L27.6301 6.70998L23.8301 8.33998V9.29998L28.8801 7.09998V6.30998L23.8301 4.11998ZM76.5449 4.11998V5.07998L80.3449 6.70998L76.5449 8.33998V9.29998L81.5949 7.09998V6.30998L76.5449 4.11998ZM139.68 4.11998V5.07998L143.48 6.70998L139.68 8.33998V9.29998L144.73 7.09998V6.30998L139.68 4.11998ZM149.084 1.42998V2.33998H153.134C153.064 2.69998 152.964 3.04998 152.834 3.38998H149.584V10.35H150.504V9.92998H156.654V10.35H157.574V3.38998H153.794C153.924 3.04998 154.024 2.69998 154.104 2.33998H158.044V1.42998H149.084ZM150.504 9.04998V4.25998H151.644V9.04998H150.504ZM152.534 9.04998V7.96998H154.594V9.04998H152.534ZM155.484 9.04998V4.25998H156.654V9.04998H155.484ZM152.534 7.15998V6.11998H154.594V7.15998H152.534ZM152.534 5.29998V4.25998H154.594V5.29998H152.534ZM164.984 4.06998H160.714C160.974 3.73998 161.214 3.37998 161.454 2.98998H166.454C166.434 4.98998 166.404 6.15998 166.344 6.51998C166.304 6.85998 166.144 7.03998 165.884 7.03998C165.684 7.03998 165.444 7.01998 165.164 6.98998L165.394 7.83998C165.694 7.85998 165.904 7.87998 166.024 7.87998C166.754 7.87998 167.164 7.55998 167.264 6.93998C167.364 6.31998 167.424 4.69998 167.424 2.07998H161.954C162.084 1.79998 162.214 1.51998 162.344 1.21998L161.384 0.999977C160.764 2.39998 160.014 3.49998 159.134 4.29998L159.794 5.09998C160.024 4.87998 160.254 4.62998 160.474 4.36998V9.27998C160.474 9.87998 160.814 10.19 161.494 10.19H166.784C167.284 10.17 167.614 9.94998 167.754 9.53998C167.844 9.27998 167.924 8.84998 167.984 8.24998L167.084 7.95998C167.024 8.54998 166.974 8.90998 166.914 9.03998C166.834 9.19998 166.694 9.27998 166.484 9.29998H161.884C161.574 9.29998 161.424 9.16998 161.424 8.90998V7.27998H164.984V4.06998ZM161.424 6.41998V4.92998H164.024V6.41998H161.424ZM176.314 10.24C176.964 10.24 177.294 9.95998 177.294 9.39998V5.52998H176.644C177.024 5.13998 177.334 4.72998 177.574 4.29998L176.824 3.93998C176.594 4.35998 176.284 4.76998 175.884 5.18998L176.554 5.52998H174.854V4.06998H173.934V5.52998H172.314L172.884 5.24998C172.624 4.77998 172.334 4.34998 172.014 3.95998L171.264 4.29998C171.574 4.64998 171.864 5.05998 172.134 5.52998H171.414V10.26H172.334V8.87998H176.384V9.20998C176.384 9.37998 176.274 9.46998 176.054 9.46998L174.834 9.43998L175.044 10.24H176.314ZM172.334 8.12998V7.61998H176.384V8.12998H172.334ZM172.334 6.86998V6.34998H176.384V6.86998H172.334ZM176.724 2.25998V2.99998H170.824V2.25998H176.724ZM170.824 3.82998H177.644V1.40998H169.904V4.82998C169.894 6.76998 169.594 8.35998 169.014 9.59998L169.824 10.32C170.484 8.78998 170.814 6.95998 170.824 4.82998V3.82998Z" fill="#666666"/>
<path d="M86.1297 2.14998V9.28998H87.2197V3.91998H87.2597L90.9497 9.28998H92.0097V2.14998H90.9197V7.45998H90.8797L87.2297 2.14998H86.1297ZM95.6448 3.97998C95.0048 3.97998 94.4848 4.08998 94.1048 4.32998C93.6648 4.58998 93.3848 5.00998 93.2748 5.56998L94.3248 5.65998C94.3848 5.36998 94.5348 5.15998 94.7748 5.01998C94.9748 4.89998 95.2448 4.83998 95.5748 4.83998C96.3548 4.83998 96.7448 5.19998 96.7448 5.91998V6.12998L95.5848 6.15998C94.8248 6.17998 94.2248 6.32998 93.8048 6.62998C93.3448 6.93998 93.1148 7.38998 93.1148 7.96998C93.1148 8.39998 93.2748 8.74998 93.6048 9.01998C93.9048 9.28998 94.3248 9.42998 94.8648 9.42998C95.3248 9.42998 95.7248 9.33998 96.0648 9.17998C96.3648 9.02998 96.6148 8.81998 96.8148 8.55998V9.28998H97.7948V5.98998C97.7948 5.35998 97.6348 4.87998 97.3248 4.54998C96.9648 4.16998 96.4048 3.97998 95.6448 3.97998ZM96.7448 6.89998V7.19998C96.7448 7.59998 96.5748 7.93998 96.2548 8.20998C95.9348 8.47998 95.5548 8.61998 95.1048 8.61998C94.8348 8.61998 94.6148 8.54998 94.4548 8.41998C94.2848 8.28998 94.2048 8.12998 94.2048 7.92998C94.2048 7.28998 94.6848 6.94998 95.6548 6.92998L96.7448 6.89998ZM98.4582 4.11998L100.378 9.28998H101.438L103.358 4.11998H102.208L100.908 7.96998L99.6082 4.11998H98.4582ZM104.758 2.04998C104.548 2.04998 104.378 2.10998 104.238 2.24998C104.098 2.37998 104.028 2.54998 104.028 2.75998C104.028 2.95998 104.098 3.13998 104.238 3.27998C104.378 3.40998 104.548 3.47998 104.758 3.47998C104.958 3.47998 105.138 3.40998 105.278 3.27998C105.418 3.13998 105.498 2.96998 105.498 2.75998C105.498 2.54998 105.428 2.37998 105.288 2.24998C105.148 2.10998 104.968 2.04998 104.758 2.04998ZM104.228 4.11998V9.28998H105.288V4.11998H104.228ZM108.873 3.97998C108.173 3.97998 107.603 4.21998 107.173 4.70998C106.733 5.18998 106.523 5.80998 106.523 6.58998C106.523 7.36998 106.733 7.98998 107.173 8.45998C107.603 8.92998 108.173 9.16998 108.873 9.16998C109.553 9.16998 110.073 8.87998 110.453 8.30998V9.10998C110.453 10.08 110.003 10.57 109.103 10.57C108.683 10.57 108.373 10.5 108.183 10.38C107.983 10.25 107.863 10.03 107.803 9.72998H106.743C106.843 10.3 107.073 10.72 107.453 11C107.833 11.27 108.383 11.41 109.103 11.41C110.703 11.41 111.513 10.59 111.513 8.94998V4.11998H110.453V4.80998C110.073 4.24998 109.553 3.97998 108.873 3.97998ZM109.033 4.83998C109.483 4.83998 109.833 4.98998 110.093 5.30998C110.333 5.61998 110.463 6.04998 110.463 6.58998C110.463 7.11998 110.333 7.53998 110.093 7.84998C109.833 8.14998 109.483 8.29998 109.033 8.29998C108.513 8.29998 108.143 8.11998 107.913 7.77998C107.713 7.48998 107.613 7.08998 107.613 6.58998C107.613 6.03998 107.733 5.60998 107.993 5.30998C108.233 4.98998 108.583 4.83998 109.033 4.83998ZM115.039 3.97998C114.399 3.97998 113.879 4.08998 113.499 4.32998C113.059 4.58998 112.779 5.00998 112.669 5.56998L113.719 5.65998C113.779 5.36998 113.929 5.15998 114.169 5.01998C114.369 4.89998 114.639 4.83998 114.969 4.83998C115.749 4.83998 116.139 5.19998 116.139 5.91998V6.12998L114.979 6.15998C114.219 6.17998 113.619 6.32998 113.199 6.62998C112.739 6.93998 112.509 7.38998 112.509 7.96998C112.509 8.39998 112.669 8.74998 112.999 9.01998C113.299 9.28998 113.719 9.42998 114.259 9.42998C114.719 9.42998 115.119 9.33998 115.459 9.17998C115.759 9.02998 116.009 8.81998 116.209 8.55998V9.28998H117.189V5.98998C117.189 5.35998 117.029 4.87998 116.719 4.54998C116.359 4.16998 115.799 3.97998 115.039 3.97998ZM116.139 6.89998V7.19998C116.139 7.59998 115.969 7.93998 115.649 8.20998C115.329 8.47998 114.949 8.61998 114.499 8.61998C114.229 8.61998 114.009 8.54998 113.849 8.41998C113.679 8.28998 113.599 8.12998 113.599 7.92998C113.599 7.28998 114.079 6.94998 115.049 6.92998L116.139 6.89998ZM119.973 2.44998L118.913 2.88998V4.11998H117.953V4.99998H118.913V7.99998C118.913 8.40998 119.003 8.71998 119.203 8.93998C119.403 9.16998 119.733 9.28998 120.173 9.28998H121.023V8.40998H120.343C120.213 8.40998 120.123 8.36998 120.063 8.30998C120.003 8.23998 119.973 8.13998 119.973 7.99998V4.99998H121.153V4.11998H119.973V2.44998ZM122.756 2.04998C122.546 2.04998 122.376 2.10998 122.236 2.24998C122.096 2.37998 122.026 2.54998 122.026 2.75998C122.026 2.95998 122.096 3.13998 122.236 3.27998C122.376 3.40998 122.546 3.47998 122.756 3.47998C122.956 3.47998 123.136 3.40998 123.276 3.27998C123.416 3.13998 123.496 2.96998 123.496 2.75998C123.496 2.54998 123.426 2.37998 123.286 2.24998C123.146 2.10998 122.966 2.04998 122.756 2.04998ZM122.226 4.11998V9.28998H123.286V4.11998H122.226ZM127.101 3.97998C126.321 3.97998 125.691 4.23998 125.221 4.75998C124.751 5.26998 124.521 5.91998 124.521 6.70998C124.521 7.48998 124.751 8.13998 125.211 8.63998C125.691 9.15998 126.321 9.42998 127.101 9.42998C127.881 9.42998 128.511 9.15998 128.991 8.63998C129.451 8.13998 129.681 7.48998 129.681 6.70998C129.681 5.91998 129.441 5.26998 128.981 4.75998C128.511 4.23998 127.881 3.97998 127.101 3.97998ZM127.101 4.84998C127.591 4.84998 127.971 5.03998 128.251 5.42998C128.491 5.75998 128.611 6.18998 128.611 6.70998C128.611 7.21998 128.491 7.63998 128.251 7.97998C127.971 8.35998 127.591 8.55998 127.101 8.55998C126.611 8.55998 126.231 8.35998 125.961 7.97998C125.721 7.64998 125.611 7.22998 125.611 6.70998C125.611 6.18998 125.721 5.75998 125.961 5.42998C126.231 5.03998 126.611 4.84998 127.101 4.84998ZM133.308 3.97998C132.988 3.97998 132.698 4.03998 132.438 4.17998C132.178 4.30998 131.948 4.49998 131.748 4.75998V4.11998H130.688V9.28998H131.748V6.17998C131.788 5.75998 131.938 5.42998 132.178 5.18998C132.398 4.96998 132.668 4.86998 132.968 4.86998C133.768 4.86998 134.178 5.30998 134.178 6.18998V9.28998H135.238V6.09998C135.238 4.67998 134.588 3.97998 133.308 3.97998Z" fill="#CCCCCC"/>
</svg>
