<svg width="178" height="12" viewBox="0 0 178 12" fill="none" xmlns="http://www.w3.org/2000/svg">
<path d="M8.41 4.34996H5.28C5.34 4.08996 5.4 3.81996 5.45 3.53996H9.46V2.61996H7.05C7.21 2.31996 7.36 1.98996 7.5 1.62996L6.56 1.29996C6.4 1.75996 6.21 2.19996 6 2.61996H3.95C3.78 2.11996 3.6 1.67996 3.4 1.31996L2.47 1.66996C2.65 1.96996 2.81 2.27996 2.95 2.61996H0.54V3.53996H4.44C4.4 3.81996 4.36 4.08996 4.3 4.34996H1.59V10.62H2.53V10.26H7.47V10.62H8.41V4.34996ZM2.53 9.39996V8.53996H7.47V9.39996H2.53ZM2.53 7.70996V6.86996H7.47V7.70996H2.53ZM2.53 6.04996V5.20996H7.47V6.04996H2.53ZM18.2 3.49996H15.3C15.38 3.21996 15.44 2.91996 15.5 2.61996H19.43V1.71996H10.57V2.61996H14.47C14.43 2.91996 14.37 3.20996 14.31 3.49996H11.76V8.35996H12.72V4.42996H17.24V8.34996H18.2V3.49996ZM15.73 8.23996L15.21 9.02996C16.38 9.41996 17.52 9.95996 18.64 10.64L19.23 9.73996C18.18 9.14996 17.01 8.64996 15.73 8.23996ZM14.52 4.90996V6.49996C14.47 7.33996 14.19 8.01996 13.67 8.53996C13.15 9.02996 12.16 9.42996 10.7 9.74996L11.24 10.6C12.7 10.26 13.76 9.78996 14.4 9.16996C15.06 8.49996 15.42 7.60996 15.48 6.49996V4.90996H14.52ZM35.7048 3.40996V7.38996H38.1848V9.43996C38.1848 9.61996 38.0748 9.70996 37.8648 9.70996C37.5848 9.70996 37.2848 9.68996 36.9748 9.64996L37.1848 10.58H38.1948C38.8148 10.58 39.1348 10.27 39.1348 9.66996V7.38996H41.3848V3.40996H38.6748C38.7548 3.16996 38.8148 2.90996 38.8748 2.64996H42.0748V1.71996H33.8148V5.61996C33.7948 7.45996 33.5448 8.90996 33.0648 9.94996L33.7848 10.59C34.4048 9.33996 34.7348 7.67996 34.7748 5.61996V2.64996H37.9348C37.8848 2.90996 37.8248 3.15996 37.7448 3.40996H35.7048ZM40.4648 6.52996H36.6248V5.78996H40.4648V6.52996ZM36.6248 4.97996V4.26996H40.4648V4.97996H36.6248ZM36.3548 7.69996C35.9348 8.49996 35.4248 9.18996 34.8248 9.76996L35.6148 10.33C36.2148 9.69996 36.7448 8.95996 37.1848 8.09996L36.3548 7.69996ZM40.6548 7.68996L39.8948 8.16996C40.5348 8.96996 41.0348 9.69996 41.4048 10.36L42.1948 9.81996C41.8348 9.20996 41.3148 8.49996 40.6548 7.68996ZM43.6048 1.75996V2.59996H44.5348V3.88996H43.3448V4.76996H44.4748C44.3648 5.46996 44.0648 6.00996 43.5848 6.37996L44.3048 7.00996C44.9248 6.50996 45.2848 5.75996 45.4048 4.76996H46.5248V6.88996H47.4448V4.76996H48.6048V3.88996H47.4448V2.59996H48.3848V1.75996H43.6048ZM45.4548 2.59996H46.5248V3.88996H45.4548V2.59996ZM49.0448 2.05996V5.48996H49.9548V2.05996H49.0448ZM43.8548 7.72996V8.59996H47.2848V9.52996H43.2948V10.4H52.1348V9.52996H48.2248V8.59996H51.5848V7.72996H48.2248V6.99996H47.2848V7.72996H43.8548ZM50.8648 6.99996C51.4648 6.99996 51.7648 6.63996 51.7648 5.92996V1.50996H50.8548V5.70996C50.8548 6.01996 50.7448 6.17996 50.5448 6.17996C50.1548 6.17996 49.7448 6.15996 49.3148 6.11996L49.5248 6.99996H50.8648ZM56.6848 8.16996C55.7248 8.61996 54.5948 8.97996 53.2948 9.23996L53.4148 10.19C54.6348 9.90996 55.7248 9.53996 56.6848 9.06996V8.16996ZM54.9748 1.34996C54.5748 2.40996 54.1148 3.35996 53.5748 4.21996C53.4548 4.39996 53.3148 4.51996 53.1648 4.57996L53.4048 5.45996C53.9448 5.38996 54.4648 5.31996 54.9848 5.24996C54.4848 6.03996 54.0748 6.59996 53.7448 6.92996C53.6248 7.03996 53.4848 7.12996 53.3148 7.20996L53.5648 8.07996C54.5648 7.93996 55.6348 7.65996 56.7648 7.24996V6.37996C56.0848 6.63996 55.4248 6.83996 54.7648 6.99996C55.3648 6.26996 56.1048 5.11996 56.9748 3.55996L56.1148 3.23996C55.8948 3.63996 55.6948 4.00996 55.4948 4.36996C55.1148 4.42996 54.7248 4.47996 54.3448 4.51996C54.8648 3.79996 55.3748 2.85996 55.8748 1.69996L54.9748 1.34996ZM61.4948 1.81996H57.2748V9.33996H56.4548V10.26H62.2948V9.33996H61.4948V1.81996ZM58.2048 9.33996V7.71996H60.5648V9.33996H58.2048ZM58.2048 6.81996V5.17996H60.5648V6.81996H58.2048ZM58.2048 4.28996V2.72996H60.5648V4.28996H58.2048ZM65.2248 1.29996C64.7448 2.83996 64.0048 4.18996 63.0048 5.34996L63.3148 6.35996C63.6248 6.02996 63.9248 5.68996 64.2048 5.32996V10.61H65.1348V3.94996C65.5348 3.24996 65.8648 2.49996 66.1148 1.70996L65.2248 1.29996ZM66.9048 2.01996C66.7048 3.29996 66.3048 4.38996 65.7248 5.27996L66.3348 6.06996C66.6948 5.54996 66.9948 4.97996 67.2448 4.34996H68.7548V6.49996H65.9148V7.41996H68.7548V10.57H69.7048V7.41996H72.2848V6.49996H69.7048V4.34996H71.9148V3.41996H69.7048V1.41996H68.7548V3.41996H67.5548C67.6648 3.01996 67.7548 2.58996 67.8348 2.13996L66.9048 2.01996Z" fill="#73A2FF"/>
<path d="M23.8301 4.40996V5.36996L27.6301 6.99996L23.8301 8.62996V9.58996L28.8801 7.38996V6.59996L23.8301 4.40996ZM76.5449 4.40996V5.36996L80.3449 6.99996L76.5449 8.62996V9.58996L81.5949 7.38996V6.59996L76.5449 4.40996ZM139.68 4.40996V5.36996L143.48 6.99996L139.68 8.62996V9.58996L144.73 7.38996V6.59996L139.68 4.40996ZM149.084 1.71996V2.62996H153.134C153.064 2.98996 152.964 3.33996 152.834 3.67996H149.584V10.64H150.504V10.22H156.654V10.64H157.574V3.67996H153.794C153.924 3.33996 154.024 2.98996 154.104 2.62996H158.044V1.71996H149.084ZM150.504 9.33996V4.54996H151.644V9.33996H150.504ZM152.534 9.33996V8.25996H154.594V9.33996H152.534ZM155.484 9.33996V4.54996H156.654V9.33996H155.484ZM152.534 7.44996V6.40996H154.594V7.44996H152.534ZM152.534 5.58996V4.54996H154.594V5.58996H152.534ZM164.984 4.35996H160.714C160.974 4.02996 161.214 3.66996 161.454 3.27996H166.454C166.434 5.27996 166.404 6.44996 166.344 6.80996C166.304 7.14996 166.144 7.32996 165.884 7.32996C165.684 7.32996 165.444 7.30996 165.164 7.27996L165.394 8.12996C165.694 8.14996 165.904 8.16996 166.024 8.16996C166.754 8.16996 167.164 7.84996 167.264 7.22996C167.364 6.60996 167.424 4.98996 167.424 2.36996H161.954C162.084 2.08996 162.214 1.80996 162.344 1.50996L161.384 1.28996C160.764 2.68996 160.014 3.78996 159.134 4.58996L159.794 5.38996C160.024 5.16996 160.254 4.91996 160.474 4.65996V9.56996C160.474 10.17 160.814 10.48 161.494 10.48H166.784C167.284 10.46 167.614 10.24 167.754 9.82996C167.844 9.56996 167.924 9.13996 167.984 8.53996L167.084 8.24996C167.024 8.83996 166.974 9.19996 166.914 9.32996C166.834 9.48996 166.694 9.56996 166.484 9.58996H161.884C161.574 9.58996 161.424 9.45996 161.424 9.19996V7.56996H164.984V4.35996ZM161.424 6.70996V5.21996H164.024V6.70996H161.424ZM176.314 10.53C176.964 10.53 177.294 10.25 177.294 9.68996V5.81996H176.644C177.024 5.42996 177.334 5.01996 177.574 4.58996L176.824 4.22996C176.594 4.64996 176.284 5.05996 175.884 5.47996L176.554 5.81996H174.854V4.35996H173.934V5.81996H172.314L172.884 5.53996C172.624 5.06996 172.334 4.63996 172.014 4.24996L171.264 4.58996C171.574 4.93996 171.864 5.34996 172.134 5.81996H171.414V10.55H172.334V9.16996H176.384V9.49996C176.384 9.66996 176.274 9.75996 176.054 9.75996L174.834 9.72996L175.044 10.53H176.314ZM172.334 8.41996V7.90996H176.384V8.41996H172.334ZM172.334 7.15996V6.63996H176.384V7.15996H172.334ZM176.724 2.54996V3.28996H170.824V2.54996H176.724ZM170.824 4.11996H177.644V1.69996H169.904V5.11996C169.894 7.05996 169.594 8.64996 169.014 9.88996L169.824 10.61C170.484 9.07996 170.814 7.24996 170.824 5.11996V4.11996Z" fill="#666666"/>
<path d="M86.1297 2.43996V9.57996H87.2197V4.20996H87.2597L90.9497 9.57996H92.0097V2.43996H90.9197V7.74996H90.8797L87.2297 2.43996H86.1297ZM95.6448 4.26996C95.0048 4.26996 94.4848 4.37996 94.1048 4.61996C93.6648 4.87996 93.3848 5.29996 93.2748 5.85996L94.3248 5.94996C94.3848 5.65996 94.5348 5.44996 94.7748 5.30996C94.9748 5.18996 95.2448 5.12996 95.5748 5.12996C96.3548 5.12996 96.7448 5.48996 96.7448 6.20996V6.41996L95.5848 6.44996C94.8248 6.46996 94.2248 6.61996 93.8048 6.91996C93.3448 7.22996 93.1148 7.67996 93.1148 8.25996C93.1148 8.68996 93.2748 9.03996 93.6048 9.30996C93.9048 9.57996 94.3248 9.71996 94.8648 9.71996C95.3248 9.71996 95.7248 9.62996 96.0648 9.46996C96.3648 9.31996 96.6148 9.10996 96.8148 8.84996V9.57996H97.7948V6.27996C97.7948 5.64996 97.6348 5.16996 97.3248 4.83996C96.9648 4.45996 96.4048 4.26996 95.6448 4.26996ZM96.7448 7.18996V7.48996C96.7448 7.88996 96.5748 8.22996 96.2548 8.49996C95.9348 8.76996 95.5548 8.90996 95.1048 8.90996C94.8348 8.90996 94.6148 8.83996 94.4548 8.70996C94.2848 8.57996 94.2048 8.41996 94.2048 8.21996C94.2048 7.57996 94.6848 7.23996 95.6548 7.21996L96.7448 7.18996ZM98.4582 4.40996L100.378 9.57996H101.438L103.358 4.40996H102.208L100.908 8.25996L99.6082 4.40996H98.4582ZM104.758 2.33996C104.548 2.33996 104.378 2.39996 104.238 2.53996C104.098 2.66996 104.028 2.83996 104.028 3.04996C104.028 3.24996 104.098 3.42996 104.238 3.56996C104.378 3.69996 104.548 3.76996 104.758 3.76996C104.958 3.76996 105.138 3.69996 105.278 3.56996C105.418 3.42996 105.498 3.25996 105.498 3.04996C105.498 2.83996 105.428 2.66996 105.288 2.53996C105.148 2.39996 104.968 2.33996 104.758 2.33996ZM104.228 4.40996V9.57996H105.288V4.40996H104.228ZM108.873 4.26996C108.173 4.26996 107.603 4.50996 107.173 4.99996C106.733 5.47996 106.523 6.09996 106.523 6.87996C106.523 7.65996 106.733 8.27996 107.173 8.74996C107.603 9.21996 108.173 9.45996 108.873 9.45996C109.553 9.45996 110.073 9.16996 110.453 8.59996V9.39996C110.453 10.37 110.003 10.86 109.103 10.86C108.683 10.86 108.373 10.79 108.183 10.67C107.983 10.54 107.863 10.32 107.803 10.02H106.743C106.843 10.59 107.073 11.01 107.453 11.29C107.833 11.56 108.383 11.7 109.103 11.7C110.703 11.7 111.513 10.88 111.513 9.23996V4.40996H110.453V5.09996C110.073 4.53996 109.553 4.26996 108.873 4.26996ZM109.033 5.12996C109.483 5.12996 109.833 5.27996 110.093 5.59996C110.333 5.90996 110.463 6.33996 110.463 6.87996C110.463 7.40996 110.333 7.82996 110.093 8.13996C109.833 8.43996 109.483 8.58996 109.033 8.58996C108.513 8.58996 108.143 8.40996 107.913 8.06996C107.713 7.77996 107.613 7.37996 107.613 6.87996C107.613 6.32996 107.733 5.89996 107.993 5.59996C108.233 5.27996 108.583 5.12996 109.033 5.12996ZM115.039 4.26996C114.399 4.26996 113.879 4.37996 113.499 4.61996C113.059 4.87996 112.779 5.29996 112.669 5.85996L113.719 5.94996C113.779 5.65996 113.929 5.44996 114.169 5.30996C114.369 5.18996 114.639 5.12996 114.969 5.12996C115.749 5.12996 116.139 5.48996 116.139 6.20996V6.41996L114.979 6.44996C114.219 6.46996 113.619 6.61996 113.199 6.91996C112.739 7.22996 112.509 7.67996 112.509 8.25996C112.509 8.68996 112.669 9.03996 112.999 9.30996C113.299 9.57996 113.719 9.71996 114.259 9.71996C114.719 9.71996 115.119 9.62996 115.459 9.46996C115.759 9.31996 116.009 9.10996 116.209 8.84996V9.57996H117.189V6.27996C117.189 5.64996 117.029 5.16996 116.719 4.83996C116.359 4.45996 115.799 4.26996 115.039 4.26996ZM116.139 7.18996V7.48996C116.139 7.88996 115.969 8.22996 115.649 8.49996C115.329 8.76996 114.949 8.90996 114.499 8.90996C114.229 8.90996 114.009 8.83996 113.849 8.70996C113.679 8.57996 113.599 8.41996 113.599 8.21996C113.599 7.57996 114.079 7.23996 115.049 7.21996L116.139 7.18996ZM119.973 2.73996L118.913 3.17996V4.40996H117.953V5.28996H118.913V8.28996C118.913 8.69996 119.003 9.00996 119.203 9.22996C119.403 9.45996 119.733 9.57996 120.173 9.57996H121.023V8.69996H120.343C120.213 8.69996 120.123 8.65996 120.063 8.59996C120.003 8.52996 119.973 8.42996 119.973 8.28996V5.28996H121.153V4.40996H119.973V2.73996ZM122.756 2.33996C122.546 2.33996 122.376 2.39996 122.236 2.53996C122.096 2.66996 122.026 2.83996 122.026 3.04996C122.026 3.24996 122.096 3.42996 122.236 3.56996C122.376 3.69996 122.546 3.76996 122.756 3.76996C122.956 3.76996 123.136 3.69996 123.276 3.56996C123.416 3.42996 123.496 3.25996 123.496 3.04996C123.496 2.83996 123.426 2.66996 123.286 2.53996C123.146 2.39996 122.966 2.33996 122.756 2.33996ZM122.226 4.40996V9.57996H123.286V4.40996H122.226ZM127.101 4.26996C126.321 4.26996 125.691 4.52996 125.221 5.04996C124.751 5.55996 124.521 6.20996 124.521 6.99996C124.521 7.77996 124.751 8.42996 125.211 8.92996C125.691 9.44996 126.321 9.71996 127.101 9.71996C127.881 9.71996 128.511 9.44996 128.991 8.92996C129.451 8.42996 129.681 7.77996 129.681 6.99996C129.681 6.20996 129.441 5.55996 128.981 5.04996C128.511 4.52996 127.881 4.26996 127.101 4.26996ZM127.101 5.13996C127.591 5.13996 127.971 5.32996 128.251 5.71996C128.491 6.04996 128.611 6.47996 128.611 6.99996C128.611 7.50996 128.491 7.92996 128.251 8.26996C127.971 8.64996 127.591 8.84996 127.101 8.84996C126.611 8.84996 126.231 8.64996 125.961 8.26996C125.721 7.93996 125.611 7.51996 125.611 6.99996C125.611 6.47996 125.721 6.04996 125.961 5.71996C126.231 5.32996 126.611 5.13996 127.101 5.13996ZM133.308 4.26996C132.988 4.26996 132.698 4.32996 132.438 4.46996C132.178 4.59996 131.948 4.78996 131.748 5.04996V4.40996H130.688V9.57996H131.748V6.46996C131.788 6.04996 131.938 5.71996 132.178 5.47996C132.398 5.25996 132.668 5.15996 132.968 5.15996C133.768 5.15996 134.178 5.59996 134.178 6.47996V9.57996H135.238V6.38996C135.238 4.96996 134.588 4.26996 133.308 4.26996Z" fill="#CCCCCC"/>
</svg>
