<svg width="200" height="14" viewBox="0 0 200 14" fill="none" xmlns="http://www.w3.org/2000/svg">
<path d="M8.59333 6.12785L5.0978 3.17473C4.76632 2.88845 4.26911 2.88845 3.93764 3.17473L0.396903 6.12785C0.321568 6.18812 0.276367 6.26345 0.276367 6.36892C0.276367 6.53466 0.41197 6.67026 0.577706 6.67026C0.653041 6.67026 0.728376 6.64013 0.773577 6.59493L0.879046 6.50453V9.86446C0.879046 10.5425 1.39132 11.0999 2.0392 11.0999H6.95103C7.58385 11.0999 8.11119 10.5425 8.11119 9.86446V6.50453L8.20159 6.57986C8.26186 6.62506 8.32213 6.65519 8.41253 6.65519C8.57826 6.65519 8.71387 6.51959 8.71387 6.35386C8.71387 6.27852 8.66867 6.18812 8.59333 6.12785ZM3.89244 10.4973V8.3879C3.89244 8.22216 4.02804 8.08656 4.19378 8.08656H4.79646C4.96219 8.08656 5.0978 8.22216 5.0978 8.3879V10.4973H3.89244ZM6.93597 10.4973H5.70047V8.3879C5.70047 7.89069 5.29367 7.48388 4.79646 7.48388H4.19378C3.69657 7.48388 3.28976 7.89069 3.28976 8.3879V10.4973H2.05427C1.73786 10.4973 1.48172 10.211 1.48172 9.86446V6.00732L4.31431 3.6418C4.41978 3.5514 4.58552 3.5514 4.70605 3.6418L7.50851 5.99225V9.86446C7.50851 10.211 7.25237 10.4973 6.93597 10.4973Z" fill="#337EFF"/>
<path d="M17.52 5.35V7.43H14.37V8.32H17.52V10.76H13.54V11.69H22.47V10.76H18.48V8.32H21.64V7.43H18.48V5.35H22.12V4.42H18.42L18.45 4.41C18.31 3.91 18.12 3.36 17.87 2.76L16.95 3.01C17.17 3.46 17.36 3.93 17.52 4.42H13.89V5.35H17.52ZM31.2 4.92H28.3C28.38 4.64 28.44 4.34 28.5 4.04H32.43V3.14H23.57V4.04H27.47C27.43 4.34 27.37 4.63 27.31 4.92H24.76V9.78H25.72V5.85H30.24V9.77H31.2V4.92ZM28.73 9.66L28.21 10.45C29.38 10.84 30.52 11.38 31.64 12.06L32.23 11.16C31.18 10.57 30.01 10.07 28.73 9.66ZM27.52 6.33V7.92C27.47 8.76 27.19 9.44 26.67 9.96C26.15 10.45 25.16 10.85 23.7 11.17L24.24 12.02C25.7 11.68 26.76 11.21 27.4 10.59C28.06 9.92 28.42 9.03 28.48 7.92V6.33H27.52ZM33.52 3.14V4.05H37.57C37.5 4.41 37.4 4.76 37.27 5.1H34.02V12.06H34.94V11.64H41.09V12.06H42.01V5.1H38.23C38.36 4.76 38.46 4.41 38.54 4.05H42.48V3.14H33.52ZM34.94 10.76V5.97H36.08V10.76H34.94ZM36.97 10.76V9.68H39.03V10.76H36.97ZM39.92 10.76V5.97H41.09V10.76H39.92ZM36.97 8.87V7.83H39.03V8.87H36.97ZM36.97 7.01V5.97H39.03V7.01H36.97Z" fill="#337EFF"/>
<rect opacity="0.01" x="47" y="10.5" width="7" height="7" transform="rotate(-90 47 10.5)" fill="#E1E3E6"/>
<path d="M49.1416 9.49145L51.6416 6.99145L49.1416 4.49145L49.5583 4.07478L52.4749 6.99145L49.5583 9.90812L49.1416 9.49145Z" fill="#666666"/>
<path d="M65.8694 9.48913C65.6859 9.04708 65.4197 8.64554 65.0856 8.30689C64.7525 7.96727 64.3579 7.69649 63.9236 7.5095C63.9197 7.50752 63.9158 7.50653 63.9119 7.50455C64.5177 7.05936 64.9116 6.33419 64.9116 5.51602C64.9116 4.16065 63.8322 3.0625 62.5 3.0625C61.1678 3.0625 60.0884 4.16065 60.0884 5.51602C60.0884 6.33419 60.4823 7.05936 61.0881 7.50554C61.0842 7.50752 61.0803 7.50851 61.0764 7.51049C60.6408 7.69747 60.2499 7.96558 59.9144 8.30788C59.5806 8.64679 59.3144 9.04826 59.1306 9.49012C58.9501 9.92271 58.8527 10.3865 58.8438 10.8564C58.8435 10.8669 58.8453 10.8774 58.8491 10.8873C58.8529 10.8971 58.8586 10.9061 58.8659 10.9136C58.8731 10.9212 58.8818 10.9272 58.8913 10.9313C58.9009 10.9354 58.9112 10.9375 58.9216 10.9375H59.505C59.5478 10.9375 59.5818 10.9029 59.5828 10.8603C59.6022 10.0966 59.9037 9.3813 60.4366 8.83915C60.9879 8.2782 61.7201 7.96954 62.5 7.96954C63.2799 7.96954 64.0121 8.2782 64.5634 8.83915C65.0963 9.3813 65.3978 10.0966 65.4172 10.8603C65.4182 10.9039 65.4522 10.9375 65.495 10.9375H66.0784C66.0888 10.9375 66.0991 10.9354 66.1087 10.9313C66.1182 10.9272 66.1269 10.9212 66.1341 10.9136C66.1414 10.9061 66.1471 10.8971 66.1509 10.8873C66.1547 10.8774 66.1565 10.8669 66.1562 10.8564C66.1465 10.3835 66.0502 9.92345 65.8694 9.48913ZM62.5 7.21765C62.0537 7.21765 61.6336 7.04056 61.3176 6.71903C61.0015 6.3975 60.8275 5.97012 60.8275 5.51602C60.8275 5.06192 61.0015 4.63453 61.3176 4.313C61.6336 3.99147 62.0537 3.81438 62.5 3.81438C62.9463 3.81438 63.3664 3.99147 63.6824 4.313C63.9985 4.63453 64.1725 5.06192 64.1725 5.51602C64.1725 5.97012 63.9985 6.3975 63.6824 6.71903C63.3664 7.04056 62.9463 7.21765 62.5 7.21765Z" fill="#337EFF"/>
<path d="M71.47 6.86V7.8H80.52V6.86H71.47ZM84.48 9.78C83.59 10.12 82.55 10.4 81.37 10.6L81.49 11.52C82.61 11.31 83.6 11.03 84.48 10.68V9.78ZM83.14 2.77C82.76 3.83 82.31 4.8 81.8 5.68C81.68 5.85 81.55 5.96 81.4 6.02L81.64 6.89C82.16 6.83 82.67 6.76 83.17 6.69C82.68 7.45 82.27 7.98 81.95 8.29C81.83 8.41 81.69 8.5 81.52 8.56L81.77 9.42C82.75 9.3 83.78 9.08 84.86 8.76V7.9C84.2 8.1 83.56 8.27 82.93 8.39C83.51 7.7 84.24 6.6 85.11 5.1L84.28 4.79C84.08 5.16 83.88 5.51 83.69 5.83C83.31 5.89 82.92 5.93 82.53 5.97C83.05 5.24 83.55 4.29 84.05 3.13L83.14 2.77ZM85.88 4.03V4.46C85.86 7.64 85.22 9.94 83.97 11.38L84.68 12C85.62 10.92 86.25 9.4 86.57 7.46C86.85 8.3 87.24 9.07 87.73 9.77C87.19 10.33 86.52 10.8 85.72 11.18L86.25 12.05C87.07 11.67 87.78 11.17 88.37 10.56C88.85 11.1 89.42 11.59 90.08 12.03L90.69 11.23C90.03 10.83 89.45 10.37 88.95 9.86C89.61 8.94 90.05 7.79 90.27 6.43V5.9H89.03C89.18 5.29 89.33 4.57 89.49 3.73V3.14H84.97V4.03H85.88ZM88.29 9.11C87.53 8.12 87.02 6.97 86.76 5.66C86.78 5.28 86.8 4.88 86.8 4.46V4.03H88.52C88.3 5.21 88.11 6.11 87.94 6.73H89.32C89.13 7.62 88.79 8.41 88.29 9.11ZM91.6 6.99V7.92H95.73V10.68C95.73 10.94 95.59 11.07 95.32 11.07C94.74 11.07 94.19 11.06 93.69 11.04L93.95 11.96H95.7C96.35 11.96 96.68 11.63 96.68 10.98V7.92H100.4V6.99H96.68V6.19C97.66 5.53 98.53 4.82 99.29 4.07V3.18H92.65V4.07H98.01C97.28 4.71 96.52 5.25 95.73 5.71V6.99H91.6ZM109.2 4.92H106.3C106.38 4.64 106.44 4.34 106.5 4.04H110.43V3.14H101.57V4.04H105.47C105.43 4.34 105.37 4.63 105.31 4.92H102.76V9.78H103.72V5.85H108.24V9.77H109.2V4.92ZM106.73 9.66L106.21 10.45C107.38 10.84 108.52 11.38 109.64 12.06L110.23 11.16C109.18 10.57 108.01 10.07 106.73 9.66ZM105.52 6.33V7.92C105.47 8.76 105.19 9.44 104.67 9.96C104.15 10.45 103.16 10.85 101.7 11.17L102.24 12.02C103.7 11.68 104.76 11.21 105.4 10.59C106.06 9.92 106.42 9.03 106.48 7.92V6.33H105.52ZM111.52 3.14V4.05H115.57C115.5 4.41 115.4 4.76 115.27 5.1H112.02V12.06H112.94V11.64H119.09V12.06H120.01V5.1H116.23C116.36 4.76 116.46 4.41 116.54 4.05H120.48V3.14H111.52ZM112.94 10.76V5.97H114.08V10.76H112.94ZM114.97 10.76V9.68H117.03V10.76H114.97ZM117.92 10.76V5.97H119.09V10.76H117.92ZM114.97 8.87V7.83H117.03V8.87H114.97ZM114.97 7.01V5.97H117.03V7.01H114.97Z" fill="#337EFF"/>
<rect opacity="0.01" x="125" y="11" width="8" height="8" transform="rotate(-90 125 11)" fill="#E1E3E6"/>
<path d="M127.447 9.84738L130.304 6.99024L127.447 4.1331L127.923 3.65691L131.257 6.99024L127.923 10.3236L127.447 9.84738Z" fill="#666666"/>
<path d="M139.884 6.42857H143.115V5.85714H139.884V6.42857Z" fill="#666666"/>
<path d="M143.115 7.80008H139.884V7.22866H143.115V7.80008Z" fill="#666666"/>
<path d="M139.884 9.1716H143.115V8.60017H139.884V9.1716Z" fill="#666666"/>
<path d="M139.884 3C139.587 3 139.346 3.25584 139.346 3.57143L138.538 3.57143C138.241 3.57143 138 3.82727 138 4.14286V10.4286C138 10.7442 138.241 11 138.538 11H144.462C144.759 11 145 10.7442 145 10.4286V4.14286C145 3.82727 144.759 3.57143 144.462 3.57143H143.654C143.654 3.25584 143.413 3 143.115 3H139.884ZM143.115 3.57143V4.14286H139.884V3.57143H143.115ZM138.538 4.14286H139.346C139.346 4.45845 139.587 4.71429 139.884 4.71429H143.115C143.413 4.71429 143.654 4.45845 143.654 4.14286H144.462V10.4286H138.538L138.538 4.14286Z" fill="#666666"/>
<path d="M151.42 3.83V4.76H158.58V3.83H151.42ZM150.5 10.12V11.07H159.49V10.12H150.5ZM163.48 9.78C162.59 10.12 161.55 10.4 160.37 10.6L160.49 11.52C161.61 11.31 162.6 11.03 163.48 10.68V9.78ZM162.14 2.77C161.76 3.83 161.31 4.8 160.8 5.68C160.68 5.85 160.55 5.96 160.4 6.02L160.64 6.89C161.16 6.83 161.67 6.76 162.17 6.69C161.68 7.45 161.27 7.98 160.95 8.29C160.83 8.41 160.69 8.5 160.52 8.56L160.77 9.42C161.75 9.3 162.78 9.08 163.86 8.76V7.9C163.2 8.1 162.56 8.27 161.93 8.39C162.51 7.7 163.24 6.6 164.11 5.1L163.28 4.79C163.08 5.16 162.88 5.51 162.69 5.83C162.31 5.89 161.92 5.93 161.53 5.97C162.05 5.24 162.55 4.29 163.05 3.13L162.14 2.77ZM164.88 4.03V4.46C164.86 7.64 164.22 9.94 162.97 11.38L163.68 12C164.62 10.92 165.25 9.4 165.57 7.46C165.85 8.3 166.24 9.07 166.73 9.77C166.19 10.33 165.52 10.8 164.72 11.18L165.25 12.05C166.07 11.67 166.78 11.17 167.37 10.56C167.85 11.1 168.42 11.59 169.08 12.03L169.69 11.23C169.03 10.83 168.45 10.37 167.95 9.86C168.61 8.94 169.05 7.79 169.27 6.43V5.9H168.03C168.18 5.29 168.33 4.57 168.49 3.73V3.14H163.97V4.03H164.88ZM167.29 9.11C166.53 8.12 166.02 6.97 165.76 5.66C165.78 5.28 165.8 4.88 165.8 4.46V4.03H167.52C167.3 5.21 167.11 6.11 166.94 6.73H168.32C168.13 7.62 167.79 8.41 167.29 9.11ZM170.6 6.99V7.92H174.73V10.68C174.73 10.94 174.59 11.07 174.32 11.07C173.74 11.07 173.19 11.06 172.69 11.04L172.95 11.96H174.7C175.35 11.96 175.68 11.63 175.68 10.98V7.92H179.4V6.99H175.68V6.19C176.66 5.53 177.53 4.82 178.29 4.07V3.18H171.65V4.07H177.01C176.28 4.71 175.52 5.25 174.73 5.71V6.99H170.6ZM188.2 4.92H185.3C185.38 4.64 185.44 4.34 185.5 4.04H189.43V3.14H180.57V4.04H184.47C184.43 4.34 184.37 4.63 184.31 4.92H181.76V9.78H182.72V5.85H187.24V9.77H188.2V4.92ZM185.73 9.66L185.21 10.45C186.38 10.84 187.52 11.38 188.64 12.06L189.23 11.16C188.18 10.57 187.01 10.07 185.73 9.66ZM184.52 6.33V7.92C184.47 8.76 184.19 9.44 183.67 9.96C183.15 10.45 182.16 10.85 180.7 11.17L181.24 12.02C182.7 11.68 183.76 11.21 184.4 10.59C185.06 9.92 185.42 9.03 185.48 7.92V6.33H184.52ZM190.52 3.14V4.05H194.57C194.5 4.41 194.4 4.76 194.27 5.1H191.02V12.06H191.94V11.64H198.09V12.06H199.01V5.1H195.23C195.36 4.76 195.46 4.41 195.54 4.05H199.48V3.14H190.52ZM191.94 10.76V5.97H193.08V10.76H191.94ZM193.97 10.76V9.68H196.03V10.76H193.97ZM196.92 10.76V5.97H198.09V10.76H196.92ZM193.97 8.87V7.83H196.03V8.87H193.97ZM193.97 7.01V5.97H196.03V7.01H193.97Z" fill="#666666"/>
</svg>
