<svg width="72" height="17" viewBox="0 0 72 17" fill="none" xmlns="http://www.w3.org/2000/svg">
<path d="M1.098 5.028V6.288H7.884C6.948 10.716 4.572 13.884 0.738 15.774L1.548 16.854C5.382 14.856 7.866 11.67 8.982 7.296C10.332 11.364 12.816 14.496 16.434 16.728L17.244 15.684C13.554 13.488 11.07 10.356 9.81 6.288H16.902V5.028H9.432C9.576 3.912 9.666 2.742 9.666 1.482V0.311999H8.334V1.77C8.316 2.904 8.244 3.984 8.1 5.028H1.098ZM21.726 0.942V5.802H32.274V0.942H21.726ZM30.942 4.632H23.058V2.112H30.942V4.632ZM23.022 8.592L22.176 11.868H31.212C31.104 13.488 30.942 14.496 30.726 14.892C30.492 15.288 29.898 15.486 28.926 15.486C28.188 15.486 27.342 15.45 26.388 15.378L26.82 16.566C27.522 16.638 28.314 16.674 29.214 16.674C30.438 16.674 31.266 16.404 31.698 15.864C32.13 15.306 32.418 13.578 32.526 10.698H23.724L24.336 8.592H35.082V7.35H18.9V8.592H23.022ZM37.152 3.336V4.632H39.924C40.734 7.404 42.174 9.816 44.262 11.868C42.318 13.632 39.834 14.91 36.81 15.72L37.494 16.854C40.554 15.972 43.11 14.586 45.162 12.696C47.106 14.37 49.554 15.756 52.542 16.872L53.244 15.792C50.364 14.73 47.97 13.398 46.062 11.778C47.826 9.87 49.158 7.476 50.04 4.632H52.848V3.336H45.972C45.396 2.094 44.784 1.032 44.1 0.167999L42.804 0.635999C43.524 1.482 44.118 2.382 44.604 3.336H37.152ZM41.202 4.632H48.69C47.934 7.116 46.764 9.222 45.162 10.968C43.29 9.168 41.976 7.062 41.202 4.632ZM55.296 3.606V4.848H61.182C59.85 8.034 57.69 10.644 54.666 12.66L55.404 13.866C58.608 11.508 60.876 8.502 62.208 4.848H62.334V11.868H58.626V13.11H62.334V16.8H63.666V13.11H67.518V11.868H63.666V4.848H63.81C65.034 8.106 67.23 11.04 70.398 13.632L71.28 12.516C68.184 10.266 66.024 7.71 64.818 4.848H70.686V3.606H63.666V0.348H62.334V3.606H55.296Z" fill="#333333"/>
</svg>
