<svg width="56" height="14" viewBox="0 0 56 14" fill="none" xmlns="http://www.w3.org/2000/svg">
<path d="M1.022 1.15V1.892H2.716V2.396L2.016 2.284C1.778 3.18 1.33 3.894 0.672 4.426L1.218 5.098C1.722 4.678 2.128 4.16 2.436 3.544H6.23C6.216 4.468 6.174 5.07 6.104 5.322C6.02 5.574 5.824 5.7 5.516 5.728H5.166V4.09H2.184V6.008H5.012L5.124 6.386H5.698C5.922 6.372 6.118 6.33 6.3 6.274C6.412 6.442 6.538 6.652 6.65 6.89H0.966V7.632H13.048V6.89H7.602C7.462 6.554 7.336 6.26 7.196 5.994L6.65 6.078C6.72 6.022 6.79 5.938 6.846 5.84C7.042 5.476 7.154 4.482 7.154 2.858H2.716C2.758 2.746 2.8 2.634 2.828 2.522H3.556V1.892H5.082V2.522H5.922V1.892H7.602V1.15H5.922V0.519999H5.082V1.15H3.556V0.519999H2.716V1.15H1.022ZM4.396 5.448H2.94V4.636H4.396V5.448ZM8.596 3.334C8.82 3.81 9.142 4.258 9.59 4.678C9.016 5.07 8.302 5.35 7.434 5.546L7.812 6.358C8.778 6.134 9.604 5.756 10.29 5.252C10.934 5.7 11.76 6.092 12.74 6.414L13.202 5.602C12.334 5.336 11.578 5.014 10.948 4.636C11.508 4.006 11.9 3.208 12.11 2.228H12.894V1.388H9.562C9.646 1.136 9.716 0.884 9.786 0.604L8.862 0.436C8.568 1.752 8.008 2.802 7.182 3.586L7.742 4.286C8.05 4.006 8.344 3.684 8.596 3.334ZM9.226 2.228H11.228C11.06 2.956 10.724 3.6 10.234 4.132C9.674 3.656 9.296 3.11 9.1 2.494C9.128 2.41 9.17 2.326 9.226 2.228ZM2.674 8.29V8.906H11.452V8.29H2.674ZM2.674 9.55V10.166H11.452V9.55H2.674ZM11.9 10.852H2.254V13.512H3.234V13.092H10.92V13.512H11.9V10.852ZM3.234 12.406V11.524H10.92V12.406H3.234ZM25.606 8.234H16.478V13.386H17.5V12.644H24.584V13.386H25.606V8.234ZM17.5 11.692V9.2H24.584V11.692H17.5ZM17.318 3.502H20.664V5.77H14.672V6.764H27.328V5.77H21.686V3.502H26.264V2.536H21.686V0.548H20.664V2.536H17.92C18.2 2.018 18.424 1.472 18.606 0.884L17.598 0.771999C17.15 2.242 16.282 3.488 15.022 4.496L15.624 5.294C16.282 4.748 16.842 4.146 17.318 3.502ZM28.896 2.928V3.936H31.052C31.682 6.092 32.802 7.968 34.426 9.564C32.914 10.936 30.982 11.93 28.63 12.56L29.162 13.442C31.542 12.756 33.53 11.678 35.126 10.208C36.638 11.51 38.542 12.588 40.866 13.456L41.412 12.616C39.172 11.79 37.31 10.754 35.826 9.494C37.198 8.01 38.234 6.148 38.92 3.936H41.104V2.928H35.756C35.308 1.962 34.832 1.136 34.3 0.463999L33.292 0.827999C33.852 1.486 34.314 2.186 34.692 2.928H28.896ZM32.046 3.936H37.87C37.282 5.868 36.372 7.506 35.126 8.864C33.67 7.464 32.648 5.826 32.046 3.936ZM43.008 3.138V4.104H47.586C46.55 6.582 44.87 8.612 42.518 10.18L43.092 11.118C45.584 9.284 47.348 6.946 48.384 4.104H48.482V9.564H45.598V10.53H48.482V13.4H49.518V10.53H52.514V9.564H49.518V4.104H49.63C50.582 6.638 52.29 8.92 54.754 10.936L55.44 10.068C53.032 8.318 51.352 6.33 50.414 4.104H54.978V3.138H49.518V0.604H48.482V3.138H43.008Z" fill="#FFB21A"/>
</svg>
