<svg width="95" height="14" viewBox="0 0 95 14" fill="none" xmlns="http://www.w3.org/2000/svg">
<path d="M0.896 2.928V3.936H3.052C3.682 6.092 4.802 7.968 6.426 9.564C4.914 10.936 2.982 11.93 0.63 12.56L1.162 13.442C3.542 12.756 5.53 11.678 7.126 10.208C8.638 11.51 10.542 12.588 12.866 13.456L13.412 12.616C11.172 11.79 9.31 10.754 7.826 9.494C9.198 8.01 10.234 6.148 10.92 3.936H13.104V2.928H7.756C7.308 1.962 6.832 1.136 6.3 0.463999L5.292 0.827999C5.852 1.486 6.314 2.186 6.692 2.928H0.896ZM4.046 3.936H9.87C9.282 5.868 8.372 7.506 7.126 8.864C5.67 7.464 4.648 5.826 4.046 3.936ZM15.008 3.138V4.104H19.586C18.55 6.582 16.87 8.612 14.518 10.18L15.092 11.118C17.584 9.284 19.348 6.946 20.384 4.104H20.482V9.564H17.598V10.53H20.482V13.4H21.518V10.53H24.514V9.564H21.518V4.104H21.63C22.582 6.638 24.29 8.92 26.754 10.936L27.44 10.068C25.032 8.318 23.352 6.33 22.414 4.104H26.978V3.138H21.518V0.604H20.482V3.138H15.008ZM29.722 0.758L29.022 1.416C30.03 2.228 30.814 2.998 31.388 3.712L32.116 2.97C31.472 2.242 30.674 1.5 29.722 0.758ZM38.234 13.148H41.188L41.44 12.126C41.104 12.154 40.614 12.168 39.984 12.182C39.34 12.182 38.724 12.196 38.108 12.196C36.96 12.196 35.994 12.182 35.224 12.168C34.356 12.14 33.684 12.042 33.236 11.86C32.83 11.664 32.452 11.37 32.088 10.978C31.962 10.838 31.836 10.74 31.724 10.656V5.406H28.742V6.358H30.758V10.6C30.17 10.852 29.512 11.58 28.756 12.784L29.512 13.456C30.296 12.14 30.87 11.496 31.206 11.496C31.388 11.496 31.584 11.608 31.78 11.846C32.228 12.35 32.746 12.7 33.334 12.868C33.908 13.022 34.678 13.106 35.63 13.12C36.568 13.134 37.436 13.148 38.234 13.148ZM37.814 11.272C38.654 11.272 39.088 10.852 39.088 10.04V3.852H41.16V2.858H39.088V0.589999H38.066V2.858H32.774V3.852H38.066V9.802C38.066 10.18 37.856 10.376 37.464 10.376C36.876 10.376 36.246 10.348 35.602 10.306L35.826 11.272H37.814ZM34.3 5.098L33.516 5.602C34.37 6.624 35.042 7.548 35.546 8.388L36.358 7.828C35.882 7.044 35.196 6.134 34.3 5.098ZM42.854 5.994V6.974H45.696V11.874C45.696 12.098 45.584 12.252 45.374 12.364L45.696 13.288C47.264 12.924 48.734 12.518 50.106 12.042L49.84 11.076C48.804 11.468 47.754 11.79 46.704 12.042V6.974H49.616C50.232 9.606 51.94 11.664 54.768 13.162L55.356 12.224C52.766 10.964 51.17 9.214 50.582 6.974H55.188V5.994H46.704V0.631999H45.696V5.994H42.854ZM53.06 0.744C51.968 1.962 50.316 3.054 48.09 4.034L48.692 4.832C50.932 3.824 52.626 2.69 53.746 1.43L53.06 0.744ZM62.328 0.533999V4.118H63.322V0.533999H62.328ZM59.136 6.694V13.386H60.116V12.728H66.682V13.358H67.662V5.896H62.09C64.148 5.224 65.884 4.398 67.284 3.404C67.788 3.838 68.25 4.272 68.642 4.706L69.342 3.992C68.334 2.984 67.102 1.962 65.632 0.94L64.96 1.584C65.534 1.99 66.066 2.396 66.57 2.802C64.302 4.356 61.012 5.49 56.686 6.19L57.106 7.1C57.806 6.974 58.478 6.834 59.136 6.694ZM60.116 11.832V10.628H66.682V11.832H60.116ZM60.116 9.816V8.696H66.682V9.816H60.116ZM60.116 7.884V6.75H66.682V7.884H60.116ZM60.102 1.332C59.304 2.312 58.31 3.18 57.12 3.936L57.708 4.692C58.94 3.908 59.976 2.998 60.816 1.962L60.102 1.332ZM82.376 8.136H76.916V13.33H77.896V12.714H81.396V13.33H82.376V8.136ZM77.896 11.762V9.074H81.396V11.762H77.896ZM72.002 11.566H74.872V12.21H75.74V7.506L76.244 8.178C77.588 7.618 78.75 6.96 79.73 6.19C80.654 6.918 81.76 7.562 83.062 8.136L83.496 7.24C82.292 6.778 81.27 6.232 80.402 5.602C81.298 4.734 81.998 3.74 82.474 2.62V1.85H78.68C78.834 1.514 78.988 1.164 79.156 0.785999L78.162 0.575999C77.532 2.088 76.734 3.306 75.754 4.244L76.412 5.014C76.804 4.636 77.168 4.216 77.504 3.754C77.896 4.384 78.4 4.986 78.988 5.546C78.106 6.232 77.028 6.834 75.74 7.338V1.556H71.092V12.21H72.002V11.566ZM74.872 10.67H73.836V6.96H74.872V10.67ZM74.872 6.078H73.836V2.48H74.872V6.078ZM73.024 2.48V6.078H72.002V2.48H73.024ZM72.002 6.96H73.024V10.67H72.002V6.96ZM79.646 4.986C78.974 4.398 78.442 3.74 78.022 3.012C78.05 2.942 78.092 2.872 78.148 2.802H81.326C80.906 3.586 80.346 4.314 79.646 4.986ZM85.848 10.334C85.596 10.334 85.4 10.418 85.246 10.586C85.078 10.754 84.994 10.95 84.994 11.202C84.994 11.44 85.078 11.636 85.246 11.804C85.4 11.972 85.596 12.056 85.848 12.056C86.072 12.056 86.282 11.972 86.45 11.804C86.618 11.636 86.702 11.44 86.702 11.202C86.702 10.95 86.618 10.754 86.45 10.586C86.282 10.418 86.072 10.334 85.848 10.334ZM89.5394 10.334C89.2874 10.334 89.0914 10.418 88.9374 10.586C88.7694 10.754 88.6854 10.95 88.6854 11.202C88.6854 11.44 88.7694 11.636 88.9374 11.804C89.0914 11.972 89.2874 12.056 89.5394 12.056C89.7634 12.056 89.9734 11.972 90.1414 11.804C90.3094 11.636 90.3934 11.44 90.3934 11.202C90.3934 10.95 90.3094 10.754 90.1414 10.586C89.9734 10.418 89.7634 10.334 89.5394 10.334ZM93.2308 10.334C92.9788 10.334 92.7828 10.418 92.6288 10.586C92.4608 10.754 92.3768 10.95 92.3768 11.202C92.3768 11.44 92.4608 11.636 92.6288 11.804C92.7828 11.972 92.9788 12.056 93.2308 12.056C93.4548 12.056 93.6648 11.972 93.8328 11.804C94.0008 11.636 94.0848 11.44 94.0848 11.202C94.0848 10.95 94.0008 10.754 93.8328 10.586C93.6648 10.418 93.4548 10.334 93.2308 10.334Z" fill="#333333"/>
</svg>
