<svg width="88" height="45" viewBox="0 0 88 45" fill="none" xmlns="http://www.w3.org/2000/svg">
<g filter="url(#filter0_d_2123_17720)">
<path fill-rule="evenodd" clip-rule="evenodd" d="M69.4142 4.58579C68.6332 3.80474 67.3668 3.80474 66.5858 4.58579L62.3934 8.77817C62.3656 8.80593 62.3656 8.85093 62.3934 8.87868C62.4382 8.92345 62.4065 9 62.3431 9H8C5.79086 9 4 10.7909 4 13V37C4 39.2091 5.79086 41 8 41H80C82.2091 41 84 39.2091 84 37V13C84 10.7909 82.2091 9 80 9H73.6569C73.5935 9 73.5618 8.92345 73.6066 8.87868C73.6344 8.85093 73.6344 8.80593 73.6066 8.77817L69.4142 4.58579Z" fill="#333333"/>
</g>
<path d="M20.62 18.6074V19.5454H23.63C23.518 20.1614 23.364 20.7494 23.14 21.3094H19.976V22.2754H22.692C22.636 22.3594 22.58 22.4434 22.524 22.5414C21.852 23.5494 20.858 24.4314 19.528 25.1594L20.158 25.9574C21.558 25.1034 22.622 24.1374 23.336 23.0594C23.476 22.8074 23.616 22.5554 23.756 22.2754H25.1C25.87 23.7314 27.186 24.9214 29.048 25.8314L29.482 24.9494C27.97 24.3054 26.85 23.4094 26.122 22.2754H29.062V21.3094H24.148C24.344 20.7634 24.498 20.1754 24.638 19.5454H28.446V18.6074H20.62ZM21.474 25.9994C20.97 27.3714 20.368 28.5474 19.682 29.5414L20.508 30.1294C21.194 29.0794 21.796 27.8334 22.314 26.4054L21.474 25.9994ZM17.638 18.2574L16.938 18.9294C17.876 19.5734 18.618 20.1894 19.15 20.7634L19.836 20.0774C19.248 19.4614 18.506 18.8594 17.638 18.2574ZM17.302 21.6034L16.616 22.2754C17.568 23.0034 18.31 23.7034 18.856 24.3474L19.542 23.6614C18.94 22.9754 18.198 22.2894 17.302 21.6034ZM18.576 25.4674C18.03 27.1474 17.386 28.7994 16.658 30.3954L17.596 30.8154C18.268 29.2474 18.898 27.5814 19.458 25.8174L18.576 25.4674ZM23.308 30.8994C24.008 30.8994 24.358 30.4934 24.358 29.6954V24.3334H23.392V29.4574C23.392 29.8214 23.238 30.0174 22.958 30.0174C22.594 30.0174 22.202 29.9894 21.796 29.9474L22.006 30.8994H23.308ZM27.634 25.6634L26.752 25.9574C27.368 27.1334 27.928 28.5054 28.446 30.0454L29.342 29.6534C28.866 28.2394 28.292 26.9094 27.634 25.6634ZM25.786 26.1674L24.932 26.4614C25.478 27.6374 25.968 28.9814 26.416 30.5214L27.312 30.1154C26.878 28.7154 26.374 27.3994 25.786 26.1674ZM42.754 20.1334H38.176V30.6754H39.142V29.7374H41.774V30.6754H42.754V20.1334ZM39.142 28.7714V21.0994H41.774V28.7714H39.142ZM33.024 18.0894V20.9174H30.784V21.8974H33.024C32.982 25.7334 32.142 28.5334 30.518 30.2834L31.26 30.9414C33.052 29.0374 33.976 26.0274 34.032 21.8974H35.894C35.866 25.6494 35.81 27.9034 35.726 28.6314C35.614 29.4294 35.194 29.8354 34.48 29.8354C34.144 29.8354 33.752 29.8074 33.304 29.7794L33.556 30.7034C34.06 30.7314 34.41 30.7594 34.62 30.7594C35.852 30.7594 36.538 30.1714 36.678 29.0234C36.818 27.9874 36.888 25.2854 36.888 20.9174H34.032V18.0894H33.024ZM55.326 21.1134H51.21C51.35 20.6374 51.448 20.1194 51.532 19.5874H57.16V18.6354H44.84V19.5874H50.468C50.398 20.1194 50.3 20.6234 50.16 21.1134H46.618V27.7634H47.626V22.0934H54.318V27.7354H55.326V21.1134ZM51.924 27.7634L51.364 28.5894C53.03 29.1494 54.654 29.9334 56.25 30.9274L56.866 29.9754C55.382 29.1074 53.73 28.3794 51.924 27.7634ZM50.482 22.9334V25.1594C50.44 26.3914 50.048 27.3854 49.292 28.1554C48.494 28.8974 47.08 29.4854 45.05 29.9334L45.624 30.8294C47.668 30.3534 49.138 29.6954 50.034 28.8414C50.958 27.9174 51.462 26.6994 51.518 25.1594V22.9334H50.482ZM58.77 18.6074V19.5874H64.594C64.482 20.2034 64.3 20.7914 64.076 21.3794H59.568V30.9274H60.534V30.2274H69.508V30.9274H70.474V21.3794H65.098C65.322 20.8054 65.504 20.2034 65.616 19.5874H71.23V18.6074H58.77ZM60.534 29.3034V22.2894H62.466V29.3034H60.534ZM63.404 29.3034V27.5114H66.596V29.3034H63.404ZM67.534 29.3034V22.2894H69.508V29.3034H67.534ZM63.404 26.6294V24.9214H66.596V26.6294H63.404ZM63.404 24.0254V22.2894H66.596V24.0254H63.404Z" fill="white"/>
<defs>
<filter id="filter0_d_2123_17720" x="0" y="0" width="88" height="45" filterUnits="userSpaceOnUse" color-interpolation-filters="sRGB">
<feFlood flood-opacity="0" result="BackgroundImageFix"/>
<feColorMatrix in="SourceAlpha" type="matrix" values="0 0 0 0 0 0 0 0 0 0 0 0 0 0 0 0 0 0 127 0" result="hardAlpha"/>
<feOffset/>
<feGaussianBlur stdDeviation="2"/>
<feColorMatrix type="matrix" values="0 0 0 0 0.0125 0 0 0 0 0.0125 0 0 0 0 0.0125 0 0 0 0.1 0"/>
<feBlend mode="normal" in2="BackgroundImageFix" result="effect1_dropShadow_2123_17720"/>
<feBlend mode="normal" in="SourceGraphic" in2="effect1_dropShadow_2123_17720" result="shape"/>
</filter>
</defs>
</svg>
