<svg width="1080" height="32" viewBox="0 0 1080 32" fill="none" xmlns="http://www.w3.org/2000/svg">
<rect x="0.5" y="0.5" width="1079" height="31" rx="1.5" fill="#337EFF" fill-opacity="0.1"/>
<path d="M23 9C26.866 9 30 12.134 30 16C30 19.866 26.866 23 23 23C19.134 23 16 19.866 16 16C16 12.134 19.134 9 23 9ZM22.2867 12.4883C22.2867 12.9169 22.6342 13.2644 23.0629 13.2644C23.4915 13.2644 23.839 12.9169 23.839 12.4883C23.839 12.0596 23.4915 11.7122 23.0629 11.7122C22.6342 11.7122 22.2867 12.0596 22.2867 12.4883ZM21.5115 19.6244C21.5115 19.8387 21.6852 20.0124 21.8995 20.0124H24.2279C24.4422 20.0124 24.616 19.8387 24.616 19.6244C24.616 19.4101 24.4422 19.2363 24.2279 19.2363H23.6545V14.659C23.6545 14.3988 23.4837 14.1784 23.2481 14.1039C23.2047 14.0872 23.1576 14.078 23.1084 14.078C23.0966 14.0773 23.0844 14.0769 23.0724 14.0769C23.0604 14.0769 23.0484 14.0773 23.0366 14.078H22.2081C21.9938 14.078 21.8201 14.2518 21.8201 14.4661C21.8201 14.6804 21.9938 14.8541 22.2081 14.8541H22.4903V19.2363H21.8995C21.6852 19.2363 21.5115 19.4101 21.5115 19.6244Z" fill="#337EFF"/>
<path d="M22.287 12.4883C22.287 12.9169 22.6345 13.2644 23.0631 13.2644C23.4918 13.2644 23.8392 12.9169 23.8392 12.4883C23.8392 12.0596 23.4918 11.7122 23.0631 11.7122C22.6345 11.7122 22.287 12.0596 22.287 12.4883ZM21.5117 19.6244C21.5117 19.8387 21.6855 20.0124 21.8998 20.0124H24.2282C24.4425 20.0124 24.6162 19.8387 24.6162 19.6244C24.6162 19.4101 24.4425 19.2363 24.2282 19.2363H23.6547V14.659C23.6547 14.3988 23.4839 14.1784 23.2483 14.1039C23.205 14.0872 23.1579 14.078 23.1086 14.078C23.0968 14.0773 23.0847 14.0769 23.0726 14.0769C23.0606 14.0769 23.0487 14.0773 23.0368 14.078H22.2084C21.9941 14.078 21.8203 14.2518 21.8203 14.4661C21.8203 14.6804 21.994 14.8541 22.2084 14.8541H22.4905V19.2363H21.8998C21.6855 19.2363 21.5117 19.4101 21.5117 19.6244Z" fill="white"/>
<path d="M39.092 11.004V21H40.226V11.004H39.092ZM45.5783 13.566C45.1023 13.566 44.6683 13.678 44.2763 13.902C43.8843 14.112 43.5623 14.42 43.3103 14.826V13.762H42.1903V21H43.3103V16.632C43.3523 15.974 43.5623 15.456 43.9543 15.064C44.3183 14.7 44.7523 14.518 45.2563 14.518C46.5163 14.518 47.1603 15.218 47.1603 16.632V21H48.2803V16.548C48.2803 14.56 47.3703 13.566 45.5783 13.566ZM52.9086 11.004C52.2926 11.004 51.8166 11.172 51.4946 11.522C51.1866 11.858 51.0326 12.32 51.0326 12.936V13.762H49.2126V14.7H51.0326V21H52.1526V14.7H54.1966V13.762H52.1526V12.964C52.1526 12.614 52.2226 12.362 52.3626 12.208C52.5026 12.04 52.7406 11.97 53.0486 11.97H54.2946V11.004H52.9086ZM58.4672 13.566C57.3752 13.566 56.5212 13.93 55.8772 14.686C55.2612 15.4 54.9532 16.296 54.9532 17.388C54.9532 18.466 55.2612 19.362 55.8772 20.062C56.5212 20.818 57.3752 21.196 58.4672 21.196C59.5452 21.196 60.4132 20.818 61.0712 20.062C61.6732 19.362 61.9812 18.466 61.9812 17.388C61.9812 16.296 61.6732 15.4 61.0572 14.686C60.4132 13.93 59.5452 13.566 58.4672 13.566ZM58.4672 14.504C59.2232 14.504 59.8252 14.798 60.2732 15.386C60.6512 15.918 60.8472 16.576 60.8472 17.388C60.8472 18.172 60.6512 18.844 60.2732 19.376C59.8252 19.964 59.2232 20.258 58.4672 20.258C57.6972 20.258 57.0952 19.964 56.6752 19.376C56.2832 18.844 56.1012 18.186 56.1012 17.388C56.1012 16.576 56.2832 15.918 56.6752 15.386C57.0952 14.798 57.6972 14.504 58.4672 14.504ZM66.6144 13.566C66.1104 13.566 65.6764 13.72 65.2984 14.028C64.9904 14.266 64.7384 14.602 64.5424 15.022V13.762H63.4364V21H64.5424V17.164C64.5424 16.492 64.7244 15.918 65.1164 15.442C65.4944 14.938 65.9704 14.7 66.5304 14.7C66.8804 14.7 67.2444 14.742 67.6084 14.854V13.734C67.3424 13.622 67.0064 13.566 66.6144 13.566ZM71.7136 13.566C70.9016 13.566 70.2156 13.944 69.6696 14.728V13.762H68.5496V21H69.6696V16.59C69.6696 16.016 69.8376 15.526 70.1736 15.134C70.5096 14.714 70.9296 14.518 71.4476 14.518C72.5536 14.518 73.1136 15.148 73.1136 16.436V21H74.2336V16.464C74.2336 15.876 74.3876 15.414 74.7236 15.05C75.0316 14.686 75.4376 14.518 75.9136 14.518C76.5296 14.518 76.9776 14.672 77.2576 15.008C77.5236 15.316 77.6636 15.792 77.6636 16.436V21H78.7836V16.254C78.7836 15.428 78.5456 14.77 78.0976 14.28C77.6216 13.804 77.0196 13.566 76.2636 13.566C75.7596 13.566 75.3396 13.678 74.9896 13.902C74.5976 14.112 74.2616 14.462 73.9816 14.938C73.5756 14.014 72.8196 13.566 71.7136 13.566ZM83.6762 13.566C82.8082 13.566 82.1222 13.734 81.5902 14.07C81.0022 14.434 80.6242 15.008 80.4702 15.764L81.5762 15.848C81.6882 15.386 81.9262 15.036 82.3042 14.812C82.6402 14.588 83.0742 14.49 83.6062 14.49C84.8662 14.49 85.4962 15.092 85.4962 16.31V16.688L83.7602 16.716C82.6682 16.73 81.8282 16.94 81.2402 17.332C80.5682 17.752 80.2462 18.368 80.2462 19.194C80.2462 19.782 80.4702 20.272 80.9182 20.65C81.3522 21.014 81.9262 21.196 82.6542 21.196C83.3262 21.196 83.9282 21.042 84.4602 20.748C84.9082 20.496 85.2862 20.174 85.5662 19.782V21H86.6162V16.352C86.6162 15.512 86.3922 14.854 85.9722 14.378C85.4682 13.832 84.7122 13.566 83.6762 13.566ZM85.4962 17.528V18.144C85.4962 18.704 85.2302 19.208 84.7122 19.642C84.1802 20.09 83.5782 20.314 82.8922 20.314C82.4442 20.314 82.0802 20.202 81.8002 19.992C81.5202 19.768 81.3942 19.502 81.3942 19.166C81.3942 18.116 82.2062 17.584 83.8302 17.556L85.4962 17.528ZM90.2785 11.424L89.1725 11.886V13.762H87.7165V14.7H89.1725V19.306C89.1725 19.852 89.2845 20.258 89.5225 20.538C89.7745 20.846 90.2085 21 90.7965 21H91.8885V20.062H90.9645C90.7125 20.062 90.5305 19.992 90.4325 19.88C90.3205 19.768 90.2785 19.572 90.2785 19.306V14.7H92.0705V13.762H90.2785V11.424ZM94.2471 11.032C94.0091 11.032 93.8131 11.102 93.6451 11.27C93.4771 11.41 93.4071 11.606 93.4071 11.858C93.4071 12.096 93.4771 12.292 93.6451 12.46C93.8131 12.614 94.0091 12.698 94.2471 12.698C94.4851 12.698 94.6811 12.614 94.8491 12.46C95.0171 12.292 95.1011 12.096 95.1011 11.858C95.1011 11.606 95.0171 11.41 94.8491 11.27C94.6811 11.102 94.4851 11.032 94.2471 11.032ZM93.6871 13.762V21H94.8071V13.762H93.6871ZM100.139 13.566C99.0471 13.566 98.1931 13.93 97.5491 14.686C96.9331 15.4 96.6251 16.296 96.6251 17.388C96.6251 18.466 96.9331 19.362 97.5491 20.062C98.1931 20.818 99.0471 21.196 100.139 21.196C101.217 21.196 102.085 20.818 102.743 20.062C103.345 19.362 103.653 18.466 103.653 17.388C103.653 16.296 103.345 15.4 102.729 14.686C102.085 13.93 101.217 13.566 100.139 13.566ZM100.139 14.504C100.895 14.504 101.497 14.798 101.945 15.386C102.323 15.918 102.519 16.576 102.519 17.388C102.519 18.172 102.323 18.844 101.945 19.376C101.497 19.964 100.895 20.258 100.139 20.258C99.3691 20.258 98.7671 19.964 98.3471 19.376C97.9551 18.844 97.7731 18.186 97.7731 17.388C97.7731 16.576 97.9551 15.918 98.3471 15.386C98.7671 14.798 99.3691 14.504 100.139 14.504ZM108.496 13.566C108.02 13.566 107.586 13.678 107.194 13.902C106.802 14.112 106.48 14.42 106.228 14.826V13.762H105.108V21H106.228V16.632C106.27 15.974 106.48 15.456 106.872 15.064C107.236 14.7 107.67 14.518 108.174 14.518C109.434 14.518 110.078 15.218 110.078 16.632V21H111.198V16.548C111.198 14.56 110.288 13.566 108.496 13.566ZM116.079 13.566C115.211 13.566 114.525 13.734 113.993 14.07C113.405 14.434 113.027 15.008 112.873 15.764L113.979 15.848C114.091 15.386 114.329 15.036 114.707 14.812C115.043 14.588 115.477 14.49 116.009 14.49C117.269 14.49 117.899 15.092 117.899 16.31V16.688L116.163 16.716C115.071 16.73 114.231 16.94 113.643 17.332C112.971 17.752 112.649 18.368 112.649 19.194C112.649 19.782 112.873 20.272 113.321 20.65C113.755 21.014 114.329 21.196 115.057 21.196C115.729 21.196 116.331 21.042 116.863 20.748C117.311 20.496 117.689 20.174 117.969 19.782V21H119.019V16.352C119.019 15.512 118.795 14.854 118.375 14.378C117.871 13.832 117.115 13.566 116.079 13.566ZM117.899 17.528V18.144C117.899 18.704 117.633 19.208 117.115 19.642C116.583 20.09 115.981 20.314 115.295 20.314C114.847 20.314 114.483 20.202 114.203 19.992C113.923 19.768 113.797 19.502 113.797 19.166C113.797 18.116 114.609 17.584 116.233 17.556L117.899 17.528ZM120.973 10.808V21H122.079V10.808H120.973ZM128.846 11.004V21H129.994V12.782H130.036L135.72 21H136.896V11.004H135.748V19.138H135.706L130.05 11.004H128.846ZM142.002 13.566C140.91 13.566 140.056 13.93 139.412 14.686C138.796 15.4 138.488 16.296 138.488 17.388C138.488 18.466 138.796 19.362 139.412 20.062C140.056 20.818 140.91 21.196 142.002 21.196C143.08 21.196 143.948 20.818 144.606 20.062C145.208 19.362 145.516 18.466 145.516 17.388C145.516 16.296 145.208 15.4 144.592 14.686C143.948 13.93 143.08 13.566 142.002 13.566ZM142.002 14.504C142.758 14.504 143.36 14.798 143.808 15.386C144.186 15.918 144.382 16.576 144.382 17.388C144.382 18.172 144.186 18.844 143.808 19.376C143.36 19.964 142.758 20.258 142.002 20.258C141.232 20.258 140.63 19.964 140.21 19.376C139.818 18.844 139.636 18.186 139.636 17.388C139.636 16.576 139.818 15.918 140.21 15.386C140.63 14.798 141.232 14.504 142.002 14.504ZM148.904 11.424L147.798 11.886V13.762H146.342V14.7H147.798V19.306C147.798 19.852 147.91 20.258 148.148 20.538C148.4 20.846 148.834 21 149.422 21H150.514V20.062H149.59C149.338 20.062 149.156 19.992 149.058 19.88C148.946 19.768 148.904 19.572 148.904 19.306V14.7H150.696V13.762H148.904V11.424ZM154.93 13.566C153.88 13.566 153.054 13.944 152.438 14.7C151.822 15.414 151.528 16.31 151.528 17.374C151.528 18.55 151.836 19.474 152.48 20.174C153.096 20.846 153.936 21.196 154.972 21.196C155.91 21.196 156.68 20.916 157.282 20.384C157.772 19.936 158.094 19.376 158.262 18.676H157.142C156.96 19.18 156.722 19.558 156.414 19.81C156.05 20.104 155.56 20.258 154.972 20.258C154.286 20.258 153.74 20.034 153.348 19.586C152.956 19.138 152.746 18.508 152.69 17.696H158.402C158.374 16.436 158.094 15.442 157.562 14.742C156.974 13.958 156.092 13.566 154.93 13.566ZM154.958 14.504C156.33 14.504 157.1 15.274 157.24 16.828H152.718C152.788 16.114 153.012 15.554 153.404 15.134C153.796 14.714 154.314 14.504 154.958 14.504ZM162.276 13.566C161.464 13.566 160.792 13.748 160.288 14.112C159.742 14.476 159.476 14.952 159.476 15.568C159.476 16.184 159.742 16.646 160.302 16.982C160.638 17.206 161.24 17.416 162.094 17.626C162.878 17.822 163.396 17.976 163.634 18.088C164.082 18.312 164.32 18.62 164.32 19.026C164.32 19.838 163.662 20.258 162.374 20.258C161.758 20.258 161.296 20.146 160.988 19.922C160.68 19.67 160.47 19.264 160.386 18.69H159.294C159.462 20.356 160.498 21.196 162.402 21.196C164.446 21.196 165.468 20.44 165.468 18.956C165.468 18.326 165.174 17.836 164.6 17.472C164.222 17.234 163.606 17.01 162.738 16.8C162.01 16.604 161.506 16.45 161.24 16.324C160.82 16.114 160.624 15.848 160.624 15.54C160.624 15.218 160.778 14.966 161.086 14.784C161.366 14.588 161.758 14.504 162.262 14.504C162.836 14.504 163.284 14.616 163.592 14.84C163.872 15.036 164.054 15.372 164.152 15.82H165.244C165.048 14.308 164.068 13.566 162.276 13.566ZM177.394 14.56V22.428H178.388V12.908C178.878 11.956 179.284 10.948 179.62 9.87L178.682 9.436C178.052 11.62 177.058 13.566 175.686 15.26L176.008 16.338C176.512 15.778 176.974 15.176 177.394 14.56ZM179.564 11.41V12.362H188.678V11.41H184.268L184.8 11.214C184.632 10.696 184.408 10.136 184.114 9.52L183.148 9.786C183.428 10.318 183.666 10.85 183.876 11.41H179.564ZM180.852 13.496V14.406H187.474V13.496H180.852ZM180.852 15.47V16.394H187.474V15.47H180.852ZM187.726 17.542H180.586V22.4H181.566V21.644H186.746V22.4H187.726V17.542ZM181.566 20.692V18.48H186.746V20.692H181.566ZM191.912 10.598V17.444H200.676V10.598H196.056C196.224 10.29 196.364 9.968 196.476 9.618L195.426 9.478C195.328 9.87 195.188 10.234 194.992 10.598H191.912ZM199.696 16.576H192.892V15.4H199.696V16.576ZM192.892 14.588V13.44H199.696V14.588H192.892ZM192.892 12.628V11.48H199.696V12.628H192.892ZM191.212 18.396C190.946 19.488 190.512 20.496 189.91 21.392L190.764 21.938C191.366 20.986 191.828 19.88 192.164 18.592L191.212 18.396ZM197.96 22.19C198.492 22.19 198.898 22.078 199.15 21.868C199.43 21.602 199.626 20.888 199.738 19.712L198.772 19.404C198.716 20.314 198.59 20.86 198.422 21.056C198.31 21.196 198.086 21.28 197.764 21.28H194.656C194.334 21.28 194.18 21.112 194.18 20.79V18.326H193.158V21C193.158 21.784 193.55 22.19 194.362 22.19H197.96ZM196.084 17.822L195.342 18.284C196.07 19.012 196.63 19.67 197.05 20.272L197.82 19.74C197.414 19.194 196.84 18.55 196.084 17.822ZM200.606 18.144L199.822 18.634C200.676 19.74 201.362 20.748 201.866 21.658L202.664 21.098C202.188 20.258 201.502 19.264 200.606 18.144ZM205.548 22.274C206.346 22.274 206.752 21.868 206.752 21.084V16.954C207.158 16.758 207.564 16.562 207.956 16.352V15.33C207.564 15.554 207.158 15.75 206.752 15.946V13.216H208.166V12.25H206.752V9.604H205.716V12.25H204.022V13.216H205.716V16.38C205.1 16.618 204.484 16.814 203.854 16.968L204.092 17.976C204.638 17.808 205.184 17.612 205.716 17.402V20.818C205.716 21.168 205.534 21.35 205.198 21.35C204.834 21.35 204.47 21.322 204.078 21.294L204.288 22.274H205.548ZM209.258 10.052V14.91H215.362V10.052H209.258ZM214.382 14.084H210.238V12.88H214.382V14.084ZM210.238 12.096V10.878H214.382V12.096H210.238ZM208.278 15.89V16.786H211.82V20.874C211.694 20.832 211.582 20.79 211.484 20.748C210.896 20.482 210.378 19.88 209.93 18.942C210.042 18.466 210.112 17.99 210.14 17.486L209.244 17.388C209.132 18.984 208.544 20.44 207.48 21.728L208.222 22.372C208.824 21.644 209.286 20.846 209.622 19.978C210.042 20.762 210.532 21.294 211.064 21.574C211.736 21.91 212.996 22.092 214.844 22.106C215.292 22.106 215.81 22.12 216.37 22.12L216.65 21.14C216.132 21.182 215.502 21.21 214.774 21.21C214.004 21.21 213.346 21.168 212.786 21.084V19.278H215.712V18.368H212.786V16.786H216.286V15.89H208.278ZM223.496 22.232C224.364 22.232 224.798 21.798 224.798 20.958V14.882H230.202V13.888H218.274V14.882H223.776V20.706C223.776 21.098 223.566 21.308 223.146 21.308C222.614 21.308 222.068 21.28 221.48 21.252L221.69 22.232H223.496ZM220.43 16.422C219.94 18.13 219.156 19.684 218.078 21.084L218.96 21.63C220.024 20.23 220.836 18.564 221.424 16.632L220.43 16.422ZM227.822 16.282L226.912 16.59C227.808 18.018 228.634 19.656 229.39 21.518L230.314 21.098C229.614 19.39 228.774 17.794 227.822 16.282ZM219.562 10.332V11.312H228.956V10.332H219.562Z" fill="#333333"/>
<rect x="0.5" y="0.5" width="1079" height="31" rx="1.5" stroke="#337EFF"/>
</svg>
