<?xml version="1.0" encoding="UTF-8"?>
<svg width="104px" height="64px" viewBox="0 0 104 64" version="1.1" xmlns="http://www.w3.org/2000/svg" xmlns:xlink="http://www.w3.org/1999/xlink">
    <!-- Generator: Sketch 39.1 (31720) - http://www.bohemiancoding.com/sketch -->
    <title>logo-yiwu-white</title>
    <desc>Created with Sketch.</desc>
    <defs></defs>
    <g id="Page-1" stroke="none" stroke-width="1" fill="none" fill-rule="evenodd">
        <g id="logo-yiwu-white" transform="translate(0.000000, 18.000000)" fill="#FFFFFF">
            <g id="白.svg">
                <path d="M93.3597746,13.1459906 L89.6001502,23.30723 L99.4401127,23.30723 C99.8103015,23.2674635 100.142716,23.0625973 100.344624,22.749781 C100.546533,22.4369647 100.596326,22.0496794 100.480113,21.6959624 L99.1998873,17.9851643 L100.71985,17.9851643 L101.92,21.5333709 C102.236013,22.2853786 102.155564,23.1455307 101.705583,23.8258961 C101.255603,24.5062615 100.49555,24.9169368 99.6798498,24.9204507 L87.1998498,24.9204507 L91.6000751,13.2270423 L85.28,13.2270423 L85.28,11.6948732 L104,11.6948732 L104,13.2270423 L93.3597746,13.1459906 Z M86.9596244,5.56619718 L102.399474,5.56619718 L102.399474,7.09885446 L86.9596244,7.09885446 L86.9596244,5.56619718 L86.9596244,5.56619718 Z M79.9193615,25.4873239 L78.161615,25.4873239 L78.161615,23.9551549 L79.9193615,23.9551549 C80.6488128,23.9678565 81.253945,23.3937845 81.279662,22.6646761 L81.279662,9.59778404 C81.2426736,9.33237481 81.0556471,9.11224293 80.7996995,9.03286385 L79.4403756,9.03286385 C79.0053728,14.5428939 78.0406682,19.9982166 76.5596244,25.3232676 L75.1197371,24.9199624 C76.567045,19.7553836 77.5047593,14.4614026 77.9194366,9.11391549 L75.5996995,9.11391549 C75.0341812,14.6436712 73.9083254,20.1016668 72.2394742,25.403831 L70.879662,25.0005258 C72.4452761,19.8452697 73.5167969,14.5527353 74.0797371,9.19447887 L71.0422535,9.19447887 L72.562216,5.24296714 L74.0826667,5.80739906 L73.3624789,7.66279812 L80.722554,7.66279812 C81.2902274,7.66605306 81.8322453,7.89968472 82.2243938,8.31015186 C82.6165423,8.720619 82.8252018,9.27273165 82.802554,9.83996244 L82.802554,22.6622347 C82.7800583,24.2351181 81.4928563,25.4952854 79.9198498,25.4843944 L79.9193615,25.4873239 Z M70.6394366,16.6165634 L71.2795493,17.9876056 L68.3196995,19.2775962 L68.3196995,25.5678873 L66.7997371,25.5678873 L66.7997371,19.9211268 L63.3594366,21.4532958 L62.7193239,20.0822535 L66.7997371,18.3079061 L66.7997371,13.1469671 L63.1992864,13.1469671 L64.0781596,7.98553991 L65.5180469,8.30828169 L64.9580094,11.6147981 L66.7982723,11.6147981 L66.7982723,5.16240376 L68.3182347,5.16240376 L68.3182347,11.6138216 L70.6379718,11.6138216 L70.6379718,13.1459906 L68.3182347,13.1459906 L68.3182347,17.6619343 L70.6394366,16.6165634 Z M57.5193239,25.6494272 L55.7615775,25.6494272 L55.7615775,24.1172582 L57.5193239,24.1172582 C58.2485919,24.129966 58.8536479,23.5561835 58.8796244,22.8272676 L58.8796244,17.9041127 C58.88393,17.7538596 58.8264732,17.6084063 58.7206469,17.5016575 C58.6148207,17.3949086 58.4698716,17.3361913 58.3195869,17.3391925 L53.9193615,17.3391925 C53.5995493,20.8878873 52.3193239,23.2261784 49.5996995,25.4843944 L48.6392864,24.2749671 C50.9595117,22.339493 52.0795869,20.4040188 52.3989108,17.3416338 L48.1588357,17.3416338 C47.8390235,20.8903286 46.5587981,23.2286197 43.8391737,25.4868357 L42.8792488,24.2774085 C45.1989859,22.3419343 46.319061,20.4064601 46.6388732,17.3440751 L41.7591737,17.3440751 L42.8792488,14.3603005 L44.3191362,14.9247324 L43.9988357,15.8119061 L58.24,15.8119061 C59.3713208,15.8217057 60.3078679,16.6938388 60.3981221,17.8215962 L60.3981221,22.8218967 C60.3766966,24.3937438 59.0917811,25.654247 57.5198122,25.6455211 L57.5193239,25.6494272 Z M56.6384977,13.7909859 L43.4397746,13.7909859 L43.4397746,5.08135211 L58.7199624,5.08135211 L58.7199624,11.7749484 C58.6975181,12.9045418 57.7682318,13.8046176 56.6384977,13.7909859 L56.6384977,13.7909859 Z M57.1985352,6.61352113 L44.9602254,6.61352113 L44.9602254,8.71012207 L57.2,8.71012207 L57.2,6.61352113 L57.1985352,6.61352113 Z M57.1985352,10.2422911 L44.9602254,10.2422911 L44.9602254,12.2583286 L56.6384977,12.2583286 C56.7887368,12.2614654 56.9336904,12.2028594 57.0395327,12.0961867 C57.1453749,11.989514 57.2028462,11.8441067 57.1985352,11.6938967 L57.1985352,10.2422911 L57.1985352,10.2422911 Z M29.7581596,27.2582535 L25.119662,27.2582535 C25.9774842,26.5403498 26.7797149,25.7585217 27.5194742,24.9194742 L29.7596244,24.9194742 C31.3784905,24.9130127 32.9284692,24.2636501 34.06851,23.1142693 C35.2085507,21.9648884 35.8452451,20.4096631 35.8384977,18.7907981 C35.8267896,16.3497784 34.3872279,14.1416354 32.1584601,13.1459906 L32.1584601,12.0171268 C32.1717205,11.5586532 32.1449271,11.0998972 32.078385,10.6460845 C35.632885,11.7575034 38.1009772,14.9885601 38.2383099,18.7102347 C38.2550672,23.4109406 34.4607967,27.2366772 29.7601127,27.2587418 L29.7581596,27.2582535 Z M23.3580094,27.3388169 L9.83800939,27.3388169 C7.21765414,27.3296442 4.70843521,26.279135 2.86312391,24.4187125 C1.01781262,22.5582899 -0.0121978007,20.040587 2.16830948e-15,17.4202441 C0.0290100056,12.7411932 3.27708183,8.69855038 7.84003756,7.66230986 C9.37717265,3.7202346 12.8694156,0.873323608 17.0403756,0.162103286 C17.7038206,0.0680351546 18.3723171,0.0139032456 19.0422535,1.38772666e-14 C22.229194,0.0037554266 25.2824115,1.28126182 27.5224038,3.54820657 C29.777785,5.82158402 31.0430199,8.89437241 31.0422911,12.0967136 L31.0422911,12.8222723 C30.8830167,18.4518496 28.1746771,23.7041639 23.6807512,27.0985915 L23.3580094,27.3388169 Z M7.0378216,10.4034178 C4.13266666,11.5141568 2.22043548,14.3095548 2.23819718,17.4197559 C2.22781367,19.4227692 3.01473123,21.3476229 4.42535803,22.7696995 C5.83598483,24.1917762 7.75441422,24.9942285 9.75744601,25.0000376 L16.64,25.0000376 C17.5150559,24.2671988 18.2945691,23.4273193 18.9602254,22.5001315 C19.4172016,21.8921565 19.818699,21.2444008 20.1598873,20.5646573 C19.0323543,20.9802574 17.8416358,21.1984484 16.64,21.2096526 C11.2960237,21.2074983 6.96395964,16.8767454 6.96018779,11.53277 C6.9470819,11.1547327 6.97375747,10.7763651 7.03977465,10.4039061 L7.0378216,10.4034178 Z M28.7982347,12.5029484 L28.7982347,12.1802066 C28.7646853,6.80544893 24.4169973,2.45602024 19.0422535,2.42031925 C18.5076173,2.4049012 17.9725995,2.43183984 17.442216,2.50088263 C13.9735767,3.12008055 11.1034181,5.55188769 9.92296714,8.87173709 C9.84289202,9.11586854 9.7628169,9.43616901 9.68274178,9.67834742 C9.52477384,10.2564378 9.44415889,10.8529228 9.44300469,11.4522066 C9.44154528,15.4829752 12.6923539,18.7599472 16.7230047,18.7907981 C17.1247415,18.8040959 17.5267998,18.7771066 17.9231549,18.7102347 C19.5971177,18.461751 21.1727101,17.7651431 22.4830423,16.6941972 C23.2454483,16.0863957 23.8952568,15.3494943 24.402892,14.5170329 C24.4160748,14.868373 24.3892101,15.2200717 24.3228169,15.5653333 C23.895442,18.5415648 22.7415397,21.3667052 20.9630798,23.7910986 C20.8830047,23.871662 20.8830047,23.9522254 20.8029296,24.03523 L20.7228545,24.1157934 L20.5627042,24.2774085 C20.4030423,24.5215399 20.1628169,24.761277 20.0031549,25.0029671 L22.5631174,25.0029671 C26.31698,22.0119884 28.5925871,17.5426817 28.8031174,12.7475681 L28.8031174,12.5034366 L28.7982347,12.5029484 Z M24.7178216,9.59973709 C25.2407715,9.595384 25.7146449,9.907077 25.9177471,10.3889951 C26.1208493,10.8709132 26.0130192,11.4277626 25.6447034,11.7990294 C25.2763876,12.1702962 24.7204165,12.2825666 24.2368929,12.0833167 C23.7533694,11.8840667 23.4379048,11.4126957 23.4380845,10.8897277 C23.4362672,10.5483046 23.5703903,10.2201925 23.8108526,9.97780649 C24.0513149,9.73542051 24.3783479,9.59868725 24.7197746,9.59778404 L24.7178216,9.59973709 Z" id="白.svg-2"></path>
            </g>
        </g>
    </g>
</svg>