<svg width="64" height="20" viewBox="0 0 64 20" fill="none" xmlns="http://www.w3.org/2000/svg">
<rect width="64" height="20" rx="2" fill="#F5F5F5"/>
<path d="M12.428 6.296V8.648H8.72V9.464H19.28V8.648H15.56V6.296H18.824V5.492H16.112C16.352 5.168 16.568 4.808 16.772 4.4L15.944 4.112C15.716 4.592 15.452 5.048 15.164 5.492H12.644C12.452 5.012 12.236 4.58 12.02 4.196L11.12 4.34C11.336 4.688 11.54 5.072 11.732 5.492H9.176V6.296H12.428ZM14.732 6.296V8.648H13.256V6.296H14.732ZM17.528 6.608C17.276 7.124 16.94 7.64 16.508 8.168L17.192 8.516C17.612 8.012 17.96 7.484 18.224 6.932L17.528 6.608ZM10.688 6.632L9.932 6.884C10.244 7.364 10.52 7.904 10.76 8.528L11.492 8.204C11.264 7.652 11 7.124 10.688 6.632ZM17.66 10.34H10.316V15.188H11.144V14.624H16.832V15.188H17.66V10.34ZM11.144 13.892V12.848H16.832V13.892H11.144ZM11.144 12.152V11.06H16.832V12.152H11.144ZM21.512 4.388L20.924 4.952C21.8 5.624 22.484 6.26 22.988 6.86L23.6 6.26C23.036 5.636 22.34 5.012 21.512 4.388ZM28.532 14.984H31.256L31.46 14.12C31.148 14.144 30.704 14.156 30.128 14.168C29.54 14.18 28.964 14.192 28.412 14.192C27.464 14.192 26.672 14.18 26.036 14.168C25.316 14.144 24.776 14.048 24.392 13.88C24.056 13.724 23.744 13.472 23.456 13.124C23.348 13.004 23.252 12.92 23.156 12.848V8.36H20.648V9.152H22.352V12.8C21.86 13.016 21.296 13.628 20.66 14.636L21.308 15.224C21.968 14.12 22.448 13.568 22.736 13.568C22.88 13.568 23.036 13.664 23.204 13.868C23.576 14.3 24.008 14.6 24.488 14.744C24.968 14.876 25.604 14.948 26.384 14.96C27.152 14.972 27.872 14.984 28.532 14.984ZM26.384 5.54L25.856 6.056C26.444 6.368 26.972 6.692 27.428 7.016H24.428V13.4H25.244V11.3H27.248V13.364H28.052V11.3H30.068V12.2C30.068 12.464 29.924 12.608 29.636 12.608L28.688 12.572L28.88 13.304H29.876C30.548 13.304 30.884 12.992 30.884 12.38V7.016H28.508L28.316 6.86C29.156 6.404 29.936 5.864 30.656 5.24V4.616H24.164V5.348H29.492C28.964 5.756 28.388 6.116 27.764 6.44C27.356 6.14 26.888 5.84 26.384 5.54ZM25.244 9.536H27.248V10.592H25.244V9.536ZM28.052 9.536H30.068V10.592H28.052V9.536ZM30.068 8.816H28.052V7.736H30.068V8.816ZM27.248 8.816H25.244V7.736H27.248V8.816ZM34.292 4.232V6.5H32.828V7.328H34.292C33.92 8.84 33.308 10.196 32.444 11.372L32.816 12.308C33.416 11.372 33.908 10.34 34.292 9.212V15.188H35.144V9.176C35.504 9.632 35.924 10.232 36.416 10.988L36.908 10.256C36.32 9.524 35.732 8.852 35.144 8.252V7.328H36.536V6.5H35.144V4.232H34.292ZM37.832 9.656C37.496 11.144 36.956 12.488 36.212 13.7L36.956 14.18C37.676 12.956 38.24 11.516 38.624 9.836L37.832 9.656ZM42.176 9.596L41.396 9.848C41.864 11.144 42.296 12.62 42.692 14.288L43.472 13.94C43.112 12.404 42.68 10.952 42.176 9.596ZM39.488 15.068C40.184 15.068 40.544 14.708 40.544 14V8.66H43.484V7.832H36.752V8.66H39.68V13.784C39.68 14.132 39.512 14.312 39.188 14.312C38.84 14.312 38.48 14.288 38.096 14.264L38.264 15.068H39.488ZM37.388 4.916V5.732H42.86V4.916H37.388ZM52.808 11.072C52.448 12.2 52.04 13.172 51.572 13.988H44.948V14.792H55.076V13.988H52.496C52.952 13.196 53.336 12.296 53.648 11.3L52.808 11.072ZM47.072 11.216L46.292 11.468C46.676 12.164 46.988 12.896 47.228 13.664L48.008 13.46C47.732 12.62 47.42 11.864 47.072 11.216ZM49.844 10.976L49.052 11.228C49.364 11.972 49.616 12.752 49.82 13.568L50.588 13.364C50.372 12.464 50.12 11.672 49.844 10.976ZM46.892 9.824V10.592H53.12V9.824H46.892ZM46.412 5.996H47.324C47.54 6.464 47.72 6.956 47.876 7.46L48.668 7.172C48.548 6.812 48.38 6.416 48.188 5.996H49.916V5.228H46.76C46.868 4.94 46.976 4.652 47.072 4.34L46.232 4.16C45.896 5.264 45.356 6.272 44.612 7.184L45.356 7.652C45.752 7.148 46.1 6.596 46.412 5.996ZM51.464 5.996H52.508C52.772 6.5 53.012 7.028 53.228 7.568L54.02 7.28C53.864 6.872 53.66 6.452 53.396 5.996H55.304V5.228H51.8C51.896 4.94 51.992 4.652 52.088 4.34L51.26 4.16C51.008 5.096 50.6 5.936 50.036 6.704L50.768 7.172C51.02 6.812 51.248 6.416 51.464 5.996ZM49.724 7.184C48.344 8.204 46.616 9.056 44.552 9.752L44.96 10.496C47.048 9.764 48.728 8.9 50 7.892C51.392 8.972 53.06 9.836 55.028 10.508L55.448 9.764C53.492 9.14 51.764 8.276 50.276 7.184H49.724Z" fill="#666666"/>
</svg>
