<svg width="94" height="20" viewBox="0 0 94 20" fill="none" xmlns="http://www.w3.org/2000/svg">
<rect width="94" height="20" rx="2" fill="#F2F3F5"/>
<path d="M8.66 4.916V5.756H16.916V13.7C16.916 14.108 16.712 14.324 16.328 14.324C15.728 14.324 15.092 14.3 14.432 14.276L14.624 15.116H16.628C17.396 15.116 17.78 14.708 17.78 13.916V5.756H19.364V4.916H8.66ZM14.72 7.592H10.052V13.052H10.892V11.996H14.72V7.592ZM10.892 11.204V8.372H13.892V11.204H10.892ZM28.304 5.3V12.752H29.06V5.3H28.304ZM29.984 15.104C30.656 15.104 31.004 14.72 31.004 13.976V4.244H30.212V13.784C30.212 14.18 30.044 14.384 29.708 14.384C29.264 14.384 28.796 14.36 28.316 14.336L28.496 15.104H29.984ZM20.588 9.008V9.788H21.32C21.296 11.732 21.02 13.328 20.492 14.6L21.104 15.152C21.704 13.784 22.028 11.996 22.064 9.788H23.108V14.036C23.108 14.312 22.976 14.456 22.712 14.456C22.508 14.456 22.292 14.444 22.052 14.42L22.244 15.14H22.952C23.552 15.14 23.852 14.852 23.852 14.288V9.788H24.704V10.016C24.692 11.864 24.5 13.4 24.128 14.612L24.728 15.152C25.184 13.832 25.424 12.092 25.436 9.956V9.788H26.468V14.06C26.468 14.324 26.36 14.468 26.156 14.468C25.952 14.468 25.736 14.456 25.52 14.432L25.712 15.152H26.384C26.936 15.152 27.224 14.864 27.224 14.312V9.788H27.884V9.008H27.224V4.664H24.704V9.008H23.852V4.664H21.32V9.008H20.588ZM26.468 9.008H25.436V5.408H26.468V9.008ZM23.108 9.008H22.064V5.408H23.108V9.008ZM32.984 4.676V15.212H33.824V5.492H35.516C35.24 6.5 34.868 7.64 34.388 8.9C35.108 9.896 35.468 10.796 35.468 11.6C35.468 11.864 35.396 12.044 35.276 12.152C35.156 12.26 34.904 12.32 34.532 12.344C34.412 12.344 34.256 12.32 34.064 12.296L34.352 13.172C35.132 13.172 35.684 13.016 35.996 12.728C36.212 12.5 36.332 12.128 36.332 11.6C36.284 10.76 35.924 9.812 35.252 8.768C35.696 7.592 36.08 6.452 36.392 5.36V4.676H32.984ZM39.464 15.08C40.064 15.08 40.376 14.744 40.376 14.084V10.508H43.064V9.668H40.376V8.252H41.84V7.448H37.904V8.252H39.488V9.668H36.68V10.508H39.488V13.868C39.488 14.144 39.38 14.288 39.164 14.288C38.804 14.288 38.42 14.264 38.024 14.24L38.216 15.08H39.464ZM39.5 4.376C38.66 5.66 37.568 6.716 36.224 7.544L36.716 8.276C37.964 7.508 39.032 6.476 39.92 5.204C40.712 6.452 41.756 7.448 43.064 8.204L43.568 7.472C42.14 6.644 41.06 5.612 40.34 4.376H39.5ZM41.756 11.324L41.084 11.732C41.684 12.716 42.164 13.604 42.512 14.408L43.232 13.916C42.884 13.172 42.392 12.308 41.756 11.324ZM37.784 11.384C37.328 12.392 36.776 13.256 36.152 13.976L36.86 14.48C37.496 13.712 38.048 12.8 38.528 11.756L37.784 11.384ZM46.292 4.232V6.5H44.828V7.328H46.292C45.92 8.84 45.308 10.196 44.444 11.372L44.816 12.308C45.416 11.372 45.908 10.34 46.292 9.212V15.188H47.144V9.176C47.504 9.632 47.924 10.232 48.416 10.988L48.908 10.256C48.32 9.524 47.732 8.852 47.144 8.252V7.328H48.536V6.5H47.144V4.232H46.292ZM49.832 9.656C49.496 11.144 48.956 12.488 48.212 13.7L48.956 14.18C49.676 12.956 50.24 11.516 50.624 9.836L49.832 9.656ZM54.176 9.596L53.396 9.848C53.864 11.144 54.296 12.62 54.692 14.288L55.472 13.94C55.112 12.404 54.68 10.952 54.176 9.596ZM51.488 15.068C52.184 15.068 52.544 14.708 52.544 14V8.66H55.484V7.832H48.752V8.66H51.68V13.784C51.68 14.132 51.512 14.312 51.188 14.312C50.84 14.312 50.48 14.288 50.096 14.264L50.264 15.068H51.488ZM49.388 4.916V5.732H54.86V4.916H49.388ZM64.808 11.072C64.448 12.2 64.04 13.172 63.572 13.988H56.948V14.792H67.076V13.988H64.496C64.952 13.196 65.336 12.296 65.648 11.3L64.808 11.072ZM59.072 11.216L58.292 11.468C58.676 12.164 58.988 12.896 59.228 13.664L60.008 13.46C59.732 12.62 59.42 11.864 59.072 11.216ZM61.844 10.976L61.052 11.228C61.364 11.972 61.616 12.752 61.82 13.568L62.588 13.364C62.372 12.464 62.12 11.672 61.844 10.976ZM58.892 9.824V10.592H65.12V9.824H58.892ZM58.412 5.996H59.324C59.54 6.464 59.72 6.956 59.876 7.46L60.668 7.172C60.548 6.812 60.38 6.416 60.188 5.996H61.916V5.228H58.76C58.868 4.94 58.976 4.652 59.072 4.34L58.232 4.16C57.896 5.264 57.356 6.272 56.612 7.184L57.356 7.652C57.752 7.148 58.1 6.596 58.412 5.996ZM63.464 5.996H64.508C64.772 6.5 65.012 7.028 65.228 7.568L66.02 7.28C65.864 6.872 65.66 6.452 65.396 5.996H67.304V5.228H63.8C63.896 4.94 63.992 4.652 64.088 4.34L63.26 4.16C63.008 5.096 62.6 5.936 62.036 6.704L62.768 7.172C63.02 6.812 63.248 6.416 63.464 5.996ZM61.724 7.184C60.344 8.204 58.616 9.056 56.552 9.752L56.96 10.496C59.048 9.764 60.728 8.9 62 7.892C63.392 8.972 65.06 9.836 67.028 10.508L67.448 9.764C65.492 9.14 63.764 8.276 62.276 7.184H61.724Z" fill="#666666"/>
<path d="M82.0062 9.51646L79.4898 7L79 7.48979L81.5165 10.0062L79 12.5227L79.4898 13.0125L82.0062 10.496L84.5227 13.0125L85.0125 12.5227L82.496 10.0062L85.0125 7.48979L84.5227 7L82.0062 9.51646Z" fill="#999999"/>
</svg>
