<svg width="64" height="20" viewBox="0 0 64 20" fill="none" xmlns="http://www.w3.org/2000/svg">
<rect width="64" height="20" rx="2" fill="#26BD71"/>
<path d="M16.928 4.16L16.376 4.688C16.988 5.156 17.468 5.6 17.828 6.032H15.584C15.56 5.456 15.548 4.844 15.548 4.172H14.66C14.66 4.82 14.672 5.432 14.696 6.032H9.74V10.028C9.704 11.984 9.308 13.508 8.54 14.612L9.2 15.2C10.088 13.904 10.568 12.176 10.616 10.028V9.668H12.692C12.668 10.988 12.632 11.852 12.56 12.26C12.488 12.596 12.32 12.776 12.056 12.788C11.732 12.788 11.336 12.776 10.868 12.752L11.132 13.532C11.516 13.556 11.864 13.58 12.152 13.58C12.752 13.556 13.124 13.292 13.28 12.776C13.436 12.188 13.532 10.88 13.556 8.852H10.616V6.86H14.732C14.828 8.36 14.996 9.62 15.26 10.628C15.392 11.144 15.548 11.624 15.716 12.068C14.888 13.112 13.868 13.904 12.668 14.444L13.148 15.164C14.276 14.66 15.26 13.928 16.1 12.944C16.28 13.316 16.484 13.652 16.7 13.94C17.276 14.66 17.816 15.02 18.32 15.02C18.86 15.02 19.268 14.216 19.556 12.62L18.776 12.188C18.596 13.424 18.392 14.048 18.176 14.06C17.936 14.06 17.612 13.772 17.216 13.196C17.024 12.92 16.844 12.584 16.676 12.2C17.444 11.12 18.068 9.776 18.548 8.192L17.768 7.856C17.396 9.14 16.916 10.268 16.316 11.228C16.232 10.964 16.148 10.688 16.076 10.388C15.86 9.524 15.704 8.348 15.62 6.86H19.316V6.032H17.852L18.404 5.48C17.996 5.036 17.504 4.592 16.928 4.16ZM22.352 6.368V12.116C21.74 12.26 21.116 12.392 20.492 12.5L20.708 13.364C22.268 13.028 23.732 12.62 25.1 12.116V11.252C24.488 11.492 23.864 11.696 23.228 11.876V6.368H24.956V5.54H20.624V6.368H22.352ZM27.164 4.232V6.656H25.256V7.496H27.164C27.116 10.76 26.228 13.148 24.476 14.636L25.184 15.248C27.032 13.604 27.992 11.024 28.052 7.496H30.248C30.224 10.7 30.176 12.62 30.104 13.244C29.984 13.928 29.528 14.276 28.748 14.276C28.412 14.276 28.028 14.264 27.584 14.24L27.788 15.044C28.304 15.068 28.664 15.092 28.88 15.092C30.092 15.092 30.776 14.588 30.92 13.604C31.04 12.716 31.1 10.4 31.1 6.656H28.052V4.232H27.164ZM34.292 4.232V6.5H32.828V7.328H34.292C33.92 8.84 33.308 10.196 32.444 11.372L32.816 12.308C33.416 11.372 33.908 10.34 34.292 9.212V15.188H35.144V9.176C35.504 9.632 35.924 10.232 36.416 10.988L36.908 10.256C36.32 9.524 35.732 8.852 35.144 8.252V7.328H36.536V6.5H35.144V4.232H34.292ZM37.832 9.656C37.496 11.144 36.956 12.488 36.212 13.7L36.956 14.18C37.676 12.956 38.24 11.516 38.624 9.836L37.832 9.656ZM42.176 9.596L41.396 9.848C41.864 11.144 42.296 12.62 42.692 14.288L43.472 13.94C43.112 12.404 42.68 10.952 42.176 9.596ZM39.488 15.068C40.184 15.068 40.544 14.708 40.544 14V8.66H43.484V7.832H36.752V8.66H39.68V13.784C39.68 14.132 39.512 14.312 39.188 14.312C38.84 14.312 38.48 14.288 38.096 14.264L38.264 15.068H39.488ZM37.388 4.916V5.732H42.86V4.916H37.388ZM52.808 11.072C52.448 12.2 52.04 13.172 51.572 13.988H44.948V14.792H55.076V13.988H52.496C52.952 13.196 53.336 12.296 53.648 11.3L52.808 11.072ZM47.072 11.216L46.292 11.468C46.676 12.164 46.988 12.896 47.228 13.664L48.008 13.46C47.732 12.62 47.42 11.864 47.072 11.216ZM49.844 10.976L49.052 11.228C49.364 11.972 49.616 12.752 49.82 13.568L50.588 13.364C50.372 12.464 50.12 11.672 49.844 10.976ZM46.892 9.824V10.592H53.12V9.824H46.892ZM46.412 5.996H47.324C47.54 6.464 47.72 6.956 47.876 7.46L48.668 7.172C48.548 6.812 48.38 6.416 48.188 5.996H49.916V5.228H46.76C46.868 4.94 46.976 4.652 47.072 4.34L46.232 4.16C45.896 5.264 45.356 6.272 44.612 7.184L45.356 7.652C45.752 7.148 46.1 6.596 46.412 5.996ZM51.464 5.996H52.508C52.772 6.5 53.012 7.028 53.228 7.568L54.02 7.28C53.864 6.872 53.66 6.452 53.396 5.996H55.304V5.228H51.8C51.896 4.94 51.992 4.652 52.088 4.34L51.26 4.16C51.008 5.096 50.6 5.936 50.036 6.704L50.768 7.172C51.02 6.812 51.248 6.416 51.464 5.996ZM49.724 7.184C48.344 8.204 46.616 9.056 44.552 9.752L44.96 10.496C47.048 9.764 48.728 8.9 50 7.892C51.392 8.972 53.06 9.836 55.028 10.508L55.448 9.764C53.492 9.14 51.764 8.276 50.276 7.184H49.724Z" fill="white"/>
</svg>
