<svg width="64" height="20" viewBox="0 0 64 20" fill="none" xmlns="http://www.w3.org/2000/svg">
<rect width="64" height="20" rx="2" fill="#FFB21A"/>
<path d="M8.876 4.7V5.336H10.328V5.768L9.728 5.672C9.524 6.44 9.14 7.052 8.576 7.508L9.044 8.084C9.476 7.724 9.824 7.28 10.088 6.752H13.34C13.328 7.544 13.292 8.06 13.232 8.276C13.16 8.492 12.992 8.6 12.728 8.624H12.428V7.22H9.872V8.864H12.296L12.392 9.188H12.884C13.076 9.176 13.244 9.14 13.4 9.092C13.496 9.236 13.604 9.416 13.7 9.62H8.828V10.256H19.184V9.62H14.516C14.396 9.332 14.288 9.08 14.168 8.852L13.7 8.924C13.76 8.876 13.82 8.804 13.868 8.72C14.036 8.408 14.132 7.556 14.132 6.164H10.328C10.364 6.068 10.4 5.972 10.424 5.876H11.048V5.336H12.356V5.876H13.076V5.336H14.516V4.7H13.076V4.16H12.356V4.7H11.048V4.16H10.328V4.7H8.876ZM11.768 8.384H10.52V7.688H11.768V8.384ZM15.368 6.572C15.56 6.98 15.836 7.364 16.22 7.724C15.728 8.06 15.116 8.3 14.372 8.468L14.696 9.164C15.524 8.972 16.232 8.648 16.82 8.216C17.372 8.6 18.08 8.936 18.92 9.212L19.316 8.516C18.572 8.288 17.924 8.012 17.384 7.688C17.864 7.148 18.2 6.464 18.38 5.624H19.052V4.904H16.196C16.268 4.688 16.328 4.472 16.388 4.232L15.596 4.088C15.344 5.216 14.864 6.116 14.156 6.788L14.636 7.388C14.9 7.148 15.152 6.872 15.368 6.572ZM15.908 5.624H17.624C17.48 6.248 17.192 6.8 16.772 7.256C16.292 6.848 15.968 6.38 15.8 5.852C15.824 5.78 15.86 5.708 15.908 5.624ZM10.292 10.82V11.348H17.816V10.82H10.292ZM10.292 11.9V12.428H17.816V11.9H10.292ZM18.2 13.016H9.932V15.296H10.772V14.936H17.36V15.296H18.2V13.016ZM10.772 14.348V13.592H17.36V14.348H10.772ZM29.948 10.772H22.124V15.188H23V14.552H29.072V15.188H29.948V10.772ZM23 13.736V11.6H29.072V13.736H23ZM22.844 6.716H25.712V8.66H20.576V9.512H31.424V8.66H26.588V6.716H30.512V5.888H26.588V4.184H25.712V5.888H23.36C23.6 5.444 23.792 4.976 23.948 4.472L23.084 4.376C22.7 5.636 21.956 6.704 20.876 7.568L21.392 8.252C21.956 7.784 22.436 7.268 22.844 6.716ZM34.292 4.232V6.5H32.828V7.328H34.292C33.92 8.84 33.308 10.196 32.444 11.372L32.816 12.308C33.416 11.372 33.908 10.34 34.292 9.212V15.188H35.144V9.176C35.504 9.632 35.924 10.232 36.416 10.988L36.908 10.256C36.32 9.524 35.732 8.852 35.144 8.252V7.328H36.536V6.5H35.144V4.232H34.292ZM37.832 9.656C37.496 11.144 36.956 12.488 36.212 13.7L36.956 14.18C37.676 12.956 38.24 11.516 38.624 9.836L37.832 9.656ZM42.176 9.596L41.396 9.848C41.864 11.144 42.296 12.62 42.692 14.288L43.472 13.94C43.112 12.404 42.68 10.952 42.176 9.596ZM39.488 15.068C40.184 15.068 40.544 14.708 40.544 14V8.66H43.484V7.832H36.752V8.66H39.68V13.784C39.68 14.132 39.512 14.312 39.188 14.312C38.84 14.312 38.48 14.288 38.096 14.264L38.264 15.068H39.488ZM37.388 4.916V5.732H42.86V4.916H37.388ZM52.808 11.072C52.448 12.2 52.04 13.172 51.572 13.988H44.948V14.792H55.076V13.988H52.496C52.952 13.196 53.336 12.296 53.648 11.3L52.808 11.072ZM47.072 11.216L46.292 11.468C46.676 12.164 46.988 12.896 47.228 13.664L48.008 13.46C47.732 12.62 47.42 11.864 47.072 11.216ZM49.844 10.976L49.052 11.228C49.364 11.972 49.616 12.752 49.82 13.568L50.588 13.364C50.372 12.464 50.12 11.672 49.844 10.976ZM46.892 9.824V10.592H53.12V9.824H46.892ZM46.412 5.996H47.324C47.54 6.464 47.72 6.956 47.876 7.46L48.668 7.172C48.548 6.812 48.38 6.416 48.188 5.996H49.916V5.228H46.76C46.868 4.94 46.976 4.652 47.072 4.34L46.232 4.16C45.896 5.264 45.356 6.272 44.612 7.184L45.356 7.652C45.752 7.148 46.1 6.596 46.412 5.996ZM51.464 5.996H52.508C52.772 6.5 53.012 7.028 53.228 7.568L54.02 7.28C53.864 6.872 53.66 6.452 53.396 5.996H55.304V5.228H51.8C51.896 4.94 51.992 4.652 52.088 4.34L51.26 4.16C51.008 5.096 50.6 5.936 50.036 6.704L50.768 7.172C51.02 6.812 51.248 6.416 51.464 5.996ZM49.724 7.184C48.344 8.204 46.616 9.056 44.552 9.752L44.96 10.496C47.048 9.764 48.728 8.9 50 7.892C51.392 8.972 53.06 9.836 55.028 10.508L55.448 9.764C53.492 9.14 51.764 8.276 50.276 7.184H49.724Z" fill="white"/>
</svg>
