<svg width="52" height="18" viewBox="0 0 52 18" fill="none" xmlns="http://www.w3.org/2000/svg">
<rect width="52" height="18" rx="2" fill="#337EFF"/>
<path d="M13.424 14.068C14.24 14.068 14.66 13.636 14.66 12.796V3.376H13.772V12.568C13.772 13.012 13.544 13.24 13.1 13.24C12.56 13.24 11.984 13.216 11.384 13.168L11.588 14.068H13.424ZM10.556 6.16C10.076 8.32 9.368 10.036 8.408 11.308L9.152 11.968C10.088 10.72 10.844 8.896 11.42 6.496L10.556 6.16ZM17.372 5.872L16.592 6.364C17.516 8.44 18.248 10.324 18.788 12.028L19.556 11.488C19.052 9.892 18.32 8.02 17.372 5.872ZM22.292 3.232V5.5H20.828V6.328H22.292C21.92 7.84 21.308 9.196 20.444 10.372L20.816 11.308C21.416 10.372 21.908 9.34 22.292 8.212V14.188H23.144V8.176C23.504 8.632 23.924 9.232 24.416 9.988L24.908 9.256C24.32 8.524 23.732 7.852 23.144 7.252V6.328H24.536V5.5H23.144V3.232H22.292ZM25.832 8.656C25.496 10.144 24.956 11.488 24.212 12.7L24.956 13.18C25.676 11.956 26.24 10.516 26.624 8.836L25.832 8.656ZM30.176 8.596L29.396 8.848C29.864 10.144 30.296 11.62 30.692 13.288L31.472 12.94C31.112 11.404 30.68 9.952 30.176 8.596ZM27.488 14.068C28.184 14.068 28.544 13.708 28.544 13V7.66H31.484V6.832H24.752V7.66H27.68V12.784C27.68 13.132 27.512 13.312 27.188 13.312C26.84 13.312 26.48 13.288 26.096 13.264L26.264 14.068H27.488ZM25.388 3.916V4.732H30.86V3.916H25.388ZM40.808 10.072C40.448 11.2 40.04 12.172 39.572 12.988H32.948V13.792H43.076V12.988H40.496C40.952 12.196 41.336 11.296 41.648 10.3L40.808 10.072ZM35.072 10.216L34.292 10.468C34.676 11.164 34.988 11.896 35.228 12.664L36.008 12.46C35.732 11.62 35.42 10.864 35.072 10.216ZM37.844 9.976L37.052 10.228C37.364 10.972 37.616 11.752 37.82 12.568L38.588 12.364C38.372 11.464 38.12 10.672 37.844 9.976ZM34.892 8.824V9.592H41.12V8.824H34.892ZM34.412 4.996H35.324C35.54 5.464 35.72 5.956 35.876 6.46L36.668 6.172C36.548 5.812 36.38 5.416 36.188 4.996H37.916V4.228H34.76C34.868 3.94 34.976 3.652 35.072 3.34L34.232 3.16C33.896 4.264 33.356 5.272 32.612 6.184L33.356 6.652C33.752 6.148 34.1 5.596 34.412 4.996ZM39.464 4.996H40.508C40.772 5.5 41.012 6.028 41.228 6.568L42.02 6.28C41.864 5.872 41.66 5.452 41.396 4.996H43.304V4.228H39.8C39.896 3.94 39.992 3.652 40.088 3.34L39.26 3.16C39.008 4.096 38.6 4.936 38.036 5.704L38.768 6.172C39.02 5.812 39.248 5.416 39.464 4.996ZM37.724 6.184C36.344 7.204 34.616 8.056 32.552 8.752L32.96 9.496C35.048 8.764 36.728 7.9 38 6.892C39.392 7.972 41.06 8.836 43.028 9.508L43.448 8.764C41.492 8.14 39.764 7.276 38.276 6.184H37.724Z" fill="white"/>
</svg>
