<?xml version="1.0" encoding="utf-8"?>
<!-- Generated by IcoMoon.io -->
<!DOCTYPE svg PUBLIC "-//W3C//DTD SVG 1.1//EN" "http://www.w3.org/Graphics/SVG/1.1/DTD/svg11.dtd">
<svg version="1.1" xmlns="http://www.w3.org/2000/svg" xmlns:xlink="http://www.w3.org/1999/xlink" width="32" height="32" viewBox="0 0 32 32">
<path fill="#ffb041" d="M16 32c-8.836 0-16-7.164-16-16s7.164-16 16-16c8.836 0 16 7.164 16 16s-7.164 16-16 16zM16 2.909c-7.231 0-13.091 5.86-13.091 13.091s5.86 13.091 13.091 13.091c7.229 0 13.091-5.86 13.091-13.091s-5.862-13.091-13.091-13.091zM21.091 21.818h-1.455c-0.401 0-0.727-0.326-0.727-0.727v-10.182c0-0.401 0.326-0.727 0.727-0.727h1.455c0.401 0 0.727 0.326 0.727 0.727v10.182c0 0.401-0.326 0.727-0.727 0.727zM12.364 21.818h-1.455c-0.401 0-0.727-0.326-0.727-0.727v-10.182c0-0.401 0.326-0.727 0.727-0.727h1.455c0.401 0 0.727 0.326 0.727 0.727v10.182c0 0.401-0.326 0.727-0.727 0.727z"></path>
</svg>
