<?xml version="1.0" encoding="utf-8"?>
<!-- Generated by IcoMoon.io -->
<!DOCTYPE svg PUBLIC "-//W3C//DTD SVG 1.1//EN" "http://www.w3.org/Graphics/SVG/1.1/DTD/svg11.dtd">
<svg version="1.1" xmlns="http://www.w3.org/2000/svg" xmlns:xlink="http://www.w3.org/1999/xlink" width="32" height="32" viewBox="0 0 32 32">
<path fill="#3ad0af" d="M16 31.998c-8.837 0-16-7.163-16-15.998 0-8.837 7.163-16 16-16s16 7.163 16 16c0 8.835-7.163 15.998-16 15.998zM16 3.021c-7.168 0-12.979 5.811-12.979 12.979s5.811 12.978 12.979 12.978c7.168 0 12.979-5.81 12.979-12.978s-5.811-12.979-12.979-12.979zM14.832 22.078c-0.421 0.402-1.104 0.402-1.525 0l-0.259-0.248c-0.288 0.011-0.579-0.080-0.8-0.29l-3.949-3.686c-0.418-0.398-0.418-1.043 0-1.44l0.755-0.72c0.418-0.398 1.094-0.398 1.512 0l3.23 3.016 7.582-7.224c0.421-0.4 1.102-0.4 1.523 0l0.762 0.726c0.421 0.402 0.421 1.051 0 1.451l-8.832 8.414z"></path>
</svg>
