<svg width="16" height="16" viewBox="0 0 16 16" fill="none" xmlns="http://www.w3.org/2000/svg">
<path d="M8 0C12.4183 0 16 3.58172 16 8C16 12.4183 12.4183 16 8 16C3.58172 16 0 12.4183 0 8C0 3.58172 3.58172 0 8 0ZM7.18484 3.98661C7.18484 4.47649 7.58197 4.87362 8.07185 4.87362C8.56173 4.87362 8.95885 4.47649 8.95885 3.98661C8.95885 3.49673 8.56173 3.09961 8.07185 3.09961C7.58197 3.09961 7.18484 3.49673 7.18484 3.98661ZM6.29883 12.1422C6.29883 12.3871 6.49739 12.5857 6.74233 12.5857H9.40335C9.64828 12.5857 9.84685 12.3871 9.84685 12.1422C9.84685 11.8972 9.64828 11.6987 9.40335 11.6987H8.74799V6.46745C8.74799 6.17001 8.55278 5.91816 8.28349 5.83302C8.23396 5.81392 8.18014 5.80344 8.12388 5.80344C8.11034 5.80262 8.09648 5.8022 8.08274 5.8022C8.069 5.8022 8.05535 5.80262 8.04182 5.80344H7.095C6.85006 5.80344 6.6515 6.002 6.6515 6.24694C6.6515 6.49188 6.85006 6.69044 7.095 6.69044H7.41748V11.6987H6.74233C6.49739 11.6987 6.29883 11.8972 6.29883 12.1422Z" fill="#337EFF"/>
</svg>
