<?xml version="1.0" standalone="no"?><!DOCTYPE svg PUBLIC "-//W3C//DTD SVG 1.1//EN" "http://www.w3.org/Graphics/SVG/1.1/DTD/svg11.dtd"><svg t="1697596372476" class="icon" viewBox="0 0 1024 1024" version="1.1" xmlns="http://www.w3.org/2000/svg" p-id="40656" xmlns:xlink="http://www.w3.org/1999/xlink" width="200" height="200"><path d="M954.28560125 325.14282125q37.71428156 89.14284656 37.71428156 186.85711969 0 198.77140406-140.57141156 339.34281656-140.57141156 140.57141156-339.42853031 140.57141062-198.85711875 0-339.42852938-140.57141062Q32 710.77134594 32 511.91422719q0-198.85711875 140.57141156-339.42853031Q313.14282313 32 511.99994094 32v102.85713q-156.25712344 0-266.74282406 110.48570063Q134.85713 355.7428175 134.85713 511.91422719q0 156.25712344 110.39998687 266.65711031Q355.7428175 889.14275281 511.99994094 889.14275281q156.17140969 0 266.57139656-110.57141531Q889.14275281 668.17135063 889.14275281 511.99994094q0-76.79999062-29.65713937-146.82855281l94.71427406-40.11428063z" p-id="40657"></path></svg>