<svg width="16" height="16" viewBox="0 0 16 16" fill="none" xmlns="http://www.w3.org/2000/svg">
<path fill-rule="evenodd" clip-rule="evenodd" d="M8 16C12.4183 16 16 12.4183 16 8C16 3.58172 12.4183 0 8 0C3.58172 0 0 3.58172 0 8C0 12.4183 3.58172 16 8 16ZM7.41212 3.6001H8.61212V10.0001H7.41212V3.6001ZM7.20001 11.6039C7.20001 11.1621 7.55818 10.8039 8.00001 10.8039C8.44184 10.8039 8.80001 11.1621 8.80001 11.6039C8.80001 12.0457 8.44184 12.4039 8.00001 12.4039C7.55818 12.4039 7.20001 12.0457 7.20001 11.6039Z" fill="#FFAF0F"/>
</svg>
