<?xml version="1.0" encoding="UTF-8"?>
<svg width="104px" height="64px" viewBox="0 0 104 64" version="1.1" xmlns="http://www.w3.org/2000/svg" xmlns:xlink="http://www.w3.org/1999/xlink">
    <!-- Generator: Sketch 39.1 (31720) - http://www.bohemiancoding.com/sketch -->
    <title>logo-white</title>
    <desc>Created with Sketch.</desc>
    <defs></defs>
    <g id="Page-1" stroke="none" stroke-width="1" fill="none" fill-rule="evenodd">
        <g id="logo-white" transform="translate(0.000000, 15.000000)" fill="#FFFFFF">
            <path d="M16.7974286,31.6428571 L16.8028571,31.6525714 C15.8054997,32.2032916 15.063697,33.1229547 14.7365714,34.2142857 C14.4121219,33.131247 13.6792419,32.216812 12.6928571,31.6642857 L12.6974286,31.6557143 L1.56,25.258 C0.59596827,24.7055054 0.0009510071,23.6797 0,22.5685714 L0,9.224 C0.000977898708,8.11302788 0.596015499,7.08740538 1.56,6.53514286 L6.21428571,4.11 L5.40114286,3.66457143 C5.05275785,3.47123972 4.83397807,3.10673265 4.82721575,2.70835653 C4.82045344,2.30998041 5.02673593,1.93825804 5.36835863,1.73321365 C5.70998132,1.52816926 6.13504358,1.52095397 6.48342857,1.71428571 L8.594,2.87 L8.92571429,2.69685714 L13.1742857,0.483428571 C14.1405876,-0.0714203708 15.328841,-0.0714203708 16.2951429,0.483428571 L20.498,2.67371429 L20.8748571,2.87 L22.9854286,1.71428571 C23.3338136,1.52095397 23.7588758,1.52816926 24.1004985,1.73321365 C24.4421212,1.93825804 24.6484037,2.30998041 24.6416414,2.70835653 C24.6348791,3.10673265 24.4160993,3.47123972 24.0677143,3.66457143 L23.2548571,4.10971429 L27.9085714,6.53514286 C28.872776,7.08725947 29.4680476,8.11290955 29.4691429,9.224 L29.4691429,22.5685714 C29.4680744,23.6798183 28.8728232,24.7056512 27.9085714,25.258 L16.7974286,31.6428571 Z M2.24057143,18.9397143 L2.24057143,21.5411429 C2.25396192,22.485713 2.76842687,23.3519684 3.59142857,23.8157143 L13.4148571,29.4591429 C14.2319441,29.9285857 15.236913,29.9285857 16.054,29.4591429 L25.8774286,23.8142857 C26.7005149,23.3506264 27.2150117,22.4843173 27.2282857,21.5397143 L27.2282857,18.9074286 L27.2282857,18.9074286 C27.2282857,18.8937143 27.2322857,18.8805714 27.2322857,18.8665714 C27.2329293,18.6431409 27.113087,18.4367119 26.9187382,18.3264842 C26.7243894,18.2162565 26.4857147,18.2193475 26.2942857,18.3345714 L26.2942857,18.3345714 L16.2968571,24.0617143 C15.3304,24.6159805 14.1424572,24.6159805 13.176,24.0617143 L3.10057143,18.2902857 L3.09714286,18.298 C2.90569444,18.2190555 2.68748295,18.2408104 2.51538884,18.3559987 C2.34329473,18.471187 2.23999848,18.664628 2.24,18.8717143 C2.24096804,18.8943998 2.24325764,18.9170096 2.24685714,18.9394286 L2.24285714,18.9394286 L2.24057143,18.9397143 Z M24.9791429,7.52028571 L16.054,2.95685714 C15.2367575,2.48799748 14.2320996,2.48799748 13.4148571,2.95685714 L4.42857143,7.55057143 L4.43028571,7.55342857 C4.22404878,7.66112938 4.09622416,7.87597257 4.09997244,8.10860766 C4.10372072,8.34124276 4.23840041,8.5518564 4.448,8.65285714 L4.448,8.65285714 L13.4165714,13.8054286 C14.2338139,14.2742882 15.2384718,14.2742882 16.0557143,13.8054286 L25.038,8.64457143 L25.0357143,8.64085714 C25.2505708,8.52969615 25.3806692,8.30325482 25.3684876,8.06165249 C25.356306,7.82005016 25.2040908,7.60784312 24.9791429,7.51885714 L24.9791429,7.52028571 Z M27.2311429,11.048 C27.2311085,10.8154602 27.101072,10.602454 26.8942506,10.496154 C26.6874293,10.3898541 26.4385353,10.4081016 26.2494286,10.5434286 L16.2951429,16.2802857 C15.3287633,16.8348431 14.1406653,16.8348431 13.1742857,16.2802857 L3.18857143,10.5454286 L3.18857143,10.5454286 C2.99764281,10.4245732 2.75603723,10.4173308 2.55821242,10.526533 C2.36038761,10.6357351 2.2377653,10.8440365 2.23828571,11.07 C2.23828571,11.0871429 2.242,11.1028571 2.24314286,11.1191429 L2.24114286,11.1191429 L2.24114286,14.4597143 L2.24714286,14.4597143 L2.24714286,14.4794286 C2.2466442,14.9770042 2.54328828,15.4268057 3.00085714,15.6222857 L2.99857143,15.6277143 C3.31657143,15.7991429 3.58542857,15.942 3.59285714,15.9474286 L13.4162857,21.5908571 C14.2335282,22.0597168 15.2381861,22.0597168 16.0554286,21.5908571 L25.8788571,15.9474286 C25.8877143,15.9422857 26.2074286,15.7525714 26.5485714,15.5474286 L26.5462857,15.5428571 C26.966218,15.3328644 27.2316211,14.903796 27.232,14.4342857 L27.232,14.4111429 L27.2437143,14.4111429 L27.2328571,11.0888571 L27.2285714,11.0888571 C27.2285714,11.0734286 27.2311429,11.0602857 27.2311429,11.0465714 L27.2311429,11.048 Z" id="logo"></path>
            <path d="M103.176857,17.2894286 L97.558,17.2894286 L97.558,18.5857143 L103.348286,18.5857143 C103.707429,18.5857143 103.998571,18.8768571 103.998571,19.236 C103.998571,19.5951429 103.707429,19.8862857 103.348286,19.8862857 L99.2482857,19.8862857 L103.616,24.2465714 C103.738202,24.3684636 103.80688,24.5339708 103.80688,24.7065714 C103.80688,24.8791721 103.738202,25.0446793 103.616,25.1665714 L103.616,25.1665714 C103.361517,25.4209253 102.949055,25.4209253 102.694571,25.1665714 L97.5582857,20.0394286 L97.5582857,24.7057143 C97.5581342,24.8783324 97.4894167,25.0438202 97.3672501,25.1657725 C97.2450835,25.2877247 97.0794752,25.3561516 96.9068571,25.356 L96.9068571,25.356 C96.7342391,25.3561516 96.5686308,25.2877247 96.4464642,25.1657725 C96.3242976,25.0438202 96.2555801,24.8783324 96.2554286,24.7057143 L96.2554286,20.0471429 L91.1282857,25.1651429 C90.9649373,25.3345632 90.7228809,25.4026555 90.4951608,25.3432458 C90.2674407,25.2838361 90.0894998,25.106171 90.0297368,24.8785434 C89.9699738,24.6509157 90.0376905,24.408754 90.2068571,24.2451429 L94.5745714,19.8848571 L90.5634286,19.8848571 C90.2042857,19.8848571 89.9131429,19.5937143 89.9131429,19.2345714 C89.9131429,18.8754285 90.2042857,18.5842857 90.5634286,18.5842857 L96.2545714,18.5842857 L96.2545714,17.2894286 L90.6357143,17.2894286 C90.4630204,17.2895802 90.2973395,17.2211232 90.1751193,17.0991174 C90.0528992,16.9771116 89.9841515,16.811551 89.984,16.6388571 L89.984,11.4808571 C89.9843155,11.1211947 90.2760517,10.8298421 90.6357143,10.83 L92.3005714,10.83 L91.4657143,9.99657143 C91.3435124,9.87467931 91.274834,9.70917209 91.274834,9.53657143 C91.274834,9.36397077 91.3435124,9.19846355 91.4657143,9.07657143 L93.1882857,7.35714286 C93.4428015,7.10313666 93.8549128,7.10313666 94.1094286,7.35714286 L94.1094286,7.35714286 C94.2315074,7.47915836 94.300096,7.64468493 94.300096,7.81728571 C94.300096,7.9898865 94.2315074,8.15541307 94.1094286,8.27742857 L93.0937143,9.29114286 C93.028303,9.35623873 92.9915286,9.44471722 92.9915286,9.537 C92.9915286,9.62928278 93.028303,9.71776127 93.0937143,9.78285714 L94.08,10.7677143 C94.0950204,10.7877439 94.1088537,10.8086369 94.1214286,10.8302857 L96.3262857,10.8302857 L95.4914286,9.99685714 C95.3692969,9.87492769 95.3006671,9.70943446 95.3006671,9.53685714 C95.3006671,9.36427983 95.3692969,9.1987866 95.4914286,9.07685714 L97.2145714,7.35714286 C97.4690872,7.10313666 97.8811985,7.10313666 98.1357143,7.35714286 L98.1357143,7.35714286 C98.2577931,7.47915836 98.3263817,7.64468493 98.3263817,7.81728571 C98.3263817,7.9898865 98.2577931,8.15541307 98.1357143,8.27742857 L97.1202857,9.29114286 C97.0548744,9.35623873 97.0181001,9.44471722 97.0181001,9.537 C97.0181001,9.62928278 97.0548744,9.71776127 97.1202857,9.78285714 L98.1062857,10.7677143 C98.1213985,10.7877403 98.135327,10.8086331 98.148,10.8302857 L100.415429,10.8302857 L99.366,9.78285714 C99.3007294,9.71768642 99.2640523,9.62923598 99.2640523,9.537 C99.2640523,9.44476402 99.3007294,9.35631358 99.366,9.29114286 L101.303143,7.35714286 C101.557273,7.10261851 101.969618,7.10229873 102.224143,7.3564286 C102.478667,7.61055847 102.478987,8.02290419 102.224857,8.27742857 L101.209429,9.29114286 C101.144017,9.35623873 101.107243,9.44471722 101.107243,9.537 C101.107243,9.62928278 101.144017,9.71776127 101.209429,9.78285714 L102.195714,10.7674286 C102.210988,10.7874392 102.224924,10.8084374 102.237429,10.8302857 L103.176286,10.8302857 C103.34898,10.8302099 103.51463,10.8987396 103.636797,11.020799 C103.758964,11.1428584 103.827639,11.308449 103.827714,11.4811429 L103.827714,16.6391429 C103.827399,16.9983782 103.536093,17.2894287 103.176857,17.2894286 L103.176857,17.2894286 Z M96.2545714,12.4785714 C96.2544957,12.3862761 96.2177588,12.297791 96.1524426,12.2325819 C96.0871263,12.1673728 95.9985811,12.1307813 95.9062857,12.1308571 L91.636,12.1308571 C91.44387,12.1308569 91.2880295,12.2864417 91.2877143,12.4785714 L91.2877143,13.0611429 C91.287872,13.2533842 91.4437586,13.4091429 91.636,13.4091429 L95.9062857,13.4091429 C95.9986305,13.4092187 96.0872191,13.372588 96.1525436,13.3073171 C96.2178681,13.2420462 96.2545715,13.1534877 96.2545714,13.0611429 L96.2545714,12.4785714 L96.2545714,12.4785714 Z M96.2545714,15.058 C96.2544957,14.9657047 96.2177588,14.8772196 96.1524426,14.8120105 C96.0871263,14.7468014 95.9985811,14.7102099 95.9062857,14.7102857 L91.636,14.7102857 C91.44387,14.7102855 91.2880295,14.8658703 91.2877143,15.058 L91.2877143,15.6405714 C91.2880293,15.8327474 91.4438238,15.9884142 91.636,15.9885714 L95.9062857,15.9885714 C96.0985271,15.9885715 96.2544137,15.8328127 96.2545714,15.6405714 L96.2545714,15.058 L96.2545714,15.058 Z M102.524857,12.4785714 C102.524781,12.3862761 102.488045,12.297791 102.422728,12.2325819 C102.357412,12.1673728 102.268867,12.1307813 102.176571,12.1308571 L97.9068571,12.1308571 C97.814486,12.1307055 97.7258379,12.1672544 97.6604144,12.2324635 C97.594991,12.2976726 97.5581514,12.3862003 97.558,12.4785714 L97.558,13.0611429 C97.5583153,13.2535419 97.7144579,13.4093008 97.9068571,13.4091429 L102.176571,13.4091429 C102.268916,13.4092187 102.357505,13.372588 102.422829,13.3073171 C102.488154,13.2420462 102.524857,13.1534877 102.524857,13.0611429 L102.524857,12.4785714 L102.524857,12.4785714 Z M102.524857,15.058 C102.524781,14.9657047 102.488045,14.8772196 102.422728,14.8120105 C102.357412,14.7468014 102.268867,14.7102099 102.176571,14.7102857 L97.9068571,14.7102857 C97.814486,14.710134 97.7258379,14.7466829 97.6604144,14.811892 C97.594991,14.8771011 97.5581514,14.9656288 97.558,15.058 L97.558,15.6405714 C97.5583153,15.8329705 97.7144579,15.9887294 97.9068571,15.9885714 L102.176571,15.9885714 C102.368813,15.9885715 102.524699,15.8328127 102.524857,15.6405714 L102.524857,15.058 L102.524857,15.058 Z M86.4691429,21.826 C86.8284435,21.826 87.1197143,22.1172707 87.1197143,22.4765714 C87.1197143,22.8358721 86.8284435,23.1271429 86.4691429,23.1271429 L83.5834286,23.1271429 L83.5834286,24.676 C83.5832771,24.8486938 83.5145294,25.0142544 83.3923093,25.1362602 C83.2700891,25.2582661 83.1044081,25.326723 82.9317143,25.3265714 L82.9317143,25.3265714 C82.5722095,25.3267293 82.2806012,25.0355047 82.2802857,24.676 L82.2802857,23.1285714 L79.3382857,23.1285714 C78.978985,23.1285714 78.6877143,22.8373007 78.6877143,22.478 C78.6877143,22.1186993 78.978985,21.8274286 79.3382857,21.8274286 L82.2794286,21.8274286 L82.2794286,20.336 L79.3382857,20.336 C79.1025575,20.3409398 78.8825907,20.218006 78.7632775,20.014643 C78.6439643,19.8112799 78.6439643,19.5592915 78.7632775,19.3559285 C78.8825907,19.1525654 79.1025575,19.0296317 79.3382857,19.0345714 L82.2794286,19.0345714 L82.2794286,17.6497143 L79.3382857,17.6497143 C79.1026603,17.654653 78.8827889,17.5317735 78.7635274,17.3284992 C78.644266,17.125225 78.644266,16.8733464 78.7635274,16.6700722 C78.8827889,16.466798 79.1026603,16.3439184 79.3382857,16.3488571 L82.2794286,16.3488571 L82.2794286,15.3368571 C82.2799016,14.9774641 82.5714638,14.6864134 82.9308571,14.6865714 L82.9308571,14.6865714 C83.290362,14.6862556 83.5820983,14.9773524 83.5825714,15.3368571 L83.5825714,16.3488571 L86.4682857,16.3488571 C86.7039111,16.3439184 86.9237825,16.466798 87.043044,16.6700722 C87.1623055,16.8733464 87.1623055,17.125225 87.043044,17.3284992 C86.9237825,17.5317735 86.7039111,17.654653 86.4682857,17.6497143 L83.5825714,17.6497143 L83.5825714,19.0345714 L86.4682857,19.0345714 C86.7040139,19.0296317 86.9239808,19.1525654 87.0432939,19.3559285 C87.1626071,19.5592915 87.1626071,19.8112799 87.0432939,20.014643 C86.9239808,20.218006 86.7040139,20.3409398 86.4682857,20.336 L83.5825714,20.336 L83.5825714,21.8274286 L86.4682857,21.8274286 L86.4691429,21.826 Z M86.622,14.212 C86.813035,14.3446986 86.9187648,14.5692332 86.8993619,14.8010237 C86.879959,15.0328143 86.7383713,15.2366462 86.5279333,15.3357381 C86.3174954,15.4348299 86.0701779,15.4141272 85.8791429,15.2814286 L83.3011429,13.4994286 C83.0775803,13.3450675 82.7818483,13.3450675 82.5582857,13.4994286 L79.9805714,15.2814286 C79.6852569,15.4865629 79.2795629,15.4134574 79.0744286,15.1181429 C78.8692942,14.8228283 78.9423997,14.4171343 79.2377143,14.212 L81.3702857,12.738 C81.4638334,12.6729508 81.5196117,12.5662268 81.5196117,12.4522857 C81.5196117,12.3383446 81.4638334,12.2316206 81.3702857,12.1665714 L79.4397143,10.832 C79.2665505,10.7124421 79.1619778,10.516453 79.1590838,10.3060453 C79.1561899,10.0956376 79.2553327,9.89684658 79.4251429,9.77257143 L82.5428571,7.48885714 C82.7725949,7.32096387 83.084548,7.32096387 83.3142857,7.48885714 L86.4322857,9.77257143 C86.6021277,9.89680097 86.7013231,10.0955643 86.6984859,10.3059716 C86.6956487,10.5163789 86.59113,10.7123952 86.418,10.832 L84.4871429,12.1665714 C84.3934757,12.2315395 84.3376017,12.3382928 84.3376017,12.4522857 C84.3376017,12.5662786 84.3934757,12.6730319 84.4871429,12.738 L86.622,14.212 Z M84.5245714,10.5591429 C84.6171597,10.4952741 84.6730989,10.3905333 84.6746878,10.2780642 C84.6762767,10.1655951 84.6233186,10.0593159 84.5325714,9.99285714 L83.3165714,9.102 C83.086923,8.93383357 82.7747913,8.93383357 82.5451429,9.102 L81.3294286,9.99285714 C81.2386495,10.0592703 81.185639,10.1655218 81.1871711,10.2779905 C81.1887032,10.3904591 81.2445884,10.4952272 81.3371429,10.5591429 L82.5597143,11.404 C82.7829931,11.5592688 83.0792926,11.5592688 83.3025714,11.404 L84.5245714,10.5591429 Z M77.5171429,24.676 C77.5158864,25.0351133 77.224829,25.3257878 76.8657143,25.3265714 L71.8045714,25.3265714 C71.568946,25.3315101 71.3490746,25.2086306 71.2298132,25.0053564 C71.1105517,24.8020821 71.1105517,24.5502036 71.2298132,24.3469293 C71.3490746,24.1436551 71.568946,24.0207756 71.8045714,24.0257143 L73.7362857,24.0257143 C73.7254269,23.98952 73.7178721,23.9524158 73.7137143,23.9148571 L73.7137143,19.6337143 L71.9111429,19.6337143 C71.7264037,19.6340176 71.549123,19.5608625 71.4183586,19.4303661 C71.2875943,19.2998696 71.2140756,19.1227393 71.214,18.938 L71.214,10.1825714 C71.2140757,9.99780588 71.2875853,9.8206463 71.4183414,9.69010454 C71.5490975,9.55956277 71.7263774,9.48634396 71.9111429,9.48657143 L73.7142857,9.48657143 L73.7142857,7.78571429 C73.7144372,7.61302044 73.7831849,7.44745987 73.905405,7.32545405 C74.0276252,7.20344823 74.1933062,7.13499124 74.366,7.13514286 L74.366,7.13514286 C74.5386938,7.13499124 74.7043748,7.20344823 74.826595,7.32545405 C74.9488151,7.44745987 75.0175628,7.61302044 75.0177143,7.78571429 L75.0177143,9.48742857 L76.8205714,9.48742857 C77.0052874,9.48727696 77.1824939,9.56052927 77.3131882,9.69106281 C77.4438825,9.82159635 77.5173528,9.99871258 77.5174286,10.1834286 L77.5174286,18.9388571 C77.5173529,19.1235469 77.4438734,19.3006338 77.3131709,19.431122 C77.1824684,19.5616102 77.0052611,19.6347989 76.8205714,19.6345714 L75.0177143,19.6345714 L75.0177143,23.9157143 C75.0136988,23.9532951 75.0061414,23.9904124 74.9951429,24.0265714 L76.866,24.0265714 C77.2245594,24.027508 77.515261,24.3174443 77.5171429,24.676 L77.5171429,24.676 Z M73.7142857,10.7877143 L72.8657143,10.7877143 C72.7733432,10.7876385 72.6847252,10.8242601 72.6193554,10.8895227 C72.5539855,10.9547854 72.5172186,11.0433432 72.5171429,11.1357143 L72.5171429,17.9857143 C72.5174582,18.1779556 72.6734728,18.3335865 72.8657143,18.3334286 L73.7142857,18.3334286 L73.7142857,10.7877143 L73.7142857,10.7877143 Z M75.018,18.3328571 L75.866,18.3328571 C76.0581764,18.3328577 76.2140989,18.1773187 76.2145714,17.9851429 L76.2145714,11.1357143 C76.2144957,11.0433432 76.1777287,10.9547854 76.1123589,10.8895227 C76.0469891,10.8242601 75.9583711,10.7876385 75.866,10.7877143 L75.018,10.7877143 L75.018,18.3328571 L75.018,18.3328571 Z M68.7362857,24.6757143 C68.7348725,25.0348738 68.4437329,25.3255029 68.0845714,25.3262857 L65.7565714,25.3262857 C65.520946,25.3312244 65.3010746,25.2083449 65.1818132,25.0050707 C65.0625517,24.8017964 65.0625517,24.5499179 65.1818132,24.3466436 C65.3010746,24.1433694 65.520946,24.0204899 65.7565714,24.0254286 L67.4328571,24.0254286 L67.4328571,17.762 C67.4323846,17.5698241 67.2764622,17.4142851 67.0842857,17.4142857 L66.0774286,17.4142857 C65.8208085,17.4142364 65.5880478,17.564787 65.4828571,17.7988571 L61.9362857,24.924 C61.7885716,25.2518663 61.4032898,25.3982325 61.0751429,25.2511429 L61.0751429,25.2511429 C60.9175742,25.1807163 60.7944839,25.0505148 60.7330087,24.8892431 C60.6715336,24.7279713 60.6767214,24.5488715 60.7474286,24.3914286 L64.0068571,17.9057143 C64.0552893,17.797981 64.0457175,17.673028 63.9814414,17.5739285 C63.9171653,17.4748289 63.8069759,17.4151367 63.6888571,17.4154286 L60.96,17.4154286 C60.7030818,17.4154009 60.4700777,17.566188 60.3648571,17.8005714 L56.8625714,24.8471429 C56.7157426,25.1756733 56.3303877,25.3229716 56.0018572,25.1761428 C55.6733267,25.029314 55.5260283,24.6439591 55.6728571,24.3154286 L58.8897143,17.9057143 C58.9385237,17.7978165 58.9291126,17.6725029 58.8647354,17.5731054 C58.8003582,17.4737079 58.689852,17.4138711 58.5714286,17.4142857 L56.2457143,17.4142857 C55.9804844,17.4142562 55.7416695,17.5748971 55.6417143,17.8205714 L55.0028571,19.396 C54.8678629,19.7296588 54.4879446,19.8907084 54.1542857,19.7557142 C53.8206269,19.62072 53.6595773,19.2408017 53.7945714,18.9071429 L54.7634286,16.5194286 C54.8633445,16.2738507 55.1020171,16.1132296 55.3671429,16.1131429 L68.0845714,16.1131429 C68.4440763,16.1128271 68.7358126,16.4039239 68.7362857,16.7634286 L68.7362857,24.6654286 L68.7362857,24.6711429 C68.7362857,24.6731429 68.7357143,24.6742857 68.7357143,24.676 L68.7362857,24.6757143 Z M67.5077143,14.6825714 L55.6914286,14.6825714 C55.5066631,14.6827989 55.3293832,14.6095801 55.1986271,14.4790383 C55.067871,14.3484966 54.9943614,14.171337 54.9942857,13.9865714 L54.9942857,7.87142857 C54.9944372,7.68668632 55.0679711,7.50957082 55.1987108,7.37904549 C55.3294504,7.24852016 55.5066863,7.17527696 55.6914286,7.17542857 L67.5062857,7.17542857 C67.8909263,7.17527058 68.2029555,7.4867882 68.2034286,7.87142857 L68.2034286,13.9857143 C68.2036564,14.1706778 68.1302808,14.3481312 67.9994917,14.4789203 C67.8687027,14.6097094 67.6912492,14.683085 67.5062857,14.6828571 L67.5077143,14.6825714 Z M66.9014286,8.82542857 C66.9013528,8.73298167 66.8645558,8.64435125 66.7991324,8.579035 C66.733709,8.51371875 66.6450183,8.47706705 66.5525714,8.47714286 L56.646,8.47714286 C56.4536471,8.47714286 56.2977143,8.63307568 56.2977143,8.82542857 L56.2977143,9.93057143 C56.2977143,10.0229163 56.3344177,10.1114748 56.3997421,10.1767457 C56.4650666,10.2420165 56.5536552,10.2786472 56.646,10.2785714 L66.5511429,10.2785714 C66.6435635,10.2787231 66.7322548,10.242135 66.7976865,10.1768641 C66.8631181,10.1115932 66.8999243,10.0229921 66.9,9.93057143 L66.9,8.82542857 L66.9014286,8.82542857 Z M66.9014286,11.9277143 C66.9011132,11.7353152 66.7449707,11.5795563 66.5525714,11.5797143 L56.646,11.5797143 C56.5535531,11.57979 56.4649227,11.6165871 56.3996064,11.6820105 C56.3342902,11.7474339 56.2976385,11.8361245 56.2977143,11.9285714 L56.2977143,13.0342857 C56.2981865,13.2263501 56.4539351,13.3818432 56.646,13.382 L66.5511429,13.382 C66.7434308,13.3821582 66.8995272,13.2265732 66.9,13.0342857 L66.9,11.9285714 L66.9014286,11.9277143 Z M51.2774286,25.2877143 C51.1048105,25.2878659 50.9392022,25.219439 50.8170356,25.0974868 C50.6948691,24.9755345 50.6261515,24.8100466 50.626,24.6374286 L50.626,9.08342857 C50.6258486,8.91068517 50.5570616,8.74508126 50.4347797,8.62306722 C50.3124977,8.50105318 50.1467433,8.43262968 49.974,8.43285714 L38.168,8.43285714 C37.9952567,8.43262968 37.8295023,8.50105318 37.7072203,8.62306722 C37.5849384,8.74508126 37.5161514,8.91068517 37.516,9.08342857 L37.516,24.638 C37.5085738,24.9926932 37.2189138,25.2763521 36.8641429,25.2763521 C36.5093719,25.2763521 36.2197119,24.9926932 36.2122857,24.638 L36.2122857,7.78257143 C36.2125129,7.60980178 36.2813633,7.4441986 36.4036907,7.32219275 C36.526018,7.20018691 36.6918018,7.13177252 36.8645714,7.132 L51.276,7.132 C51.4486938,7.13184838 51.6143748,7.20030537 51.736595,7.32231119 C51.8588151,7.44431702 51.9275628,7.60987759 51.9277143,7.78257143 L51.9277143,24.638 C51.9275628,24.8106676 51.858806,24.9761989 51.7365777,25.0981593 C51.6143493,25.2201198 51.4486675,25.2885132 51.276,25.2882857 L51.2774286,25.2877143 Z M39.0954286,12.09 C39.0466844,11.9427532 39.0640425,11.7816172 39.1430284,11.64813 C39.2220143,11.5146427 39.3548995,11.4218654 39.5074286,11.3937143 C39.8304341,11.2899924 40.180734,11.4380561 40.3314286,11.742 L41.3328571,14.2762857 C41.3585228,14.3259576 41.4099017,14.3570147 41.4658114,14.3566529 C41.5217211,14.356291 41.5726937,14.3245714 41.5977143,14.2745714 L42.5448571,11.7494286 C42.6902604,11.4431211 43.0388167,11.2903994 43.3625714,11.3911429 C43.5156837,11.4172232 43.6501244,11.5080351 43.7314862,11.6403369 C43.812848,11.7726388 43.8332347,11.9335906 43.7874286,12.082 L42.1817143,16.3571429 C42.1724314,16.3807389 42.1724314,16.4069754 42.1817143,16.4305714 L43.9491429,20.9051429 C44.1248571,21.3508571 43.5888571,21.8517143 42.8634286,21.5282857 C42.8325325,21.5150078 42.8080343,21.4902021 42.7951429,21.4591429 L41.6345714,18.5214286 C41.6092814,18.4714394 41.5580223,18.4399264 41.502,18.4399264 C41.4459777,18.4399264 41.3947186,18.4714394 41.3694286,18.5214286 L40.348,21.244 C40.2028027,21.5505458 39.8542532,21.7036299 39.5302857,21.6031429 C39.3771791,21.5770782 39.2427496,21.4862538 39.1614318,21.3539344 C39.080114,21.2216151 39.0598076,21.0606554 39.1057143,20.9122857 L40.7842857,16.438 C40.7931293,16.4146178 40.7931293,16.3888108 40.7842857,16.3654286 L39.0954286,12.09 Z M44.4288571,12.09 C44.3799105,11.9427939 44.3971422,11.7816015 44.4761003,11.6480686 C44.5550584,11.5145357 44.6879975,11.4217611 44.8405714,11.3937143 C45.1636631,11.2898302 45.5141432,11.4379186 45.6648571,11.742 L46.6648571,14.2762857 C46.6905599,14.3260872 46.7420556,14.3572321 46.7980974,14.3568701 C46.8541393,14.3565082 46.9052284,14.3247008 46.9302857,14.2745714 L47.8771429,11.7494286 C48.0226378,11.4432156 48.3711098,11.2905308 48.6948571,11.3911429 C48.8480161,11.4171359 48.9825195,11.5079309 49.0638977,11.6402596 C49.145276,11.7725882 49.1656194,11.9335883 49.1197143,12.082 L47.5142857,16.3571429 C47.5051427,16.3807652 47.5051427,16.4069491 47.5142857,16.4305714 L49.2817143,20.9051429 C49.4574286,21.3508571 48.9214286,21.8517143 48.196,21.5282857 C48.1650308,21.515018 48.1404388,21.4902211 48.1274286,21.4591429 L46.9671429,18.5214286 C46.9418528,18.4714394 46.8905938,18.4399264 46.8345714,18.4399264 C46.7785491,18.4399264 46.72729,18.4714394 46.702,18.5214286 L45.6802857,21.244 C45.5351803,21.5506403 45.1865463,21.7037615 44.8625714,21.6031429 C44.7094592,21.5770625 44.5750185,21.4862507 44.4936566,21.3539488 C44.4122948,21.2216469 44.3919082,21.0606951 44.4377143,20.9122857 L46.1165714,16.438 C46.1257149,16.4146735 46.1257149,16.388755 46.1165714,16.3654286 L44.4288571,12.09 Z" id="logo_拷贝"></path>
        </g>
    </g>
</svg>