<svg width="400" height="225" viewBox="0 0 400 225" fill="none" xmlns="http://www.w3.org/2000/svg">
<rect width="400" height="225" fill="#F4F6F9"/>
<rect x="65" y="52" width="270.222" height="152" fill="#E6E8EB"/>
<path d="M65 20H189V52H65V20Z" fill="#ABAEB3"/>
<g opacity="0.6">
<rect opacity="0.01" x="137" y="26" width="20" height="20" fill="white"/>
<path fill-rule="evenodd" clip-rule="evenodd" d="M145 31.6002C144.971 31.6002 144.947 31.6246 144.947 31.6533V31.9005H143.947V31.6533C143.947 31.0717 144.419 30.6002 145 30.6002L151.377 30.6003C151.959 30.6003 152.43 31.0727 152.43 31.6534V37.9972C152.43 38.5788 151.958 39.0503 151.377 39.0503H151.1V38.0503H151.377C151.406 38.0503 151.43 38.026 151.43 37.9972V31.6534C151.43 31.6245 151.406 31.6003 151.377 31.6003L145 31.6002ZM142.967 33.6031C142.967 33.5743 142.991 33.5499 143.02 33.5499L149.397 33.55C149.426 33.55 149.45 33.5742 149.45 33.6031V39.9469C149.45 39.9757 149.426 40 149.397 40L143.02 39.9999C142.991 39.9999 142.967 39.9758 142.967 39.9468V33.6031ZM141.967 33.6031C141.967 33.0214 142.439 32.5499 143.02 32.5499L149.397 32.55C149.979 32.55 150.45 33.0225 150.45 33.6031V39.9469C150.45 40.5285 149.978 41 149.397 41L143.02 40.9999C142.438 40.9999 141.967 40.5275 141.967 39.9468V33.6031Z" fill="white"/>
</g>
<g opacity="0.6">
<rect opacity="0.01" x="161" y="26" width="20" height="20" fill="white"/>
<path d="M169.052 38.9416V33.539H170.052V38.9416H169.052Z" fill="white"/>
<path d="M171.753 33.539V38.9416H172.753V33.539H171.753Z" fill="white"/>
<path fill-rule="evenodd" clip-rule="evenodd" d="M175.617 32.3505V39.292C175.617 40.3966 174.721 41.292 173.617 41.292H168.188C167.084 41.292 166.188 40.3966 166.188 39.292V32.3505H165.5V31.3505H166.188V31.3474L168.722 31.3474C168.798 30.5906 169.437 29.9999 170.214 29.9999H171.591C172.368 29.9999 173.007 30.5906 173.083 31.3474L175.617 31.3475V31.3505H176.305V32.3505H175.617ZM167.188 32.3505V39.292C167.188 39.8443 167.636 40.292 168.188 40.292H173.617C174.169 40.292 174.617 39.8443 174.617 39.292V32.3505H167.188ZM171.591 30.9999C171.814 30.9999 172.003 31.1459 172.067 31.3474L169.738 31.3474C169.802 31.1459 169.991 30.9999 170.214 30.9999H171.591Z" fill="white"/>
</g>
<path d="M77.728 38.512C76.6 39.028 75.268 39.436 73.732 39.748L73.84 40.6C75.304 40.288 76.6 39.856 77.728 39.328V38.512ZM75.844 30.208C75.316 31.576 74.704 32.776 73.996 33.832C73.876 34 73.756 34.108 73.624 34.156L73.84 34.96C74.56 34.864 75.256 34.768 75.952 34.66C75.268 35.776 74.692 36.568 74.212 37.036C74.104 37.132 73.972 37.216 73.816 37.288L74.044 38.092C75.244 37.924 76.492 37.6 77.8 37.132V36.34C76.912 36.676 76.024 36.94 75.136 37.132C75.892 36.256 76.84 34.792 77.992 32.728L77.212 32.428C76.936 32.944 76.672 33.424 76.42 33.868C75.844 33.964 75.28 34.048 74.704 34.096C75.364 33.208 76.012 32.02 76.66 30.532L75.844 30.208ZM83.44 30.76H78.568V39.94H77.524V40.78H84.46V39.94H83.44V30.76ZM79.42 39.94V37.66H82.588V39.94H79.42ZM79.42 36.844V34.576H82.588V36.844H79.42ZM79.42 33.76V31.588H82.588V33.76H79.42ZM88.144 30.124C87.568 31.996 86.656 33.664 85.384 35.104L85.66 36.028C86.116 35.548 86.536 35.044 86.92 34.516V41.212H87.772V33.196C88.252 32.344 88.648 31.444 88.96 30.496L88.144 30.124ZM90.16 30.916C89.896 32.512 89.404 33.868 88.672 34.972L89.224 35.692C89.668 35.068 90.04 34.36 90.34 33.568H92.38V36.46H88.852V37.288H92.38V41.152H93.244V37.288H96.448V36.46H93.244V33.568H96.004V32.728H93.244V30.232H92.38V32.728H90.616C90.784 32.2 90.916 31.624 91.012 31.024L90.16 30.916Z" fill="white"/>
<rect opacity="0.01" x="113" y="26" width="20" height="20" fill="#4E75EC"/>
<path d="M123.5 35.4998V30.9998H122.5V35.4998H118V36.4998H122.5V40.9998H123.5V36.4998H128V35.4998H123.5Z" fill="#4E75EC"/>
<path fill-rule="evenodd" clip-rule="evenodd" d="M180.788 89.1062C159.486 63.0581 138.931 58.6473 138.931 58.6473C138.931 58.6473 158.855 74.827 168.119 96.4206L158.434 102.012L183.012 108.598L189.598 84.0196L180.788 89.1062Z" fill="url(#paint0_linear)"/>
<g filter="url(#filter0_d)">
<circle cx="123" cy="36" r="23.5" stroke="white" shape-rendering="crispEdges"/>
</g>
<path fill-rule="evenodd" clip-rule="evenodd" d="M140.889 52C144.689 47.7539 147 42.1468 147 36C147 29.8532 144.689 24.2461 140.889 20H105.111C101.311 24.2461 99 29.8532 99 36C99 42.1468 101.311 47.7539 105.111 52H140.889Z" fill="#4E75EC"/>
<rect opacity="0.01" x="113" y="26" width="20" height="20" fill="white"/>
<path d="M123.5 35.4998V30.9998H122.5V35.4998H118V36.4998H122.5V40.9998H123.5V36.4998H128V35.4998H123.5Z" fill="white"/>
<circle cx="123" cy="36" r="23.5" stroke="white"/>
<path d="M113.512 122.388L112.924 122.952C113.776 123.624 114.448 124.26 114.94 124.86L115.54 124.26C114.988 123.636 114.316 123.012 113.512 122.388ZM120.484 132.984H123.268L123.484 132.12C123.16 132.144 122.704 132.156 122.128 132.168C121.528 132.18 120.94 132.192 120.364 132.192C119.428 132.192 118.636 132.18 118.012 132.168C117.292 132.144 116.752 132.048 116.38 131.88C116.044 131.724 115.732 131.472 115.444 131.124C115.348 131.016 115.252 130.92 115.156 130.848V126.36H112.648V127.152H114.352V130.8C113.848 131.016 113.284 131.64 112.636 132.66L113.284 133.248C113.956 132.12 114.436 131.568 114.736 131.568C114.88 131.568 115.036 131.664 115.204 131.868C115.576 132.3 115.996 132.6 116.464 132.744C116.944 132.876 117.58 132.948 118.348 132.96C119.116 132.972 119.836 132.984 120.484 132.984ZM119.452 122.16V123.696H117.868C118.012 123.312 118.144 122.916 118.264 122.496L117.436 122.328C117.148 123.408 116.68 124.404 116.032 125.304L116.788 125.772C117.052 125.388 117.292 124.98 117.508 124.524H119.452V126.24H116.332V127.08H118.264C118.228 127.824 118.108 128.472 117.904 129C117.592 129.72 116.956 130.32 115.984 130.8L116.548 131.484C117.676 130.896 118.408 130.14 118.72 129.228C118.924 128.628 119.044 127.908 119.08 127.08H120.292V130.488C120.292 130.752 120.364 130.968 120.532 131.136C120.688 131.304 120.916 131.388 121.228 131.388H122.092C122.5 131.376 122.788 131.28 122.956 131.112C123.136 130.92 123.268 130.332 123.34 129.336L122.584 129.084C122.536 129.936 122.44 130.416 122.296 130.524C122.2 130.596 122.08 130.632 121.912 130.632H121.48C121.216 130.632 121.096 130.512 121.096 130.296V127.08H123.112V126.24H120.292V124.524H122.692V123.696H120.292V122.16H119.452ZM129.556 122.148V124.308H125.26V129.948H126.124V129.192H129.556V133.284H130.444V129.192H133.888V129.948H134.752V124.308H130.444V122.148H129.556ZM126.124 128.352V125.148H129.556V128.352H126.124ZM130.444 128.352V125.148H133.888V128.352H130.444ZM140.728 130.512C139.6 131.028 138.268 131.436 136.732 131.748L136.84 132.6C138.304 132.288 139.6 131.856 140.728 131.328V130.512ZM138.844 122.208C138.316 123.576 137.704 124.776 136.996 125.832C136.876 126 136.756 126.108 136.624 126.156L136.84 126.96C137.56 126.864 138.256 126.768 138.952 126.66C138.268 127.776 137.692 128.568 137.212 129.036C137.104 129.132 136.972 129.216 136.816 129.288L137.044 130.092C138.244 129.924 139.492 129.6 140.8 129.132V128.34C139.912 128.676 139.024 128.94 138.136 129.132C138.892 128.256 139.84 126.792 140.992 124.728L140.212 124.428C139.936 124.944 139.672 125.424 139.42 125.868C138.844 125.964 138.28 126.048 137.704 126.096C138.364 125.208 139.012 124.02 139.66 122.532L138.844 122.208ZM146.44 122.76H141.568V131.94H140.524V132.78H147.46V131.94H146.44V122.76ZM142.42 131.94V129.66H145.588V131.94H142.42ZM142.42 128.844V126.576H145.588V128.844H142.42ZM142.42 125.76V123.588H145.588V125.76H142.42ZM151.144 122.124C150.568 123.996 149.656 125.664 148.384 127.104L148.66 128.028C149.116 127.548 149.536 127.044 149.92 126.516V133.212H150.772V125.196C151.252 124.344 151.648 123.444 151.96 122.496L151.144 122.124ZM153.16 122.916C152.896 124.512 152.404 125.868 151.672 126.972L152.224 127.692C152.668 127.068 153.04 126.36 153.34 125.568H155.38V128.46H151.852V129.288H155.38V133.152H156.244V129.288H159.448V128.46H156.244V125.568H159.004V124.728H156.244V122.232H155.38V124.728H153.616C153.784 124.2 153.916 123.624 154.012 123.024L153.16 122.916ZM162.232 130.572C161.992 130.572 161.812 130.632 161.668 130.776C161.524 130.908 161.452 131.088 161.452 131.316C161.452 131.52 161.524 131.7 161.668 131.844C161.812 131.988 161.98 132.06 162.184 132.06C162.304 132.06 162.4 132.036 162.448 132.012C162.448 132.3 162.364 132.564 162.184 132.816C161.992 133.056 161.74 133.236 161.428 133.344V133.932C161.932 133.8 162.352 133.536 162.664 133.152C162.976 132.744 163.132 132.276 163.132 131.748C163.132 131.4 163.048 131.124 162.892 130.908C162.724 130.68 162.496 130.572 162.232 130.572ZM177.376 122.22V125.724H174.112V129.576H182.056V125.724H178.228V124.2H182.884V123.384H178.228V122.22H177.376ZM181.192 128.772H174.976V126.54H181.192V128.772ZM174.088 130.104C173.656 131.088 173.14 131.94 172.54 132.648L173.248 133.164C173.848 132.396 174.364 131.496 174.82 130.452L174.088 130.104ZM176.704 130.452L175.9 130.62C176.128 131.376 176.32 132.24 176.488 133.224L177.352 133.032C177.16 132.108 176.944 131.244 176.704 130.452ZM179.212 130.332L178.396 130.5C178.756 131.28 179.056 132.18 179.296 133.2L180.148 133.008C179.884 132.048 179.572 131.148 179.212 130.332ZM181.672 130.092L180.976 130.536C181.708 131.52 182.284 132.408 182.704 133.224L183.424 132.72C183.016 131.976 182.44 131.1 181.672 130.092ZM185.632 123.972V124.8H189.556V126.792H184.708V127.632H189.556V131.868H186.736V128.676H185.908V133.224H186.736V132.672H193.276V133.224H194.104V128.676H193.276V131.868H190.444V127.632H195.304V126.792H190.444V124.8H194.32V123.972H190.444V122.28H189.556V123.972H185.632ZM230.453 122.628V125.868H237.485V122.628H230.453ZM236.597 125.088H231.341V123.408H236.597V125.088ZM231.317 127.728L230.753 129.912H236.777C236.705 130.992 236.597 131.664 236.453 131.928C236.297 132.192 235.901 132.324 235.253 132.324C234.761 132.324 234.197 132.3 233.561 132.252L233.849 133.044C234.317 133.092 234.845 133.116 235.445 133.116C236.261 133.116 236.813 132.936 237.101 132.576C237.389 132.204 237.581 131.052 237.653 129.132H231.785L232.193 127.728H239.357V126.9H228.569V127.728H231.317ZM243.929 122.676V123.48H246.509C246.413 124.008 246.281 124.512 246.089 124.992H243.377V125.82H245.705C245.657 125.892 245.609 125.964 245.561 126.048C244.985 126.912 244.133 127.668 242.993 128.292L243.533 128.976C244.733 128.244 245.645 127.416 246.257 126.492C246.377 126.276 246.497 126.06 246.617 125.82H247.769C248.429 127.068 249.557 128.088 251.153 128.868L251.525 128.112C250.229 127.56 249.269 126.792 248.645 125.82H251.165V124.992H246.953C247.121 124.524 247.253 124.02 247.373 123.48H250.637V122.676H243.929ZM244.661 129.012C244.229 130.188 243.713 131.196 243.125 132.048L243.833 132.552C244.421 131.652 244.937 130.584 245.381 129.36L244.661 129.012ZM241.373 122.376L240.773 122.952C241.577 123.504 242.213 124.032 242.669 124.524L243.257 123.936C242.753 123.408 242.117 122.892 241.373 122.376ZM241.085 125.244L240.497 125.82C241.313 126.444 241.949 127.044 242.417 127.596L243.005 127.008C242.489 126.42 241.853 125.832 241.085 125.244ZM242.177 128.556C241.709 129.996 241.157 131.412 240.533 132.78L241.337 133.14C241.913 131.796 242.453 130.368 242.933 128.856L242.177 128.556ZM246.233 133.212C246.833 133.212 247.133 132.864 247.133 132.18V127.584H246.305V131.976C246.305 132.288 246.173 132.456 245.933 132.456C245.621 132.456 245.285 132.432 244.937 132.396L245.117 133.212H246.233ZM249.941 128.724L249.185 128.976C249.713 129.984 250.193 131.16 250.637 132.48L251.405 132.144C250.997 130.932 250.505 129.792 249.941 128.724ZM248.357 129.156L247.625 129.408C248.093 130.416 248.513 131.568 248.897 132.888L249.665 132.54C249.293 131.34 248.861 130.212 248.357 129.156ZM262.901 123.984H258.977V133.02H259.805V132.216H262.061V133.02H262.901V123.984ZM259.805 131.388V124.812H262.061V131.388H259.805ZM254.561 122.232V124.656H252.641V125.496H254.561C254.525 128.784 253.805 131.184 252.413 132.684L253.049 133.248C254.585 131.616 255.377 129.036 255.425 125.496H257.021C256.997 128.712 256.949 130.644 256.877 131.268C256.781 131.952 256.421 132.3 255.809 132.3C255.521 132.3 255.185 132.276 254.801 132.252L255.017 133.044C255.449 133.068 255.749 133.092 255.929 133.092C256.985 133.092 257.573 132.588 257.693 131.604C257.813 130.716 257.873 128.4 257.873 124.656H255.425V122.232H254.561ZM264.725 127.356V128.196H269.777V131.76C269.777 132.12 269.585 132.312 269.201 132.312C268.505 132.312 267.869 132.3 267.269 132.276L267.497 133.116H269.549C270.281 133.116 270.653 132.756 270.653 132.036V128.196H275.213V127.356H270.653V126.096C271.877 125.292 272.957 124.44 273.905 123.54V122.724H265.985V123.54H272.729C271.793 124.356 270.809 125.064 269.777 125.652V127.356H264.725ZM280.697 130.512C279.569 131.028 278.237 131.436 276.701 131.748L276.809 132.6C278.273 132.288 279.569 131.856 280.697 131.328V130.512ZM278.813 122.208C278.285 123.576 277.673 124.776 276.965 125.832C276.845 126 276.725 126.108 276.593 126.156L276.809 126.96C277.529 126.864 278.225 126.768 278.921 126.66C278.237 127.776 277.661 128.568 277.181 129.036C277.073 129.132 276.941 129.216 276.785 129.288L277.013 130.092C278.213 129.924 279.461 129.6 280.769 129.132V128.34C279.881 128.676 278.993 128.94 278.105 129.132C278.861 128.256 279.809 126.792 280.961 124.728L280.181 124.428C279.905 124.944 279.641 125.424 279.389 125.868C278.813 125.964 278.249 126.048 277.673 126.096C278.333 125.208 278.981 124.02 279.629 122.532L278.813 122.208ZM286.409 122.76H281.537V131.94H280.493V132.78H287.429V131.94H286.409V122.76ZM282.389 131.94V129.66H285.557V131.94H282.389ZM282.389 128.844V126.576H285.557V128.844H282.389ZM282.389 125.76V123.588H285.557V125.76H282.389ZM291.113 122.124C290.537 123.996 289.625 125.664 288.353 127.104L288.629 128.028C289.085 127.548 289.505 127.044 289.889 126.516V133.212H290.741V125.196C291.221 124.344 291.617 123.444 291.929 122.496L291.113 122.124ZM293.129 122.916C292.865 124.512 292.373 125.868 291.641 126.972L292.193 127.692C292.637 127.068 293.009 126.36 293.309 125.568H295.349V128.46H291.821V129.288H295.349V133.152H296.213V129.288H299.417V128.46H296.213V125.568H298.973V124.728H296.213V122.232H295.349V124.728H293.585C293.753 124.2 293.885 123.624 293.981 123.024L293.129 122.916Z" fill="#666666"/>
<rect x="200" y="120" width="24" height="16" fill="#4E75EC"/>
<rect opacity="0.01" x="206" y="122" width="12" height="12" fill="white"/>
<path d="M212.3 127.7V125H211.7V127.7H209V128.3H211.7V131H212.3V128.3H215V127.7H212.3Z" fill="white"/>
<defs>
<filter id="filter0_d" x="87" y="0" width="72" height="72" filterUnits="userSpaceOnUse" color-interpolation-filters="sRGB">
<feFlood flood-opacity="0" result="BackgroundImageFix"/>
<feColorMatrix in="SourceAlpha" type="matrix" values="0 0 0 0 0 0 0 0 0 0 0 0 0 0 0 0 0 0 127 0" result="hardAlpha"/>
<feOffset/>
<feGaussianBlur stdDeviation="6"/>
<feComposite in2="hardAlpha" operator="out"/>
<feColorMatrix type="matrix" values="0 0 0 0 0 0 0 0 0 0 0 0 0 0 0 0 0 0 1 0"/>
<feBlend mode="normal" in2="BackgroundImageFix" result="effect1_dropShadow"/>
<feBlend mode="normal" in="SourceGraphic" in2="effect1_dropShadow" result="shape"/>
</filter>
<linearGradient id="paint0_linear" x1="204.5" y1="121.5" x2="136" y2="50" gradientUnits="userSpaceOnUse">
<stop stop-color="#ABAEB2"/>
<stop offset="1" stop-color="#ABAEB2" stop-opacity="0"/>
</linearGradient>
</defs>
</svg>
