<?xml version="1.0" encoding="UTF-8"?>
<svg width="104px" height="64px" viewBox="0 0 104 64" version="1.1" xmlns="http://www.w3.org/2000/svg" xmlns:xlink="http://www.w3.org/1999/xlink">
    <!-- Generator: Sketch 39.1 (31720) - http://www.bohemiancoding.com/sketch -->
    <title>logo-yiwu-2color</title>
    <desc>Created with Sketch.</desc>
    <defs></defs>
    <g id="Page-1" stroke="none" stroke-width="1" fill="none" fill-rule="evenodd">
        <g id="logo-yiwu-2color" transform="translate(0.000000, 18.000000)">
            <g id="双色.svg">
                <path d="M29.8640374,27.1313645 L25.247215,27.1313645 C26.1010286,26.4168155 26.8995106,25.6386408 27.6358131,24.803514 L29.8654953,24.803514 C33.2203186,24.7890513 35.9282744,22.0578149 35.9140187,18.7029907 C35.9023654,16.2733775 34.4695306,14.075553 32.2511776,13.0845607 L32.2511776,11.960972 C32.264376,11.5046408 32.2377078,11.0480286 32.1714766,10.5963364 C35.7093668,11.7025618 38.1659259,14.9185201 38.3026168,18.6228037 C38.3192959,23.3015437 34.5427555,27.109403 29.8640374,27.1313645 L29.8640374,27.1313645 Z M23.4937944,27.2115514 L10.036972,27.2115514 C7.42843933,27.2029367 4.93037227,26.1574966 3.09324974,24.3056064 C1.25612721,22.4537161 0.230720645,19.9473591 0.242990654,17.3388411 C0.271865099,12.6816549 3.50475902,8.65790295 8.04639252,7.62650467 C9.57634474,3.70285032 13.0522688,0.869242657 17.2037383,0.161345794 C17.8640831,0.0677172333 18.5294558,0.0138382772 19.1962617,0 C22.36831,0.00373787788 25.40726,1.27527461 27.636785,3.53162617 C29.8816272,5.79438036 31.1409497,8.85280992 31.1402243,12.0401869 L31.1402243,12.7623551 C30.9816942,18.365626 28.2860104,23.5933968 23.8130841,26.9719626 L23.4937944,27.2115514 Z M7.24986916,10.3552897 C4.35828971,11.4608383 2.45499419,14.2431737 2.4726729,17.3388411 C2.46233791,19.3324945 3.24557828,21.2483536 4.64961337,22.6637851 C6.05364845,24.0792165 7.96311322,24.877919 9.95678505,24.8837009 L16.8052336,24.8837009 C17.6762005,24.1542867 18.4520711,23.3183318 19.1146168,22.3954766 C19.5694576,21.7903427 19.9690789,21.1456139 20.3086729,20.4690467 C19.1864087,20.8827048 18.0012543,21.0998762 16.8052336,21.111028 C11.4862292,21.1088838 7.17440843,16.7983681 7.17065421,11.4793645 C7.15757541,11.1029319 7.18412646,10.7261677 7.24986916,10.3552897 L7.24986916,10.3552897 Z M28.9085981,12.4450093 L28.9085981,12.1237757 C28.8754586,6.77319178 24.5468371,2.44348734 19.1962617,2.40900935 C18.6641237,2.39366334 18.1316061,2.4204761 17.6037009,2.48919626 C14.1512703,3.10550073 11.2945236,5.52594429 10.1195888,8.83028037 C10.0398879,9.07327103 9.96018692,9.39207477 9.88048598,9.6331215 C9.7232562,10.2085106 9.64301796,10.8022082 9.64186916,11.3986916 C9.64041656,15.4106248 12.8760345,18.6722839 16.8878505,18.7029907 C17.28771,18.7162262 17.6878895,18.6893631 18.0823925,18.6228037 C19.748533,18.3754812 21.3167629,17.6821284 22.620972,16.6161869 C23.3798153,16.0112256 24.0265874,15.2777677 24.5318505,14.4491963 C24.5449717,14.7988946 24.5182325,15.1489499 24.4521495,15.4925981 C24.0267717,18.454922 22.8782615,21.2668607 21.1081121,23.6799252 C21.0284112,23.7601121 21.0284112,23.8402991 20.9487103,23.9229159 L20.8690093,24.0031028 L20.7096075,24.1639626 C20.5506916,24.4045234 20.3115888,24.6455701 20.1526729,24.8861308 L22.7006729,24.8861308 C26.4369941,21.9091287 28.7019676,17.4607066 28.911514,12.688 L28.911514,12.4450093 L28.9085981,12.4450093 Z M24.8472523,9.55536449 C25.3677586,9.55103174 25.8394176,9.86126823 26.0415707,10.3409344 C26.2437239,10.8206005 26.1363976,11.3748478 25.7698029,11.7443797 C25.4032082,12.1139116 24.8498351,12.2256575 24.368571,12.0273386 C23.8873069,11.8290196 23.5733164,11.3598513 23.5734953,10.8393271 C23.5715571,10.4997511 23.7047298,10.1733415 23.9436622,9.93203893 C24.1825945,9.69073638 24.5076738,9.55434827 24.8472523,9.55293458 L24.8472523,9.55536449 Z" id="白.svg_拷贝" fill="#1C9AF9"></path>
                <path d="M93.1665047,13.0845607 L89.4244486,23.1983178 L99.2184299,23.1983178 C99.5868889,23.158737 99.9177496,22.9548281 100.118715,22.6434736 C100.31968,22.332119 100.36924,21.9466435 100.25357,21.5945794 L98.9793271,17.9011215 L100.492187,17.9011215 L101.686729,21.4327477 C102.001265,22.1812413 101.921192,23.037374 101.473314,23.7145601 C101.025436,24.3917462 100.268936,24.8005025 99.4570467,24.804 L87.0353645,24.804 L91.415028,13.1652336 L85.124486,13.1652336 L85.124486,11.6402243 L103.757009,11.6402243 L103.757009,13.1652336 L93.1665047,13.0845607 Z M86.7962617,5.54018692 L102.163963,5.54018692 L102.163963,7.06568224 L86.7962617,7.06568224 L86.7962617,5.54018692 L86.7962617,5.54018692 Z M79.7888972,25.3682243 L78.0393645,25.3682243 L78.0393645,23.843215 L79.7888972,23.843215 C80.5149399,23.8558571 81.1172443,23.2844678 81.1428411,22.5587664 L81.1428411,9.55293458 C81.1060256,9.28876558 80.9198731,9.06966236 80.6651215,8.99065421 L79.3121495,8.99065421 C78.8791794,14.4749364 77.9189828,19.904767 76.4448598,25.2049346 L75.0117009,24.803514 C76.4522457,19.6630687 77.3855781,14.3938259 77.7983178,9.0713271 L75.4894206,9.0713271 C74.9265448,14.5752429 73.8059501,20.0077338 72.1448972,25.2851215 L70.7914393,24.8837009 C72.3497375,19.7525348 73.4162511,14.4847318 73.9765607,9.15151402 L70.953271,9.15151402 L72.4661308,5.21846729 L73.9794766,5.78026168 L73.2626542,7.62699065 L80.5883364,7.62699065 C81.1533572,7.63023038 81.6928423,7.86277031 82.0831583,8.27131937 C82.4734743,8.67986844 82.6811588,9.22940113 82.6586168,9.79398131 L82.6586168,22.5563364 C82.6362263,24.1218699 81.3550392,25.3761486 79.7893832,25.3653084 L79.7888972,25.3682243 Z M70.5523364,16.5389159 L71.1894579,17.9035514 L68.2434393,19.187514 L68.2434393,25.4484112 L66.7305794,25.4484112 L66.7305794,19.8280374 L63.3063551,21.3530467 L62.6692336,19.9884112 L66.7305794,18.2223551 L66.7305794,13.0855327 L63.1469533,13.0855327 L64.0217196,7.9482243 L65.4548785,8.26945794 L64.8974579,11.5605234 L66.7291215,11.5605234 L66.7291215,5.13828037 L68.2419813,5.13828037 L68.2419813,11.5595514 L70.5508785,11.5595514 L70.5508785,13.0845607 L68.2419813,13.0845607 L68.2419813,17.5794019 L70.5523364,16.5389159 Z M57.4935327,25.5295701 L55.744,25.5295701 L55.744,24.0045607 L57.4935327,24.0045607 C58.2193929,24.0172091 58.8216215,23.4461079 58.8474766,22.7205981 L58.8474766,17.8204486 C58.8517621,17.6708977 58.7945738,17.526124 58.689242,17.419874 C58.5839103,17.313624 58.4396386,17.2551811 58.2900561,17.2581682 L53.9103925,17.2581682 C53.5920748,20.7902804 52.3178318,23.1176449 49.6109159,25.3653084 L48.6549907,24.1615327 C50.9643738,22.2351028 52.079215,20.3086729 52.3970467,17.2581682 L48.176785,17.2581682 C47.8584673,20.7902804 46.5842243,23.1176449 43.8773084,25.3653084 L42.9218692,24.1615327 C45.2307664,22.2351028 46.3456075,20.3086729 46.6639252,17.2581682 L41.807028,17.2581682 L42.9218692,14.2883364 L44.355028,14.8501308 L44.0362243,15.7331589 L58.2108411,15.7331589 C59.3385982,15.7431267 60.2714316,16.6139119 60.3588785,17.7383178 L60.3588785,22.7152523 C60.3375532,24.2797543 59.0586419,25.5343674 57.4940187,25.5256822 L57.4935327,25.5295701 Z M56.6168224,13.7265421 L43.4797757,13.7265421 L43.4797757,5.05760748 L58.6885607,5.05760748 L58.6885607,11.7199252 C58.6662213,12.8442402 57.7412775,13.74011 56.6168224,13.7265421 L56.6168224,13.7265421 Z M57.174243,6.58261682 L44.9931215,6.58261682 L44.9931215,8.66942056 L57.1757009,8.66942056 L57.1757009,6.58261682 L57.174243,6.58261682 Z M57.174243,10.1944299 L44.9931215,10.1944299 L44.9931215,12.2010467 L56.6168224,12.2010467 C56.7663595,12.2041689 56.9106358,12.1458367 57.0159834,12.0396625 C57.1213311,11.9334883 57.1785338,11.7887605 57.174243,11.6392523 L57.174243,10.1944299 L57.174243,10.1944299 Z" id="白.svg_拷贝_2" fill="#FFFFFF"></path>
            </g>
        </g>
    </g>
</svg>