<svg width="202" height="22" viewBox="0 0 202 22" fill="none" xmlns="http://www.w3.org/2000/svg">
<path d="M0.521973 3.56081C0.521973 2.19128 1.6322 1.08105 3.00173 1.08105H67.1902V20.9191H3.00172C1.63219 20.9191 0.521973 19.8089 0.521973 18.4393V3.56081Z" fill="#337EFF"/>
<path d="M16.5751 7.31425C15.5473 7.31425 14.748 7.65683 14.158 8.34199C13.5965 8.98908 13.3206 9.82649 13.3206 10.8542C13.3206 11.8724 13.5965 12.7099 14.158 13.3569C14.748 14.0326 15.5473 14.3752 16.5655 14.3752C17.5838 14.3752 18.3926 14.0326 18.9826 13.3569C19.5346 12.7099 19.82 11.882 19.82 10.8542C19.82 9.81698 19.5346 8.97956 18.9826 8.33247C18.3926 7.64731 17.5838 7.31425 16.5751 7.31425ZM16.5751 8.00892C17.3554 8.00892 17.9644 8.26586 18.4021 8.78924C18.8209 9.30311 19.0397 9.98826 19.0397 10.8542C19.0397 11.7107 18.8209 12.3863 18.4021 12.9002C17.9644 13.414 17.3459 13.6805 16.5655 13.6805C15.7852 13.6805 15.1667 13.414 14.7289 12.8811C14.3102 12.3673 14.1009 11.6916 14.1009 10.8542C14.1009 10.0073 14.3102 9.33166 14.7289 8.81779C15.1762 8.27537 15.7947 8.00892 16.5751 8.00892ZM23.1564 9.18892C22.4141 9.18892 21.8717 9.50295 21.5196 10.131V9.32214H20.8059V16.1261H21.5672V13.3474C21.9478 14.0326 22.4903 14.3752 23.1945 14.3752C23.8986 14.3752 24.4411 14.1087 24.8407 13.5949C25.2023 13.119 25.3927 12.5195 25.3927 11.7963C25.3927 11.0541 25.2023 10.4546 24.8312 9.97875C24.422 9.44585 23.8606 9.18892 23.1564 9.18892ZM23.0612 9.81698C23.5846 9.81698 23.9843 10.0073 24.2603 10.407C24.4886 10.7495 24.6123 11.2158 24.6123 11.7963C24.6123 12.3863 24.4886 12.8526 24.2412 13.1952C23.9653 13.5568 23.5656 13.7471 23.0327 13.7471C22.5759 13.7471 22.2238 13.5663 21.9574 13.2237C21.6719 12.8716 21.5387 12.4149 21.5387 11.8439V11.7487C21.5387 11.1968 21.6624 10.74 21.9098 10.3975C22.1762 10.0073 22.5664 9.81698 23.0612 9.81698ZM27.695 7.73296L26.9432 8.04699V9.32214H25.9535V9.95972H26.9432V13.0905C26.9432 13.4616 27.0193 13.7376 27.1811 13.9279C27.3524 14.1373 27.6474 14.2419 28.047 14.2419H28.7893V13.6044H28.1612C27.99 13.6044 27.8662 13.5568 27.7996 13.4807C27.7235 13.4045 27.695 13.2713 27.695 13.0905V9.95972H28.913V9.32214H27.695V7.73296ZM30.3925 7.46651C30.2307 7.46651 30.0975 7.51409 29.9833 7.62828C29.8691 7.72344 29.8215 7.85667 29.8215 8.02796C29.8215 8.18973 29.8691 8.32295 29.9833 8.43715C30.0975 8.54182 30.2307 8.59892 30.3925 8.59892C30.5542 8.59892 30.6875 8.54182 30.8016 8.43715C30.9158 8.32295 30.9729 8.18973 30.9729 8.02796C30.9729 7.85667 30.9158 7.72344 30.8016 7.62828C30.6875 7.51409 30.5542 7.46651 30.3925 7.46651ZM30.0118 9.32214V14.2419H30.7731V9.32214H30.0118ZM34.3974 9.18892C33.6551 9.18892 33.0746 9.43633 32.6369 9.9502C32.2182 10.4355 32.0089 11.0445 32.0089 11.7868C32.0089 12.5195 32.2182 13.1286 32.6369 13.6044C33.0746 14.1182 33.6551 14.3752 34.3974 14.3752C35.1301 14.3752 35.7201 14.1182 36.1674 13.6044C36.5766 13.1286 36.7859 12.5195 36.7859 11.7868C36.7859 11.0445 36.5766 10.4355 36.1579 9.9502C35.7201 9.43633 35.1301 9.18892 34.3974 9.18892ZM34.3974 9.82649C34.9112 9.82649 35.3204 10.0263 35.625 10.426C35.8819 10.7876 36.0151 11.2349 36.0151 11.7868C36.0151 12.3197 35.8819 12.7765 35.625 13.1381C35.3204 13.5378 34.9112 13.7376 34.3974 13.7376C33.874 13.7376 33.4648 13.5378 33.1793 13.1381C32.9129 12.7765 32.7892 12.3292 32.7892 11.7868C32.7892 11.2349 32.9129 10.7876 33.1793 10.426C33.4648 10.0263 33.874 9.82649 34.3974 9.82649ZM40.0779 9.18892C39.7543 9.18892 39.4593 9.26504 39.1929 9.4173C38.9264 9.56004 38.7076 9.76939 38.5363 10.0454V9.32214H37.775V14.2419H38.5363V11.2729C38.5648 10.8257 38.7076 10.4736 38.974 10.2071C39.2214 9.95972 39.5164 9.83601 39.859 9.83601C40.7155 9.83601 41.1532 10.3118 41.1532 11.2729V14.2419H41.9145V11.2158C41.9145 9.86456 41.2959 9.18892 40.0779 9.18892ZM42.9764 11.4537V12.1008H47.782V11.4537H42.9764ZM50.9363 7.44748L48.2623 14.2419H49.0997L49.8229 12.3387H52.9442L53.6674 14.2419H54.5143L51.8403 7.44748H50.9363ZM50.0703 11.6821L51.374 8.28489H51.4121L52.6968 11.6821H50.0703Z" fill="white"/>
<path d="M0.521973 3.56081C0.521973 2.19128 1.6322 1.08105 3.00173 1.08105H67.1902V20.9191H3.00172C1.63219 20.9191 0.521973 19.8089 0.521973 18.4393V3.56081Z" stroke="#337EFF" stroke-width="0.8"/>
<path d="M83.2435 7.31425C82.2158 7.31425 81.4164 7.65683 80.8264 8.34199C80.265 8.98908 79.989 9.82649 79.989 10.8542C79.989 11.8724 80.265 12.7099 80.8264 13.3569C81.4164 14.0326 82.2158 14.3752 83.234 14.3752C84.2522 14.3752 85.0611 14.0326 85.6511 13.3569C86.203 12.7099 86.4885 11.882 86.4885 10.8542C86.4885 9.81698 86.203 8.97956 85.6511 8.33247C85.0611 7.64731 84.2522 7.31425 83.2435 7.31425ZM83.2435 8.00892C84.0238 8.00892 84.6329 8.26586 85.0706 8.78924C85.4893 9.30311 85.7082 9.98826 85.7082 10.8542C85.7082 11.7107 85.4893 12.3863 85.0706 12.9002C84.6329 13.414 84.0143 13.6805 83.234 13.6805C82.4537 13.6805 81.8351 13.414 81.3974 12.8811C80.9787 12.3673 80.7693 11.6916 80.7693 10.8542C80.7693 10.0073 80.9787 9.33166 81.3974 8.81779C81.8447 8.27537 82.4632 8.00892 83.2435 8.00892ZM89.8248 9.18892C89.0826 9.18892 88.5402 9.50295 88.1881 10.131V9.32214H87.4744V16.1261H88.2357V13.3474C88.6163 14.0326 89.1587 14.3752 89.8629 14.3752C90.5671 14.3752 91.1095 14.1087 91.5092 13.5949C91.8708 13.119 92.0611 12.5195 92.0611 11.7963C92.0611 11.0541 91.8708 10.4546 91.4997 9.97875C91.0905 9.44585 90.529 9.18892 89.8248 9.18892ZM89.7297 9.81698C90.2531 9.81698 90.6527 10.0073 90.9287 10.407C91.1571 10.7495 91.2808 11.2158 91.2808 11.7963C91.2808 12.3863 91.1571 12.8526 90.9097 13.1952C90.6337 13.5568 90.234 13.7471 89.7011 13.7471C89.2444 13.7471 88.8923 13.5663 88.6258 13.2237C88.3403 12.8716 88.2071 12.4149 88.2071 11.8439V11.7487C88.2071 11.1968 88.3308 10.74 88.5782 10.3975C88.8447 10.0073 89.2348 9.81698 89.7297 9.81698ZM94.3634 7.73296L93.6116 8.04699V9.32214H92.622V9.95972H93.6116V13.0905C93.6116 13.4616 93.6878 13.7376 93.8495 13.9279C94.0208 14.1373 94.3158 14.2419 94.7155 14.2419H95.4578V13.6044H94.8297C94.6584 13.6044 94.5347 13.5568 94.4681 13.4807C94.392 13.4045 94.3634 13.2713 94.3634 13.0905V9.95972H95.5815V9.32214H94.3634V7.73296ZM97.0609 7.46651C96.8991 7.46651 96.7659 7.51409 96.6517 7.62828C96.5375 7.72344 96.49 7.85667 96.49 8.02796C96.49 8.18973 96.5375 8.32295 96.6517 8.43715C96.7659 8.54182 96.8991 8.59892 97.0609 8.59892C97.2227 8.59892 97.3559 8.54182 97.4701 8.43715C97.5843 8.32295 97.6414 8.18973 97.6414 8.02796C97.6414 7.85667 97.5843 7.72344 97.4701 7.62828C97.3559 7.51409 97.2227 7.46651 97.0609 7.46651ZM96.6803 9.32214V14.2419H97.4416V9.32214H96.6803ZM101.066 9.18892C100.324 9.18892 99.7431 9.43633 99.3054 9.9502C98.8867 10.4355 98.6773 11.0445 98.6773 11.7868C98.6773 12.5195 98.8867 13.1286 99.3054 13.6044C99.7431 14.1182 100.324 14.3752 101.066 14.3752C101.799 14.3752 102.389 14.1182 102.836 13.6044C103.245 13.1286 103.454 12.5195 103.454 11.7868C103.454 11.0445 103.245 10.4355 102.826 9.9502C102.389 9.43633 101.799 9.18892 101.066 9.18892ZM101.066 9.82649C101.58 9.82649 101.989 10.0263 102.293 10.426C102.55 10.7876 102.684 11.2349 102.684 11.7868C102.684 12.3197 102.55 12.7765 102.293 13.1381C101.989 13.5378 101.58 13.7376 101.066 13.7376C100.542 13.7376 100.133 13.5378 99.8478 13.1381C99.5813 12.7765 99.4576 12.3292 99.4576 11.7868C99.4576 11.2349 99.5813 10.7876 99.8478 10.426C100.133 10.0263 100.542 9.82649 101.066 9.82649ZM106.746 9.18892C106.423 9.18892 106.128 9.26504 105.861 9.4173C105.595 9.56004 105.376 9.76939 105.205 10.0454V9.32214H104.443V14.2419H105.205V11.2729C105.233 10.8257 105.376 10.4736 105.642 10.2071C105.89 9.95972 106.185 9.83601 106.527 9.83601C107.384 9.83601 107.822 10.3118 107.822 11.2729V14.2419H108.583V11.2158C108.583 9.86456 107.964 9.18892 106.746 9.18892ZM109.645 11.4537V12.1008H114.45V11.4537H109.645ZM115.616 7.44748V14.2419H118.632C119.327 14.2419 119.879 14.0992 120.279 13.8328C120.745 13.5092 120.983 13.0144 120.983 12.3482C120.983 11.8915 120.85 11.5299 120.602 11.2444C120.355 10.9589 120.012 10.7686 119.565 10.6925C119.908 10.5783 120.184 10.3975 120.393 10.15C120.593 9.87407 120.697 9.54101 120.697 9.16037C120.697 8.62747 120.517 8.20876 120.155 7.90425C119.784 7.59973 119.28 7.44748 118.652 7.44748H115.616ZM116.396 8.10408H118.471C118.947 8.10408 119.308 8.18973 119.556 8.38005C119.803 8.57037 119.927 8.85585 119.927 9.2365C119.927 9.62665 119.793 9.92165 119.546 10.1215C119.299 10.3118 118.937 10.4165 118.461 10.4165H116.396V8.10408ZM116.396 11.0636H118.566C119.089 11.0636 119.489 11.1587 119.765 11.3681C120.05 11.5774 120.203 11.901 120.203 12.3387C120.203 12.7765 120.031 13.1095 119.698 13.3189C119.413 13.4902 119.042 13.5853 118.566 13.5853H116.396V11.0636Z" fill="#333333"/>
<path d="M67.1904 1.08105H133.859V20.9191H67.1904V1.08105Z" stroke="#E5E5E5" stroke-width="0.8"/>
<path d="M149.911 7.31425C148.884 7.31425 148.084 7.65683 147.494 8.34199C146.933 8.98908 146.657 9.82649 146.657 10.8542C146.657 11.8724 146.933 12.7099 147.494 13.3569C148.084 14.0326 148.884 14.3752 149.902 14.3752C150.92 14.3752 151.729 14.0326 152.319 13.3569C152.871 12.7099 153.156 11.882 153.156 10.8542C153.156 9.81698 152.871 8.97956 152.319 8.33247C151.729 7.64731 150.92 7.31425 149.911 7.31425ZM149.911 8.00892C150.692 8.00892 151.301 8.26586 151.739 8.78924C152.157 9.30311 152.376 9.98826 152.376 10.8542C152.376 11.7107 152.157 12.3863 151.739 12.9002C151.301 13.414 150.682 13.6805 149.902 13.6805C149.122 13.6805 148.503 13.414 148.065 12.8811C147.647 12.3673 147.437 11.6916 147.437 10.8542C147.437 10.0073 147.647 9.33166 148.065 8.81779C148.513 8.27537 149.131 8.00892 149.911 8.00892ZM156.493 9.18892C155.751 9.18892 155.208 9.50295 154.856 10.131V9.32214H154.142V16.1261H154.904V13.3474C155.284 14.0326 155.827 14.3752 156.531 14.3752C157.235 14.3752 157.777 14.1087 158.177 13.5949C158.539 13.119 158.729 12.5195 158.729 11.7963C158.729 11.0541 158.539 10.4546 158.168 9.97875C157.758 9.44585 157.197 9.18892 156.493 9.18892ZM156.398 9.81698C156.921 9.81698 157.321 10.0073 157.597 10.407C157.825 10.7495 157.949 11.2158 157.949 11.7963C157.949 12.3863 157.825 12.8526 157.578 13.1952C157.302 13.5568 156.902 13.7471 156.369 13.7471C155.912 13.7471 155.56 13.5663 155.294 13.2237C155.008 12.8716 154.875 12.4149 154.875 11.8439V11.7487C154.875 11.1968 154.999 10.74 155.246 10.3975C155.513 10.0073 155.903 9.81698 156.398 9.81698ZM161.031 7.73296L160.28 8.04699V9.32214H159.29V9.95972H160.28V13.0905C160.28 13.4616 160.356 13.7376 160.518 13.9279C160.689 14.1373 160.984 14.2419 161.383 14.2419H162.126V13.6044H161.498C161.326 13.6044 161.203 13.5568 161.136 13.4807C161.06 13.4045 161.031 13.2713 161.031 13.0905V9.95972H162.249V9.32214H161.031V7.73296ZM163.729 7.46651C163.567 7.46651 163.434 7.51409 163.32 7.62828C163.206 7.72344 163.158 7.85667 163.158 8.02796C163.158 8.18973 163.206 8.32295 163.32 8.43715C163.434 8.54182 163.567 8.59892 163.729 8.59892C163.891 8.59892 164.024 8.54182 164.138 8.43715C164.252 8.32295 164.309 8.18973 164.309 8.02796C164.309 7.85667 164.252 7.72344 164.138 7.62828C164.024 7.51409 163.891 7.46651 163.729 7.46651ZM163.348 9.32214V14.2419H164.11V9.32214H163.348ZM167.734 9.18892C166.992 9.18892 166.411 9.43633 165.973 9.9502C165.555 10.4355 165.345 11.0445 165.345 11.7868C165.345 12.5195 165.555 13.1286 165.973 13.6044C166.411 14.1182 166.992 14.3752 167.734 14.3752C168.467 14.3752 169.057 14.1182 169.504 13.6044C169.913 13.1286 170.122 12.5195 170.122 11.7868C170.122 11.0445 169.913 10.4355 169.494 9.9502C169.057 9.43633 168.467 9.18892 167.734 9.18892ZM167.734 9.82649C168.248 9.82649 168.657 10.0263 168.961 10.426C169.218 10.7876 169.352 11.2349 169.352 11.7868C169.352 12.3197 169.218 12.7765 168.961 13.1381C168.657 13.5378 168.248 13.7376 167.734 13.7376C167.21 13.7376 166.801 13.5378 166.516 13.1381C166.249 12.7765 166.126 12.3292 166.126 11.7868C166.126 11.2349 166.249 10.7876 166.516 10.426C166.801 10.0263 167.21 9.82649 167.734 9.82649ZM173.414 9.18892C173.091 9.18892 172.796 9.26504 172.529 9.4173C172.263 9.56004 172.044 9.76939 171.873 10.0454V9.32214H171.111V14.2419H171.873V11.2729C171.901 10.8257 172.044 10.4736 172.31 10.2071C172.558 9.95972 172.853 9.83601 173.195 9.83601C174.052 9.83601 174.49 10.3118 174.49 11.2729V14.2419H175.251V11.2158C175.251 9.86456 174.632 9.18892 173.414 9.18892ZM176.313 11.4537V12.1008H181.118V11.4537H176.313ZM185.215 7.31425C184.168 7.31425 183.35 7.66635 182.779 8.38957C182.255 9.03666 181.998 9.86456 181.998 10.8733C181.998 11.882 182.246 12.7003 182.76 13.3284C183.321 14.0231 184.13 14.3752 185.186 14.3752C185.909 14.3752 186.538 14.1658 187.061 13.7566C187.622 13.3189 187.974 12.7003 188.127 11.9105H187.375C187.242 12.5005 186.966 12.9478 186.566 13.2523C186.185 13.5378 185.729 13.6805 185.186 13.6805C184.387 13.6805 183.787 13.414 183.369 12.8907C182.969 12.3958 182.779 11.7202 182.779 10.8733C182.779 10.0263 182.979 9.35069 183.378 8.83682C183.806 8.28489 184.415 8.00892 185.205 8.00892C185.738 8.00892 186.185 8.13263 186.557 8.38957C186.937 8.65602 187.185 9.03666 187.28 9.53149H188.032C187.936 8.85585 187.632 8.31344 187.118 7.91376C186.604 7.51409 185.967 7.31425 185.215 7.31425Z" fill="#333333"/>
<path d="M133.858 1.08105H198.998C200.368 1.08105 201.478 2.19128 201.478 3.56081V18.4393C201.478 19.8089 200.368 20.9191 198.998 20.9191H133.858V1.08105Z" stroke="#E5E5E5" stroke-width="0.8"/>
</svg>
