<svg width="202" height="20" viewBox="0 0 202 20" fill="none" xmlns="http://www.w3.org/2000/svg">
<path d="M10.322 6.676C9.458 6.676 8.786 6.964 8.29 7.54C7.818 8.084 7.586 8.788 7.586 9.652C7.586 10.508 7.818 11.212 8.29 11.756C8.786 12.324 9.458 12.612 10.314 12.612C11.17 12.612 11.85 12.324 12.346 11.756C12.81 11.212 13.05 10.516 13.05 9.652C13.05 8.78 12.81 8.076 12.346 7.532C11.85 6.956 11.17 6.676 10.322 6.676ZM10.322 7.26C10.978 7.26 11.49 7.476 11.858 7.916C12.21 8.348 12.394 8.924 12.394 9.652C12.394 10.372 12.21 10.94 11.858 11.372C11.49 11.804 10.97 12.028 10.314 12.028C9.658 12.028 9.138 11.804 8.77 11.356C8.418 10.924 8.242 10.356 8.242 9.652C8.242 8.94 8.418 8.372 8.77 7.94C9.146 7.484 9.666 7.26 10.322 7.26ZM15.8548 8.252C15.2308 8.252 14.7748 8.516 14.4788 9.044V8.364H13.8788V14.084H14.5188V11.748C14.8388 12.324 15.2948 12.612 15.8868 12.612C16.4788 12.612 16.9348 12.388 17.2708 11.956C17.5748 11.556 17.7348 11.052 17.7348 10.444C17.7348 9.82 17.5748 9.316 17.2628 8.916C16.9188 8.468 16.4468 8.252 15.8548 8.252ZM15.7748 8.78C16.2148 8.78 16.5508 8.94 16.7828 9.276C16.9748 9.564 17.0788 9.956 17.0788 10.444C17.0788 10.94 16.9748 11.332 16.7668 11.62C16.5348 11.924 16.1988 12.084 15.7508 12.084C15.3668 12.084 15.0708 11.932 14.8468 11.644C14.6068 11.348 14.4948 10.964 14.4948 10.484V10.404C14.4948 9.94 14.5988 9.556 14.8068 9.268C15.0308 8.94 15.3588 8.78 15.7748 8.78ZM19.6703 7.028L19.0383 7.292V8.364H18.2063V8.9H19.0383V11.532C19.0383 11.844 19.1023 12.076 19.2383 12.236C19.3823 12.412 19.6303 12.5 19.9663 12.5H20.5903V11.964H20.0623C19.9183 11.964 19.8143 11.924 19.7583 11.86C19.6943 11.796 19.6703 11.684 19.6703 11.532V8.9H20.6943V8.364H19.6703V7.028ZM21.9381 6.804C21.8021 6.804 21.6901 6.844 21.5941 6.94C21.4981 7.02 21.4581 7.132 21.4581 7.276C21.4581 7.412 21.4981 7.524 21.5941 7.62C21.6901 7.708 21.8021 7.756 21.9381 7.756C22.0741 7.756 22.1861 7.708 22.2821 7.62C22.3781 7.524 22.4261 7.412 22.4261 7.276C22.4261 7.132 22.3781 7.02 22.2821 6.94C22.1861 6.844 22.0741 6.804 21.9381 6.804ZM21.6181 8.364V12.5H22.2581V8.364H21.6181ZM25.3049 8.252C24.6809 8.252 24.1929 8.46 23.8249 8.892C23.4729 9.3 23.2969 9.812 23.2969 10.436C23.2969 11.052 23.4729 11.564 23.8249 11.964C24.1929 12.396 24.6809 12.612 25.3049 12.612C25.9209 12.612 26.4169 12.396 26.7929 11.964C27.1369 11.564 27.3129 11.052 27.3129 10.436C27.3129 9.812 27.1369 9.3 26.7849 8.892C26.4169 8.46 25.9209 8.252 25.3049 8.252ZM25.3049 8.788C25.7369 8.788 26.0809 8.956 26.3369 9.292C26.5529 9.596 26.6649 9.972 26.6649 10.436C26.6649 10.884 26.5529 11.268 26.3369 11.572C26.0809 11.908 25.7369 12.076 25.3049 12.076C24.8649 12.076 24.5209 11.908 24.2809 11.572C24.0569 11.268 23.9529 10.892 23.9529 10.436C23.9529 9.972 24.0569 9.596 24.2809 9.292C24.5209 8.956 24.8649 8.788 25.3049 8.788ZM30.0804 8.252C29.8084 8.252 29.5604 8.316 29.3364 8.444C29.1124 8.564 28.9284 8.74 28.7844 8.972V8.364H28.1444V12.5H28.7844V10.004C28.8084 9.628 28.9284 9.332 29.1524 9.108C29.3604 8.9 29.6084 8.796 29.8964 8.796C30.6164 8.796 30.9844 9.196 30.9844 10.004V12.5H31.6244V9.956C31.6244 8.82 31.1044 8.252 30.0804 8.252ZM32.5172 10.156V10.7H36.5572V10.156H32.5172ZM39.2089 6.788L36.9609 12.5H37.6649L38.2729 10.9H40.8969L41.5049 12.5H42.2169L39.9689 6.788H39.2089ZM38.4809 10.348L39.5769 7.492H39.6089L40.6889 10.348H38.4809Z" fill="#333333"/>
<path d="M1 2.2239C1 1.27182 1.77182 0.5 2.7239 0.5H48.5V19.5H2.7239C1.77182 19.5 1 18.7282 1 17.7761V2.2239Z" stroke="#E5E5E5" stroke-width="0.8"/>
<path d="M57.322 6.676C56.458 6.676 55.786 6.964 55.29 7.54C54.818 8.084 54.586 8.788 54.586 9.652C54.586 10.508 54.818 11.212 55.29 11.756C55.786 12.324 56.458 12.612 57.314 12.612C58.17 12.612 58.85 12.324 59.346 11.756C59.81 11.212 60.05 10.516 60.05 9.652C60.05 8.78 59.81 8.076 59.346 7.532C58.85 6.956 58.17 6.676 57.322 6.676ZM57.322 7.26C57.978 7.26 58.49 7.476 58.858 7.916C59.21 8.348 59.394 8.924 59.394 9.652C59.394 10.372 59.21 10.94 58.858 11.372C58.49 11.804 57.97 12.028 57.314 12.028C56.658 12.028 56.138 11.804 55.77 11.356C55.418 10.924 55.242 10.356 55.242 9.652C55.242 8.94 55.418 8.372 55.77 7.94C56.146 7.484 56.666 7.26 57.322 7.26ZM62.8548 8.252C62.2308 8.252 61.7748 8.516 61.4788 9.044V8.364H60.8788V14.084H61.5188V11.748C61.8388 12.324 62.2948 12.612 62.8868 12.612C63.4788 12.612 63.9348 12.388 64.2708 11.956C64.5748 11.556 64.7348 11.052 64.7348 10.444C64.7348 9.82 64.5748 9.316 64.2628 8.916C63.9188 8.468 63.4468 8.252 62.8548 8.252ZM62.7748 8.78C63.2148 8.78 63.5508 8.94 63.7828 9.276C63.9748 9.564 64.0788 9.956 64.0788 10.444C64.0788 10.94 63.9748 11.332 63.7668 11.62C63.5348 11.924 63.1988 12.084 62.7508 12.084C62.3668 12.084 62.0708 11.932 61.8468 11.644C61.6068 11.348 61.4948 10.964 61.4948 10.484V10.404C61.4948 9.94 61.5988 9.556 61.8068 9.268C62.0308 8.94 62.3588 8.78 62.7748 8.78ZM66.6703 7.028L66.0383 7.292V8.364H65.2063V8.9H66.0383V11.532C66.0383 11.844 66.1023 12.076 66.2383 12.236C66.3823 12.412 66.6303 12.5 66.9663 12.5H67.5903V11.964H67.0623C66.9183 11.964 66.8143 11.924 66.7583 11.86C66.6943 11.796 66.6703 11.684 66.6703 11.532V8.9H67.6943V8.364H66.6703V7.028ZM68.9381 6.804C68.8021 6.804 68.6901 6.844 68.5941 6.94C68.4981 7.02 68.4581 7.132 68.4581 7.276C68.4581 7.412 68.4981 7.524 68.5941 7.62C68.6901 7.708 68.8021 7.756 68.9381 7.756C69.0741 7.756 69.1861 7.708 69.2821 7.62C69.3781 7.524 69.4261 7.412 69.4261 7.276C69.4261 7.132 69.3781 7.02 69.2821 6.94C69.1861 6.844 69.0741 6.804 68.9381 6.804ZM68.6181 8.364V12.5H69.2581V8.364H68.6181ZM72.3049 8.252C71.6809 8.252 71.1929 8.46 70.8249 8.892C70.4729 9.3 70.2969 9.812 70.2969 10.436C70.2969 11.052 70.4729 11.564 70.8249 11.964C71.1929 12.396 71.6809 12.612 72.3049 12.612C72.9209 12.612 73.4169 12.396 73.7929 11.964C74.1369 11.564 74.3129 11.052 74.3129 10.436C74.3129 9.812 74.1369 9.3 73.7849 8.892C73.4169 8.46 72.9209 8.252 72.3049 8.252ZM72.3049 8.788C72.7369 8.788 73.0809 8.956 73.3369 9.292C73.5529 9.596 73.6649 9.972 73.6649 10.436C73.6649 10.884 73.5529 11.268 73.3369 11.572C73.0809 11.908 72.7369 12.076 72.3049 12.076C71.8649 12.076 71.5209 11.908 71.2809 11.572C71.0569 11.268 70.9529 10.892 70.9529 10.436C70.9529 9.972 71.0569 9.596 71.2809 9.292C71.5209 8.956 71.8649 8.788 72.3049 8.788ZM77.0804 8.252C76.8084 8.252 76.5604 8.316 76.3364 8.444C76.1124 8.564 75.9284 8.74 75.7844 8.972V8.364H75.1444V12.5H75.7844V10.004C75.8084 9.628 75.9284 9.332 76.1524 9.108C76.3604 8.9 76.6084 8.796 76.8964 8.796C77.6164 8.796 77.9844 9.196 77.9844 10.004V12.5H78.6244V9.956C78.6244 8.82 78.1044 8.252 77.0804 8.252ZM79.5172 10.156V10.7H83.5572V10.156H79.5172ZM84.5369 6.788V12.5H87.0729C87.6569 12.5 88.1209 12.38 88.4569 12.156C88.8489 11.884 89.0489 11.468 89.0489 10.908C89.0489 10.524 88.9369 10.22 88.7289 9.98C88.5209 9.74 88.2329 9.58 87.8569 9.516C88.1449 9.42 88.3769 9.268 88.5529 9.06C88.7209 8.828 88.8089 8.548 88.8089 8.228C88.8089 7.78 88.6569 7.428 88.3529 7.172C88.0409 6.916 87.6169 6.788 87.0889 6.788H84.5369ZM85.1929 7.34H86.9369C87.3369 7.34 87.6409 7.412 87.8489 7.572C88.0569 7.732 88.1609 7.972 88.1609 8.292C88.1609 8.62 88.0489 8.868 87.8409 9.036C87.6329 9.196 87.3289 9.284 86.9289 9.284H85.1929V7.34ZM85.1929 9.828H87.0169C87.4569 9.828 87.7929 9.908 88.0249 10.084C88.2649 10.26 88.3929 10.532 88.3929 10.9C88.3929 11.268 88.2489 11.548 87.9689 11.724C87.7289 11.868 87.4169 11.948 87.0169 11.948H85.1929V9.828Z" fill="#333333"/>
<path d="M48.5 0.5H94.2761C95.2282 0.5 96 1.27182 96 2.2239V17.7761C96 18.7282 95.2282 19.5 94.2761 19.5H48.5V0.5Z" stroke="#E5E5E5" stroke-width="0.8"/>
<path d="M115.322 6.676C114.458 6.676 113.786 6.964 113.29 7.54C112.818 8.084 112.586 8.788 112.586 9.652C112.586 10.508 112.818 11.212 113.29 11.756C113.786 12.324 114.458 12.612 115.314 12.612C116.17 12.612 116.85 12.324 117.346 11.756C117.81 11.212 118.05 10.516 118.05 9.652C118.05 8.78 117.81 8.076 117.346 7.532C116.85 6.956 116.17 6.676 115.322 6.676ZM115.322 7.26C115.978 7.26 116.49 7.476 116.858 7.916C117.21 8.348 117.394 8.924 117.394 9.652C117.394 10.372 117.21 10.94 116.858 11.372C116.49 11.804 115.97 12.028 115.314 12.028C114.658 12.028 114.138 11.804 113.77 11.356C113.418 10.924 113.242 10.356 113.242 9.652C113.242 8.94 113.418 8.372 113.77 7.94C114.146 7.484 114.666 7.26 115.322 7.26ZM120.855 8.252C120.231 8.252 119.775 8.516 119.479 9.044V8.364H118.879V14.084H119.519V11.748C119.839 12.324 120.295 12.612 120.887 12.612C121.479 12.612 121.935 12.388 122.271 11.956C122.575 11.556 122.735 11.052 122.735 10.444C122.735 9.82 122.575 9.316 122.263 8.916C121.919 8.468 121.447 8.252 120.855 8.252ZM120.775 8.78C121.215 8.78 121.551 8.94 121.783 9.276C121.975 9.564 122.079 9.956 122.079 10.444C122.079 10.94 121.975 11.332 121.767 11.62C121.535 11.924 121.199 12.084 120.751 12.084C120.367 12.084 120.071 11.932 119.847 11.644C119.607 11.348 119.495 10.964 119.495 10.484V10.404C119.495 9.94 119.599 9.556 119.807 9.268C120.031 8.94 120.359 8.78 120.775 8.78ZM124.67 7.028L124.038 7.292V8.364H123.206V8.9H124.038V11.532C124.038 11.844 124.102 12.076 124.238 12.236C124.382 12.412 124.63 12.5 124.966 12.5H125.59V11.964H125.062C124.918 11.964 124.814 11.924 124.758 11.86C124.694 11.796 124.67 11.684 124.67 11.532V8.9H125.694V8.364H124.67V7.028ZM126.938 6.804C126.802 6.804 126.69 6.844 126.594 6.94C126.498 7.02 126.458 7.132 126.458 7.276C126.458 7.412 126.498 7.524 126.594 7.62C126.69 7.708 126.802 7.756 126.938 7.756C127.074 7.756 127.186 7.708 127.282 7.62C127.378 7.524 127.426 7.412 127.426 7.276C127.426 7.132 127.378 7.02 127.282 6.94C127.186 6.844 127.074 6.804 126.938 6.804ZM126.618 8.364V12.5H127.258V8.364H126.618ZM130.305 8.252C129.681 8.252 129.193 8.46 128.825 8.892C128.473 9.3 128.297 9.812 128.297 10.436C128.297 11.052 128.473 11.564 128.825 11.964C129.193 12.396 129.681 12.612 130.305 12.612C130.921 12.612 131.417 12.396 131.793 11.964C132.137 11.564 132.313 11.052 132.313 10.436C132.313 9.812 132.137 9.3 131.785 8.892C131.417 8.46 130.921 8.252 130.305 8.252ZM130.305 8.788C130.737 8.788 131.081 8.956 131.337 9.292C131.553 9.596 131.665 9.972 131.665 10.436C131.665 10.884 131.553 11.268 131.337 11.572C131.081 11.908 130.737 12.076 130.305 12.076C129.865 12.076 129.521 11.908 129.281 11.572C129.057 11.268 128.953 10.892 128.953 10.436C128.953 9.972 129.057 9.596 129.281 9.292C129.521 8.956 129.865 8.788 130.305 8.788ZM135.08 8.252C134.808 8.252 134.56 8.316 134.336 8.444C134.112 8.564 133.928 8.74 133.784 8.972V8.364H133.144V12.5H133.784V10.004C133.808 9.628 133.928 9.332 134.152 9.108C134.36 8.9 134.608 8.796 134.896 8.796C135.616 8.796 135.984 9.196 135.984 10.004V12.5H136.624V9.956C136.624 8.82 136.104 8.252 135.08 8.252ZM137.517 10.156V10.7H141.557V10.156H137.517ZM144.209 6.788L141.961 12.5H142.665L143.273 10.9H145.897L146.505 12.5H147.217L144.969 6.788H144.209ZM143.481 10.348L144.577 7.492H144.609L145.689 10.348H143.481Z" fill="#333333"/>
<path d="M106 2.2239C106 1.27182 106.772 0.5 107.724 0.5H153.5V19.5H107.724C106.772 19.5 106 18.7282 106 17.7761V2.2239Z" stroke="#E5E5E5" stroke-width="0.8"/>
<path d="M162.322 6.676C161.458 6.676 160.786 6.964 160.29 7.54C159.818 8.084 159.586 8.788 159.586 9.652C159.586 10.508 159.818 11.212 160.29 11.756C160.786 12.324 161.458 12.612 162.314 12.612C163.17 12.612 163.85 12.324 164.346 11.756C164.81 11.212 165.05 10.516 165.05 9.652C165.05 8.78 164.81 8.076 164.346 7.532C163.85 6.956 163.17 6.676 162.322 6.676ZM162.322 7.26C162.978 7.26 163.49 7.476 163.858 7.916C164.21 8.348 164.394 8.924 164.394 9.652C164.394 10.372 164.21 10.94 163.858 11.372C163.49 11.804 162.97 12.028 162.314 12.028C161.658 12.028 161.138 11.804 160.77 11.356C160.418 10.924 160.242 10.356 160.242 9.652C160.242 8.94 160.418 8.372 160.77 7.94C161.146 7.484 161.666 7.26 162.322 7.26ZM167.855 8.252C167.231 8.252 166.775 8.516 166.479 9.044V8.364H165.879V14.084H166.519V11.748C166.839 12.324 167.295 12.612 167.887 12.612C168.479 12.612 168.935 12.388 169.271 11.956C169.575 11.556 169.735 11.052 169.735 10.444C169.735 9.82 169.575 9.316 169.263 8.916C168.919 8.468 168.447 8.252 167.855 8.252ZM167.775 8.78C168.215 8.78 168.551 8.94 168.783 9.276C168.975 9.564 169.079 9.956 169.079 10.444C169.079 10.94 168.975 11.332 168.767 11.62C168.535 11.924 168.199 12.084 167.751 12.084C167.367 12.084 167.071 11.932 166.847 11.644C166.607 11.348 166.495 10.964 166.495 10.484V10.404C166.495 9.94 166.599 9.556 166.807 9.268C167.031 8.94 167.359 8.78 167.775 8.78ZM171.67 7.028L171.038 7.292V8.364H170.206V8.9H171.038V11.532C171.038 11.844 171.102 12.076 171.238 12.236C171.382 12.412 171.63 12.5 171.966 12.5H172.59V11.964H172.062C171.918 11.964 171.814 11.924 171.758 11.86C171.694 11.796 171.67 11.684 171.67 11.532V8.9H172.694V8.364H171.67V7.028ZM173.938 6.804C173.802 6.804 173.69 6.844 173.594 6.94C173.498 7.02 173.458 7.132 173.458 7.276C173.458 7.412 173.498 7.524 173.594 7.62C173.69 7.708 173.802 7.756 173.938 7.756C174.074 7.756 174.186 7.708 174.282 7.62C174.378 7.524 174.426 7.412 174.426 7.276C174.426 7.132 174.378 7.02 174.282 6.94C174.186 6.844 174.074 6.804 173.938 6.804ZM173.618 8.364V12.5H174.258V8.364H173.618ZM177.305 8.252C176.681 8.252 176.193 8.46 175.825 8.892C175.473 9.3 175.297 9.812 175.297 10.436C175.297 11.052 175.473 11.564 175.825 11.964C176.193 12.396 176.681 12.612 177.305 12.612C177.921 12.612 178.417 12.396 178.793 11.964C179.137 11.564 179.313 11.052 179.313 10.436C179.313 9.812 179.137 9.3 178.785 8.892C178.417 8.46 177.921 8.252 177.305 8.252ZM177.305 8.788C177.737 8.788 178.081 8.956 178.337 9.292C178.553 9.596 178.665 9.972 178.665 10.436C178.665 10.884 178.553 11.268 178.337 11.572C178.081 11.908 177.737 12.076 177.305 12.076C176.865 12.076 176.521 11.908 176.281 11.572C176.057 11.268 175.953 10.892 175.953 10.436C175.953 9.972 176.057 9.596 176.281 9.292C176.521 8.956 176.865 8.788 177.305 8.788ZM182.08 8.252C181.808 8.252 181.56 8.316 181.336 8.444C181.112 8.564 180.928 8.74 180.784 8.972V8.364H180.144V12.5H180.784V10.004C180.808 9.628 180.928 9.332 181.152 9.108C181.36 8.9 181.608 8.796 181.896 8.796C182.616 8.796 182.984 9.196 182.984 10.004V12.5H183.624V9.956C183.624 8.82 183.104 8.252 182.08 8.252ZM184.517 10.156V10.7H188.557V10.156H184.517ZM189.537 6.788V12.5H192.073C192.657 12.5 193.121 12.38 193.457 12.156C193.849 11.884 194.049 11.468 194.049 10.908C194.049 10.524 193.937 10.22 193.729 9.98C193.521 9.74 193.233 9.58 192.857 9.516C193.145 9.42 193.377 9.268 193.553 9.06C193.721 8.828 193.809 8.548 193.809 8.228C193.809 7.78 193.657 7.428 193.353 7.172C193.041 6.916 192.617 6.788 192.089 6.788H189.537ZM190.193 7.34H191.937C192.337 7.34 192.641 7.412 192.849 7.572C193.057 7.732 193.161 7.972 193.161 8.292C193.161 8.62 193.049 8.868 192.841 9.036C192.633 9.196 192.329 9.284 191.929 9.284H190.193V7.34ZM190.193 9.828H192.017C192.457 9.828 192.793 9.908 193.025 10.084C193.265 10.26 193.393 10.532 193.393 10.9C193.393 11.268 193.249 11.548 192.969 11.724C192.729 11.868 192.417 11.948 192.017 11.948H190.193V9.828Z" fill="#333333"/>
<path d="M153.5 0.5H199.276C200.228 0.5 201 1.27182 201 2.2239V17.7761C201 18.7282 200.228 19.5 199.276 19.5H153.5V0.5Z" stroke="#E5E5E5" stroke-width="0.8"/>
</svg>
