<svg width="22" height="22" viewBox="0 0 11 11" fill="none" xmlns="http://www.w3.org/2000/svg">
<path opacity="0.9" fill-rule="evenodd" clip-rule="evenodd" d="M0.853553 0.646447C0.658291 0.451185 0.341709 0.451184 0.146447 0.646447C-0.0488156 0.841709 -0.0488155 1.15829 0.146447 1.35355L4.78424 5.99134L0.146447 10.6291C-0.0488155 10.8244 -0.0488156 11.141 0.146447 11.3362C0.341709 11.5315 0.658291 11.5315 0.853553 11.3362L5.49979 6.69L10.146 11.3362C10.3413 11.5315 10.6579 11.5315 10.8531 11.3362C11.0484 11.141 11.0484 10.8244 10.8531 10.6291L6.21535 5.99134L10.8531 1.35355C11.0484 1.15829 11.0484 0.841709 10.8531 0.646447C10.6579 0.451184 10.3413 0.451185 10.146 0.646447L5.49979 5.29269L0.853553 0.646447Z" fill="#999999"/>
</svg>
