<svg width="48" height="48" viewBox="0 0 48 48" fill="none" xmlns="http://www.w3.org/2000/svg">
<path d="M24 48C37.2548 48 48 37.2548 48 24C48 10.7452 37.2548 0 24 0C10.7452 0 0 10.7452 0 24C0 37.2548 10.7452 48 24 48Z" fill="#26BD71"/>
<path d="M21.6637 33.4277L35.2424 19.849C35.6329 19.4585 35.6329 18.8253 35.2424 18.4348L33.9815 17.1739C33.591 16.7834 32.9578 16.7834 32.5673 17.1739L20.3262 29.415L15.6612 24.7501C15.2707 24.3596 14.6375 24.3596 14.247 24.7501L12.9861 26.011C12.5956 26.4015 12.5956 27.0347 12.9861 27.4252L18.9886 33.4277C19.7273 34.1664 20.925 34.1664 21.6637 33.4277Z" fill="white"/>
</svg>
