<svg width="48" height="48" viewBox="0 0 48 48" fill="none" xmlns="http://www.w3.org/2000/svg">
<path fill-rule="evenodd" clip-rule="evenodd" d="M24 48C37.2548 48 48 37.2548 48 24C48 10.7452 37.2548 0 24 0C10.7452 0 0 10.7452 0 24C0 37.2548 10.7452 48 24 48ZM36.8474 16.1194C37.2387 16.5107 37.2378 17.1453 36.8455 17.5355L21.4396 32.8574C21.0488 33.2461 20.4171 33.2452 20.0273 32.8554L11.7071 24.5352C11.3166 24.1447 11.3166 23.5115 11.7071 23.121L13.1213 21.7068C13.5118 21.3163 14.145 21.3163 14.5355 21.7068L20.7784 27.9496L34.0209 14.7071C34.4114 14.3166 35.0446 14.3166 35.4351 14.7071L36.8474 16.1194Z" fill="#26BD71"/>
</svg>
