<svg width="48" height="48" viewBox="0 0 48 48" fill="none" xmlns="http://www.w3.org/2000/svg">
<path fill-rule="evenodd" clip-rule="evenodd" d="M24 0C10.65 0 0 10.65 0 24C0 37.35 10.65 48 24 48C37.35 48 48 37.35 48 24C48 10.65 37.35 0 24 0Z" fill="#FFAF0F"/>
<path d="M21.096 13.0879C21.0444 12.5032 21.5051 12 22.0921 12H25.9079C26.4949 12 26.9556 12.5032 26.904 13.0879L25.5805 28.0879C25.5349 28.6041 25.1026 29 24.5844 29H23.4156C22.8974 29 22.4651 28.6041 22.4195 28.0879L21.096 13.0879Z" fill="white"/>
<path d="M26.5 33.5C26.5 34.8807 25.3807 36 24 36C22.6193 36 21.5 34.8807 21.5 33.5C21.5 32.1193 22.6193 31 24 31C25.3807 31 26.5 32.1193 26.5 33.5Z" fill="white"/>
</svg>
