<svg width="200" height="156" viewBox="0 0 200 156" fill="none" xmlns="http://www.w3.org/2000/svg">
<path d="M0.5 4C0.5 2.067 2.067 0.5 4 0.5H196C197.933 0.5 199.5 2.067 199.5 4V31.5H0.5V4Z" fill="#F7F8FA" stroke="#E5E5E5"/>
<path d="M13 16.7817L16.3 13.4817L17.2427 14.4243L13 18.667L8.75734 14.4243L9.70001 13.4817L13 16.7817Z" fill="#999999"/>
<path d="M26.624 10.568V11.66H31.484C31.4 12.092 31.28 12.512 31.124 12.92H27.224V21.272H28.328V20.768H35.708V21.272H36.812V12.92H32.276C32.432 12.512 32.552 12.092 32.648 11.66H37.376V10.568H26.624ZM28.328 19.712V13.964H29.696V19.712H28.328ZM30.764 19.712V18.416H33.236V19.712H30.764ZM34.304 19.712V13.964H35.708V19.712H34.304ZM30.764 17.444V16.196H33.236V17.444H30.764ZM30.764 15.212V13.964H33.236V15.212H30.764ZM38.612 12.404V13.508H40.184C39.812 14.9 39.224 16.148 38.408 17.252L38.9 18.5C39.428 17.648 39.86 16.712 40.22 15.704V21.176H41.36V15.176C41.624 15.596 41.924 16.124 42.26 16.748L42.908 15.776C42.392 15.14 41.876 14.552 41.36 14.024V13.508H42.692V12.404H41.36V10.172H40.22V12.404H38.612ZM48.644 10.196C47.024 10.712 45.188 10.988 43.124 11.024V15.608C43.064 17.648 42.656 19.232 41.912 20.384L42.728 21.248C43.664 19.844 44.168 17.96 44.228 15.608V14.648H44.648C44.888 16.112 45.368 17.384 46.088 18.476C45.452 19.196 44.66 19.832 43.7 20.396L44.444 21.272C45.356 20.72 46.148 20.084 46.796 19.388C47.42 20.084 48.164 20.696 49.052 21.2L49.64 20.18C48.812 19.7 48.104 19.136 47.516 18.488C48.32 17.312 48.776 15.944 48.896 14.396V13.544H44.228V11.984C46.052 11.912 47.72 11.66 49.22 11.252L48.644 10.196ZM46.784 17.552C46.232 16.7 45.848 15.728 45.656 14.648H47.852C47.696 15.704 47.336 16.676 46.784 17.552ZM52.784 11.432C52.496 11.744 52.136 12.02 51.704 12.284C51.272 12.524 50.876 12.692 50.492 12.788V14.084C51.284 13.856 51.944 13.496 52.46 13.004V20H53.768V11.432H52.784Z" fill="#666666"/>
<path d="M0.5 62.5H199.5V93.5H0.5V62.5Z" fill="#F7F8FA" stroke="#E5E5E5"/>
<path d="M0.5 124.5H199.5V152C199.5 153.933 197.933 155.5 196 155.5H4C2.067 155.5 0.5 153.933 0.5 152V124.5Z" fill="#F7F8FA" stroke="#E5E5E5"/>
<path d="M0.5 93.5H199.5V124.5H0.5V93.5Z" fill="white" stroke="#E5E5E5"/>
<path d="M0.5 31.5H199.5V62.5H0.5V31.5Z" fill="white" stroke="#E5E5E5"/>
<path d="M13 78.7817L16.3 75.4817L17.2427 76.4243L13 80.667L8.75734 76.4243L9.70001 75.4817L13 78.7817Z" fill="#999999"/>
<path d="M13.7817 140L10.4817 136.7L11.4243 135.758L15.667 140L11.4243 144.243L10.4817 143.3L13.7817 140Z" fill="#999999"/>
<path d="M26.624 72.568V73.66H31.484C31.4 74.092 31.28 74.512 31.124 74.92H27.224V83.272H28.328V82.768H35.708V83.272H36.812V74.92H32.276C32.432 74.512 32.552 74.092 32.648 73.66H37.376V72.568H26.624ZM28.328 81.712V75.964H29.696V81.712H28.328ZM30.764 81.712V80.416H33.236V81.712H30.764ZM34.304 81.712V75.964H35.708V81.712H34.304ZM30.764 79.444V78.196H33.236V79.444H30.764ZM30.764 77.212V75.964H33.236V77.212H30.764ZM38.612 74.404V75.508H40.184C39.812 76.9 39.224 78.148 38.408 79.252L38.9 80.5C39.428 79.648 39.86 78.712 40.22 77.704V83.176H41.36V77.176C41.624 77.596 41.924 78.124 42.26 78.748L42.908 77.776C42.392 77.14 41.876 76.552 41.36 76.024V75.508H42.692V74.404H41.36V72.172H40.22V74.404H38.612ZM48.644 72.196C47.024 72.712 45.188 72.988 43.124 73.024V77.608C43.064 79.648 42.656 81.232 41.912 82.384L42.728 83.248C43.664 81.844 44.168 79.96 44.228 77.608V76.648H44.648C44.888 78.112 45.368 79.384 46.088 80.476C45.452 81.196 44.66 81.832 43.7 82.396L44.444 83.272C45.356 82.72 46.148 82.084 46.796 81.388C47.42 82.084 48.164 82.696 49.052 83.2L49.64 82.18C48.812 81.7 48.104 81.136 47.516 80.488C48.32 79.312 48.776 77.944 48.896 76.396V75.544H44.228V73.984C46.052 73.912 47.72 73.66 49.22 73.252L48.644 72.196ZM46.784 79.552C46.232 78.7 45.848 77.728 45.656 76.648H47.852C47.696 77.704 47.336 78.676 46.784 79.552ZM53.732 73.264C52.82 73.264 52.076 73.564 51.524 74.188C50.984 74.764 50.708 75.532 50.696 76.492H52.004C52.028 75.796 52.172 75.28 52.46 74.92C52.736 74.548 53.144 74.368 53.684 74.368C54.188 74.368 54.584 74.488 54.848 74.728C55.112 74.968 55.244 75.328 55.244 75.808C55.244 76.312 55.04 76.78 54.656 77.212C54.416 77.464 54.008 77.788 53.432 78.196C52.46 78.868 51.812 79.384 51.5 79.756C50.924 80.404 50.648 81.148 50.648 82H56.552V80.848H52.268C52.448 80.38 53 79.84 53.924 79.228C54.776 78.652 55.364 78.196 55.7 77.848C56.252 77.236 56.54 76.564 56.54 75.82C56.54 75.064 56.276 74.452 55.76 73.972C55.232 73.492 54.548 73.264 53.732 73.264Z" fill="#666666"/>
<path d="M26.624 134.568V135.66H31.484C31.4 136.092 31.28 136.512 31.124 136.92H27.224V145.272H28.328V144.768H35.708V145.272H36.812V136.92H32.276C32.432 136.512 32.552 136.092 32.648 135.66H37.376V134.568H26.624ZM28.328 143.712V137.964H29.696V143.712H28.328ZM30.764 143.712V142.416H33.236V143.712H30.764ZM34.304 143.712V137.964H35.708V143.712H34.304ZM30.764 141.444V140.196H33.236V141.444H30.764ZM30.764 139.212V137.964H33.236V139.212H30.764ZM38.612 136.404V137.508H40.184C39.812 138.9 39.224 140.148 38.408 141.252L38.9 142.5C39.428 141.648 39.86 140.712 40.22 139.704V145.176H41.36V139.176C41.624 139.596 41.924 140.124 42.26 140.748L42.908 139.776C42.392 139.14 41.876 138.552 41.36 138.024V137.508H42.692V136.404H41.36V134.172H40.22V136.404H38.612ZM48.644 134.196C47.024 134.712 45.188 134.988 43.124 135.024V139.608C43.064 141.648 42.656 143.232 41.912 144.384L42.728 145.248C43.664 143.844 44.168 141.96 44.228 139.608V138.648H44.648C44.888 140.112 45.368 141.384 46.088 142.476C45.452 143.196 44.66 143.832 43.7 144.396L44.444 145.272C45.356 144.72 46.148 144.084 46.796 143.388C47.42 144.084 48.164 144.696 49.052 145.2L49.64 144.18C48.812 143.7 48.104 143.136 47.516 142.488C48.32 141.312 48.776 139.944 48.896 138.396V137.544H44.228V135.984C46.052 135.912 47.72 135.66 49.22 135.252L48.644 134.196ZM46.784 141.552C46.232 140.7 45.848 139.728 45.656 138.648H47.852C47.696 139.704 47.336 140.676 46.784 141.552ZM53.684 135.264C52.844 135.264 52.16 135.492 51.632 135.972C51.068 136.452 50.756 137.112 50.684 137.964H51.968C52.016 137.436 52.196 137.04 52.484 136.776C52.772 136.512 53.18 136.38 53.696 136.38C54.2 136.38 54.596 136.488 54.86 136.728C55.1 136.956 55.232 137.28 55.232 137.712C55.232 138.144 55.088 138.48 54.824 138.708C54.56 138.936 54.164 139.056 53.636 139.056H53.024V140.04H53.648C54.212 140.04 54.644 140.16 54.932 140.4C55.244 140.64 55.4 141.012 55.4 141.516C55.4 141.948 55.244 142.296 54.956 142.584C54.62 142.896 54.176 143.064 53.624 143.064C53.12 143.064 52.712 142.92 52.4 142.632C52.04 142.32 51.86 141.876 51.836 141.3H50.516C50.588 142.26 50.924 142.992 51.524 143.496C52.052 143.94 52.76 144.168 53.636 144.168C54.548 144.168 55.304 143.904 55.88 143.4C56.42 142.896 56.696 142.248 56.696 141.456C56.696 140.952 56.552 140.532 56.264 140.208C56 139.896 55.616 139.656 55.112 139.5C56.048 139.188 56.528 138.552 56.528 137.616C56.528 136.884 56.264 136.308 55.76 135.888C55.232 135.468 54.548 135.264 53.684 135.264Z" fill="#666666"/>
<path d="M16.56 104.264C15.24 104.264 14.208 104.708 13.488 105.62C12.828 106.436 12.504 107.48 12.504 108.752C12.504 110.024 12.816 111.056 13.464 111.848C14.172 112.724 15.192 113.168 16.524 113.168C17.436 113.168 18.228 112.904 18.888 112.388C19.596 111.836 20.04 111.056 20.232 110.06H19.284C19.116 110.804 18.768 111.368 18.264 111.752C17.784 112.112 17.208 112.292 16.524 112.292C15.516 112.292 14.76 111.956 14.232 111.296C13.728 110.672 13.488 109.82 13.488 108.752C13.488 107.684 13.74 106.832 14.244 106.184C14.784 105.488 15.552 105.14 16.548 105.14C17.22 105.14 17.784 105.296 18.252 105.62C18.732 105.956 19.044 106.436 19.164 107.06H20.112C19.992 106.208 19.608 105.524 18.96 105.02C18.312 104.516 17.508 104.264 16.56 104.264ZM24.2465 106.628C23.3105 106.628 22.5785 106.94 22.0265 107.588C21.4985 108.2 21.2345 108.968 21.2345 109.904C21.2345 110.828 21.4985 111.596 22.0265 112.196C22.5785 112.844 23.3105 113.168 24.2465 113.168C25.1705 113.168 25.9145 112.844 26.4785 112.196C26.9945 111.596 27.2585 110.828 27.2585 109.904C27.2585 108.968 26.9945 108.2 26.4665 107.588C25.9145 106.94 25.1705 106.628 24.2465 106.628ZM24.2465 107.432C24.8945 107.432 25.4105 107.684 25.7945 108.188C26.1185 108.644 26.2865 109.208 26.2865 109.904C26.2865 110.576 26.1185 111.152 25.7945 111.608C25.4105 112.112 24.8945 112.364 24.2465 112.364C23.5865 112.364 23.0705 112.112 22.7105 111.608C22.3745 111.152 22.2185 110.588 22.2185 109.904C22.2185 109.208 22.3745 108.644 22.7105 108.188C23.0705 107.684 23.5865 107.432 24.2465 107.432ZM31.4097 106.628C31.0017 106.628 30.6297 106.724 30.2937 106.916C29.9577 107.096 29.6817 107.36 29.4657 107.708V106.796H28.5057V113H29.4657V109.256C29.5017 108.692 29.6817 108.248 30.0177 107.912C30.3297 107.6 30.7017 107.444 31.1337 107.444C32.2137 107.444 32.7657 108.044 32.7657 109.256V113H33.7257V109.184C33.7257 107.48 32.9457 106.628 31.4097 106.628ZM36.8648 104.792L35.9168 105.188V106.796H34.6688V107.6H35.9168V111.548C35.9168 112.016 36.0128 112.364 36.2168 112.604C36.4328 112.868 36.8048 113 37.3088 113H38.2448V112.196H37.4528C37.2368 112.196 37.0808 112.136 36.9968 112.04C36.9008 111.944 36.8648 111.776 36.8648 111.548V107.6H38.4008V106.796H36.8648V104.792ZM42.0305 106.628C41.1305 106.628 40.4225 106.952 39.8945 107.6C39.3665 108.212 39.1145 108.98 39.1145 109.892C39.1145 110.9 39.3785 111.692 39.9305 112.292C40.4585 112.868 41.1785 113.168 42.0665 113.168C42.8705 113.168 43.5305 112.928 44.0465 112.472C44.4665 112.088 44.7425 111.608 44.8865 111.008H43.9265C43.7705 111.44 43.5665 111.764 43.3025 111.98C42.9905 112.232 42.5705 112.364 42.0665 112.364C41.4785 112.364 41.0105 112.172 40.6745 111.788C40.3385 111.404 40.1585 110.864 40.1105 110.168H45.0065C44.9825 109.088 44.7425 108.236 44.2865 107.636C43.7825 106.964 43.0265 106.628 42.0305 106.628ZM42.0545 107.432C43.2305 107.432 43.8905 108.092 44.0105 109.424H40.1345C40.1945 108.812 40.3865 108.332 40.7225 107.972C41.0585 107.612 41.5025 107.432 42.0545 107.432ZM49.0347 106.628C48.6267 106.628 48.2547 106.724 47.9187 106.916C47.5827 107.096 47.3067 107.36 47.0907 107.708V106.796H46.1307V113H47.0907V109.256C47.1267 108.692 47.3067 108.248 47.6427 107.912C47.9547 107.6 48.3267 107.444 48.7587 107.444C49.8387 107.444 50.3907 108.044 50.3907 109.256V113H51.3507V109.184C51.3507 107.48 50.5707 106.628 49.0347 106.628ZM54.4898 104.792L53.5418 105.188V106.796H52.2938V107.6H53.5418V111.548C53.5418 112.016 53.6378 112.364 53.8418 112.604C54.0578 112.868 54.4298 113 54.9338 113H55.8698V112.196H55.0778C54.8618 112.196 54.7058 112.136 54.6218 112.04C54.5258 111.944 54.4898 111.776 54.4898 111.548V107.6H56.0258V106.796H54.4898V104.792ZM60.0755 104.264C59.2115 104.264 58.5035 104.552 57.9755 105.128C57.4475 105.692 57.1715 106.46 57.1715 107.42H58.1555C58.1675 106.664 58.3475 106.088 58.6835 105.704C58.9955 105.296 59.4515 105.104 60.0395 105.104C60.5915 105.104 61.0355 105.248 61.3475 105.536C61.6595 105.824 61.8155 106.22 61.8155 106.748C61.8155 107.3 61.5875 107.816 61.1555 108.284C60.9275 108.524 60.4835 108.872 59.8115 109.352C58.8995 109.976 58.2875 110.492 57.9515 110.876C57.3755 111.512 57.0995 112.22 57.0995 113H62.8115V112.124H58.3115C58.4675 111.548 59.0915 110.888 60.1835 110.156C61.0715 109.556 61.6595 109.088 61.9595 108.776C62.5115 108.176 62.7995 107.504 62.7995 106.76C62.7995 106.016 62.5355 105.404 62.0315 104.948C61.5155 104.492 60.8675 104.264 60.0755 104.264Z" fill="#666666"/>
<path d="M16.56 42.264C15.24 42.264 14.208 42.708 13.488 43.62C12.828 44.436 12.504 45.48 12.504 46.752C12.504 48.024 12.816 49.056 13.464 49.848C14.172 50.724 15.192 51.168 16.524 51.168C17.436 51.168 18.228 50.904 18.888 50.388C19.596 49.836 20.04 49.056 20.232 48.06H19.284C19.116 48.804 18.768 49.368 18.264 49.752C17.784 50.112 17.208 50.292 16.524 50.292C15.516 50.292 14.76 49.956 14.232 49.296C13.728 48.672 13.488 47.82 13.488 46.752C13.488 45.684 13.74 44.832 14.244 44.184C14.784 43.488 15.552 43.14 16.548 43.14C17.22 43.14 17.784 43.296 18.252 43.62C18.732 43.956 19.044 44.436 19.164 45.06H20.112C19.992 44.208 19.608 43.524 18.96 43.02C18.312 42.516 17.508 42.264 16.56 42.264ZM24.2465 44.628C23.3105 44.628 22.5785 44.94 22.0265 45.588C21.4985 46.2 21.2345 46.968 21.2345 47.904C21.2345 48.828 21.4985 49.596 22.0265 50.196C22.5785 50.844 23.3105 51.168 24.2465 51.168C25.1705 51.168 25.9145 50.844 26.4785 50.196C26.9945 49.596 27.2585 48.828 27.2585 47.904C27.2585 46.968 26.9945 46.2 26.4665 45.588C25.9145 44.94 25.1705 44.628 24.2465 44.628ZM24.2465 45.432C24.8945 45.432 25.4105 45.684 25.7945 46.188C26.1185 46.644 26.2865 47.208 26.2865 47.904C26.2865 48.576 26.1185 49.152 25.7945 49.608C25.4105 50.112 24.8945 50.364 24.2465 50.364C23.5865 50.364 23.0705 50.112 22.7105 49.608C22.3745 49.152 22.2185 48.588 22.2185 47.904C22.2185 47.208 22.3745 46.644 22.7105 46.188C23.0705 45.684 23.5865 45.432 24.2465 45.432ZM31.4097 44.628C31.0017 44.628 30.6297 44.724 30.2937 44.916C29.9577 45.096 29.6817 45.36 29.4657 45.708V44.796H28.5057V51H29.4657V47.256C29.5017 46.692 29.6817 46.248 30.0177 45.912C30.3297 45.6 30.7017 45.444 31.1337 45.444C32.2137 45.444 32.7657 46.044 32.7657 47.256V51H33.7257V47.184C33.7257 45.48 32.9457 44.628 31.4097 44.628ZM36.8648 42.792L35.9168 43.188V44.796H34.6688V45.6H35.9168V49.548C35.9168 50.016 36.0128 50.364 36.2168 50.604C36.4328 50.868 36.8048 51 37.3088 51H38.2448V50.196H37.4528C37.2368 50.196 37.0808 50.136 36.9968 50.04C36.9008 49.944 36.8648 49.776 36.8648 49.548V45.6H38.4008V44.796H36.8648V42.792ZM42.0305 44.628C41.1305 44.628 40.4225 44.952 39.8945 45.6C39.3665 46.212 39.1145 46.98 39.1145 47.892C39.1145 48.9 39.3785 49.692 39.9305 50.292C40.4585 50.868 41.1785 51.168 42.0665 51.168C42.8705 51.168 43.5305 50.928 44.0465 50.472C44.4665 50.088 44.7425 49.608 44.8865 49.008H43.9265C43.7705 49.44 43.5665 49.764 43.3025 49.98C42.9905 50.232 42.5705 50.364 42.0665 50.364C41.4785 50.364 41.0105 50.172 40.6745 49.788C40.3385 49.404 40.1585 48.864 40.1105 48.168H45.0065C44.9825 47.088 44.7425 46.236 44.2865 45.636C43.7825 44.964 43.0265 44.628 42.0305 44.628ZM42.0545 45.432C43.2305 45.432 43.8905 46.092 44.0105 47.424H40.1345C40.1945 46.812 40.3865 46.332 40.7225 45.972C41.0585 45.612 41.5025 45.432 42.0545 45.432ZM49.0347 44.628C48.6267 44.628 48.2547 44.724 47.9187 44.916C47.5827 45.096 47.3067 45.36 47.0907 45.708V44.796H46.1307V51H47.0907V47.256C47.1267 46.692 47.3067 46.248 47.6427 45.912C47.9547 45.6 48.3267 45.444 48.7587 45.444C49.8387 45.444 50.3907 46.044 50.3907 47.256V51H51.3507V47.184C51.3507 45.48 50.5707 44.628 49.0347 44.628ZM54.4898 42.792L53.5418 43.188V44.796H52.2938V45.6H53.5418V49.548C53.5418 50.016 53.6378 50.364 53.8418 50.604C54.0578 50.868 54.4298 51 54.9338 51H55.8698V50.196H55.0778C54.8618 50.196 54.7058 50.136 54.6218 50.04C54.5258 49.944 54.4898 49.776 54.4898 49.548V45.6H56.0258V44.796H54.4898V42.792ZM60.0755 42.264C59.2115 42.264 58.5035 42.552 57.9755 43.128C57.4475 43.692 57.1715 44.46 57.1715 45.42H58.1555C58.1675 44.664 58.3475 44.088 58.6835 43.704C58.9955 43.296 59.4515 43.104 60.0395 43.104C60.5915 43.104 61.0355 43.248 61.3475 43.536C61.6595 43.824 61.8155 44.22 61.8155 44.748C61.8155 45.3 61.5875 45.816 61.1555 46.284C60.9275 46.524 60.4835 46.872 59.8115 47.352C58.8995 47.976 58.2875 48.492 57.9515 48.876C57.3755 49.512 57.0995 50.22 57.0995 51H62.8115V50.124H58.3115C58.4675 49.548 59.0915 48.888 60.1835 48.156C61.0715 47.556 61.6595 47.088 61.9595 46.776C62.5115 46.176 62.7995 45.504 62.7995 44.76C62.7995 44.016 62.5355 43.404 62.0315 42.948C61.5155 42.492 60.8675 42.264 60.0755 42.264Z" fill="#666666"/>
</svg>
