<svg fill="none" height="9.001709" viewBox="0 0 9 9.00170898" width="9" xmlns="http://www.w3.org/2000/svg"><path d="m.42825789.67747946c.080873-.080858.166856-.166824.247729-.247682.195255-.195217.514523-.191177.709773.00404.88599.88581 3.11487 3.11427 3.11487 3.11427s2.22769-2.22725 3.11319-3.112584c.19525-.195217.51433-.199064.70958-.003847.08088.080857.16686.166824.24773.247682.19531.195269.19138.514259-.00393.709529-.8857.88553-3.11387 3.11327-3.11387 3.11327s2.22817 2.22775 3.11387 3.11328c.19531.19527.19924.51425.00393.70952-.08087.08086-.16685.16683-.24773.24769-.19525.19521-.51452.19117-.70978-.00404-.88598-.88582-3.11486-3.11427-3.11486-3.11427s-2.22769 2.22725-3.11319 3.11258c-.19525.19522-.514328.19906-.709583.00385-.080873-.08086-.166856-.16683-.247729-.24768-.195308-.19527-.191381-.51426.003927-.70953.885695-.88553 3.113875-3.11328 3.113875-3.11328s-2.22818-2.22774-3.113875-3.11327c-.195308-.19527-.199235-.514258-.003927-.709528" fill="#fff"/></svg>