<svg width="416" height="256" viewBox="0 0 416 256" fill="none" xmlns="http://www.w3.org/2000/svg">
<g filter="url(#filter0_d_2534_5556)">
<path d="M8 8C8 5.79086 9.79086 4 12 4H404C406.209 4 408 5.79086 408 8V240C408 242.209 406.209 244 404 244H12C9.79086 244 8 242.209 8 240V8Z" fill="white"/>
<path d="M8.5 8C8.5 6.067 10.067 4.5 12 4.5H404C405.933 4.5 407.5 6.067 407.5 8V240C407.5 241.933 405.933 243.5 404 243.5H12C10.067 243.5 8.5 241.933 8.5 240V8Z" stroke="#E0E0E0"/>
</g>
<path d="M8.5 8C8.5 6.067 10.067 4.5 12 4.5H404C405.933 4.5 407.5 6.067 407.5 8V43.5H8.5V8Z" fill="white" stroke="#E0E0E0"/>
<rect x="8" y="179" width="400" height="1" fill="#EDEDED"/>
<rect x="8" y="43" width="400" height="1" fill="#EDEDED"/>
<rect x="222.5" y="196.5" width="79" height="31" rx="3.5" stroke="#919499"/>
<path d="M255.658 214.564C255.238 214.676 254.818 214.774 254.384 214.872V207.06H255.462V207.844H256.022C256.218 210.196 256.834 212.366 257.87 214.354C257.114 215.614 256.176 216.678 255.042 217.574L255.728 218.358C256.778 217.532 257.674 216.524 258.43 215.348C259.074 216.398 259.858 217.406 260.796 218.372L261.468 217.602C260.474 216.636 259.634 215.572 258.962 214.424C259.928 212.59 260.572 210.378 260.88 207.788V206.864H255.462V206.108H248.798V207.06H249.904V215.726C249.484 215.782 249.064 215.852 248.644 215.908L248.882 216.888C250.45 216.664 251.948 216.398 253.404 216.09V218.4H254.384V215.866C254.804 215.768 255.224 215.67 255.658 215.558V214.564ZM256.946 207.844H259.928C259.676 209.93 259.158 211.764 258.402 213.36C257.604 211.694 257.114 209.86 256.946 207.844ZM253.404 215.096C252.578 215.264 251.738 215.432 250.884 215.572V213.192H253.404V215.096ZM250.884 212.282V210.154H253.404V212.282H250.884ZM250.884 209.23V207.06H253.404V209.23H250.884ZM270.344 205.604V209.426H267.348V218.33H268.356V215.334H273.41V216.706C273.41 217.14 273.186 217.364 272.752 217.364L271.184 217.336L271.45 218.316H273.088C273.956 218.316 274.404 217.854 274.404 216.93V209.426H271.38V205.604H270.344ZM268.356 212.87H273.41V214.466H268.356V212.87ZM273.41 212.002H268.356V210.392H273.41V212.002ZM267.558 205.968L266.718 206.374C267.278 207.074 267.796 207.872 268.272 208.754L269.084 208.362C268.594 207.494 268.09 206.696 267.558 205.968ZM274.18 205.898C273.788 206.738 273.242 207.592 272.57 208.46L273.368 208.866C274.04 208.04 274.586 207.186 275.006 206.29L274.18 205.898ZM265.262 212.828C264.59 214.536 263.82 216.202 262.924 217.84L263.848 218.246C264.688 216.664 265.444 214.97 266.144 213.178L265.262 212.828ZM263.89 205.772L263.176 206.458C264.212 207.214 265.024 207.914 265.612 208.586L266.326 207.872C265.668 207.172 264.856 206.472 263.89 205.772ZM263.484 209.062L262.77 209.748C263.75 210.504 264.506 211.218 265.066 211.876L265.78 211.162C265.164 210.462 264.408 209.762 263.484 209.062Z" fill="#666666"/>
<rect x="312" y="196" width="80" height="32" rx="4" fill="#4D88FF"/>
<path d="M345.336 212.38H347.142V214.172H345.322C345.322 214.046 345.336 213.92 345.336 213.808V212.38ZM345.252 215.054H347.142V218.148H348.052V215.054H349.928V216.93C349.928 217.21 349.788 217.364 349.508 217.364C349.2 217.364 348.878 217.336 348.528 217.308L348.766 218.218H349.802C350.516 218.218 350.88 217.896 350.88 217.266V208.88H348.528C348.948 208.46 349.368 207.928 349.788 207.312V206.598H346.414C346.554 206.318 346.708 206.038 346.848 205.744L345.882 205.534C345.168 206.99 344.258 208.18 343.152 209.09L343.782 209.832C343.978 209.664 344.188 209.468 344.398 209.272V213.864C344.37 215.404 344.02 216.692 343.32 217.7L344.048 218.358C344.692 217.462 345.084 216.37 345.252 215.054ZM347.436 208.88H344.776C345.168 208.446 345.546 207.97 345.896 207.452H348.626C348.234 207.984 347.842 208.46 347.436 208.88ZM349.928 214.172H348.052V212.38H349.928V214.172ZM349.928 211.484H348.052V209.776H349.928V211.484ZM347.142 209.776V211.484H345.336V209.776H347.142ZM338.938 206.346V207.326H340.52C340.198 209.356 339.54 211.162 338.532 212.744L339.12 213.682C339.372 213.29 339.624 212.884 339.862 212.45V217.938H340.814V216.874H343.264V210.504H340.716C341.052 209.524 341.318 208.46 341.5 207.326H343.614V206.346H338.938ZM340.814 215.964V211.428H342.34V215.964H340.814ZM354.898 209.72V210.672H358.566V216.776C358.426 216.748 358.286 216.706 358.16 216.664C357.152 216.342 356.312 215.586 355.64 214.382C355.892 213.654 356.116 212.856 356.284 211.988L355.304 211.82C354.828 214.228 353.932 216.146 352.588 217.574L353.232 218.372C354.03 217.56 354.702 216.552 355.248 215.348C355.822 216.258 356.578 216.93 357.502 217.364C358.734 217.882 360.75 218.148 363.578 218.148H365.146L365.328 217.14C364.572 217.196 363.844 217.224 363.13 217.224C361.73 217.21 360.554 217.126 359.574 216.986V214.088H363.746V213.136H359.574V210.672H363.13V209.72H354.898ZM364.726 206.99H359.644C359.448 206.416 359.224 205.898 359 205.436L357.922 205.604C358.174 206.024 358.412 206.486 358.622 206.99H353.274V210.042H354.254V207.914H363.746V209.972H364.726V206.99Z" fill="white"/>
<rect opacity="0.01" x="376" y="16" width="16" height="16" fill="#999999"/>
<path d="M389.657 18.3428L378.344 29.6565" stroke="#999999" stroke-width="1.2"/>
<path d="M389.657 29.6572L378.344 18.3435" stroke="#999999" stroke-width="1.2"/>
<path d="M33.632 18.78V27.418H34.78V18.78H33.632ZM35.676 30.33C36.544 30.33 36.992 29.84 36.992 28.874V17.576H35.788V28.566C35.788 29 35.606 29.224 35.256 29.224C34.752 29.224 34.22 29.196 33.66 29.154L33.94 30.33H35.676ZM24.686 23.022V24.24H25.4C25.358 26.368 25.036 28.132 24.448 29.532L25.4 30.372C26.086 28.79 26.464 26.746 26.52 24.24H27.458V28.832C27.458 29.154 27.304 29.322 27.01 29.322C26.786 29.322 26.562 29.294 26.324 29.266L26.632 30.372H27.36C28.172 30.372 28.578 29.98 28.578 29.21V24.24H29.39V24.254C29.376 26.382 29.166 28.146 28.774 29.546L29.698 30.372C30.202 28.804 30.468 26.76 30.496 24.24H31.42V28.874C31.42 29.182 31.294 29.336 31.07 29.336C30.86 29.336 30.636 29.308 30.398 29.28L30.692 30.386H31.42C32.176 30.386 32.554 30.008 32.554 29.266V24.24H33.198V23.022H32.554V17.996H29.39V23.022H28.578V17.996H25.414V23.022H24.686ZM31.42 23.022H30.496V19.13H31.42V23.022ZM27.458 23.022H26.534V19.13H27.458V23.022ZM39.008 17.996V30.456H40.31V19.242H41.892C41.584 20.376 41.15 21.65 40.604 23.05C41.43 24.212 41.85 25.262 41.85 26.2C41.85 26.438 41.794 26.606 41.696 26.718C41.584 26.802 41.388 26.858 41.094 26.886C40.898 26.886 40.66 26.858 40.366 26.816L40.814 28.16C41.752 28.16 42.41 27.978 42.802 27.614C43.054 27.334 43.18 26.858 43.18 26.2C43.124 25.248 42.704 24.128 41.948 22.854C42.452 21.51 42.872 20.25 43.236 19.046V17.996H39.008ZM46.694 30.302C47.506 30.302 47.926 29.84 47.926 28.944V25.08H50.95V23.792H47.926V22.448H49.522V21.51C49.914 21.818 50.334 22.112 50.81 22.392L51.594 21.258C49.942 20.306 48.71 19.13 47.884 17.716H46.596C45.644 19.172 44.412 20.376 42.872 21.314L43.628 22.434C44.048 22.168 44.454 21.874 44.846 21.566V22.448H46.582V23.792H43.418V25.08H46.582V28.608C46.582 28.916 46.456 29.084 46.232 29.084C45.84 29.084 45.434 29.056 45.014 29.014L45.308 30.302H46.694ZM45.266 21.202C45.994 20.558 46.652 19.816 47.24 18.976C47.772 19.816 48.402 20.558 49.158 21.202H45.266ZM49.536 25.836L48.5 26.48C49.172 27.614 49.718 28.636 50.11 29.56L51.23 28.804C50.824 27.964 50.264 26.97 49.536 25.836ZM44.594 25.892C44.062 27.04 43.446 28.02 42.718 28.846L43.824 29.63C44.552 28.734 45.196 27.67 45.742 26.452L44.594 25.892Z" fill="#222222"/>
<path d="M65.936 94.004H60.658C60.476 93.43 60.28 92.912 60.084 92.45L58.936 92.646C59.16 93.052 59.37 93.5 59.566 94.004H54.064V97.126H55.072V94.97H64.928V97.126H65.936V94.004ZM56.22 96.482V97.42H62.226C61.652 97.784 60.798 98.274 59.664 98.862V100.234H53.812V101.214H59.664V103.832C59.664 104.238 59.482 104.448 59.118 104.448C58.53 104.448 57.998 104.434 57.508 104.42L57.746 105.344H59.468C60.28 105.344 60.686 104.952 60.686 104.182V101.214H66.202V100.234H60.686V99.296C61.806 98.68 62.828 98.064 63.738 97.42V96.482H56.22ZM69.702 96.986H72.824V96.062H69.702V94.466C71.074 94.242 72.32 93.906 73.412 93.472L72.908 92.618C71.816 93.108 70.43 93.472 68.722 93.724V101.9C68.358 101.928 67.994 101.942 67.616 101.97L67.77 102.978L68.722 102.894V105.316H69.702V102.782C71.214 102.6 72.418 102.404 73.314 102.18V101.242C72.32 101.494 71.116 101.676 69.702 101.816V99.632H72.824V98.722H69.702V96.986ZM73.608 98.582V99.506H74.406C74.714 100.71 75.288 101.788 76.156 102.74C75.26 103.496 74.126 104.126 72.754 104.602L73.314 105.456C74.728 104.966 75.918 104.308 76.898 103.468C77.71 104.196 78.718 104.854 79.95 105.428L80.496 104.56C79.32 104.056 78.34 103.482 77.556 102.824C78.424 101.9 79.04 100.78 79.432 99.464V98.582H73.608ZM75.33 99.506H78.424C78.06 100.486 77.528 101.354 76.814 102.11C76.1 101.34 75.61 100.472 75.33 99.506ZM74.672 93.094V94.984C74.672 95.964 74.182 96.72 73.23 97.252L73.902 98.008C75.078 97.28 75.666 96.23 75.666 94.886V94.032H77.626V96.286C77.626 97.126 78.046 97.56 78.9 97.56H80.314V96.65H79.152C78.788 96.65 78.606 96.454 78.606 96.076V93.094H74.672ZM87.384 92.324C86.768 92.478 86.292 92.786 85.928 93.248C85.564 93.696 85.396 94.242 85.396 94.872C85.396 95.264 85.48 95.6 85.662 95.852C85.858 96.104 86.11 96.244 86.432 96.244C86.698 96.244 86.908 96.16 87.076 96.006C87.244 95.838 87.342 95.628 87.342 95.376C87.342 95.124 87.258 94.928 87.104 94.76C86.936 94.592 86.726 94.522 86.488 94.522C86.348 94.522 86.236 94.536 86.18 94.564C86.18 94.228 86.278 93.92 86.488 93.654C86.712 93.346 87.006 93.136 87.384 93.024V92.324ZM84.612 92.324C83.996 92.478 83.52 92.786 83.17 93.248C82.806 93.696 82.624 94.242 82.624 94.872C82.624 95.278 82.708 95.6 82.904 95.852C83.086 96.104 83.338 96.244 83.66 96.244C83.94 96.244 84.164 96.16 84.332 96.006C84.486 95.838 84.57 95.628 84.57 95.376C84.57 95.124 84.486 94.928 84.318 94.76C84.15 94.592 83.954 94.522 83.73 94.522C83.576 94.522 83.464 94.536 83.408 94.564C83.408 94.228 83.506 93.92 83.73 93.64C83.94 93.346 84.234 93.136 84.612 93.024V92.324ZM88.8555 94.004L92.2715 98.806L88.5895 104H90.0035L92.9715 99.716L95.9535 104H97.3675L93.6575 98.806L97.1015 94.004H95.6875L92.9715 97.896L90.2695 94.004H88.8555ZM97.7696 94.004L101.186 98.806L97.5036 104H98.9176L101.886 99.716L104.868 104H106.282L102.572 98.806L106.016 94.004H104.602L101.886 97.896L99.1836 94.004H97.7696ZM106.684 94.004L110.1 98.806L106.418 104H107.832L110.8 99.716L113.782 104H115.196L111.486 98.806L114.93 94.004H113.516L110.8 97.896L108.098 94.004H106.684ZM115.598 94.004L119.014 98.806L115.332 104H116.746L119.714 99.716L122.696 104H124.11L120.4 98.806L123.844 94.004H122.43L119.714 97.896L117.012 94.004H115.598ZM124.512 94.004L127.928 98.806L124.246 104H125.66L128.628 99.716L131.61 104H133.024L129.314 98.806L132.758 94.004H131.344L128.628 97.896L125.926 94.004H124.512ZM137.92 92.31C137.64 92.31 137.43 92.38 137.276 92.548C137.094 92.702 137.01 92.912 137.01 93.178C137.01 93.416 137.094 93.612 137.262 93.78C137.43 93.948 137.626 94.032 137.864 94.032C138.004 94.032 138.116 94.018 138.172 93.99C138.172 94.326 138.074 94.634 137.864 94.928C137.64 95.208 137.346 95.404 136.982 95.53V96.23C137.57 96.062 138.06 95.754 138.424 95.306C138.788 94.844 138.97 94.298 138.97 93.682C138.97 93.262 138.872 92.94 138.69 92.688C138.494 92.436 138.228 92.31 137.92 92.31ZM135.162 92.31C134.882 92.31 134.658 92.38 134.49 92.548C134.322 92.702 134.252 92.912 134.252 93.178C134.252 93.416 134.336 93.612 134.504 93.78C134.658 93.948 134.854 94.032 135.092 94.032C135.232 94.032 135.344 94.018 135.4 93.99C135.4 94.326 135.302 94.634 135.078 94.928C134.854 95.208 134.574 95.404 134.21 95.53V96.23C134.798 96.062 135.288 95.754 135.652 95.306C136.016 94.844 136.198 94.298 136.198 93.682C136.198 93.262 136.1 92.94 135.918 92.688C135.722 92.436 135.47 92.31 135.162 92.31ZM152.299 98.904V93.304H141.939V94.284H151.277V97.938H143.507V95.866H142.499V103.216C142.499 104.364 143.059 104.952 144.193 104.952H151.781C152.369 104.924 152.831 104.77 153.139 104.476C153.475 104.112 153.713 103.076 153.853 101.34L152.873 101.032C152.789 102.572 152.607 103.468 152.327 103.72C152.117 103.888 151.837 103.972 151.501 103.972H144.473C143.829 103.972 143.507 103.65 143.507 103.034V98.904H152.299ZM156.891 99.912V105.414H157.871V99.688C158.347 100.22 158.809 100.864 159.271 101.606L159.817 100.78C159.537 100.402 159.243 100.038 158.921 99.688C159.285 99.394 159.621 98.988 159.929 98.484L159.355 97.91C159.061 98.442 158.739 98.862 158.403 99.142C158.235 98.974 158.053 98.82 157.871 98.652V98.568C158.515 97.588 158.977 96.594 159.271 95.586V94.76H157.549L158.081 94.55C157.913 93.948 157.675 93.276 157.367 92.548L156.401 92.814C156.681 93.43 156.933 94.088 157.157 94.76H155.463V95.684H158.319C157.801 97.224 156.765 98.806 155.197 100.444L155.491 101.452C155.995 100.948 156.471 100.43 156.891 99.912ZM163.485 92.562V94.256H160.349V99.17C160.307 101.382 159.803 103.202 158.851 104.63L159.677 105.344C160.755 103.636 161.301 101.564 161.315 99.142V98.988H161.819C162.155 100.36 162.813 101.578 163.793 102.656C162.967 103.412 161.945 104.028 160.727 104.504L161.231 105.4C162.519 104.882 163.611 104.196 164.507 103.356C165.319 104.112 166.341 104.784 167.545 105.372L168.091 104.49C166.915 103.972 165.935 103.37 165.137 102.67C166.005 101.648 166.593 100.402 166.929 98.932V98.064H164.493V95.194H166.579C166.439 95.81 166.271 96.384 166.089 96.888L166.999 97.14C167.265 96.356 167.461 95.558 167.587 94.746V94.256H164.493V92.562H163.485ZM163.485 95.194V98.064H161.315V95.194H163.485ZM164.423 101.984C163.611 101.102 163.037 100.108 162.729 98.988H165.977C165.655 100.122 165.137 101.116 164.423 101.984ZM179.431 92.562V105.414H180.439V92.562H179.431ZM171.199 97.168H176.015V93.122H169.925V94.046H175.021V96.23H170.359L169.631 100.402H175.147C175.147 102.04 175.063 103.118 174.909 103.636C174.741 104.126 174.111 104.378 173.047 104.378C172.599 104.378 172.151 104.35 171.703 104.322L171.955 105.26C172.403 105.288 172.837 105.316 173.271 105.316C174.797 105.26 175.665 104.84 175.861 104.056C176.057 103.328 176.155 101.802 176.155 99.492H170.709L171.199 97.168ZM185.591 97.448H189.147V99.898H185.591V97.448ZM185.535 100.822H189.147V104.924H190.183V100.822H193.991V103.258C193.991 103.846 193.725 104.14 193.221 104.14C192.745 104.14 192.227 104.112 191.667 104.084L191.933 105.078H193.543C194.523 105.078 195.013 104.588 195.013 103.608V93.122H184.583V99.842C184.555 101.76 184.093 103.342 183.197 104.588L183.967 105.274C184.863 104.098 185.381 102.614 185.535 100.822ZM193.991 99.898H190.183V97.448H193.991V99.898ZM193.991 96.51H190.183V94.102H193.991V96.51ZM189.147 94.102V96.51H185.591V94.102H189.147ZM199.213 102.334C198.933 102.334 198.723 102.404 198.555 102.572C198.387 102.726 198.303 102.936 198.303 103.202C198.303 103.44 198.387 103.65 198.555 103.818C198.723 103.986 198.919 104.07 199.157 104.07C199.297 104.07 199.409 104.042 199.465 104.014C199.465 104.35 199.367 104.658 199.157 104.952C198.933 105.232 198.639 105.442 198.275 105.568V106.254C198.863 106.1 199.353 105.792 199.717 105.344C200.081 104.868 200.263 104.322 200.263 103.706C200.263 103.3 200.165 102.978 199.983 102.726C199.787 102.46 199.521 102.334 199.213 102.334ZM219.205 92.562V93.472H215.817V94.298H219.205V95.236H216.377V96.048H219.205V97H215.425V97.84H223.993V97H220.171V96.048H223.139V95.236H220.171V94.298H223.643V93.472H220.171V92.562H219.205ZM217.455 101.368H221.977V102.39H217.455V101.368ZM221.977 100.584H217.455V99.548H221.977V100.584ZM217.455 103.174H221.977V103.972C221.977 104.294 221.795 104.462 221.459 104.462L220.339 104.42L220.577 105.316H221.753C222.537 105.316 222.943 104.938 222.943 104.182V98.722H216.489V105.4H217.455V103.174ZM212.891 92.716L212.177 93.402C213.185 94.158 213.983 94.872 214.571 95.544L215.257 94.844C214.613 94.13 213.829 93.416 212.891 92.716ZM211.197 96.846V97.812H213.199V103.37C213.199 103.608 213.087 103.818 212.877 104.014L213.269 104.91C214.137 104.28 214.977 103.552 215.761 102.74L215.495 101.676C215.019 102.166 214.585 102.6 214.165 102.992V96.846H211.197ZM227.927 95.67H231.217V98.316H225.463V99.282H229.327C229.201 100.71 228.879 101.774 228.347 102.474C227.745 103.258 226.737 103.944 225.309 104.504L226.009 105.4C227.549 104.728 228.655 103.916 229.313 102.964C229.873 102.152 230.223 100.934 230.363 99.282H232.967V103.566C232.967 104.644 233.443 105.19 234.395 105.19H236.299C236.747 105.176 237.083 105.036 237.335 104.784C237.587 104.462 237.783 103.524 237.895 101.984L236.929 101.676C236.873 102.992 236.761 103.762 236.579 103.986C236.439 104.14 236.257 104.224 236.033 104.224H234.689C234.227 104.224 234.003 103.944 234.003 103.384V99.282H237.825V98.316H232.239V95.67H236.859V94.704H232.239V92.576H231.217V94.704H228.361C228.585 94.158 228.795 93.584 228.977 92.968L227.955 92.758C227.507 94.34 226.765 95.782 225.743 97.098L226.709 97.7C227.157 97.084 227.563 96.412 227.927 95.67ZM246.267 101.564C245.847 101.676 245.427 101.774 244.993 101.872V94.06H246.071V94.844H246.631C246.827 97.196 247.443 99.366 248.479 101.354C247.723 102.614 246.785 103.678 245.651 104.574L246.337 105.358C247.387 104.532 248.283 103.524 249.039 102.348C249.683 103.398 250.467 104.406 251.405 105.372L252.077 104.602C251.083 103.636 250.243 102.572 249.571 101.424C250.537 99.59 251.181 97.378 251.489 94.788V93.864H246.071V93.108H239.407V94.06H240.513V102.726C240.093 102.782 239.673 102.852 239.253 102.908L239.491 103.888C241.059 103.664 242.557 103.398 244.013 103.09V105.4H244.993V102.866C245.413 102.768 245.833 102.67 246.267 102.558V101.564ZM247.555 94.844H250.537C250.285 96.93 249.767 98.764 249.011 100.36C248.213 98.694 247.723 96.86 247.555 94.844ZM244.013 102.096C243.187 102.264 242.347 102.432 241.493 102.572V100.192H244.013V102.096ZM241.493 99.282V97.154H244.013V99.282H241.493ZM241.493 96.23V94.06H244.013V96.23H241.493ZM260.953 92.604V96.426H257.957V105.33H258.965V102.334H264.019V103.706C264.019 104.14 263.795 104.364 263.361 104.364L261.793 104.336L262.059 105.316H263.697C264.565 105.316 265.013 104.854 265.013 103.93V96.426H261.989V92.604H260.953ZM258.965 99.87H264.019V101.466H258.965V99.87ZM264.019 99.002H258.965V97.392H264.019V99.002ZM258.167 92.968L257.327 93.374C257.887 94.074 258.405 94.872 258.881 95.754L259.693 95.362C259.203 94.494 258.699 93.696 258.167 92.968ZM264.789 92.898C264.397 93.738 263.851 94.592 263.179 95.46L263.977 95.866C264.649 95.04 265.195 94.186 265.615 93.29L264.789 92.898ZM255.871 99.828C255.199 101.536 254.429 103.202 253.533 104.84L254.457 105.246C255.297 103.664 256.053 101.97 256.753 100.178L255.871 99.828ZM254.499 92.772L253.785 93.458C254.821 94.214 255.633 94.914 256.221 95.586L256.935 94.872C256.277 94.172 255.465 93.472 254.499 92.772ZM254.093 96.062L253.379 96.748C254.359 97.504 255.115 98.218 255.675 98.876L256.389 98.162C255.773 97.462 255.017 96.762 254.093 96.062ZM277.431 92.562V105.414H278.439V92.562H277.431ZM269.199 97.168H274.015V93.122H267.925V94.046H273.021V96.23H268.359L267.631 100.402H273.147C273.147 102.04 273.063 103.118 272.909 103.636C272.741 104.126 272.111 104.378 271.047 104.378C270.599 104.378 270.151 104.35 269.703 104.322L269.955 105.26C270.403 105.288 270.837 105.316 271.271 105.316C272.797 105.26 273.665 104.84 273.861 104.056C274.057 103.328 274.155 101.802 274.155 99.492H268.709L269.199 97.168ZM283.591 97.448H287.147V99.898H283.591V97.448ZM283.535 100.822H287.147V104.924H288.183V100.822H291.991V103.258C291.991 103.846 291.725 104.14 291.221 104.14C290.745 104.14 290.227 104.112 289.667 104.084L289.933 105.078H291.543C292.523 105.078 293.013 104.588 293.013 103.608V93.122H282.583V99.842C282.555 101.76 282.093 103.342 281.197 104.588L281.967 105.274C282.863 104.098 283.381 102.614 283.535 100.822ZM291.991 99.898H288.183V97.448H291.991V99.898ZM291.991 96.51H288.183V94.102H291.991V96.51ZM287.147 94.102V96.51H283.591V94.102H287.147ZM297.213 102.334C296.933 102.334 296.723 102.404 296.555 102.572C296.387 102.726 296.303 102.936 296.303 103.202C296.303 103.44 296.387 103.65 296.555 103.818C296.723 103.986 296.919 104.07 297.157 104.07C297.297 104.07 297.409 104.042 297.465 104.014C297.465 104.35 297.367 104.658 297.157 104.952C296.933 105.232 296.639 105.442 296.275 105.568V106.254C296.863 106.1 297.353 105.792 297.717 105.344C298.081 104.868 298.263 104.322 298.263 103.706C298.263 103.3 298.165 102.978 297.983 102.726C297.787 102.46 297.521 102.334 297.213 102.334ZM309.729 93.206V94.158H315.105V95.6H310.919V100.906H309.309V101.858H310.919V105.4H311.899V101.858H319.319V103.706C319.319 104.182 319.109 104.42 318.703 104.42L317.387 104.378L317.653 105.358H319.025C319.865 105.358 320.299 104.882 320.299 103.93V101.858H321.909V100.906H320.299V95.6H316.113V94.158H321.503V93.206H309.729ZM311.899 100.906V99.128H315.105V100.906H311.899ZM316.113 100.906V99.128H319.319V100.906H316.113ZM311.899 98.232V96.524H315.105V98.232H311.899ZM316.113 96.524H319.319V98.232H316.113V96.524ZM324.765 96.678V101.326H329.091V102.292H324.121V103.104H329.091V104.154H323.421V105.036H335.797V104.154H330.099V103.104H335.111V102.292H330.099V101.326H334.439V96.678H330.099V95.782H335.601V94.914H330.099V93.85C331.653 93.752 333.109 93.64 334.453 93.5L334.145 92.66C331.359 92.968 328.139 93.178 324.499 93.29L324.667 94.116C326.207 94.06 327.677 93.99 329.091 93.906V94.914H323.617V95.782H329.091V96.678H324.765ZM333.459 100.514H330.099V99.38H333.459V100.514ZM329.091 100.514H325.731V99.38H329.091V100.514ZM325.731 98.596V97.49H329.091V98.596H325.731ZM330.099 97.49H333.459V98.596H330.099V97.49ZM343.189 99.198V103.188C342.741 103.272 342.279 103.342 341.817 103.398L342.069 104.35C343.469 104.112 344.785 103.818 346.003 103.468V102.53C345.415 102.698 344.799 102.852 344.183 102.992V99.198H345.499V98.26H341.873V99.198H343.189ZM348.495 105.19C349.139 105.19 349.685 104.182 350.147 102.166L349.349 101.522C349.069 103.188 348.775 104.042 348.495 104.098C348.075 104.042 347.711 103.23 347.403 101.634C347.179 100.318 347.025 98.47 346.955 96.062H349.727V95.082H346.941C346.913 94.284 346.913 93.43 346.913 92.52H345.933C345.933 93.416 345.933 94.27 345.961 95.082H341.551V96.062H345.989C346.045 97.896 346.143 99.436 346.297 100.668C346.493 102.124 346.801 103.258 347.221 104.098C347.585 104.826 348.019 105.19 348.495 105.19ZM348.117 92.506L347.403 92.94C347.991 93.612 348.467 94.214 348.817 94.76L349.517 94.27C349.181 93.766 348.719 93.178 348.117 92.506ZM338.877 92.702L338.177 93.388C339.129 94.144 339.885 94.872 340.445 95.558L341.131 94.858C340.515 94.13 339.773 93.416 338.877 92.702ZM337.197 96.846V97.812H339.157V103.426C339.157 103.636 339.045 103.832 338.849 104L339.241 104.896C340.109 104.252 340.921 103.51 341.691 102.67L341.425 101.606C340.977 102.096 340.557 102.544 340.137 102.95V96.846H337.197Z" fill="#222222"/>
<defs>
<filter id="filter0_d_2534_5556" x="0" y="0" width="416" height="256" filterUnits="userSpaceOnUse" color-interpolation-filters="sRGB">
<feFlood flood-opacity="0" result="BackgroundImageFix"/>
<feColorMatrix in="SourceAlpha" type="matrix" values="0 0 0 0 0 0 0 0 0 0 0 0 0 0 0 0 0 0 127 0" result="hardAlpha"/>
<feOffset dy="4"/>
<feGaussianBlur stdDeviation="4"/>
<feComposite in2="hardAlpha" operator="out"/>
<feColorMatrix type="matrix" values="0 0 0 0 0 0 0 0 0 0 0 0 0 0 0 0 0 0 0.1 0"/>
<feBlend mode="normal" in2="BackgroundImageFix" result="effect1_dropShadow_2534_5556"/>
<feBlend mode="normal" in="SourceGraphic" in2="effect1_dropShadow_2534_5556" result="shape"/>
</filter>
</defs>
</svg>
