<?xml version="1.0" encoding="utf-8"?>
<!-- Generated by IcoMoon.io -->
<!DOCTYPE svg PUBLIC "-//W3C//DTD SVG 1.1//EN" "http://www.w3.org/Graphics/SVG/1.1/DTD/svg11.dtd">
<svg version="1.1" xmlns="http://www.w3.org/2000/svg" xmlns:xlink="http://www.w3.org/1999/xlink" width="32" height="32" viewBox="0 0 32 32">
<path fill="#b0b9c7" d="M29.671 3.879c0.786 0.777 1.372 1.644 1.755 2.603 0.382 0.96 0.574 1.947 0.574 2.958 0 1.013-0.192 2-0.574 2.96-0.382 0.958-0.969 1.826-1.755 2.603l-12.562 12.286c-0.788 0.777-1.755 1.424-2.903 1.941-1.147 0.517-2.361 0.82-3.639 0.905-1.28 0.087-2.585-0.085-3.92-0.517-1.333-0.43-2.569-1.207-3.705-2.329-1.116-1.099-1.892-2.29-2.329-3.572-0.437-1.284-0.613-2.56-0.526-3.831 0.089-1.273 0.389-2.469 0.903-3.591 0.514-1.12 1.164-2.069 1.952-2.844l11.15-10.896c0.197-0.196 0.487-0.244 0.869-0.148 0.382 0.098 0.672 0.244 0.869 0.437 0.174 0.194 0.316 0.48 0.425 0.857 0.11 0.377 0.066 0.663-0.13 0.857l-11.118 10.864c-0.59 0.583-1.083 1.262-1.477 2.037-0.391 0.777-0.622 1.607-0.688 2.491s0.066 1.778 0.395 2.684c0.327 0.905 0.917 1.778 1.771 2.619 0.764 0.754 1.612 1.287 2.542 1.6 0.928 0.313 1.852 0.443 2.77 0.388 0.919-0.053 1.794-0.252 2.624-0.597s1.541-0.809 2.132-1.39l12.53-12.256c0.59-0.581 1.012-1.186 1.262-1.81 0.251-0.626 0.372-1.246 0.361-1.86-0.011-0.615-0.158-1.212-0.443-1.796-0.284-0.581-0.677-1.122-1.18-1.616-0.94-0.907-1.996-1.332-3.166-1.278-1.17 0.055-2.345 0.663-3.525 1.828l-11.316 11.092c-0.501 0.496-0.748 1.045-0.738 1.648 0.011 0.604 0.215 1.1 0.608 1.488 0.482 0.475 1.033 0.668 1.657 0.583 0.622-0.087 1.131-0.324 1.524-0.713l10.265-10.055c0.197-0.194 0.487-0.244 0.871-0.146 0.382 0.096 0.672 0.242 0.869 0.436 0.196 0.194 0.348 0.48 0.457 0.857 0.11 0.377 0.068 0.663-0.13 0.857l-10.299 10.057c-0.788 0.777-1.541 1.316-2.263 1.618-0.722 0.3-1.399 0.436-2.034 0.404-0.633-0.032-1.223-0.201-1.771-0.501-0.546-0.302-1.049-0.668-1.508-1.1-0.373-0.343-0.706-0.786-1.001-1.324-0.295-0.54-0.466-1.132-0.508-1.778-0.044-0.647 0.071-1.337 0.345-2.069 0.272-0.734 0.804-1.479 1.589-2.233 0.395-0.388 0.745-0.743 1.049-1.067 0.263-0.281 0.508-0.528 0.74-0.743 0.229-0.217 0.354-0.334 0.377-0.357l9.15-8.988c0.788-0.775 1.644-1.385 2.574-1.826 0.93-0.443 1.876-0.697 2.837-0.761s1.908 0.064 2.837 0.388c0.93 0.325 1.787 0.875 2.574 1.65v0zM29.671 3.879v0z"></path>
</svg>
