<?xml version="1.0" encoding="utf-8"?>
<!-- Generated by IcoMoon.io -->
<!DOCTYPE svg PUBLIC "-//W3C//DTD SVG 1.1//EN" "http://www.w3.org/Graphics/SVG/1.1/DTD/svg11.dtd">
<svg version="1.1" xmlns="http://www.w3.org/2000/svg" xmlns:xlink="http://www.w3.org/1999/xlink" width="32" height="32" viewBox="0 0 32 32">
<path fill="#5b9adf" d="M16.039 31.333c-0.308 0-0.615-0.073-0.887-0.217-0.58-0.313-1.206-0.697-1.856-1.131-1.678-1.131-3.416-2.562-4.906-4.052-1.691-1.685-3.086-3.452-4.032-5.1-0.958-1.671-1.455-3.259-1.455-4.594v-13.758l1.419 0.446c1.088 0.336 2.152 0.505 3.157 0.505 2.921 0 5.793-0.842 8.11-2.369l0.603-0.397 0.603 0.397c2.305 1.527 5.19 2.369 8.11 2.369 1.005 0 2.069-0.169 3.157-0.505l1.419-0.446v13.746c0 1.287-0.52 2.851-1.502 4.499-0.969 1.635-2.4 3.391-4.15 5.099-1.513 1.467-3.298 2.921-5.012 4.1-0.662 0.446-1.289 0.842-1.869 1.167-0.272 0.156-0.591 0.24-0.91 0.24v0zM5.115 16.228c0 0.926 0.414 2.153 1.158 3.464 0.839 1.479 2.105 3.079 3.666 4.617 1.394 1.383 3.027 2.73 4.587 3.788 0.533 0.361 1.053 0.674 1.525 0.938 0.485-0.277 1.005-0.601 1.561-0.986 1.619-1.094 3.286-2.466 4.718-3.849 1.608-1.575 2.919-3.174 3.794-4.642 0.756-1.287 1.314-2.694 1.314-3.559v-10.222l-0.131-0.349c-0.805 0.156-1.597 0.24-2.377 0.24-3.121 0-6.136-0.818-8.713-2.357-2.577 1.539-5.58 2.357-8.713 2.357-0.769 0-1.572-0.084-2.377-0.24l-0.178 0.349v10.222l0.167 0.228z"></path>
<path fill="#5b9adf" d="M15.17 17.022h2.044v6.133h-2.044v-6.133z"></path>
<path fill="#5b9adf" d="M15.17 20.089h4.089v2.044h-4.089v-2.044z"></path>
<path fill="#5b9adf" d="M16.193 17.022c-2.258 0-4.089-1.831-4.089-4.089s1.831-4.089 4.089-4.089c2.258 0 4.089 1.831 4.089 4.089s-1.831 4.089-4.089 4.089zM16.193 10.889c-1.13 0-2.044 0.915-2.044 2.044s0.915 2.044 2.044 2.044c1.13 0 2.044-0.915 2.044-2.044s-0.915-2.044-2.044-2.044z"></path>
</svg>
