<svg xmlns="http://www.w3.org/2000/svg" width="20" height="20" viewBox="0 0 20 20">
  <metadata><?xpacket begin="﻿" id="W5M0MpCehiHzreSzNTczkc9d"?>
<x:xmpmeta xmlns:x="adobe:ns:meta/" x:xmptk="Adobe XMP Core 5.6-c138 79.159824, 2016/09/14-01:09:01        ">
   <rdf:RDF xmlns:rdf="http://www.w3.org/1999/02/22-rdf-syntax-ns#">
      <rdf:Description rdf:about=""/>
   </rdf:RDF>
</x:xmpmeta>
                                                                                                    
                                                                                                    
                                                                                                    
                                                                                                    
                                                                                                    
                                                                                                    
                                                                                                    
                                                                                                    
                                                                                                    
                                                                                                    
                                                                                                    
                                                                                                    
                                                                                                    
                                                                                                    
                                                                                                    
                                                                                                    
                                                                                                    
                                                                                                    
                                                                                                    
                                                                                                    
                           
<?xpacket end="w"?></metadata>
<defs>
    <style>
      .cls-1 {
        fill: #999;
        fill-rule: evenodd;
      }
    </style>
  </defs>
  <path id="椭圆_67_副本" data-name="椭圆 67 副本" class="cls-1" d="M10,18c-4.971,0-9-1.791-9-4,0-1.008.867-1.917,2.25-2.621a2.858,2.858,0,0,0,.574.735C2.7,12.631,2,13.282,2,14c0,1.657,3.582,3,8,3s8-1.343,8-3c0-.718-0.7-1.369-1.824-1.885a2.858,2.858,0,0,0,.574-0.735C18.133,12.083,19,12.992,19,14,19,16.209,14.971,18,10,18Zm1-4H9V13h2v1Zm-0.888-1.011C10.074,12.99,10.038,13,10,13s-0.074-.01-0.112-0.011h0.224Zm1.649-.324a5.282,5.282,0,0,1-.96.256V12.172H10a3.9,3.9,0,0,0,1.41-.274,8.539,8.539,0,0,1,2.328-2.38A4.128,4.128,0,0,0,14,8.086,4,4,0,1,0,6,8.086a4.127,4.127,0,0,0,.266,1.432A8.54,8.54,0,0,1,8.59,11.9a3.9,3.9,0,0,0,1.41.274H9.2v0.749a5.281,5.281,0,0,1-.96-0.256A10.554,10.554,0,0,0,5.332,9.752a5,5,0,1,1,9.335,0A10.553,10.553,0,0,0,11.761,12.665ZM8,8a2,2,0,1,1,2,2A2,2,0,0,1,8,8Zm2,1A1,1,0,1,0,9,8,1,1,0,0,0,10,9Z"/>
</svg>
