<?xml version="1.0" encoding="utf-8"?>
<!-- Generated by IcoMoon.io -->
<!DOCTYPE svg PUBLIC "-//W3C//DTD SVG 1.1//EN" "http://www.w3.org/Graphics/SVG/1.1/DTD/svg11.dtd">
<svg version="1.1" xmlns="http://www.w3.org/2000/svg" xmlns:xlink="http://www.w3.org/1999/xlink" width="32" height="32" viewBox="0 0 32 32">
<path fill="#fff" d="M4.357 22.994l12.507-12.277c0.481-0.473 0.481-1.238 0-1.71v0c-0.482-0.474-1.262-0.474-1.743 0l-12.507 12.276c-0.481 0.473-0.481 1.238 0 1.711v0c0.481 0.474 1.262 0.474 1.743 0zM15.136 10.716c-0.481-0.473-0.481-1.238 0-1.71v0c0.481-0.474 1.262-0.474 1.743 0l12.507 12.276c0.481 0.473 0.481 1.238 0 1.711v0c-0.482 0.474-1.262 0.474-1.743 0l-12.507-12.277z"></path>
</svg>
