<?xml version="1.0" encoding="utf-8"?>
<!-- Generated by IcoMoon.io -->
<!DOCTYPE svg PUBLIC "-//W3C//DTD SVG 1.1//EN" "http://www.w3.org/Graphics/SVG/1.1/DTD/svg11.dtd">
<svg version="1.1" xmlns="http://www.w3.org/2000/svg" xmlns:xlink="http://www.w3.org/1999/xlink" width="32" height="32" viewBox="0 0 32 32">
<path fill="#b3bdc6" d="M29.282 28.333h-26.564c-1.047 0-1.897-0.85-1.897-1.897v-20.872c0-1.047 0.85-1.897 1.897-1.897h26.564c1.047 0 1.897 0.85 1.897 1.897v20.872c0 1.047-0.85 1.897-1.897 1.897zM10.302 11.255h-2.019l-3.681 9.514h2.025l0.78-2.161h3.778l0.825 2.161h2.076l-3.784-9.514zM23.005 12.328c-0.383-0.478-0.858-0.787-1.423-0.932-0.37-0.095-1.161-0.142-2.376-0.142h-3.203v9.514h1.996v-3.588h1.302c0.903 0 1.594-0.046 2.070-0.137 0.351-0.074 0.696-0.224 1.036-0.452s0.619-0.539 0.841-0.937c0.22-0.398 0.33-0.89 0.33-1.472 0-0.757-0.192-1.376-0.573-1.854zM27.379 11.255h-1.882v9.514h1.882v-9.514zM20.672 15.414c-0.266 0.101-0.791 0.15-1.579 0.15h-1.093v-2.7h0.964c0.721 0 1.199 0.023 1.438 0.066 0.323 0.055 0.59 0.195 0.803 0.421 0.211 0.224 0.317 0.51 0.317 0.856 0 0.283-0.076 0.527-0.226 0.74-0.152 0.213-0.359 0.368-0.624 0.467zM9.27 13.475l1.304 3.529h-2.579l1.275-3.529z"></path>
</svg>
