<?xml version="1.0" encoding="utf-8"?>
<!-- Generated by IcoMoon.io -->
<!DOCTYPE svg PUBLIC "-//W3C//DTD SVG 1.1//EN" "http://www.w3.org/Graphics/SVG/1.1/DTD/svg11.dtd">
<svg version="1.1" xmlns="http://www.w3.org/2000/svg" xmlns:xlink="http://www.w3.org/1999/xlink" width="32" height="32" viewBox="0 0 32 32">
<path d="M26.198 7.502h-2.549l-0.85-1.7c-0.501-0.989-0.761-1.7-1.7-1.7h-10.198c-0.939 0-1.249 0.811-1.7 1.7l-0.85 1.7h-2.55c-1.877 0-3.399 1.521-3.399 3.398v13.597c0 1.877 1.522 3.399 3.399 3.399h20.396c1.878 0 3.399-1.522 3.399-3.399v-13.597c0-1.877-1.521-3.398-3.399-3.398v0zM28.46 24.899c0 0.983-0.797 1.781-1.781 1.781h-21.359c-0.984 0-1.781-0.798-1.781-1.781v-14.24c0-0.984 0.797-1.781 1.781-1.781h3.56l0.889-1.779c0.629-1.036 0.797-1.779 1.781-1.779h8.9c0.983 0 1.151 0.743 1.78 1.779l0.89 1.779h3.56c0.984 0 1.781 0.797 1.781 1.781v14.24zM16 10.901c-3.755 0-6.799 3.044-6.799 6.799 0 3.754 3.043 6.798 6.799 6.798s6.799-3.044 6.799-6.798c0-3.755-3.044-6.799-6.799-6.799v0zM16 23.361c-3.127 0-5.662-2.536-5.662-5.661 0-3.128 2.535-5.662 5.662-5.662s5.662 2.535 5.662 5.662c0 3.125-2.535 5.661-5.662 5.661v0z"></path>
</svg>
