<?xml version="1.0" encoding="utf-8"?>
<!-- Generated by IcoMoon.io -->
<!DOCTYPE svg PUBLIC "-//W3C//DTD SVG 1.1//EN" "http://www.w3.org/Graphics/SVG/1.1/DTD/svg11.dtd">
<svg version="1.1" xmlns="http://www.w3.org/2000/svg" xmlns:xlink="http://www.w3.org/1999/xlink" width="40" height="32" viewBox="0 0 40 32">
<path d="M20 1.988c3.678 0 6.481 2.802 6.481 6.13 0 1.051-0.35 1.927-0.701 2.802l5.255 3.853c0.701-0.35 1.576-0.525 2.452-0.525 2.277 0 4.029 1.576 4.029 3.678s-1.752 3.853-4.029 3.853c-2.277 0-4.029-1.752-4.029-3.853 0-0.525 0.175-0.876 0.175-1.401l-5.255-3.853c-0.876 0.876-1.927 1.401-3.153 1.576v5.955c2.277 0.525 4.204 2.452 4.204 4.904 0 2.802-2.452 5.079-5.255 5.079-2.978 0-5.255-2.277-5.255-5.079 0-2.452 1.752-4.379 4.204-4.904v-5.955c-1.576-0.175-2.627-0.701-3.503-1.401l-5.255 3.853c0.175 0.35 0.175 0.876 0.175 1.401 0 2.102-1.752 3.853-4.029 3.853-2.277-0.175-4.029-1.927-4.029-4.029s1.752-3.678 4.029-3.678c0.876 0 1.752 0.175 2.277 0.701l5.255-3.853c-0.525-0.876-0.701-1.752-0.701-2.802 0.175-3.503 2.978-6.306 6.656-6.306v0 0z"></path>
</svg>
