<?xml version="1.0" encoding="utf-8"?>
<!-- Generated by IcoMoon.io -->
<!DOCTYPE svg PUBLIC "-//W3C//DTD SVG 1.1//EN" "http://www.w3.org/Graphics/SVG/1.1/DTD/svg11.dtd">
<svg version="1.1" xmlns="http://www.w3.org/2000/svg" xmlns:xlink="http://www.w3.org/1999/xlink" width="35" height="32" viewBox="0 0 35 32">
<path d="M33.133 27.293v0l-14.080-24.933c-0.293-0.587-0.88-1.027-1.467-1.027-0.733 0-1.32 0.44-1.613 1.173l-14.373 25.080v0.147c-0.293 0.88-0.147 1.613 0.293 2.2 0.44 0.44 1.027 0.733 1.76 0.733h27.867c0.733 0 1.32-0.293 1.76-0.88 0.293-0.587 0.293-1.467-0.147-2.493v0zM31.666 28.907c0 0.147-1.027 0.293-1.027 0.293h-26.4c0 0-0.88-0.293-1.027-0.44s-0.147-0.293 0-0.587l14.227-24.933c0 0 0-0.147 0.147-0.147 0 0 0 0 0 0v0l14.080 24.787c0.147 0.587 0.147 0.88 0 1.027v0z"></path>
<path d="M15.973 23.333h2.933v2.933h-2.933v-2.933z"></path>
<path d="M15.973 10.133h2.933v10.267h-2.933v-10.267z"></path>
</svg>
