<svg id="地区.svg" xmlns="http://www.w3.org/2000/svg" width="36" height="36" viewBox="0 0 36 36">
  <metadata><?xpacket begin="﻿" id="W5M0MpCehiHzreSzNTczkc9d"?>
<x:xmpmeta xmlns:x="adobe:ns:meta/" x:xmptk="Adobe XMP Core 5.6-c138 79.159824, 2016/09/14-01:09:01        ">
   <rdf:RDF xmlns:rdf="http://www.w3.org/1999/02/22-rdf-syntax-ns#">
      <rdf:Description rdf:about=""/>
   </rdf:RDF>
</x:xmpmeta>
                                                                                                    
                                                                                                    
                                                                                                    
                                                                                                    
                                                                                                    
                                                                                                    
                                                                                                    
                                                                                                    
                                                                                                    
                                                                                                    
                                                                                                    
                                                                                                    
                                                                                                    
                                                                                                    
                                                                                                    
                                                                                                    
                                                                                                    
                                                                                                    
                                                                                                    
                                                                                                    
                           
<?xpacket end="w"?></metadata>
<defs>
    <style>
      .cls-1, .cls-2 {
        fill: #306cc7;
      }

      .cls-1 {
        fill-rule: evenodd;
      }
    </style>
  </defs>
  <path id="矩形_95" data-name="矩形 95" class="cls-1" d="M24.743,91.742l1.486,1.486C24.879,93.411,24,93.687,24,94c0,0.552,2.686,1,6,1s6-.448,6-1c0-.313-0.879-0.588-2.228-0.772l1.486-1.486C36.935,92.292,38,93.1,38,94c0,1.657-3.582,3-8,3s-8-1.343-8-3C22,93.1,23.065,92.292,24.743,91.742Z" transform="translate(-12 -69)"/>
  <path id="矩形_93_拷贝_3" data-name="矩形 93 拷贝 3" class="cls-1" d="M33.779,89.877L30,93.657l-3.779-3.779A7,7,0,1,1,33.779,89.877ZM30,79a4.986,4.986,0,0,0-2.548,9.281L30,90.828l2.548-2.548A4.986,4.986,0,0,0,30,79Z" transform="translate(-12 -69)"/>
  <circle id="椭圆_19" data-name="椭圆 19" class="cls-2" cx="18" cy="15" r="2"/>
</svg>
