<?xml version="1.0" encoding="UTF-8" standalone="no"?>
<svg width="32px" height="32px" viewBox="0 0 32 32" version="1.1" xmlns="http://www.w3.org/2000/svg" xmlns:xlink="http://www.w3.org/1999/xlink">
    <!-- Generator: Sketch 39.1 (31720) - http://www.bohemiancoding.com/sketch -->
    <title>certification</title>
    <desc>Created with Sketch.</desc>
    <defs></defs>
    <g id="Page-1" stroke="none" stroke-width="1" fill="none" fill-rule="evenodd">
        <g id="certification" fill="#4DD691">
            <path d="M29.9884094,3.1467867 L29.9884094,20.3730933 C29.9884094,21.4773693 29.4428692,22.4196049 28.4816793,22.9717429 L17.5009347,31.5858965 C16.5397449,32.1380345 15.4486645,32.1380345 14.4874747,31.5858965 L3.50673002,22.9717429 C2.54554018,22.4196049 2,21.4773693 2,20.3730933 L2,3.1467867 C2,2.04051013 2.18784167,0 4.00431062,0 L13.995889,0 C14.8611597,0.0240060015 17.2211705,0.0240060015 17.9925204,0 L27.9840987,0 C30.2761668,0 29.9884094,2.04051013 29.9884094,3.1467867 L29.9884094,3.1467867 Z M24.7728054,7.975994 L14.2356869,17.9344836 L9.38977137,13.6434109 L7.99694534,15.1277819 L12.3252971,19.7389347 L12.1574386,19.8969742 L14.1357711,22.0035009 L14.2916397,21.8354589 L14.4495067,22.0035009 L16.4698038,19.9129782 L16.2659756,19.7329332 L25.9977729,9.36034009 L24.7728054,7.975994 L24.7728054,7.975994 Z" id="Shape"></path>
        </g>
    </g>
</svg>