<?xml version="1.0" encoding="utf-8"?>
<!-- Generated by IcoMoon.io -->
<!DOCTYPE svg PUBLIC "-//W3C//DTD SVG 1.1//EN" "http://www.w3.org/Graphics/SVG/1.1/DTD/svg11.dtd">
<svg version="1.1" xmlns="http://www.w3.org/2000/svg" xmlns:xlink="http://www.w3.org/1999/xlink" width="32" height="32" viewBox="0 0 32 32">
<path fill="#acb7c0" d="M19.555 12.32c-0.232-0.233-0.481-0.445-0.738-0.639l-2.387 2.384c0.278 0.164 0.541 0.362 0.78 0.601l0.12 0.119c1.526 1.527 1.526 4.013 0 5.54l-6.514 6.517c-1.527 1.527-4.013 1.527-5.539 0l-0.12-0.119c-1.527-1.527-1.527-4.013 0-5.54l2.949-2.949c-0.511-1.264-0.756-2.612-0.732-3.957l-4.563 4.563c-2.811 2.812-2.811 7.417 0 10.229l0.12 0.119c2.815 2.812 7.416 2.812 10.227 0l6.517-6.517c2.812-2.812 2.812-7.417 0-10.228l-0.12-0.123zM29.188 2.931l-0.119-0.119c-2.812-2.812-7.416-2.812-10.228 0l-6.519 6.517c-2.812 2.812-2.812 7.417 0 10.228l0.119 0.12c0.233 0.233 0.481 0.445 0.738 0.642l2.385-2.384c-0.278-0.165-0.541-0.362-0.78-0.601l-0.12-0.123c-1.527-1.526-1.527-4.013 0-5.54l6.517-6.517c1.527-1.527 4.013-1.527 5.539 0l0.12 0.12c1.527 1.527 1.527 4.013 0 5.54l-2.949 2.949c0.511 1.264 0.756 2.612 0.732 3.956l4.565-4.559c2.812-2.815 2.812-7.417 0-10.229v0 0z"></path>
</svg>
