<?xml version="1.0" encoding="UTF-8" standalone="no"?>
<svg width="32px" height="32px" viewBox="0 0 32 32" version="1.1" xmlns="http://www.w3.org/2000/svg" xmlns:xlink="http://www.w3.org/1999/xlink">
    <!-- Generator: Sketch 39.1 (31720) - http://www.bohemiancoding.com/sketch -->
    <title>chart-refresh</title>
    <desc>Created with Sketch.</desc>
    <defs></defs>
    <g id="Page-1" stroke="none" stroke-width="1" fill="none" fill-rule="evenodd">
        <g id="chart-refresh" transform="translate(0.000000, -0.743164)" fill="#000000">
            <g id="Group" transform="translate(0.000000, 3.243164)">
                <path d="M16.0158936,26.0397746 C10.6633843,26.0397746 5.76385647,22.3926074 3.83785242,16.8727281 C3.48895675,17.7245664 3.08926719,18.7545997 2.74703301,19.6430763 C2.38897778,20.5715218 2.07422226,21.3858893 1.89019852,21.803898 L0.360553287,21.1360833 C0.537915527,20.730565 0.8435115,19.9403454 1.18907643,19.0418766 C1.75363793,17.5805117 2.39314122,15.9242981 2.83113435,14.9991833 C3.07511152,14.4879137 3.5539063,14.1864812 4.03519914,14.2381077 C4.335799,14.2664191 4.8753799,14.4454467 5.1110302,15.3289272 C6.66565603,21.2093597 12.1672162,25.122154 17.635469,24.2420043 C21.7089717,23.5858472 24.999749,20.5915063 26.224631,16.4280734 L27.8258873,16.896876 C26.4203123,21.6848238 22.6174327,25.1304808 17.901096,25.8882256 C17.2682542,25.9914787 16.6379105,26.0397746 16.0158936,26.0397746 L16.0158936,26.0397746 Z" id="Shape"></path>
                <path d="M27.6518558,12.0597997 C27.6185483,12.0597997 27.5869062,12.0581343 27.5519334,12.0548035 C27.2513335,12.0264922 26.7117526,11.8474646 26.4786004,10.9664822 C24.9339668,5.12601855 19.449893,1.24569912 13.9583251,2.13167763 C9.87899352,2.7911654 6.57739125,5.77717946 5.34085169,9.92062785 L3.74042809,9.44433113 C5.15849333,4.67969855 8.97136516,1.2465318 13.6902,0.482958213 C19.7488275,-0.504608064 25.6092756,3.30243496 27.7501128,9.42601203 C27.9724401,8.89142725 28.2122538,8.28689679 28.4529003,7.68736246 C28.9974773,6.32591991 29.513743,5.04025184 29.8268331,4.48568258 L31.2782058,5.31254035 C31.0192403,5.76635453 30.477994,7.11780484 30.00253,8.30688127 C29.5462177,9.44766188 29.0824113,10.6050962 28.7518347,11.2962261 C28.5295074,11.769192 28.1040046,12.0597997 27.6510231,12.0597997 L27.6518558,12.0597997 Z" id="Shape"></path>
            </g>
        </g>
        <g id="chart-zoom" transform="translate(-32.000000, 0.000000)">
            <g id="Group" transform="translate(0.295898, 0.091797)"></g>
        </g>
    </g>
</svg>