<?xml version="1.0" encoding="UTF-8" standalone="no"?>
<svg width="32px" height="32px" viewBox="0 0 32 32" version="1.1" xmlns="http://www.w3.org/2000/svg" xmlns:xlink="http://www.w3.org/1999/xlink">
    <!-- Generator: Sketch 39.1 (31720) - http://www.bohemiancoding.com/sketch -->
    <title>chart-zoom</title>
    <desc>Created with Sketch.</desc>
    <defs></defs>
    <g id="Page-1" stroke="none" stroke-width="1" fill="none" fill-rule="evenodd">
        <g id="chart-zoom" fill="#000000">
            <g id="Group" transform="translate(2.000000, 2.000000)">
                <path d="M11.3735487,26.9715153 L3.15641007,26.9715153 C1.79783355,26.9715153 0.691178503,25.8648603 0.691178503,24.5062838 L0.691178503,16.2891451 C0.691178503,14.9305686 1.79783355,13.8239135 3.15641007,13.8239135 L11.3735487,13.8239135 C12.7321252,13.8239135 13.8387803,14.9305686 13.8387803,16.2891451 L13.8387803,24.5062838 C13.8387803,25.8648603 12.7321252,26.9715153 11.3735487,26.9715153 L11.3735487,26.9715153 Z M3.15641007,15.4668014 C2.70295142,15.4668014 2.33496612,15.8347867 2.33496612,16.2882454 L2.33496612,24.505384 C2.33496612,24.9588427 2.70295142,25.326828 3.15641007,25.326828 L11.3735487,25.326828 C11.8270074,25.326828 12.1949927,24.9588427 12.1949927,24.505384 L12.1949927,16.2882454 C12.1949927,15.8347867 11.8270074,15.4668014 11.3735487,15.4668014 L3.15641007,15.4668014 L3.15641007,15.4668014 Z" id="Shape"></path>
                <path d="M24.5216004,26.9715153 L16.3044617,26.9715153 L16.3044617,25.3277277 L24.5216004,25.3277277 C25.3430443,25.3277277 25.3430443,25.1864717 25.3430443,24.5062838 L25.3430443,3.14064361 C25.3430443,2.31919966 25.2800639,2.31919966 24.5216004,2.31919966 L3.15596021,2.31919966 C2.33451626,2.31919966 2.33451626,2.46045563 2.33451626,3.14064361 L2.33451626,11.3577823 L0.690728644,11.3577823 L0.690728644,3.14064361 C0.690728644,2.53063375 0.690728644,0.675412041 3.15596021,0.675412041 L24.5216004,0.675412041 C25.2593704,0.675412041 26.9868319,0.675412041 26.9868319,3.14064361 L26.9868319,24.5062838 C26.9868319,25.1162936 26.9868319,26.9715153 24.5216004,26.9715153 L24.5216004,26.9715153 Z" id="Shape"></path>
            </g>
        </g>
    </g>
</svg>