<?xml version="1.0" encoding="utf-8"?>
<!-- Generated by IcoMoon.io -->
<!DOCTYPE svg PUBLIC "-//W3C//DTD SVG 1.1//EN" "http://www.w3.org/Graphics/SVG/1.1/DTD/svg11.dtd">
<svg version="1.1" xmlns="http://www.w3.org/2000/svg" xmlns:xlink="http://www.w3.org/1999/xlink" width="39" height="32" viewBox="0 0 39 32">
<path fill="#000" d="M28.648 28.416h-4.656v-3.104h4.656c3.428 0 6.208-2.78 6.208-6.208s-2.78-6.208-6.208-6.208c-0.587 0-1.144 0.107-1.682 0.259-0.618-3.667-3.787-6.467-7.63-6.467-4.285 0-7.76 3.473-7.76 7.76h-1.552v0.332c-0.487-0.202-1.004-0.332-1.552-0.332-2.572 0-4.656 2.432-4.656 5.432s2.084 5.432 4.656 5.432c0.548 0 1.065-0.13 1.552-0.332v0.332h4.425c-1.422 1.893-3.569 3.104-5.977 3.104-4.285 0-7.76-3.821-7.76-8.536s3.475-8.536 7.76-8.536c0.101 0 0.194 0.028 0.293 0.033 1.121-4.463 5.423-7.793 10.57-7.793 4.549 0 8.44 2.598 10.058 6.282 4.788 0.386 8.565 4.35 8.565 9.237 0 5.143-4.169 9.312-9.312 9.312zM11.724 16c-0.047-0.051-0.101-0.090-0.147-0.14v-1.412c0 0.531 0.054 1.051 0.157 1.552h-0.009z"></path>
<path fill="#000" d="M25.067 23.088l-1.524 0.295c-0.421 0.082-0.827-0.192-0.91-0.613l-0.494-2.545c-2.618 4.872-7.751 8.191-13.668 8.191v-3.104c4.563 0 8.486-2.493 10.629-6.164l-1.636-0.029c-0.483-0.008-0.866-0.362-0.86-0.79l0.028-1.552c0.008-0.428 0.403-0.77 0.886-0.761l2.893 0.050c0.006-0.022 0.017-0.043 0.023-0.065h3.244c-0.039 0.194-0.093 0.382-0.143 0.573 0.051 0.099 0.082 0.208 0.081 0.324l-0.003 0.149 0.269-0.053c0.421-0.082 0.827 0.192 0.91 0.613l0.889 4.57c0.081 0.421-0.194 0.829-0.615 0.911zM2.437 23.732c0.019 0.011 0.039 0.017 0.057 0.028h-0.11l0.053-0.028z"></path>
</svg>
