<?xml version="1.0" encoding="utf-8"?>
<!-- Generated by IcoMoon.io -->
<!DOCTYPE svg PUBLIC "-//W3C//DTD SVG 1.1//EN" "http://www.w3.org/Graphics/SVG/1.1/DTD/svg11.dtd">
<svg version="1.1" xmlns="http://www.w3.org/2000/svg" xmlns:xlink="http://www.w3.org/1999/xlink" width="32" height="32" viewBox="0 0 32 32">
<path fill="#67aaf5" d="M0 30.933v-30.933h30.933l-30.933 30.933zM17.026 8.058c-0.001-0.004-0.002-0.009-0.004-0.013-0.001-0.003-0.002-0.007-0.003-0.011-0.001-0.002-0.002-0.004-0.002-0.006-0.050-0.13-0.16-0.237-0.309-0.282l-3.833-1.195-2.345-3.154c-0.091-0.124-0.229-0.192-0.371-0.197-0.002 0-0.004 0-0.005 0-0.004 0-0.010 0-0.014 0s-0.009 0-0.013 0c-0.002 0-0.004 0-0.006 0-0.142 0.005-0.281 0.074-0.371 0.198l-2.343 3.149-3.846 1.199c-0.15 0.045-0.26 0.153-0.309 0.282 0 0.002-0.001 0.004-0.002 0.006-0.001 0.003-0.002 0.007-0.004 0.012-0.001 0.003-0.002 0.007-0.003 0.012-0.001 0.002-0.001 0.003-0.002 0.005-0.038 0.133-0.015 0.282 0.079 0.403l2.37 3.139-0.013 3.901c-0.002 0.151 0.069 0.286 0.181 0.371 0.001 0.002 0.003 0.003 0.004 0.004 0.003 0.002 0.007 0.004 0.011 0.007 0.003 0.002 0.006 0.004 0.011 0.007 0.001 0.001 0.003 0.002 0.004 0.003 0.118 0.077 0.272 0.1 0.42 0.051l3.827-1.22 3.827 1.22c0.148 0.049 0.302 0.026 0.42-0.051 0.001-0.001 0.002-0.002 0.004-0.003 0.003-0.003 0.007-0.005 0.011-0.007 0.003-0.003 0.007-0.005 0.011-0.007 0.001-0.001 0.003-0.003 0.004-0.004 0.112-0.085 0.183-0.22 0.181-0.371l-0.013-3.901 2.37-3.139c0.093-0.122 0.117-0.27 0.079-0.403-0.001-0.002-0.001-0.003-0.002-0.005zM13.682 11.28c-0.030 0.061-0.078 0.112-0.077 0.186l0.012 3.386-3.298-1.053c-0.064-0.020-0.123 0.007-0.186 0.013-0.063-0.005-0.122-0.033-0.186-0.013l-3.298 1.053 0.012-3.386c0.001-0.074-0.048-0.125-0.077-0.186-0.015-0.041-0.003-0.084-0.031-0.119l-2.051-2.717 3.279-1.022c0.002-0.001 0.004-0.002 0.006-0.002l0.038-0.013c0.028-0.007 0.036-0.036 0.062-0.049 0.076-0.033 0.158-0.057 0.21-0.129l2.043-2.746 2.031 2.732c0.030 0.041 0.081 0.045 0.121 0.074 0.049 0.042 0.081 0.099 0.147 0.118l3.325 1.037-2.051 2.717c-0.028 0.035-0.016 0.079-0.031 0.119z"></path>
</svg>
