<?xml version="1.0" encoding="utf-8"?>
<!-- Generated by IcoMoon.io -->
<!DOCTYPE svg PUBLIC "-//W3C//DTD SVG 1.1//EN" "http://www.w3.org/Graphics/SVG/1.1/DTD/svg11.dtd">
<svg version="1.1" xmlns="http://www.w3.org/2000/svg" xmlns:xlink="http://www.w3.org/1999/xlink" width="32" height="32" viewBox="0 0 32 32">
<path fill="#2fb3e4" d="M22.775 9.225c-0.16-0.22-0.353-0.418-0.596-0.558l-2.963-1.561 0.518-0.287c0.342-0.191 0.467-0.63 0.278-0.975-0.19-0.345-0.625-0.471-0.967-0.28l-1.344 0.745-0.239-0.127-2.676-1.409c-0.615-0.358-1.372-0.358-1.986 0l-2.915 1.536-1.344-0.745c-0.342-0.191-0.777-0.065-0.967 0.28-0.189 0.345-0.064 0.785 0.278 0.975l0.518 0.287-2.963 1.561c-0.615 0.356-0.993 1.016-0.993 1.73v8.59c0 0.714 0.378 1.374 0.993 1.73l3.716 2.159-9.123 9.123v-32h32l-9.225 9.225zM5.841 18.324v-1.674h0.002c-0.001-0.014-0.004-0.029-0.004-0.044 0-0.221 0.178-0.399 0.396-0.399 0.053 0 0.104 0.011 0.15 0.031l0.002-0.006 5.94 3.442-2.141 2.141-3.486-2.026c-0.52-0.301-0.86-0.86-0.86-1.464zM6.322 14.517l0.002-0.002c-0.282-0.122-0.48-0.405-0.48-0.735 0-0.004 0-0.009 0-0.013h-0.003v-2.15l0.001-0.001c-0.001-0.010-0.003-0.020-0.003-0.031 0-0.221 0.178-0.399 0.396-0.399 0.077 0 0.148 0.023 0.209 0.062v-0.001l6.357 3.692c0.615 0.356 1.372 0.356 1.986 0l5.454-3.179-6.78 6.78c-0.175-0.036-0.348-0.090-0.508-0.183l-6.253-3.633c-0.004-0.003-0.177-0.095-0.378-0.206zM14.633 13.346c-0.52 0.302-1.16 0.302-1.679 0l-5.708-3.317c-0.131-0.065-0.222-0.2-0.222-0.356 0-0.153 0.085-0.284 0.211-0.351l-0.002-0.002 5.721-2.957c0.52-0.302 1.16-0.302 1.679 0l5.682 2.937c0.146 0.058 0.248 0.202 0.248 0.37 0 0.154-0.087 0.287-0.214 0.353l0.002 0.002-5.718 3.321z"></path>
</svg>
