<svg xmlns="http://www.w3.org/2000/svg" width="22" height="22" viewBox="0 0 22 22">
  <metadata><?xpacket begin="﻿" id="W5M0MpCehiHzreSzNTczkc9d"?>
<x:xmpmeta xmlns:x="adobe:ns:meta/" x:xmptk="Adobe XMP Core 5.6-c138 79.159824, 2016/09/14-01:09:01        ">
   <rdf:RDF xmlns:rdf="http://www.w3.org/1999/02/22-rdf-syntax-ns#">
      <rdf:Description rdf:about=""/>
   </rdf:RDF>
</x:xmpmeta>
                                                                                                    
                                                                                                    
                                                                                                    
                                                                                                    
                                                                                                    
                                                                                                    
                                                                                                    
                                                                                                    
                                                                                                    
                                                                                                    
                                                                                                    
                                                                                                    
                                                                                                    
                                                                                                    
                                                                                                    
                                                                                                    
                                                                                                    
                                                                                                    
                                                                                                    
                                                                                                    
                           
<?xpacket end="w"?></metadata>
<defs>
    <style>
      .cls-1 {
        fill: #bbb;
        fill-rule: evenodd;
      }
    </style>
  </defs>
  <path id="矩形_131" data-name="矩形 131" class="cls-1" d="M20,20H16a2,2,0,0,1-2-2V9a2,2,0,0,1,2-2h4a2,2,0,0,1,2,2v9A2,2,0,0,1,20,20ZM20,9H16v9h4V9Zm-1,8H17V15h2v2ZM18,4H2V15H12v2H10v1h1.5a0.5,0.5,0,0,1,.5.5v1a0.5,0.5,0,0,1-.5.5h-5A0.5,0.5,0,0,1,6,19.5v-1A0.5,0.5,0,0,1,6.5,18H8V17H2a2,2,0,0,1-2-2V4A2,2,0,0,1,2,2H18a2,2,0,0,1,2,2V5H18V4Z"/>
</svg>
