<?xml version="1.0" standalone="no"?><!DOCTYPE svg PUBLIC "-//W3C//DTD SVG 1.1//EN" "http://www.w3.org/Graphics/SVG/1.1/DTD/svg11.dtd"><svg t="1534927060310" class="icon" style="" viewBox="0 0 1024 1024" version="1.1" xmlns="http://www.w3.org/2000/svg" p-id="2989" xmlns:xlink="http://www.w3.org/1999/xlink" width="32" height="32"><defs><style type="text/css"></style></defs><path d="M240 512h64c9.6 0 16-6.4 16-16v-32c0-9.6-6.4-16-16-16h-64c-9.6 0-16 6.4-16 16v32c0 9.6 6.4 16 16 16z m160 0h384c9.6 0 16-6.4 16-16v-32c0-9.6-6.4-16-16-16H400c-9.6 0-16 6.4-16 16v32c0 9.6 6.4 16 16 16z m384 256h-64c-9.6 0-16 6.4-16 16v32c0 9.6 6.4 16 16 16h64c9.6 0 16-6.4 16-16v-32c0-9.6-6.4-16-16-16z" fill="#707070" p-id="2990"></path><path d="M896 128H768V96c0-16-12.8-32-32-32s-32 12.8-32 32v32H320V96c0-16-12.8-32-32-32s-32 12.8-32 32v32H128c-35.2 0-64 28.8-64 64v704c0 35.2 28.8 64 64 64h768c35.2 0 64-28.8 64-64V192c0-35.2-28.8-64-64-64z m0 736c0 19.2-12.8 32-32 32H160c-19.2 0-32-12.8-32-32V384h768v480z m0-544H128v-96c0-19.2 12.8-32 32-32h96v32c0 16 12.8 32 32 32s32-12.8 32-32v-32h384v32c0 16 12.8 32 32 32s32-12.8 32-32v-32h96c19.2 0 32 12.8 32 32v96z" fill="#707070" p-id="2991"></path><path d="M240 832h384c9.6 0 16-6.4 16-16v-32c0-9.6-6.4-16-16-16H240c-9.6 0-16 6.4-16 16v32c0 9.6 6.4 16 16 16z m0-160h544c9.6 0 16-6.4 16-16v-32c0-9.6-6.4-16-16-16H240c-9.6 0-16 6.4-16 16v32c0 9.6 6.4 16 16 16z" fill="#707070" p-id="2992"></path></svg>