<?xml version="1.0" encoding="UTF-8" standalone="no"?>
<svg width="32px" height="32px" viewBox="0 0 32 32" version="1.1" xmlns="http://www.w3.org/2000/svg" xmlns:xlink="http://www.w3.org/1999/xlink">
    <!-- Generator: Sketch 39.1 (31720) - http://www.bohemiancoding.com/sketch -->
    <title>more2</title>
    <desc>Created with Sketch.</desc>
    <defs></defs>
    <g id="Page-1" stroke="none" stroke-width="1" fill="none" fill-rule="evenodd">
        <path d="M22.956,25 L9.043,25 C4.048,25 0,20.9702532 0,16 C0,11.0297468 4.049,7 9.043,7 L22.956,7 C27.951,7 31.999,11.0297468 31.999,16 C31.999,20.9702532 27.95,25 22.956,25 L22.956,25 Z M9,14 C7.896023,14 7,14.896023 7,16 C7,17.103977 7.896023,18 9,18 C10.103977,18 11,17.103977 11,16 C11,14.896023 10.103977,14 9,14 L9,14 Z M16,14 C14.896023,14 14,14.896023 14,16 C14,17.103977 14.896023,18 16,18 C17.103977,18 18,17.103977 18,16 C18,14.896023 17.103977,14 16,14 L16,14 Z M23,14 C21.896023,14 21,14.896023 21,16 C21,17.103977 21.896023,18 23,18 C24.103977,18 25,17.103977 25,16 C25,14.896023 24.103977,14 23,14 L23,14 Z" id="Shape" fill="#BCC9D0"></path>
    </g>
</svg>