<?xml version="1.0" encoding="utf-8"?>
<!-- Generated by IcoMoon.io -->
<!DOCTYPE svg PUBLIC "-//W3C//DTD SVG 1.1//EN" "http://www.w3.org/Graphics/SVG/1.1/DTD/svg11.dtd">
<svg version="1.1" xmlns="http://www.w3.org/2000/svg" xmlns:xlink="http://www.w3.org/1999/xlink" width="33" height="32" viewBox="0 0 33 32">
<path fill="#24b9ec" d="M6.154 18.461c0-0.679 0.551-1.231 1.231-1.231s1.231 0.551 1.231 1.231c0 0.679-0.551 1.231-1.231 1.231s-1.231-0.551-1.231-1.231zM20.923 11.852v-0.775h-2.461v2.461h0.71l-1.279 1.231h-15.431c0.311 5.762 4.016 7.688 6.79 8.322l-9.251 8.908v-31.999h33.23l-12.307 11.852zM6.154 11.077h-2.461v2.461h2.461v-2.461zM9.846 7.385h-2.461v2.461h2.461v-2.461zM9.846 11.077h-2.461v2.461h2.461v-2.461zM13.539 7.385h-2.461v2.461h2.461v-2.461zM13.539 11.077h-2.461v2.461h2.461v-2.461zM17.231 3.693h-2.461v2.461h2.461v-2.461zM17.231 7.385h-2.461v2.461h2.461v-2.461zM17.231 11.077h-2.461v2.461h2.461v-2.461z"></path>
</svg>
