<?xml version="1.0" encoding="utf-8"?>
<!-- Generated by IcoMoon.io -->
<!DOCTYPE svg PUBLIC "-//W3C//DTD SVG 1.1//EN" "http://www.w3.org/Graphics/SVG/1.1/DTD/svg11.dtd">
<svg version="1.1" xmlns="http://www.w3.org/2000/svg" xmlns:xlink="http://www.w3.org/1999/xlink" width="32" height="32" viewBox="0 0 32 32">
<path fill="#aecf32" d="M29.407 1.762h-12.092v16.831l5.981-5.981c0.513-0.513 1.345-0.513 1.86 0s0.513 1.345 0 1.86l-8.119 8.119c-0.27 0.27-0.629 0.39-0.984 0.374-0.018 0.001-0.034 0.011-0.053 0.011s-0.034-0.009-0.051-0.011c-0.354 0.014-0.713-0.104-0.983-0.374l-8.119-8.119c-0.513-0.513-0.513-1.345 0-1.86s1.345-0.513 1.86 0l5.98 5.98v-16.83h-12.092c-0.459 0-0.832 0.373-0.832 0.832v26.813c0 0.459 0.373 0.832 0.832 0.832h26.813c0.459 0 0.832-0.373 0.832-0.832v-26.813c0-0.461-0.373-0.832-0.832-0.832z"></path>
</svg>
