<?xml version="1.0" encoding="utf-8"?>
<!-- Generated by IcoMoon.io -->
<!DOCTYPE svg PUBLIC "-//W3C//DTD SVG 1.1//EN" "http://www.w3.org/Graphics/SVG/1.1/DTD/svg11.dtd">
<svg version="1.1" xmlns="http://www.w3.org/2000/svg" xmlns:xlink="http://www.w3.org/1999/xlink" width="32" height="32" viewBox="0 0 32 32">
<path fill="#a6a6a6" d="M26.201 21.622c-0.382 2.145-2.713 10.518-15.116 7.598-0.514 0.558-1.242 0.912-2.059 0.912-1.553 0-2.814-1.265-2.814-2.826s1.26-2.826 2.814-2.826c1.463 0 2.65 1.124 2.788 2.557 3.578 0.98 10.36 1.754 11.884-5.853-0.019-0.008-0.041-0.012-0.060-0.019l0.072-0.024v-10.278l-0.090-0.030c-0.311-2.199-1.677-6.394-7.619-6.394s-7.308 4.195-7.619 6.394l-0.090 0.030v10.278l0.072 0.024c-0.696 0.31-1.463 0.489-2.274 0.489-3.109 0-4.222-2.531-4.222-5.653 0-3.051 1.077-5.52 4.025-5.632 0.849-4.828 5.045-8.5 10.107-8.5s9.258 3.672 10.106 8.5c2.95 0.112 4.026 2.581 4.026 5.632 0 3.017-1.057 5.459-3.931 5.622z"></path>
</svg>
