<?xml version="1.0" encoding="utf-8"?>
<!-- Generated by IcoMoon.io -->
<!DOCTYPE svg PUBLIC "-//W3C//DTD SVG 1.1//EN" "http://www.w3.org/Graphics/SVG/1.1/DTD/svg11.dtd">
<svg version="1.1" xmlns="http://www.w3.org/2000/svg" xmlns:xlink="http://www.w3.org/1999/xlink" width="32" height="32" viewBox="0 0 32 32">
<path fill="#ff867f" d="M29.355 30.438h-26.71c-0.798 0-1.444-0.646-1.444-1.444v-25.989c0-0.798 0.646-1.444 1.444-1.444h26.71c0.798 0 1.444 0.646 1.444 1.444v25.989c0 0.798-0.646 1.444-1.444 1.444zM30.077 3.006c0-0.398-0.323-0.722-0.722-0.722h-26.71c-0.398 0-0.722 0.323-0.722 0.722v25.989c0 0.398 0.323 0.722 0.722 0.722h26.71c0.398 0 0.722-0.323 0.722-0.722v-25.989zM20.445 21.105l-4.084-4.084-4.084 4.084-1.021-1.021 4.084-4.083-4.084-4.084 1.021-1.021 4.084 4.084 4.084-4.084 1.021 1.021-4.084 4.084 4.084 4.083-1.021 1.021z"></path>
</svg>
