<svg xmlns="http://www.w3.org/2000/svg" width="36" height="36" viewBox="0 0 36 36">
  <metadata><?xpacket begin="﻿" id="W5M0MpCehiHzreSzNTczkc9d"?>
<x:xmpmeta xmlns:x="adobe:ns:meta/" x:xmptk="Adobe XMP Core 5.6-c138 79.159824, 2016/09/14-01:09:01        ">
   <rdf:RDF xmlns:rdf="http://www.w3.org/1999/02/22-rdf-syntax-ns#">
      <rdf:Description rdf:about=""/>
   </rdf:RDF>
</x:xmpmeta>
                                                                                                    
                                                                                                    
                                                                                                    
                                                                                                    
                                                                                                    
                                                                                                    
                                                                                                    
                                                                                                    
                                                                                                    
                                                                                                    
                                                                                                    
                                                                                                    
                                                                                                    
                                                                                                    
                                                                                                    
                                                                                                    
                                                                                                    
                                                                                                    
                                                                                                    
                                                                                                    
                           
<?xpacket end="w"?></metadata>
<defs>
    <style>
      .cls-1 {
        fill: #535353;
        fill-rule: evenodd;
      }
    </style>
  </defs>
  <path id="形状_620_拷贝" data-name="形状 620 拷贝" class="cls-1" d="M0,17.878A17.9,17.9,0,0,0,12.057,34.761c0.946,0.239.8-.434,0.8-0.888v-3.1c-5.461.637-5.678-2.955-6.047-3.552-0.742-1.259-2.49-1.577-1.969-2.175,1.243-.637,2.51.159,3.978,2.314C9.884,28.922,11.953,28.66,13,28.4a5.049,5.049,0,0,1,1.4-2.429c-5.654-1-8.012-4.429-8.012-8.507A7.836,7.836,0,0,1,8.332,12.2a6.943,6.943,0,0,1,.2-4.8c2.338-.211,4.764,1.661,4.952,1.808a17.627,17.627,0,0,1,4.539-.545,17.626,17.626,0,0,1,4.563.554c0.453-.343,2.706-1.948,4.88-1.752a7,7,0,0,1,.22,4.716,7.832,7.832,0,0,1,1.969,5.285c0,4.086-2.374,7.519-8.044,8.511a5.078,5.078,0,0,1,1.532,3.64v4.5c0.032,0.358,0,.717.606,0.717A17.9,17.9,0,1,0,0,17.878H0Z"/>
</svg>
