<?xml version="1.0" encoding="utf-8"?>
<!-- Generator: Adobe Illustrator 16.0.0, SVG Export Plug-In . SVG Version: 6.00 Build 0)  -->
<!DOCTYPE svg PUBLIC "-//W3C//DTD SVG 1.1//EN" "http://www.w3.org/Graphics/SVG/1.1/DTD/svg11.dtd">
<svg version="1.1" id="图层_1" xmlns="http://www.w3.org/2000/svg" xmlns:xlink="http://www.w3.org/1999/xlink" x="0px" y="0px"
	 width="32px" height="32px" viewBox="0 0 32 32" enable-background="new 0 0 32 32" xml:space="preserve">
<path d="M16,0C7.16,0,0,7.16,0,16s7.16,16,16,16s16-7.16,16-16S24.84,0,16,0z M16,29.339c-7.362,0-13.331-5.97-13.331-13.339
	C2.669,8.638,8.637,2.669,16,2.669c7.369,0,13.339,5.968,13.339,13.331C29.339,23.369,23.369,29.339,16,29.339z"/>
<path d="M17.533,20.839c-0.716,0-1.406,0-2.123,0c0-0.432-0.012-0.844,0.003-1.27c0.059-0.823,0.249-1.63,0.684-2.354
	c0.343-0.565,0.776-1.059,1.25-1.502c0.595-0.56,1.208-1.116,1.78-1.683c0.344-0.339,0.652-0.714,0.81-1.179
	c0.377-1.111,0.131-2.111-0.599-3.004c-1.238-1.472-3.283-1.521-4.55-0.784c-0.789,0.467-1.264,1.183-1.54,2.031
	c-0.126,0.384-0.215,0.781-0.331,1.207c-0.728-0.087-1.477-0.179-2.251-0.271c0.025-0.19,0.05-0.375,0.084-0.56
	c0.191-1.006,0.541-1.952,1.197-2.764c0.803-0.986,1.842-1.554,3.078-1.797c1.282-0.24,2.564-0.219,3.813,0.187
	c1.596,0.527,2.781,1.543,3.314,3.163c0.508,1.555,0.256,3.025-0.752,4.337c-0.649,0.839-1.455,1.521-2.207,2.244
	c-0.322,0.314-0.662,0.633-0.946,0.998c-0.432,0.532-0.592,1.164-0.647,1.843C17.57,20.057,17.559,20.435,17.533,20.839z"/>
<path d="M15.278,25.339c0-0.843,0-1.681,0-2.525c0.841,0,1.663,0,2.505,0c0,0.841,0,1.68,0,2.525
	C16.961,25.339,16.122,25.339,15.278,25.339z"/>
</svg>
