<svg xmlns="http://www.w3.org/2000/svg" xmlns:xlink="http://www.w3.org/1999/xlink" preserveAspectRatio="xMidYMid" width="52" height="52" viewBox="0 0 52 52">
  <defs>
    <style>
      .cls-1 {
        fill: #0a457f;
        fill-rule: evenodd;
      }
    </style>
  </defs>
  <path d="M49.000,34.452 C49.000,34.452 48.982,34.486 48.968,34.513 L48.968,34.693 L48.860,34.709 C48.088,36.080 43.675,43.125 31.000,50.000 C29.488,50.821 26.423,51.868 26.423,51.868 L26.000,50.000 C26.165,50.325 27.591,49.809 29.000,49.000 C42.942,40.974 47.000,34.000 47.000,34.000 L47.000,6.227 C43.163,4.824 34.397,2.000 26.000,2.000 C17.716,2.000 9.631,4.746 6.000,6.167 L6.000,33.834 C6.547,34.654 11.220,41.297 24.000,49.000 C24.775,49.467 25.627,49.568 26.000,50.000 L26.428,52.000 C26.428,52.000 23.502,50.835 22.000,50.000 C10.548,43.624 5.799,37.157 4.442,35.000 L4.000,35.000 L4.000,7.000 L4.000,6.494 L4.000,5.000 C4.000,5.000 10.261,-0.077 26.000,-0.000 C41.739,0.077 49.000,5.000 49.000,5.000 L49.000,7.000 L48.968,34.445 L49.000,34.452 ZM20.209,32.479 L18.409,32.479 L18.409,22.063 L33.986,22.063 L33.986,32.432 L32.114,32.432 L32.114,31.711 L20.209,31.711 L20.209,32.479 ZM25.298,23.647 L20.209,23.647 L20.209,26.047 L25.298,26.047 L25.298,23.647 ZM27.098,30.151 L32.114,30.151 L32.114,27.511 L27.098,27.511 L27.098,30.151 ZM27.098,26.047 L32.114,26.047 L32.114,23.647 L27.098,23.647 L27.098,26.047 ZM25.298,30.151 L25.298,27.511 L20.209,27.511 L20.209,30.151 L25.298,30.151 ZM15.865,22.399 C15.697,21.895 15.361,21.102 15.073,20.695 C18.145,20.286 21.433,19.446 24.362,18.222 C23.041,17.454 21.889,16.566 20.905,15.558 C19.873,16.398 18.721,17.166 17.377,17.886 C17.113,17.454 16.585,16.878 16.177,16.590 C19.609,14.958 21.937,12.582 23.113,10.518 L25.010,10.878 C24.674,11.478 24.266,12.054 23.786,12.630 L32.090,12.630 L32.402,12.534 L33.554,13.278 C32.282,15.246 30.338,16.902 28.082,18.198 C30.842,19.302 34.082,20.046 37.467,20.407 C37.083,20.814 36.627,21.559 36.387,22.063 C32.714,21.559 29.186,20.623 26.210,19.230 C22.993,20.790 19.297,21.822 15.865,22.399 ZM30.650,14.214 L22.393,14.214 L22.153,14.454 C23.186,15.582 24.578,16.542 26.210,17.358 C27.938,16.470 29.498,15.414 30.650,14.214 Z" class="cls-1"/>
</svg>
