<svg xmlns="http://www.w3.org/2000/svg" xmlns:xlink="http://www.w3.org/1999/xlink" preserveAspectRatio="xMidYMid" width="66" height="66" viewBox="0 0 66 66">
  <defs>
    <style>
      .cls-1 {
        fill: #0a457f;
        fill-rule: evenodd;
      }
    </style>
  </defs>
  <path d="M43.000,55.792 L43.000,53.772 C53.727,52.305 62.000,43.129 62.000,31.999 C62.000,19.849 52.150,10.000 40.000,10.000 C31.446,10.000 24.050,14.891 20.411,22.021 C20.273,22.017 20.138,22.000 20.000,22.000 C11.163,22.000 4.000,29.163 4.000,37.999 C4.000,46.836 11.163,54.000 20.000,54.000 C20.336,54.000 20.669,53.981 21.000,53.961 L21.000,55.965 C20.668,55.983 20.336,56.000 20.000,56.000 C10.059,56.000 2.000,47.941 2.000,37.998 C2.000,28.324 9.640,20.454 19.213,20.040 C23.359,12.851 31.105,8.000 40.000,8.000 C53.254,8.000 64.000,18.746 64.000,32.000 C64.000,44.236 54.836,54.313 43.000,55.792 ZM30.475,35.611 C30.670,35.416 31.340,35.062 31.535,35.257 L32.000,35.722 L32.464,35.257 C32.660,35.062 33.330,35.416 33.525,35.611 L40.243,42.328 C40.438,42.524 40.438,42.840 40.243,43.035 L39.535,43.743 C39.340,43.938 39.024,43.938 38.828,43.743 L33.000,37.914 L33.000,57.000 L31.000,57.000 L31.000,37.914 L25.172,43.743 C24.976,43.938 24.660,43.938 24.464,43.743 L23.757,43.035 C23.562,42.840 23.562,42.524 23.757,42.328 L30.475,35.611 ZM32.002,36.874 C31.969,36.921 31.937,36.968 31.908,37.000 L32.092,37.000 C32.065,36.970 32.033,36.918 32.002,36.874 Z" class="cls-1"/>
</svg>
