<?xml version="1.0" encoding="utf-8"?>
<!-- Generated by IcoMoon.io -->
<!DOCTYPE svg PUBLIC "-//W3C//DTD SVG 1.1//EN" "http://www.w3.org/Graphics/SVG/1.1/DTD/svg11.dtd">
<svg version="1.1" xmlns="http://www.w3.org/2000/svg" xmlns:xlink="http://www.w3.org/1999/xlink" width="32" height="32" viewBox="0 0 32 32">
<path d="M32 28c0 2.208-1.79 4-4 4h-24c-2.21 0-4-1.792-4-4v-1.6c0-0.507 0.104-0.987 0.275-1.434-0.168-1.088-0.275-1.912-0.275-1.912l4.432-20.739c0.045-0.214 0.182-0.39 0.368-0.506v-1.010c0-0.443 0.358-0.8 0.8-0.8h20.8c0.442 0 0.8 0.357 0.8 0.8v0.158c0.366 0.011 0.691 0.259 0.763 0.634l4.006 20.813c0 0-0.123 1.061-0.315 2.381 0.219 0.494 0.346 1.038 0.346 1.614v1.6zM25.014 3.2h-17.168l-4.107 19.226c0.088-0.005 0.171-0.026 0.261-0.026h24c0.248 0 0.488 0.029 0.723 0.072l-3.709-19.272zM28.8 26.4c0-0.443-0.358-0.8-0.8-0.8h-24c-0.442 0-0.8 0.357-0.8 0.8v1.6c0 0.442 0.358 0.8 0.8 0.8h24c0.442 0 0.8-0.358 0.8-0.8v-1.6zM13.030 16v0h5.84c1.038 0 1.93-0.8 1.93-1.835 0-0.989-0.842-1.835-1.93-1.835 0-1.507-1.286-2.73-2.87-2.73s-2.87 1.222-2.87 2.73v0c-1.038 0-1.93 0.8-1.93 1.835 0 0.989 0.792 1.789 1.83 1.835v0z"></path>
</svg>
