<?xml version="1.0" encoding="utf-8"?>
<!-- Generated by IcoMoon.io -->
<!DOCTYPE svg PUBLIC "-//W3C//DTD SVG 1.1//EN" "http://www.w3.org/Graphics/SVG/1.1/DTD/svg11.dtd">
<svg version="1.1" xmlns="http://www.w3.org/2000/svg" xmlns:xlink="http://www.w3.org/1999/xlink" width="32" height="32" viewBox="0 0 32 32">
<path d="M28.8 30.398h-25.6c-0.885 0-1.6-0.715-1.6-1.598v-16c0-0.885 0.715-1.6 1.6-1.6h25.6c0.883 0 1.6 0.715 1.6 1.6v16c0 0.883-0.717 1.598-1.6 1.598zM27.2 14.4h-22.4v12.8h22.4v-12.8zM28.8 14.398h-25.6c-0.885 0-1.6-0.715-1.6-1.598l1.6-8c0-0.885 0.715-1.6 1.6-1.6h22.4c0.883 0 1.6 0.715 1.6 1.6l1.6 8c0 0.883-0.717 1.598-1.6 1.598zM25.6 6.398h-19.2l-1.6 4.8h22.4l-1.6-4.8zM11.2 19.2h9.6v3.2h-9.6v-3.2z"></path>
</svg>
