<svg xmlns="http://www.w3.org/2000/svg" xmlns:xlink="http://www.w3.org/1999/xlink" preserveAspectRatio="xMidYMid" width="52" height="52" viewBox="0 0 52 52">
  <defs>
    <style>
      .cls-1 {
        fill: #0a457f;
        fill-rule: evenodd;
      }
    </style>
  </defs>
  <path d="M49.000,50.000 L3.000,50.000 C1.895,50.000 1.000,49.104 1.000,48.000 L1.000,18.000 C1.000,16.895 1.895,16.000 3.000,16.000 L49.000,16.000 C50.104,16.000 51.000,16.895 51.000,18.000 L51.000,48.000 C51.000,49.104 50.104,50.000 49.000,50.000 ZM49.000,18.000 L3.000,18.000 L3.000,48.000 L49.000,48.000 L49.000,18.000 ZM45.000,11.000 L7.000,11.000 C6.724,11.000 6.000,10.776 6.000,10.500 L6.000,9.500 C6.000,9.224 6.724,9.000 7.000,9.000 L45.000,9.000 C45.276,9.000 46.000,9.224 46.000,9.500 L46.000,10.500 C46.000,10.776 45.276,11.000 45.000,11.000 ZM40.000,4.000 L12.000,4.000 C11.724,4.000 11.000,3.776 11.000,3.500 L11.000,2.500 C11.000,2.224 11.724,2.000 12.000,2.000 L40.000,2.000 C40.276,2.000 41.000,2.224 41.000,2.500 L41.000,3.500 C41.000,3.776 40.276,4.000 40.000,4.000 Z" class="cls-1"/>
</svg>
