<svg xmlns="http://www.w3.org/2000/svg" width="24" height="24" viewBox="0 0 24 24">
  <metadata><?xpacket begin="﻿" id="W5M0MpCehiHzreSzNTczkc9d"?>
<x:xmpmeta xmlns:x="adobe:ns:meta/" x:xmptk="Adobe XMP Core 5.6-c138 79.159824, 2016/09/14-01:09:01        ">
   <rdf:RDF xmlns:rdf="http://www.w3.org/1999/02/22-rdf-syntax-ns#">
      <rdf:Description rdf:about=""/>
   </rdf:RDF>
</x:xmpmeta>
                                                                                                    
                                                                                                    
                                                                                                    
                                                                                                    
                                                                                                    
                                                                                                    
                                                                                                    
                                                                                                    
                                                                                                    
                                                                                                    
                                                                                                    
                                                                                                    
                                                                                                    
                                                                                                    
                                                                                                    
                                                                                                    
                                                                                                    
                                                                                                    
                                                                                                    
                                                                                                    
                           
<?xpacket end="w"?></metadata>
<defs>
    <style>
      .cls-1 {
        fill: #6a778b;
        fill-rule: evenodd;
      }
    </style>
  </defs>
  <path id="矩形_99_副本_2" data-name="矩形 99 副本 2" class="cls-1" d="M23,16.969C23,19.052,18,21,18,21a16.7,16.7,0,0,1-3.666-2H4a2,2,0,0,1-2-2V5A2,2,0,0,1,4,3H18a2,2,0,0,1,2,2v6.226A26.156,26.156,0,0,1,23,12v4.969ZM18,5H4V7H18V5Zm0,4H4v8h9V12a20.729,20.729,0,0,1,5-1V9Zm3,4.6a15.479,15.479,0,0,0-3.047-.6A14.6,14.6,0,0,0,15,13.6v3.019C15,17.854,18,19,18,19s3-1.169,3-2.419V13.6ZM6,11h5v2H6V11Z"/>
</svg>
