<svg xmlns="http://www.w3.org/2000/svg" xmlns:xlink="http://www.w3.org/1999/xlink" preserveAspectRatio="xMidYMid" width="52" height="52" viewBox="0 0 52 52">
  <defs>
    <style>
      .cls-1 {
        fill: #0a457f;
        fill-rule: evenodd;
      }
    </style>
  </defs>
  <path d="M49.000,52.000 L3.000,52.000 C1.895,52.000 1.000,51.104 1.000,50.000 L1.000,40.000 C1.000,38.895 1.895,38.000 3.000,38.000 L8.000,38.000 L8.000,17.500 C8.000,7.835 15.835,-0.000 25.500,-0.000 L26.500,-0.000 C36.165,-0.000 44.000,7.835 44.000,17.500 L44.000,38.000 L49.000,38.000 C50.104,38.000 51.000,38.895 51.000,40.000 L51.000,50.000 C51.000,51.104 50.104,52.000 49.000,52.000 ZM42.000,17.500 C42.000,8.939 35.060,2.000 26.500,2.000 L25.500,2.000 C16.939,2.000 10.000,8.939 10.000,17.500 L10.000,38.000 L42.000,38.000 L42.000,17.500 ZM49.000,40.000 L3.000,40.000 L3.000,50.000 L49.000,50.000 L49.000,40.000 ZM32.500,15.000 L33.500,15.000 C33.776,15.000 34.000,15.224 34.000,15.500 L34.000,26.500 C34.000,26.776 33.776,27.000 33.500,27.000 L32.500,27.000 C32.224,27.000 32.000,26.776 32.000,26.500 L32.000,15.500 C32.000,15.224 32.224,15.000 32.500,15.000 ZM32.500,30.000 L33.500,30.000 C33.776,30.000 34.000,30.224 34.000,30.500 L34.000,31.500 C34.000,31.776 33.776,32.000 33.500,32.000 L32.500,32.000 C32.224,32.000 32.000,31.776 32.000,31.500 L32.000,30.500 C32.000,30.224 32.224,30.000 32.500,30.000 Z" class="cls-1"/>
</svg>
