<?xml version="1.0" encoding="utf-8"?>
<!-- Generated by IcoMoon.io -->
<!DOCTYPE svg PUBLIC "-//W3C//DTD SVG 1.1//EN" "http://www.w3.org/Graphics/SVG/1.1/DTD/svg11.dtd">
<svg version="1.1" xmlns="http://www.w3.org/2000/svg" xmlns:xlink="http://www.w3.org/1999/xlink" width="32" height="32" viewBox="0 0 32 32">
<path fill="#9fb4cc" d="M30.4 30.398h-28.8c-0.883 0-1.6-0.715-1.6-1.598v-27.202c0-0.883 0.717-1.598 1.6-1.598h28.8c0.883 0 1.6 0.715 1.6 1.598v27.202c0 0.883-0.717 1.598-1.6 1.598zM28.8 3.2h-25.6v23.998h25.6v-23.998zM11.2 14.4h-3.2v-4.802h3.2v4.802zM17.6 9.598v4.802h-3.2v-4.802h3.2zM24 9.598v4.802h-3.2v-4.802h3.2zM20.8 20.8h-3.2v-6.4h3.2v6.4zM14.4 20.8h-3.2v-6.4h3.2v6.4z"></path>
</svg>
