<?xml version="1.0" encoding="utf-8"?>
<!-- Generated by IcoMoon.io -->
<!DOCTYPE svg PUBLIC "-//W3C//DTD SVG 1.1//EN" "http://www.w3.org/Graphics/SVG/1.1/DTD/svg11.dtd">
<svg version="1.1" xmlns="http://www.w3.org/2000/svg" xmlns:xlink="http://www.w3.org/1999/xlink" width="32" height="32" viewBox="0 0 32 32">
<path fill="#4ecd87" d="M0 31.221v-31.221h31.333v31.221h-31.333zM11.708 12.999l-4.436 4.133c-2.236 2.084-2.59 5.214-0.793 6.996l1.364 1.349c1.797 1.78 5.067 1.534 7.301-0.549l1.94-1.806c0.162-0.912 0.18-2.681-2.183-2.576l-1.591 1.483c-1.182 1.1-2.722 1.415-3.442 0.702l-0.546-0.54c-0.72-0.713-0.347-2.183 0.834-3.284l2.699-2.514c1.182-1.102 2.722-1.417 3.442-0.702l0.308 0.304 2.603-2.409c0 0-3.211-3.22-7.499-0.587zM25.44 7.76l-1.399-1.316c-1.847-1.733-5.108-1.403-7.284 0.736l-1.886 1.856c-0.139 0.919-0.105 2.684 2.251 2.523l1.55-1.525c1.15-1.131 2.683-1.484 3.42-0.791l0.562 0.526c0.74 0.693 0.405 2.172-0.743 3.303l-2.628 2.583c-1.15 1.131-2.683 1.484-3.422 0.791l-0.315-0.297-2.533 2.475c0 0 3.3 3.138 7.511 0.393l4.318-4.247c2.176-2.137 2.444-5.278 0.597-7.010z"></path>
</svg>
