<?xml version="1.0" encoding="UTF-8" standalone="no"?>
<svg width="32px" height="32px" viewBox="0 0 32 32" version="1.1" xmlns="http://www.w3.org/2000/svg" xmlns:xlink="http://www.w3.org/1999/xlink">
    <!-- Generator: Sketch 39.1 (31720) - http://www.bohemiancoding.com/sketch -->
    <title>Slice</title>
    <desc>Created with Sketch.</desc>
    <defs></defs>
    <g id="Page-1" stroke="none" stroke-width="1" fill="none" fill-rule="evenodd">
        <g id="home-nqs" transform="translate(0.000000, 6.000000)" fill="#3797EE">
            <path d="M28,12 L28,18.6666667 C28,20.139426 26.8060927,21.3333333 25.3333333,21.3333333 L6.66666667,21.3333333 C5.19390733,21.3333333 4,20.139426 4,18.6666667 L4,12 L0,12 L0,9.33333333 L4,9.33333333 L4,2.66666667 C4,1.19390733 5.19390733,0 6.66666667,0 L25.3333333,0 C26.8060927,0 28,1.19390733 28,2.66666667 L28,9.33333333 L32,9.33333333 L32,12 L28,12 L28,12 Z M25.3333333,2.66666667 L6.66666667,2.66666667 L6.66666667,18.6666667 L25.3333333,18.6666667 L25.3333333,2.66666667 L25.3333333,2.66666667 Z M12,12 L9.33333333,12 L9.33333333,9.33333333 L12,9.33333333 L12,12 L12,12 Z M17.3333333,12 L14.6666667,12 L14.6666667,9.33333333 L17.3333333,9.33333333 L17.3333333,12 L17.3333333,12 Z M22.6666667,12 L20,12 L20,9.33333333 L22.6666667,9.33333333 L22.6666667,12 L22.6666667,12 Z" id="矩形_95_副本_2"></path>
        </g>
    </g>
</svg>