<svg xmlns="http://www.w3.org/2000/svg" width="52" height="52" viewBox="0 0 52 52">
  <metadata><?xpacket begin="﻿" id="W5M0MpCehiHzreSzNTczkc9d"?>
<x:xmpmeta xmlns:x="adobe:ns:meta/" x:xmptk="Adobe XMP Core 5.6-c138 79.159824, 2016/09/14-01:09:01        ">
   <rdf:RDF xmlns:rdf="http://www.w3.org/1999/02/22-rdf-syntax-ns#">
      <rdf:Description rdf:about=""/>
   </rdf:RDF>
</x:xmpmeta>
                                                                                                    
                                                                                                    
                                                                                                    
                                                                                                    
                                                                                                    
                                                                                                    
                                                                                                    
                                                                                                    
                                                                                                    
                                                                                                    
                                                                                                    
                                                                                                    
                                                                                                    
                                                                                                    
                                                                                                    
                                                                                                    
                                                                                                    
                                                                                                    
                                                                                                    
                                                                                                    
                           
<?xpacket end="w"?></metadata>
<defs>
    <style>
      .cls-1 {
        fill: #0a457f;
        fill-rule: evenodd;
      }
    </style>
  </defs>
  <path id="椭圆_21_拷贝" data-name="椭圆 21 拷贝" class="cls-1" d="M47,51H5a2,2,0,0,1-2-2V3A2,2,0,0,1,5,1H47a2,2,0,0,1,2,2V49A2,2,0,0,1,47,51ZM47,3H5V49H47V3ZM15.5,11h21a0.5,0.5,0,0,1,.5.5v1a0.5,0.5,0,0,1-.5.5h-21a0.5,0.5,0,0,1-.5-0.5v-1A0.5,0.5,0,0,1,15.5,11Zm0,10h21a0.5,0.5,0,0,1,.5.5v1a0.5,0.5,0,0,1-.5.5h-21a0.5,0.5,0,0,1-.5-0.5v-1A0.5,0.5,0,0,1,15.5,21ZM26,31a5,5,0,1,1-5,5A5,5,0,0,1,26,31Zm0,8a3,3,0,1,0-3-3A3,3,0,0,0,26,39Z"/>
</svg>
