<?xml version="1.0" encoding="utf-8"?>
<!-- Generated by IcoMoon.io -->
<!DOCTYPE svg PUBLIC "-//W3C//DTD SVG 1.1//EN" "http://www.w3.org/Graphics/SVG/1.1/DTD/svg11.dtd">
<svg version="1.1" xmlns="http://www.w3.org/2000/svg" xmlns:xlink="http://www.w3.org/1999/xlink" width="32" height="32" viewBox="0 0 32 32">
<path fill="#9fb4cc" d="M29.082 21.004v0.109h-0.065c-0.465 0.765-3.148 4.775-10.544 8.829-0.874 0.479-2.493 1.263-2.513 1.273l-0.001 0.080c0 0-1.626-0.809-2.502-1.3-7.020-3.949-9.766-7.862-10.4-8.881h-0.156v-17.455c0 0 3.927-2.954 13.091-2.909s13.091 2.909 13.091 2.909v17.271l0.017 0.042c0 0-0.010 0.017-0.017 0.032zM26.173 5.489c-2.527-0.829-6.362-1.83-10.182-1.83s-7.657 1.001-10.182 1.83v14.723c1.897 2.017 5.127 5.107 8.778 7.139 0.445 0.247 0.897 0.477 1.353 0.695 0.47-0.218 0.935-0.449 1.393-0.698 3.677-1.991 6.929-5.024 8.839-7.001v-14.858zM9.519 15.17l2.057-2.057 3.087 3.085 7.199-7.2 2.058 2.058-9.257 9.257-5.143-5.143z"></path>
</svg>
