<svg xmlns="http://www.w3.org/2000/svg" width="52" height="52" viewBox="0 0 52 52">
  <metadata><?xpacket begin="﻿" id="W5M0MpCehiHzreSzNTczkc9d"?>
<x:xmpmeta xmlns:x="adobe:ns:meta/" x:xmptk="Adobe XMP Core 5.6-c138 79.159824, 2016/09/14-01:09:01        ">
   <rdf:RDF xmlns:rdf="http://www.w3.org/1999/02/22-rdf-syntax-ns#">
      <rdf:Description rdf:about=""/>
   </rdf:RDF>
</x:xmpmeta>
                                                                                                    
                                                                                                    
                                                                                                    
                                                                                                    
                                                                                                    
                                                                                                    
                                                                                                    
                                                                                                    
                                                                                                    
                                                                                                    
                                                                                                    
                                                                                                    
                                                                                                    
                                                                                                    
                                                                                                    
                                                                                                    
                                                                                                    
                                                                                                    
                                                                                                    
                                                                                                    
                           
<?xpacket end="w"?></metadata>
<defs>
    <style>
      .cls-1 {
        fill: #0a457f;
        fill-rule: evenodd;
      }
    </style>
  </defs>
  <path id="椭圆_7.svg" data-name="椭圆 7.svg" class="cls-1" d="M49,49H3a2,2,0,0,1-2-2V5A2,2,0,0,1,3,3H49a2,2,0,0,1,2,2V47A2,2,0,0,1,49,49ZM49,5H3V47H49V5ZM16,24a2,2,0,1,1-2,2A2,2,0,0,1,16,24Zm10,0a2,2,0,1,1-2,2A2,2,0,0,1,26,24Zm10,0a2,2,0,1,1-2,2A2,2,0,0,1,36,24Z"/>
</svg>
