<svg xmlns="http://www.w3.org/2000/svg" xmlns:xlink="http://www.w3.org/1999/xlink" preserveAspectRatio="xMidYMid" width="50" height="50" viewBox="0 0 50 50">
  <defs>
    <style>
      .cls-1 {
        fill: #0a457f;
        fill-rule: evenodd;
      }
    </style>
  </defs>
  <path d="M47.000,49.000 L3.000,49.000 C1.895,49.000 1.000,48.104 1.000,46.999 L1.000,3.000 C1.000,1.895 1.895,0.999 3.000,0.999 L47.000,0.999 C48.104,0.999 49.000,1.895 49.000,3.000 L49.000,46.999 C49.000,48.104 48.104,49.000 47.000,49.000 ZM47.000,3.000 L3.000,3.000 L3.000,46.999 L47.000,46.999 L47.000,3.000 ZM15.500,13.000 L16.500,13.000 C16.776,13.000 17.000,13.724 17.000,14.000 L17.000,36.000 C17.000,36.276 16.776,37.000 16.500,37.000 L15.500,37.000 C15.224,37.000 15.000,36.276 15.000,36.000 L15.000,14.000 C15.000,13.724 15.224,13.000 15.500,13.000 ZM23.500,13.000 L24.000,13.000 L24.500,13.000 L35.000,13.000 C36.104,13.000 37.000,13.895 37.000,15.000 L37.000,25.000 C37.000,26.104 36.104,27.000 35.000,27.000 L25.000,27.000 L25.000,36.000 C25.000,36.276 24.776,37.000 24.500,37.000 L23.500,37.000 C23.224,37.000 23.000,36.276 23.000,36.000 L23.000,14.000 C23.000,13.724 23.224,13.000 23.500,13.000 ZM25.000,25.000 L35.000,25.000 L35.000,15.000 L25.000,15.000 L25.000,25.000 Z" class="cls-1"/>
</svg>
