<?xml version="1.0" encoding="utf-8"?>
<!-- Generated by IcoMoon.io -->
<!DOCTYPE svg PUBLIC "-//W3C//DTD SVG 1.1//EN" "http://www.w3.org/Graphics/SVG/1.1/DTD/svg11.dtd">
<svg version="1.1" xmlns="http://www.w3.org/2000/svg" xmlns:xlink="http://www.w3.org/1999/xlink" width="32" height="32" viewBox="0 0 32 32">
<path fill="#9fb4cc" d="M21.091 26.166v-2.979c4.124-0.697 7.273-4.259 7.273-8.58 0-4.82-3.908-8.727-8.727-8.727-3.911 0-7.181 2.588-8.291 6.132-0.591-0.202-1.213-0.335-1.871-0.335-3.215 0-5.818 2.605-5.818 5.818 0 0.090 0.022 0.176 0.026 0.266-0.015 0.16-0.047 0.316-0.047 0.481 0 2.812 2.279 5.091 5.091 5.091 0.186 0 0.367-0.022 0.547-0.041 0.061 0.001 0.119 0.015 0.18 0.017v2.905c-0.111 0.004-0.217 0.028-0.327 0.028-4.64 0-8.4-3.821-8.4-8.534s3.76-8.534 8.4-8.534c0.183 0 0.356 0.044 0.537 0.055 1.913-3.719 5.738-6.262 10.154-6.262 6.326 0 11.455 5.21 11.455 11.638 0 5.988-4.455 10.916-10.182 11.559zM15.273 16.092l4.34 5.788h-2.886v5.818h-2.909v-5.818h-2.886l4.34-5.788z"></path>
</svg>
