<?xml version="1.0" encoding="utf-8"?>
<!-- Generated by IcoMoon.io -->
<!DOCTYPE svg PUBLIC "-//W3C//DTD SVG 1.1//EN" "http://www.w3.org/Graphics/SVG/1.1/DTD/svg11.dtd">
<svg version="1.1" xmlns="http://www.w3.org/2000/svg" xmlns:xlink="http://www.w3.org/1999/xlink" width="32" height="32" viewBox="0 0 32 32">
<path fill="#9fb4cc" d="M29.089 21.709v0.108h-0.064c-0.464 0.765-3.148 4.775-10.544 8.829-0.874 0.48-2.493 1.263-2.515 1.273v0.080c0 0-1.628-0.809-2.502-1.3-7.021-3.949-9.767-7.86-10.4-8.881h-0.156v-17.455c0 0 3.927-2.954 13.091-2.909s13.089 2.909 13.089 2.909v17.271l0.019 0.042c0 0-0.010 0.019-0.019 0.033zM26.182 6.192c-2.527-0.828-6.364-1.83-10.182-1.83-3.82 0-7.657 1.002-10.183 1.83v14.724c1.898 2.016 5.129 5.107 8.78 7.137 0.445 0.247 0.897 0.479 1.353 0.697 0.47-0.218 0.935-0.451 1.393-0.7 3.676-1.991 6.928-5.024 8.839-7.001v-14.858zM11.967 22.217h-1.024v-6.62h10.113v6.62h-1.023v-0.624h-8.067v0.624zM15.488 16.449h-3.521v1.748h3.521v-1.748zM16.511 20.74h3.523v-1.734h-3.523v1.734zM16.511 18.198h3.523v-1.748h-3.523v1.748zM15.488 20.74v-1.734h-3.521v1.734h3.521zM9.366 15.811c-0.17-0.332-0.368-0.672-0.596-1.023 2.349-0.34 4.394-0.845 6.137-1.513-1.117-0.649-1.996-1.421-2.636-2.316-0.705 0.81-1.503 1.588-2.393 2.336-0.256-0.284-0.516-0.544-0.781-0.781 1.695-1.363 2.988-2.841 3.878-4.431l1.065 0.454c-0.208 0.346-0.433 0.687-0.675 1.023h7.692v0.951c-0.876 1.056-2.054 1.977-3.536 2.764 1.567 0.525 3.437 0.845 5.61 0.959-0.313 0.445-0.577 0.842-0.796 1.193-2.448-0.294-4.5-0.797-6.157-1.513-1.879 0.806-4.15 1.437-6.812 1.897zM19.537 10.499h-6.371c0.762 0.909 1.763 1.657 3.004 2.244 1.335-0.636 2.458-1.383 3.367-2.244z"></path>
</svg>
