<svg xmlns="http://www.w3.org/2000/svg" xmlns:xlink="http://www.w3.org/1999/xlink" preserveAspectRatio="xMidYMid" width="52" height="52" viewBox="0 0 52 52">
  <defs>
    <style>
      .cls-1 {
        fill: #0a457f;
        fill-rule: evenodd;
      }
    </style>
  </defs>
  <path d="M48.000,50.000 L30.000,50.000 C29.724,50.000 29.000,49.776 29.000,49.500 L29.000,48.500 C29.000,48.223 29.724,48.000 30.000,48.000 L48.000,48.000 C48.276,48.000 49.000,48.223 49.000,48.500 L49.000,49.500 C49.000,49.776 48.276,50.000 48.000,50.000 ZM47.000,42.000 L31.000,42.000 C29.895,42.000 29.000,41.104 29.000,40.000 L29.000,4.000 C29.000,2.895 29.895,2.000 31.000,2.000 L47.000,2.000 C48.104,2.000 49.000,2.895 49.000,4.000 L49.000,40.000 C49.000,41.104 48.104,42.000 47.000,42.000 ZM47.000,4.000 L31.000,4.000 L31.000,40.000 L47.000,40.000 L47.000,4.000 ZM22.000,50.000 L4.000,50.000 C3.724,50.000 3.000,49.776 3.000,49.500 L3.000,48.500 C3.000,48.223 3.724,48.000 4.000,48.000 L22.000,48.000 C22.276,48.000 23.000,48.223 23.000,48.500 L23.000,49.500 C23.000,49.776 22.276,50.000 22.000,50.000 ZM21.000,42.000 L5.000,42.000 C3.895,42.000 3.000,41.104 3.000,40.000 L3.000,4.000 C3.000,2.895 3.895,2.000 5.000,2.000 L21.000,2.000 C22.104,2.000 23.000,2.895 23.000,4.000 L23.000,40.000 C23.000,41.104 22.104,42.000 21.000,42.000 ZM21.000,4.000 L5.000,4.000 L5.000,40.000 L21.000,40.000 L21.000,4.000 Z" class="cls-1"/>
</svg>
