<svg xmlns="http://www.w3.org/2000/svg" xmlns:xlink="http://www.w3.org/1999/xlink" preserveAspectRatio="xMidYMid" width="20" height="20" viewBox="0 0 20 20">
  <defs>
    <style>
      .cls-1 {
        fill: #9fb4cc;
        fill-rule: evenodd;
      }
    </style>
  </defs>
  <path d="M17.000,20.000 L3.000,20.000 C1.343,20.000 0.000,18.657 0.000,17.000 L0.000,3.000 C0.000,1.343 1.343,0.000 3.000,0.000 L17.000,0.000 C18.657,0.000 20.000,1.343 20.000,3.000 L20.000,17.000 C20.000,18.657 18.657,20.000 17.000,20.000 ZM18.000,2.000 L2.000,2.000 L2.000,18.000 L18.000,18.000 L18.000,2.000 ZM7.000,6.000 C7.552,6.000 8.000,6.448 8.000,7.000 L8.000,14.000 C8.000,14.552 7.552,15.000 7.000,15.000 C6.448,15.000 6.000,14.552 6.000,14.000 L6.000,7.000 C6.000,6.448 6.448,6.000 7.000,6.000 ZM10.000,6.000 C10.326,6.000 11.000,6.000 11.000,6.000 L12.000,6.000 C13.657,6.000 15.000,7.343 15.000,9.000 C15.000,10.657 13.657,12.000 12.000,12.000 L11.000,12.000 L11.000,14.000 C11.000,14.552 10.552,15.000 10.000,15.000 C9.448,15.000 9.000,14.552 9.000,14.000 L9.000,7.000 C9.000,6.448 9.448,6.000 10.000,6.000 ZM11.000,10.000 L13.000,10.000 L13.000,8.000 L11.000,8.000 L11.000,10.000 Z" class="cls-1"/>
</svg>
