<svg xmlns="http://www.w3.org/2000/svg" xmlns:xlink="http://www.w3.org/1999/xlink" preserveAspectRatio="xMidYMid" width="52" height="52" viewBox="0 0 52 52">
  <defs>
    <style>
      .cls-1 {
        fill: #0a457f;
        fill-rule: evenodd;
      }
    </style>
  </defs>
  <path d="M50.639,26.997 L27.165,37.884 C27.111,37.909 27.056,37.918 27.000,37.923 L27.000,38.000 L25.000,38.000 L25.000,37.923 C24.944,37.918 24.888,37.909 24.835,37.884 L1.361,26.997 C1.112,26.881 1.000,26.577 1.111,26.317 L1.513,25.376 C1.624,25.117 1.916,25.000 2.165,25.116 L25.631,36.000 L26.368,36.000 L49.835,25.116 C50.084,25.000 50.376,25.117 50.487,25.376 L50.889,26.317 C51.000,26.577 50.888,26.881 50.639,26.997 ZM50.639,14.997 L27.165,25.884 C27.111,25.909 27.056,25.919 27.000,25.923 L27.000,26.000 L25.000,26.000 L25.000,25.923 C24.944,25.919 24.888,25.909 24.835,25.884 L1.361,14.997 C1.112,14.881 1.000,14.577 1.111,14.317 L1.460,13.500 L1.111,12.683 C1.000,12.423 1.112,12.119 1.361,12.003 L24.835,1.116 C24.888,1.091 24.944,1.081 25.000,1.077 L25.000,1.000 L27.000,1.000 L27.000,1.077 C27.056,1.081 27.111,1.091 27.165,1.116 L50.639,12.003 C50.888,12.119 51.000,12.423 50.889,12.683 L50.540,13.500 L50.889,14.317 C51.000,14.577 50.888,14.881 50.639,14.997 ZM26.368,3.000 L25.631,3.000 L2.994,13.500 L25.631,24.000 L26.369,24.000 L49.006,13.500 L26.368,3.000 ZM1.513,38.376 C1.624,38.117 1.916,38.000 2.165,38.116 L25.631,49.000 L26.369,49.000 L49.835,38.116 C50.084,38.000 50.376,38.117 50.487,38.376 L50.889,39.317 C51.000,39.577 50.888,39.881 50.639,39.997 L27.165,50.884 C27.111,50.909 27.056,50.919 27.000,50.923 L27.000,51.000 L25.000,51.000 L25.000,50.923 C24.944,50.919 24.888,50.909 24.835,50.884 L1.361,39.997 C1.112,39.881 1.000,39.577 1.111,39.317 L1.513,38.376 Z" class="cls-1"/>
</svg>
