<svg xmlns="http://www.w3.org/2000/svg" xmlns:xlink="http://www.w3.org/1999/xlink" preserveAspectRatio="xMidYMid" width="52" height="52" viewBox="0 0 52 52">
  <defs>
    <style>
      .cls-1 {
        fill: #0a457f;
        fill-rule: evenodd;
      }
    </style>
  </defs>
  <path d="M48.000,50.000 L4.000,50.000 C2.895,50.000 2.000,49.104 2.000,48.000 L2.000,4.000 C2.000,2.895 2.895,2.000 4.000,2.000 L48.000,2.000 C49.104,2.000 50.000,2.895 50.000,4.000 L50.000,48.000 C50.000,49.104 49.104,50.000 48.000,50.000 ZM48.000,4.000 L4.000,4.000 L4.000,48.000 L48.000,48.000 L48.000,4.000 ZM12.500,13.000 L13.500,13.000 C13.776,13.000 14.000,13.224 14.000,13.500 L14.000,14.500 C14.000,14.776 13.776,15.000 13.500,15.000 L12.500,15.000 C12.224,15.000 12.000,14.776 12.000,14.500 L12.000,13.500 C12.000,13.224 12.224,13.000 12.500,13.000 ZM12.500,25.000 L13.500,25.000 C13.776,25.000 14.000,25.224 14.000,25.500 L14.000,26.500 C14.000,26.776 13.776,27.000 13.500,27.000 L12.500,27.000 C12.224,27.000 12.000,26.776 12.000,26.500 L12.000,25.500 C12.000,25.224 12.224,25.000 12.500,25.000 ZM12.500,37.000 L13.500,37.000 C13.776,37.000 14.000,37.224 14.000,37.500 L14.000,38.500 C14.000,38.776 13.776,39.000 13.500,39.000 L12.500,39.000 C12.224,39.000 12.000,38.776 12.000,38.500 L12.000,37.500 C12.000,37.224 12.224,37.000 12.500,37.000 ZM18.500,13.000 L39.500,13.000 C39.776,13.000 40.000,13.224 40.000,13.500 L40.000,14.500 C40.000,14.776 39.776,15.000 39.500,15.000 L18.500,15.000 C18.224,15.000 18.000,14.776 18.000,14.500 L18.000,13.500 C18.000,13.224 18.224,13.000 18.500,13.000 ZM18.500,25.000 L39.500,25.000 C39.776,25.000 40.000,25.224 40.000,25.500 L40.000,26.500 C40.000,26.776 39.776,27.000 39.500,27.000 L18.500,27.000 C18.224,27.000 18.000,26.776 18.000,26.500 L18.000,25.500 C18.000,25.224 18.224,25.000 18.500,25.000 ZM18.500,37.000 L39.500,37.000 C39.776,37.000 40.000,37.224 40.000,37.500 L40.000,38.500 C40.000,38.776 39.776,39.000 39.500,39.000 L18.500,39.000 C18.224,39.000 18.000,38.776 18.000,38.500 L18.000,37.500 C18.000,37.224 18.224,37.000 18.500,37.000 Z" class="cls-1"/>
</svg>
