<svg xmlns="http://www.w3.org/2000/svg" xmlns:xlink="http://www.w3.org/1999/xlink" preserveAspectRatio="xMidYMid" width="52" height="52" viewBox="0 0 52 52">
  <defs>
    <style>
      .cls-1 {
        fill: #0a457f;
        fill-rule: evenodd;
      }
    </style>
  </defs>
  <path d="M48.000,51.000 L34.000,51.000 C32.895,51.000 32.000,50.104 32.000,49.000 L32.000,43.000 L20.000,43.000 L20.000,49.000 C20.000,50.104 19.104,51.000 18.000,51.000 L4.000,51.000 C2.895,51.000 2.000,50.104 2.000,49.000 L2.000,35.000 C2.000,33.895 2.895,33.000 4.000,33.000 L9.087,33.000 L16.016,19.162 C16.012,19.108 16.000,19.055 16.000,19.000 L16.000,3.000 C16.000,1.895 16.895,1.000 18.000,1.000 L34.000,1.000 C35.104,1.000 36.000,1.895 36.000,3.000 L36.000,19.000 C36.000,19.169 35.973,19.330 35.933,19.487 L42.234,33.000 L48.000,33.000 C49.104,33.000 50.000,33.895 50.000,35.000 L50.000,49.000 C50.000,50.104 49.104,51.000 48.000,51.000 ZM4.000,49.000 L18.000,49.000 L18.000,35.000 L4.000,35.000 L4.000,49.000 ZM34.000,3.000 L18.000,3.000 L18.000,19.000 L34.000,19.000 L34.000,3.000 ZM34.411,20.957 C34.279,20.984 34.141,21.000 34.000,21.000 L18.000,21.000 C17.809,21.000 17.629,20.965 17.455,20.915 L11.403,33.000 L18.000,33.000 C19.104,33.000 20.000,33.895 20.000,35.000 L20.000,41.000 L32.000,41.000 L32.000,35.000 C32.000,33.895 32.895,33.000 34.000,33.000 L40.027,33.000 L34.411,20.957 ZM48.000,35.000 L34.000,35.000 L34.000,49.000 L48.000,49.000 L48.000,35.000 Z" class="cls-1"/>
</svg>
