<?xml version="1.0" encoding="utf-8"?>
<!-- Generated by IcoMoon.io -->
<!DOCTYPE svg PUBLIC "-//W3C//DTD SVG 1.1//EN" "http://www.w3.org/Graphics/SVG/1.1/DTD/svg11.dtd">
<svg version="1.1" xmlns="http://www.w3.org/2000/svg" xmlns:xlink="http://www.w3.org/1999/xlink" width="32" height="32" viewBox="0 0 32 32">
<path fill="#3797ee" d="M29.333 26c0 0.148-0.059 0.279-0.14 0.389l0.113 0.647c0.064 0.363-0.177 0.708-0.54 0.772l-17.071 3.009c-0.363 0.064-0.708-0.177-0.772-0.54l-0.232-1.313c-0.008-0.052 0.001-0.1 0.004-0.151-0.011-0.048-0.029-0.095-0.029-0.147v-2.007l-5.397 1.147c-0.361 0.077-0.715-0.153-0.791-0.513l-0.157-0.737c-0.189-0.117-0.321-0.317-0.321-0.556v-20c0-0.108 0.031-0.205 0.076-0.295l0.269-1.172c0.075-0.325 0.42-0.533 0.772-0.464l5.549 1.092v-1.828c0-0.108 0.032-0.207 0.077-0.296l0.217-1.145c0.063-0.335 0.408-0.559 0.769-0.5l17 2.785c0.361 0.059 0.603 0.379 0.539 0.715l-0.123 0.649c0.115 0.119 0.187 0.28 0.187 0.459v20zM10.667 7.625l-4-0.787v17.945l4-0.851v-16.308zM26.667 6.344l-13.333-2.184v19.903l0.275 1.291c0.057 0.271-0.060 0.539-0.275 0.687v1.781l13.333-2.351v-19.127zM20.667 13.333h1.333c0.368 0 0.667 0.299 0.667 0.667v4c0 0.368-0.299 0.667-0.667 0.667h-1.333c-0.368 0-0.667-0.299-0.667-0.667v-4c0-0.368 0.299-0.667 0.667-0.667z"></path>
</svg>
