<?xml version="1.0" encoding="utf-8"?>
<!-- Generated by IcoMoon.io -->
<!DOCTYPE svg PUBLIC "-//W3C//DTD SVG 1.1//EN" "http://www.w3.org/Graphics/SVG/1.1/DTD/svg11.dtd">
<svg version="1.1" xmlns="http://www.w3.org/2000/svg" xmlns:xlink="http://www.w3.org/1999/xlink" width="32" height="32" viewBox="0 0 32 32">
<path fill="#3797ee" d="M15.774 31.2c-12.171 0-14.174-4.8-14.174-4.8v-4.57c0 0 1.573 5.482 14.347 5.482s14.453-5.712 14.453-5.712v4.571c0 0-2.454 5.029-14.626 5.029zM15.774 23.2c-12.171 0-14.174-4.8-14.174-4.8v-4.571c0 0 1.626 5.534 14.4 5.534s14.4-5.763 14.4-5.763v4.573c0 0-2.454 5.027-14.626 5.027zM15.774 15.2c-12.171 0-14.174-4.725-14.174-4.725v-4.499c0 0 0.006 0.019 0.022 0.056 0.242-2.904 6.578-5.232 14.378-5.232 7.645 0 13.882 2.237 14.354 5.059 0.029-0.064 0.046-0.109 0.046-0.109v4.501c0 0-2.454 4.949-14.626 4.949zM16 4.002c-6.186 0-11.2 1.79-11.2 3.998 0 2.21 5.014 4 11.2 4s11.2-1.79 11.2-4c0-2.208-5.014-3.998-11.2-3.998z"></path>
</svg>
