<?xml version="1.0" encoding="utf-8"?>
<!-- Generated by IcoMoon.io -->
<!DOCTYPE svg PUBLIC "-//W3C//DTD SVG 1.1//EN" "http://www.w3.org/Graphics/SVG/1.1/DTD/svg11.dtd">
<svg version="1.1" xmlns="http://www.w3.org/2000/svg" xmlns:xlink="http://www.w3.org/1999/xlink" width="32" height="32" viewBox="0 0 32 32">
<path d="M18.763 12.8h-7.126c-1.125 0-2.037-0.912-2.037-2.037v-7.128c0-1.123 0.912-2.035 2.037-2.035h7.126c1.125 0 2.037 0.912 2.037 2.035v7.128c0 1.125-0.912 2.037-2.037 2.037zM17.6 4.8h-4.8v4.8h4.8v-4.8zM9.163 30.4h-7.128c-1.123 0-2.035-0.912-2.035-2.037v-7.126c0-1.126 0.912-2.037 2.035-2.037h7.128c1.125 0 2.037 0.91 2.037 2.037v7.126c0 1.125-0.912 2.037-2.037 2.037zM8 22.4h-4.8v4.8h4.8v-4.8zM28.363 30.4h-7.128c-1.123 0-2.035-0.912-2.035-2.037v-7.126c0-1.126 0.912-2.037 2.035-2.037h7.128c1.125 0 2.037 0.91 2.037 2.037v7.126c0 1.125-0.912 2.037-2.037 2.037zM27.2 22.4h-4.8v4.8h4.8v-4.8zM11.2 24h8v1.6h-8v-1.6zM4.126 19.755l4.8-8.314 1.386 0.8-4.8 8.314-1.386-0.8zM26.274 19.755l-4.8-8.314-1.386 0.8 4.8 8.314 1.386-0.8z"></path>
</svg>
