<svg xmlns="http://www.w3.org/2000/svg" width="52" height="52" viewBox="0 0 52 52">
  <metadata><?xpacket begin="﻿" id="W5M0MpCehiHzreSzNTczkc9d"?>
<x:xmpmeta xmlns:x="adobe:ns:meta/" x:xmptk="Adobe XMP Core 5.6-c138 79.159824, 2016/09/14-01:09:01        ">
   <rdf:RDF xmlns:rdf="http://www.w3.org/1999/02/22-rdf-syntax-ns#">
      <rdf:Description rdf:about=""/>
   </rdf:RDF>
</x:xmpmeta>
                                                                                                    
                                                                                                    
                                                                                                    
                                                                                                    
                                                                                                    
                                                                                                    
                                                                                                    
                                                                                                    
                                                                                                    
                                                                                                    
                                                                                                    
                                                                                                    
                                                                                                    
                                                                                                    
                                                                                                    
                                                                                                    
                                                                                                    
                                                                                                    
                                                                                                    
                                                                                                    
                           
<?xpacket end="w"?></metadata>
<defs>
    <style>
      .cls-1 {
        fill: #0a457f;
        fill-rule: evenodd;
      }
    </style>
  </defs>
  <path id="矩形_133" data-name="矩形 133" class="cls-1" d="M51,48a2,2,0,0,1-2,2H3a2,2,0,0,1-2-2V20a1.983,1.983,0,0,1,.187-0.834,0.486,0.486,0,0,1-.028-0.3L5.272,2.372a0.5,0.5,0,0,1,.606-0.364L6.224,2.094A0.487,0.487,0,0,1,6.5,2h39a0.491,0.491,0,0,1,.383.191l0.476-.123a0.484,0.484,0,0,1,.588.367l3.989,16.642a0.512,0.512,0,0,1-.036.327,1.98,1.98,0,0,1,.1.6V48ZM45.323,4H6.927L3.437,18H48.678ZM49,20H3V48H49V20ZM34,35H18V33H34v2Z"/>
</svg>
