<svg xmlns="http://www.w3.org/2000/svg" xmlns:xlink="http://www.w3.org/1999/xlink" preserveAspectRatio="xMidYMid" width="52" height="52" viewBox="0 0 52 52">
  <defs>
    <style>
      .cls-1 {
        fill: #0a457f;
        fill-rule: evenodd;
      }
    </style>
  </defs>
  <path d="M49.000,50.000 L3.000,50.000 C1.895,50.000 1.000,49.104 1.000,48.000 L1.000,5.000 C1.000,3.895 1.895,3.000 3.000,3.000 L49.000,3.000 C50.104,3.000 51.000,3.895 51.000,5.000 L51.000,48.000 C51.000,49.104 50.104,50.000 49.000,50.000 ZM49.000,5.000 L3.000,5.000 L3.000,48.000 L49.000,48.000 L49.000,5.000 ZM19.337,26.845 C19.701,28.899 20.091,30.953 20.456,33.007 L20.560,33.007 C21.002,30.953 21.470,28.899 21.938,26.845 L24.564,16.470 L26.748,16.470 L29.426,26.845 C29.894,28.873 30.336,30.927 30.778,33.007 L30.908,33.007 C31.272,30.927 31.636,28.873 32.000,26.845 L34.002,16.470 L36.316,16.470 L32.364,35.529 L29.478,35.529 L26.592,24.037 C26.254,22.529 25.968,21.150 25.656,19.695 L25.552,19.695 C25.240,21.150 24.902,22.529 24.590,24.037 L21.756,35.529 L18.895,35.529 L14.839,16.470 L17.335,16.470 L19.337,26.845 Z" class="cls-1"/>
</svg>
