<?xml version="1.0" encoding="utf-8"?>
<!-- Generated by IcoMoon.io -->
<!DOCTYPE svg PUBLIC "-//W3C//DTD SVG 1.1//EN" "http://www.w3.org/Graphics/SVG/1.1/DTD/svg11.dtd">
<svg version="1.1" xmlns="http://www.w3.org/2000/svg" xmlns:xlink="http://www.w3.org/1999/xlink" width="32" height="32" viewBox="0 0 32 32">
<path fill="#9fb4cc" d="M29.2 30.667h-26.4c-0.81 0-1.467-0.657-1.467-1.467v-26.4c0-0.81 0.657-1.467 1.467-1.467h26.4c0.81 0 1.467 0.657 1.467 1.467v26.4c0 0.81-0.657 1.467-1.467 1.467zM27.733 5.44c0-0.648-0.525-1.173-1.173-1.173h-21.12c-0.648 0-1.173 0.525-1.173 1.173v21.12c0 0.648 0.525 1.173 1.173 1.173h21.12c0.648 0 1.173-0.525 1.173-1.173v-21.12zM13.067 21.867h11.733v2.933h-11.733v-2.933zM13.067 14.533h11.733v2.933h-11.733v-2.933zM13.067 7.2h11.733v2.933h-11.733v-2.933zM7.2 21.867h2.933v2.933h-2.933v-2.933zM7.2 14.533h2.933v2.933h-2.933v-2.933zM7.2 7.2h2.933v2.933h-2.933v-2.933z"></path>
</svg>
