<svg xmlns="http://www.w3.org/2000/svg" width="22" height="22" viewBox="0 0 22 22">
  <metadata><?xpacket begin="﻿" id="W5M0MpCehiHzreSzNTczkc9d"?>
<x:xmpmeta xmlns:x="adobe:ns:meta/" x:xmptk="Adobe XMP Core 5.6-c138 79.159824, 2016/09/14-01:09:01        ">
   <rdf:RDF xmlns:rdf="http://www.w3.org/1999/02/22-rdf-syntax-ns#">
      <rdf:Description rdf:about=""/>
   </rdf:RDF>
</x:xmpmeta>
                                                                                                    
                                                                                                    
                                                                                                    
                                                                                                    
                                                                                                    
                                                                                                    
                                                                                                    
                                                                                                    
                                                                                                    
                                                                                                    
                                                                                                    
                                                                                                    
                                                                                                    
                                                                                                    
                                                                                                    
                                                                                                    
                                                                                                    
                                                                                                    
                                                                                                    
                                                                                                    
                           
<?xpacket end="w"?></metadata>
<defs>
    <style>
      .cls-1 {
        fill: #6a778b;
        fill-rule: evenodd;
      }
    </style>
  </defs>
  <path id="矩形_94_副本_3" data-name="矩形 94 副本 3" class="cls-1" d="M21,7v9a2,2,0,0,1-2,2H8a2,2,0,0,1-2-2V2A2,2,0,0,1,8,0h7.938L21,5.125V7h0ZM17,4L16,3V5h2Zm2,3H14V2H8V16H19V7Zm-4,4H10V9h5v2Zm2,3H10V12h7v2Zm0,6a2,2,0,0,1-2,2H4a2,2,0,0,1-2-2V6A2,2,0,0,1,4,4V20H17Z"/>
</svg>
