<svg xmlns="http://www.w3.org/2000/svg" xmlns:xlink="http://www.w3.org/1999/xlink" preserveAspectRatio="xMidYMid" width="52" height="52" viewBox="0 0 52 52">
  <defs>
    <style>
      .cls-1 {
        fill: #0a457f;
        fill-rule: evenodd;
      }
    </style>
  </defs>
  <g>
    <path d="M27.000,25.000 C13.745,25.000 3.000,19.627 3.000,13.000 C3.000,6.372 13.745,1.000 27.000,1.000 C40.255,1.000 51.000,6.372 51.000,13.000 C51.000,19.627 40.255,25.000 27.000,25.000 ZM27.000,3.000 C14.850,3.000 5.000,7.477 5.000,13.000 C5.000,18.523 14.850,23.000 27.000,23.000 C39.150,23.000 49.000,18.523 49.000,13.000 C49.000,7.477 39.150,3.000 27.000,3.000 Z" class="cls-1"/>
    <path d="M27.000,36.000 C39.150,36.000 49.000,31.523 49.000,26.000 L51.000,26.000 C51.000,32.627 40.255,38.000 27.000,38.000 C13.745,38.000 3.000,32.627 3.000,26.000 L5.000,26.000 C5.000,31.523 14.850,36.000 27.000,36.000 Z" class="cls-1"/>
    <path d="M27.000,49.000 C39.150,49.000 49.000,44.523 49.000,39.000 L51.000,39.000 C51.000,45.627 40.255,51.000 27.000,51.000 C13.745,51.000 3.000,45.627 3.000,39.000 L5.000,39.000 C5.000,44.523 14.850,49.000 27.000,49.000 Z" class="cls-1"/>
  </g>
</svg>
