<svg xmlns="http://www.w3.org/2000/svg" width="52" height="52" viewBox="0 0 52 52">
  <metadata><?xpacket begin="﻿" id="W5M0MpCehiHzreSzNTczkc9d"?>
<x:xmpmeta xmlns:x="adobe:ns:meta/" x:xmptk="Adobe XMP Core 5.6-c138 79.159824, 2016/09/14-01:09:01        ">
   <rdf:RDF xmlns:rdf="http://www.w3.org/1999/02/22-rdf-syntax-ns#">
      <rdf:Description rdf:about=""/>
   </rdf:RDF>
</x:xmpmeta>
                                                                                                    
                                                                                                    
                                                                                                    
                                                                                                    
                                                                                                    
                                                                                                    
                                                                                                    
                                                                                                    
                                                                                                    
                                                                                                    
                                                                                                    
                                                                                                    
                                                                                                    
                                                                                                    
                                                                                                    
                                                                                                    
                                                                                                    
                                                                                                    
                                                                                                    
                                                                                                    
                           
<?xpacket end="w"?></metadata>
<defs>
    <style>
      .cls-1 {
        fill: #0a457f;
        fill-rule: evenodd;
      }
    </style>
  </defs>
  <path id="形状_620_拷贝" data-name="形状 620 拷贝" class="cls-1" d="M51,48a2,2,0,0,1-2,2H3a2,2,0,0,1-2-2V38a1.98,1.98,0,0,1,.283-1.01,0.494,0.494,0,0,1-.152-0.472L9.454,2.466a0.5,0.5,0,0,1,.6-0.375l0.13,0.03A0.492,0.492,0,0,1,10.5,2h31a0.493,0.493,0,0,1,.374.176l0.484-.115a0.481,0.481,0,0,1,.577.371l8.006,33.69a0.5,0.5,0,0,1-.36.594l-0.049.011A1.982,1.982,0,0,1,51,38V48ZM41.311,4H11.153L3.3,36H48.938ZM49,38H3V48H49V38ZM21,18c0.034,0,.066.009,0.1,0.01a5,5,0,0,1,9.8,0c0.034,0,.066-0.01.1-0.01a4,4,0,0,1,0,8H21A4,4,0,0,1,21,18Zm0,6a1.969,1.969,0,0,0,1,0h9a2,2,0,0,0,0-4,4.487,4.487,0,0,1-2-2s0.227,1.143-.166.014a3,3,0,0,0-5.631-.1C22.743,19.094,23,18,23,18a4.375,4.375,0,0,1-1.864,2c-0.013,0-.017.01-0.029,0.015C21.07,20.013,21.037,20,21,20A2,2,0,1,0,21,24Z"/>
</svg>
