<svg xmlns="http://www.w3.org/2000/svg" xmlns:xlink="http://www.w3.org/1999/xlink" preserveAspectRatio="xMidYMid" width="52" height="52" viewBox="0 0 52 52">
  <defs>
    <style>
      .cls-1 {
        fill: #0a457f;
        fill-rule: evenodd;
      }
    </style>
  </defs>
  <path d="M49.000,34.452 C49.000,34.452 48.983,34.486 48.968,34.513 L48.968,34.692 L48.860,34.709 C48.089,36.079 43.675,43.124 31.000,50.000 C29.488,50.821 26.423,51.868 26.423,51.868 L26.000,50.000 C26.165,50.325 27.591,49.809 29.000,49.000 C42.942,40.975 47.000,34.000 47.000,34.000 L47.000,6.227 C43.163,4.824 34.397,2.000 26.000,2.000 C17.716,2.000 9.631,4.746 6.000,6.167 L6.000,33.834 C6.547,34.654 11.220,41.297 24.000,49.000 C24.775,49.467 25.627,49.568 26.000,50.000 L26.427,52.000 C26.427,52.000 23.502,50.835 22.000,50.000 C10.548,43.624 5.799,37.158 4.442,35.000 L4.000,35.000 L4.000,7.000 L4.000,6.494 L4.000,5.000 C4.000,5.000 10.261,-0.077 26.000,-0.000 C41.739,0.077 49.000,5.000 49.000,5.000 L49.000,7.000 L48.968,34.445 L49.000,34.452 ZM23.646,32.780 L22.939,32.073 C22.882,32.016 22.861,31.934 22.857,31.842 L15.441,24.425 C15.245,24.230 15.245,23.914 15.441,23.718 L16.148,23.011 C16.343,22.816 16.660,22.816 16.855,23.011 L24.074,30.231 L37.494,16.811 C37.852,16.453 38.300,16.321 38.496,16.517 L39.203,17.224 C39.398,17.419 39.266,17.868 38.908,18.226 L24.648,32.486 C24.290,32.844 23.842,32.975 23.646,32.780 Z" class="cls-1"/>
</svg>
