<?xml version="1.0" encoding="utf-8"?>
<!-- Generated by IcoMoon.io -->
<!DOCTYPE svg PUBLIC "-//W3C//DTD SVG 1.1//EN" "http://www.w3.org/Graphics/SVG/1.1/DTD/svg11.dtd">
<svg version="1.1" xmlns="http://www.w3.org/2000/svg" xmlns:xlink="http://www.w3.org/1999/xlink" width="32" height="32" viewBox="0 0 32 32">
<path fill="#9fb4cc" d="M28 24.002h-8c-0.885 0-1.6-0.717-1.6-1.602v-19.198c0-0.885 0.715-1.602 1.6-1.602h8c0.883 0 1.6 0.717 1.6 1.602v19.198c0 0.885-0.717 1.602-1.6 1.602zM26.4 4.802h-4.8v16h4.8v-16zM2.4 27.202h11.2v3.198h-11.2v-3.198zM12 24.002h-8c-0.885 0-1.6-0.717-1.6-1.602v-19.198c0-0.885 0.715-1.602 1.6-1.602h8c0.883 0 1.6 0.717 1.6 1.602v19.198c0 0.885-0.717 1.602-1.6 1.602zM10.4 4.802h-4.8v16h4.8v-16zM29.6 30.4h-11.2v-3.198h11.2v3.198z"></path>
</svg>
