<?xml version="1.0" encoding="utf-8"?>
<!-- Generated by IcoMoon.io -->
<!DOCTYPE svg PUBLIC "-//W3C//DTD SVG 1.1//EN" "http://www.w3.org/Graphics/SVG/1.1/DTD/svg11.dtd">
<svg version="1.1" xmlns="http://www.w3.org/2000/svg" xmlns:xlink="http://www.w3.org/1999/xlink" width="32" height="32" viewBox="0 0 32 32">
<path fill="#9fb4cc" d="M29.091 31.273h-26.182c-0.803 0-1.455-0.652-1.455-1.455v-5.818c0-0.803 0.652-1.455 1.455-1.455h2.909v-11.636c0-5.623 4.559-10.182 10.182-10.182s10.182 4.559 10.182 10.182v11.636h2.909c0.803 0 1.455 0.652 1.455 1.455v5.818c0 0.803-0.652 1.455-1.455 1.455zM23.273 12.048c0-4.646-3.257-8.412-7.273-8.412s-7.273 3.766-7.273 8.412v10.497h14.545v-10.497zM27.636 25.939c0-0.268-0.521-0.484-1.164-0.484h-20.945c-0.643 0-1.164 0.217-1.164 0.484v1.94c0 0.268 0.521 0.484 1.164 0.484h20.945c0.643 0 1.164-0.217 1.164-0.484v-1.94zM20.364 16.727h-1.455v-7.273h1.455v7.273zM20.364 19.636h-1.455v-1.455h1.455v1.455z"></path>
</svg>
