<?xml version="1.0" encoding="utf-8"?>
<!-- Generated by IcoMoon.io -->
<!DOCTYPE svg PUBLIC "-//W3C//DTD SVG 1.1//EN" "http://www.w3.org/Graphics/SVG/1.1/DTD/svg11.dtd">
<svg version="1.1" xmlns="http://www.w3.org/2000/svg" xmlns:xlink="http://www.w3.org/1999/xlink" width="34" height="32" viewBox="0 0 34 32">
<path fill="#b3bdc6" d="M31.397 9.969l-2.514 2.515-3.143-3.143-1.885 1.885 3.142 3.143-2.514 2.514-3.143-3.142-3.67 3.67c1.792 3.097 1.372 7.124-1.279 9.774-3.163 3.163-8.29 3.163-11.453 0s-3.163-8.29 0-11.453c2.809-2.809 7.165-3.117 10.32-0.937l12.368-12.369 2.515 2.514-1.886 1.886 3.143 3.142zM10.663 17.014c-2.454 0-4.445 1.99-4.445 4.445s1.99 4.445 4.445 4.445c2.454 0 4.445-1.99 4.445-4.445s-1.99-4.445-4.445-4.445z"></path>
</svg>
