<?xml version="1.0" encoding="utf-8"?>
<!-- Generator: Adobe Illustrator 17.0.0, SVG Export Plug-In . SVG Version: 6.00 Build 0)  -->
<!DOCTYPE svg PUBLIC "-//W3C//DTD SVG 1.1//EN" "http://www.w3.org/Graphics/SVG/1.1/DTD/svg11.dtd">
<svg version="1.1" id="图层_1" xmlns="http://www.w3.org/2000/svg" xmlns:xlink="http://www.w3.org/1999/xlink" x="0px" y="0px"
	 width="24px" height="24px" viewBox="0 0 24 24" enable-background="new 0 0 24 24" xml:space="preserve">
<path d="M12,24C5.372,24,0,18.627,0,12C0,5.372,5.372,0,12,0c6.627,0,12,5.372,12,12C24,18.627,18.627,24,12,24z M12,2
	C6.477,2,2,6.477,2,12s4.477,10,10,10s10-4.477,10-10S17.523,2,12,2z M5,15c0-1.105,0.895-2,2-2h2v-2.625L9.38,11
	C8.541,10.267,8,9.201,8,8c0-2.209,1.791-4,4-4s4,1.791,4,4c0,1.201-0.541,2.267-1.38,3L15,10.188V13h2c1.105,0,2,0.895,2,2v3H5V15z
	 M12,6c-1.105,0-2,0.895-2,2c0,0.738,0.405,1.376,1,1.723V13h2V9.723C13.595,9.376,14,8.738,14,8C14,6.895,13.105,6,12,6z M7,16h10
	v-1H7V16z"/>
</svg>
