<?xml version="1.0" encoding="utf-8"?>
<!-- Generated by IcoMoon.io -->
<!DOCTYPE svg PUBLIC "-//W3C//DTD SVG 1.1//EN" "http://www.w3.org/Graphics/SVG/1.1/DTD/svg11.dtd">
<svg version="1.1" xmlns="http://www.w3.org/2000/svg" xmlns:xlink="http://www.w3.org/1999/xlink" width="32" height="32" viewBox="0 0 32 32">
<path fill="#a2b0b7" d="M16 31.989c-8.83 0-15.989-7.159-15.989-15.989s7.159-15.989 15.989-15.989c8.83 0 15.989 7.159 15.989 15.989s-7.159 15.989-15.989 15.989zM16 3.080c-7.136 0-12.92 5.784-12.92 12.92 0 7.135 5.784 12.918 12.92 12.918 7.135 0 12.92-5.784 12.92-12.918 0-7.136-5.785-12.92-12.92-12.92zM22.38 17.595h-12.76c-0.88 0-1.595-0.713-1.595-1.595 0-0.88 0.715-1.595 1.595-1.595h12.76c0.88 0 1.595 0.715 1.595 1.595 0 0.882-0.715 1.595-1.595 1.595z"></path>
</svg>
