<?xml version="1.0" encoding="utf-8"?>
<!-- Generated by IcoMoon.io -->
<!DOCTYPE svg PUBLIC "-//W3C//DTD SVG 1.1//EN" "http://www.w3.org/Graphics/SVG/1.1/DTD/svg11.dtd">
<svg version="1.1" xmlns="http://www.w3.org/2000/svg" xmlns:xlink="http://www.w3.org/1999/xlink" width="32" height="32" viewBox="0 0 32 32">
<path fill="#a2b0b7" d="M16 31.989c-8.83 0-15.989-7.159-15.989-15.989s7.159-15.989 15.989-15.989c8.83 0 15.989 7.159 15.989 15.989s-7.159 15.989-15.989 15.989zM16 3.091c-7.13 0-12.909 5.779-12.909 12.909 0 7.128 5.779 12.907 12.909 12.907s12.909-5.779 12.909-12.907c0-7.13-5.779-12.909-12.909-12.909zM20.785 14.405h3.19v3.19h-3.19v-3.19zM14.405 14.405h3.19v3.19h-3.19v-3.19zM8.025 14.405h3.19v3.19h-3.19v-3.19z"></path>
</svg>
