<?xml version="1.0" encoding="utf-8"?>
<!-- Generated by IcoMoon.io -->
<!DOCTYPE svg PUBLIC "-//W3C//DTD SVG 1.1//EN" "http://www.w3.org/Graphics/SVG/1.1/DTD/svg11.dtd">
<svg version="1.1" xmlns="http://www.w3.org/2000/svg" xmlns:xlink="http://www.w3.org/1999/xlink" width="32" height="32" viewBox="0 0 32 32">
<path fill="#a2b0b7" d="M16 31.989c-8.832 0-15.989-7.159-15.989-15.989s7.157-15.989 15.989-15.989c8.83 0 15.989 7.159 15.989 15.989s-7.159 15.989-15.989 15.989zM16 3.080c-7.136 0-12.92 5.784-12.92 12.92 0 7.135 5.784 12.918 12.92 12.918 7.135 0 12.92-5.784 12.92-12.918 0-7.136-5.785-12.92-12.92-12.92zM23.178 17.595c-0.128 0-0.244-0.037-0.351-0.089-0.145 0.043-0.289 0.089-0.447 0.089h-4.785v4.785c0 0.88-0.715 1.595-1.595 1.595s-1.595-0.715-1.595-1.595v-4.785h-4.785c-0.88 0-1.595-0.713-1.595-1.595 0-0.88 0.715-1.595 1.595-1.595h4.785v-4.785c0-0.88 0.715-1.595 1.595-1.595s1.595 0.715 1.595 1.595v4.785h4.785c0.158 0 0.301 0.048 0.447 0.091 0.107-0.054 0.223-0.091 0.351-0.091 0.44 0 0.798 0.357 0.798 0.798v1.595c0 0.44-0.357 0.798-0.798 0.798z"></path>
</svg>
