<?xml version="1.0" encoding="utf-8"?>
<!-- Generated by IcoMoon.io -->
<!DOCTYPE svg PUBLIC "-//W3C//DTD SVG 1.1//EN" "http://www.w3.org/Graphics/SVG/1.1/DTD/svg11.dtd">
<svg version="1.1" xmlns="http://www.w3.org/2000/svg" xmlns:xlink="http://www.w3.org/1999/xlink" width="32" height="32" viewBox="0 0 32 32">
<path fill="#bac2cf" d="M16 32c-8.836 0-16-7.164-16-16s7.164-16 16-16c8.836 0 16 7.164 16 16s-7.164 16-16 16zM16 2c-7.732 0-14 6.268-14 14 0 7.731 6.268 14 14 14s14-6.269 14-14c0-7.732-6.268-14-14-14z"></path>
<path fill="#bac2cf" d="M23.815 15.804c-0.64-2.73-3.139-4.575-5.872-4.575h-4.512v-2.18c0-0.214-0.253-0.321-0.4-0.17l-4.212 3.377c-0.092 0.095-0.092 0.247 0 0.34l4.23 3.379c0.147 0.151 0.401 0.052 0.401-0.163l-0.019-2.175h4.515c1.686 0 3.252 1.136 3.61 2.828 0.484 2.289-1.223 4.399-3.386 4.399h-6.172c-0.323 0-0.586 0.269-0.586 0.602v1.204c0 0.332 0.263 0.602 0.586 0.602h6.172c3.66 0 6.557-3.584 5.645-7.469v0z"></path>
</svg>
