<?xml version="1.0" encoding="utf-8"?>
<!-- Generated by IcoMoon.io -->
<!DOCTYPE svg PUBLIC "-//W3C//DTD SVG 1.1//EN" "http://www.w3.org/Graphics/SVG/1.1/DTD/svg11.dtd">
<svg version="1.1" xmlns="http://www.w3.org/2000/svg" xmlns:xlink="http://www.w3.org/1999/xlink" width="11" height="32" viewBox="0 0 11 32">
<path fill="#000" d="M9.481 22.519c-0.654 0-1.185-0.531-1.185-1.185s0.531-1.185 1.185-1.185 1.185 0.531 1.185 1.185-0.531 1.185-1.185 1.185zM9.481 11.852c-0.654 0-1.185-0.531-1.185-1.185s0.531-1.185 1.185-1.185 1.185 0.531 1.185 1.185-0.531 1.185-1.185 1.185zM9.481 2.37c-0.654 0-1.185-0.531-1.185-1.185s0.531-1.185 1.185-1.185 1.185 0.531 1.185 1.185-0.531 1.185-1.185 1.185zM1.185 32c-0.654 0-1.185-0.531-1.185-1.185s0.531-1.185 1.185-1.185 1.185 0.531 1.185 1.185-0.531 1.185-1.185 1.185zM1.185 22.519c-0.654 0-1.185-0.531-1.185-1.185s0.531-1.185 1.185-1.185 1.185 0.531 1.185 1.185-0.531 1.185-1.185 1.185zM1.185 11.852c-0.654 0-1.185-0.531-1.185-1.185s0.531-1.185 1.185-1.185 1.185 0.531 1.185 1.185-0.531 1.185-1.185 1.185zM1.185 2.37c-0.654 0-1.185-0.531-1.185-1.185s0.531-1.185 1.185-1.185 1.185 0.531 1.185 1.185-0.531 1.185-1.185 1.185zM9.481 29.63c0.654 0 1.185 0.531 1.185 1.185s-0.531 1.185-1.185 1.185-1.185-0.531-1.185-1.185 0.531-1.185 1.185-1.185z"></path>
</svg>
