<?xml version="1.0" encoding="utf-8"?>
<!-- Generated by IcoMoon.io -->
<!DOCTYPE svg PUBLIC "-//W3C//DTD SVG 1.1//EN" "http://www.w3.org/Graphics/SVG/1.1/DTD/svg11.dtd">
<svg version="1.1" xmlns="http://www.w3.org/2000/svg" xmlns:xlink="http://www.w3.org/1999/xlink" width="32" height="32" viewBox="0 0 32 32">
<path fill="#7fb0fa" d="M16 31.989c-8.832 0-15.989-7.159-15.989-15.989s7.157-15.989 15.989-15.989c8.83 0 15.989 7.159 15.989 15.989s-7.159 15.989-15.989 15.989zM16 3.080c-7.136 0-12.92 5.784-12.92 12.92 0 7.135 5.784 12.918 12.92 12.918 7.135 0 12.92-5.784 12.92-12.918 0-7.136-5.785-12.92-12.92-12.92zM21.28 17.44l-3.834-3.85v11.231c0 1.019-3.086 0.978-3.086 0v-11.32l-3.747 3.761c-0.59 0.593-1.549 0.593-2.139 0s-0.59-1.554 0-2.147l5.688-5.71c0.037-0.332 0.18-0.654 0.435-0.911 0.616-0.617 1.613-0.617 2.228 0l0.128 0.128c0.022 0.021 0.054 0.029 0.077 0.051 0.022 0.024 0.030 0.054 0.051 0.078l6.428 6.454c0.616 0.617 0.616 1.619 0 2.236-0.616 0.619-1.613 0.619-2.228 0z"></path>
</svg>
