<?xml version="1.0" encoding="utf-8"?>
<!-- Generated by IcoMoon.io -->
<!DOCTYPE svg PUBLIC "-//W3C//DTD SVG 1.1//EN" "http://www.w3.org/Graphics/SVG/1.1/DTD/svg11.dtd">
<svg version="1.1" xmlns="http://www.w3.org/2000/svg" xmlns:xlink="http://www.w3.org/1999/xlink" width="32" height="32" viewBox="0 0 32 32">
<path fill="#a2b0b7" d="M28.444 31.111h-24.889c-1.964 0-3.556-1.591-3.556-3.556v-23.111c0-1.964 1.591-3.556 3.556-3.556h24.889c1.964 0 3.556 1.591 3.556 3.556v23.111c0 1.964-1.591 3.556-3.556 3.556zM30.222 5.804c0-1.733-1.415-3.138-3.161-3.138h-22.123c-1.746 0-3.161 1.404-3.161 3.138v20.391c0 1.733 1.415 3.138 3.161 3.138h22.123c1.746 0 3.161-1.404 3.161-3.138v-20.391zM8.889 11.556h14.222l-7.111 8.889-7.111-8.889z"></path>
</svg>
