<svg xmlns="http://www.w3.org/2000/svg" xmlns:xlink="http://www.w3.org/1999/xlink" preserveAspectRatio="xMidYMid" width="24" height="24" viewBox="0 0 24 24">
  <defs>
    <style>
      .cls-1 {
        fill: #bac2cf;
        fill-rule: evenodd;
      }
    </style>
  </defs>
  <path d="M12.000,24.000 C5.372,24.000 -0.000,18.627 -0.000,12.000 C-0.000,5.372 5.372,-0.000 12.000,-0.000 C18.627,-0.000 24.000,5.372 24.000,12.000 C24.000,18.627 18.627,24.000 12.000,24.000 ZM12.000,2.000 C6.477,2.000 2.000,6.477 2.000,12.000 C2.000,17.523 6.477,22.000 12.000,22.000 C17.523,22.000 22.000,17.523 22.000,12.000 C22.000,6.477 17.523,2.000 12.000,2.000 ZM6.000,15.000 L18.000,15.000 L18.000,17.000 L6.000,17.000 L6.000,15.000 ZM15.961,8.278 L13.937,6.263 L14.995,5.210 C15.205,5.000 15.545,5.000 15.756,5.210 L17.019,6.467 C17.229,6.676 17.229,7.015 17.019,7.225 L15.961,8.278 ZM10.024,14.189 L8.000,14.000 L8.000,12.174 L13.397,6.800 L15.421,8.815 L10.024,14.189 Z" class="cls-1"/>
</svg>
