<svg xmlns="http://www.w3.org/2000/svg" width="22" height="22" viewBox="0 0 22 22">
  <metadata><?xpacket begin="﻿" id="W5M0MpCehiHzreSzNTczkc9d"?>
<x:xmpmeta xmlns:x="adobe:ns:meta/" x:xmptk="Adobe XMP Core 5.6-c138 79.159824, 2016/09/14-01:09:01        ">
   <rdf:RDF xmlns:rdf="http://www.w3.org/1999/02/22-rdf-syntax-ns#">
      <rdf:Description rdf:about=""/>
   </rdf:RDF>
</x:xmpmeta>
                                                                                                    
                                                                                                    
                                                                                                    
                                                                                                    
                                                                                                    
                                                                                                    
                                                                                                    
                                                                                                    
                                                                                                    
                                                                                                    
                                                                                                    
                                                                                                    
                                                                                                    
                                                                                                    
                                                                                                    
                                                                                                    
                                                                                                    
                                                                                                    
                                                                                                    
                                                                                                    
                           
<?xpacket end="w"?></metadata>
<defs>
    <style>
      .cls-1 {
        fill: #c9cfd8;
        fill-rule: evenodd;
      }
    </style>
  </defs>
  <path id="圆角矩形_76_拷贝_8" data-name="圆角矩形 76 拷贝 8" class="cls-1" d="M11.5,22A10.5,10.5,0,1,1,22,11.5,10.5,10.5,0,0,1,11.5,22Zm0-19A8.5,8.5,0,1,0,20,11.5,8.5,8.5,0,0,0,11.5,3Zm5,10h-6a0.5,0.5,0,0,1-.5-0.5v-6A0.5,0.5,0,0,1,10.5,6h1a0.5,0.5,0,0,1,.5.5V11h4.5a0.5,0.5,0,0,1,.5.5v1A0.5,0.5,0,0,1,16.5,13Z"/>
</svg>
