<svg xmlns="http://www.w3.org/2000/svg" width="22" height="22" viewBox="0 0 22 22">
  <metadata><?xpacket begin="﻿" id="W5M0MpCehiHzreSzNTczkc9d"?>
<x:xmpmeta xmlns:x="adobe:ns:meta/" x:xmptk="Adobe XMP Core 5.6-c138 79.159824, 2016/09/14-01:09:01        ">
   <rdf:RDF xmlns:rdf="http://www.w3.org/1999/02/22-rdf-syntax-ns#">
      <rdf:Description rdf:about=""/>
   </rdf:RDF>
</x:xmpmeta>
                                                                                                    
                                                                                                    
                                                                                                    
                                                                                                    
                                                                                                    
                                                                                                    
                                                                                                    
                                                                                                    
                                                                                                    
                                                                                                    
                                                                                                    
                                                                                                    
                                                                                                    
                                                                                                    
                                                                                                    
                                                                                                    
                                                                                                    
                                                                                                    
                                                                                                    
                                                                                                    
                           
<?xpacket end="w"?></metadata>
<defs>
    <style>
      .cls-1 {
        fill: #c9cfd8;
        fill-rule: evenodd;
      }
    </style>
  </defs>
  <path id="矩形_108_拷贝_4" data-name="矩形 108 拷贝 4" class="cls-1" d="M19,21H3a2,2,0,0,1-2-2V3A2,2,0,0,1,3,1H19a2,2,0,0,1,2,2V19A2,2,0,0,1,19,21ZM19,3H3V19H19V3ZM7.331,13.246a1.241,1.241,0,0,1,.309-0.234H7.981a0.313,0.313,0,0,0-.342,0H6.472a0.5,0.5,0,0,1-.5-0.5V11.5a0.5,0.5,0,0,1,.5-0.5H10.5a0.5,0.5,0,0,1,.5.5v4.025a0.5,0.5,0,0,1-.5.5H9.491a0.5,0.5,0,0,1-.5-0.5V14.36a0.313,0.313,0,0,0,0-.342V14.36a1.248,1.248,0,0,1-.234.309L6.619,16.8a0.5,0.5,0,0,1-.711,0L5.2,16.092a0.5,0.5,0,0,1,0-.711ZM11.5,5.969h1.006a0.5,0.5,0,0,1,.5.5V7.64a0.313,0.313,0,0,0,0,.342V7.64a1.245,1.245,0,0,1,.234-0.309L15.381,5.2a0.5,0.5,0,0,1,.711,0L16.8,5.908a0.5,0.5,0,0,1,0,.711L14.669,8.754a1.239,1.239,0,0,1-.309.234H14.019a0.313,0.313,0,0,0,.342,0h1.167a0.5,0.5,0,0,1,.5.5V10.5a0.5,0.5,0,0,1-.5.5H11.5a0.5,0.5,0,0,1-.5-0.5V6.472A0.5,0.5,0,0,1,11.5,5.969Z"/>
</svg>
