<svg xmlns="http://www.w3.org/2000/svg" width="22" height="22" viewBox="0 0 22 22">
  <metadata><?xpacket begin="﻿" id="W5M0MpCehiHzreSzNTczkc9d"?>
<x:xmpmeta xmlns:x="adobe:ns:meta/" x:xmptk="Adobe XMP Core 5.6-c138 79.159824, 2016/09/14-01:09:01        ">
   <rdf:RDF xmlns:rdf="http://www.w3.org/1999/02/22-rdf-syntax-ns#">
      <rdf:Description rdf:about=""/>
   </rdf:RDF>
</x:xmpmeta>
                                                                                                    
                                                                                                    
                                                                                                    
                                                                                                    
                                                                                                    
                                                                                                    
                                                                                                    
                                                                                                    
                                                                                                    
                                                                                                    
                                                                                                    
                                                                                                    
                                                                                                    
                                                                                                    
                                                                                                    
                                                                                                    
                                                                                                    
                                                                                                    
                                                                                                    
                                                                                                    
                           
<?xpacket end="w"?></metadata>
<defs>
    <style>
      .cls-1 {
        fill: #c9cfd8;
        fill-rule: evenodd;
      }
    </style>
  </defs>
  <path id="矩形_108_拷贝_3" data-name="矩形 108 拷贝 3" class="cls-1" d="M19,21H3a2,2,0,0,1-2-2V3A2,2,0,0,1,3,1H19a2,2,0,0,1,2,2V19A2,2,0,0,1,19,21ZM19,3H3V19H19V3ZM5.5,12h1a0.5,0.5,0,0,1,.5.5v1.16A0.311,0.311,0,0,0,7,14H7V13.66a1.239,1.239,0,0,1,.232-0.307l2.121-2.121a0.5,0.5,0,0,1,.707,0l0.707,0.707a0.5,0.5,0,0,1,0,.707L8.646,14.768A1.234,1.234,0,0,1,8.34,15H8a0.31,0.31,0,0,0,.34,0H9.5a0.5,0.5,0,0,1,.5.5v1a0.5,0.5,0,0,1-.5.5h-4A0.5,0.5,0,0,1,5,16.5v-4A0.5,0.5,0,0,1,5.5,12Zm7.831-4.754a1.243,1.243,0,0,1,.309-0.234h0.342a0.313,0.313,0,0,0-.342,0H12.472a0.5,0.5,0,0,1-.5-0.5V5.5a0.5,0.5,0,0,1,.5-0.5H16.5a0.5,0.5,0,0,1,.5.5V9.528a0.5,0.5,0,0,1-.5.5H15.491a0.5,0.5,0,0,1-.5-0.5V8.36a0.313,0.313,0,0,0,0-.342V8.36a1.246,1.246,0,0,1-.234.309L12.619,10.8a0.5,0.5,0,0,1-.711,0L11.2,10.092a0.5,0.5,0,0,1,0-.711Z"/>
</svg>
