<svg xmlns="http://www.w3.org/2000/svg" width="16" height="16" viewBox="0 0 16 16">
  <metadata><?xpacket begin="﻿" id="W5M0MpCehiHzreSzNTczkc9d"?>
<x:xmpmeta xmlns:x="adobe:ns:meta/" x:xmptk="Adobe XMP Core 5.6-c138 79.159824, 2016/09/14-01:09:01        ">
   <rdf:RDF xmlns:rdf="http://www.w3.org/1999/02/22-rdf-syntax-ns#">
      <rdf:Description rdf:about=""/>
   </rdf:RDF>
</x:xmpmeta>
                                                                                                    
                                                                                                    
                                                                                                    
                                                                                                    
                                                                                                    
                                                                                                    
                                                                                                    
                                                                                                    
                                                                                                    
                                                                                                    
                                                                                                    
                                                                                                    
                                                                                                    
                                                                                                    
                                                                                                    
                                                                                                    
                                                                                                    
                                                                                                    
                                                                                                    
                                                                                                    
                           
<?xpacket end="w"?></metadata>
<defs>
    <style>
      .cls-1 {
        fill: #cdd3dc;
        fill-rule: evenodd;
      }
    </style>
  </defs>
  <path id="圆角矩形_76_拷贝_15" data-name="圆角矩形 76 拷贝 15" class="cls-1" d="M14.5,11H4.324l1.493,1.493a0.468,0.468,0,0,1,0,.662l-0.662.662a0.468,0.468,0,0,1-.662,0l-3.31-3.31A0.45,0.45,0,0,1,1.06,10.14,0.524,0.524,0,0,1,1,10V9.5A0.5,0.5,0,0,1,1.5,9h13a0.5,0.5,0,0,1,.5.5v1A0.5,0.5,0,0,1,14.5,11Zm0-4H1.5A0.5,0.5,0,0,1,1,6.5v-1A0.5,0.5,0,0,1,1.5,5H11.676L10.183,3.507a0.468,0.468,0,0,1,0-.662l0.662-.662a0.468,0.468,0,0,1,.662,0l3.31,3.31a0.45,0.45,0,0,1,.122.366A0.522,0.522,0,0,1,15,6V6.5A0.5,0.5,0,0,1,14.5,7Z"/>
</svg>
