<?xml version="1.0" encoding="utf-8"?>
<!-- Generated by IcoMoon.io -->
<!DOCTYPE svg PUBLIC "-//W3C//DTD SVG 1.1//EN" "http://www.w3.org/Graphics/SVG/1.1/DTD/svg11.dtd">
<svg version="1.1" xmlns="http://www.w3.org/2000/svg" xmlns:xlink="http://www.w3.org/1999/xlink" width="32" height="32" viewBox="0 0 32 32">
<path fill="#b3bdc6" d="M25 12v10h4v4c0 1.104-0.896 2-2 2h-6c-1.104 0-2-0.896-2-2v-18c0-1.104 0.896-2 2-2h6c1.104 0 2 0.896 2 2v4h-4zM15 32l-10-4c-1.104 0-2-0.896-2-2v-20c0-1.104 0.896-2 2-2l10-4c1.104 0 2 0.896 2 2v28c0 1.104-0.896 2-2 2z"></path>
</svg>
