<svg xmlns="http://www.w3.org/2000/svg" width="24" height="24" viewBox="0 0 24 24">
  <metadata><?xpacket begin="﻿" id="W5M0MpCehiHzreSzNTczkc9d"?>
<x:xmpmeta xmlns:x="adobe:ns:meta/" x:xmptk="Adobe XMP Core 5.6-c138 79.159824, 2016/09/14-01:09:01        ">
   <rdf:RDF xmlns:rdf="http://www.w3.org/1999/02/22-rdf-syntax-ns#">
      <rdf:Description rdf:about=""/>
   </rdf:RDF>
</x:xmpmeta>
                                                                                                    
                                                                                                    
                                                                                                    
                                                                                                    
                                                                                                    
                                                                                                    
                                                                                                    
                                                                                                    
                                                                                                    
                                                                                                    
                                                                                                    
                                                                                                    
                                                                                                    
                                                                                                    
                                                                                                    
                                                                                                    
                                                                                                    
                                                                                                    
                                                                                                    
                                                                                                    
                           
<?xpacket end="w"?></metadata>
<defs>
    <style>
      .cls-1 {
        fill: #9ba4ad;
        fill-rule: evenodd;
      }
    </style>
  </defs>
  <path id="圆角矩形_86_拷贝_2" data-name="圆角矩形 86 拷贝 2" class="cls-1" d="M18.01,5.282L18.718,5.99a2.5,2.5,0,0,0,3.535,0L24,4.238A4.976,4.976,0,0,1,17.248,9.58L9.58,17.248A4.976,4.976,0,0,1,4.238,24L5.99,22.253a2.5,2.5,0,0,0,0-3.536L5.282,18.01a2.5,2.5,0,0,0-3.536,0L0,19.762A4.976,4.976,0,0,1,6.752,14.42L14.42,6.752A4.976,4.976,0,0,1,19.762,0L18.01,1.747A2.5,2.5,0,0,0,18.01,5.282ZM9.879,8.464L8.464,9.879,4.929,6.343,4.222,7.05,0.686,3.515,3.515,0.686,7.05,4.222l-0.707.707Zm4.243,7.071,1.414-1.414,0.707,0.707,2.121-2.121,1.414,1.414-0.707.707,3.182,3.182a2.5,2.5,0,0,1,0,3.536l-0.707.707a2.5,2.5,0,0,1-3.535,0l-3.182-3.182-0.707.707-1.414-1.414,2.121-2.121Z"/>
</svg>
