<?xml version="1.0" encoding="utf-8"?>
<!-- Generated by IcoMoon.io -->
<!DOCTYPE svg PUBLIC "-//W3C//DTD SVG 1.1//EN" "http://www.w3.org/Graphics/SVG/1.1/DTD/svg11.dtd">
<svg version="1.1" xmlns="http://www.w3.org/2000/svg" xmlns:xlink="http://www.w3.org/1999/xlink" width="32" height="32" viewBox="0 0 32 32">
<path fill="#b3bdc6" d="M29.867 30.933h-27.733c-1.178 0-2.133-0.956-2.133-2.133 0-0.032 0.017-0.058 0.017-0.087 0.032-3.872 1.961-5.259 6.14-7.025 2.752-1.161 13.126-2.609 19.733 0.053 4.126 1.662 6.063 3.123 6.093 6.976 0.002 0.030 0.017 0.053 0.017 0.083 0 1.178-0.956 2.133-2.133 2.133zM16 16c-4.124 0-7.467-3.343-7.467-7.467s3.343-7.467 7.467-7.467c4.124 0 7.467 3.343 7.467 7.467s-3.343 7.467-7.467 7.467z"></path>
</svg>
