<?xml version="1.0" encoding="utf-8"?>
<!-- Generated by IcoMoon.io -->
<!DOCTYPE svg PUBLIC "-//W3C//DTD SVG 1.1//EN" "http://www.w3.org/Graphics/SVG/1.1/DTD/svg11.dtd">
<svg version="1.1" xmlns="http://www.w3.org/2000/svg" xmlns:xlink="http://www.w3.org/1999/xlink" width="35" height="32" viewBox="0 0 35 32">
<path d="M14.923 30.613h-9.133c-1.51 0-2.74-1.23-2.74-2.74v-9.133c0-1.51 1.23-2.74 2.74-2.74h9.133c1.51 0 2.74 1.23 2.74 2.74v9.133c0 1.51-1.23 2.74-2.74 2.74zM5.79 17.826c-0.504 0-0.913 0.409-0.913 0.913v9.133c0 0.504 0.409 0.913 0.913 0.913h9.133c0.504 0 0.913-0.409 0.913-0.913v-9.133c0-0.504-0.409-0.913-0.913-0.913h-9.133z"></path>
<path d="M29.537 30.613h-9.133v-1.827h9.133c0.913 0 0.913-0.157 0.913-0.913v-23.747c0-0.913-0.070-0.913-0.913-0.913h-23.747c-0.913 0-0.913 0.157-0.913 0.913v9.133h-1.827v-9.133c0-0.678 0-2.74 2.74-2.74h23.747c0.82 0 2.74 0 2.74 2.74v23.747c0 0.678 0 2.74-2.74 2.74z"></path>
</svg>
