<svg xmlns="http://www.w3.org/2000/svg" width="24" height="24" viewBox="0 0 24 24">
  <metadata><?xpacket begin="﻿" id="W5M0MpCehiHzreSzNTczkc9d"?>
<x:xmpmeta xmlns:x="adobe:ns:meta/" x:xmptk="Adobe XMP Core 5.6-c138 79.159824, 2016/09/14-01:09:01        ">
   <rdf:RDF xmlns:rdf="http://www.w3.org/1999/02/22-rdf-syntax-ns#">
      <rdf:Description rdf:about=""/>
   </rdf:RDF>
</x:xmpmeta>





















<?xpacket end="w"?></metadata>
<defs>
    <style>
      .cls-1 {
        fill: #3797ee;
        fill-rule: evenodd;
      }
    </style>
  </defs>
  <path id="矩形_111_拷贝" data-name="矩形 111 拷贝" class="cls-1" d="M22.54,16.657l0.033,0.064a0.5,0.5,0,0,1-.218.672L13.315,22h-2.63l-9.04-4.606a0.5,0.5,0,0,1-.27-0.469A1.538,1.538,0,0,1,1,16V11a7.143,7.143,0,0,1,0-1H1C0.875,9.754,2.072,9.369,2.318,9.244L6.269,7.231,6.013,7.1,6,6V5c0.125-.246-0.027-0.094,0,0H6a1.93,1.93,0,0,1,.906-1.1L10.627,2h2.632l3.868,1.971A4.992,4.992,0,0,1,18,5h0c0,0.156-.026.019,0,0V6l0,1.035L17.673,7.2l4.008,2.042C21.928,9.369,23.026,10.051,23,10h0c0.012,0.033,0,.724,0,1v5A1.369,1.369,0,0,1,22.54,16.657ZM11.943,3.574l-4.128,2.1a0.479,0.479,0,0,1-.122.034l4.25,2.166,4.222-2.151Zm4.376,5.182A0.5,0.5,0,0,1,16.1,8.083l0.055-.108-3.341,1.7L12,10h0l-0.781-.247-3.334-1.7L7.9,8.083a0.5,0.5,0,0,1-.218.673l-1.923.98L12,12.916l6.241-3.18ZM21,11.075a0.489,0.489,0,0,1-.226-0.049l-0.33-.168-8,4.076a0.491,0.491,0,0,1-.444,0,0.491,0.491,0,0,1-.444,0l-8-4.076-0.33.168A0.488,0.488,0,0,1,3,11.075V15.84l9,4.586,9-4.586V11.075Z"/>
</svg>
