<?xml version="1.0" encoding="utf-8"?>
<!-- Generated by IcoMoon.io -->
<!DOCTYPE svg PUBLIC "-//W3C//DTD SVG 1.1//EN" "http://www.w3.org/Graphics/SVG/1.1/DTD/svg11.dtd">
<svg version="1.1" xmlns="http://www.w3.org/2000/svg" xmlns:xlink="http://www.w3.org/1999/xlink" width="34" height="32" viewBox="0 0 34 32">
<path fill="#b3bdc6" d="M30.769 23.897h-27.077c-1.246 0-2.256-1.011-2.256-2.256v-18.051c0-1.248 1.011-2.256 2.256-2.256h27.077c0.623 0 1.155 0.219 1.595 0.661 0.44 0.44 0.661 0.973 0.661 1.595v18.051c0 1.246-1.011 2.256-2.256 2.256zM10.462 10.359h-4.513v4.513h4.513v-4.513zM19.487 10.359h-4.513v4.513h4.513v-4.513zM28.513 10.359h-4.513v4.513h4.513v-4.513zM5.949 30.667v-6.769h9.026l-9.026 6.769z"></path>
</svg>
