<?xml version="1.0" encoding="utf-8"?>
<!-- Generated by IcoMoon.io -->
<!DOCTYPE svg PUBLIC "-//W3C//DTD SVG 1.1//EN" "http://www.w3.org/Graphics/SVG/1.1/DTD/svg11.dtd">
<svg version="1.1" xmlns="http://www.w3.org/2000/svg" xmlns:xlink="http://www.w3.org/1999/xlink" width="24" height="32" viewBox="0 0 24 32">
<path fill="#6e7adb" d="M22 32h-20c-1.104 0-2-0.896-2-2v-28c0-1.104 0.896-2 2-2h20c1.104 0 2 0.896 2 2v28c0 1.104-0.896 2-2 2zM10 30h4v-4h-4v4zM18 4h-14c0.068-0.146 0 0.894 0 2v16c0 1.104-0.006 2.074 0 2h16c-0.068-0.074 0-0.896 0-2v-16c0-2.35 0.278-2-2-2z"></path>
</svg>
