<?xml version="1.0" encoding="utf-8"?>
<!-- Generated by IcoMoon.io -->
<!DOCTYPE svg PUBLIC "-//W3C//DTD SVG 1.1//EN" "http://www.w3.org/Graphics/SVG/1.1/DTD/svg11.dtd">
<svg version="1.1" xmlns="http://www.w3.org/2000/svg" xmlns:xlink="http://www.w3.org/1999/xlink" width="34" height="32" viewBox="0 0 34 32">
<path fill="#b3bdc6" d="M30.692 23.538h-13.999c-0.892 0-1.615-0.827-1.615-1.846v-11.385c0-1.019 0.724-1.846 1.615-1.846h13.999c0.892 0 1.615 0.827 1.615 1.846v11.385c0 1.019-0.724 1.846-1.615 1.846zM25.846 14.923c0-1.189-0.965-2.154-2.154-2.154h-2.154c-1.189 0-2.154 0.965-2.154 2.154v2.154c0 1.189 0.965 2.154 2.154 2.154h2.154c1.189 0 2.154-0.965 2.154-2.154v-2.154zM12.924 8.462v17.23c0 0 0.965 0 2.154 0h15.076c0 1.189-1.062 4.307-4.307 4.307h-21.537c-1.189 0-2.154-0.965-2.154-2.154v-23.691c0-1.189 0.965-2.154 2.154-2.154h21.537c3.129 0 4.307 3.119 4.307 4.307h-17.23v2.154z"></path>
</svg>
