<?xml version="1.0" encoding="utf-8"?>
<!-- Generated by IcoMoon.io -->
<!DOCTYPE svg PUBLIC "-//W3C//DTD SVG 1.1//EN" "http://www.w3.org/Graphics/SVG/1.1/DTD/svg11.dtd">
<svg version="1.1" xmlns="http://www.w3.org/2000/svg" xmlns:xlink="http://www.w3.org/1999/xlink" width="36" height="32" viewBox="0 0 36 32">
<path fill="#cfd3d7" d="M19.070 28h-2.4c-0.662 0-1.2-0.538-1.2-1.2v-2.4c0-0.662 0.538-1.2 1.2-1.2h2.4c0.662 0 1.2 0.538 1.2 1.2v2.4c0 0.662-0.538 1.2-1.2 1.2zM19.070 18.4h-2.4c-0.662 0-1.2-0.538-1.2-1.2v-2.4c0-0.662 0.538-1.2 1.2-1.2h2.4c0.662 0 1.2 0.537 1.2 1.2v2.4c0 0.662-0.538 1.2-1.2 1.2zM19.070 8.8h-2.4c-0.662 0-1.2-0.537-1.2-1.2v-2.4c0-0.662 0.538-1.2 1.2-1.2h2.4c0.662 0 1.2 0.537 1.2 1.2v2.4c0 0.662-0.538 1.2-1.2 1.2z"></path>
</svg>
