<?xml version="1.0" encoding="utf-8"?>
<!-- Generator: Adobe Illustrator 16.0.0, SVG Export Plug-In . SVG Version: 6.00 Build 0)  -->
<!DOCTYPE svg PUBLIC "-//W3C//DTD SVG 1.1//EN" "http://www.w3.org/Graphics/SVG/1.1/DTD/svg11.dtd">
<svg version="1.1" id="图层_1" xmlns="http://www.w3.org/2000/svg" xmlns:xlink="http://www.w3.org/1999/xlink" x="0px" y="0px"
	 width="24px" height="24px" viewBox="0 0 24 24" enable-background="new 0 0 24 24" xml:space="preserve">
<g>
	<path d="M3.646,2.538C2.85,1.754,2.448,0.792,2.493,0H0.452c0,0.011-0.003,0.021-0.003,0.032C0.429,1.36,1.026,2.818,2.194,3.967
		c0.249,0.245,0.513,0.463,0.785,0.657l1.483-1.459C4.18,2.993,3.902,2.789,3.646,2.538z"/>
	<path fill-rule="evenodd" clip-rule="evenodd" d="M5.099,6.827l1.453-1.429l2.906,2.859L8.005,9.688L5.099,6.827z"/>
	<path fill-rule="evenodd" clip-rule="evenodd" d="M21.443,8.614l-5.812-5.719c-3.41-3.356-8.938-3.356-12.349,0L2.557,3.61
		c-3.409,3.356-3.409,8.798,0,12.155l5.812,5.72c3.41,3.354,8.938,3.354,12.348,0l0.727-0.716
		C24.852,17.413,24.852,11.971,21.443,8.614z M4.009,14.333c-2.607-2.566-2.607-6.727,0-9.294l0.727-0.715
		c2.608-2.566,6.835-2.566,9.442,0l1.091,1.073L5.1,15.407L4.009,14.333z M19.991,19.34l-0.727,0.715
		c-2.607,2.564-6.835,2.564-9.443,0l-3.269-3.217l10.169-10.01l3.27,3.216C22.597,12.611,22.597,16.771,19.991,19.34z"/>
	
		<rect x="4.806" y="16.122" transform="matrix(-0.7125 -0.7017 0.7017 -0.7125 -1.3368 31.6973)" fill-rule="evenodd" clip-rule="evenodd" width="2.039" height="0"/>
	
		<rect x="14.976" y="6.113" transform="matrix(0.7128 0.7013 -0.7013 0.7128 8.8801 -9.4624)" fill-rule="evenodd" clip-rule="evenodd" width="2.038" height="0"/>
</g>
</svg>
