<?xml version="1.0" encoding="utf-8"?>
<!-- Generated by IcoMoon.io -->
<!DOCTYPE svg PUBLIC "-//W3C//DTD SVG 1.1//EN" "http://www.w3.org/Graphics/SVG/1.1/DTD/svg11.dtd">
<svg version="1.1" xmlns="http://www.w3.org/2000/svg" xmlns:xlink="http://www.w3.org/1999/xlink" width="32" height="32" viewBox="0 0 32 32">
<path fill="#67aaf5" d="M29.050 30.5h-26.1c-0.801 0-1.45-0.649-1.45-1.45v-26.1c0-0.801 0.649-1.45 1.45-1.45h26.1c0.801 0 1.45 0.649 1.45 1.45v26.1c0 0.801-0.649 1.45-1.45 1.45zM29.775 3.675c0-0.801-0.649-1.45-1.45-1.45h-24.65c-0.801 0-1.45 0.649-1.45 1.45v24.65c0 0.801 0.649 1.45 1.45 1.45h24.65c0.801 0 1.45-0.649 1.45-1.45v-24.65zM16.725 22.525h-1.45v-5.8h-5.8v-1.45h5.8v-5.8h1.45v5.8h5.8v1.45h-5.8v5.8z"></path>
</svg>
