<?xml version="1.0" encoding="utf-8"?>
<!-- Generated by IcoMoon.io -->
<!DOCTYPE svg PUBLIC "-//W3C//DTD SVG 1.1//EN" "http://www.w3.org/Graphics/SVG/1.1/DTD/svg11.dtd">
<svg version="1.1" xmlns="http://www.w3.org/2000/svg" xmlns:xlink="http://www.w3.org/1999/xlink" width="28" height="32" viewBox="0 0 28 32">
<path fill="#727272" d="M23.246 26h-22.667v-1.333c2.209 0 4-1.791 4-4v-8c0-4.697 3.483-8.547 8-9.199v-1.467c0-0.001 0-0.001 0-0.001 0-0.408 0.193-0.76 0.483-1.004 0.232-0.197 0.523-0.329 0.851-0.329 0.337 0 0.637 0.136 0.873 0.344 0.277 0.244 0.46 0.591 0.46 0.989 0 0 0 0 0 0v1.468c4.517 0.652 8 4.501 8 9.199v8c0 2.209 1.791 4 4 4 0 0 0 0 0 0v1.333h-4zM13.913 31.333c-2.209 0-4-1.791-4-4h8c0 2.209-1.791 4-4 4z"></path>
</svg>
