<svg xmlns="http://www.w3.org/2000/svg" width="20" height="20" viewBox="0 0 20 20">
  <metadata><?xpacket begin="﻿" id="W5M0MpCehiHzreSzNTczkc9d"?>
<x:xmpmeta xmlns:x="adobe:ns:meta/" x:xmptk="Adobe XMP Core 5.6-c138 79.159824, 2016/09/14-01:09:01        ">
   <rdf:RDF xmlns:rdf="http://www.w3.org/1999/02/22-rdf-syntax-ns#">
      <rdf:Description rdf:about=""/>
   </rdf:RDF>
</x:xmpmeta>
                                                                                                    
                                                                                                    
                                                                                                    
                                                                                                    
                                                                                                    
                                                                                                    
                                                                                                    
                                                                                                    
                                                                                                    
                                                                                                    
                                                                                                    
                                                                                                    
                                                                                                    
                                                                                                    
                                                                                                    
                                                                                                    
                                                                                                    
                                                                                                    
                                                                                                    
                                                                                                    
                           
<?xpacket end="w"?></metadata>
<defs>
    <style>
      .cls-1 {
        fill: #8594aa;
        fill-rule: evenodd;
      }
    </style>
  </defs>
  <path id="修改密码.svg" class="cls-1" d="M1771.88,76a5.119,5.119,0,0,0-4.83,6.788l-6.16,6.121a2.265,2.265,0,0,0,3.2,3.205l0.43-.423h1.23a0.518,0.518,0,0,0,.52-0.52V89.965h1.21a0.524,0.524,0,0,0,.52-0.52v-1.21l2.28-2.264a5.046,5.046,0,0,0,1.6.259,5.116,5.116,0,1,0,0-10.231h0Zm1.23,5.525a1.586,1.586,0,1,1,1.59-1.586,1.585,1.585,0,0,1-1.59,1.586h0Zm0,0" transform="translate(-1758.61 -74.391)"/>
</svg>
