<svg xmlns="http://www.w3.org/2000/svg" width="13" height="16" viewBox="0 0 13 16">
  <metadata><?xpacket begin="﻿" id="W5M0MpCehiHzreSzNTczkc9d"?>
<x:xmpmeta xmlns:x="adobe:ns:meta/" x:xmptk="Adobe XMP Core 5.6-c138 79.159824, 2016/09/14-01:09:01        ">
   <rdf:RDF xmlns:rdf="http://www.w3.org/1999/02/22-rdf-syntax-ns#">
      <rdf:Description rdf:about=""/>
   </rdf:RDF>
</x:xmpmeta>
                                                                                                    
                                                                                                    
                                                                                                    
                                                                                                    
                                                                                                    
                                                                                                    
                                                                                                    
                                                                                                    
                                                                                                    
                                                                                                    
                                                                                                    
                                                                                                    
                                                                                                    
                                                                                                    
                                                                                                    
                                                                                                    
                                                                                                    
                                                                                                    
                                                                                                    
                                                                                                    
                           
<?xpacket end="w"?></metadata>
<defs>
    <style>
      .cls-1 {
        fill: #b0bbc4;
        fill-rule: evenodd;
      }
    </style>
  </defs>
  <path id="权限查看.svg" class="cls-1" d="M1145.92,180h-10.84a1.071,1.071,0,0,1-1.08-1.067v-8a1.077,1.077,0,0,1,1.08-1.066h10.84a1.077,1.077,0,0,1,1.08,1.066v8a1.078,1.078,0,0,1-1.08,1.067h0Zm-5.42-7.467a1.607,1.607,0,0,0-1.62,1.6,1.573,1.573,0,0,0,.81,1.378v1.522a0.81,0.81,0,1,0,1.62,0v-1.522a1.582,1.582,0,0,0,.82-1.378,1.615,1.615,0,0,0-1.63-1.6h0Zm0-6.933a3.228,3.228,0,0,0-3.25,3.2h-1.62a4.876,4.876,0,0,1,9.75,0h-1.63a3.228,3.228,0,0,0-3.25-3.2h0Z" transform="translate(-1134 -164)"/>
</svg>
