<?xml version="1.0" encoding="utf-8"?>
<!-- Generated by IcoMoon.io -->
<!DOCTYPE svg PUBLIC "-//W3C//DTD SVG 1.1//EN" "http://www.w3.org/Graphics/SVG/1.1/DTD/svg11.dtd">
<svg version="1.1" xmlns="http://www.w3.org/2000/svg" xmlns:xlink="http://www.w3.org/1999/xlink" width="43" height="32" viewBox="0 0 43 32">
<path fill="#f9b758" d="M0 32v-32h42.667v32h-42.667zM32.562 25.852c-0.273-2.073-1.511-3.36-4.244-3.793-1.097-0.174-3.203-1.136-4.513-2.098-0.141-0.251-0.228-0.532-0.228-0.834 0-0.241 0.065-0.464 0.156-0.674 0.887-0.468 1.557-1.333 2.070-2.298 0.752-0.237 1.9-1.267 1.9-3.207 0-0.434-0.218-0.686-0.555-0.816 0.001-0.009 0.004-0.021 0.006-0.030 0.009-0.036 0.013-0.074 0.019-0.111 0.841-1.129 0.284-3.701-0.609-4.41-0.971-0.77-0.181-1.914-0.181-1.914s-7.565-2.705-9.901 2.082c-2.784 1.097-1.205 4.049-0.964 4.467-0.315 0.146-0.547 0.372-0.547 0.731 0 1.867 1.11 2.882 1.897 3.169 0.506 0.96 1.166 1.826 2.043 2.307 0.1 0.219 0.169 0.451 0.169 0.703 0 0.289-0.082 0.557-0.211 0.801-1.295 0.951-3.396 1.908-4.478 2.096-2.771 0.482-3.999 1.739-4.274 3.802-0.314 0.223-0.531 0.576-0.531 0.996 0 0.682 0.539 0.924 1.203 0.924h21.065c0.665 0 1.203-0.242 1.203-0.924 0-0.403-0.201-0.745-0.493-0.97z"></path>
</svg>
