<?xml version="1.0" encoding="UTF-8" standalone="no"?>
<svg width="32px" height="32px" viewBox="0 0 32 32" version="1.1" xmlns="http://www.w3.org/2000/svg" xmlns:xlink="http://www.w3.org/1999/xlink">
    <!-- Generator: Sketch 39.1 (31720) - http://www.bohemiancoding.com/sketch -->
    <title>phone</title>
    <desc>Created with Sketch.</desc>
    <defs></defs>
    <g id="Page-1" stroke="none" stroke-width="1" fill="none" fill-rule="evenodd">
        <g id="phone" fill="#6E7ADB">
            <path d="M26,32 L6,32 C4.896,32 4,31.104 4,30 L4,2 C4,0.896 4.896,0 6,0 L26,0 C27.104,0 28,0.896 28,2 L28,30 C28,31.104 27.104,32 26,32 L26,32 Z M14,30 L18,30 L18,26 L14,26 L14,30 L14,30 Z M22,4 L8,4 C8.068,3.854 8,4.894 8,6 L8,22 C8,23.104 7.994,24.074 8,24 L24,24 C23.932,23.926 24,23.104 24,22 L24,6 C24,3.65 24.278,4 22,4 L22,4 Z" id="Shape"></path>
        </g>
    </g>
</svg>