<?xml version="1.0" encoding="utf-8"?>
<!-- Generated by IcoMoon.io -->
<!DOCTYPE svg PUBLIC "-//W3C//DTD SVG 1.1//EN" "http://www.w3.org/Graphics/SVG/1.1/DTD/svg11.dtd">
<svg version="1.1" xmlns="http://www.w3.org/2000/svg" xmlns:xlink="http://www.w3.org/1999/xlink" width="32" height="32" viewBox="0 0 32 32">
<path fill="#000" d="M22.9 17.533l-6.325-6.325 2.108-2.108 4.217 4.217 4.217-4.217-4.217-4.217-6.325 6.325-2.108-2.108 8.433-8.433 8.433 8.433-8.433 8.433zM3.733 31.333h-3.067v-12.267h12.267v12.267h-9.2zM9.867 22.133h-6.133v6.133h6.133v-6.133zM3.733 17.533h-3.067v-12.267h12.267v12.267h-9.2zM9.867 8.333h-6.133v6.133h6.133v-6.133zM23.667 19.067h3.067v12.267h-12.267v-12.267h9.2zM17.533 28.267h6.133v-6.133h-6.133v6.133z"></path>
</svg>
