<svg id="头像.svg" xmlns="http://www.w3.org/2000/svg" width="40" height="40" viewBox="0 0 40 40">
  <metadata><?xpacket begin="﻿" id="W5M0MpCehiHzreSzNTczkc9d"?>
<x:xmpmeta xmlns:x="adobe:ns:meta/" x:xmptk="Adobe XMP Core 5.6-c138 79.159824, 2016/09/14-01:09:01        ">
   <rdf:RDF xmlns:rdf="http://www.w3.org/1999/02/22-rdf-syntax-ns#">
      <rdf:Description rdf:about=""/>
   </rdf:RDF>
</x:xmpmeta>
                                                                                                    
                                                                                                    
                                                                                                    
                                                                                                    
                                                                                                    
                                                                                                    
                                                                                                    
                                                                                                    
                                                                                                    
                                                                                                    
                                                                                                    
                                                                                                    
                                                                                                    
                                                                                                    
                                                                                                    
                                                                                                    
                                                                                                    
                                                                                                    
                                                                                                    
                                                                                                    
                           
<?xpacket end="w"?></metadata>
<defs>
    <style>
      .cls-1 {
        fill: #aac9f2;
      }

      .cls-2 {
        fill: #f4f9ff;
        fill-rule: evenodd;
      }
    </style>
  </defs>
  <circle id="椭圆_31" data-name="椭圆 31" class="cls-1" cx="20" cy="20" r="20"/>
  <path id="矩形_831" data-name="矩形 831" class="cls-2" d="M1738.94,52a7.273,7.273,0,0,1-.57-2.357,1.593,1.593,0,0,1,.09-0.491c0.31-3.036,1.82-4.908,5.34-5.609a16.16,16.16,0,0,0,5.61-3,2.734,2.734,0,0,0,.26-1.147,2.8,2.8,0,0,0-.21-1.007,7.558,7.558,0,0,1-2.56-3.3c-0.98-.41-2.37-1.865-2.37-4.539a1.163,1.163,0,0,1,.67-1.066c-0.33-.657-2.23-4.822,1.22-6.38,2.93-6.856,12.4-2.981,12.4-2.981s-0.99,1.638.22,2.742c1.12,1.013,1.82,4.692.77,6.311-0.01.068-.02,0.139-0.03,0.206a1.155,1.155,0,0,1,.69,1.169c0,2.781-1.44,4.256-2.38,4.6a7.369,7.369,0,0,1-2.59,3.29,2.586,2.586,0,0,0-.2.965,2.66,2.66,0,0,0,.29,1.2,15.738,15.738,0,0,0,5.65,3c3.45,0.626,4.97,2.524,5.29,5.538a1.46,1.46,0,0,1,.1.513,7.545,7.545,0,0,1-.57,2.357h-27.12Z" transform="translate(-1732 -12)"/>
</svg>
