<svg xmlns="http://www.w3.org/2000/svg" xmlns:xlink="http://www.w3.org/1999/xlink" width="16" height="16" viewBox="0 0 16 16">
  <metadata><?xpacket begin="﻿" id="W5M0MpCehiHzreSzNTczkc9d"?>
<x:xmpmeta xmlns:x="adobe:ns:meta/" x:xmptk="Adobe XMP Core 5.6-c138 79.159824, 2016/09/14-01:09:01        ">
   <rdf:RDF xmlns:rdf="http://www.w3.org/1999/02/22-rdf-syntax-ns#">
      <rdf:Description rdf:about=""/>
   </rdf:RDF>
</x:xmpmeta>
                                                                                                    
                                                                                                    
                                                                                                    
                                                                                                    
                                                                                                    
                                                                                                    
                                                                                                    
                                                                                                    
                                                                                                    
                                                                                                    
                                                                                                    
                                                                                                    
                                                                                                    
                                                                                                    
                                                                                                    
                                                                                                    
                                                                                                    
                                                                                                    
                                                                                                    
                                                                                                    
                           
<?xpacket end="w"?></metadata>
<defs>
    <style>
      .cls-1 {
        fill: #9fb4cc;
        fill-rule: evenodd;
        filter: url(#filter);
      }
    </style>
    <filter id="filter" x="1" y="0" width="14" height="16" filterUnits="userSpaceOnUse">
      <feFlood result="flood" flood-color="#ccc"/>
      <feComposite result="composite" operator="in" in2="SourceGraphic"/>
      <feBlend result="blend" in2="SourceGraphic"/>
    </filter>
  </defs>
  <path id="形状_423" data-name="形状 423" class="cls-1" d="M14,16H2a1,1,0,0,1,0-2H14A1,1,0,0,1,14,16ZM5.6,10.651a0.285,0.285,0,0,1-.2.09h0a0.287,0.287,0,0,1-.207-0.092L3.259,8.6a0.323,0.323,0,0,1,0-.438L10.906,0.09A0.353,0.353,0,0,1,11.114,0a0.286,0.286,0,0,1,.207.091L13.25,2.145a0.323,0.323,0,0,1,0,.438ZM4.377,11.808a0.3,0.3,0,0,1-.217.216l-2.51.6a0.289,0.289,0,0,1-.064.007,0.284,0.284,0,0,1-.207-0.091A0.32,0.32,0,0,1,1.3,12.25L1.857,9.6a0.3,0.3,0,0,1,.2-0.23,0.283,0.283,0,0,1,.289.077L4.3,11.5A0.322,0.322,0,0,1,4.377,11.808Z"/>
</svg>
