<svg xmlns="http://www.w3.org/2000/svg" xmlns:xlink="http://www.w3.org/1999/xlink" width="16" height="16" viewBox="0 0 16 16">
  <metadata><?xpacket begin="﻿" id="W5M0MpCehiHzreSzNTczkc9d"?>
<x:xmpmeta xmlns:x="adobe:ns:meta/" x:xmptk="Adobe XMP Core 5.6-c138 79.159824, 2016/09/14-01:09:01        ">
   <rdf:RDF xmlns:rdf="http://www.w3.org/1999/02/22-rdf-syntax-ns#">
      <rdf:Description rdf:about=""/>
   </rdf:RDF>
</x:xmpmeta>
                                                                                                    
                                                                                                    
                                                                                                    
                                                                                                    
                                                                                                    
                                                                                                    
                                                                                                    
                                                                                                    
                                                                                                    
                                                                                                    
                                                                                                    
                                                                                                    
                                                                                                    
                                                                                                    
                                                                                                    
                                                                                                    
                                                                                                    
                                                                                                    
                                                                                                    
                                                                                                    
                           
<?xpacket end="w"?></metadata>
<defs>
    <style>
      .cls-1 {
        fill: #9fb4cc;
        fill-rule: evenodd;
        filter: url(#filter);
      }
    </style>
    <filter id="filter" x="0" y="0" width="16" height="16" filterUnits="userSpaceOnUse">
      <feFlood result="flood" flood-color="#ccc"/>
      <feComposite result="composite" operator="in" in2="SourceGraphic"/>
      <feBlend result="blend" in2="SourceGraphic"/>
    </filter>
  </defs>
  <path id="矩形_73_拷贝_2" data-name="矩形 73 拷贝 2" class="cls-1" d="M15,5v9a2,2,0,0,1-2,2H3a2,2,0,0,1-2-2V5A0.947,0.947,0,0,1,0,4,1.065,1.065,0,0,1,1,3H4V1A0.85,0.85,0,0,1,5,0h6a0.872,0.872,0,0,1,1,1V3h3a0.928,0.928,0,0,1,1,1A0.9,0.9,0,0,1,15,5ZM7,14H9V5H7v9ZM5,5H3v9H5V5Zm5-3H6V3h4V2Zm3,3H11v9h2V5Z"/>
</svg>
