<svg xmlns="http://www.w3.org/2000/svg" width="60" height="60" viewBox="0 0 60 60">
  <metadata><?xpacket begin="﻿" id="W5M0MpCehiHzreSzNTczkc9d"?>
<x:xmpmeta xmlns:x="adobe:ns:meta/" x:xmptk="Adobe XMP Core 5.6-c138 79.159824, 2016/09/14-01:09:01        ">
   <rdf:RDF xmlns:rdf="http://www.w3.org/1999/02/22-rdf-syntax-ns#">
      <rdf:Description rdf:about=""/>
   </rdf:RDF>
</x:xmpmeta>
                                                                                                    
                                                                                                    
                                                                                                    
                                                                                                    
                                                                                                    
                                                                                                    
                                                                                                    
                                                                                                    
                                                                                                    
                                                                                                    
                                                                                                    
                                                                                                    
                                                                                                    
                                                                                                    
                                                                                                    
                                                                                                    
                                                                                                    
                                                                                                    
                                                                                                    
                                                                                                    
                           
<?xpacket end="w"?></metadata>
<defs>
    <style>
      .cls-1 {
        fill: #2c91ed;
        fill-rule: evenodd;
      }
    </style>
  </defs>
  <path id="圆角矩形_94_拷贝_4" data-name="圆角矩形 94 拷贝 4" class="cls-1" d="M60,47.5v0c0.019-2.04-.017.53,0,0.5h0c0,2.761-5.372,5-12,5s-12-2.239-12-5h0V33c0-2.761,5.373-5,12-5s12,2.238,12,5C60,36.4,60,47.5,60,47.5ZM48,30c-5.523,0-10,1.343-10,3s4.477,3,10,3,10-1.343,10-3S53.523,30,48,30Zm10,5.762C55.851,37.11,52.176,38,48,38s-7.851-.89-10-2.238V36.5h0V38c0,1.657,4.477,3,10,3s10-1.343,10-3V35.762Zm0,5C55.851,42.11,52.176,43,48,43s-7.851-.89-10-2.239V43c0,1.657,4.477,3,10,3s10-1.343,10-3V40.761Zm0,5C55.851,47.11,52.176,48,48,48s-7.851-.89-10-2.238V48c0,1.656,4.478,3,10,3s10-1.343,10-3h0V47.5h0V45.761ZM33,9A18,18,0,0,0,15,27c0,0.158.02,0.311,0.024,0.468A10,10,0,1,0,12,47c0.34,0,.669.033,1,0H31v2H14c-0.809.016-1.316,0-2,0a12,12,0,0,1,0-24c0.371,0,.736.022,1.1,0.056A20,20,0,0,1,52.6,23h-2.06A18,18,0,0,0,33,9Z"/>
</svg>
