<svg xmlns="http://www.w3.org/2000/svg" width="60" height="60" viewBox="0 0 60 60">
  <metadata><?xpacket begin="﻿" id="W5M0MpCehiHzreSzNTczkc9d"?>
<x:xmpmeta xmlns:x="adobe:ns:meta/" x:xmptk="Adobe XMP Core 5.6-c138 79.159824, 2016/09/14-01:09:01        ">
   <rdf:RDF xmlns:rdf="http://www.w3.org/1999/02/22-rdf-syntax-ns#">
      <rdf:Description rdf:about=""/>
   </rdf:RDF>
</x:xmpmeta>
                                                                                                    
                                                                                                    
                                                                                                    
                                                                                                    
                                                                                                    
                                                                                                    
                                                                                                    
                                                                                                    
                                                                                                    
                                                                                                    
                                                                                                    
                                                                                                    
                                                                                                    
                                                                                                    
                                                                                                    
                                                                                                    
                                                                                                    
                                                                                                    
                                                                                                    
                                                                                                    
                           
<?xpacket end="w"?></metadata>
<defs>
    <style>
      .cls-1 {
        fill: #5399fc;
        fill-rule: evenodd;
      }
    </style>
  </defs>
  <path id="矩形_159_拷贝" data-name="矩形 159 拷贝" class="cls-1" d="M51,43H46v4a2,2,0,0,1-2,2H39v4a2,2,0,0,1-2,2H9a2,2,0,0,1-2-2V19a2,2,0,0,1,2-2h5V13a2,2,0,0,1,2-2h5V7a2,2,0,0,1,2-2H43.452L53,15.239V41A2,2,0,0,1,51,43ZM14,47V19H9V53H37V49H16A2,2,0,0,1,14,47Zm7-6V13H16V47H44V43H23A2,2,0,0,1,21,41ZM43,7.448V16h7.975ZM51,18H43a2,2,0,0,1-2-2V7H23V41H51V18Zm-7,9H30V25H44v2Zm0,7H30V32H44v2Z"/>
</svg>
