<svg xmlns="http://www.w3.org/2000/svg" width="60" height="60" viewBox="0 0 60 60">
  <metadata><?xpacket begin="﻿" id="W5M0MpCehiHzreSzNTczkc9d"?>
<x:xmpmeta xmlns:x="adobe:ns:meta/" x:xmptk="Adobe XMP Core 5.6-c138 79.159824, 2016/09/14-01:09:01        ">
   <rdf:RDF xmlns:rdf="http://www.w3.org/1999/02/22-rdf-syntax-ns#">
      <rdf:Description rdf:about=""/>
   </rdf:RDF>
</x:xmpmeta>
                                                                                                    
                                                                                                    
                                                                                                    
                                                                                                    
                                                                                                    
                                                                                                    
                                                                                                    
                                                                                                    
                                                                                                    
                                                                                                    
                                                                                                    
                                                                                                    
                                                                                                    
                                                                                                    
                                                                                                    
                                                                                                    
                                                                                                    
                                                                                                    
                                                                                                    
                                                                                                    
                           
<?xpacket end="w"?></metadata>
<defs>
    <style>
      .cls-1 {
        fill: #5399fc;
        fill-rule: evenodd;
      }
    </style>
  </defs>
  <path id="矩形_157" data-name="矩形 157" class="cls-1" d="M53,27V53a2,2,0,0,1-2,2H11a2,2,0,0,1-2-2V27a2.006,2.006,0,0,1,.047-0.423L7.276,21.435a2,2,0,0,1,1.24-2.542L48.228,5.219a2,2,0,0,1,2.542,1.24l1.953,5.673a2,2,0,0,1-1.24,2.542L21.5,25H51A2,2,0,0,1,53,27ZM11,53H51V35H11V53ZM50.832,12.783L48.879,7.11,9.167,20.784l1.464,4.253A2.006,2.006,0,0,1,11,25h4.353ZM15.687,27H11v1.453h0V33h6.586l6-6h-7.9Zm10.727,0-6,6H35.586l6-6H26.414Zm12,6H51V27H44.414Z"/>
</svg>
