<svg xmlns="http://www.w3.org/2000/svg" width="60" height="60" viewBox="0 0 60 60">
  <metadata><?xpacket begin="﻿" id="W5M0MpCehiHzreSzNTczkc9d"?>
<x:xmpmeta xmlns:x="adobe:ns:meta/" x:xmptk="Adobe XMP Core 5.6-c138 79.159824, 2016/09/14-01:09:01        ">
   <rdf:RDF xmlns:rdf="http://www.w3.org/1999/02/22-rdf-syntax-ns#">
      <rdf:Description rdf:about=""/>
   </rdf:RDF>
</x:xmpmeta>
                                                                                                    
                                                                                                    
                                                                                                    
                                                                                                    
                                                                                                    
                                                                                                    
                                                                                                    
                                                                                                    
                                                                                                    
                                                                                                    
                                                                                                    
                                                                                                    
                                                                                                    
                                                                                                    
                                                                                                    
                                                                                                    
                                                                                                    
                                                                                                    
                                                                                                    
                                                                                                    
                           
<?xpacket end="w"?></metadata>
<defs>
    <style>
      .cls-1 {
        fill: #2c91ed;
        fill-rule: evenodd;
      }
    </style>
  </defs>
  <path id="矩形_148" data-name="矩形 148" class="cls-1" d="M46,42H40V40h6a9,9,0,1,0-3.264-17.38,13,13,0,1,0-25.472,0A9,9,0,1,0,14,40h6v2H14a11,11,0,0,1,0-22c0.339,0,.672.021,1,0.051,0-.017,0-0.034,0-0.051a15,15,0,0,1,30,0c0,0.017,0,.034,0,0.051,0.331-.03.664-0.051,1-0.051A11,11,0,1,1,46,42ZM23.1,31H23c0-.02,0-0.039,0-0.059C23.029,30.962,23.064,30.98,23.1,31ZM37,30.941c0,0.02,0,.039,0,0.059H36.9C36.936,30.98,36.971,30.962,37,30.941ZM29,51.523V25h2V51.586l6.536-6.536,1.414,1.414L30.464,54.95l-0.316-.316-0.132.32-0.707-.293-8.485-8.485,1.414-1.414Z"/>
</svg>
