<?xml version="1.0" encoding="utf-8"?>
<!-- Generated by IcoMoon.io -->
<!DOCTYPE svg PUBLIC "-//W3C//DTD SVG 1.1//EN" "http://www.w3.org/Graphics/SVG/1.1/DTD/svg11.dtd">
<svg version="1.1" xmlns="http://www.w3.org/2000/svg" xmlns:xlink="http://www.w3.org/1999/xlink" width="36" height="32" viewBox="0 0 36 32">
<path fill="#727272" d="M20.21 28.797c-2.313 1.606-5.148 2.556-8.216 2.556-0.634 0-1.253-0.055-1.865-0.133 0.755-0.908 1.378-1.927 1.867-3.019-5.311-1.85-8.854-6.502-8.854-12.517 0-7.85 6.021-15.031 14.148-15.031 8.128 0 14.716 6.363 14.716 14.213 0 6.884-5.069 12.624-11.797 13.931zM16.13 23.622c0 0.398 0.322 0.722 0.72 0.722h1.443c0.4 0 0.722-0.323 0.722-0.722v-1.443c0-0.398-0.322-0.722-0.722-0.722h-1.443c-0.398 0-0.72 0.323-0.72 0.722v1.443zM17.572 7.025c-3.188 0-5.771 2.097-5.771 4.683 0 0.381 0.071 0.748 0.178 1.103 0.010 0.063 0.027 0.126 0.053 0.185 0.013 0.038 0.017 0.076 0.032 0.111l0.020-0.004c0.193 0.328 0.602 0.556 1.081 0.556 0.664 0 1.201-0.436 1.201-0.974 0-0.082-0.016-0.162-0.039-0.237l0.014-0.004c-0.082-0.235-0.139-0.479-0.139-0.736 0-1.507 1.505-2.393 3.363-2.393s3.363 0.886 3.363 2.393c0 0.88-0.521 1.654-1.318 2.153l0.020 0.023c-1.755 1.175-2.865 2.846-3.252 4.747-0.043 0.101-0.019 0.273-0.019 0.388 0 0.55 0.419 0.996 1.069 0.996 0.603 0 1.094-0.385 1.163-0.879l0.023 0.003c0.253-1.484 1.162-2.806 2.482-3.709-0.001-0.007-0.004-0.014-0.004-0.022 1.365-0.856 2.251-2.191 2.251-3.699 0-2.586-2.585-4.683-5.773-4.683z"></path>
</svg>
