<?xml version="1.0" encoding="utf-8"?>
<!-- Generated by IcoMoon.io -->
<!DOCTYPE svg PUBLIC "-//W3C//DTD SVG 1.1//EN" "http://www.w3.org/Graphics/SVG/1.1/DTD/svg11.dtd">
<svg version="1.1" xmlns="http://www.w3.org/2000/svg" xmlns:xlink="http://www.w3.org/1999/xlink" width="33" height="32" viewBox="0 0 33 32">
<path fill="#666" d="M16.26 25.496c-8.391 0-15.194-4.252-15.194-9.496s6.803-9.496 15.194-9.496c8.391 0 15.194 4.252 15.194 9.496s-6.803 9.496-15.194 9.496zM16.26 10.302c-6.294 0-11.395 2.551-11.395 5.698s5.101 5.698 11.395 5.698c6.294 0 11.395-2.551 11.395-5.698s-5.101-5.698-11.395-5.698zM16.277 19.781c-2.099 0-3.799-1.7-3.799-3.799s1.7-3.799 3.799-3.799c2.097 0 3.799 1.7 3.799 3.799s-1.702 3.799-3.799 3.799z"></path>
</svg>
