<svg xmlns="http://www.w3.org/2000/svg" width="22" height="22" viewBox="0 0 22 22">
  <metadata><?xpacket begin="﻿" id="W5M0MpCehiHzreSzNTczkc9d"?>
<x:xmpmeta xmlns:x="adobe:ns:meta/" x:xmptk="Adobe XMP Core 5.6-c138 79.159824, 2016/09/14-01:09:01        ">
   <rdf:RDF xmlns:rdf="http://www.w3.org/1999/02/22-rdf-syntax-ns#">
      <rdf:Description rdf:about=""/>
   </rdf:RDF>
</x:xmpmeta>
                                                                                                    
                                                                                                    
                                                                                                    
                                                                                                    
                                                                                                    
                                                                                                    
                                                                                                    
                                                                                                    
                                                                                                    
                                                                                                    
                                                                                                    
                                                                                                    
                                                                                                    
                                                                                                    
                                                                                                    
                                                                                                    
                                                                                                    
                                                                                                    
                                                                                                    
                                                                                                    
                           
<?xpacket end="w"?></metadata>
<defs>
    <style>
      .cls-1 {
        fill: #67aaf5;
        fill-rule: evenodd;
      }
    </style>
  </defs>
  <path id="椭圆_19.svg" data-name="椭圆 19.svg" class="cls-1" d="M498,865c-4.418,0-8-1.343-8-3,0-.9,1.065-1.708,2.742-2.258l1.486,1.486c-1.349.183-2.228,0.459-2.228,0.772,0,0.552,2.686,1,6,1s6-.448,6-1c0-.313-0.879-0.589-2.228-0.772l1.485-1.486C504.935,860.292,506,861.1,506,862,506,863.657,502.418,865,498,865Zm3.779-7.123L498,861.657l-3.78-3.78A7,7,0,1,1,501.779,857.877ZM498,847a4.986,4.986,0,0,0-2.548,9.28L498,858.828l2.548-2.548A4.986,4.986,0,0,0,498,847Zm0,7a2,2,0,1,1,2-2A2,2,0,0,1,498,854Z" transform="translate(-487 -844)"/>
</svg>
