<svg id="资源池双.svg" xmlns="http://www.w3.org/2000/svg" width="36" height="19" viewBox="0 0 36 19">
  <metadata><?xpacket begin="﻿" id="W5M0MpCehiHzreSzNTczkc9d"?>
<x:xmpmeta xmlns:x="adobe:ns:meta/" x:xmptk="Adobe XMP Core 5.6-c138 79.159824, 2016/09/14-01:09:01        ">
   <rdf:RDF xmlns:rdf="http://www.w3.org/1999/02/22-rdf-syntax-ns#">
      <rdf:Description rdf:about=""/>
   </rdf:RDF>
</x:xmpmeta>
                                                                                                    
                                                                                                    
                                                                                                    
                                                                                                    
                                                                                                    
                                                                                                    
                                                                                                    
                                                                                                    
                                                                                                    
                                                                                                    
                                                                                                    
                                                                                                    
                                                                                                    
                                                                                                    
                                                                                                    
                                                                                                    
                                                                                                    
                                                                                                    
                                                                                                    
                                                                                                    
                           
<?xpacket end="w"?></metadata>
<defs>
    <style>
      .cls-1 {
        fill: #fff;
      }

      .cls-1, .cls-2 {
        fill-rule: evenodd;
      }

      .cls-2 {
        fill: #387ee8;
      }
    </style>
  </defs>
  <path id="圆角矩形_5_拷贝" data-name="圆角矩形 5 拷贝" class="cls-1" d="M130.778,135H130.7l-1.583,8.009a0.489,0.489,0,0,1-.259.338A3.114,3.114,0,0,1,126,145H115a3.026,3.026,0,0,1-2.759-1.443,0.5,0.5,0,0,1-.4-0.392L110.228,135h-0.006L110,134c0-4.418,4.7-8,10.5-8s10.5,3.582,10.5,8Zm-2.3-2.34c-1.173-2.709-4.283-4.66-7.975-4.66s-6.793,1.948-7.969,4.652a1.981,1.981,0,0,0-.505,1.216,0.516,0.516,0,0,1,.033.08l1.745,8.829a1.359,1.359,0,0,1,.2.223h13a0.7,0.7,0,0,1,.158-0.378l1.745-8.83a0.508,0.508,0,0,1,.039-0.093A1.989,1.989,0,0,0,128.475,132.66Z" transform="translate(-102.5 -126)"/>
  <path id="形状_49" data-name="形状 49" class="cls-2" d="M124.818,138.4l0.277-.305,1.334,1.333-0.338.372a3.17,3.17,0,0,1-2.546,1.2A3.911,3.911,0,0,1,121,139.8l-1.273-1.4a2.423,2.423,0,0,0-1.091-.4,1.261,1.261,0,0,0-1.091.4l-1.272,1.4L115,138.4l1.273-1.4A3.293,3.293,0,0,1,121,137l1.273,1.4a1.583,1.583,0,0,0,1.272.6A2.594,2.594,0,0,0,124.818,138.4Z" transform="translate(-102.5 -126)"/>
  <path id="形状_49_拷贝" data-name="形状 49 拷贝" class="cls-2" d="M124.818,133.4l0.277-.305,1.334,1.334-0.338.371a3.17,3.17,0,0,1-2.546,1.2A3.911,3.911,0,0,1,121,134.8l-1.273-1.4a2.423,2.423,0,0,0-1.091-.4,1.261,1.261,0,0,0-1.091.4l-1.272,1.4L115,133.4l1.273-1.4A3.293,3.293,0,0,1,121,132l1.273,1.4a1.583,1.583,0,0,0,1.272.6A2.594,2.594,0,0,0,124.818,133.4Z" transform="translate(-102.5 -126)"/>
</svg>
