<svg id="资源池单.svg" xmlns="http://www.w3.org/2000/svg" width="36" height="36" viewBox="0 0 36 36">
  <metadata><?xpacket begin="﻿" id="W5M0MpCehiHzreSzNTczkc9d"?>
<x:xmpmeta xmlns:x="adobe:ns:meta/" x:xmptk="Adobe XMP Core 5.6-c138 79.159824, 2016/09/14-01:09:01        ">
   <rdf:RDF xmlns:rdf="http://www.w3.org/1999/02/22-rdf-syntax-ns#">
      <rdf:Description rdf:about=""/>
   </rdf:RDF>
</x:xmpmeta>
                                                                                                    
                                                                                                    
                                                                                                    
                                                                                                    
                                                                                                    
                                                                                                    
                                                                                                    
                                                                                                    
                                                                                                    
                                                                                                    
                                                                                                    
                                                                                                    
                                                                                                    
                                                                                                    
                                                                                                    
                                                                                                    
                                                                                                    
                                                                                                    
                                                                                                    
                                                                                                    
                           
<?xpacket end="w"?></metadata>
<defs>
    <style>
      .cls-1 {
        fill: #8594aa;
        fill-rule: evenodd;
      }
    </style>
  </defs>
  <path id="形状_49_拷贝" data-name="形状 49 拷贝" class="cls-1" d="M40.778,135H40.7l-1.583,8.009a0.49,0.49,0,0,1-.259.338A3.115,3.115,0,0,1,36,145H25a3.026,3.026,0,0,1-2.759-1.443,0.5,0.5,0,0,1-.4-0.392L20.228,135H20.222L20,134c0-4.418,4.7-8,10.5-8S41,129.582,41,134Zm-2.3-2.34C37.3,129.951,34.192,128,30.5,128s-6.793,1.948-7.969,4.652a1.991,1.991,0,0,0-.505,1.216,0.449,0.449,0,0,1,.033.08l1.745,8.829A1.351,1.351,0,0,1,24,143H37a0.7,0.7,0,0,1,.158-0.378l1.745-8.83a0.487,0.487,0,0,1,.039-0.093A2,2,0,0,0,38.475,132.66ZM33.545,141A3.913,3.913,0,0,1,31,139.8l-1.273-1.4a2.427,2.427,0,0,0-1.091-.4,1.26,1.26,0,0,0-1.091.4l-1.273,1.4L25,138.4l1.273-1.4A3.293,3.293,0,0,1,31,137l1.273,1.4a1.584,1.584,0,0,0,1.273.6,2.6,2.6,0,0,0,1.273-.6L35.1,138.1l1.333,1.333-0.338.372A3.169,3.169,0,0,1,33.545,141Zm0-5A3.913,3.913,0,0,1,31,134.8l-1.273-1.4a2.427,2.427,0,0,0-1.091-.4,1.26,1.26,0,0,0-1.091.4l-1.273,1.4L25,133.4l1.273-1.4A3.293,3.293,0,0,1,31,132l1.273,1.4a1.584,1.584,0,0,0,1.273.6,2.6,2.6,0,0,0,1.273-.6L35.1,133.1l1.333,1.334-0.338.371A3.169,3.169,0,0,1,33.545,136Z" transform="translate(-12.5 -117.5)"/>
</svg>
