<svg xmlns="http://www.w3.org/2000/svg" width="16" height="16" viewBox="0 0 16 16">
  <metadata><?xpacket begin="﻿" id="W5M0MpCehiHzreSzNTczkc9d"?>
<x:xmpmeta xmlns:x="adobe:ns:meta/" x:xmptk="Adobe XMP Core 5.6-c138 79.159824, 2016/09/14-01:09:01        ">
   <rdf:RDF xmlns:rdf="http://www.w3.org/1999/02/22-rdf-syntax-ns#">
      <rdf:Description rdf:about=""/>
   </rdf:RDF>
</x:xmpmeta>
                                                                                                    
                                                                                                    
                                                                                                    
                                                                                                    
                                                                                                    
                                                                                                    
                                                                                                    
                                                                                                    
                                                                                                    
                                                                                                    
                                                                                                    
                                                                                                    
                                                                                                    
                                                                                                    
                                                                                                    
                                                                                                    
                                                                                                    
                                                                                                    
                                                                                                    
                                                                                                    
                           
<?xpacket end="w"?></metadata>
<defs>
    <style>
      .cls-1 {
        fill: #b0bbc4;
        fill-rule: evenodd;
      }
    </style>
  </defs>
  <path id="椭圆_8" data-name="椭圆 8" class="cls-1" d="M15,15H1a1.166,1.166,0,0,1-1-1V2A1.2,1.2,0,0,1,1,1H5A1.543,1.543,0,0,1,6,2L7,3h7c0.453-.031,2,0.552,2,1V14A1.055,1.055,0,0,1,15,15ZM10.5,6A1.5,1.5,0,1,0,12,7.5,1.5,1.5,0,0,0,10.5,6ZM11,10H10c-0.892,0-3,.182-3,1s0.108,1,1,1h5c0.892,0,1-.182,1-1S11.892,10,11,10Z"/>
</svg>
