<svg xmlns="http://www.w3.org/2000/svg" xmlns:xlink="http://www.w3.org/1999/xlink" preserveAspectRatio="xMidYMid" width="24" height="24" viewBox="0 0 24 24">
  <defs>
    <style>
      .cls-1, .cls-2 {
        fill: #fff;
      }

      .cls-1 {
        fill-rule: evenodd;
      }
    </style>
  </defs>
  <g>
    <path d="M11.500,23.000 C5.870,23.000 1.288,18.565 1.025,13.000 L2.025,13.000 C2.287,18.013 6.422,22.000 11.500,22.000 C16.747,22.000 21.000,17.746 21.000,12.500 C21.000,7.253 16.747,3.000 11.500,3.000 C11.331,3.000 11.167,3.016 11.000,3.025 L11.000,2.025 C11.167,2.017 11.331,2.000 11.500,2.000 C17.299,2.000 22.000,6.701 22.000,12.500 C22.000,18.299 17.299,23.000 11.500,23.000 Z" class="cls-1"/>
    <path d="M11.642,4.867 L9.172,2.799 C9.000,2.656 9.000,2.344 9.172,2.200 L11.642,0.133 C11.801,-0.000 12.000,0.166 12.000,0.433 L12.000,4.567 C12.000,4.833 11.801,5.000 11.642,4.867 L11.642,4.867 L11.642,4.867 Z" class="cls-1"/>
    <rect x="11" y="7" width="1" height="6" rx="0.5" ry="0.5" class="cls-2"/>
    <path d="M15.298,16.444 L14.945,16.798 C14.847,16.896 14.632,16.839 14.465,16.672 L10.828,13.035 C10.661,12.868 10.604,12.653 10.702,12.555 L11.055,12.202 C11.153,12.104 11.368,12.161 11.535,12.328 L15.172,15.965 C15.339,16.132 15.396,16.347 15.298,16.444 Z" class="cls-1"/>
  </g>
</svg>
