<svg xmlns="http://www.w3.org/2000/svg" xmlns:xlink="http://www.w3.org/1999/xlink" preserveAspectRatio="xMidYMid" width="24" height="24" viewBox="0 0 24 24">
  <defs>
    <style>
      .cls-1, .cls-2 {
        fill: #fff;
      }

      .cls-1 {
        fill-rule: evenodd;
      }
    </style>
  </defs>
  <g>
    <path d="M19.000,23.000 L5.000,23.000 C3.895,23.000 3.000,22.104 3.000,21.000 L3.000,4.000 C3.000,2.895 3.895,2.000 5.000,2.000 L15.000,2.000 L15.000,3.000 L5.000,3.000 C4.448,3.000 4.000,3.448 4.000,4.000 L4.000,21.000 C4.000,21.552 4.448,22.000 5.000,22.000 L19.000,22.000 C19.552,22.000 20.000,21.552 20.000,21.000 L20.000,8.000 L21.000,8.000 L21.000,21.000 C21.000,22.104 20.104,23.000 19.000,23.000 Z" class="cls-1"/>
    <rect x="6" y="9" width="6" height="1" class="cls-2"/>
    <rect x="6" y="14" width="12" height="1" class="cls-2"/>
    <path d="M22.293,0.807 L23.000,1.515 L14.515,10.000 L13.808,9.293 L22.293,0.807 Z" class="cls-1"/>
  </g>
</svg>
