<?xml version="1.0" encoding="utf-8"?>
<!-- Generated by IcoMoon.io -->
<!DOCTYPE svg PUBLIC "-//W3C//DTD SVG 1.1//EN" "http://www.w3.org/Graphics/SVG/1.1/DTD/svg11.dtd">
<svg version="1.1" xmlns="http://www.w3.org/2000/svg" xmlns:xlink="http://www.w3.org/1999/xlink" width="37" height="32" viewBox="0 0 37 32">
<path fill="#c2c9d4" d="M22.712 30.4h-17.6c-1.768 0-3.2-1.432-3.2-3.2v-11.2c0-1.768 1.432-3.2 3.2-3.2h17.6c1.768 0 3.2 1.432 3.2 3.2v11.2c0 1.768-1.432 3.2-3.2 3.2zM24.312 17.6c0-1.768-1.432-3.2-3.2-3.2h-14.4c-1.768 0-3.2 1.432-3.2 3.2v8c0 1.768 1.432 3.2 3.2 3.2h14.4c1.768 0 3.2-1.432 3.2-3.2v-8zM13.912 25.6c-2.21 0-4-1.79-4-4s1.79-4 4-4c2.21 0 4 1.79 4 4s-1.79 4-4 4zM13.912 19.2c-1.325 0-2.4 1.075-2.4 2.4s1.075 2.4 2.4 2.4c1.325 0 2.4-1.075 2.4-2.4s-1.075-2.4-2.4-2.4z"></path>
<path fill="#c2c9d4" d="M33.677 9.6c-0.672-3.685-2.942-6.4-6.965-6.4-4.861 0-7.2 3.939-7.2 8.8v1.6c0 0.274 0.035 0.533 0.050 0.8h-1.57c-0.024-0.267-0.080-0.526-0.080-0.8v-3.2c0-4.861 3.939-8.8 8.8-8.8 4.586 0 8.309 3.522 8.72 8h-1.755z"></path>
</svg>
