<?xml version="1.0" encoding="UTF-8" standalone="no"?>
<svg width="32px" height="32px" viewBox="0 0 32 32" version="1.1" xmlns="http://www.w3.org/2000/svg" xmlns:xlink="http://www.w3.org/1999/xlink">
    <!-- Generator: Sketch 39.1 (31720) - http://www.bohemiancoding.com/sketch -->
    <title>speaker</title>
    <desc>Created with Sketch.</desc>
    <defs></defs>
    <g id="Page-1" stroke="none" stroke-width="1" fill="none" fill-rule="evenodd">
        <g id="speaker" fill="#DBA53C">
            <path d="M29.9347534,24.6655194 L27.7959097,24.6655194 C32.5412214,14.8481158 27.7959097,7.33218604 27.7959097,7.33218604 L29.9347534,7.33218604 C34.5815583,16.299444 29.9347534,24.6655194 29.9347534,24.6655194 L29.9347534,24.6655194 Z M24.5893426,20.332186 C23.9994339,20.332186 23.5204869,19.8468802 23.5204869,19.2491395 L23.5204869,12.7497132 C23.5204869,12.1519725 23.9994339,11.6666667 24.5893426,11.6666667 C25.1792513,11.6666667 25.6581983,12.1519725 25.6581983,12.7497132 L25.6581983,19.2491395 C25.6581983,19.8468802 25.1792513,20.332186 24.5893426,20.332186 L24.5893426,20.332186 Z M6.41426651,22.4994264 L0,22.4994264 L0,9.49942635 L6.41426651,9.49942635 L14.9673767,3 L21.3827755,3 L21.3827755,29 L14.9673767,29 L6.41426651,22.5005736 L6.41426651,22.4994264 Z M19.2439318,26.8316124 L19.2439318,5.16494572 L14.9673767,5.16494572 L6.41426651,11.6643721 L2.13771141,11.6643721 L2.13771141,20.3310387 L6.41426651,20.3310387 L14.9673767,26.8304651 L19.2439318,26.8304651 L19.2439318,26.8316124 Z" id="Shape"></path>
        </g>
    </g>
</svg>