<?xml version="1.0" encoding="utf-8"?>
<!-- Generated by IcoMoon.io -->
<!DOCTYPE svg PUBLIC "-//W3C//DTD SVG 1.1//EN" "http://www.w3.org/Graphics/SVG/1.1/DTD/svg11.dtd">
<svg version="1.1" xmlns="http://www.w3.org/2000/svg" xmlns:xlink="http://www.w3.org/1999/xlink" width="32" height="32" viewBox="0 0 32 32">
<path fill="#5494db" d="M28.516 26.2c-0.003 0.627-0.514 1.133-1.14 1.13l-22.459-0.098c-0.626-0.003-1.131-0.515-1.128-1.142l0.092-20.29c0.003-0.627 0.513-1.133 1.14-1.13 0 0 1.206 0.004 3.083 0.012v2.144h-2.159v18.349h20.508v-18.349h-2.159v-2.070c1.94 0.008 3.186 0.012 3.186 0.012 0.626 0.004 1.131 0.516 1.128 1.143l-0.092 20.29zM9.182 20.857v-2.159h10.794v2.159h-10.794zM9.182 12.222h14.032v2.159h-14.032v-2.159zM11.341 4.667h9.714v2.159h-9.714v-2.159z"></path>
</svg>
