<?xml version="1.0" encoding="utf-8"?>
<!-- Generated by IcoMoon.io -->
<!DOCTYPE svg PUBLIC "-//W3C//DTD SVG 1.1//EN" "http://www.w3.org/Graphics/SVG/1.1/DTD/svg11.dtd">
<svg version="1.1" xmlns="http://www.w3.org/2000/svg" xmlns:xlink="http://www.w3.org/1999/xlink" width="32" height="32" viewBox="0 0 32 32">
<path fill="#b7c3cc" d="M14.867 1.715c0 0 1.181-2.44 2.437-0.199 1.259 2.238 3.718 9.138 3.718 9.138l9.352 1.399c0 0 1.864 0.349 0.718 1.783s-6.95 6.596-6.95 6.596l1.823 9.698c0 0-0.337 1.968-2.087 0.967-1.752-1.001-7.879-4.631-7.879-4.631l-8.365 4.569c0 0-2.139 0.927-1.74-1.171s1.555-9.152 1.555-9.152l-6.357-6.831c0 0-1.283-1.484 0.424-1.812 2.343-0.448 9.25-1.197 9.25-1.197l4.1-9.157z"></path>
</svg>
