<svg xmlns="http://www.w3.org/2000/svg" xmlns:xlink="http://www.w3.org/1999/xlink" preserveAspectRatio="xMidYMid" width="22" height="22" viewBox="0 0 22 22">
  <defs>
    <style>
      .cls-1 {
        fill: #afd2fa;
        fill-rule: evenodd;
      }
    </style>
  </defs>
  <path d="M11.000,22.000 C4.925,22.000 -0.000,17.075 -0.000,11.000 C-0.000,4.925 4.925,-0.000 11.000,-0.000 C17.075,-0.000 22.000,4.925 22.000,11.000 C22.000,17.075 17.075,22.000 11.000,22.000 ZM18.000,15.500 C18.000,15.224 17.776,15.000 17.500,15.000 L16.000,15.000 L16.000,7.000 C16.000,5.895 15.105,5.000 14.000,5.000 L8.000,5.000 C6.895,5.000 6.000,5.895 6.000,7.000 L6.000,15.000 L4.500,15.000 C4.224,15.000 4.000,15.224 4.000,15.500 L4.000,16.500 C4.000,16.776 4.224,17.000 4.500,17.000 L17.500,17.000 C17.776,17.000 18.000,16.776 18.000,16.500 L18.000,15.500 ZM8.000,7.000 L14.000,7.000 L14.000,15.000 L8.000,15.000 L8.000,7.000 Z" class="cls-1"/>
</svg>
