<svg xmlns="http://www.w3.org/2000/svg" width="16" height="15" viewBox="0 0 16 15">
  <metadata><?xpacket begin="﻿" id="W5M0MpCehiHzreSzNTczkc9d"?>
<x:xmpmeta xmlns:x="adobe:ns:meta/" x:xmptk="Adobe XMP Core 5.6-c138 79.159824, 2016/09/14-01:09:01        ">
   <rdf:RDF xmlns:rdf="http://www.w3.org/1999/02/22-rdf-syntax-ns#">
      <rdf:Description rdf:about=""/>
   </rdf:RDF>
</x:xmpmeta>
                                                                                                    
                                                                                                    
                                                                                                    
                                                                                                    
                                                                                                    
                                                                                                    
                                                                                                    
                                                                                                    
                                                                                                    
                                                                                                    
                                                                                                    
                                                                                                    
                                                                                                    
                                                                                                    
                                                                                                    
                                                                                                    
                                                                                                    
                                                                                                    
                                                                                                    
                                                                                                    
                           
<?xpacket end="w"?></metadata>
<defs>
    <style>
      .cls-1 {
        fill: #b3bdc6;
        fill-rule: evenodd;
      }
    </style>
  </defs>
  <path id="矩形_75.svg" data-name="矩形 75.svg" class="cls-1" d="M1147,223h-2a1,1,0,0,1-1-1v-2a1,1,0,0,1,.24-0.627,4.513,4.513,0,0,0-3.24-2.57V219a1,1,0,0,1,1,1v2a1,1,0,0,1-1,1h-2a1,1,0,0,1-1-1v-2a1,1,0,0,1,1-1v-2.2a4.513,4.513,0,0,0-3.24,2.57,1,1,0,0,1,.24.627v2a1,1,0,0,1-1,1h-2a1,1,0,0,1-1-1v-2a1,1,0,0,1,1-1h1.14c0.56-1.971,2.73-3.516,4.86-3.9V214a2,2,0,0,1-2-2v-2a2,2,0,0,1,2-2h2a2,2,0,0,1,2,2v2a2,2,0,0,1-2,2v1.1c2.13,0.386,4.3,1.931,4.86,3.9H1147a1,1,0,0,1,1,1v2A1,1,0,0,1,1147,223Z" transform="translate(-1132 -208)"/>
</svg>
