<?xml version="1.0" encoding="utf-8"?>
<!-- Generated by IcoMoon.io -->
<!DOCTYPE svg PUBLIC "-//W3C//DTD SVG 1.1//EN" "http://www.w3.org/Graphics/SVG/1.1/DTD/svg11.dtd">
<svg version="1.1" xmlns="http://www.w3.org/2000/svg" xmlns:xlink="http://www.w3.org/1999/xlink" width="32" height="32" viewBox="0 0 32 32">
<path fill="#67aaf5" d="M16 31.333c-8.469 0-15.333-6.865-15.333-15.333s6.865-15.333 15.333-15.333c8.469 0 15.333 6.865 15.333 15.333s-6.865 15.333-15.333 15.333zM24.558 11.849l-0.067-0.067c-0.6-0.6-1.57-0.6-2.168 0l-7.996 7.995-3.376-3.376c-0.587-0.587-1.541-0.587-2.128 0l-0.066 0.067c-0.589 0.587-0.589 1.541 0 2.128l4.623 4.623c0.587 0.587 1.541 0.587 2.128 0l0.066-0.066c0.132-0.132 0.224-0.287 0.296-0.446l8.689-8.689c0.6-0.598 0.6-1.57 0-2.168z"></path>
</svg>
