<?xml version="1.0" encoding="utf-8"?>
<!-- Generated by IcoMoon.io -->
<!DOCTYPE svg PUBLIC "-//W3C//DTD SVG 1.1//EN" "http://www.w3.org/Graphics/SVG/1.1/DTD/svg11.dtd">
<svg version="1.1" xmlns="http://www.w3.org/2000/svg" xmlns:xlink="http://www.w3.org/1999/xlink" width="32" height="32" viewBox="0 0 32 32">
<path fill="#fff" d="M16 31.333c-8.469 0-15.333-6.865-15.333-15.333s6.865-15.333 15.333-15.333c8.469 0 15.333 6.865 15.333 15.333s-6.865 15.333-15.333 15.333zM16 2.583c-7.41 0-13.417 6.007-13.417 13.417s6.007 13.417 13.417 13.417c7.41 0 13.417-6.007 13.417-13.417s-6.007-13.417-13.417-13.417zM14.792 21.451c-0.007 0.007-0.016 0.010-0.023 0.016-0.002 0.001-0.003 0.004-0.004 0.006-0.378 0.378-0.99 0.378-1.368 0l-4.787-4.787c-0.378-0.378-0.378-0.99 0-1.368s0.99-0.378 1.368 0l4.039 4.039 7.951-8.84c0.386-0.387 1.013-0.387 1.399 0s0.386 1.012 0 1.398l-8.576 9.534z"></path>
</svg>
