<svg xmlns="http://www.w3.org/2000/svg" xmlns:xlink="http://www.w3.org/1999/xlink" preserveAspectRatio="xMidYMid" width="21" height="21" viewBox="0 0 21 21">
  <defs>
    <style>
      .cls-1, .cls-2 {
        fill: #b0b9c7;
      }

      .cls-1 {
        fill-rule: evenodd;
      }
    </style>
  </defs>
  <path d="M10.500,21.000 C4.701,21.000 -0.000,16.299 -0.000,10.500 C-0.000,4.701 4.701,-0.000 10.500,-0.000 C16.299,-0.000 21.000,4.701 21.000,10.500 C21.000,16.299 16.299,21.000 10.500,21.000 ZM10.500,1.000 C5.253,1.000 1.000,5.253 1.000,10.500 C1.000,15.747 5.253,20.000 10.500,20.000 C15.747,20.000 20.000,15.747 20.000,10.500 C20.000,5.253 15.747,1.000 10.500,1.000 Z" class="cls-1"/>
  <rect x="9" y="5" width="1" height="7" rx="0.5" ry="0.5" class="cls-2"/>
  <rect x="9" y="11" width="7" height="1" rx="0.5" ry="0.5" class="cls-2"/>
</svg>
