<svg xmlns="http://www.w3.org/2000/svg" width="20" height="20" viewBox="0 0 20 20">
  <metadata><?xpacket begin="﻿" id="W5M0MpCehiHzreSzNTczkc9d"?>
<x:xmpmeta xmlns:x="adobe:ns:meta/" x:xmptk="Adobe XMP Core 5.6-c138 79.159824, 2016/09/14-01:09:01        ">
   <rdf:RDF xmlns:rdf="http://www.w3.org/1999/02/22-rdf-syntax-ns#">
      <rdf:Description rdf:about=""/>
   </rdf:RDF>
</x:xmpmeta>
                                                                                                    
                                                                                                    
                                                                                                    
                                                                                                    
                                                                                                    
                                                                                                    
                                                                                                    
                                                                                                    
                                                                                                    
                                                                                                    
                                                                                                    
                                                                                                    
                                                                                                    
                                                                                                    
                                                                                                    
                                                                                                    
                                                                                                    
                                                                                                    
                                                                                                    
                                                                                                    
                           
<?xpacket end="w"?></metadata>
<defs>
    <style>
      .cls-1 {
        fill: #999;
        fill-rule: evenodd;
      }
    </style>
  </defs>
  <path id="形状_619_副本_5" data-name="形状 619 副本 5" class="cls-1" d="M19,10.716V11H18.986A8.488,8.488,0,0,1,11,18.964V19H10V18.963A8.488,8.488,0,0,1,2.036,11H2V10H2.035A8.488,8.488,0,0,1,10,2.015V2h0.291c0.074,0,.146-0.011.22-0.011S10.657,2,10.731,2H11V2.013A8.488,8.488,0,0,1,18.987,10H19v0.261c0,0.076.011,0.151,0.011,0.228S19,10.64,19,10.716ZM11,3.039V4H10V3.041A7.461,7.461,0,0,0,3.057,10H4v1H3.059A7.461,7.461,0,0,0,10,17.939V17h1v0.941A7.461,7.461,0,0,0,17.96,11H17V10h0.962A7.461,7.461,0,0,0,11,3.039ZM10,11V6h1v4h4v1H10Z"/>
</svg>
