<?xml version="1.0" encoding="utf-8"?>
<!-- Generated by IcoMoon.io -->
<!DOCTYPE svg PUBLIC "-//W3C//DTD SVG 1.1//EN" "http://www.w3.org/Graphics/SVG/1.1/DTD/svg11.dtd">
<svg version="1.1" xmlns="http://www.w3.org/2000/svg" xmlns:xlink="http://www.w3.org/1999/xlink" width="32" height="32" viewBox="0 0 32 32">
<path fill="#000" d="M24.37 14.605c-0.112 0-0.216-0.028-0.326-0.033l-2.445 2.447 8.919 8.919-5.919 5.917-8.919-8.919-7.894 7.895-5.919-5.919 8.912-8.912h-0.358v-1.339l-0.252 0.251-4.931-4.931 0.94-0.942c-0.028-0.013-0.059-0.015-0.085-0.032l-0.17-0.106c-0.001 0.233-0.11 0.465-0.325 0.603l-1.183 0.757c-0.326 0.209-0.748 0.123-0.939-0.194l-2.787-4.577c-0.193-0.317-0.084-0.742 0.243-0.951l0.918-0.587 0.029-0.045c0.204-0.328 0.633-0.427 0.96-0.223l4.733 2.957c0.326 0.205 0.425 0.635 0.222 0.961l-0.381 0.608 4.73 4.729-0.271 0.271h1.339v0.358l4.376-4.375c-0.117-0.505-0.191-1.024-0.191-1.564 0-3.853 3.122-6.975 6.975-6.975v2.79c-2.311 0-4.185 1.873-4.185 4.185s1.873 4.185 4.185 4.185c2.311 0 4.185-1.873 4.185-4.185h2.79c0 3.851-3.123 6.975-6.975 6.975zM11.815 14.605v0.358l0.358-0.358h-0.358zM18.861 11.864l-13.048 13.048 1.972 1.972 13.195-13.195c-0.826-0.463-1.544-1.081-2.119-1.826zM19.625 18.991l-1.974 1.972 6.947 6.947 1.972-1.972-6.945-6.947z"></path>
</svg>
