<svg xmlns="http://www.w3.org/2000/svg" width="28" height="28" viewBox="0 0 28 28">
  <metadata><?xpacket begin="﻿" id="W5M0MpCehiHzreSzNTczkc9d"?>
<x:xmpmeta xmlns:x="adobe:ns:meta/" x:xmptk="Adobe XMP Core 5.6-c138 79.159824, 2016/09/14-01:09:01        ">
   <rdf:RDF xmlns:rdf="http://www.w3.org/1999/02/22-rdf-syntax-ns#">
      <rdf:Description rdf:about=""/>
   </rdf:RDF>
</x:xmpmeta>
                                                                                                    
                                                                                                    
                                                                                                    
                                                                                                    
                                                                                                    
                                                                                                    
                                                                                                    
                                                                                                    
                                                                                                    
                                                                                                    
                                                                                                    
                                                                                                    
                                                                                                    
                                                                                                    
                                                                                                    
                                                                                                    
                                                                                                    
                                                                                                    
                                                                                                    
                                                                                                    
                           
<?xpacket end="w"?></metadata>
<defs>
    <style>
      .cls-1 {
        fill: #afd2fa;
        fill-rule: evenodd;
      }
    </style>
  </defs>
  <path id="面向服务" class="cls-1" d="M1,27V1H27V27H1ZM22,8a1.127,1.127,0,0,0-.5-1H21a1.306,1.306,0,0,0-.887-0.79L13,4.956,12,5a0.355,0.355,0,0,0-.266.074A0.447,0.447,0,0,0,11.5,5H11a1.684,1.684,0,0,0-1,1V7.208L8,7a1.686,1.686,0,0,0-.7,0H6.5A1.187,1.187,0,0,0,6,8V20a1.187,1.187,0,0,0,.5,1h1A0.5,0.5,0,0,0,8,20.5V20.175L8.117,20.84C8.165,21.112,8.728,21.048,9,21l1-.1V22a1.684,1.684,0,0,0,1,1h0.5a0.459,0.459,0,0,0,.3-0.128L12,23h1.245l6.868-1.211A1.972,1.972,0,0,0,21,21h0.5a1.127,1.127,0,0,0,.5-1V8ZM12,21.19V6.81l7.766,1.369A0.488,0.488,0,0,0,20,8.159V19.842a0.486,0.486,0,0,0-.234-0.021Zm6-8.69a0.5,0.5,0,0,0-.5-0.5h-1a0.5,0.5,0,0,0-.5.5v3a0.5,0.5,0,0,0,.5.5h1a0.5,0.5,0,0,0,.5-0.5v-3ZM8,19.541V8.792L10,9v9.985l-1.651.291A0.491,0.491,0,0,0,8,19.541Z"/>
</svg>
