<svg xmlns="http://www.w3.org/2000/svg" width="28" height="28" viewBox="0 0 28 28">
  <metadata><?xpacket begin="﻿" id="W5M0MpCehiHzreSzNTczkc9d"?>
<x:xmpmeta xmlns:x="adobe:ns:meta/" x:xmptk="Adobe XMP Core 5.6-c138 79.159824, 2016/09/14-01:09:01        ">
   <rdf:RDF xmlns:rdf="http://www.w3.org/1999/02/22-rdf-syntax-ns#">
      <rdf:Description rdf:about=""/>
   </rdf:RDF>
</x:xmpmeta>
                                                                                                    
                                                                                                    
                                                                                                    
                                                                                                    
                                                                                                    
                                                                                                    
                                                                                                    
                                                                                                    
                                                                                                    
                                                                                                    
                                                                                                    
                                                                                                    
                                                                                                    
                                                                                                    
                                                                                                    
                                                                                                    
                                                                                                    
                                                                                                    
                                                                                                    
                                                                                                    
                           
<?xpacket end="w"?></metadata>
<defs>
    <style>
      .cls-1 {
        fill: #b0d1fa;
        fill-rule: evenodd;
      }
    </style>
  </defs>
  <path id="椭圆_20" data-name="椭圆 20" class="cls-1" d="M1,27V1H27V27H1ZM23,6a2,2,0,0,0-2-2H7A2,2,0,0,0,5,6V22a2,2,0,0,0,2,2H21a2,2,0,0,0,2-2V6ZM7,6H21V22H7V6Zm7,14a2,2,0,1,0-2-2A2,2,0,0,0,14,20Zm-4-6h8V12H10v2Zm0-4h8V8H10v2Z"/>
</svg>
