<?xml version="1.0" encoding="utf-8"?>
<!-- Generator: Adobe Illustrator 16.0.0, SVG Export Plug-In . SVG Version: 6.00 Build 0)  -->
<!DOCTYPE svg PUBLIC "-//W3C//DTD SVG 1.1//EN" "http://www.w3.org/Graphics/SVG/1.1/DTD/svg11.dtd">
<svg version="1.1" id="图层_1" xmlns="http://www.w3.org/2000/svg" xmlns:xlink="http://www.w3.org/1999/xlink" x="0px" y="0px"
	 width="32px" height="32px" viewBox="0 0 32 32" enable-background="new 0 0 32 32" xml:space="preserve">
<path d="M8,26.499c0,0,0-0.021,0-0.025c-0.165,0.015-0.331,0.025-0.5,0.025c-3.038,0-5.5-2.462-5.5-5.5
	c0-2.603,1.81-4.777,4.238-5.348c-0.142-0.646-0.221-1.315-0.23-2.002C2.581,14.341,0,17.368,0,20.999c0,4.143,3.358,7.5,7.5,7.5
	c0.514,0,1.015-0.052,1.5-0.15v-1.85H8z"/>
<path d="M8,15.5H7.5c0.169,0,0.335,0.01,0.5,0.025C8,15.517,8,15.508,8,15.5z"/>
<path d="M7.5,15.5H7v-1.001h1c0-0.341,0-0.668,0-0.974C7.834,13.514,7.669,13.5,7.5,13.5c-0.511,0-1.01,0.052-1.492,0.149
	c0.01,0.687,0.088,1.355,0.23,2.002C6.644,15.556,7.065,15.5,7.5,15.5z"/>
<path d="M25.797,15.515c-0.144,0.704-0.368,1.378-0.651,2.02c0.119-0.01,0.233-0.036,0.354-0.036c2.485,0,4.5,2.015,4.5,4.5
	s-2.015,4.5-4.5,4.5c-0.171,0-0.334-0.032-0.5-0.051v0.051v1.975c0.166,0.013,0.331,0.025,0.5,0.025c3.59,0,6.5-2.909,6.5-6.5
	C32,18.511,29.248,15.671,25.797,15.515z"/>
<path d="M24,15.681c0,0.261,0,0.534,0,0.819h1v0.999v0.051c0.049-0.006,0.097-0.011,0.146-0.015c0.283-0.642,0.508-1.316,0.651-2.02
	C25.698,15.511,25.601,15.5,25.5,15.5C24.982,15.5,24.482,15.567,24,15.681z"/>
<path d="M15,20.999v-2.585l-0.342,0.342C14.88,19.464,15,20.218,15,20.999z"/>
<polygon points="15.915,17.499 16.085,17.499 16,17.414 "/>
<path d="M16,3.5c-5.523,0-10,4.477-10,10c0,0.05,0.007,0.099,0.008,0.149C6.49,13.552,6.989,13.5,7.5,13.5
	c0.169,0,0.334,0.014,0.5,0.025c0-0.008,0-0.018,0-0.025c0-4.419,3.582-8.001,8-8.001c4.418,0,8,3.582,8,8.001
	c0,0.429,0,1.211,0,2.181c0.482-0.114,0.982-0.181,1.5-0.181c0.101,0,0.198,0.011,0.297,0.015C25.93,14.864,26,14.19,26,13.5
	C26,7.977,21.523,3.5,16,3.5z"/>
<path d="M8,14.499H7V15.5h0.5H8C8,15.155,8,14.82,8,14.499z"/>
<path d="M25,17.499V16.5h-1c0,0.321,0,0.655,0,0.999H25z"/>
<path d="M18,26.499h-2.816c0.413,1.163,1.512,2,2.816,2h7v-0.025c-1.641-0.125-3.109-0.856-4.184-1.975H18z"/>
<path d="M24,26.499h-3.184c1.074,1.118,2.543,1.85,4.184,1.975v-1.975H24z"/>
<path d="M17,25.499v-2.051c-0.329,0.033-0.663,0.051-1,0.051s-0.671-0.018-1-0.051v2.051c0,0.353,0.072,0.686,0.184,1H18
	C17.447,26.499,17,26.052,17,25.499z"/>
<path d="M16.085,17.499h-0.171L15,18.414v2.585v2.449c0.329,0.033,0.663,0.051,1,0.051s0.671-0.018,1-0.051v-5.034L16.085,17.499z"
	/>
<path d="M18.914,17.499l-2.328-2.328c-0.16-0.16-0.397-0.182-0.586-0.081c0.042,0.022,0.085,0.045,0.121,0.081l0.708,0.707
	c0.195,0.196,0.195,0.513,0,0.707L16,17.414l0.085,0.085H17H18.914z"/>
<polygon points="16.085,17.499 17,18.414 17,17.499 "/>
<path d="M18.914,17.499H17v0.915l2.161,2.161c0.162-0.722,0.444-1.396,0.824-2.005L18.914,17.499z"/>
<path d="M20.121,20.828l0.707-0.707c0.195-0.195,0.195-0.512,0-0.708l-0.843-0.843c-0.38,0.609-0.662,1.283-0.824,2.005l0.253,0.253
	C19.609,21.023,19.926,21.023,20.121,20.828z"/>
<path d="M15.171,16.585c-0.195-0.194-0.195-0.511,0-0.707l0.707-0.707c0.036-0.036,0.079-0.058,0.122-0.081
	c-0.189-0.101-0.426-0.079-0.586,0.081l-1.672,1.672c0.39,0.585,0.702,1.227,0.917,1.913L15,18.414v-0.915h0.915L16,17.414
	L15.171,16.585z"/>
<path d="M12.287,18.297c0.365,0.646,0.607,1.371,0.685,2.146l1.687-1.687c-0.215-0.686-0.526-1.327-0.917-1.913L12.287,18.297z"/>
<path d="M11.171,19.413c-0.195,0.196-0.195,0.513,0,0.708l0.707,0.707c0.195,0.195,0.512,0.195,0.708,0l0.386-0.386
	c-0.078-0.774-0.319-1.499-0.685-2.146L11.171,19.413z"/>
<polygon points="15,18.414 15.915,17.499 15,17.499 "/>
<path d="M15.171,15.878c-0.195,0.196-0.195,0.513,0,0.707L16,17.414l0.829-0.829c0.195-0.194,0.195-0.511,0-0.707l-0.708-0.707
	c-0.036-0.036-0.079-0.058-0.121-0.081c-0.043,0.022-0.086,0.045-0.122,0.081L15.171,15.878z"/>
</svg>
