<?xml version="1.0" encoding="utf-8"?>
<!-- Generated by IcoMoon.io -->
<!DOCTYPE svg PUBLIC "-//W3C//DTD SVG 1.1//EN" "http://www.w3.org/Graphics/SVG/1.1/DTD/svg11.dtd">
<svg version="1.1" xmlns="http://www.w3.org/2000/svg" xmlns:xlink="http://www.w3.org/1999/xlink" width="35" height="32" viewBox="0 0 35 32">
<path fill="#e9eff6" d="M17.721 31.334c-4.95 0-9.501-1.681-13.13-4.487 0.727-1.647 2.188-2.706 4.685-3.188 1.315-0.254 3.87-1.544 5.444-2.828 0.157-0.328 0.257-0.69 0.257-1.079 0-0.333-0.082-0.642-0.198-0.931-1.073-0.647-1.887-1.819-2.504-3.125-0.955-0.396-2.292-1.775-2.292-4.276 0-0.486 0.272-0.806 0.656-1.004-0.318-0.618-2.172-4.539 1.182-6.006 2.84-6.455 12.035-2.807 12.035-2.807s-0.959 1.542 0.221 2.581c1.094 0.963 1.793 4.505 0.734 6.006-0.008 0.037-0.012 0.075-0.020 0.112 0.414 0.174 0.67 0.528 0.67 1.118 0 2.604-1.383 3.993-2.296 4.321-0.63 1.319-1.461 2.498-2.558 3.127-0.103 0.275-0.163 0.572-0.163 0.884 0 0.402 0.098 0.779 0.265 1.114 1.592 1.301 4.162 2.604 5.499 2.84 2.453 0.431 3.909 1.495 4.639 3.145-3.628 2.804-8.178 4.483-13.126 4.483z"></path>
</svg>
