<?xml version="1.0" encoding="UTF-8" standalone="no"?>
<svg width="14px" height="14px" viewBox="0 0 14 14" version="1.1" xmlns="http://www.w3.org/2000/svg" xmlns:xlink="http://www.w3.org/1999/xlink">
    <!-- Generator: Sketch 39.1 (31720) - http://www.bohemiancoding.com/sketch -->
    <title>view-list</title>
    <desc>Created with Sketch.</desc>
    <defs></defs>
    <g id="Page-1" stroke="none" stroke-width="1" fill="none" fill-rule="evenodd">
        <g id="view-list" transform="translate(0.000000, -0.396166)" fill="#9BA4AD">
            <path d="M4,13.3961657 L4,12.3961657 L14,12.3961657 L14,13.3961657 L4,13.3961657 L4,13.3961657 Z M4,7.39616571 L14,7.39616571 L14,8.39616571 L4,8.39616571 L4,7.39616571 L4,7.39616571 Z M4,2.39616571 L14,2.39616571 L14,3.39616571 L4,3.39616571 L4,2.39616571 L4,2.39616571 Z M0,12.3961657 L2,12.3961657 L2,13.3961657 L0,13.3961657 L0,12.3961657 L0,12.3961657 Z M0,7.39616571 L2,7.39616571 L2,8.39616571 L0,8.39616571 L0,7.39616571 L0,7.39616571 Z M0,2.39616571 L2,2.39616571 L2,3.39616571 L0,3.39616571 L0,2.39616571 L0,2.39616571 Z" id="圆角矩形_79_拷贝_4"></path>
        </g>
    </g>
</svg>