<?xml version="1.0" encoding="utf-8"?>
<!-- Generated by IcoMoon.io -->
<!DOCTYPE svg PUBLIC "-//W3C//DTD SVG 1.1//EN" "http://www.w3.org/Graphics/SVG/1.1/DTD/svg11.dtd">
<svg version="1.1" xmlns="http://www.w3.org/2000/svg" xmlns:xlink="http://www.w3.org/1999/xlink" width="32" height="32" viewBox="0 0 32 32">
<path fill="#bbb" d="M31.273 24.727h-13.818v2.909h3.636c0.401 0 0.727 0.326 0.727 0.727v1.455c0 0.401-0.326 0.727-0.727 0.727h-10.182c-0.401 0-0.727-0.326-0.727-0.727v-1.455c0-0.401 0.326-0.727 0.727-0.727h3.636v-2.909h-13.818c-0.401 0-0.727-0.326-0.727-0.727v-21.818c0-0.401 0.326-0.727 0.727-0.727h30.545c0.401 0 0.727 0.326 0.727 0.727v21.818c0 0.401-0.326 0.727-0.727 0.727zM29.091 4.364h-26.182v17.455h26.182v-17.455zM5.818 16h-1.455v-1.455h1.455v1.455zM10.169 10.487c0.643 0 1.155 0.14 1.535 0.416s0.652 0.698 0.817 1.265l-1.377 0.249c-0.047-0.276-0.151-0.483-0.316-0.623-0.164-0.138-0.377-0.208-0.639-0.208-0.348 0-0.625 0.119-0.833 0.361-0.207 0.24-0.31 0.641-0.31 1.204 0 0.627 0.105 1.069 0.316 1.328 0.209 0.259 0.493 0.388 0.848 0.388 0.265 0 0.481-0.076 0.65-0.227s0.289-0.41 0.358-0.778l1.373 0.234c-0.143 0.63-0.416 1.105-0.82 1.427s-0.947 0.481-1.626 0.481c-0.772 0-1.388-0.243-1.847-0.73-0.458-0.487-0.688-1.162-0.688-2.023 0-0.871 0.23-1.551 0.691-2.036s1.084-0.729 1.869-0.729zM14.726 10.831c0.419-0.228 0.887-0.343 1.404-0.343 0.799 0 1.453 0.26 1.964 0.778 0.511 0.519 0.767 1.174 0.767 1.967 0 0.799-0.257 1.46-0.774 1.987-0.515 0.525-1.164 0.787-1.946 0.787-0.484 0-0.945-0.109-1.385-0.327-0.439-0.22-0.772-0.54-1.001-0.963-0.23-0.422-0.343-0.937-0.343-1.543 0-0.464 0.113-0.913 0.343-1.347 0.228-0.435 0.551-0.767 0.972-0.995zM15.215 14.451c0.249 0.278 0.556 0.417 0.921 0.417 0.364 0 0.671-0.14 0.916-0.417 0.247-0.279 0.371-0.684 0.371-1.215 0-0.516-0.124-0.913-0.371-1.193-0.246-0.278-0.553-0.417-0.916-0.417-0.365 0-0.672 0.14-0.921 0.417-0.247 0.279-0.372 0.679-0.372 1.203s0.125 0.925 0.372 1.204zM20.733 11.328c0.461-0.56 1.009-0.841 1.647-0.841 0.337 0 0.631 0.070 0.88 0.209s0.452 0.349 0.611 0.631c0.233-0.282 0.483-0.492 0.751-0.631 0.269-0.14 0.556-0.209 0.861-0.209 0.387 0 0.716 0.080 0.983 0.237 0.269 0.157 0.47 0.388 0.602 0.694 0.096 0.225 0.144 0.589 0.144 1.092v3.376h-1.396v-3.017c0-0.524-0.048-0.863-0.145-1.015-0.128-0.198-0.327-0.298-0.596-0.298-0.195 0-0.38 0.060-0.551 0.179-0.173 0.119-0.297 0.295-0.372 0.525-0.077 0.23-0.115 0.593-0.115 1.091v2.535h-1.398v-2.893c0-0.513-0.025-0.845-0.074-0.993-0.049-0.15-0.127-0.26-0.231-0.335-0.105-0.073-0.246-0.109-0.425-0.109-0.215 0-0.409 0.058-0.582 0.175-0.172 0.116-0.295 0.284-0.371 0.502-0.074 0.22-0.111 0.582-0.111 1.089v2.564h-1.398v-5.28h1.287v0.721z"></path>
</svg>
