<svg width="202" height="28" viewBox="0 0 202 28" fill="none" xmlns="http://www.w3.org/2000/svg">
<path d="M17.9459 12.6077C17.7173 12.8649 17.4507 13.0934 17.1268 13.303C16.803 13.4934 16.4792 13.6268 16.1745 13.7125V14.4934C16.8126 14.303 17.3459 13.9982 17.7745 13.5601V19.4077H18.5554V12.6077H17.9459Z" fill="#333333"/>
<path d="M1 8.24453C1 6.74171 2.21827 5.52344 3.72109 5.52344H34.3333V27.2921H3.72109C2.21827 27.2921 1 26.0739 1 24.5711V8.24453Z" stroke="#E5E5E5" stroke-width="0.8"/>
<path d="M50.8913 12.7127C50.2056 12.7127 49.6437 12.9412 49.2247 13.3984C48.8056 13.846 48.5866 14.4555 48.5866 15.2174H49.3675C49.3771 14.6174 49.5199 14.1603 49.7866 13.8555C50.0342 13.5317 50.3961 13.3793 50.8628 13.3793C51.3009 13.3793 51.6533 13.4936 51.9009 13.7222C52.1485 13.9508 52.2723 14.265 52.2723 14.6841C52.2723 15.1222 52.0913 15.5317 51.7485 15.9031C51.5675 16.0936 51.2152 16.3698 50.6818 16.7508C49.958 17.246 49.4723 17.6555 49.2056 17.9603C48.7485 18.465 48.5294 19.0269 48.5294 19.646H53.0628V18.9508H49.4913C49.6152 18.4936 50.1104 17.9698 50.9771 17.3889C51.6818 16.9127 52.1485 16.5412 52.3866 16.2936C52.8247 15.8174 53.0533 15.2841 53.0533 14.6936C53.0533 14.1031 52.8437 13.6174 52.4437 13.2555C52.0342 12.8936 51.5199 12.7127 50.8913 12.7127Z" fill="#333333"/>
<path d="M34.3335 5.52344H67.6668V27.2921H34.3335V5.52344Z" stroke="#E5E5E5" stroke-width="0.8"/>
<path d="M84.1958 12.7127C83.5482 12.7127 83.0244 12.8936 82.6244 13.265C82.2053 13.6365 81.9577 14.1508 81.9005 14.8079H82.672C82.7196 14.3508 82.872 13.9984 83.1386 13.7508C83.3958 13.5031 83.7482 13.3889 84.2053 13.3889C84.6434 13.3889 84.9958 13.4936 85.2434 13.7222C85.472 13.9317 85.5958 14.2269 85.5958 14.6079C85.5958 14.9889 85.472 15.2841 85.2339 15.4936C84.9958 15.6936 84.6529 15.7984 84.1958 15.7984H83.672V16.4079H84.2244C84.7005 16.4079 85.0624 16.5127 85.3291 16.7412C85.5958 16.9698 85.7291 17.2841 85.7291 17.6936C85.7291 18.0936 85.5863 18.4269 85.3196 18.6936C85.0244 18.9698 84.6339 19.1127 84.1482 19.1127C83.7196 19.1127 83.3672 18.9889 83.0815 18.7603C82.7482 18.4841 82.5672 18.0746 82.5482 17.5412H81.7577C81.8148 18.3031 82.0815 18.8841 82.5672 19.2841C82.9767 19.6079 83.5005 19.7793 84.1482 19.7793C84.8529 19.7793 85.4244 19.5793 85.8624 19.1793C86.291 18.7889 86.5101 18.2841 86.5101 17.665C86.5101 17.265 86.3958 16.9317 86.1672 16.665C85.9577 16.3984 85.6529 16.2079 85.2529 16.0841C85.9958 15.8365 86.3672 15.3222 86.3672 14.5603C86.3672 13.9889 86.1672 13.5412 85.7767 13.2079C85.3767 12.8746 84.8434 12.7127 84.1958 12.7127Z" fill="#333333"/>
<path d="M67.6665 5.52344H101V27.2921H67.6665V5.52344Z" stroke="#E5E5E5" stroke-width="0.8"/>
<path d="M118.263 12.846L114.834 17.3603V18.1031H118.253V19.646H118.996V18.1031H120.101V17.465H118.996V12.846H118.263ZM118.225 13.865H118.253V17.465H115.491L118.225 13.865Z" fill="#333333"/>
<path d="M101 5.52344H134.333V27.2921H101V5.52344Z" stroke="#E5E5E5" stroke-width="0.8"/>
<path d="M148.939 12.846L148.577 16.5984H149.32C149.453 16.3317 149.663 16.1222 149.929 15.9889C150.187 15.846 150.472 15.7793 150.796 15.7793C151.291 15.7793 151.682 15.9222 151.958 16.2269C152.244 16.5222 152.396 16.9412 152.396 17.4841C152.396 17.9603 152.234 18.3508 151.929 18.6555C151.615 18.9603 151.225 19.1127 150.748 19.1127C150.329 19.1127 149.977 19.0079 149.71 18.8079C149.406 18.5793 149.234 18.246 149.196 17.8174H148.425C148.472 18.4365 148.729 18.9317 149.206 19.2936C149.625 19.6174 150.139 19.7793 150.739 19.7793C151.406 19.7793 151.977 19.5698 152.434 19.1603C152.92 18.7222 153.168 18.1603 153.168 17.4746C153.168 16.7412 152.958 16.1698 152.558 15.7508C152.158 15.3412 151.634 15.1412 150.987 15.1412C150.672 15.1412 150.387 15.1889 150.12 15.3031C149.825 15.4174 149.577 15.5889 149.387 15.8174H149.348L149.577 13.5412H152.891V12.846H148.939Z" fill="#333333"/>
<path d="M134.333 5.52344H167.667V27.2921H134.333V5.52344Z" stroke="#E5E5E5" stroke-width="0.8"/>
<path d="M184.224 12.7127C183.453 12.7127 182.843 13.065 182.396 13.7793C181.967 14.4555 181.758 15.3412 181.758 16.4269C181.758 17.465 181.948 18.2746 182.348 18.8555C182.767 19.465 183.386 19.7793 184.215 19.7793C184.881 19.7793 185.424 19.5508 185.862 19.1127C186.291 18.6746 186.51 18.1127 186.51 17.446C186.51 16.7793 186.31 16.246 185.92 15.8269C185.52 15.4079 184.996 15.1984 184.348 15.1984C183.948 15.1984 183.596 15.2936 183.291 15.4936C182.967 15.6841 182.729 15.9603 182.558 16.3127H182.52C182.51 16.1889 182.51 16.1031 182.51 16.065C182.51 15.2936 182.653 14.6555 182.958 14.1603C183.262 13.6269 183.681 13.3698 184.215 13.3698C185.005 13.3698 185.472 13.7508 185.624 14.5317H186.396C186.205 13.3127 185.481 12.7127 184.224 12.7127ZM184.196 15.846C184.662 15.846 185.034 15.9889 185.32 16.2936C185.596 16.5793 185.739 16.9603 185.739 17.446C185.739 17.9317 185.596 18.3317 185.31 18.6555C185.024 18.9603 184.653 19.1222 184.196 19.1222C183.72 19.1222 183.348 18.9603 183.062 18.6365C182.777 18.3317 182.643 17.9412 182.643 17.465C182.643 16.9889 182.786 16.6079 183.081 16.3031C183.377 15.9984 183.748 15.846 184.196 15.846Z" fill="#333333"/>
<path d="M167.667 5.52344H198.279C199.782 5.52344 201 6.74171 201 8.24453V24.5711C201 26.0739 199.782 27.2921 198.279 27.2921H167.667V5.52344Z" stroke="#E5E5E5" stroke-width="0.8"/>
<rect x="105.762" y="0.761719" width="23.8095" height="9.52381" rx="1.36054" fill="#F24957"/>
<path d="M110.932 2.49904C110.32 2.49904 109.846 2.65414 109.503 2.97251C109.185 3.25822 109.03 3.6174 109.03 4.04189C109.03 4.3521 109.103 4.61332 109.25 4.82557C109.405 5.05414 109.634 5.22557 109.944 5.33169V5.34802C109.634 5.42149 109.381 5.59291 109.169 5.85414C108.94 6.13169 108.826 6.45822 108.826 6.83373C108.826 7.34802 109.005 7.76434 109.365 8.07455C109.732 8.39291 110.254 8.55618 110.932 8.55618C111.601 8.55618 112.124 8.39291 112.499 8.07455C112.858 7.76434 113.038 7.34802 113.038 6.83373C113.038 6.45822 112.924 6.13169 112.695 5.85414C112.483 5.59291 112.222 5.42149 111.92 5.34802V5.33169C112.222 5.22557 112.45 5.05414 112.614 4.82557C112.76 4.61332 112.834 4.3521 112.834 4.04189C112.834 3.6174 112.671 3.25822 112.36 2.97251C112.018 2.65414 111.536 2.49904 110.932 2.49904ZM110.932 3.04598C111.34 3.04598 111.667 3.1521 111.903 3.36434C112.099 3.54394 112.205 3.78067 112.205 4.06638C112.205 4.36026 112.116 4.60516 111.936 4.78475C111.716 4.997 111.381 5.11128 110.932 5.11128C110.475 5.11128 110.14 4.997 109.928 4.78475C109.748 4.60516 109.658 4.36026 109.658 4.06638C109.658 3.78067 109.756 3.54394 109.96 3.36434C110.189 3.1521 110.516 3.04598 110.932 3.04598ZM110.932 5.63373C111.397 5.63373 111.765 5.74802 112.026 5.98475C112.254 6.197 112.377 6.48271 112.377 6.83373C112.377 7.17659 112.254 7.45414 112.026 7.66638C111.765 7.89496 111.405 8.00924 110.932 8.00924C110.458 8.00924 110.091 7.89496 109.846 7.67455C109.601 7.4623 109.487 7.17659 109.487 6.83373C109.487 6.48271 109.601 6.197 109.846 5.98475C110.099 5.74802 110.458 5.63373 110.932 5.63373ZM115.827 2.49904C115.214 2.49904 114.741 2.65414 114.398 2.97251C114.08 3.25822 113.925 3.6174 113.925 4.04189C113.925 4.3521 113.998 4.61332 114.145 4.82557C114.3 5.05414 114.529 5.22557 114.839 5.33169V5.34802C114.529 5.42149 114.276 5.59291 114.063 5.85414C113.835 6.13169 113.721 6.45822 113.721 6.83373C113.721 7.34802 113.9 7.76434 114.259 8.07455C114.627 8.39291 115.149 8.55618 115.827 8.55618C116.496 8.55618 117.018 8.39291 117.394 8.07455C117.753 7.76434 117.933 7.34802 117.933 6.83373C117.933 6.45822 117.818 6.13169 117.59 5.85414C117.378 5.59291 117.116 5.42149 116.814 5.34802V5.33169C117.116 5.22557 117.345 5.05414 117.508 4.82557C117.655 4.61332 117.729 4.3521 117.729 4.04189C117.729 3.6174 117.565 3.25822 117.255 2.97251C116.912 2.65414 116.431 2.49904 115.827 2.49904ZM115.827 3.04598C116.235 3.04598 116.561 3.1521 116.798 3.36434C116.994 3.54394 117.1 3.78067 117.1 4.06638C117.1 4.36026 117.01 4.60516 116.831 4.78475C116.61 4.997 116.276 5.11128 115.827 5.11128C115.37 5.11128 115.035 4.997 114.823 4.78475C114.643 4.60516 114.553 4.36026 114.553 4.06638C114.553 3.78067 114.651 3.54394 114.855 3.36434C115.084 3.1521 115.41 3.04598 115.827 3.04598ZM115.827 5.63373C116.292 5.63373 116.659 5.74802 116.921 5.98475C117.149 6.197 117.272 6.48271 117.272 6.83373C117.272 7.17659 117.149 7.45414 116.921 7.66638C116.659 7.89496 116.3 8.00924 115.827 8.00924C115.353 8.00924 114.986 7.89496 114.741 7.67455C114.496 7.4623 114.382 7.17659 114.382 6.83373C114.382 6.48271 114.496 6.197 114.741 5.98475C114.994 5.74802 115.353 5.63373 115.827 5.63373ZM125.497 1.797C124.468 2.18883 123.317 2.40108 122.036 2.43373V5.33985C121.987 6.80924 121.636 7.96026 120.999 8.80108L121.415 9.23373C122.158 8.2623 122.558 6.96434 122.607 5.33985V4.98067H124.158V9.3072H124.754V4.98067H125.995V4.4174H122.607V2.92353C123.783 2.86638 124.836 2.67047 125.783 2.32761L125.497 1.797ZM119.783 9.16843C120.256 9.16843 120.501 8.91536 120.501 8.42557V6.09904C120.852 5.9521 121.203 5.80516 121.546 5.64189V5.04598C121.203 5.2174 120.852 5.37251 120.501 5.51945V3.83781H121.513V3.27455H120.501V1.78067H119.921V3.27455H118.762V3.83781H119.921V5.73169C119.497 5.87047 119.072 5.99291 118.632 6.09087L118.77 6.67863C119.162 6.56434 119.546 6.44189 119.921 6.31128V8.27863C119.921 8.52353 119.807 8.64598 119.579 8.64598C119.358 8.64598 119.13 8.62965 118.885 8.60516L119.015 9.16843H119.783Z" fill="white"/>
<rect x="139.095" y="0.761719" width="23.8095" height="9.52381" rx="1.36054" fill="#F24957"/>
<path d="M144.265 2.49904C143.653 2.49904 143.18 2.65414 142.837 2.97251C142.518 3.25822 142.363 3.6174 142.363 4.04189C142.363 4.3521 142.437 4.61332 142.584 4.82557C142.739 5.05414 142.967 5.22557 143.278 5.33169V5.34802C142.967 5.42149 142.714 5.59291 142.502 5.85414C142.274 6.13169 142.159 6.45822 142.159 6.83373C142.159 7.34802 142.339 7.76434 142.698 8.07455C143.065 8.39291 143.588 8.55618 144.265 8.55618C144.935 8.55618 145.457 8.39291 145.833 8.07455C146.192 7.76434 146.372 7.34802 146.372 6.83373C146.372 6.45822 146.257 6.13169 146.029 5.85414C145.816 5.59291 145.555 5.42149 145.253 5.34802V5.33169C145.555 5.22557 145.784 5.05414 145.947 4.82557C146.094 4.61332 146.167 4.3521 146.167 4.04189C146.167 3.6174 146.004 3.25822 145.694 2.97251C145.351 2.65414 144.869 2.49904 144.265 2.49904ZM144.265 3.04598C144.674 3.04598 145 3.1521 145.237 3.36434C145.433 3.54394 145.539 3.78067 145.539 4.06638C145.539 4.36026 145.449 4.60516 145.269 4.78475C145.049 4.997 144.714 5.11128 144.265 5.11128C143.808 5.11128 143.474 4.997 143.261 4.78475C143.082 4.60516 142.992 4.36026 142.992 4.06638C142.992 3.78067 143.09 3.54394 143.294 3.36434C143.523 3.1521 143.849 3.04598 144.265 3.04598ZM144.265 5.63373C144.731 5.63373 145.098 5.74802 145.359 5.98475C145.588 6.197 145.71 6.48271 145.71 6.83373C145.71 7.17659 145.588 7.45414 145.359 7.66638C145.098 7.89496 144.739 8.00924 144.265 8.00924C143.792 8.00924 143.425 7.89496 143.18 7.67455C142.935 7.4623 142.82 7.17659 142.82 6.83373C142.82 6.48271 142.935 6.197 143.18 5.98475C143.433 5.74802 143.792 5.63373 144.265 5.63373ZM149.16 2.49904C148.548 2.49904 148.074 2.65414 147.732 2.97251C147.413 3.25822 147.258 3.6174 147.258 4.04189C147.258 4.3521 147.332 4.61332 147.479 4.82557C147.634 5.05414 147.862 5.22557 148.172 5.33169V5.34802C147.862 5.42149 147.609 5.59291 147.397 5.85414C147.168 6.13169 147.054 6.45822 147.054 6.83373C147.054 7.34802 147.234 7.76434 147.593 8.07455C147.96 8.39291 148.483 8.55618 149.16 8.55618C149.83 8.55618 150.352 8.39291 150.728 8.07455C151.087 7.76434 151.266 7.34802 151.266 6.83373C151.266 6.45822 151.152 6.13169 150.923 5.85414C150.711 5.59291 150.45 5.42149 150.148 5.34802V5.33169C150.45 5.22557 150.679 5.05414 150.842 4.82557C150.989 4.61332 151.062 4.3521 151.062 4.04189C151.062 3.6174 150.899 3.25822 150.589 2.97251C150.246 2.65414 149.764 2.49904 149.16 2.49904ZM149.16 3.04598C149.568 3.04598 149.895 3.1521 150.132 3.36434C150.328 3.54394 150.434 3.78067 150.434 4.06638C150.434 4.36026 150.344 4.60516 150.164 4.78475C149.944 4.997 149.609 5.11128 149.16 5.11128C148.703 5.11128 148.368 4.997 148.156 4.78475C147.976 4.60516 147.887 4.36026 147.887 4.06638C147.887 3.78067 147.985 3.54394 148.189 3.36434C148.417 3.1521 148.744 3.04598 149.16 3.04598ZM149.16 5.63373C149.625 5.63373 149.993 5.74802 150.254 5.98475C150.483 6.197 150.605 6.48271 150.605 6.83373C150.605 7.17659 150.483 7.45414 150.254 7.66638C149.993 7.89496 149.634 8.00924 149.16 8.00924C148.687 8.00924 148.319 7.89496 148.074 7.67455C147.83 7.4623 147.715 7.17659 147.715 6.83373C147.715 6.48271 147.83 6.197 148.074 5.98475C148.328 5.74802 148.687 5.63373 149.16 5.63373ZM158.83 1.797C157.802 2.18883 156.651 2.40108 155.369 2.43373V5.33985C155.32 6.80924 154.969 7.96026 154.332 8.80108L154.749 9.23373C155.492 8.2623 155.892 6.96434 155.941 5.33985V4.98067H157.492V9.3072H158.088V4.98067H159.328V4.4174H155.941V2.92353C157.116 2.86638 158.169 2.67047 159.116 2.32761L158.83 1.797ZM153.116 9.16843C153.59 9.16843 153.835 8.91536 153.835 8.42557V6.09904C154.186 5.9521 154.537 5.80516 154.879 5.64189V5.04598C154.537 5.2174 154.186 5.37251 153.835 5.51945V3.83781H154.847V3.27455H153.835V1.78067H153.255V3.27455H152.096V3.83781H153.255V5.73169C152.83 5.87047 152.406 5.99291 151.965 6.09087L152.104 6.67863C152.496 6.56434 152.879 6.44189 153.255 6.31128V8.27863C153.255 8.52353 153.141 8.64598 152.912 8.64598C152.692 8.64598 152.463 8.62965 152.218 8.60516L152.349 9.16843H153.116Z" fill="white"/>
<rect x="172.429" y="0.761719" width="23.8095" height="9.52381" rx="1.36054" fill="#F24957"/>
<path d="M177.599 2.49904C176.987 2.49904 176.513 2.65414 176.17 2.97251C175.852 3.25822 175.697 3.6174 175.697 4.04189C175.697 4.3521 175.77 4.61332 175.917 4.82557C176.072 5.05414 176.301 5.22557 176.611 5.33169V5.34802C176.301 5.42149 176.048 5.59291 175.836 5.85414C175.607 6.13169 175.493 6.45822 175.493 6.83373C175.493 7.34802 175.672 7.76434 176.032 8.07455C176.399 8.39291 176.921 8.55618 177.599 8.55618C178.268 8.55618 178.791 8.39291 179.166 8.07455C179.525 7.76434 179.705 7.34802 179.705 6.83373C179.705 6.45822 179.591 6.13169 179.362 5.85414C179.15 5.59291 178.889 5.42149 178.587 5.34802V5.33169C178.889 5.22557 179.117 5.05414 179.281 4.82557C179.427 4.61332 179.501 4.3521 179.501 4.04189C179.501 3.6174 179.338 3.25822 179.027 2.97251C178.685 2.65414 178.203 2.49904 177.599 2.49904ZM177.599 3.04598C178.007 3.04598 178.334 3.1521 178.57 3.36434C178.766 3.54394 178.872 3.78067 178.872 4.06638C178.872 4.36026 178.783 4.60516 178.603 4.78475C178.383 4.997 178.048 5.11128 177.599 5.11128C177.142 5.11128 176.807 4.997 176.595 4.78475C176.415 4.60516 176.325 4.36026 176.325 4.06638C176.325 3.78067 176.423 3.54394 176.627 3.36434C176.856 3.1521 177.183 3.04598 177.599 3.04598ZM177.599 5.63373C178.064 5.63373 178.432 5.74802 178.693 5.98475C178.921 6.197 179.044 6.48271 179.044 6.83373C179.044 7.17659 178.921 7.45414 178.693 7.66638C178.432 7.89496 178.072 8.00924 177.599 8.00924C177.125 8.00924 176.758 7.89496 176.513 7.67455C176.268 7.4623 176.154 7.17659 176.154 6.83373C176.154 6.48271 176.268 6.197 176.513 5.98475C176.766 5.74802 177.125 5.63373 177.599 5.63373ZM182.494 2.49904C181.881 2.49904 181.408 2.65414 181.065 2.97251C180.747 3.25822 180.592 3.6174 180.592 4.04189C180.592 4.3521 180.665 4.61332 180.812 4.82557C180.967 5.05414 181.196 5.22557 181.506 5.33169V5.34802C181.196 5.42149 180.943 5.59291 180.73 5.85414C180.502 6.13169 180.388 6.45822 180.388 6.83373C180.388 7.34802 180.567 7.76434 180.926 8.07455C181.294 8.39291 181.816 8.55618 182.494 8.55618C183.163 8.55618 183.685 8.39291 184.061 8.07455C184.42 7.76434 184.6 7.34802 184.6 6.83373C184.6 6.45822 184.485 6.13169 184.257 5.85414C184.045 5.59291 183.783 5.42149 183.481 5.34802V5.33169C183.783 5.22557 184.012 5.05414 184.175 4.82557C184.322 4.61332 184.396 4.3521 184.396 4.04189C184.396 3.6174 184.232 3.25822 183.922 2.97251C183.579 2.65414 183.098 2.49904 182.494 2.49904ZM182.494 3.04598C182.902 3.04598 183.228 3.1521 183.465 3.36434C183.661 3.54394 183.767 3.78067 183.767 4.06638C183.767 4.36026 183.677 4.60516 183.498 4.78475C183.277 4.997 182.943 5.11128 182.494 5.11128C182.037 5.11128 181.702 4.997 181.49 4.78475C181.31 4.60516 181.22 4.36026 181.22 4.06638C181.22 3.78067 181.318 3.54394 181.522 3.36434C181.751 3.1521 182.077 3.04598 182.494 3.04598ZM182.494 5.63373C182.959 5.63373 183.326 5.74802 183.588 5.98475C183.816 6.197 183.939 6.48271 183.939 6.83373C183.939 7.17659 183.816 7.45414 183.588 7.66638C183.326 7.89496 182.967 8.00924 182.494 8.00924C182.02 8.00924 181.653 7.89496 181.408 7.67455C181.163 7.4623 181.049 7.17659 181.049 6.83373C181.049 6.48271 181.163 6.197 181.408 5.98475C181.661 5.74802 182.02 5.63373 182.494 5.63373ZM192.164 1.797C191.135 2.18883 189.984 2.40108 188.703 2.43373V5.33985C188.654 6.80924 188.303 7.96026 187.666 8.80108L188.082 9.23373C188.825 8.2623 189.225 6.96434 189.274 5.33985V4.98067H190.825V9.3072H191.421V4.98067H192.662V4.4174H189.274V2.92353C190.45 2.86638 191.503 2.67047 192.45 2.32761L192.164 1.797ZM186.45 9.16843C186.923 9.16843 187.168 8.91536 187.168 8.42557V6.09904C187.519 5.9521 187.87 5.80516 188.213 5.64189V5.04598C187.87 5.2174 187.519 5.37251 187.168 5.51945V3.83781H188.18V3.27455H187.168V1.78067H186.588V3.27455H185.429V3.83781H186.588V5.73169C186.164 5.87047 185.739 5.99291 185.299 6.09087L185.437 6.67863C185.829 6.56434 186.213 6.44189 186.588 6.31128V8.27863C186.588 8.52353 186.474 8.64598 186.246 8.64598C186.025 8.64598 185.797 8.62965 185.552 8.60516L185.682 9.16843H186.45Z" fill="white"/>
</svg>
