<?xml version="1.0" encoding="utf-8"?>
<!-- Generated by IcoMoon.io -->
<!DOCTYPE svg PUBLIC "-//W3C//DTD SVG 1.1//EN" "http://www.w3.org/Graphics/SVG/1.1/DTD/svg11.dtd">
<svg version="1.1" xmlns="http://www.w3.org/2000/svg" xmlns:xlink="http://www.w3.org/1999/xlink" width="32" height="32" viewBox="0 0 32 32">
<path fill="#ff867f" d="M16 31.989c-8.83 0-15.989-7.159-15.989-15.989s7.159-15.989 15.989-15.989c8.83 0 15.989 7.159 15.989 15.989s-7.159 15.989-15.989 15.989zM16 3.080c-7.136 0-12.92 5.784-12.92 12.92 0 7.135 5.784 12.92 12.92 12.92 7.135 0 12.92-5.785 12.92-12.92 0-7.136-5.785-12.92-12.92-12.92zM21.64 21.64c-0.624 0.622-1.633 0.622-2.257 0l-3.383-3.385-3.383 3.385c-0.624 0.622-1.633 0.622-2.257 0-0.622-0.624-0.622-1.633 0-2.255l3.385-3.385-3.385-3.383c-0.622-0.624-0.622-1.633 0-2.255 0.624-0.624 1.633-0.624 2.257 0l3.383 3.383 3.383-3.383c0.624-0.624 1.633-0.624 2.257 0 0.622 0.622 0.622 1.632 0 2.255l-3.385 3.383 3.385 3.385c0.622 0.622 0.622 1.632 0 2.255z"></path>
</svg>
