<svg width="32" height="32" viewBox="0 0 32 32" fill="none" xmlns="http://www.w3.org/2000/svg">
<path d="M17.0618 14.4954C17.412 14.1466 17.6477 13.9105 17.7599 13.7615L17.7655 13.754C18.1609 13.2617 18.3457 12.7686 18.3457 12.2473C18.3457 11.4522 18.1081 10.8697 17.7017 10.4649L17.6972 10.4604C17.2767 10.0234 16.6566 9.80157 15.8028 9.80157C14.7943 9.80157 14.1004 10.1188 13.6544 10.7296L13.6478 10.7386C13.2286 11.2701 13.0014 12.0118 13.0014 13.0195V13.3195H10.7V13.0195C10.7 11.4626 11.1255 10.1807 12.0514 9.21095C12.9815 8.1935 14.2747 7.7 15.8889 7.7C17.3226 7.7 18.5003 8.08088 19.4087 8.91606C20.2778 9.71178 20.7117 10.8059 20.7117 12.1615C20.7117 13.189 20.4122 14.0901 19.8321 14.8529L19.8236 14.864C19.5911 15.1419 18.9916 15.7143 18.0473 16.5479L18.0444 16.5505C17.5903 16.9411 17.2927 17.3008 17.0985 17.649L17.0946 17.6559C16.8451 18.0765 16.7273 18.5372 16.7273 19.0687V19.8621H14.4044V19.0687C14.4044 18.3248 14.5402 17.6573 14.8211 17.0737C15.1504 16.3718 15.9002 15.5245 17.0618 14.4954Z" fill="#CCCCCC"/>
<path d="M13.9406 22.5498C13.9406 21.5821 14.728 20.7996 15.6967 20.7996C16.6654 20.7996 17.4527 21.5821 17.4527 22.5498C17.4527 23.5175 16.6654 24.3 15.6967 24.3C14.728 24.3 13.9406 23.5175 13.9406 22.5498Z" fill="#CCCCCC"/>
<path fill-rule="evenodd" clip-rule="evenodd" d="M16 0C7.16344 0 0 7.16344 0 16C0 24.8366 7.16344 32 16 32C24.8366 32 32 24.8366 32 16C32 7.16344 24.8366 0 16 0ZM2.46154 16C2.46154 8.52291 8.52291 2.46154 16 2.46154C23.4771 2.46154 29.5385 8.52291 29.5385 16C29.5385 23.4771 23.4771 29.5385 16 29.5385C8.52291 29.5385 2.46154 23.4771 2.46154 16Z" fill="#CCCCCC"/>
</svg>
