<?xml version="1.0" encoding="UTF-8"?>
<svg width="32px" height="32px" viewBox="0 0 32 32" version="1.1" xmlns="http://www.w3.org/2000/svg" xmlns:xlink="http://www.w3.org/1999/xlink">
    <!-- Generator: Sketch 49 (51002) - http://www.bohemiancoding.com/sketch -->
    <title>help</title>
    <desc>Created with Sketch.</desc>
    <defs></defs>
    <g id="Page-1" stroke="none" stroke-width="1" fill="none" fill-rule="evenodd">
        <g id="help" fill="#BAC2CF" fill-rule="nonzero">
            <path d="M16,32 C7.163,32 0,24.837 0,16 C0,7.163 7.163,0 16,0 C24.837,0 32,7.163 32,16 C32,24.837 24.837,32 16,32 Z M14.233,27.461 L17.591,27.461 L17.591,23.829 L14.233,23.829 L14.233,27.461 Z M15.97,6.837 C12.356,6.837 9.796,8.668 9.113,12.586 L12.071,13.073 C12.441,10.527 14.034,9.526 15.97,9.526 C18.16,9.526 19.696,10.614 19.696,12.445 C19.696,14.018 18.871,14.76 16.937,16.248 C15.684,17.222 14.347,18.079 14.347,20.454 L14.347,21.569 L17.476,21.569 L17.476,20.454 C17.476,18.68 18.758,18.136 20.066,17.108 C22.002,15.59 22.825,14.475 22.825,12.445 C22.825,8.925 20.551,6.838 15.97,6.838 L15.97,6.837 Z" id="Shape"></path>
        </g>
    </g>
</svg>