<svg width="12" height="12" viewBox="0 0 12 12" fill="none" xmlns="http://www.w3.org/2000/svg">
<path d="M5.39965 3.18456C5.39965 2.85319 5.66828 2.58456 5.99965 2.58456C6.33102 2.58456 6.59965 2.85319 6.59965 3.18456C6.59965 3.51593 6.33102 3.78456 5.99965 3.78456C5.66828 3.78456 5.39965 3.51593 5.39965 3.18456Z" fill="#999999"/>
<path d="M5.10001 8.40151C4.93432 8.40151 4.80001 8.53582 4.80001 8.70151C4.80001 8.86719 4.93432 9.00151 5.10001 9.00151H6.90001C7.06569 9.00151 7.20001 8.86719 7.20001 8.70151C7.20001 8.53582 7.06569 8.40151 6.90001 8.40151H6.4567V4.86258C6.4567 4.66296 6.32673 4.4937 6.14679 4.43481C6.11211 4.42081 6.07422 4.4131 6.03453 4.4131H6.0286C6.02135 4.41276 6.01404 4.41258 6.0067 4.41258C5.99936 4.41258 5.99206 4.41276 5.9848 4.4131H5.33857C5.17288 4.4131 5.03857 4.54742 5.03857 4.7131C5.03857 4.87879 5.17288 5.0131 5.33857 5.0131H5.5567V8.40151H5.10001Z" fill="#999999"/>
<path d="M0 6C0 9.31371 2.68629 12 6 12C9.31371 12 12 9.31371 12 6C12 2.68629 9.31371 0 6 0C2.68629 0 0 2.68629 0 6ZM11.4 6.00001C11.4 8.98235 8.98232 11.4 5.99998 11.4C3.01765 11.4 0.599984 8.98235 0.599984 6.00001C0.599984 3.01767 3.01765 0.60001 5.99998 0.60001C8.98232 0.60001 11.4 3.01767 11.4 6.00001Z" fill="#999999"/>
</svg>
