<svg width="33" height="33" viewBox="0 0 33 33" fill="none" xmlns="http://www.w3.org/2000/svg">
<path d="M15.4147 8.3777H17.63V20.1931H15.4147V8.3777Z" fill="#CCCCCC"/>
<path d="M16.4998 21.6769C15.6841 21.6769 15.0228 22.3381 15.0228 23.1538C15.0228 23.9695 15.6841 24.6308 16.4998 24.6308C17.3154 24.6308 17.9767 23.9695 17.9767 23.1538C17.9767 22.3381 17.3154 21.6769 16.4998 21.6769Z" fill="#CCCCCC"/>
<path fill-rule="evenodd" clip-rule="evenodd" d="M0.5 16.5C0.5 7.66344 7.66344 0.5 16.5 0.5C25.3366 0.5 32.5 7.66344 32.5 16.5C32.5 25.3366 25.3366 32.5 16.5 32.5C7.66344 32.5 0.5 25.3366 0.5 16.5ZM16.5 2.96154C9.02291 2.96154 2.96154 9.02291 2.96154 16.5C2.96154 23.9771 9.02291 30.0385 16.5 30.0385C23.9771 30.0385 30.0385 23.9771 30.0385 16.5C30.0385 9.02291 23.9771 2.96154 16.5 2.96154Z" fill="#CCCCCC"/>
</svg>
