<svg id="删除.svg" xmlns="http://www.w3.org/2000/svg" width="40" height="40" viewBox="0 0 40 40">
  <metadata><?xpacket begin="﻿" id="W5M0MpCehiHzreSzNTczkc9d"?>
<x:xmpmeta xmlns:x="adobe:ns:meta/" x:xmptk="Adobe XMP Core 5.6-c138 79.159824, 2016/09/14-01:09:01        ">
   <rdf:RDF xmlns:rdf="http://www.w3.org/1999/02/22-rdf-syntax-ns#">
      <rdf:Description rdf:about=""/>
   </rdf:RDF>
</x:xmpmeta>
                                                                                                    
                                                                                                    
                                                                                                    
                                                                                                    
                                                                                                    
                                                                                                    
                                                                                                    
                                                                                                    
                                                                                                    
                                                                                                    
                                                                                                    
                                                                                                    
                                                                                                    
                                                                                                    
                                                                                                    
                                                                                                    
                                                                                                    
                                                                                                    
                                                                                                    
                                                                                                    
                           
<?xpacket end="w"?></metadata>
<defs>
    <style>
      .cls-1 {
        fill: #ff867f;
        fill-rule: evenodd;
      }
    </style>
  </defs>
  <path id="矩形_51_拷贝_12" data-name="矩形 51 拷贝 12" class="cls-1" d="M431,2464H395a2,2,0,0,1-2-2v-36a2,2,0,0,1,2-2h36a2,2,0,0,1,2,2v36A2,2,0,0,1,431,2464Zm1-38a1,1,0,0,0-1-1H395a1,1,0,0,0-1,1v36a1,1,0,0,0,1,1h36a1,1,0,0,0,1-1v-36Z" transform="translate(-393 -2424)"/>
  <path id="矩形_51_拷贝_13" data-name="矩形 51 拷贝 13" class="cls-1" d="M418.657,2451.07L413,2445.41l-5.657,5.66-1.414-1.41,5.657-5.66-5.657-5.66,1.414-1.41,5.657,5.66,5.657-5.66,1.414,1.41-5.657,5.66,5.657,5.66Z" transform="translate(-393 -2424)"/>
</svg>
