<svg width="200" height="18" viewBox="0 0 200 18" fill="none" xmlns="http://www.w3.org/2000/svg">
<path d="M9.35156 11.179L7.16497 8.99243L9.35156 6.80584L8.98713 6.44141L6.43611 8.99243L8.98713 11.5434L9.35156 11.179Z" fill="#CCCCCC"/>
<path d="M2.04082 1.34687H14.2857V0.326466H2.04082V1.34687ZM15.8163 2.87749V15.1224H16.8367V2.87749H15.8163ZM14.2857 16.653H2.04082V17.6734H14.2857V16.653ZM0.510204 15.1224V2.87749H-0.510204V15.1224H0.510204ZM2.04082 16.653C1.19548 16.653 0.510204 15.9677 0.510204 15.1224H-0.510204C-0.510204 16.5313 0.631925 17.6734 2.04082 17.6734V16.653ZM15.8163 15.1224C15.8163 15.9677 15.131 16.653 14.2857 16.653V17.6734C15.6946 17.6734 16.8367 16.5313 16.8367 15.1224H15.8163ZM14.2857 1.34687C15.131 1.34687 15.8163 2.03215 15.8163 2.87749H16.8367C16.8367 1.4686 15.6946 0.326466 14.2857 0.326466V1.34687ZM2.04082 0.326466C0.631927 0.326466 -0.510204 1.4686 -0.510204 2.87749H0.510204C0.510204 2.03215 1.19548 1.34687 2.04082 1.34687V0.326466Z" fill="#E5E5E5"/>
<path d="M20.4082 2.87749C20.4082 1.75037 21.3219 0.83667 22.449 0.83667H34.6939C35.821 0.83667 36.7347 1.75037 36.7347 2.87749V15.1224C36.7347 16.2495 35.821 17.1632 34.6939 17.1632H22.449C21.3219 17.1632 20.4082 16.2495 20.4082 15.1224V2.87749Z" fill="#337EFF"/>
<path d="M28.7141 5.9C28.5427 6.09286 28.3427 6.26429 28.0999 6.42143C27.857 6.56429 27.6141 6.66429 27.3856 6.72857V7.31429C27.8641 7.17143 28.2641 6.94286 28.5856 6.61429V11H29.1713V5.9H28.7141Z" fill="white"/>
<path d="M48.6938 5.8C48.1795 5.8 47.7581 5.97143 47.4438 6.31429C47.1295 6.65 46.9652 7.10714 46.9652 7.67857H47.5509C47.5581 7.22857 47.6652 6.88571 47.8652 6.65714C48.0509 6.41429 48.3223 6.3 48.6723 6.3C49.0009 6.3 49.2652 6.38571 49.4509 6.55714C49.6366 6.72857 49.7295 6.96429 49.7295 7.27857C49.7295 7.60714 49.5938 7.91429 49.3366 8.19286C49.2009 8.33571 48.9366 8.54286 48.5366 8.82857C47.9938 9.2 47.6295 9.50714 47.4295 9.73571C47.0866 10.1143 46.9223 10.5357 46.9223 11H50.3223V10.4786H47.6438C47.7366 10.1357 48.1081 9.74286 48.7581 9.30714C49.2866 8.95 49.6366 8.67143 49.8152 8.48571C50.1438 8.12857 50.3152 7.72857 50.3152 7.28571C50.3152 6.84286 50.1581 6.47857 49.8581 6.20714C49.5509 5.93571 49.1652 5.8 48.6938 5.8Z" fill="#333333"/>
<path d="M42.8572 1.34687H55.1021V0.326466H42.8572V1.34687ZM56.6327 2.87749V15.1224H57.6531V2.87749H56.6327ZM55.1021 16.653H42.8572V17.6734H55.1021V16.653ZM41.3266 15.1224V2.87749H40.3062V15.1224H41.3266ZM42.8572 16.653C42.0119 16.653 41.3266 15.9677 41.3266 15.1224H40.3062C40.3062 16.5313 41.4483 17.6734 42.8572 17.6734V16.653ZM56.6327 15.1224C56.6327 15.9677 55.9475 16.653 55.1021 16.653V17.6734C56.511 17.6734 57.6531 16.5313 57.6531 15.1224H56.6327ZM55.1021 1.34687C55.9475 1.34687 56.6327 2.03215 56.6327 2.87749H57.6531C57.6531 1.4686 56.511 0.326466 55.1021 0.326466V1.34687ZM42.8572 0.326466C41.4483 0.326466 40.3062 1.4686 40.3062 2.87749H41.3266C41.3266 2.03215 42.0119 1.34687 42.8572 1.34687V0.326466Z" fill="#E5E5E5"/>
<path d="M69.0806 5.8C68.5948 5.8 68.202 5.93571 67.902 6.21429C67.5877 6.49286 67.402 6.87857 67.3591 7.37143H67.9377C67.9734 7.02857 68.0877 6.76429 68.2877 6.57857C68.4806 6.39286 68.7448 6.30714 69.0877 6.30714C69.4163 6.30714 69.6806 6.38571 69.8663 6.55714C70.0377 6.71429 70.1306 6.93571 70.1306 7.22143C70.1306 7.50714 70.0377 7.72857 69.8591 7.88571C69.6806 8.03571 69.4234 8.11429 69.0806 8.11429H68.6877V8.57143H69.102C69.4591 8.57143 69.7306 8.65 69.9306 8.82143C70.1306 8.99286 70.2306 9.22857 70.2306 9.53571C70.2306 9.83571 70.1234 10.0857 69.9234 10.2857C69.702 10.4929 69.4091 10.6 69.0448 10.6C68.7234 10.6 68.4591 10.5071 68.2448 10.3357C67.9948 10.1286 67.8591 9.82143 67.8448 9.42143H67.252C67.2948 9.99286 67.4948 10.4286 67.8591 10.7286C68.1663 10.9714 68.5591 11.1 69.0448 11.1C69.5734 11.1 70.002 10.95 70.3306 10.65C70.652 10.3571 70.8163 9.97857 70.8163 9.51429C70.8163 9.21429 70.7306 8.96429 70.5591 8.76429C70.402 8.56429 70.1734 8.42143 69.8734 8.32857C70.4306 8.14286 70.7091 7.75714 70.7091 7.18571C70.7091 6.75714 70.5591 6.42143 70.2663 6.17143C69.9663 5.92143 69.5663 5.8 69.0806 5.8Z" fill="#333333"/>
<path d="M63.2654 1.34687H75.5103V0.326466H63.2654V1.34687ZM77.0409 2.87749V15.1224H78.0613V2.87749H77.0409ZM75.5103 16.653H63.2654V17.6734H75.5103V16.653ZM61.7348 15.1224V2.87749H60.7144V15.1224H61.7348ZM63.2654 16.653C62.4201 16.653 61.7348 15.9677 61.7348 15.1224H60.7144C60.7144 16.5313 61.8565 17.6734 63.2654 17.6734V16.653ZM77.0409 15.1224C77.0409 15.9677 76.3557 16.653 75.5103 16.653V17.6734C76.9192 17.6734 78.0613 16.5313 78.0613 15.1224H77.0409ZM75.5103 1.34687C76.3557 1.34687 77.0409 2.03215 77.0409 2.87749H78.0613C78.0613 1.4686 76.9192 0.326466 75.5103 0.326466V1.34687ZM63.2654 0.326466C61.8565 0.326466 60.7144 1.4686 60.7144 2.87749H61.7348C61.7348 2.03215 62.4201 1.34687 63.2654 1.34687V0.326466Z" fill="#E5E5E5"/>
<path d="M90.0388 5.9L87.4673 9.28571V9.84286H90.0316V11H90.5888V9.84286H91.4173V9.36429H90.5888V5.9H90.0388ZM90.0102 6.66429H90.0316V9.36429H87.9602L90.0102 6.66429Z" fill="#333333"/>
<path d="M83.6736 1.34687H95.9185V0.326466H83.6736V1.34687ZM97.4491 2.87749V15.1224H98.4695V2.87749H97.4491ZM95.9185 16.653H83.6736V17.6734H95.9185V16.653ZM82.143 15.1224V2.87749H81.1226V15.1224H82.143ZM83.6736 16.653C82.8283 16.653 82.143 15.9677 82.143 15.1224H81.1226C81.1226 16.5313 82.2647 17.6734 83.6736 17.6734V16.653ZM97.4491 15.1224C97.4491 15.9677 96.7639 16.653 95.9185 16.653V17.6734C97.3274 17.6734 98.4695 16.5313 98.4695 15.1224H97.4491ZM95.9185 1.34687C96.7639 1.34687 97.4491 2.03215 97.4491 2.87749H98.4695C98.4695 1.4686 97.3274 0.326466 95.9185 0.326466V1.34687ZM83.6736 0.326466C82.2647 0.326466 81.1226 1.4686 81.1226 2.87749H82.143C82.143 2.03215 82.8283 1.34687 83.6736 1.34687V0.326466Z" fill="#E5E5E5"/>
<path d="M108.454 5.9L108.183 8.71429H108.74C108.84 8.51429 108.997 8.35714 109.197 8.25714C109.39 8.15 109.604 8.1 109.847 8.1C110.218 8.1 110.511 8.20714 110.718 8.43571C110.933 8.65714 111.047 8.97143 111.047 9.37857C111.047 9.73571 110.926 10.0286 110.697 10.2571C110.461 10.4857 110.168 10.6 109.811 10.6C109.497 10.6 109.233 10.5214 109.033 10.3714C108.804 10.2 108.676 9.95 108.647 9.62857H108.068C108.104 10.0929 108.297 10.4643 108.654 10.7357C108.968 10.9786 109.354 11.1 109.804 11.1C110.304 11.1 110.733 10.9429 111.076 10.6357C111.44 10.3071 111.626 9.88571 111.626 9.37143C111.626 8.82143 111.468 8.39286 111.168 8.07857C110.868 7.77143 110.476 7.62143 109.99 7.62143C109.754 7.62143 109.54 7.65714 109.34 7.74286C109.118 7.82857 108.933 7.95714 108.79 8.12857H108.761L108.933 6.42143H111.418V5.9H108.454Z" fill="#333333"/>
<path d="M104.082 1.34687H116.327V0.326466H104.082V1.34687ZM117.857 2.87749V15.1224H118.878V2.87749H117.857ZM116.327 16.653H104.082V17.6734H116.327V16.653ZM102.551 15.1224V2.87749H101.531V15.1224H102.551ZM104.082 16.653C103.236 16.653 102.551 15.9677 102.551 15.1224H101.531C101.531 16.5313 102.673 17.6734 104.082 17.6734V16.653ZM117.857 15.1224C117.857 15.9677 117.172 16.653 116.327 16.653V17.6734C117.736 17.6734 118.878 16.5313 118.878 15.1224H117.857ZM116.327 1.34687C117.172 1.34687 117.857 2.03215 117.857 2.87749H118.878C118.878 1.4686 117.736 0.326466 116.327 0.326466V1.34687ZM104.082 0.326466C102.673 0.326466 101.531 1.4686 101.531 2.87749H102.551C102.551 2.03215 103.236 1.34687 104.082 1.34687V0.326466Z" fill="#E5E5E5"/>
<path d="M128.227 8.57495C128.105 8.57495 128.005 8.61067 127.927 8.69638C127.841 8.77495 127.798 8.87495 127.798 8.99638C127.798 9.11781 127.841 9.21781 127.927 9.30352C128.005 9.38209 128.105 9.42495 128.227 9.42495C128.348 9.42495 128.455 9.38209 128.541 9.30352C128.62 9.22495 128.663 9.12495 128.663 8.99638C128.663 8.87495 128.62 8.77495 128.541 8.69638C128.455 8.61067 128.355 8.57495 128.227 8.57495ZM130.613 8.57495C130.491 8.57495 130.391 8.61067 130.305 8.69638C130.22 8.77495 130.184 8.87495 130.184 8.99638C130.184 9.11781 130.22 9.21781 130.305 9.30352C130.391 9.38209 130.491 9.42495 130.613 9.42495C130.734 9.42495 130.841 9.38209 130.927 9.30352C131.005 9.22495 131.048 9.12495 131.048 8.99638C131.048 8.87495 131.005 8.77495 130.927 8.69638C130.841 8.61067 130.734 8.57495 130.613 8.57495ZM132.991 8.57495C132.87 8.57495 132.77 8.61067 132.684 8.69638C132.598 8.77495 132.563 8.87495 132.563 8.99638C132.563 9.11781 132.598 9.21781 132.684 9.30352C132.77 9.38209 132.87 9.42495 132.991 9.42495C133.113 9.42495 133.213 9.38209 133.298 9.30352C133.384 9.22495 133.427 9.12495 133.427 8.99638C133.427 8.87495 133.384 8.77495 133.298 8.69638C133.213 8.61067 133.113 8.57495 132.991 8.57495Z" fill="#333333"/>
<path d="M124.49 1.34687H136.735V0.326466H124.49V1.34687ZM138.266 2.87749V15.1224H139.286V2.87749H138.266ZM136.735 16.653H124.49V17.6734H136.735V16.653ZM122.959 15.1224V2.87749H121.939V15.1224H122.959ZM124.49 16.653C123.645 16.653 122.959 15.9677 122.959 15.1224H121.939C121.939 16.5313 123.081 17.6734 124.49 17.6734V16.653ZM138.266 15.1224C138.266 15.9677 137.58 16.653 136.735 16.653V17.6734C138.144 17.6734 139.286 16.5313 139.286 15.1224H138.266ZM136.735 1.34687C137.58 1.34687 138.266 2.03215 138.266 2.87749H139.286C139.286 1.4686 138.144 0.326466 136.735 0.326466V1.34687ZM124.49 0.326466C123.081 0.326466 121.939 1.4686 121.939 2.87749H122.959C122.959 2.03215 123.645 1.34687 124.49 1.34687V0.326466Z" fill="#E5E5E5"/>
<path d="M148.663 5.9C148.491 6.09286 148.291 6.26429 148.049 6.42143C147.806 6.56429 147.563 6.66429 147.334 6.72857V7.31429C147.813 7.17143 148.213 6.94286 148.534 6.61429V11H149.12V5.9H148.663ZM152.03 5.8C151.415 5.8 150.958 6.06429 150.651 6.60714C150.38 7.06429 150.244 7.67857 150.244 8.45C150.244 9.22143 150.38 9.83571 150.651 10.2929C150.958 10.8286 151.415 11.1 152.03 11.1C152.637 11.1 153.094 10.8286 153.408 10.2929C153.68 9.83571 153.815 9.22143 153.815 8.45C153.815 7.67857 153.68 7.06429 153.408 6.60714C153.094 6.06429 152.637 5.8 152.03 5.8ZM152.03 6.3C152.487 6.3 152.815 6.54286 153.015 7.03571C153.158 7.37857 153.237 7.85 153.237 8.45C153.237 9.04286 153.158 9.51429 153.015 9.86429C152.815 10.35 152.487 10.6 152.03 10.6C151.573 10.6 151.244 10.35 151.044 9.86429C150.901 9.51429 150.83 9.04286 150.83 8.45C150.83 7.85 150.901 7.37857 151.044 7.03571C151.244 6.54286 151.573 6.3 152.03 6.3Z" fill="#333333"/>
<path d="M144.898 1.34687H157.143V0.326466H144.898V1.34687ZM158.673 2.87749V15.1224H159.694V2.87749H158.673ZM157.143 16.653H144.898V17.6734H157.143V16.653ZM143.367 15.1224V2.87749H142.347V15.1224H143.367ZM144.898 16.653C144.052 16.653 143.367 15.9677 143.367 15.1224H142.347C142.347 16.5313 143.489 17.6734 144.898 17.6734V16.653ZM158.673 15.1224C158.673 15.9677 157.988 16.653 157.143 16.653V17.6734C158.552 17.6734 159.694 16.5313 159.694 15.1224H158.673ZM157.143 1.34687C157.988 1.34687 158.673 2.03215 158.673 2.87749H159.694C159.694 1.4686 158.552 0.326466 157.143 0.326466V1.34687ZM144.898 0.326466C143.489 0.326466 142.347 1.4686 142.347 2.87749H143.367C143.367 2.03215 144.052 1.34687 144.898 1.34687V0.326466Z" fill="#E5E5E5"/>
<path d="M170.071 5.9C169.9 6.09286 169.7 6.26429 169.457 6.42143C169.214 6.56429 168.971 6.66429 168.743 6.72857V7.31429C169.221 7.17143 169.621 6.94286 169.943 6.61429V11H170.528V5.9H170.071ZM172.938 5.9C172.767 6.09286 172.567 6.26429 172.324 6.42143C172.081 6.56429 171.838 6.66429 171.609 6.72857V7.31429C172.088 7.17143 172.488 6.94286 172.809 6.61429V11H173.395V5.9H172.938Z" fill="#333333"/>
<path d="M165.306 1.34687H177.551V0.326466H165.306V1.34687ZM179.081 2.87749V15.1224H180.102V2.87749H179.081ZM177.551 16.653H165.306V17.6734H177.551V16.653ZM163.775 15.1224V2.87749H162.755V15.1224H163.775ZM165.306 16.653C164.461 16.653 163.775 15.9677 163.775 15.1224H162.755C162.755 16.5313 163.897 17.6734 165.306 17.6734V16.653ZM179.081 15.1224C179.081 15.9677 178.396 16.653 177.551 16.653V17.6734C178.96 17.6734 180.102 16.5313 180.102 15.1224H179.081ZM177.551 1.34687C178.396 1.34687 179.081 2.03215 179.081 2.87749H180.102C180.102 1.4686 178.96 0.326466 177.551 0.326466V1.34687ZM165.306 0.326466C163.897 0.326466 162.755 1.4686 162.755 2.87749H163.775C163.775 2.03215 164.461 1.34687 165.306 1.34687V0.326466Z" fill="#E5E5E5"/>
<path d="M190.648 11.179L192.835 8.99243L190.648 6.80584L191.013 6.44141L193.564 8.99243L191.013 11.5434L190.648 11.179Z" fill="#333333"/>
<path d="M197.959 1.34687H185.714V0.326466H197.959V1.34687ZM184.184 2.87749V15.1224H183.163V2.87749H184.184ZM185.714 16.653H197.959V17.6734H185.714V16.653ZM199.49 15.1224V2.87749H200.51V15.1224H199.49ZM197.959 16.653C198.805 16.653 199.49 15.9677 199.49 15.1224H200.51C200.51 16.5313 199.368 17.6734 197.959 17.6734V16.653ZM184.184 15.1224C184.184 15.9677 184.869 16.653 185.714 16.653V17.6734C184.305 17.6734 183.163 16.5313 183.163 15.1224H184.184ZM185.714 1.34687C184.869 1.34687 184.184 2.03215 184.184 2.87749H183.163C183.163 1.4686 184.305 0.326466 185.714 0.326466V1.34687ZM197.959 0.326466C199.368 0.326466 200.51 1.4686 200.51 2.87749H199.49C199.49 2.03215 198.805 1.34687 197.959 1.34687V0.326466Z" fill="#E5E5E5"/>
</svg>
