<svg width="467" height="200" viewBox="0 0 467 200" fill="none" xmlns="http://www.w3.org/2000/svg">
<rect x="0.5" y="0.5" width="81" height="31" rx="3.5" fill="white"/>
<path d="M25.7495 9.99988C25.7495 9.99988 25.4142 10 25 10C24.5858 10 24.2495 9.99988 24.2495 9.99988L24.2495 15.2499H18.9995C18.9995 15.2499 18.9995 15.5858 18.9995 16C18.9995 16.4142 18.9995 16.7499 18.9995 16.7499H24.2495V21.9999C24.2495 21.9999 24.5853 21.9999 24.9995 21.9999C25.4137 21.9999 25.7495 21.9999 25.7495 21.9999L25.7495 16.7499H30.9995C30.9995 16.7499 30.9995 16.4141 30.9995 15.9999C30.9995 15.5857 30.9995 15.2499 30.9995 15.2499H25.7495L25.7495 9.99988Z" fill="#337EFF"/>
<path d="M49.516 9.702C48.158 10.29 46.632 10.612 44.938 10.64V16.632C44.868 18.76 44.42 20.426 43.594 21.63L44.308 22.386C45.316 20.958 45.848 19.04 45.918 16.632V14.966H47.99V22.442H48.984V14.966H50.44V14H45.918V11.452C47.43 11.368 48.788 11.074 50.02 10.598L49.516 9.702ZM37.854 10.78V11.704H44.168V10.78H41.522C41.326 10.276 41.13 9.814 40.92 9.394L39.884 9.562C40.122 9.926 40.332 10.332 40.528 10.78H37.854ZM37.714 13.958V14.868H40.542V16.436H37.938V17.36H40.542V21.084C40.542 21.42 40.36 21.588 39.996 21.588C39.8 21.588 39.59 21.56 39.366 21.518L39.576 22.456H40.332C41.144 22.456 41.55 22.078 41.55 21.322V17.36H44.014V16.436H41.55V14.868H44.252V13.958H42.67C42.936 13.482 43.174 12.936 43.398 12.334L42.488 12.026C42.278 12.698 42.04 13.342 41.76 13.958H40.22C39.996 13.202 39.744 12.572 39.478 12.054L38.582 12.376C38.862 12.866 39.114 13.398 39.324 13.958H37.714ZM38.918 18.116C38.61 19.348 38.134 20.468 37.476 21.476L38.316 22.008C38.96 20.958 39.478 19.726 39.842 18.312L38.918 18.116ZM42.936 18.018L42.096 18.242C42.488 19.082 42.81 19.95 43.076 20.832L43.916 20.51C43.692 19.754 43.356 18.928 42.936 18.018ZM63.236 15.302V13.342H64.174V12.502H63.236V10.556H60.24V9.534H59.26V10.556H56.81V11.396H59.26V12.502H56.124V13.342H59.26V14.462H56.81V15.302H59.26V16.422H56.516V17.248H59.26V18.41H56.082V19.264H59.26V20.65H60.24V19.264H63.922V18.41H60.24V17.248H63.516V16.422H60.24V15.302H63.236ZM60.24 11.396H62.256V12.502H60.24V11.396ZM60.24 13.342H62.256V14.462H60.24V13.342ZM59.582 21.154C57.678 21.126 56.236 20.86 55.284 20.328C55.046 20.188 54.822 20.006 54.598 19.768C55.27 18.48 55.648 16.912 55.704 15.064V14.462H53.506C54.178 13.51 54.878 12.404 55.578 11.116V10.29H52.148V11.242H54.444C53.772 12.446 53.016 13.566 52.204 14.602V15.386H54.794C54.71 16.716 54.43 17.878 53.954 18.872C53.59 18.256 53.254 17.444 52.974 16.45L52.134 16.758C52.47 17.962 52.918 18.956 53.464 19.74C53.016 20.384 52.47 20.944 51.812 21.42L52.47 22.274C53.114 21.784 53.674 21.21 54.122 20.552C54.262 20.692 54.416 20.818 54.598 20.958C55.69 21.686 57.496 22.05 60.016 22.05H64.16L64.328 21.084C62.704 21.126 61.122 21.154 59.582 21.154Z" fill="#337EFF"/>
<rect x="0.5" y="0.5" width="81" height="31" rx="3.5" stroke="#337EFF"/>
<rect x="0.5" y="56.5" width="81" height="31" rx="3.5" fill="white"/>
<path d="M25.7495 65.9999C25.7495 65.9999 25.4142 66 25 66C24.5858 66 24.2495 65.9999 24.2495 65.9999L24.2495 71.2499H18.9995C18.9995 71.2499 18.9995 71.5858 18.9995 72C18.9995 72.4142 18.9995 72.7499 18.9995 72.7499H24.2495V77.9999C24.2495 77.9999 24.5853 77.9999 24.9995 77.9999C25.4137 77.9999 25.7495 77.9999 25.7495 77.9999L25.7495 72.7499H30.9995C30.9995 72.7499 30.9995 72.4141 30.9995 71.9999C30.9995 71.5857 30.9995 71.2499 30.9995 71.2499H25.7495L25.7495 65.9999Z" fill="#337EFF"/>
<path d="M49.516 65.702C48.158 66.29 46.632 66.612 44.938 66.64V72.632C44.868 74.76 44.42 76.426 43.594 77.63L44.308 78.386C45.316 76.958 45.848 75.04 45.918 72.632V70.966H47.99V78.442H48.984V70.966H50.44V70H45.918V67.452C47.43 67.368 48.788 67.074 50.02 66.598L49.516 65.702ZM37.854 66.78V67.704H44.168V66.78H41.522C41.326 66.276 41.13 65.814 40.92 65.394L39.884 65.562C40.122 65.926 40.332 66.332 40.528 66.78H37.854ZM37.714 69.958V70.868H40.542V72.436H37.938V73.36H40.542V77.084C40.542 77.42 40.36 77.588 39.996 77.588C39.8 77.588 39.59 77.56 39.366 77.518L39.576 78.456H40.332C41.144 78.456 41.55 78.078 41.55 77.322V73.36H44.014V72.436H41.55V70.868H44.252V69.958H42.67C42.936 69.482 43.174 68.936 43.398 68.334L42.488 68.026C42.278 68.698 42.04 69.342 41.76 69.958H40.22C39.996 69.202 39.744 68.572 39.478 68.054L38.582 68.376C38.862 68.866 39.114 69.398 39.324 69.958H37.714ZM38.918 74.116C38.61 75.348 38.134 76.468 37.476 77.476L38.316 78.008C38.96 76.958 39.478 75.726 39.842 74.312L38.918 74.116ZM42.936 74.018L42.096 74.242C42.488 75.082 42.81 75.95 43.076 76.832L43.916 76.51C43.692 75.754 43.356 74.928 42.936 74.018ZM63.236 71.302V69.342H64.174V68.502H63.236V66.556H60.24V65.534H59.26V66.556H56.81V67.396H59.26V68.502H56.124V69.342H59.26V70.462H56.81V71.302H59.26V72.422H56.516V73.248H59.26V74.41H56.082V75.264H59.26V76.65H60.24V75.264H63.922V74.41H60.24V73.248H63.516V72.422H60.24V71.302H63.236ZM60.24 67.396H62.256V68.502H60.24V67.396ZM60.24 69.342H62.256V70.462H60.24V69.342ZM59.582 77.154C57.678 77.126 56.236 76.86 55.284 76.328C55.046 76.188 54.822 76.006 54.598 75.768C55.27 74.48 55.648 72.912 55.704 71.064V70.462H53.506C54.178 69.51 54.878 68.404 55.578 67.116V66.29H52.148V67.242H54.444C53.772 68.446 53.016 69.566 52.204 70.602V71.386H54.794C54.71 72.716 54.43 73.878 53.954 74.872C53.59 74.256 53.254 73.444 52.974 72.45L52.134 72.758C52.47 73.962 52.918 74.956 53.464 75.74C53.016 76.384 52.47 76.944 51.812 77.42L52.47 78.274C53.114 77.784 53.674 77.21 54.122 76.552C54.262 76.692 54.416 76.818 54.598 76.958C55.69 77.686 57.496 78.05 60.016 78.05H64.16L64.328 77.084C62.704 77.126 61.122 77.154 59.582 77.154Z" fill="#337EFF"/>
<rect x="0.5" y="56.5" width="81" height="31" rx="3.5" stroke="#337EFF"/>
<rect x="0.5" y="112.5" width="81" height="31" rx="3.5" fill="white"/>
<path d="M25.7495 122C25.7495 122 25.4142 122 25 122C24.5858 122 24.2495 122 24.2495 122L24.2495 127.25H18.9995C18.9995 127.25 18.9995 127.586 18.9995 128C18.9995 128.414 18.9995 128.75 18.9995 128.75H24.2495V134C24.2495 134 24.5853 134 24.9995 134C25.4137 134 25.7495 134 25.7495 134L25.7495 128.75H30.9995C30.9995 128.75 30.9995 128.414 30.9995 128C30.9995 127.586 30.9995 127.25 30.9995 127.25H25.7495L25.7495 122Z" fill="#337EFF"/>
<path d="M49.516 121.702C48.158 122.29 46.632 122.612 44.938 122.64V128.632C44.868 130.76 44.42 132.426 43.594 133.63L44.308 134.386C45.316 132.958 45.848 131.04 45.918 128.632V126.966H47.99V134.442H48.984V126.966H50.44V126H45.918V123.452C47.43 123.368 48.788 123.074 50.02 122.598L49.516 121.702ZM37.854 122.78V123.704H44.168V122.78H41.522C41.326 122.276 41.13 121.814 40.92 121.394L39.884 121.562C40.122 121.926 40.332 122.332 40.528 122.78H37.854ZM37.714 125.958V126.868H40.542V128.436H37.938V129.36H40.542V133.084C40.542 133.42 40.36 133.588 39.996 133.588C39.8 133.588 39.59 133.56 39.366 133.518L39.576 134.456H40.332C41.144 134.456 41.55 134.078 41.55 133.322V129.36H44.014V128.436H41.55V126.868H44.252V125.958H42.67C42.936 125.482 43.174 124.936 43.398 124.334L42.488 124.026C42.278 124.698 42.04 125.342 41.76 125.958H40.22C39.996 125.202 39.744 124.572 39.478 124.054L38.582 124.376C38.862 124.866 39.114 125.398 39.324 125.958H37.714ZM38.918 130.116C38.61 131.348 38.134 132.468 37.476 133.476L38.316 134.008C38.96 132.958 39.478 131.726 39.842 130.312L38.918 130.116ZM42.936 130.018L42.096 130.242C42.488 131.082 42.81 131.95 43.076 132.832L43.916 132.51C43.692 131.754 43.356 130.928 42.936 130.018ZM63.236 127.302V125.342H64.174V124.502H63.236V122.556H60.24V121.534H59.26V122.556H56.81V123.396H59.26V124.502H56.124V125.342H59.26V126.462H56.81V127.302H59.26V128.422H56.516V129.248H59.26V130.41H56.082V131.264H59.26V132.65H60.24V131.264H63.922V130.41H60.24V129.248H63.516V128.422H60.24V127.302H63.236ZM60.24 123.396H62.256V124.502H60.24V123.396ZM60.24 125.342H62.256V126.462H60.24V125.342ZM59.582 133.154C57.678 133.126 56.236 132.86 55.284 132.328C55.046 132.188 54.822 132.006 54.598 131.768C55.27 130.48 55.648 128.912 55.704 127.064V126.462H53.506C54.178 125.51 54.878 124.404 55.578 123.116V122.29H52.148V123.242H54.444C53.772 124.446 53.016 125.566 52.204 126.602V127.386H54.794C54.71 128.716 54.43 129.878 53.954 130.872C53.59 130.256 53.254 129.444 52.974 128.45L52.134 128.758C52.47 129.962 52.918 130.956 53.464 131.74C53.016 132.384 52.47 132.944 51.812 133.42L52.47 134.274C53.114 133.784 53.674 133.21 54.122 132.552C54.262 132.692 54.416 132.818 54.598 132.958C55.69 133.686 57.496 134.05 60.016 134.05H64.16L64.328 133.084C62.704 133.126 61.122 133.154 59.582 133.154Z" fill="#337EFF"/>
<rect x="0.5" y="112.5" width="81" height="31" rx="3.5" stroke="#337EFF"/>
<rect x="0.5" y="168.5" width="81" height="31" rx="3.5" fill="white"/>
<path d="M25.7495 178C25.7495 178 25.4142 178 25 178C24.5858 178 24.2495 178 24.2495 178L24.2495 183.25H18.9995C18.9995 183.25 18.9995 183.586 18.9995 184C18.9995 184.414 18.9995 184.75 18.9995 184.75H24.2495V190C24.2495 190 24.5853 190 24.9995 190C25.4137 190 25.7495 190 25.7495 190L25.7495 184.75H30.9995C30.9995 184.75 30.9995 184.414 30.9995 184C30.9995 183.586 30.9995 183.25 30.9995 183.25H25.7495L25.7495 178Z" fill="#337EFF"/>
<path d="M49.516 177.702C48.158 178.29 46.632 178.612 44.938 178.64V184.632C44.868 186.76 44.42 188.426 43.594 189.63L44.308 190.386C45.316 188.958 45.848 187.04 45.918 184.632V182.966H47.99V190.442H48.984V182.966H50.44V182H45.918V179.452C47.43 179.368 48.788 179.074 50.02 178.598L49.516 177.702ZM37.854 178.78V179.704H44.168V178.78H41.522C41.326 178.276 41.13 177.814 40.92 177.394L39.884 177.562C40.122 177.926 40.332 178.332 40.528 178.78H37.854ZM37.714 181.958V182.868H40.542V184.436H37.938V185.36H40.542V189.084C40.542 189.42 40.36 189.588 39.996 189.588C39.8 189.588 39.59 189.56 39.366 189.518L39.576 190.456H40.332C41.144 190.456 41.55 190.078 41.55 189.322V185.36H44.014V184.436H41.55V182.868H44.252V181.958H42.67C42.936 181.482 43.174 180.936 43.398 180.334L42.488 180.026C42.278 180.698 42.04 181.342 41.76 181.958H40.22C39.996 181.202 39.744 180.572 39.478 180.054L38.582 180.376C38.862 180.866 39.114 181.398 39.324 181.958H37.714ZM38.918 186.116C38.61 187.348 38.134 188.468 37.476 189.476L38.316 190.008C38.96 188.958 39.478 187.726 39.842 186.312L38.918 186.116ZM42.936 186.018L42.096 186.242C42.488 187.082 42.81 187.95 43.076 188.832L43.916 188.51C43.692 187.754 43.356 186.928 42.936 186.018ZM63.236 183.302V181.342H64.174V180.502H63.236V178.556H60.24V177.534H59.26V178.556H56.81V179.396H59.26V180.502H56.124V181.342H59.26V182.462H56.81V183.302H59.26V184.422H56.516V185.248H59.26V186.41H56.082V187.264H59.26V188.65H60.24V187.264H63.922V186.41H60.24V185.248H63.516V184.422H60.24V183.302H63.236ZM60.24 179.396H62.256V180.502H60.24V179.396ZM60.24 181.342H62.256V182.462H60.24V181.342ZM59.582 189.154C57.678 189.126 56.236 188.86 55.284 188.328C55.046 188.188 54.822 188.006 54.598 187.768C55.27 186.48 55.648 184.912 55.704 183.064V182.462H53.506C54.178 181.51 54.878 180.404 55.578 179.116V178.29H52.148V179.242H54.444C53.772 180.446 53.016 181.566 52.204 182.602V183.386H54.794C54.71 184.716 54.43 185.878 53.954 186.872C53.59 186.256 53.254 185.444 52.974 184.45L52.134 184.758C52.47 185.962 52.918 186.956 53.464 187.74C53.016 188.384 52.47 188.944 51.812 189.42L52.47 190.274C53.114 189.784 53.674 189.21 54.122 188.552C54.262 188.692 54.416 188.818 54.598 188.958C55.69 189.686 57.496 190.05 60.016 190.05H64.16L64.328 189.084C62.704 189.126 61.122 189.154 59.582 189.154Z" fill="#337EFF"/>
<rect x="0.5" y="168.5" width="81" height="31" rx="3.5" stroke="#337EFF"/>
<rect x="94.5" y="0.5" width="81" height="31" rx="3.5" fill="white"/>
<path d="M120.674 9.604V12.25H118.966V13.216H120.674C120.24 14.98 119.526 16.562 118.518 17.934L118.952 19.026C119.652 17.934 120.226 16.73 120.674 15.414V22.386H121.668V15.372C122.088 15.904 122.578 16.604 123.152 17.486L123.726 16.632C123.04 15.778 122.354 14.994 121.668 14.294V13.216H123.292V12.25H121.668V9.604H120.674ZM124.804 15.932C124.412 17.668 123.782 19.236 122.914 20.65L123.782 21.21C124.622 19.782 125.28 18.102 125.728 16.142L124.804 15.932ZM129.872 15.862L128.962 16.156C129.508 17.668 130.012 19.39 130.474 21.336L131.384 20.93C130.964 19.138 130.46 17.444 129.872 15.862ZM126.736 22.246C127.548 22.246 127.968 21.826 127.968 21V14.77H131.398V13.804H123.544V14.77H126.96V20.748C126.96 21.154 126.764 21.364 126.386 21.364C125.98 21.364 125.56 21.336 125.112 21.308L125.308 22.246H126.736ZM124.286 10.402V11.354H130.67V10.402H124.286ZM142.276 17.584C141.856 18.9 141.38 20.034 140.834 20.986H133.106V21.924H144.922V20.986H141.912C142.444 20.062 142.892 19.012 143.256 17.85L142.276 17.584ZM135.584 17.752L134.674 18.046C135.122 18.858 135.486 19.712 135.766 20.608L136.676 20.37C136.354 19.39 135.99 18.508 135.584 17.752ZM138.818 17.472L137.894 17.766C138.258 18.634 138.552 19.544 138.79 20.496L139.686 20.258C139.434 19.208 139.14 18.284 138.818 17.472ZM135.374 16.128V17.024H142.64V16.128H135.374ZM134.814 11.662H135.878C136.13 12.208 136.34 12.782 136.522 13.37L137.446 13.034C137.306 12.614 137.11 12.152 136.886 11.662H138.902V10.766H135.22C135.346 10.43 135.472 10.094 135.584 9.73L134.604 9.52C134.212 10.808 133.582 11.984 132.714 13.048L133.582 13.594C134.044 13.006 134.45 12.362 134.814 11.662ZM140.708 11.662H141.926C142.234 12.25 142.514 12.866 142.766 13.496L143.69 13.16C143.508 12.684 143.27 12.194 142.962 11.662H145.188V10.766H141.1C141.212 10.43 141.324 10.094 141.436 9.73L140.47 9.52C140.176 10.612 139.7 11.592 139.042 12.488L139.896 13.034C140.19 12.614 140.456 12.152 140.708 11.662ZM138.678 13.048C137.068 14.238 135.052 15.232 132.644 16.044L133.12 16.912C135.556 16.058 137.516 15.05 139 13.874C140.624 15.134 142.57 16.142 144.866 16.926L145.356 16.058C143.074 15.33 141.058 14.322 139.322 13.048H138.678ZM149.22 11.004C148.884 11.382 148.492 11.718 148.016 12.026C147.54 12.306 147.064 12.502 146.616 12.628V13.776C147.554 13.496 148.338 13.048 148.968 12.404V21H150.116V11.004H149.22Z" fill="#666666"/>
<rect x="94.5" y="0.5" width="81" height="31" rx="3.5" stroke="#E1E3E5"/>
<rect x="94.5" y="56.5" width="81" height="31" rx="3.5" fill="white"/>
<path d="M120.674 65.604V68.25H118.966V69.216H120.674C120.24 70.98 119.526 72.562 118.518 73.934L118.952 75.026C119.652 73.934 120.226 72.73 120.674 71.414V78.386H121.668V71.372C122.088 71.904 122.578 72.604 123.152 73.486L123.726 72.632C123.04 71.778 122.354 70.994 121.668 70.294V69.216H123.292V68.25H121.668V65.604H120.674ZM124.804 71.932C124.412 73.668 123.782 75.236 122.914 76.65L123.782 77.21C124.622 75.782 125.28 74.102 125.728 72.142L124.804 71.932ZM129.872 71.862L128.962 72.156C129.508 73.668 130.012 75.39 130.474 77.336L131.384 76.93C130.964 75.138 130.46 73.444 129.872 71.862ZM126.736 78.246C127.548 78.246 127.968 77.826 127.968 77V70.77H131.398V69.804H123.544V70.77H126.96V76.748C126.96 77.154 126.764 77.364 126.386 77.364C125.98 77.364 125.56 77.336 125.112 77.308L125.308 78.246H126.736ZM124.286 66.402V67.354H130.67V66.402H124.286ZM142.276 73.584C141.856 74.9 141.38 76.034 140.834 76.986H133.106V77.924H144.922V76.986H141.912C142.444 76.062 142.892 75.012 143.256 73.85L142.276 73.584ZM135.584 73.752L134.674 74.046C135.122 74.858 135.486 75.712 135.766 76.608L136.676 76.37C136.354 75.39 135.99 74.508 135.584 73.752ZM138.818 73.472L137.894 73.766C138.258 74.634 138.552 75.544 138.79 76.496L139.686 76.258C139.434 75.208 139.14 74.284 138.818 73.472ZM135.374 72.128V73.024H142.64V72.128H135.374ZM134.814 67.662H135.878C136.13 68.208 136.34 68.782 136.522 69.37L137.446 69.034C137.306 68.614 137.11 68.152 136.886 67.662H138.902V66.766H135.22C135.346 66.43 135.472 66.094 135.584 65.73L134.604 65.52C134.212 66.808 133.582 67.984 132.714 69.048L133.582 69.594C134.044 69.006 134.45 68.362 134.814 67.662ZM140.708 67.662H141.926C142.234 68.25 142.514 68.866 142.766 69.496L143.69 69.16C143.508 68.684 143.27 68.194 142.962 67.662H145.188V66.766H141.1C141.212 66.43 141.324 66.094 141.436 65.73L140.47 65.52C140.176 66.612 139.7 67.592 139.042 68.488L139.896 69.034C140.19 68.614 140.456 68.152 140.708 67.662ZM138.678 69.048C137.068 70.238 135.052 71.232 132.644 72.044L133.12 72.912C135.556 72.058 137.516 71.05 139 69.874C140.624 71.134 142.57 72.142 144.866 72.926L145.356 72.058C143.074 71.33 141.058 70.322 139.322 69.048H138.678ZM149.22 67.004C148.884 67.382 148.492 67.718 148.016 68.026C147.54 68.306 147.064 68.502 146.616 68.628V69.776C147.554 69.496 148.338 69.048 148.968 68.404V77H150.116V67.004H149.22Z" fill="#666666"/>
<rect x="94.5" y="56.5" width="81" height="31" rx="3.5" stroke="#E1E3E5"/>
<rect x="94.5" y="112.5" width="81" height="31" rx="3.5" fill="white"/>
<path d="M120.674 121.604V124.25H118.966V125.216H120.674C120.24 126.98 119.526 128.562 118.518 129.934L118.952 131.026C119.652 129.934 120.226 128.73 120.674 127.414V134.386H121.668V127.372C122.088 127.904 122.578 128.604 123.152 129.486L123.726 128.632C123.04 127.778 122.354 126.994 121.668 126.294V125.216H123.292V124.25H121.668V121.604H120.674ZM124.804 127.932C124.412 129.668 123.782 131.236 122.914 132.65L123.782 133.21C124.622 131.782 125.28 130.102 125.728 128.142L124.804 127.932ZM129.872 127.862L128.962 128.156C129.508 129.668 130.012 131.39 130.474 133.336L131.384 132.93C130.964 131.138 130.46 129.444 129.872 127.862ZM126.736 134.246C127.548 134.246 127.968 133.826 127.968 133V126.77H131.398V125.804H123.544V126.77H126.96V132.748C126.96 133.154 126.764 133.364 126.386 133.364C125.98 133.364 125.56 133.336 125.112 133.308L125.308 134.246H126.736ZM124.286 122.402V123.354H130.67V122.402H124.286ZM142.276 129.584C141.856 130.9 141.38 132.034 140.834 132.986H133.106V133.924H144.922V132.986H141.912C142.444 132.062 142.892 131.012 143.256 129.85L142.276 129.584ZM135.584 129.752L134.674 130.046C135.122 130.858 135.486 131.712 135.766 132.608L136.676 132.37C136.354 131.39 135.99 130.508 135.584 129.752ZM138.818 129.472L137.894 129.766C138.258 130.634 138.552 131.544 138.79 132.496L139.686 132.258C139.434 131.208 139.14 130.284 138.818 129.472ZM135.374 128.128V129.024H142.64V128.128H135.374ZM134.814 123.662H135.878C136.13 124.208 136.34 124.782 136.522 125.37L137.446 125.034C137.306 124.614 137.11 124.152 136.886 123.662H138.902V122.766H135.22C135.346 122.43 135.472 122.094 135.584 121.73L134.604 121.52C134.212 122.808 133.582 123.984 132.714 125.048L133.582 125.594C134.044 125.006 134.45 124.362 134.814 123.662ZM140.708 123.662H141.926C142.234 124.25 142.514 124.866 142.766 125.496L143.69 125.16C143.508 124.684 143.27 124.194 142.962 123.662H145.188V122.766H141.1C141.212 122.43 141.324 122.094 141.436 121.73L140.47 121.52C140.176 122.612 139.7 123.592 139.042 124.488L139.896 125.034C140.19 124.614 140.456 124.152 140.708 123.662ZM138.678 125.048C137.068 126.238 135.052 127.232 132.644 128.044L133.12 128.912C135.556 128.058 137.516 127.05 139 125.874C140.624 127.134 142.57 128.142 144.866 128.926L145.356 128.058C143.074 127.33 141.058 126.322 139.322 125.048H138.678ZM149.22 123.004C148.884 123.382 148.492 123.718 148.016 124.026C147.54 124.306 147.064 124.502 146.616 124.628V125.776C147.554 125.496 148.338 125.048 148.968 124.404V133H150.116V123.004H149.22Z" fill="#666666"/>
<rect x="94.5" y="112.5" width="81" height="31" rx="3.5" stroke="#E1E3E5"/>
<rect x="94.5" y="168.5" width="81" height="31" rx="3.5" fill="white"/>
<path d="M120.674 177.604V180.25H118.966V181.216H120.674C120.24 182.98 119.526 184.562 118.518 185.934L118.952 187.026C119.652 185.934 120.226 184.73 120.674 183.414V190.386H121.668V183.372C122.088 183.904 122.578 184.604 123.152 185.486L123.726 184.632C123.04 183.778 122.354 182.994 121.668 182.294V181.216H123.292V180.25H121.668V177.604H120.674ZM124.804 183.932C124.412 185.668 123.782 187.236 122.914 188.65L123.782 189.21C124.622 187.782 125.28 186.102 125.728 184.142L124.804 183.932ZM129.872 183.862L128.962 184.156C129.508 185.668 130.012 187.39 130.474 189.336L131.384 188.93C130.964 187.138 130.46 185.444 129.872 183.862ZM126.736 190.246C127.548 190.246 127.968 189.826 127.968 189V182.77H131.398V181.804H123.544V182.77H126.96V188.748C126.96 189.154 126.764 189.364 126.386 189.364C125.98 189.364 125.56 189.336 125.112 189.308L125.308 190.246H126.736ZM124.286 178.402V179.354H130.67V178.402H124.286ZM142.276 185.584C141.856 186.9 141.38 188.034 140.834 188.986H133.106V189.924H144.922V188.986H141.912C142.444 188.062 142.892 187.012 143.256 185.85L142.276 185.584ZM135.584 185.752L134.674 186.046C135.122 186.858 135.486 187.712 135.766 188.608L136.676 188.37C136.354 187.39 135.99 186.508 135.584 185.752ZM138.818 185.472L137.894 185.766C138.258 186.634 138.552 187.544 138.79 188.496L139.686 188.258C139.434 187.208 139.14 186.284 138.818 185.472ZM135.374 184.128V185.024H142.64V184.128H135.374ZM134.814 179.662H135.878C136.13 180.208 136.34 180.782 136.522 181.37L137.446 181.034C137.306 180.614 137.11 180.152 136.886 179.662H138.902V178.766H135.22C135.346 178.43 135.472 178.094 135.584 177.73L134.604 177.52C134.212 178.808 133.582 179.984 132.714 181.048L133.582 181.594C134.044 181.006 134.45 180.362 134.814 179.662ZM140.708 179.662H141.926C142.234 180.25 142.514 180.866 142.766 181.496L143.69 181.16C143.508 180.684 143.27 180.194 142.962 179.662H145.188V178.766H141.1C141.212 178.43 141.324 178.094 141.436 177.73L140.47 177.52C140.176 178.612 139.7 179.592 139.042 180.488L139.896 181.034C140.19 180.614 140.456 180.152 140.708 179.662ZM138.678 181.048C137.068 182.238 135.052 183.232 132.644 184.044L133.12 184.912C135.556 184.058 137.516 183.05 139 181.874C140.624 183.134 142.57 184.142 144.866 184.926L145.356 184.058C143.074 183.33 141.058 182.322 139.322 181.048H138.678ZM149.22 179.004C148.884 179.382 148.492 179.718 148.016 180.026C147.54 180.306 147.064 180.502 146.616 180.628V181.776C147.554 181.496 148.338 181.048 148.968 180.404V189H150.116V179.004H149.22Z" fill="#666666"/>
<rect x="94.5" y="168.5" width="81" height="31" rx="3.5" stroke="#E1E3E5"/>
<rect x="188.5" y="0.5" width="84" height="31" rx="3.5" fill="white"/>
<path d="M214.674 9.604V12.25H212.966V13.216H214.674C214.24 14.98 213.526 16.562 212.518 17.934L212.952 19.026C213.652 17.934 214.226 16.73 214.674 15.414V22.386H215.668V15.372C216.088 15.904 216.578 16.604 217.152 17.486L217.726 16.632C217.04 15.778 216.354 14.994 215.668 14.294V13.216H217.292V12.25H215.668V9.604H214.674ZM218.804 15.932C218.412 17.668 217.782 19.236 216.914 20.65L217.782 21.21C218.622 19.782 219.28 18.102 219.728 16.142L218.804 15.932ZM223.872 15.862L222.962 16.156C223.508 17.668 224.012 19.39 224.474 21.336L225.384 20.93C224.964 19.138 224.46 17.444 223.872 15.862ZM220.736 22.246C221.548 22.246 221.968 21.826 221.968 21V14.77H225.398V13.804H217.544V14.77H220.96V20.748C220.96 21.154 220.764 21.364 220.386 21.364C219.98 21.364 219.56 21.336 219.112 21.308L219.308 22.246H220.736ZM218.286 10.402V11.354H224.67V10.402H218.286ZM236.276 17.584C235.856 18.9 235.38 20.034 234.834 20.986H227.106V21.924H238.922V20.986H235.912C236.444 20.062 236.892 19.012 237.256 17.85L236.276 17.584ZM229.584 17.752L228.674 18.046C229.122 18.858 229.486 19.712 229.766 20.608L230.676 20.37C230.354 19.39 229.99 18.508 229.584 17.752ZM232.818 17.472L231.894 17.766C232.258 18.634 232.552 19.544 232.79 20.496L233.686 20.258C233.434 19.208 233.14 18.284 232.818 17.472ZM229.374 16.128V17.024H236.64V16.128H229.374ZM228.814 11.662H229.878C230.13 12.208 230.34 12.782 230.522 13.37L231.446 13.034C231.306 12.614 231.11 12.152 230.886 11.662H232.902V10.766H229.22C229.346 10.43 229.472 10.094 229.584 9.73L228.604 9.52C228.212 10.808 227.582 11.984 226.714 13.048L227.582 13.594C228.044 13.006 228.45 12.362 228.814 11.662ZM234.708 11.662H235.926C236.234 12.25 236.514 12.866 236.766 13.496L237.69 13.16C237.508 12.684 237.27 12.194 236.962 11.662H239.188V10.766H235.1C235.212 10.43 235.324 10.094 235.436 9.73L234.47 9.52C234.176 10.612 233.7 11.592 233.042 12.488L233.896 13.034C234.19 12.614 234.456 12.152 234.708 11.662ZM232.678 13.048C231.068 14.238 229.052 15.232 226.644 16.044L227.12 16.912C229.556 16.058 231.516 15.05 233 13.874C234.624 15.134 236.57 16.142 238.866 16.926L239.356 16.058C237.074 15.33 235.058 14.322 233.322 13.048H232.678ZM244.34 10.808C243.332 10.808 242.506 11.144 241.89 11.816C241.274 12.474 240.952 13.37 240.952 14.49H242.1C242.114 13.608 242.324 12.936 242.716 12.488C243.08 12.012 243.612 11.788 244.298 11.788C244.942 11.788 245.46 11.956 245.824 12.292C246.188 12.628 246.37 13.09 246.37 13.706C246.37 14.35 246.104 14.952 245.6 15.498C245.334 15.778 244.816 16.184 244.032 16.744C242.968 17.472 242.254 18.074 241.862 18.522C241.19 19.264 240.868 20.09 240.868 21H247.532V19.978H242.282C242.464 19.306 243.192 18.536 244.466 17.682C245.502 16.982 246.188 16.436 246.538 16.072C247.182 15.372 247.518 14.588 247.518 13.72C247.518 12.852 247.21 12.138 246.622 11.606C246.02 11.074 245.264 10.808 244.34 10.808Z" fill="#666666"/>
<rect x="188.5" y="0.5" width="84" height="31" rx="3.5" stroke="#E1E3E5"/>
<rect x="188.5" y="56.5" width="84" height="31" rx="3.5" fill="white"/>
<path d="M214.674 65.604V68.25H212.966V69.216H214.674C214.24 70.98 213.526 72.562 212.518 73.934L212.952 75.026C213.652 73.934 214.226 72.73 214.674 71.414V78.386H215.668V71.372C216.088 71.904 216.578 72.604 217.152 73.486L217.726 72.632C217.04 71.778 216.354 70.994 215.668 70.294V69.216H217.292V68.25H215.668V65.604H214.674ZM218.804 71.932C218.412 73.668 217.782 75.236 216.914 76.65L217.782 77.21C218.622 75.782 219.28 74.102 219.728 72.142L218.804 71.932ZM223.872 71.862L222.962 72.156C223.508 73.668 224.012 75.39 224.474 77.336L225.384 76.93C224.964 75.138 224.46 73.444 223.872 71.862ZM220.736 78.246C221.548 78.246 221.968 77.826 221.968 77V70.77H225.398V69.804H217.544V70.77H220.96V76.748C220.96 77.154 220.764 77.364 220.386 77.364C219.98 77.364 219.56 77.336 219.112 77.308L219.308 78.246H220.736ZM218.286 66.402V67.354H224.67V66.402H218.286ZM236.276 73.584C235.856 74.9 235.38 76.034 234.834 76.986H227.106V77.924H238.922V76.986H235.912C236.444 76.062 236.892 75.012 237.256 73.85L236.276 73.584ZM229.584 73.752L228.674 74.046C229.122 74.858 229.486 75.712 229.766 76.608L230.676 76.37C230.354 75.39 229.99 74.508 229.584 73.752ZM232.818 73.472L231.894 73.766C232.258 74.634 232.552 75.544 232.79 76.496L233.686 76.258C233.434 75.208 233.14 74.284 232.818 73.472ZM229.374 72.128V73.024H236.64V72.128H229.374ZM228.814 67.662H229.878C230.13 68.208 230.34 68.782 230.522 69.37L231.446 69.034C231.306 68.614 231.11 68.152 230.886 67.662H232.902V66.766H229.22C229.346 66.43 229.472 66.094 229.584 65.73L228.604 65.52C228.212 66.808 227.582 67.984 226.714 69.048L227.582 69.594C228.044 69.006 228.45 68.362 228.814 67.662ZM234.708 67.662H235.926C236.234 68.25 236.514 68.866 236.766 69.496L237.69 69.16C237.508 68.684 237.27 68.194 236.962 67.662H239.188V66.766H235.1C235.212 66.43 235.324 66.094 235.436 65.73L234.47 65.52C234.176 66.612 233.7 67.592 233.042 68.488L233.896 69.034C234.19 68.614 234.456 68.152 234.708 67.662ZM232.678 69.048C231.068 70.238 229.052 71.232 226.644 72.044L227.12 72.912C229.556 72.058 231.516 71.05 233 69.874C234.624 71.134 236.57 72.142 238.866 72.926L239.356 72.058C237.074 71.33 235.058 70.322 233.322 69.048H232.678ZM244.34 66.808C243.332 66.808 242.506 67.144 241.89 67.816C241.274 68.474 240.952 69.37 240.952 70.49H242.1C242.114 69.608 242.324 68.936 242.716 68.488C243.08 68.012 243.612 67.788 244.298 67.788C244.942 67.788 245.46 67.956 245.824 68.292C246.188 68.628 246.37 69.09 246.37 69.706C246.37 70.35 246.104 70.952 245.6 71.498C245.334 71.778 244.816 72.184 244.032 72.744C242.968 73.472 242.254 74.074 241.862 74.522C241.19 75.264 240.868 76.09 240.868 77H247.532V75.978H242.282C242.464 75.306 243.192 74.536 244.466 73.682C245.502 72.982 246.188 72.436 246.538 72.072C247.182 71.372 247.518 70.588 247.518 69.72C247.518 68.852 247.21 68.138 246.622 67.606C246.02 67.074 245.264 66.808 244.34 66.808Z" fill="#666666"/>
<rect x="188.5" y="56.5" width="84" height="31" rx="3.5" stroke="#E1E3E5"/>
<rect x="188.5" y="112.5" width="84" height="31" rx="3.5" fill="white"/>
<path d="M214.674 121.604V124.25H212.966V125.216H214.674C214.24 126.98 213.526 128.562 212.518 129.934L212.952 131.026C213.652 129.934 214.226 128.73 214.674 127.414V134.386H215.668V127.372C216.088 127.904 216.578 128.604 217.152 129.486L217.726 128.632C217.04 127.778 216.354 126.994 215.668 126.294V125.216H217.292V124.25H215.668V121.604H214.674ZM218.804 127.932C218.412 129.668 217.782 131.236 216.914 132.65L217.782 133.21C218.622 131.782 219.28 130.102 219.728 128.142L218.804 127.932ZM223.872 127.862L222.962 128.156C223.508 129.668 224.012 131.39 224.474 133.336L225.384 132.93C224.964 131.138 224.46 129.444 223.872 127.862ZM220.736 134.246C221.548 134.246 221.968 133.826 221.968 133V126.77H225.398V125.804H217.544V126.77H220.96V132.748C220.96 133.154 220.764 133.364 220.386 133.364C219.98 133.364 219.56 133.336 219.112 133.308L219.308 134.246H220.736ZM218.286 122.402V123.354H224.67V122.402H218.286ZM236.276 129.584C235.856 130.9 235.38 132.034 234.834 132.986H227.106V133.924H238.922V132.986H235.912C236.444 132.062 236.892 131.012 237.256 129.85L236.276 129.584ZM229.584 129.752L228.674 130.046C229.122 130.858 229.486 131.712 229.766 132.608L230.676 132.37C230.354 131.39 229.99 130.508 229.584 129.752ZM232.818 129.472L231.894 129.766C232.258 130.634 232.552 131.544 232.79 132.496L233.686 132.258C233.434 131.208 233.14 130.284 232.818 129.472ZM229.374 128.128V129.024H236.64V128.128H229.374ZM228.814 123.662H229.878C230.13 124.208 230.34 124.782 230.522 125.37L231.446 125.034C231.306 124.614 231.11 124.152 230.886 123.662H232.902V122.766H229.22C229.346 122.43 229.472 122.094 229.584 121.73L228.604 121.52C228.212 122.808 227.582 123.984 226.714 125.048L227.582 125.594C228.044 125.006 228.45 124.362 228.814 123.662ZM234.708 123.662H235.926C236.234 124.25 236.514 124.866 236.766 125.496L237.69 125.16C237.508 124.684 237.27 124.194 236.962 123.662H239.188V122.766H235.1C235.212 122.43 235.324 122.094 235.436 121.73L234.47 121.52C234.176 122.612 233.7 123.592 233.042 124.488L233.896 125.034C234.19 124.614 234.456 124.152 234.708 123.662ZM232.678 125.048C231.068 126.238 229.052 127.232 226.644 128.044L227.12 128.912C229.556 128.058 231.516 127.05 233 125.874C234.624 127.134 236.57 128.142 238.866 128.926L239.356 128.058C237.074 127.33 235.058 126.322 233.322 125.048H232.678ZM244.34 122.808C243.332 122.808 242.506 123.144 241.89 123.816C241.274 124.474 240.952 125.37 240.952 126.49H242.1C242.114 125.608 242.324 124.936 242.716 124.488C243.08 124.012 243.612 123.788 244.298 123.788C244.942 123.788 245.46 123.956 245.824 124.292C246.188 124.628 246.37 125.09 246.37 125.706C246.37 126.35 246.104 126.952 245.6 127.498C245.334 127.778 244.816 128.184 244.032 128.744C242.968 129.472 242.254 130.074 241.862 130.522C241.19 131.264 240.868 132.09 240.868 133H247.532V131.978H242.282C242.464 131.306 243.192 130.536 244.466 129.682C245.502 128.982 246.188 128.436 246.538 128.072C247.182 127.372 247.518 126.588 247.518 125.72C247.518 124.852 247.21 124.138 246.622 123.606C246.02 123.074 245.264 122.808 244.34 122.808Z" fill="#666666"/>
<rect x="188.5" y="112.5" width="84" height="31" rx="3.5" stroke="#E1E3E5"/>
<rect x="188.5" y="168.5" width="84" height="31" rx="3.5" fill="white"/>
<path d="M214.674 177.604V180.25H212.966V181.216H214.674C214.24 182.98 213.526 184.562 212.518 185.934L212.952 187.026C213.652 185.934 214.226 184.73 214.674 183.414V190.386H215.668V183.372C216.088 183.904 216.578 184.604 217.152 185.486L217.726 184.632C217.04 183.778 216.354 182.994 215.668 182.294V181.216H217.292V180.25H215.668V177.604H214.674ZM218.804 183.932C218.412 185.668 217.782 187.236 216.914 188.65L217.782 189.21C218.622 187.782 219.28 186.102 219.728 184.142L218.804 183.932ZM223.872 183.862L222.962 184.156C223.508 185.668 224.012 187.39 224.474 189.336L225.384 188.93C224.964 187.138 224.46 185.444 223.872 183.862ZM220.736 190.246C221.548 190.246 221.968 189.826 221.968 189V182.77H225.398V181.804H217.544V182.77H220.96V188.748C220.96 189.154 220.764 189.364 220.386 189.364C219.98 189.364 219.56 189.336 219.112 189.308L219.308 190.246H220.736ZM218.286 178.402V179.354H224.67V178.402H218.286ZM236.276 185.584C235.856 186.9 235.38 188.034 234.834 188.986H227.106V189.924H238.922V188.986H235.912C236.444 188.062 236.892 187.012 237.256 185.85L236.276 185.584ZM229.584 185.752L228.674 186.046C229.122 186.858 229.486 187.712 229.766 188.608L230.676 188.37C230.354 187.39 229.99 186.508 229.584 185.752ZM232.818 185.472L231.894 185.766C232.258 186.634 232.552 187.544 232.79 188.496L233.686 188.258C233.434 187.208 233.14 186.284 232.818 185.472ZM229.374 184.128V185.024H236.64V184.128H229.374ZM228.814 179.662H229.878C230.13 180.208 230.34 180.782 230.522 181.37L231.446 181.034C231.306 180.614 231.11 180.152 230.886 179.662H232.902V178.766H229.22C229.346 178.43 229.472 178.094 229.584 177.73L228.604 177.52C228.212 178.808 227.582 179.984 226.714 181.048L227.582 181.594C228.044 181.006 228.45 180.362 228.814 179.662ZM234.708 179.662H235.926C236.234 180.25 236.514 180.866 236.766 181.496L237.69 181.16C237.508 180.684 237.27 180.194 236.962 179.662H239.188V178.766H235.1C235.212 178.43 235.324 178.094 235.436 177.73L234.47 177.52C234.176 178.612 233.7 179.592 233.042 180.488L233.896 181.034C234.19 180.614 234.456 180.152 234.708 179.662ZM232.678 181.048C231.068 182.238 229.052 183.232 226.644 184.044L227.12 184.912C229.556 184.058 231.516 183.05 233 181.874C234.624 183.134 236.57 184.142 238.866 184.926L239.356 184.058C237.074 183.33 235.058 182.322 233.322 181.048H232.678ZM244.34 178.808C243.332 178.808 242.506 179.144 241.89 179.816C241.274 180.474 240.952 181.37 240.952 182.49H242.1C242.114 181.608 242.324 180.936 242.716 180.488C243.08 180.012 243.612 179.788 244.298 179.788C244.942 179.788 245.46 179.956 245.824 180.292C246.188 180.628 246.37 181.09 246.37 181.706C246.37 182.35 246.104 182.952 245.6 183.498C245.334 183.778 244.816 184.184 244.032 184.744C242.968 185.472 242.254 186.074 241.862 186.522C241.19 187.264 240.868 188.09 240.868 189H247.532V187.978H242.282C242.464 187.306 243.192 186.536 244.466 185.682C245.502 184.982 246.188 184.436 246.538 184.072C247.182 183.372 247.518 182.588 247.518 181.72C247.518 180.852 247.21 180.138 246.622 179.606C246.02 179.074 245.264 178.808 244.34 178.808Z" fill="#666666"/>
<rect x="188.5" y="168.5" width="84" height="31" rx="3.5" stroke="#E1E3E5"/>
<rect x="285.5" y="0.5" width="84" height="31" rx="3.5" fill="white"/>
<path d="M311.674 9.604V12.25H309.966V13.216H311.674C311.24 14.98 310.526 16.562 309.518 17.934L309.952 19.026C310.652 17.934 311.226 16.73 311.674 15.414V22.386H312.668V15.372C313.088 15.904 313.578 16.604 314.152 17.486L314.726 16.632C314.04 15.778 313.354 14.994 312.668 14.294V13.216H314.292V12.25H312.668V9.604H311.674ZM315.804 15.932C315.412 17.668 314.782 19.236 313.914 20.65L314.782 21.21C315.622 19.782 316.28 18.102 316.728 16.142L315.804 15.932ZM320.872 15.862L319.962 16.156C320.508 17.668 321.012 19.39 321.474 21.336L322.384 20.93C321.964 19.138 321.46 17.444 320.872 15.862ZM317.736 22.246C318.548 22.246 318.968 21.826 318.968 21V14.77H322.398V13.804H314.544V14.77H317.96V20.748C317.96 21.154 317.764 21.364 317.386 21.364C316.98 21.364 316.56 21.336 316.112 21.308L316.308 22.246H317.736ZM315.286 10.402V11.354H321.67V10.402H315.286ZM333.276 17.584C332.856 18.9 332.38 20.034 331.834 20.986H324.106V21.924H335.922V20.986H332.912C333.444 20.062 333.892 19.012 334.256 17.85L333.276 17.584ZM326.584 17.752L325.674 18.046C326.122 18.858 326.486 19.712 326.766 20.608L327.676 20.37C327.354 19.39 326.99 18.508 326.584 17.752ZM329.818 17.472L328.894 17.766C329.258 18.634 329.552 19.544 329.79 20.496L330.686 20.258C330.434 19.208 330.14 18.284 329.818 17.472ZM326.374 16.128V17.024H333.64V16.128H326.374ZM325.814 11.662H326.878C327.13 12.208 327.34 12.782 327.522 13.37L328.446 13.034C328.306 12.614 328.11 12.152 327.886 11.662H329.902V10.766H326.22C326.346 10.43 326.472 10.094 326.584 9.73L325.604 9.52C325.212 10.808 324.582 11.984 323.714 13.048L324.582 13.594C325.044 13.006 325.45 12.362 325.814 11.662ZM331.708 11.662H332.926C333.234 12.25 333.514 12.866 333.766 13.496L334.69 13.16C334.508 12.684 334.27 12.194 333.962 11.662H336.188V10.766H332.1C332.212 10.43 332.324 10.094 332.436 9.73L331.47 9.52C331.176 10.612 330.7 11.592 330.042 12.488L330.896 13.034C331.19 12.614 331.456 12.152 331.708 11.662ZM329.678 13.048C328.068 14.238 326.052 15.232 323.644 16.044L324.12 16.912C326.556 16.058 328.516 15.05 330 13.874C331.624 15.134 333.57 16.142 335.866 16.926L336.356 16.058C334.074 15.33 332.058 14.322 330.322 13.048H329.678ZM341.298 10.808C340.346 10.808 339.576 11.074 338.988 11.62C338.372 12.166 338.008 12.922 337.924 13.888H339.058C339.128 13.216 339.352 12.698 339.744 12.334C340.122 11.97 340.64 11.802 341.312 11.802C341.956 11.802 342.474 11.956 342.838 12.292C343.174 12.6 343.356 13.034 343.356 13.594C343.356 14.154 343.174 14.588 342.824 14.896C342.474 15.19 341.97 15.344 341.298 15.344H340.528V16.24H341.34C342.04 16.24 342.572 16.394 342.964 16.73C343.356 17.066 343.552 17.528 343.552 18.13C343.552 18.718 343.342 19.208 342.95 19.6C342.516 20.006 341.942 20.216 341.228 20.216C340.598 20.216 340.08 20.034 339.66 19.698C339.17 19.292 338.904 18.69 338.876 17.906H337.714C337.798 19.026 338.19 19.88 338.904 20.468C339.506 20.944 340.276 21.196 341.228 21.196C342.264 21.196 343.104 20.902 343.748 20.314C344.378 19.74 344.7 18.998 344.7 18.088C344.7 17.5 344.532 17.01 344.196 16.618C343.888 16.226 343.44 15.946 342.852 15.764C343.944 15.4 344.49 14.644 344.49 13.524C344.49 12.684 344.196 12.026 343.622 11.536C343.034 11.046 342.25 10.808 341.298 10.808Z" fill="#666666"/>
<rect x="285.5" y="0.5" width="84" height="31" rx="3.5" stroke="#E1E3E5"/>
<rect x="285.5" y="56.5" width="84" height="31" rx="3.5" fill="white"/>
<path d="M311.674 65.604V68.25H309.966V69.216H311.674C311.24 70.98 310.526 72.562 309.518 73.934L309.952 75.026C310.652 73.934 311.226 72.73 311.674 71.414V78.386H312.668V71.372C313.088 71.904 313.578 72.604 314.152 73.486L314.726 72.632C314.04 71.778 313.354 70.994 312.668 70.294V69.216H314.292V68.25H312.668V65.604H311.674ZM315.804 71.932C315.412 73.668 314.782 75.236 313.914 76.65L314.782 77.21C315.622 75.782 316.28 74.102 316.728 72.142L315.804 71.932ZM320.872 71.862L319.962 72.156C320.508 73.668 321.012 75.39 321.474 77.336L322.384 76.93C321.964 75.138 321.46 73.444 320.872 71.862ZM317.736 78.246C318.548 78.246 318.968 77.826 318.968 77V70.77H322.398V69.804H314.544V70.77H317.96V76.748C317.96 77.154 317.764 77.364 317.386 77.364C316.98 77.364 316.56 77.336 316.112 77.308L316.308 78.246H317.736ZM315.286 66.402V67.354H321.67V66.402H315.286ZM333.276 73.584C332.856 74.9 332.38 76.034 331.834 76.986H324.106V77.924H335.922V76.986H332.912C333.444 76.062 333.892 75.012 334.256 73.85L333.276 73.584ZM326.584 73.752L325.674 74.046C326.122 74.858 326.486 75.712 326.766 76.608L327.676 76.37C327.354 75.39 326.99 74.508 326.584 73.752ZM329.818 73.472L328.894 73.766C329.258 74.634 329.552 75.544 329.79 76.496L330.686 76.258C330.434 75.208 330.14 74.284 329.818 73.472ZM326.374 72.128V73.024H333.64V72.128H326.374ZM325.814 67.662H326.878C327.13 68.208 327.34 68.782 327.522 69.37L328.446 69.034C328.306 68.614 328.11 68.152 327.886 67.662H329.902V66.766H326.22C326.346 66.43 326.472 66.094 326.584 65.73L325.604 65.52C325.212 66.808 324.582 67.984 323.714 69.048L324.582 69.594C325.044 69.006 325.45 68.362 325.814 67.662ZM331.708 67.662H332.926C333.234 68.25 333.514 68.866 333.766 69.496L334.69 69.16C334.508 68.684 334.27 68.194 333.962 67.662H336.188V66.766H332.1C332.212 66.43 332.324 66.094 332.436 65.73L331.47 65.52C331.176 66.612 330.7 67.592 330.042 68.488L330.896 69.034C331.19 68.614 331.456 68.152 331.708 67.662ZM329.678 69.048C328.068 70.238 326.052 71.232 323.644 72.044L324.12 72.912C326.556 72.058 328.516 71.05 330 69.874C331.624 71.134 333.57 72.142 335.866 72.926L336.356 72.058C334.074 71.33 332.058 70.322 330.322 69.048H329.678ZM341.298 66.808C340.346 66.808 339.576 67.074 338.988 67.62C338.372 68.166 338.008 68.922 337.924 69.888H339.058C339.128 69.216 339.352 68.698 339.744 68.334C340.122 67.97 340.64 67.802 341.312 67.802C341.956 67.802 342.474 67.956 342.838 68.292C343.174 68.6 343.356 69.034 343.356 69.594C343.356 70.154 343.174 70.588 342.824 70.896C342.474 71.19 341.97 71.344 341.298 71.344H340.528V72.24H341.34C342.04 72.24 342.572 72.394 342.964 72.73C343.356 73.066 343.552 73.528 343.552 74.13C343.552 74.718 343.342 75.208 342.95 75.6C342.516 76.006 341.942 76.216 341.228 76.216C340.598 76.216 340.08 76.034 339.66 75.698C339.17 75.292 338.904 74.69 338.876 73.906H337.714C337.798 75.026 338.19 75.88 338.904 76.468C339.506 76.944 340.276 77.196 341.228 77.196C342.264 77.196 343.104 76.902 343.748 76.314C344.378 75.74 344.7 74.998 344.7 74.088C344.7 73.5 344.532 73.01 344.196 72.618C343.888 72.226 343.44 71.946 342.852 71.764C343.944 71.4 344.49 70.644 344.49 69.524C344.49 68.684 344.196 68.026 343.622 67.536C343.034 67.046 342.25 66.808 341.298 66.808Z" fill="#666666"/>
<rect x="285.5" y="56.5" width="84" height="31" rx="3.5" stroke="#E1E3E5"/>
<rect x="285.5" y="112.5" width="84" height="31" rx="3.5" fill="white"/>
<path d="M311.674 121.604V124.25H309.966V125.216H311.674C311.24 126.98 310.526 128.562 309.518 129.934L309.952 131.026C310.652 129.934 311.226 128.73 311.674 127.414V134.386H312.668V127.372C313.088 127.904 313.578 128.604 314.152 129.486L314.726 128.632C314.04 127.778 313.354 126.994 312.668 126.294V125.216H314.292V124.25H312.668V121.604H311.674ZM315.804 127.932C315.412 129.668 314.782 131.236 313.914 132.65L314.782 133.21C315.622 131.782 316.28 130.102 316.728 128.142L315.804 127.932ZM320.872 127.862L319.962 128.156C320.508 129.668 321.012 131.39 321.474 133.336L322.384 132.93C321.964 131.138 321.46 129.444 320.872 127.862ZM317.736 134.246C318.548 134.246 318.968 133.826 318.968 133V126.77H322.398V125.804H314.544V126.77H317.96V132.748C317.96 133.154 317.764 133.364 317.386 133.364C316.98 133.364 316.56 133.336 316.112 133.308L316.308 134.246H317.736ZM315.286 122.402V123.354H321.67V122.402H315.286ZM333.276 129.584C332.856 130.9 332.38 132.034 331.834 132.986H324.106V133.924H335.922V132.986H332.912C333.444 132.062 333.892 131.012 334.256 129.85L333.276 129.584ZM326.584 129.752L325.674 130.046C326.122 130.858 326.486 131.712 326.766 132.608L327.676 132.37C327.354 131.39 326.99 130.508 326.584 129.752ZM329.818 129.472L328.894 129.766C329.258 130.634 329.552 131.544 329.79 132.496L330.686 132.258C330.434 131.208 330.14 130.284 329.818 129.472ZM326.374 128.128V129.024H333.64V128.128H326.374ZM325.814 123.662H326.878C327.13 124.208 327.34 124.782 327.522 125.37L328.446 125.034C328.306 124.614 328.11 124.152 327.886 123.662H329.902V122.766H326.22C326.346 122.43 326.472 122.094 326.584 121.73L325.604 121.52C325.212 122.808 324.582 123.984 323.714 125.048L324.582 125.594C325.044 125.006 325.45 124.362 325.814 123.662ZM331.708 123.662H332.926C333.234 124.25 333.514 124.866 333.766 125.496L334.69 125.16C334.508 124.684 334.27 124.194 333.962 123.662H336.188V122.766H332.1C332.212 122.43 332.324 122.094 332.436 121.73L331.47 121.52C331.176 122.612 330.7 123.592 330.042 124.488L330.896 125.034C331.19 124.614 331.456 124.152 331.708 123.662ZM329.678 125.048C328.068 126.238 326.052 127.232 323.644 128.044L324.12 128.912C326.556 128.058 328.516 127.05 330 125.874C331.624 127.134 333.57 128.142 335.866 128.926L336.356 128.058C334.074 127.33 332.058 126.322 330.322 125.048H329.678ZM341.298 122.808C340.346 122.808 339.576 123.074 338.988 123.62C338.372 124.166 338.008 124.922 337.924 125.888H339.058C339.128 125.216 339.352 124.698 339.744 124.334C340.122 123.97 340.64 123.802 341.312 123.802C341.956 123.802 342.474 123.956 342.838 124.292C343.174 124.6 343.356 125.034 343.356 125.594C343.356 126.154 343.174 126.588 342.824 126.896C342.474 127.19 341.97 127.344 341.298 127.344H340.528V128.24H341.34C342.04 128.24 342.572 128.394 342.964 128.73C343.356 129.066 343.552 129.528 343.552 130.13C343.552 130.718 343.342 131.208 342.95 131.6C342.516 132.006 341.942 132.216 341.228 132.216C340.598 132.216 340.08 132.034 339.66 131.698C339.17 131.292 338.904 130.69 338.876 129.906H337.714C337.798 131.026 338.19 131.88 338.904 132.468C339.506 132.944 340.276 133.196 341.228 133.196C342.264 133.196 343.104 132.902 343.748 132.314C344.378 131.74 344.7 130.998 344.7 130.088C344.7 129.5 344.532 129.01 344.196 128.618C343.888 128.226 343.44 127.946 342.852 127.764C343.944 127.4 344.49 126.644 344.49 125.524C344.49 124.684 344.196 124.026 343.622 123.536C343.034 123.046 342.25 122.808 341.298 122.808Z" fill="#666666"/>
<rect x="285.5" y="112.5" width="84" height="31" rx="3.5" stroke="#E1E3E5"/>
<rect x="382.5" y="112.5" width="84" height="31" rx="3.5" fill="white"/>
<path d="M408.674 121.604V124.25H406.966V125.216H408.674C408.24 126.98 407.526 128.562 406.518 129.934L406.952 131.026C407.652 129.934 408.226 128.73 408.674 127.414V134.386H409.668V127.372C410.088 127.904 410.578 128.604 411.152 129.486L411.726 128.632C411.04 127.778 410.354 126.994 409.668 126.294V125.216H411.292V124.25H409.668V121.604H408.674ZM412.804 127.932C412.412 129.668 411.782 131.236 410.914 132.65L411.782 133.21C412.622 131.782 413.28 130.102 413.728 128.142L412.804 127.932ZM417.872 127.862L416.962 128.156C417.508 129.668 418.012 131.39 418.474 133.336L419.384 132.93C418.964 131.138 418.46 129.444 417.872 127.862ZM414.736 134.246C415.548 134.246 415.968 133.826 415.968 133V126.77H419.398V125.804H411.544V126.77H414.96V132.748C414.96 133.154 414.764 133.364 414.386 133.364C413.98 133.364 413.56 133.336 413.112 133.308L413.308 134.246H414.736ZM412.286 122.402V123.354H418.67V122.402H412.286ZM430.276 129.584C429.856 130.9 429.38 132.034 428.834 132.986H421.106V133.924H432.922V132.986H429.912C430.444 132.062 430.892 131.012 431.256 129.85L430.276 129.584ZM423.584 129.752L422.674 130.046C423.122 130.858 423.486 131.712 423.766 132.608L424.676 132.37C424.354 131.39 423.99 130.508 423.584 129.752ZM426.818 129.472L425.894 129.766C426.258 130.634 426.552 131.544 426.79 132.496L427.686 132.258C427.434 131.208 427.14 130.284 426.818 129.472ZM423.374 128.128V129.024H430.64V128.128H423.374ZM422.814 123.662H423.878C424.13 124.208 424.34 124.782 424.522 125.37L425.446 125.034C425.306 124.614 425.11 124.152 424.886 123.662H426.902V122.766H423.22C423.346 122.43 423.472 122.094 423.584 121.73L422.604 121.52C422.212 122.808 421.582 123.984 420.714 125.048L421.582 125.594C422.044 125.006 422.45 124.362 422.814 123.662ZM428.708 123.662H429.926C430.234 124.25 430.514 124.866 430.766 125.496L431.69 125.16C431.508 124.684 431.27 124.194 430.962 123.662H433.188V122.766H429.1C429.212 122.43 429.324 122.094 429.436 121.73L428.47 121.52C428.176 122.612 427.7 123.592 427.042 124.488L427.896 125.034C428.19 124.614 428.456 124.152 428.708 123.662ZM426.678 125.048C425.068 126.238 423.052 127.232 420.644 128.044L421.12 128.912C423.556 128.058 425.516 127.05 427 125.874C428.624 127.134 430.57 128.142 432.866 128.926L433.356 128.058C431.074 127.33 429.058 126.322 427.322 125.048H426.678ZM439.376 123.004L434.336 129.64V130.732H439.362V133H440.454V130.732H442.078V129.794H440.454V123.004H439.376ZM439.32 124.502H439.362V129.794H435.302L439.32 124.502Z" fill="#666666"/>
<rect x="382.5" y="112.5" width="84" height="31" rx="3.5" stroke="#E1E3E5"/>
<rect x="382.5" y="0.5" width="84" height="31" rx="3.5" fill="white"/>
<path d="M408.674 9.604V12.25H406.966V13.216H408.674C408.24 14.98 407.526 16.562 406.518 17.934L406.952 19.026C407.652 17.934 408.226 16.73 408.674 15.414V22.386H409.668V15.372C410.088 15.904 410.578 16.604 411.152 17.486L411.726 16.632C411.04 15.778 410.354 14.994 409.668 14.294V13.216H411.292V12.25H409.668V9.604H408.674ZM412.804 15.932C412.412 17.668 411.782 19.236 410.914 20.65L411.782 21.21C412.622 19.782 413.28 18.102 413.728 16.142L412.804 15.932ZM417.872 15.862L416.962 16.156C417.508 17.668 418.012 19.39 418.474 21.336L419.384 20.93C418.964 19.138 418.46 17.444 417.872 15.862ZM414.736 22.246C415.548 22.246 415.968 21.826 415.968 21V14.77H419.398V13.804H411.544V14.77H414.96V20.748C414.96 21.154 414.764 21.364 414.386 21.364C413.98 21.364 413.56 21.336 413.112 21.308L413.308 22.246H414.736ZM412.286 10.402V11.354H418.67V10.402H412.286ZM430.276 17.584C429.856 18.9 429.38 20.034 428.834 20.986H421.106V21.924H432.922V20.986H429.912C430.444 20.062 430.892 19.012 431.256 17.85L430.276 17.584ZM423.584 17.752L422.674 18.046C423.122 18.858 423.486 19.712 423.766 20.608L424.676 20.37C424.354 19.39 423.99 18.508 423.584 17.752ZM426.818 17.472L425.894 17.766C426.258 18.634 426.552 19.544 426.79 20.496L427.686 20.258C427.434 19.208 427.14 18.284 426.818 17.472ZM423.374 16.128V17.024H430.64V16.128H423.374ZM422.814 11.662H423.878C424.13 12.208 424.34 12.782 424.522 13.37L425.446 13.034C425.306 12.614 425.11 12.152 424.886 11.662H426.902V10.766H423.22C423.346 10.43 423.472 10.094 423.584 9.73L422.604 9.52C422.212 10.808 421.582 11.984 420.714 13.048L421.582 13.594C422.044 13.006 422.45 12.362 422.814 11.662ZM428.708 11.662H429.926C430.234 12.25 430.514 12.866 430.766 13.496L431.69 13.16C431.508 12.684 431.27 12.194 430.962 11.662H433.188V10.766H429.1C429.212 10.43 429.324 10.094 429.436 9.73L428.47 9.52C428.176 10.612 427.7 11.592 427.042 12.488L427.896 13.034C428.19 12.614 428.456 12.152 428.708 11.662ZM426.678 13.048C425.068 14.238 423.052 15.232 420.644 16.044L421.12 16.912C423.556 16.058 425.516 15.05 427 13.874C428.624 15.134 430.57 16.142 432.866 16.926L433.356 16.058C431.074 15.33 429.058 14.322 427.322 13.048H426.678ZM439.376 11.004L434.336 17.64V18.732H439.362V21H440.454V18.732H442.078V17.794H440.454V11.004H439.376ZM439.32 12.502H439.362V17.794H435.302L439.32 12.502Z" fill="#666666"/>
<rect x="382.5" y="0.5" width="84" height="31" rx="3.5" stroke="#E1E3E5"/>
</svg>
