<svg width="224" height="64" viewBox="0 0 224 64" fill="none" xmlns="http://www.w3.org/2000/svg">
<rect x="0.5" y="0.5" width="223" height="63" rx="3.5" fill="white"/>
<rect x="165.645" y="23.2067" width="9.95671" height="9.95671" rx="4.97835" stroke="#CCCCCC" stroke-width="0.4329"/>
<path d="M180.912 25.1142C180.32 25.1142 179.832 25.2422 179.456 25.4982C179.032 25.7702 178.824 26.1622 178.824 26.6582C178.824 27.1382 179.04 27.5062 179.48 27.7622C179.664 27.8582 180.104 28.0182 180.792 28.2262C181.432 28.4102 181.84 28.5462 182 28.6422C182.376 28.8422 182.568 29.1222 182.568 29.4822C182.568 29.7862 182.424 30.0262 182.136 30.2022C181.848 30.3782 181.464 30.4662 181 30.4662C180.488 30.4662 180.104 30.3542 179.84 30.1462C179.552 29.9142 179.376 29.5462 179.32 29.0502H178.672C178.72 29.7542 178.968 30.2742 179.416 30.6182C179.8 30.9062 180.328 31.0502 181 31.0502C181.68 31.0502 182.216 30.9062 182.616 30.6262C183.016 30.3382 183.216 29.9382 183.216 29.4422C183.216 28.9222 182.976 28.5222 182.504 28.2342C182.264 28.0902 181.768 27.9062 181.016 27.6822C180.464 27.5222 180.112 27.4022 179.968 27.3222C179.64 27.1462 179.48 26.9142 179.48 26.6262C179.48 26.2982 179.616 26.0582 179.888 25.8982C180.128 25.7542 180.456 25.6902 180.88 25.6902C181.344 25.6902 181.704 25.7862 181.96 25.9942C182.208 26.1942 182.368 26.4982 182.44 26.9142H183.088C183.032 26.3142 182.816 25.8582 182.432 25.5542C182.064 25.2582 181.552 25.1142 180.912 25.1142ZM185.07 25.4662L184.438 25.7302V26.8022H183.606V27.3382H184.438V29.9702C184.438 30.2822 184.502 30.5142 184.638 30.6742C184.782 30.8502 185.03 30.9382 185.366 30.9382H185.99V30.4022H185.462C185.318 30.4022 185.214 30.3622 185.158 30.2982C185.094 30.2342 185.07 30.1222 185.07 29.9702V27.3382H186.094V26.8022H185.07V25.4662ZM188.514 26.6902C187.914 26.6902 187.442 26.9062 187.09 27.3382C186.738 27.7462 186.57 28.2582 186.57 28.8662C186.57 29.5382 186.746 30.0662 187.114 30.4662C187.466 30.8502 187.946 31.0502 188.538 31.0502C189.074 31.0502 189.514 30.8902 189.858 30.5862C190.138 30.3302 190.322 30.0102 190.418 29.6102H189.778C189.674 29.8982 189.538 30.1142 189.362 30.2582C189.154 30.4262 188.874 30.5142 188.538 30.5142C188.146 30.5142 187.834 30.3862 187.61 30.1302C187.386 29.8742 187.266 29.5142 187.234 29.0502H190.498C190.482 28.3302 190.322 27.7622 190.018 27.3622C189.682 26.9142 189.178 26.6902 188.514 26.6902ZM188.53 27.2262C189.314 27.2262 189.754 27.6662 189.834 28.5542H187.25C187.29 28.1462 187.418 27.8262 187.642 27.5862C187.866 27.3462 188.162 27.2262 188.53 27.2262ZM193.223 26.6902C192.599 26.6902 192.143 26.9542 191.847 27.4822V26.8022H191.247V32.5222H191.887V30.1862C192.207 30.7622 192.663 31.0502 193.255 31.0502C193.847 31.0502 194.303 30.8262 194.639 30.3942C194.943 29.9942 195.103 29.4902 195.103 28.8822C195.103 28.2582 194.943 27.7542 194.631 27.3542C194.287 26.9062 193.815 26.6902 193.223 26.6902ZM193.143 27.2182C193.583 27.2182 193.919 27.3782 194.151 27.7142C194.343 28.0022 194.447 28.3942 194.447 28.8822C194.447 29.3782 194.343 29.7702 194.135 30.0582C193.903 30.3622 193.567 30.5222 193.119 30.5222C192.735 30.5222 192.439 30.3702 192.215 30.0822C191.975 29.7862 191.863 29.4022 191.863 28.9222V28.8422C191.863 28.3782 191.967 27.9942 192.175 27.7062C192.399 27.3782 192.727 27.2182 193.143 27.2182ZM200.559 25.1142C200.015 25.1142 199.575 25.2662 199.239 25.5782C198.887 25.8902 198.679 26.3222 198.631 26.8742H199.279C199.319 26.4902 199.447 26.1942 199.671 25.9862C199.887 25.7782 200.183 25.6822 200.567 25.6822C200.935 25.6822 201.231 25.7702 201.439 25.9622C201.631 26.1382 201.735 26.3862 201.735 26.7062C201.735 27.0262 201.631 27.2742 201.431 27.4502C201.231 27.6182 200.943 27.7062 200.559 27.7062H200.119V28.2182H200.583C200.983 28.2182 201.287 28.3062 201.511 28.4982C201.735 28.6902 201.847 28.9542 201.847 29.2982C201.847 29.6342 201.727 29.9142 201.503 30.1382C201.255 30.3702 200.927 30.4902 200.519 30.4902C200.159 30.4902 199.863 30.3862 199.623 30.1942C199.343 29.9622 199.191 29.6182 199.175 29.1702H198.511C198.559 29.8102 198.783 30.2982 199.191 30.6342C199.535 30.9062 199.975 31.0502 200.519 31.0502C201.111 31.0502 201.591 30.8822 201.959 30.5462C202.319 30.2182 202.503 29.7942 202.503 29.2742C202.503 28.9382 202.407 28.6582 202.215 28.4342C202.039 28.2102 201.783 28.0502 201.447 27.9462C202.071 27.7382 202.383 27.3062 202.383 26.6662C202.383 26.1862 202.215 25.8102 201.887 25.5302C201.551 25.2502 201.103 25.1142 200.559 25.1142Z" fill="#333333"/>
<circle cx="92.7011" cy="28.185" r="2.1645" fill="#337EFF"/>
<rect x="87.7228" y="23.2067" width="9.95671" height="9.95671" rx="4.97835" stroke="#337EFF" stroke-width="0.4329"/>
<path d="M102.99 25.1142C102.398 25.1142 101.91 25.2422 101.534 25.4982C101.11 25.7702 100.902 26.1622 100.902 26.6582C100.902 27.1382 101.118 27.5062 101.558 27.7622C101.742 27.8582 102.182 28.0182 102.87 28.2262C103.51 28.4102 103.918 28.5462 104.078 28.6422C104.454 28.8422 104.646 29.1222 104.646 29.4822C104.646 29.7862 104.502 30.0262 104.214 30.2022C103.926 30.3782 103.542 30.4662 103.078 30.4662C102.566 30.4662 102.182 30.3542 101.918 30.1462C101.63 29.9142 101.454 29.5462 101.398 29.0502H100.75C100.798 29.7542 101.046 30.2742 101.494 30.6182C101.878 30.9062 102.406 31.0502 103.078 31.0502C103.758 31.0502 104.294 30.9062 104.694 30.6262C105.094 30.3382 105.294 29.9382 105.294 29.4422C105.294 28.9222 105.054 28.5222 104.582 28.2342C104.342 28.0902 103.846 27.9062 103.094 27.6822C102.542 27.5222 102.19 27.4022 102.046 27.3222C101.718 27.1462 101.558 26.9142 101.558 26.6262C101.558 26.2982 101.694 26.0582 101.966 25.8982C102.206 25.7542 102.534 25.6902 102.958 25.6902C103.422 25.6902 103.782 25.7862 104.038 25.9942C104.286 26.1942 104.446 26.4982 104.518 26.9142H105.166C105.11 26.3142 104.894 25.8582 104.51 25.5542C104.142 25.2582 103.63 25.1142 102.99 25.1142ZM107.148 25.4662L106.516 25.7302V26.8022H105.684V27.3382H106.516V29.9702C106.516 30.2822 106.58 30.5142 106.716 30.6742C106.86 30.8502 107.108 30.9382 107.444 30.9382H108.068V30.4022H107.54C107.396 30.4022 107.292 30.3622 107.236 30.2982C107.172 30.2342 107.148 30.1222 107.148 29.9702V27.3382H108.172V26.8022H107.148V25.4662ZM110.592 26.6902C109.992 26.6902 109.52 26.9062 109.168 27.3382C108.816 27.7462 108.648 28.2582 108.648 28.8662C108.648 29.5382 108.824 30.0662 109.192 30.4662C109.544 30.8502 110.024 31.0502 110.616 31.0502C111.152 31.0502 111.592 30.8902 111.936 30.5862C112.216 30.3302 112.4 30.0102 112.496 29.6102H111.856C111.752 29.8982 111.616 30.1142 111.44 30.2582C111.232 30.4262 110.952 30.5142 110.616 30.5142C110.224 30.5142 109.912 30.3862 109.688 30.1302C109.464 29.8742 109.344 29.5142 109.312 29.0502H112.576C112.56 28.3302 112.4 27.7622 112.096 27.3622C111.76 26.9142 111.256 26.6902 110.592 26.6902ZM110.608 27.2262C111.392 27.2262 111.832 27.6662 111.912 28.5542H109.328C109.368 28.1462 109.496 27.8262 109.72 27.5862C109.944 27.3462 110.24 27.2262 110.608 27.2262ZM115.302 26.6902C114.678 26.6902 114.222 26.9542 113.926 27.4822V26.8022H113.326V32.5222H113.966V30.1862C114.286 30.7622 114.742 31.0502 115.334 31.0502C115.926 31.0502 116.382 30.8262 116.718 30.3942C117.022 29.9942 117.182 29.4902 117.182 28.8822C117.182 28.2582 117.022 27.7542 116.71 27.3542C116.366 26.9062 115.894 26.6902 115.302 26.6902ZM115.222 27.2182C115.662 27.2182 115.998 27.3782 116.23 27.7142C116.422 28.0022 116.526 28.3942 116.526 28.8822C116.526 29.3782 116.422 29.7702 116.214 30.0582C115.982 30.3622 115.646 30.5222 115.198 30.5222C114.814 30.5222 114.518 30.3702 114.294 30.0822C114.054 29.7862 113.942 29.4022 113.942 28.9222V28.8422C113.942 28.3782 114.046 27.9942 114.254 27.7062C114.478 27.3782 114.806 27.2182 115.222 27.2182ZM122.661 25.1142C122.085 25.1142 121.613 25.3062 121.261 25.6902C120.909 26.0662 120.725 26.5782 120.725 27.2182H121.381C121.389 26.7142 121.509 26.3302 121.733 26.0742C121.941 25.8022 122.245 25.6742 122.637 25.6742C123.005 25.6742 123.301 25.7702 123.509 25.9622C123.717 26.1542 123.821 26.4182 123.821 26.7702C123.821 27.1382 123.669 27.4822 123.381 27.7942C123.229 27.9542 122.933 28.1862 122.485 28.5062C121.877 28.9222 121.469 29.2662 121.245 29.5222C120.861 29.9462 120.677 30.4182 120.677 30.9382H124.485V30.3542H121.485C121.589 29.9702 122.005 29.5302 122.733 29.0422C123.325 28.6422 123.717 28.3302 123.917 28.1222C124.285 27.7222 124.477 27.2742 124.477 26.7782C124.477 26.2822 124.301 25.8742 123.965 25.5702C123.621 25.2662 123.189 25.1142 122.661 25.1142Z" fill="#333333"/>
<circle cx="14.7793" cy="28.185" r="5.19481" fill="#337EFF"/>
<path d="M14.4238 29.8928L17.0414 27.2752C17.1167 27.1999 17.1167 27.0779 17.0414 27.0026L16.7983 26.7595C16.7231 26.6842 16.601 26.6842 16.5257 26.7595L14.166 29.1193L13.2667 28.22C13.1915 28.1447 13.0694 28.1447 12.9941 28.22L12.7511 28.4631C12.6758 28.5383 12.6758 28.6604 12.7511 28.7357L13.9082 29.8928C14.0506 30.0352 14.2814 30.0352 14.4238 29.8928Z" fill="white"/>
<path d="M25.0673 25.1142C24.4753 25.1142 23.9873 25.2422 23.6113 25.4982C23.1873 25.7702 22.9793 26.1622 22.9793 26.6582C22.9793 27.1382 23.1953 27.5062 23.6353 27.7622C23.8193 27.8582 24.2593 28.0182 24.9473 28.2262C25.5873 28.4102 25.9953 28.5462 26.1553 28.6422C26.5313 28.8422 26.7233 29.1222 26.7233 29.4822C26.7233 29.7862 26.5793 30.0262 26.2913 30.2022C26.0033 30.3782 25.6193 30.4662 25.1553 30.4662C24.6433 30.4662 24.2593 30.3542 23.9953 30.1462C23.7073 29.9142 23.5313 29.5462 23.4753 29.0502H22.8273C22.8753 29.7542 23.1233 30.2742 23.5713 30.6182C23.9553 30.9062 24.4833 31.0502 25.1553 31.0502C25.8353 31.0502 26.3713 30.9062 26.7713 30.6262C27.1713 30.3382 27.3713 29.9382 27.3713 29.4422C27.3713 28.9222 27.1313 28.5222 26.6593 28.2342C26.4193 28.0902 25.9233 27.9062 25.1713 27.6822C24.6193 27.5222 24.2673 27.4022 24.1233 27.3222C23.7953 27.1462 23.6353 26.9142 23.6353 26.6262C23.6353 26.2982 23.7713 26.0582 24.0433 25.8982C24.2833 25.7542 24.6113 25.6902 25.0353 25.6902C25.4993 25.6902 25.8593 25.7862 26.1153 25.9942C26.3633 26.1942 26.5233 26.4982 26.5953 26.9142H27.2433C27.1873 26.3142 26.9713 25.8582 26.5873 25.5542C26.2193 25.2582 25.7073 25.1142 25.0673 25.1142ZM29.226 25.4662L28.594 25.7302V26.8022H27.762V27.3382H28.594V29.9702C28.594 30.2822 28.658 30.5142 28.794 30.6742C28.938 30.8502 29.186 30.9382 29.522 30.9382H30.146V30.4022H29.618C29.474 30.4022 29.37 30.3622 29.314 30.2982C29.25 30.2342 29.226 30.1222 29.226 29.9702V27.3382H30.25V26.8022H29.226V25.4662ZM32.6697 26.6902C32.0697 26.6902 31.5977 26.9062 31.2457 27.3382C30.8937 27.7462 30.7257 28.2582 30.7257 28.8662C30.7257 29.5382 30.9017 30.0662 31.2697 30.4662C31.6217 30.8502 32.1017 31.0502 32.6937 31.0502C33.2297 31.0502 33.6697 30.8902 34.0137 30.5862C34.2937 30.3302 34.4777 30.0102 34.5737 29.6102H33.9337C33.8297 29.8982 33.6937 30.1142 33.5177 30.2582C33.3097 30.4262 33.0297 30.5142 32.6937 30.5142C32.3017 30.5142 31.9897 30.3862 31.7657 30.1302C31.5417 29.8742 31.4217 29.5142 31.3897 29.0502H34.6537C34.6377 28.3302 34.4777 27.7622 34.1737 27.3622C33.8377 26.9142 33.3337 26.6902 32.6697 26.6902ZM32.6857 27.2262C33.4697 27.2262 33.9097 27.6662 33.9897 28.5542H31.4057C31.4457 28.1462 31.5737 27.8262 31.7977 27.5862C32.0217 27.3462 32.3177 27.2262 32.6857 27.2262ZM37.3792 26.6902C36.7552 26.6902 36.2992 26.9542 36.0032 27.4822V26.8022H35.4032V32.5222H36.0432V30.1862C36.3632 30.7622 36.8192 31.0502 37.4112 31.0502C38.0032 31.0502 38.4592 30.8262 38.7952 30.3942C39.0992 29.9942 39.2592 29.4902 39.2592 28.8822C39.2592 28.2582 39.0992 27.7542 38.7872 27.3542C38.4432 26.9062 37.9712 26.6902 37.3792 26.6902ZM37.2992 27.2182C37.7392 27.2182 38.0752 27.3782 38.3072 27.7142C38.4992 28.0022 38.6032 28.3942 38.6032 28.8822C38.6032 29.3782 38.4992 29.7702 38.2912 30.0582C38.0592 30.3622 37.7232 30.5222 37.2752 30.5222C36.8912 30.5222 36.5952 30.3702 36.3712 30.0822C36.1312 29.7862 36.0192 29.4022 36.0192 28.9222V28.8422C36.0192 28.3782 36.1232 27.9942 36.3312 27.7062C36.5552 27.3782 36.8832 27.2182 37.2992 27.2182ZM44.0988 25.2262C43.9068 25.4422 43.6828 25.6342 43.4108 25.8102C43.1388 25.9702 42.8668 26.0822 42.6108 26.1542V26.8102C43.1468 26.6502 43.5948 26.3942 43.9548 26.0262V30.9382H44.6108V25.2262H44.0988Z" fill="#333333"/>
<path d="M25.3853 35.0958V37.0638H24.2633V35.5638H23.8253V37.0638H22.9073V37.4838H25.4213V39.2958H25.8533V37.4838H28.2353V37.0638H25.8233V36.2358H27.6413V35.8218H25.8233V35.0958H25.3853ZM27.3413 37.9218C26.6813 39.4518 25.3133 40.2198 23.2373 40.2198L23.3933 40.6338C25.5293 40.6278 26.9813 39.7938 27.7373 38.1318L27.3413 37.9218ZM24.3473 37.7538C23.9993 38.2818 23.5673 38.7438 23.0573 39.1398L23.3273 39.4878C23.8553 39.0738 24.2933 38.5878 24.6533 38.0298L24.3473 37.7538ZM30.8813 35.3478V35.6718H31.1873V37.3698L30.8093 37.4058L30.8573 37.7418C31.3193 37.6938 31.7513 37.6398 32.1533 37.5798V37.9638H32.4893V37.5198L32.7653 37.4658V37.1418L32.4893 37.1958V35.6718H32.7413V35.3478H30.8813ZM31.5233 37.3338V36.9378H32.1533V37.2498C31.9553 37.2798 31.7453 37.3098 31.5233 37.3338ZM31.5233 36.6618V36.3258H32.1533V36.6618H31.5233ZM31.5233 36.0558V35.6718H32.1533V36.0558H31.5233ZM32.4413 38.5098V39.3798L32.1953 39.2238C32.0393 39.4158 31.8653 39.5898 31.6793 39.7398C31.4633 39.9018 31.2233 40.0338 30.9593 40.1298L31.1693 40.4658C31.4813 40.3038 31.7393 40.1418 31.9373 39.9798C32.1053 39.8478 32.2733 39.6738 32.4413 39.4578V40.6338H32.8493V39.3198C33.1433 39.7638 33.5573 40.1358 34.0853 40.4478L34.3613 40.1238C34.0133 39.9558 33.7073 39.7518 33.4493 39.5178C33.7073 39.3018 33.9353 39.0438 34.1333 38.7558L33.7973 38.5938C33.6353 38.8518 33.4433 39.0858 33.2213 39.2898C33.0773 39.1278 32.9513 38.9478 32.8493 38.7498V38.4678C33.3233 38.4078 33.7433 38.3118 34.1153 38.1918L33.9293 37.8738C33.1433 38.1018 32.1533 38.2218 30.9593 38.2278L31.0733 38.5698C31.5653 38.5698 32.0213 38.5458 32.4413 38.5098ZM32.9453 36.0678L32.7113 36.2958C32.9273 36.4938 33.1313 36.6858 33.3113 36.8778C33.1733 37.1058 33.0053 37.3038 32.8133 37.4718L33.0413 37.7718C33.2393 37.5978 33.4133 37.3938 33.5693 37.1598C33.7373 37.3518 33.8933 37.5378 34.0253 37.7298L34.2953 37.4598C34.1333 37.2558 33.9533 37.0458 33.7493 36.8358C33.8993 36.5238 34.0193 36.1638 34.1033 35.7558V35.4618H32.9153V35.8218H33.7493C33.6773 36.0858 33.5933 36.3318 33.4853 36.5598C33.3173 36.3978 33.1373 36.2358 32.9453 36.0678ZM31.7333 38.6598C31.6253 38.7918 31.5113 38.9118 31.3793 39.0078C31.2353 39.1158 31.0733 39.2058 30.8933 39.2778L31.0793 39.5838C31.3073 39.4698 31.4933 39.3558 31.6373 39.2478C31.7633 39.1398 31.8893 39.0018 32.0213 38.8338L31.7333 38.6598ZM30.2093 35.7738L29.9153 37.8558H29.3273L29.5793 36.2058L29.1893 36.1818L28.8953 38.2398H30.3293C30.3293 39.1518 30.2993 39.6978 30.2393 39.8898C30.1733 40.0758 29.9873 40.1718 29.6753 40.1718C29.6153 40.1718 29.5013 40.1598 29.3393 40.1358L29.4533 40.5138C29.5613 40.5258 29.6693 40.5318 29.7653 40.5318C30.1613 40.5318 30.4193 40.4238 30.5393 40.2198C30.6593 40.0098 30.7193 39.2238 30.7193 37.8558H30.3173L30.6293 35.3898H28.9133V35.7738H30.2093ZM30.0053 38.7858C29.6393 38.9358 29.2133 39.0558 28.7333 39.1398L28.7873 39.5418C29.2433 39.4458 29.6453 39.3258 30.0053 39.1758V38.7858ZM40.0673 37.1478H37.0733V40.5978H37.4933V40.3458H39.6473V40.5978H40.0673V37.1478ZM37.4933 39.9438V38.9538H38.3753V39.9438H37.4933ZM38.7713 39.9438V38.9538H39.6473V39.9438H38.7713ZM37.4933 38.5638V37.5498H38.3753V38.5638H37.4933ZM38.7713 37.5498H39.6473V38.5638H38.7713V37.5498ZM35.5673 40.5318C35.9033 40.5318 36.0773 40.3578 36.0773 40.0158V38.2458C36.2993 38.1438 36.5213 38.0358 36.7433 37.9158V37.4838C36.5273 37.6038 36.3053 37.7178 36.0773 37.8198V36.6198H36.6593V36.1998H36.0773V35.1018H35.6453V36.1998H34.8893V36.6198H35.6453V37.9938C35.3573 38.1018 35.0693 38.1918 34.7753 38.2698L34.8833 38.7018C35.1353 38.6178 35.3933 38.5278 35.6453 38.4318V39.9078C35.6453 40.0638 35.5673 40.1478 35.4173 40.1478C35.2613 40.1478 35.0933 40.1358 34.9253 40.1178L35.0153 40.5318H35.5673ZM37.6313 35.1198V35.8038H36.8393V36.2058H37.6313V36.8718H38.0393V36.2058H39.0833V36.8778H39.4913V36.2058H40.2833V35.8038H39.4913V35.1198H39.0833V35.8038H38.0393V35.1198H37.6313ZM44.9573 37.0158L44.6393 37.2198C45.1613 37.9458 45.5753 38.6058 45.8813 39.2058L46.2353 38.9538C45.9413 38.4018 45.5153 37.7598 44.9573 37.0158ZM41.3033 35.2038L41.0033 35.4858C41.4413 35.8278 41.7833 36.1458 42.0353 36.4398L42.3413 36.1338C42.0593 35.8218 41.7113 35.5158 41.3033 35.2038ZM44.8373 40.5018H46.1993L46.3013 40.0698C46.1453 40.0818 45.9233 40.0878 45.6353 40.0938C45.3413 40.0998 45.0533 40.1058 44.7773 40.1058C44.3093 40.1058 43.9193 40.0998 43.6073 40.0938C43.2593 40.0818 42.9893 40.0338 42.8033 39.9498C42.6353 39.8718 42.4853 39.7458 42.3413 39.5718C42.2933 39.5178 42.2453 39.4698 42.1973 39.4338V37.1898H40.9373V37.5858H41.7953V39.4098C41.5493 39.5178 41.2673 39.8238 40.9493 40.3278L41.2733 40.6218C41.6033 40.0698 41.8373 39.7938 41.9813 39.7938C42.0533 39.7938 42.1313 39.8418 42.2153 39.9438C42.3953 40.1598 42.6053 40.3098 42.8453 40.3818C43.0853 40.4478 43.3973 40.4838 43.7813 40.4898C44.1593 40.4958 44.5133 40.5018 44.8373 40.5018ZM43.9013 36.6498C43.5233 37.5678 43.0433 38.3178 42.4613 38.9058L42.7493 39.2418C43.3133 38.6298 43.7813 37.8798 44.1653 36.9858V39.8058H44.5853V36.6498H46.1993V36.2478H44.5853V35.1438H44.1653V36.2478H42.5453V36.6498H43.9013ZM45.4313 35.1138L45.0773 35.2278C45.2633 35.4798 45.4373 35.7678 45.5933 36.0978L45.9353 35.9418C45.7913 35.6478 45.6233 35.3718 45.4313 35.1138ZM47.4953 37.2498V40.6218H47.9213V36.5418C48.1313 36.1338 48.3053 35.7018 48.4493 35.2398L48.0473 35.0538C47.7773 35.9898 47.3513 36.8238 46.7633 37.5498L46.9013 38.0118C47.1173 37.7718 47.3153 37.5138 47.4953 37.2498ZM48.4253 35.8998V36.3078H52.3313V35.8998H50.4413L50.6693 35.8158C50.5973 35.5938 50.5013 35.3538 50.3753 35.0898L49.9613 35.2038C50.0813 35.4318 50.1833 35.6598 50.2733 35.8998H48.4253ZM48.9773 36.7938V37.1838H51.8153V36.7938H48.9773ZM48.9773 37.6398V38.0358H51.8153V37.6398H48.9773ZM51.9233 38.5278H48.8633V40.6098H49.2833V40.2858H51.5033V40.6098H51.9233V38.5278ZM49.2833 39.8778V38.9298H51.5033V39.8778H49.2833ZM53.7173 35.5518V38.4858H57.4733V35.5518H55.4933C55.5653 35.4198 55.6253 35.2818 55.6733 35.1318L55.2233 35.0718C55.1813 35.2398 55.1213 35.3958 55.0373 35.5518H53.7173ZM57.0533 38.1138H54.1373V37.6098H57.0533V38.1138ZM54.1373 37.2618V36.7698H57.0533V37.2618H54.1373ZM54.1373 36.4218V35.9298H57.0533V36.4218H54.1373ZM53.4173 38.8938C53.3033 39.3618 53.1173 39.7938 52.8593 40.1778L53.2253 40.4118C53.4833 40.0038 53.6813 39.5298 53.8253 38.9778L53.4173 38.8938ZM56.3093 40.5198C56.5373 40.5198 56.7113 40.4718 56.8193 40.3818C56.9393 40.2678 57.0233 39.9618 57.0713 39.4578L56.6573 39.3258C56.6333 39.7158 56.5793 39.9498 56.5073 40.0338C56.4593 40.0938 56.3633 40.1298 56.2253 40.1298H54.8933C54.7553 40.1298 54.6893 40.0578 54.6893 39.9198V38.8638H54.2513V40.0098C54.2513 40.3458 54.4193 40.5198 54.7673 40.5198H56.3093ZM55.5053 38.6478L55.1873 38.8458C55.4993 39.1578 55.7393 39.4398 55.9193 39.6978L56.2493 39.4698C56.0753 39.2358 55.8293 38.9598 55.5053 38.6478ZM57.4433 38.7858L57.1073 38.9958C57.4733 39.4698 57.7673 39.9018 57.9833 40.2918L58.3253 40.0518C58.1213 39.6918 57.8273 39.2658 57.4433 38.7858Z" fill="#999999"/>
<path d="M103.308 35.0958V37.0638H102.186V35.5638H101.748V37.0638H100.83V37.4838H103.344V39.2958H103.776V37.4838H106.158V37.0638H103.746V36.2358H105.564V35.8218H103.746V35.0958H103.308ZM105.264 37.9218C104.604 39.4518 103.236 40.2198 101.16 40.2198L101.316 40.6338C103.452 40.6278 104.904 39.7938 105.66 38.1318L105.264 37.9218ZM102.27 37.7538C101.922 38.2818 101.49 38.7438 100.98 39.1398L101.25 39.4878C101.778 39.0738 102.216 38.5878 102.576 38.0298L102.27 37.7538ZM108.804 35.3478V35.6718H109.11V37.3698L108.732 37.4058L108.78 37.7418C109.242 37.6938 109.674 37.6398 110.076 37.5798V37.9638H110.412V37.5198L110.688 37.4658V37.1418L110.412 37.1958V35.6718H110.664V35.3478H108.804ZM109.446 37.3338V36.9378H110.076V37.2498C109.878 37.2798 109.668 37.3098 109.446 37.3338ZM109.446 36.6618V36.3258H110.076V36.6618H109.446ZM109.446 36.0558V35.6718H110.076V36.0558H109.446ZM110.364 38.5098V39.3798L110.118 39.2238C109.962 39.4158 109.788 39.5898 109.602 39.7398C109.386 39.9018 109.146 40.0338 108.882 40.1298L109.092 40.4658C109.404 40.3038 109.662 40.1418 109.86 39.9798C110.028 39.8478 110.196 39.6738 110.364 39.4578V40.6338H110.772V39.3198C111.066 39.7638 111.48 40.1358 112.008 40.4478L112.284 40.1238C111.936 39.9558 111.63 39.7518 111.372 39.5178C111.63 39.3018 111.858 39.0438 112.056 38.7558L111.72 38.5938C111.558 38.8518 111.366 39.0858 111.144 39.2898C111 39.1278 110.874 38.9478 110.772 38.7498V38.4678C111.246 38.4078 111.666 38.3118 112.038 38.1918L111.852 37.8738C111.066 38.1018 110.076 38.2218 108.882 38.2278L108.996 38.5698C109.488 38.5698 109.944 38.5458 110.364 38.5098ZM110.868 36.0678L110.634 36.2958C110.85 36.4938 111.054 36.6858 111.234 36.8778C111.096 37.1058 110.928 37.3038 110.736 37.4718L110.964 37.7718C111.162 37.5978 111.336 37.3938 111.492 37.1598C111.66 37.3518 111.816 37.5378 111.948 37.7298L112.218 37.4598C112.056 37.2558 111.876 37.0458 111.672 36.8358C111.822 36.5238 111.942 36.1638 112.026 35.7558V35.4618H110.838V35.8218H111.672C111.6 36.0858 111.516 36.3318 111.408 36.5598C111.24 36.3978 111.06 36.2358 110.868 36.0678ZM109.656 38.6598C109.548 38.7918 109.434 38.9118 109.302 39.0078C109.158 39.1158 108.996 39.2058 108.816 39.2778L109.002 39.5838C109.23 39.4698 109.416 39.3558 109.56 39.2478C109.686 39.1398 109.812 39.0018 109.944 38.8338L109.656 38.6598ZM108.132 35.7738L107.838 37.8558H107.25L107.502 36.2058L107.112 36.1818L106.818 38.2398H108.252C108.252 39.1518 108.222 39.6978 108.162 39.8898C108.096 40.0758 107.91 40.1718 107.598 40.1718C107.538 40.1718 107.424 40.1598 107.262 40.1358L107.376 40.5138C107.484 40.5258 107.592 40.5318 107.688 40.5318C108.084 40.5318 108.342 40.4238 108.462 40.2198C108.582 40.0098 108.642 39.2238 108.642 37.8558H108.24L108.552 35.3898H106.836V35.7738H108.132ZM107.928 38.7858C107.562 38.9358 107.136 39.0558 106.656 39.1398L106.71 39.5418C107.166 39.4458 107.568 39.3258 107.928 39.1758V38.7858ZM117.99 37.1478H114.996V40.5978H115.416V40.3458H117.57V40.5978H117.99V37.1478ZM115.416 39.9438V38.9538H116.298V39.9438H115.416ZM116.694 39.9438V38.9538H117.57V39.9438H116.694ZM115.416 38.5638V37.5498H116.298V38.5638H115.416ZM116.694 37.5498H117.57V38.5638H116.694V37.5498ZM113.49 40.5318C113.826 40.5318 114 40.3578 114 40.0158V38.2458C114.222 38.1438 114.444 38.0358 114.666 37.9158V37.4838C114.45 37.6038 114.228 37.7178 114 37.8198V36.6198H114.582V36.1998H114V35.1018H113.568V36.1998H112.812V36.6198H113.568V37.9938C113.28 38.1018 112.992 38.1918 112.698 38.2698L112.806 38.7018C113.058 38.6178 113.316 38.5278 113.568 38.4318V39.9078C113.568 40.0638 113.49 40.1478 113.34 40.1478C113.184 40.1478 113.016 40.1358 112.848 40.1178L112.938 40.5318H113.49ZM115.554 35.1198V35.8038H114.762V36.2058H115.554V36.8718H115.962V36.2058H117.006V36.8778H117.414V36.2058H118.206V35.8038H117.414V35.1198H117.006V35.8038H115.962V35.1198H115.554ZM122.88 37.0158L122.562 37.2198C123.084 37.9458 123.498 38.6058 123.804 39.2058L124.158 38.9538C123.864 38.4018 123.438 37.7598 122.88 37.0158ZM119.226 35.2038L118.926 35.4858C119.364 35.8278 119.706 36.1458 119.958 36.4398L120.264 36.1338C119.982 35.8218 119.634 35.5158 119.226 35.2038ZM122.76 40.5018H124.122L124.224 40.0698C124.068 40.0818 123.846 40.0878 123.558 40.0938C123.264 40.0998 122.976 40.1058 122.7 40.1058C122.232 40.1058 121.842 40.0998 121.53 40.0938C121.182 40.0818 120.912 40.0338 120.726 39.9498C120.558 39.8718 120.408 39.7458 120.264 39.5718C120.216 39.5178 120.168 39.4698 120.12 39.4338V37.1898H118.86V37.5858H119.718V39.4098C119.472 39.5178 119.19 39.8238 118.872 40.3278L119.196 40.6218C119.526 40.0698 119.76 39.7938 119.904 39.7938C119.976 39.7938 120.054 39.8418 120.138 39.9438C120.318 40.1598 120.528 40.3098 120.768 40.3818C121.008 40.4478 121.32 40.4838 121.704 40.4898C122.082 40.4958 122.436 40.5018 122.76 40.5018ZM121.824 36.6498C121.446 37.5678 120.966 38.3178 120.384 38.9058L120.672 39.2418C121.236 38.6298 121.704 37.8798 122.088 36.9858V39.8058H122.508V36.6498H124.122V36.2478H122.508V35.1438H122.088V36.2478H120.468V36.6498H121.824ZM123.354 35.1138L123 35.2278C123.186 35.4798 123.36 35.7678 123.516 36.0978L123.858 35.9418C123.714 35.6478 123.546 35.3718 123.354 35.1138ZM125.418 37.2498V40.6218H125.844V36.5418C126.054 36.1338 126.228 35.7018 126.372 35.2398L125.97 35.0538C125.7 35.9898 125.274 36.8238 124.686 37.5498L124.824 38.0118C125.04 37.7718 125.238 37.5138 125.418 37.2498ZM126.348 35.8998V36.3078H130.254V35.8998H128.364L128.592 35.8158C128.52 35.5938 128.424 35.3538 128.298 35.0898L127.884 35.2038C128.004 35.4318 128.106 35.6598 128.196 35.8998H126.348ZM126.9 36.7938V37.1838H129.738V36.7938H126.9ZM126.9 37.6398V38.0358H129.738V37.6398H126.9ZM129.846 38.5278H126.786V40.6098H127.206V40.2858H129.426V40.6098H129.846V38.5278ZM127.206 39.8778V38.9298H129.426V39.8778H127.206ZM131.64 35.5518V38.4858H135.396V35.5518H133.416C133.488 35.4198 133.548 35.2818 133.596 35.1318L133.146 35.0718C133.104 35.2398 133.044 35.3958 132.96 35.5518H131.64ZM134.976 38.1138H132.06V37.6098H134.976V38.1138ZM132.06 37.2618V36.7698H134.976V37.2618H132.06ZM132.06 36.4218V35.9298H134.976V36.4218H132.06ZM131.34 38.8938C131.226 39.3618 131.04 39.7938 130.782 40.1778L131.148 40.4118C131.406 40.0038 131.604 39.5298 131.748 38.9778L131.34 38.8938ZM134.232 40.5198C134.46 40.5198 134.634 40.4718 134.742 40.3818C134.862 40.2678 134.946 39.9618 134.994 39.4578L134.58 39.3258C134.556 39.7158 134.502 39.9498 134.43 40.0338C134.382 40.0938 134.286 40.1298 134.148 40.1298H132.816C132.678 40.1298 132.612 40.0578 132.612 39.9198V38.8638H132.174V40.0098C132.174 40.3458 132.342 40.5198 132.69 40.5198H134.232ZM133.428 38.6478L133.11 38.8458C133.422 39.1578 133.662 39.4398 133.842 39.6978L134.172 39.4698C133.998 39.2358 133.752 38.9598 133.428 38.6478ZM135.366 38.7858L135.03 38.9958C135.396 39.4698 135.69 39.9018 135.906 40.2918L136.248 40.0518C136.044 39.6918 135.75 39.2658 135.366 38.7858Z" fill="#999999"/>
<path d="M181.23 35.0958V37.0638H180.108V35.5638H179.67V37.0638H178.752V37.4838H181.266V39.2958H181.698V37.4838H184.08V37.0638H181.668V36.2358H183.486V35.8218H181.668V35.0958H181.23ZM183.186 37.9218C182.526 39.4518 181.158 40.2198 179.082 40.2198L179.238 40.6338C181.374 40.6278 182.826 39.7938 183.582 38.1318L183.186 37.9218ZM180.192 37.7538C179.844 38.2818 179.412 38.7438 178.902 39.1398L179.172 39.4878C179.7 39.0738 180.138 38.5878 180.498 38.0298L180.192 37.7538ZM186.726 35.3478V35.6718H187.032V37.3698L186.654 37.4058L186.702 37.7418C187.164 37.6938 187.596 37.6398 187.998 37.5798V37.9638H188.334V37.5198L188.61 37.4658V37.1418L188.334 37.1958V35.6718H188.586V35.3478H186.726ZM187.368 37.3338V36.9378H187.998V37.2498C187.8 37.2798 187.59 37.3098 187.368 37.3338ZM187.368 36.6618V36.3258H187.998V36.6618H187.368ZM187.368 36.0558V35.6718H187.998V36.0558H187.368ZM188.286 38.5098V39.3798L188.04 39.2238C187.884 39.4158 187.71 39.5898 187.524 39.7398C187.308 39.9018 187.068 40.0338 186.804 40.1298L187.014 40.4658C187.326 40.3038 187.584 40.1418 187.782 39.9798C187.95 39.8478 188.118 39.6738 188.286 39.4578V40.6338H188.694V39.3198C188.988 39.7638 189.402 40.1358 189.93 40.4478L190.206 40.1238C189.858 39.9558 189.552 39.7518 189.294 39.5178C189.552 39.3018 189.78 39.0438 189.978 38.7558L189.642 38.5938C189.48 38.8518 189.288 39.0858 189.066 39.2898C188.922 39.1278 188.796 38.9478 188.694 38.7498V38.4678C189.168 38.4078 189.588 38.3118 189.96 38.1918L189.774 37.8738C188.988 38.1018 187.998 38.2218 186.804 38.2278L186.918 38.5698C187.41 38.5698 187.866 38.5458 188.286 38.5098ZM188.79 36.0678L188.556 36.2958C188.772 36.4938 188.976 36.6858 189.156 36.8778C189.018 37.1058 188.85 37.3038 188.658 37.4718L188.886 37.7718C189.084 37.5978 189.258 37.3938 189.414 37.1598C189.582 37.3518 189.738 37.5378 189.87 37.7298L190.14 37.4598C189.978 37.2558 189.798 37.0458 189.594 36.8358C189.744 36.5238 189.864 36.1638 189.948 35.7558V35.4618H188.76V35.8218H189.594C189.522 36.0858 189.438 36.3318 189.33 36.5598C189.162 36.3978 188.982 36.2358 188.79 36.0678ZM187.578 38.6598C187.47 38.7918 187.356 38.9118 187.224 39.0078C187.08 39.1158 186.918 39.2058 186.738 39.2778L186.924 39.5838C187.152 39.4698 187.338 39.3558 187.482 39.2478C187.608 39.1398 187.734 39.0018 187.866 38.8338L187.578 38.6598ZM186.054 35.7738L185.76 37.8558H185.172L185.424 36.2058L185.034 36.1818L184.74 38.2398H186.174C186.174 39.1518 186.144 39.6978 186.084 39.8898C186.018 40.0758 185.832 40.1718 185.52 40.1718C185.46 40.1718 185.346 40.1598 185.184 40.1358L185.298 40.5138C185.406 40.5258 185.514 40.5318 185.61 40.5318C186.006 40.5318 186.264 40.4238 186.384 40.2198C186.504 40.0098 186.564 39.2238 186.564 37.8558H186.162L186.474 35.3898H184.758V35.7738H186.054ZM185.85 38.7858C185.484 38.9358 185.058 39.0558 184.578 39.1398L184.632 39.5418C185.088 39.4458 185.49 39.3258 185.85 39.1758V38.7858ZM195.912 37.1478H192.918V40.5978H193.338V40.3458H195.492V40.5978H195.912V37.1478ZM193.338 39.9438V38.9538H194.22V39.9438H193.338ZM194.616 39.9438V38.9538H195.492V39.9438H194.616ZM193.338 38.5638V37.5498H194.22V38.5638H193.338ZM194.616 37.5498H195.492V38.5638H194.616V37.5498ZM191.412 40.5318C191.748 40.5318 191.922 40.3578 191.922 40.0158V38.2458C192.144 38.1438 192.366 38.0358 192.588 37.9158V37.4838C192.372 37.6038 192.15 37.7178 191.922 37.8198V36.6198H192.504V36.1998H191.922V35.1018H191.49V36.1998H190.734V36.6198H191.49V37.9938C191.202 38.1018 190.914 38.1918 190.62 38.2698L190.728 38.7018C190.98 38.6178 191.238 38.5278 191.49 38.4318V39.9078C191.49 40.0638 191.412 40.1478 191.262 40.1478C191.106 40.1478 190.938 40.1358 190.77 40.1178L190.86 40.5318H191.412ZM193.476 35.1198V35.8038H192.684V36.2058H193.476V36.8718H193.884V36.2058H194.928V36.8778H195.336V36.2058H196.128V35.8038H195.336V35.1198H194.928V35.8038H193.884V35.1198H193.476ZM200.802 37.0158L200.484 37.2198C201.006 37.9458 201.42 38.6058 201.726 39.2058L202.08 38.9538C201.786 38.4018 201.36 37.7598 200.802 37.0158ZM197.148 35.2038L196.848 35.4858C197.286 35.8278 197.628 36.1458 197.88 36.4398L198.186 36.1338C197.904 35.8218 197.556 35.5158 197.148 35.2038ZM200.682 40.5018H202.044L202.146 40.0698C201.99 40.0818 201.768 40.0878 201.48 40.0938C201.186 40.0998 200.898 40.1058 200.622 40.1058C200.154 40.1058 199.764 40.0998 199.452 40.0938C199.104 40.0818 198.834 40.0338 198.648 39.9498C198.48 39.8718 198.33 39.7458 198.186 39.5718C198.138 39.5178 198.09 39.4698 198.042 39.4338V37.1898H196.782V37.5858H197.64V39.4098C197.394 39.5178 197.112 39.8238 196.794 40.3278L197.118 40.6218C197.448 40.0698 197.682 39.7938 197.826 39.7938C197.898 39.7938 197.976 39.8418 198.06 39.9438C198.24 40.1598 198.45 40.3098 198.69 40.3818C198.93 40.4478 199.242 40.4838 199.626 40.4898C200.004 40.4958 200.358 40.5018 200.682 40.5018ZM199.746 36.6498C199.368 37.5678 198.888 38.3178 198.306 38.9058L198.594 39.2418C199.158 38.6298 199.626 37.8798 200.01 36.9858V39.8058H200.43V36.6498H202.044V36.2478H200.43V35.1438H200.01V36.2478H198.39V36.6498H199.746ZM201.276 35.1138L200.922 35.2278C201.108 35.4798 201.282 35.7678 201.438 36.0978L201.78 35.9418C201.636 35.6478 201.468 35.3718 201.276 35.1138ZM203.34 37.2498V40.6218H203.766V36.5418C203.976 36.1338 204.15 35.7018 204.294 35.2398L203.892 35.0538C203.622 35.9898 203.196 36.8238 202.608 37.5498L202.746 38.0118C202.962 37.7718 203.16 37.5138 203.34 37.2498ZM204.27 35.8998V36.3078H208.176V35.8998H206.286L206.514 35.8158C206.442 35.5938 206.346 35.3538 206.22 35.0898L205.806 35.2038C205.926 35.4318 206.028 35.6598 206.118 35.8998H204.27ZM204.822 36.7938V37.1838H207.66V36.7938H204.822ZM204.822 37.6398V38.0358H207.66V37.6398H204.822ZM207.768 38.5278H204.708V40.6098H205.128V40.2858H207.348V40.6098H207.768V38.5278ZM205.128 39.8778V38.9298H207.348V39.8778H205.128ZM209.562 35.5518V38.4858H213.318V35.5518H211.338C211.41 35.4198 211.47 35.2818 211.518 35.1318L211.068 35.0718C211.026 35.2398 210.966 35.3958 210.882 35.5518H209.562ZM212.898 38.1138H209.982V37.6098H212.898V38.1138ZM209.982 37.2618V36.7698H212.898V37.2618H209.982ZM209.982 36.4218V35.9298H212.898V36.4218H209.982ZM209.262 38.8938C209.148 39.3618 208.962 39.7938 208.704 40.1778L209.07 40.4118C209.328 40.0038 209.526 39.5298 209.67 38.9778L209.262 38.8938ZM212.154 40.5198C212.382 40.5198 212.556 40.4718 212.664 40.3818C212.784 40.2678 212.868 39.9618 212.916 39.4578L212.502 39.3258C212.478 39.7158 212.424 39.9498 212.352 40.0338C212.304 40.0938 212.208 40.1298 212.07 40.1298H210.738C210.6 40.1298 210.534 40.0578 210.534 39.9198V38.8638H210.096V40.0098C210.096 40.3458 210.264 40.5198 210.612 40.5198H212.154ZM211.35 38.6478L211.032 38.8458C211.344 39.1578 211.584 39.4398 211.764 39.6978L212.094 39.4698C211.92 39.2358 211.674 38.9598 211.35 38.6478ZM213.288 38.7858L212.952 38.9958C213.318 39.4698 213.612 39.9018 213.828 40.2918L214.17 40.0518C213.966 39.6918 213.672 39.2658 213.288 38.7858Z" fill="#999999"/>
<rect x="50.5845" y="27.9902" width="35" height="1" fill="#337EFF"/>
<rect x="130.584" y="27.9902" width="34" height="1" fill="#E5E5E5"/>
<rect x="0.5" y="0.5" width="223" height="63" rx="3.5" stroke="#E5E5E5"/>
</svg>
