<svg width="224" height="64" viewBox="0 0 224 64" fill="none" xmlns="http://www.w3.org/2000/svg">
<rect x="0.5" y="0.5" width="223" height="63" rx="3.5" fill="white"/>
<rect x="175.33" y="26.7308" width="10.5384" height="10.5384" rx="5.26919" stroke="#CCCCCC" stroke-width="0.45819"/>
<path d="M191.343 28.7395C190.751 28.7395 190.263 28.8675 189.887 29.1235C189.463 29.3955 189.255 29.7875 189.255 30.2835C189.255 30.7635 189.471 31.1315 189.911 31.3875C190.095 31.4835 190.535 31.6435 191.223 31.8515C191.863 32.0355 192.271 32.1715 192.431 32.2675C192.807 32.4675 192.999 32.7475 192.999 33.1075C192.999 33.4115 192.855 33.6515 192.567 33.8275C192.279 34.0035 191.895 34.0915 191.431 34.0915C190.919 34.0915 190.535 33.9795 190.271 33.7715C189.983 33.5395 189.807 33.1715 189.751 32.6755H189.103C189.151 33.3795 189.399 33.8995 189.847 34.2435C190.231 34.5315 190.759 34.6755 191.431 34.6755C192.111 34.6755 192.647 34.5315 193.047 34.2515C193.447 33.9635 193.647 33.5635 193.647 33.0675C193.647 32.5475 193.407 32.1475 192.935 31.8595C192.695 31.7155 192.199 31.5315 191.447 31.3075C190.895 31.1475 190.543 31.0275 190.399 30.9475C190.071 30.7715 189.911 30.5395 189.911 30.2515C189.911 29.9235 190.047 29.6835 190.319 29.5235C190.559 29.3795 190.887 29.3155 191.311 29.3155C191.775 29.3155 192.135 29.4115 192.391 29.6195C192.639 29.8195 192.799 30.1235 192.871 30.5395H193.519C193.463 29.9395 193.247 29.4835 192.863 29.1795C192.495 28.8835 191.983 28.7395 191.343 28.7395ZM195.502 29.0915L194.87 29.3555V30.4275H194.038V30.9635H194.87V33.5955C194.87 33.9075 194.934 34.1395 195.07 34.2995C195.214 34.4755 195.462 34.5635 195.798 34.5635H196.422V34.0275H195.894C195.75 34.0275 195.646 33.9875 195.59 33.9235C195.526 33.8595 195.502 33.7475 195.502 33.5955V30.9635H196.526V30.4275H195.502V29.0915ZM198.946 30.3155C198.346 30.3155 197.874 30.5315 197.522 30.9635C197.17 31.3715 197.002 31.8835 197.002 32.4915C197.002 33.1635 197.178 33.6915 197.546 34.0915C197.898 34.4755 198.378 34.6755 198.97 34.6755C199.506 34.6755 199.946 34.5155 200.29 34.2115C200.57 33.9555 200.754 33.6355 200.85 33.2355H200.21C200.106 33.5235 199.97 33.7395 199.794 33.8835C199.586 34.0515 199.306 34.1395 198.97 34.1395C198.578 34.1395 198.266 34.0115 198.042 33.7555C197.818 33.4995 197.698 33.1395 197.666 32.6755H200.93C200.914 31.9555 200.754 31.3875 200.45 30.9875C200.114 30.5395 199.61 30.3155 198.946 30.3155ZM198.962 30.8515C199.746 30.8515 200.186 31.2915 200.266 32.1795H197.682C197.722 31.7715 197.85 31.4515 198.074 31.2115C198.298 30.9715 198.594 30.8515 198.962 30.8515ZM203.655 30.3155C203.031 30.3155 202.575 30.5795 202.279 31.1075V30.4275H201.679V36.1475H202.319V33.8115C202.639 34.3875 203.095 34.6755 203.687 34.6755C204.279 34.6755 204.735 34.4515 205.071 34.0195C205.375 33.6195 205.535 33.1155 205.535 32.5075C205.535 31.8835 205.375 31.3795 205.063 30.9795C204.719 30.5315 204.247 30.3155 203.655 30.3155ZM203.575 30.8435C204.015 30.8435 204.351 31.0035 204.583 31.3395C204.775 31.6275 204.879 32.0195 204.879 32.5075C204.879 33.0035 204.775 33.3955 204.567 33.6835C204.335 33.9875 203.999 34.1475 203.551 34.1475C203.167 34.1475 202.871 33.9955 202.647 33.7075C202.407 33.4115 202.295 33.0275 202.295 32.5475V32.4675C202.295 32.0035 202.399 31.6195 202.607 31.3315C202.831 31.0035 203.159 30.8435 203.575 30.8435ZM210.991 28.7395C210.447 28.7395 210.007 28.8915 209.671 29.2035C209.319 29.5155 209.111 29.9475 209.063 30.4995H209.711C209.751 30.1155 209.879 29.8195 210.103 29.6115C210.319 29.4035 210.615 29.3075 210.999 29.3075C211.367 29.3075 211.663 29.3955 211.871 29.5875C212.063 29.7635 212.167 30.0115 212.167 30.3315C212.167 30.6515 212.063 30.8995 211.863 31.0755C211.663 31.2435 211.375 31.3315 210.991 31.3315H210.551V31.8435H211.015C211.415 31.8435 211.719 31.9315 211.943 32.1235C212.167 32.3155 212.279 32.5795 212.279 32.9235C212.279 33.2595 212.159 33.5395 211.935 33.7635C211.687 33.9955 211.359 34.1155 210.951 34.1155C210.591 34.1155 210.295 34.0115 210.055 33.8195C209.775 33.5875 209.623 33.2435 209.607 32.7955H208.943C208.991 33.4355 209.215 33.9235 209.623 34.2595C209.967 34.5315 210.407 34.6755 210.951 34.6755C211.543 34.6755 212.023 34.5075 212.391 34.1715C212.751 33.8435 212.935 33.4195 212.935 32.8995C212.935 32.5635 212.839 32.2835 212.647 32.0595C212.471 31.8355 212.215 31.6755 211.879 31.5715C212.503 31.3635 212.815 30.9315 212.815 30.2915C212.815 29.8115 212.647 29.4355 212.319 29.1555C211.983 28.8755 211.535 28.7395 210.991 28.7395Z" fill="#333333"/>
<rect x="92.856" y="26.7308" width="10.5384" height="10.5384" rx="5.26919" fill="#F5F5F5"/>
<rect x="92.856" y="26.7308" width="10.5384" height="10.5384" rx="5.26919" stroke="#E5E5E5" stroke-width="0.45819"/>
<path d="M108.869 28.7395C108.277 28.7395 107.789 28.8675 107.413 29.1235C106.989 29.3955 106.781 29.7875 106.781 30.2835C106.781 30.7635 106.997 31.1315 107.437 31.3875C107.621 31.4835 108.061 31.6435 108.749 31.8515C109.389 32.0355 109.797 32.1715 109.957 32.2675C110.333 32.4675 110.525 32.7475 110.525 33.1075C110.525 33.4115 110.381 33.6515 110.093 33.8275C109.805 34.0035 109.421 34.0915 108.957 34.0915C108.445 34.0915 108.061 33.9795 107.797 33.7715C107.509 33.5395 107.333 33.1715 107.277 32.6755H106.629C106.677 33.3795 106.925 33.8995 107.373 34.2435C107.757 34.5315 108.285 34.6755 108.957 34.6755C109.637 34.6755 110.173 34.5315 110.573 34.2515C110.973 33.9635 111.173 33.5635 111.173 33.0675C111.173 32.5475 110.933 32.1475 110.461 31.8595C110.221 31.7155 109.725 31.5315 108.973 31.3075C108.421 31.1475 108.069 31.0275 107.925 30.9475C107.597 30.7715 107.437 30.5395 107.437 30.2515C107.437 29.9235 107.573 29.6835 107.845 29.5235C108.085 29.3795 108.413 29.3155 108.837 29.3155C109.301 29.3155 109.661 29.4115 109.917 29.6195C110.165 29.8195 110.325 30.1235 110.397 30.5395H111.045C110.989 29.9395 110.773 29.4835 110.389 29.1795C110.021 28.8835 109.509 28.7395 108.869 28.7395ZM113.027 29.0915L112.395 29.3555V30.4275H111.563V30.9635H112.395V33.5955C112.395 33.9075 112.459 34.1395 112.595 34.2995C112.739 34.4755 112.987 34.5635 113.323 34.5635H113.947V34.0275H113.419C113.275 34.0275 113.171 33.9875 113.115 33.9235C113.051 33.8595 113.027 33.7475 113.027 33.5955V30.9635H114.051V30.4275H113.027V29.0915ZM116.471 30.3155C115.871 30.3155 115.399 30.5315 115.047 30.9635C114.695 31.3715 114.527 31.8835 114.527 32.4915C114.527 33.1635 114.703 33.6915 115.071 34.0915C115.423 34.4755 115.903 34.6755 116.495 34.6755C117.031 34.6755 117.471 34.5155 117.815 34.2115C118.095 33.9555 118.279 33.6355 118.375 33.2355H117.735C117.631 33.5235 117.495 33.7395 117.319 33.8835C117.111 34.0515 116.831 34.1395 116.495 34.1395C116.103 34.1395 115.791 34.0115 115.567 33.7555C115.343 33.4995 115.223 33.1395 115.191 32.6755H118.455C118.439 31.9555 118.279 31.3875 117.975 30.9875C117.639 30.5395 117.135 30.3155 116.471 30.3155ZM116.487 30.8515C117.271 30.8515 117.711 31.2915 117.791 32.1795H115.207C115.247 31.7715 115.375 31.4515 115.599 31.2115C115.823 30.9715 116.119 30.8515 116.487 30.8515ZM121.18 30.3155C120.556 30.3155 120.1 30.5795 119.804 31.1075V30.4275H119.204V36.1475H119.844V33.8115C120.164 34.3875 120.62 34.6755 121.212 34.6755C121.804 34.6755 122.26 34.4515 122.596 34.0195C122.9 33.6195 123.06 33.1155 123.06 32.5075C123.06 31.8835 122.9 31.3795 122.588 30.9795C122.244 30.5315 121.772 30.3155 121.18 30.3155ZM121.1 30.8435C121.54 30.8435 121.876 31.0035 122.108 31.3395C122.3 31.6275 122.404 32.0195 122.404 32.5075C122.404 33.0035 122.3 33.3955 122.092 33.6835C121.86 33.9875 121.524 34.1475 121.076 34.1475C120.692 34.1475 120.396 33.9955 120.172 33.7075C119.932 33.4115 119.82 33.0275 119.82 32.5475V32.4675C119.82 32.0035 119.924 31.6195 120.132 31.3315C120.356 31.0035 120.684 30.8435 121.1 30.8435ZM128.54 28.7395C127.964 28.7395 127.492 28.9315 127.14 29.3155C126.788 29.6915 126.604 30.2035 126.604 30.8435H127.26C127.268 30.3395 127.388 29.9555 127.612 29.6995C127.82 29.4275 128.124 29.2995 128.516 29.2995C128.884 29.2995 129.18 29.3955 129.388 29.5875C129.596 29.7795 129.7 30.0435 129.7 30.3955C129.7 30.7635 129.548 31.1075 129.26 31.4195C129.108 31.5795 128.812 31.8115 128.364 32.1315C127.756 32.5475 127.348 32.8915 127.124 33.1475C126.74 33.5715 126.556 34.0435 126.556 34.5635H130.364V33.9795H127.364C127.468 33.5955 127.884 33.1555 128.612 32.6675C129.204 32.2675 129.596 31.9555 129.796 31.7475C130.164 31.3475 130.356 30.8995 130.356 30.4035C130.356 29.9075 130.18 29.4995 129.844 29.1955C129.5 28.8915 129.068 28.7395 128.54 28.7395Z" fill="#999999"/>
<circle cx="15.6511" cy="32" r="5.49828" fill="#337EFF"/>
<path d="M15.275 33.8074L18.0455 31.0369C18.1251 30.9572 18.1251 30.828 18.0455 30.7483L17.7882 30.4911C17.7085 30.4114 17.5793 30.4114 17.4996 30.4911L15.0021 32.9887L14.0503 32.0369C13.9706 31.9572 13.8414 31.9572 13.7617 32.0369L13.5045 32.2941C13.4248 32.3738 13.4248 32.503 13.5045 32.5827L14.7292 33.8074C14.8799 33.9581 15.1243 33.9581 15.275 33.8074Z" fill="white"/>
<path d="M26.3944 28.7395C25.8024 28.7395 25.3144 28.8675 24.9384 29.1235C24.5144 29.3955 24.3064 29.7875 24.3064 30.2835C24.3064 30.7635 24.5224 31.1315 24.9624 31.3875C25.1464 31.4835 25.5864 31.6435 26.2744 31.8515C26.9144 32.0355 27.3224 32.1715 27.4824 32.2675C27.8584 32.4675 28.0504 32.7475 28.0504 33.1075C28.0504 33.4115 27.9064 33.6515 27.6184 33.8275C27.3304 34.0035 26.9464 34.0915 26.4824 34.0915C25.9704 34.0915 25.5864 33.9795 25.3224 33.7715C25.0344 33.5395 24.8584 33.1715 24.8024 32.6755H24.1544C24.2024 33.3795 24.4504 33.8995 24.8984 34.2435C25.2824 34.5315 25.8104 34.6755 26.4824 34.6755C27.1624 34.6755 27.6984 34.5315 28.0984 34.2515C28.4984 33.9635 28.6984 33.5635 28.6984 33.0675C28.6984 32.5475 28.4584 32.1475 27.9864 31.8595C27.7464 31.7155 27.2504 31.5315 26.4984 31.3075C25.9464 31.1475 25.5944 31.0275 25.4504 30.9475C25.1224 30.7715 24.9624 30.5395 24.9624 30.2515C24.9624 29.9235 25.0984 29.6835 25.3704 29.5235C25.6104 29.3795 25.9384 29.3155 26.3624 29.3155C26.8264 29.3155 27.1864 29.4115 27.4424 29.6195C27.6904 29.8195 27.8504 30.1235 27.9224 30.5395H28.5704C28.5144 29.9395 28.2984 29.4835 27.9144 29.1795C27.5464 28.8835 27.0344 28.7395 26.3944 28.7395ZM30.5531 29.0915L29.9211 29.3555V30.4275H29.0891V30.9635H29.9211V33.5955C29.9211 33.9075 29.9851 34.1395 30.1211 34.2995C30.2651 34.4755 30.5131 34.5635 30.8491 34.5635H31.4731V34.0275H30.9451C30.8011 34.0275 30.6971 33.9875 30.6411 33.9235C30.5771 33.8595 30.5531 33.7475 30.5531 33.5955V30.9635H31.5771V30.4275H30.5531V29.0915ZM33.9969 30.3155C33.3969 30.3155 32.9249 30.5315 32.5729 30.9635C32.2209 31.3715 32.0529 31.8835 32.0529 32.4915C32.0529 33.1635 32.2289 33.6915 32.5969 34.0915C32.9489 34.4755 33.4289 34.6755 34.0209 34.6755C34.5569 34.6755 34.9969 34.5155 35.3409 34.2115C35.6209 33.9555 35.8049 33.6355 35.9009 33.2355H35.2609C35.1569 33.5235 35.0209 33.7395 34.8449 33.8835C34.6369 34.0515 34.3569 34.1395 34.0209 34.1395C33.6289 34.1395 33.3169 34.0115 33.0929 33.7555C32.8689 33.4995 32.7489 33.1395 32.7169 32.6755H35.9809C35.9649 31.9555 35.8049 31.3875 35.5009 30.9875C35.1649 30.5395 34.6609 30.3155 33.9969 30.3155ZM34.0129 30.8515C34.7969 30.8515 35.2369 31.2915 35.3169 32.1795H32.7329C32.7729 31.7715 32.9009 31.4515 33.1249 31.2115C33.3489 30.9715 33.6449 30.8515 34.0129 30.8515ZM38.7064 30.3155C38.0824 30.3155 37.6264 30.5795 37.3304 31.1075V30.4275H36.7304V36.1475H37.3704V33.8115C37.6904 34.3875 38.1464 34.6755 38.7384 34.6755C39.3304 34.6755 39.7864 34.4515 40.1224 34.0195C40.4264 33.6195 40.5864 33.1155 40.5864 32.5075C40.5864 31.8835 40.4264 31.3795 40.1144 30.9795C39.7704 30.5315 39.2984 30.3155 38.7064 30.3155ZM38.6264 30.8435C39.0664 30.8435 39.4024 31.0035 39.6344 31.3395C39.8264 31.6275 39.9304 32.0195 39.9304 32.5075C39.9304 33.0035 39.8264 33.3955 39.6184 33.6835C39.3864 33.9875 39.0504 34.1475 38.6024 34.1475C38.2184 34.1475 37.9224 33.9955 37.6984 33.7075C37.4584 33.4115 37.3464 33.0275 37.3464 32.5475V32.4675C37.3464 32.0035 37.4504 31.6195 37.6584 31.3315C37.8824 31.0035 38.2104 30.8435 38.6264 30.8435ZM45.4259 28.8515C45.2339 29.0675 45.0099 29.2595 44.7379 29.4355C44.4659 29.5955 44.1939 29.7075 43.9379 29.7795V30.4355C44.4739 30.2755 44.9219 30.0195 45.2819 29.6515V34.5635H45.9379V28.8515H45.4259Z" fill="#333333"/>
<rect x="53.1528" y="31.5017" width="35" height="1" fill="#E5E5E5"/>
<rect x="137.153" y="31.5017" width="35" height="1" fill="#E5E5E5"/>
<rect x="0.5" y="0.5" width="223" height="63" rx="3.5" stroke="#E5E5E5"/>
</svg>
