<svg width="370" height="255" viewBox="0 0 370 255" fill="none" xmlns="http://www.w3.org/2000/svg">
<rect x="4" y="1" width="362" height="34" rx="5" fill="white" stroke="#D6E5FF" stroke-width="2"/>
<rect x="5.5" y="2.5" width="359" height="31" rx="3.5" fill="white" stroke="#337EFF"/>
<path d="M340.972 21L340 20.0233L345 15L350 20.0233L349.028 21L345 16.9535L340.972 21Z" fill="#666666"/>
<path d="M24.364 11.352L23.258 11.548C23.538 11.996 23.804 12.5 24.028 13.046H18.82V17.148C18.792 19.976 18.372 22.174 17.588 23.77L18.414 24.512C19.324 22.664 19.8 20.214 19.856 17.148V14.012H30.23V13.046H25.134C24.882 12.416 24.63 11.856 24.364 11.352ZM32.96 14.936C32.764 16.364 32.414 17.722 31.896 18.982L32.806 19.29C33.31 17.974 33.646 16.602 33.828 15.174L32.96 14.936ZM38.7 12.08V23.938H39.68V12.08H38.7ZM42.564 11.632V24.414H43.53V11.632H42.564ZM36.656 15.258L35.844 15.608C36.404 16.644 36.922 17.82 37.37 19.15L38.196 18.73C37.748 17.47 37.23 16.322 36.656 15.258ZM34.766 11.744V16.014C34.738 19.57 33.926 22.146 32.33 23.756L33.072 24.414C34.808 22.65 35.704 19.85 35.732 16.014V11.744H34.766ZM40.548 15.132L39.736 15.482C40.296 16.504 40.8 17.68 41.248 18.996L42.06 18.59C41.626 17.33 41.122 16.182 40.548 15.132ZM55.1501 11.52L50.1801 24.4H51.1881L56.1441 11.52H55.1501ZM68.6882 11.352L67.5822 11.548C67.8622 11.996 68.1282 12.5 68.3522 13.046H63.1442V17.148C63.1162 19.976 62.6962 22.174 61.9122 23.77L62.7382 24.512C63.6482 22.664 64.1242 20.214 64.1802 17.148V14.012H74.5542V13.046H69.4582C69.2062 12.416 68.9542 11.856 68.6882 11.352ZM77.2842 14.936C77.0882 16.364 76.7382 17.722 76.2202 18.982L77.1302 19.29C77.6342 17.974 77.9702 16.602 78.1522 15.174L77.2842 14.936ZM83.0242 12.08V23.938H84.0042V12.08H83.0242ZM86.8882 11.632V24.414H87.8542V11.632H86.8882ZM80.9802 15.258L80.1682 15.608C80.7282 16.644 81.2462 17.82 81.6942 19.15L82.5202 18.73C82.0722 17.47 81.5542 16.322 80.9802 15.258ZM79.0902 11.744V16.014C79.0622 19.57 78.2502 22.146 76.6542 23.756L77.3962 24.414C79.1322 22.65 80.0282 19.85 80.0562 16.014V11.744H79.0902ZM84.8722 15.132L84.0602 15.482C84.6202 16.504 85.1242 17.68 85.5722 18.996L86.3842 18.59C85.9502 17.33 85.4462 16.182 84.8722 15.132Z" fill="#333333"/>
<g filter="url(#filter0_d_2483_11055)">
<path d="M125.5 42V41.5H125H9C6.51472 41.5 4.5 43.5147 4.5 46V246C4.5 248.485 6.51472 250.5 9 250.5H125H125.5V250V42Z" fill="white"/>
<path d="M21.648 59.6045V63.4825H17.938V64.4485H21.648V68.9425C20.402 69.5305 19.1 69.9785 17.728 70.2865L17.966 71.2805C19.268 70.9165 20.5 70.4825 21.648 69.9505V72.3025H22.684V59.6045H21.648ZM28.508 72.1765C29.11 72.1765 29.53 72.0085 29.754 71.6725C29.978 71.3225 30.118 70.3285 30.202 68.6905L29.25 68.3825C29.208 69.8105 29.124 70.6365 29.012 70.8885C28.872 71.1125 28.648 71.2245 28.34 71.2245H26.59C26.24 71.2245 26.072 71.0145 26.072 70.6225V65.2465C27.374 64.7985 28.746 64.1405 30.202 63.2585L29.614 62.4325C28.466 63.2305 27.29 63.8465 26.072 64.2945V59.6045H25.05V70.7765C25.05 71.7005 25.484 72.1765 26.366 72.1765H28.508ZM33.548 63.3705V67.2905H37.552V70.7765C37.552 71.1825 37.342 71.3925 36.936 71.3925C36.488 71.3925 36.026 71.3645 35.55 71.3225L35.774 72.2885H37.286C38.126 72.2885 38.56 71.8685 38.56 71.0285V67.2905H42.466V63.3705H33.548ZM41.458 66.3245H34.556V64.3365H41.458V66.3245ZM37.832 59.4925L36.796 59.6745C37.034 60.0945 37.244 60.5705 37.44 61.0745H31.798V62.0125H44.202V61.0745H38.462C38.266 60.4865 38.056 59.9685 37.832 59.4925ZM41.024 68.1865L40.366 68.8445C41.682 69.9925 42.732 71.0705 43.502 72.0785L44.244 71.3365C43.376 70.3005 42.298 69.2505 41.024 68.1865ZM34.962 68.2005C34.08 69.3765 33.002 70.4125 31.728 71.2805L32.358 72.0925C33.674 71.1685 34.766 70.0765 35.662 68.8445L34.962 68.2005Z" fill="#333333"/>
<path fill-rule="evenodd" clip-rule="evenodd" d="M111 66L107 62L107 70L111 66Z" fill="#999999"/>
<rect width="120" height="32" transform="translate(5 82)" fill="#337EFF"/>
<path d="M24.364 91.3535L23.258 91.5495C23.538 91.9975 23.804 92.5015 24.028 93.0475H18.82V97.1495C18.792 99.9775 18.372 102.175 17.588 103.771L18.414 104.513C19.324 102.665 19.8 100.215 19.856 97.1495V94.0135H30.23V93.0475H25.134C24.882 92.4175 24.63 91.8575 24.364 91.3535ZM32.96 94.9375C32.764 96.3655 32.414 97.7235 31.896 98.9835L32.806 99.2915C33.31 97.9755 33.646 96.6035 33.828 95.1755L32.96 94.9375ZM38.7 92.0815V103.939H39.68V92.0815H38.7ZM42.564 91.6335V104.415H43.53V91.6335H42.564ZM36.656 95.2595L35.844 95.6095C36.404 96.6455 36.922 97.8215 37.37 99.1515L38.196 98.7315C37.748 97.4715 37.23 96.3235 36.656 95.2595ZM34.766 91.7455V96.0155C34.738 99.5715 33.926 102.147 32.33 103.757L33.072 104.415C34.808 102.651 35.704 99.8515 35.732 96.0155V91.7455H34.766ZM40.548 95.1335L39.736 95.4835C40.296 96.5055 40.8 97.6815 41.248 98.9975L42.06 98.5915C41.626 97.3315 41.122 96.1835 40.548 95.1335Z" fill="white"/>
<path fill-rule="evenodd" clip-rule="evenodd" d="M111 98L107 94L107 102L111 98Z" fill="white"/>
<path d="M22.824 123.563V134.861H17.784V135.841H30.244V134.861H23.86V128.869H29.054V127.889H23.86V123.563H22.824ZM37.034 125.607H44.02V124.669H37.552C37.706 124.361 37.86 124.025 38 123.675L36.992 123.465C36.39 124.949 35.62 126.139 34.668 127.049L35.312 127.819C35.634 127.497 35.942 127.147 36.236 126.769C36.208 127.861 36.138 128.953 36.026 130.031H34.528V130.969H35.928C35.788 132.089 35.592 133.209 35.368 134.329H42.032C42.004 134.553 41.976 134.707 41.948 134.777C41.808 135.099 41.584 135.309 41.276 135.407C40.968 135.477 40.632 135.519 40.254 135.519C39.834 135.519 39.372 135.491 38.868 135.463L39.162 136.387C39.624 136.387 40.03 136.373 40.38 136.373C41.136 136.373 41.696 136.275 42.088 136.079C42.48 135.855 42.746 135.519 42.886 135.071C42.914 134.959 42.956 134.721 42.998 134.329H44.216V133.461H43.068C43.11 132.817 43.152 131.991 43.208 130.969H44.44V130.031H43.25C43.278 129.079 43.32 127.987 43.362 126.755H36.25C36.53 126.391 36.782 126.013 37.034 125.607ZM36.88 130.969H42.256C42.2 132.005 42.158 132.831 42.116 133.461H36.488C36.642 132.705 36.768 131.865 36.88 130.969ZM42.298 130.031H36.978C37.048 129.289 37.104 128.491 37.146 127.651H42.382C42.354 128.505 42.326 129.303 42.298 130.031ZM39.022 127.889L38.392 128.505C39.134 128.995 39.722 129.457 40.142 129.905L40.786 129.261C40.31 128.799 39.722 128.337 39.022 127.889ZM38.896 131.137L38.266 131.753C38.994 132.299 39.568 132.817 39.988 133.293L40.646 132.649C40.17 132.145 39.596 131.641 38.896 131.137ZM32.624 123.801L31.896 124.487C32.82 125.103 33.534 125.691 34.052 126.251L34.766 125.523C34.178 124.935 33.464 124.361 32.624 123.801ZM32.4 127.203L31.672 127.903C32.596 128.547 33.31 129.135 33.828 129.695L34.542 128.981C33.954 128.393 33.24 127.791 32.4 127.203ZM33.842 131.305C33.254 132.845 32.568 134.343 31.784 135.813L32.722 136.219C33.45 134.791 34.122 133.265 34.71 131.641L33.842 131.305Z" fill="#333333"/>
<path fill-rule="evenodd" clip-rule="evenodd" d="M111 130L107 126L107 134L111 130Z" fill="#999999"/>
<path d="M18.106 160.519V161.485H22.978C22.74 162.409 22.446 163.179 22.082 163.795C21.2 165.279 19.716 166.553 17.63 167.617L18.26 168.443C20.5 167.253 22.082 165.825 23.034 164.173C23.398 163.529 23.692 162.717 23.93 161.765C24.924 164.649 26.856 166.875 29.74 168.443L30.37 167.631C27.626 166.203 25.764 164.145 24.784 161.485H29.936V160.519H24.196C24.364 159.567 24.476 158.503 24.56 157.299H29.53V156.319H18.47V157.299H23.538C23.468 158.489 23.356 159.567 23.188 160.519H18.106ZM43.096 162.073V159.805H44.202V158.895H43.096V156.641H39.946V155.521H38.952V156.641H36.11V157.537H38.952V158.895H35.326V159.805H38.952V161.191H36.04V162.073H38.952V163.333H35.788V164.257H38.952V165.573H35.102V166.525H38.952V168.429H39.946V166.525H44.342V165.573H39.946V164.257H43.53V163.333H39.946V162.073H43.096ZM39.946 157.537H42.116V158.895H39.946V157.537ZM39.946 159.805H42.116V161.191H39.946V159.805ZM32.848 155.759L32.12 156.459C33.03 157.103 33.744 157.719 34.262 158.307L34.976 157.593C34.388 156.977 33.688 156.375 32.848 155.759ZM32.512 159.105L31.798 159.805C32.722 160.547 33.436 161.247 33.968 161.891L34.682 161.163C34.108 160.491 33.38 159.805 32.512 159.105ZM33.912 162.815C33.38 164.523 32.75 166.175 32.022 167.799L33.03 168.233C33.688 166.651 34.29 164.971 34.822 163.179L33.912 162.815Z" fill="#333333"/>
<path fill-rule="evenodd" clip-rule="evenodd" d="M111 162L107 158L107 166L111 162Z" fill="#999999"/>
<path d="M19.156 191.679V196.327H23.482V197.293H18.512V198.105H23.482V199.155H17.812V200.037H30.188V199.155H24.49V198.105H29.502V197.293H24.49V196.327H28.83V191.679H24.49V190.783H29.992V189.915H24.49V188.851C26.044 188.753 27.5 188.641 28.844 188.501L28.536 187.661C25.75 187.969 22.53 188.179 18.89 188.291L19.058 189.117C20.598 189.061 22.068 188.991 23.482 188.907V189.915H18.008V190.783H23.482V191.679H19.156ZM27.85 195.515H24.49V194.381H27.85V195.515ZM23.482 195.515H20.122V194.381H23.482V195.515ZM20.122 193.597V192.491H23.482V193.597H20.122ZM24.49 192.491H27.85V193.597H24.49V192.491ZM34.542 193.219V194.157H38.336C37.776 196.369 36.236 198.203 33.744 199.645L34.318 200.471C36.81 198.959 38.42 197.069 39.134 194.787C39.918 197.139 41.472 199.015 43.768 200.387L44.37 199.589C42.102 198.301 40.576 196.481 39.806 194.157H43.95V193.219H39.54C39.512 193.149 39.498 193.065 39.484 192.981C39.526 192.337 39.554 191.581 39.554 190.713H38.602C38.602 191.105 38.588 191.665 38.588 192.393C38.574 192.659 38.546 192.939 38.518 193.219H34.542ZM38.35 187.479L37.244 187.675C37.552 188.095 37.818 188.543 38.07 189.047H32.82V193.121C32.778 195.921 32.344 198.119 31.504 199.687L32.288 200.387C33.282 198.567 33.8 196.145 33.856 193.121V190.013H44.23V189.047H39.162C38.91 188.459 38.63 187.941 38.35 187.479Z" fill="#333333"/>
<path fill-rule="evenodd" clip-rule="evenodd" d="M111 194L107 190L107 198L111 194Z" fill="#999999"/>
<path d="M22.208 220.109V221.075H28.27C27.444 221.873 26.562 222.559 25.638 223.147V228.313C25.638 228.789 25.386 229.027 24.882 229.027C24.294 229.027 23.762 229.013 23.258 228.999L23.524 229.951H25.288C26.184 229.951 26.646 229.503 26.646 228.621V223.665C27.752 222.853 28.732 221.999 29.586 221.075V220.109H22.208ZM18.722 219.787L18.022 220.445C19.03 221.243 19.814 221.985 20.388 222.685L21.116 221.943C20.472 221.229 19.674 220.515 18.722 219.787ZM27.22 232.149H30.188L30.44 231.127C30.09 231.155 29.6 231.169 28.97 231.183C28.326 231.183 27.696 231.197 27.08 231.197C25.932 231.197 24.98 231.183 24.21 231.169C23.342 231.141 22.67 231.043 22.222 230.861C21.816 230.665 21.438 230.371 21.074 229.979C20.948 229.839 20.836 229.741 20.724 229.657V224.393H17.742V225.373H19.758V229.601C19.17 229.853 18.512 230.595 17.756 231.799L18.512 232.485C19.296 231.155 19.87 230.497 20.206 230.497C20.388 230.497 20.584 230.609 20.78 230.847C21.228 231.351 21.732 231.701 22.32 231.869C22.908 232.023 23.664 232.107 24.616 232.121C25.554 232.135 26.422 232.149 27.22 232.149ZM43.838 221.159H38.672C38.476 220.515 38.266 219.927 38.042 219.395L36.964 219.563C37.216 220.039 37.44 220.571 37.636 221.159H32.162V223.875H33.184V222.125H42.816V223.889H43.838V221.159ZM32.022 224.757V225.737H37.706V230.763C37.706 231.183 37.496 231.407 37.09 231.407C36.474 231.407 35.816 231.379 35.144 231.337L35.368 232.317H37.44C38.294 232.317 38.728 231.883 38.728 231.015V225.737H43.978V224.757H32.022Z" fill="#333333"/>
<path fill-rule="evenodd" clip-rule="evenodd" d="M111 226L107 222L107 230L111 226Z" fill="#999999"/>
<path d="M125.5 42V41.5H125H9C6.51472 41.5 4.5 43.5147 4.5 46V246C4.5 248.485 6.51472 250.5 9 250.5H125H125.5V250V42Z" stroke="#E5E5E5"/>
<rect x="117" y="46" width="4" height="80" rx="2" fill="black" fill-opacity="0.15"/>
<path d="M125 41.5H124.5V42V250V250.5H125H245H245.5V250V42V41.5H245H125Z" fill="white"/>
<rect width="120" height="32" transform="translate(125 50)" fill="#337EFF"/>
<path d="M144.364 59.3525L143.258 59.5485C143.538 59.9965 143.804 60.5005 144.028 61.0465H138.82V65.1485C138.792 67.9765 138.372 70.1745 137.588 71.7705L138.414 72.5125C139.324 70.6645 139.8 68.2145 139.856 65.1485V62.0125H150.23V61.0465H145.134C144.882 60.4165 144.63 59.8565 144.364 59.3525ZM152.96 62.9365C152.764 64.3645 152.414 65.7225 151.896 66.9825L152.806 67.2905C153.31 65.9745 153.646 64.6025 153.828 63.1745L152.96 62.9365ZM158.7 60.0805V71.9385H159.68V60.0805H158.7ZM162.564 59.6325V72.4145H163.53V59.6325H162.564ZM156.656 63.2585L155.844 63.6085C156.404 64.6445 156.922 65.8205 157.37 67.1505L158.196 66.7305C157.748 65.4705 157.23 64.3225 156.656 63.2585ZM154.766 59.7445V64.0145C154.738 67.5705 153.926 70.1465 152.33 71.7565L153.072 72.4145C154.808 70.6505 155.704 67.8505 155.732 64.0145V59.7445H154.766ZM160.548 63.1325L159.736 63.4825C160.296 64.5045 160.8 65.6805 161.248 66.9965L162.06 66.5905C161.626 65.3305 161.122 64.1825 160.548 63.1325Z" fill="white"/>
<path fill-rule="evenodd" clip-rule="evenodd" d="M231 66L227 62L227 70L231 66Z" fill="white"/>
<path d="M144.532 93.9995C143.972 95.1195 143.118 96.0155 141.984 96.6875L142.726 97.3175C143.818 96.6315 144.714 95.6375 145.386 94.3355L144.532 93.9995ZM146.968 93.9155L146.212 94.3915C147.276 95.4275 148.102 96.3655 148.704 97.2335L149.516 96.6735C148.928 95.8895 148.074 94.9655 146.968 93.9155ZM138.75 91.7875L138.064 92.4455C139.17 93.2015 140.038 93.9155 140.668 94.5875L141.354 93.9015C140.64 93.2015 139.772 92.4875 138.75 91.7875ZM138.414 95.0635L137.742 95.7355C138.792 96.4915 139.618 97.2055 140.206 97.8775L140.878 97.2055C140.206 96.4915 139.394 95.7775 138.414 95.0635ZM140.416 98.9695C139.73 100.635 138.932 102.259 138.008 103.841L138.946 104.247C139.786 102.707 140.556 101.055 141.242 99.3055L140.416 98.9695ZM144.392 99.2075C143.664 100.635 142.516 101.811 140.934 102.735L141.452 103.589C143.174 102.441 144.406 100.985 145.148 99.2075H145.4V104.345H146.38V99.2075H146.646C147.262 100.775 148.34 102.189 149.88 103.463L150.524 102.665C149.04 101.643 147.99 100.495 147.374 99.2075H150.048V98.2975H146.38V96.7295H145.4V98.2975H141.76V99.2075H144.392ZM149.782 92.1375H142.012V94.8115H142.964V93.0615H148.83V94.7555H149.782V92.1375ZM151.77 95.2875V96.2675H153.562V101.223C152.918 101.405 152.274 101.559 151.616 101.699L151.854 102.707C153.506 102.287 155.046 101.769 156.488 101.125V100.131C155.844 100.411 155.2 100.677 154.556 100.901V96.2675H156.236V95.2875H154.556V91.6755H153.562V95.2875H151.77ZM160.212 92.5295V103.477H161.122V92.5295H160.212ZM162.984 91.8435V104.401H163.922V91.8435H162.984ZM157.468 91.8855V97.4435C157.44 100.369 156.782 102.497 155.466 103.813L156.222 104.485C157.65 103.001 158.392 100.663 158.42 97.4435V91.8855H157.468Z" fill="#333333"/>
<path fill-rule="evenodd" clip-rule="evenodd" d="M231 98L227 94L227 102L231 98Z" fill="#999999"/>
<path d="M137.896 128.743V129.723H139.366V133.307C138.792 133.447 138.204 133.559 137.588 133.657L137.826 134.623C139.422 134.315 140.906 133.923 142.278 133.447V132.467C141.662 132.677 141.046 132.873 140.402 133.055V129.723H141.886V128.743H140.402V125.439H142.222V124.473H137.686V125.439H139.366V128.743H137.896ZM143.972 126.783H145.932V129.065H142.39V130.017H145.246C144.574 131.795 143.468 133.251 141.942 134.399L142.46 135.267C144.056 133.937 145.218 132.243 145.932 130.185V136.429H146.912V130.213C147.5 132.033 148.508 133.685 149.922 135.169L150.566 134.371C149.166 133.083 148.172 131.641 147.598 130.017H150.244V129.065H146.912V126.783H149.67V125.831H146.912V123.549H145.932V125.831H144.308C144.49 125.285 144.644 124.711 144.784 124.123L143.874 123.927C143.552 125.383 143.048 126.699 142.348 127.903L143.174 128.435C143.468 127.931 143.734 127.371 143.972 126.783ZM157.034 125.607H164.02V124.669H157.552C157.706 124.361 157.86 124.025 158 123.675L156.992 123.465C156.39 124.949 155.62 126.139 154.668 127.049L155.312 127.819C155.634 127.497 155.942 127.147 156.236 126.769C156.208 127.861 156.138 128.953 156.026 130.031H154.528V130.969H155.928C155.788 132.089 155.592 133.209 155.368 134.329H162.032C162.004 134.553 161.976 134.707 161.948 134.777C161.808 135.099 161.584 135.309 161.276 135.407C160.968 135.477 160.632 135.519 160.254 135.519C159.834 135.519 159.372 135.491 158.868 135.463L159.162 136.387C159.624 136.387 160.03 136.373 160.38 136.373C161.136 136.373 161.696 136.275 162.088 136.079C162.48 135.855 162.746 135.519 162.886 135.071C162.914 134.959 162.956 134.721 162.998 134.329H164.216V133.461H163.068C163.11 132.817 163.152 131.991 163.208 130.969H164.44V130.031H163.25C163.278 129.079 163.32 127.987 163.362 126.755H156.25C156.53 126.391 156.782 126.013 157.034 125.607ZM156.88 130.969H162.256C162.2 132.005 162.158 132.831 162.116 133.461H156.488C156.642 132.705 156.768 131.865 156.88 130.969ZM162.298 130.031H156.978C157.048 129.289 157.104 128.491 157.146 127.651H162.382C162.354 128.505 162.326 129.303 162.298 130.031ZM159.022 127.889L158.392 128.505C159.134 128.995 159.722 129.457 160.142 129.905L160.786 129.261C160.31 128.799 159.722 128.337 159.022 127.889ZM158.896 131.137L158.266 131.753C158.994 132.299 159.568 132.817 159.988 133.293L160.646 132.649C160.17 132.145 159.596 131.641 158.896 131.137ZM152.624 123.801L151.896 124.487C152.82 125.103 153.534 125.691 154.052 126.251L154.766 125.523C154.178 124.935 153.464 124.361 152.624 123.801ZM152.4 127.203L151.672 127.903C152.596 128.547 153.31 129.135 153.828 129.695L154.542 128.981C153.954 128.393 153.24 127.791 152.4 127.203ZM153.842 131.305C153.254 132.845 152.568 134.343 151.784 135.813L152.722 136.219C153.45 134.791 154.122 133.265 154.71 131.641L153.842 131.305Z" fill="#333333"/>
<path fill-rule="evenodd" clip-rule="evenodd" d="M231 130L227 126L227 134L231 130Z" fill="#999999"/>
<path d="M145.54 155.577V166.427H143.258V158.167H142.236V168.373H143.258V167.393H148.788V168.401H149.81V158.153H148.788V166.427H146.562V155.577H145.54ZM138.806 155.773L138.092 156.459C139.184 157.215 140.038 157.915 140.654 158.573L141.354 157.873C140.654 157.173 139.814 156.473 138.806 155.773ZM138.386 159.105L137.672 159.791C138.764 160.547 139.604 161.261 140.22 161.933L140.92 161.233C140.234 160.519 139.394 159.805 138.386 159.105ZM140.094 162.829C139.45 164.537 138.68 166.217 137.798 167.869L138.736 168.289C139.562 166.693 140.304 164.985 140.976 163.165L140.094 162.829ZM151.966 162.129V163.109H157.888C157.664 163.669 157.384 164.187 157.048 164.663C156.096 165.853 154.388 166.805 151.952 167.533L152.498 168.387C154.934 167.659 156.684 166.665 157.762 165.377C157.916 165.167 158.07 164.943 158.21 164.719C160.366 166.007 162.06 167.239 163.32 168.387L164.048 167.673C162.578 166.441 160.772 165.195 158.63 163.949C158.756 163.683 158.868 163.403 158.966 163.109H164.118V162.129H159.232C159.386 161.429 159.484 160.673 159.512 159.833V155.591H158.49V159.833C158.462 160.645 158.364 161.415 158.196 162.129H151.966ZM153.1 158.587L152.568 159.371C153.646 159.833 154.696 160.463 155.718 161.247L156.264 160.421C155.312 159.693 154.248 159.091 153.1 158.587ZM154.64 156.333L154.108 157.117C155.032 157.509 155.928 158.041 156.81 158.741L157.342 157.929C156.53 157.313 155.62 156.781 154.64 156.333Z" fill="#333333"/>
<path fill-rule="evenodd" clip-rule="evenodd" d="M231 162L227 158L227 166L231 162Z" fill="#999999"/>
<path d="M143.02 194.213H138.344V200.415H139.282V199.813H142.096V200.401H143.02V194.213ZM139.282 198.917V197.433H142.096V198.917H139.282ZM139.282 196.565V195.109H142.096V196.565H139.282ZM137.924 188.949V189.845H138.652C138.848 190.573 139.03 191.371 139.198 192.239H137.7V193.149H143.552V192.239H142.068C142.292 191.469 142.474 190.671 142.6 189.845H143.44V188.949H141.256C141.102 188.389 140.934 187.885 140.752 187.451L139.73 187.619C139.926 188.025 140.108 188.473 140.276 188.949H137.924ZM139.59 189.845H141.676C141.564 190.685 141.396 191.483 141.144 192.239H140.122C139.954 191.357 139.772 190.559 139.59 189.845ZM149.628 194.591H144.322V200.443H145.274V199.757H148.676V200.443H149.628V194.591ZM145.274 198.833V195.515H148.676V198.833H145.274ZM145.904 189.117C145.736 190.153 145.47 190.993 145.134 191.637C144.742 192.309 144.168 192.925 143.412 193.471L144 194.227C144.868 193.583 145.526 192.855 145.974 192.043C146.352 191.315 146.646 190.349 146.856 189.117H148.872C148.844 190.825 148.802 191.875 148.718 192.267C148.634 192.673 148.424 192.883 148.088 192.897C147.752 192.883 147.318 192.869 146.786 192.841L147.038 193.737C147.528 193.765 147.948 193.793 148.312 193.793C148.872 193.793 149.264 193.527 149.488 193.009C149.712 192.463 149.838 190.853 149.852 188.165H144.056V189.117H145.904ZM155.34 187.619L154.416 188.067C154.99 188.767 155.522 189.565 156.026 190.461L156.936 189.999C156.432 189.131 155.9 188.347 155.34 187.619ZM160.604 187.493C160.184 188.669 159.722 189.663 159.19 190.475H152.792V191.455H157.482V192.113C157.468 192.799 157.398 193.443 157.272 194.059H151.994V195.039H157.02C156.824 195.655 156.558 196.201 156.222 196.705C155.382 197.825 153.884 198.735 151.742 199.421L152.288 200.303C154.444 199.617 155.998 198.651 156.95 197.419C157.398 196.817 157.748 196.117 158.014 195.319C158.77 197.447 160.674 199.141 163.754 200.387L164.342 199.449C161.402 198.399 159.596 196.929 158.91 195.039H164.006V194.059H158.322C158.434 193.471 158.49 192.813 158.518 192.113V191.455H163.194V190.475H160.31C160.814 189.677 161.234 188.767 161.57 187.759L160.604 187.493Z" fill="#999999"/>
<path d="M140.514 219.465C139.884 221.649 138.876 223.581 137.504 225.289L137.826 226.325C138.302 225.779 138.75 225.205 139.17 224.603V232.429H140.136V223.021C140.654 222.041 141.088 221.005 141.424 219.885L140.514 219.465ZM142.376 224.869H143.678C143.65 225.527 143.608 226.157 143.538 226.745H142.138L142.376 224.869ZM144.644 224.869H146.156V226.745H144.504C144.574 226.157 144.616 225.541 144.644 224.869ZM147.122 224.869H149.586V221.215H147.122V219.619H146.156V221.215H144.658V219.619H143.692V221.215H141.55V222.125H143.692V223.987H141.536L141.13 227.641H143.398C143.314 228.089 143.202 228.523 143.076 228.915C142.656 230.035 141.928 230.931 140.878 231.603L141.424 232.471C142.544 231.785 143.356 230.833 143.846 229.615C144.07 229.041 144.238 228.383 144.378 227.641H146.156V232.415H147.122V227.641H149.11C149.11 228.537 149.068 229.167 148.984 229.503C148.9 229.895 148.662 230.091 148.27 230.091C148.032 230.091 147.78 230.063 147.5 230.035L147.752 230.959C147.962 230.973 148.186 230.987 148.438 230.987C149.124 230.973 149.572 230.707 149.782 230.189C149.964 229.713 150.062 228.565 150.062 226.745H147.122V224.869ZM144.658 222.125H146.156V223.987H144.658V222.125ZM147.122 222.125H148.676V223.987H147.122V222.125ZM162.508 221.943V230.231H158.518V219.647H157.482V230.231H153.478V221.901H152.47V232.121H153.478V231.197H162.508V232.135H163.516V221.943H162.508Z" fill="#333333"/>
<path fill-rule="evenodd" clip-rule="evenodd" d="M231 226L227 222L227 230L231 226Z" fill="#999999"/>
<path d="M125 41.5H124.5V42V250V250.5H125H245H245.5V250V42V41.5H245H125Z" stroke="#E5E5E5"/>
<rect x="237" y="46" width="4" height="80" rx="2" fill="black" fill-opacity="0.15"/>
<path d="M245 41.5H244.5V42V250V250.5H245H361C363.485 250.5 365.5 248.485 365.5 246V46C365.5 43.5147 363.485 41.5 361 41.5H245Z" fill="white"/>
<path d="M269.264 70.3015C269.74 70.3015 270.146 69.5875 270.482 68.1595L269.712 67.7115C269.516 68.7475 269.334 69.2795 269.166 69.2795C268.942 69.2795 268.676 68.9715 268.396 68.3555L268.27 68.0335C268.956 66.8855 269.488 65.5135 269.866 63.8895L269.068 63.5255C268.774 64.7575 268.396 65.8355 267.934 66.7875C267.836 66.3815 267.752 65.9335 267.682 65.4295C267.556 64.6735 267.472 63.7215 267.43 62.5595H270.174V61.7055H267.402C267.374 61.0475 267.374 60.3335 267.374 59.5635H266.422C266.422 60.3195 266.422 61.0335 266.45 61.7055H263.888V68.0895C263.888 68.3415 263.776 68.5235 263.58 68.6355L263.818 69.5315C264.728 69.0835 265.61 68.5655 266.478 67.9915L266.296 67.1095C265.764 67.4875 265.26 67.8095 264.784 68.0895V62.5595H266.492C266.548 63.9035 266.674 65.0375 266.842 65.9475C266.982 66.6475 267.136 67.2775 267.318 67.8375C266.772 68.6495 266.142 69.3215 265.414 69.8535L265.932 70.6375C266.59 70.1475 267.192 69.5455 267.724 68.8455C267.78 68.9715 267.85 69.0975 267.92 69.2235C268.354 69.9375 268.802 70.3015 269.264 70.3015ZM268.606 59.5915L267.934 60.0115C268.508 60.5855 268.956 61.1035 269.292 61.5795L269.964 61.1175C269.642 60.6835 269.194 60.1795 268.606 59.5915ZM258.148 61.4395V62.3355H260.318V64.2395H257.784V65.1635H260.486V70.0215C260.052 69.6155 259.66 69.0555 259.31 68.3415C259.394 67.6695 259.436 66.9695 259.464 66.2555L258.582 66.1435C258.512 68.2155 258.162 70.0915 257.518 71.7715L258.288 72.4575C258.624 71.5895 258.904 70.6655 259.1 69.6715C259.646 70.5675 260.29 71.2115 261.018 71.5755C261.844 71.9955 263.944 72.2055 267.318 72.2055H270.216L270.384 71.1975C269.656 71.2255 268.564 71.2535 267.08 71.2535C264.238 71.2535 262.418 71.0995 261.62 70.7915C261.564 70.7635 261.522 70.7495 261.466 70.7215V67.9355H262.978V67.0255H261.466V65.1635H263.356V64.2395H261.284V62.3355H263.258V61.4395H261.284V59.5635H260.318V61.4395H258.148ZM278.91 63.2735C279.876 64.5615 281.5 65.6115 283.782 66.4095L284.23 65.4855C282.326 64.9535 280.884 64.2115 279.932 63.2735H283.852V62.3355H278.588V61.0615C280.114 60.9215 281.458 60.7395 282.634 60.4875L282.144 59.6335C279.75 60.1235 276.74 60.3755 273.114 60.3895L273.408 61.2435C274.892 61.2435 276.264 61.2015 277.552 61.1315V62.3355H272.064V63.2735H276.194C275.382 64.1135 273.926 64.8835 271.812 65.5555L272.386 66.4795C274.738 65.5835 276.348 64.5195 277.216 63.2735H277.552V65.7235H278.588V63.2735H278.91ZM275.942 67.2915C275.746 69.2515 274.43 70.6515 271.994 71.4915L272.54 72.3735C275.228 71.3095 276.684 69.6155 276.88 67.2915H280.002L279.4 69.1675H282.172C282.032 70.3155 281.836 71.0015 281.556 71.2115C281.416 71.3235 281.206 71.3935 280.926 71.3935C280.366 71.3935 279.708 71.3795 278.966 71.3655L279.246 72.3035C280.24 72.2895 280.996 72.2615 281.514 72.2195C281.92 72.1635 282.228 72.0095 282.438 71.7435C282.802 71.3795 283.054 70.3575 283.166 68.6915V68.2295H280.646L281.122 66.8295V66.3535H273.968V67.2915H275.942ZM289.606 62.3915L288.878 63.0915C290.222 64.1135 291.44 65.1215 292.546 66.1015C291.398 67.3335 290.04 68.2855 288.472 68.9295L289.06 69.8395C290.67 69.1395 292.084 68.1315 293.316 66.8155C294.408 67.8235 295.36 68.8175 296.186 69.7975L296.97 69.0135C296.074 68.0335 295.08 67.0395 293.988 66.0315C294.828 64.9675 295.556 63.7215 296.186 62.2935L295.276 61.8035C294.688 63.1335 294.002 64.3095 293.204 65.3315C292.098 64.3515 290.894 63.3715 289.606 62.3915ZM286.652 60.1375V71.8135H298.174V70.8475H287.618V61.1035H297.768V60.1375H286.652Z" fill="#333333"/>
<path d="M258.036 92.5005V93.3685H261.2V94.3625H262.208V93.3685H265.96V94.3625H266.968V93.3685H270.118V92.5005H266.968V91.5345H265.96V92.5005H262.208V91.5345H261.2V92.5005H258.036ZM263.762 99.9485H260.99C261.004 99.7525 261.018 99.5705 261.018 99.3745V98.9125H260.066V99.5845C260.066 99.6965 260.052 99.8085 260.052 99.9485H258.26V100.788H259.94C259.674 102.118 258.918 103.07 257.658 103.63L258.246 104.4C259.702 103.672 260.584 102.468 260.892 100.788H262.824C262.796 101.936 262.726 102.65 262.614 102.93C262.488 103.21 262.194 103.35 261.732 103.364C261.48 103.336 261.158 103.322 260.78 103.308L260.99 104.134C261.354 104.162 261.676 104.19 261.942 104.19C262.6 104.19 263.062 103.98 263.342 103.574C263.608 103.182 263.748 101.964 263.762 99.9485ZM269.95 99.9345H267.024C267.024 99.7945 267.038 99.6405 267.038 99.4725V98.8145H266.1V99.6825C266.1 99.7665 266.086 99.8505 266.086 99.9345H264.378V100.774H266.002C265.778 102.062 265.106 102.986 263.986 103.532L264.574 104.302C265.876 103.602 266.66 102.426 266.94 100.774H269.012C268.984 101.922 268.928 102.636 268.816 102.916C268.704 103.196 268.438 103.336 268.032 103.35C267.766 103.322 267.43 103.308 267.038 103.294L267.248 104.12C267.626 104.148 267.962 104.176 268.242 104.176C268.858 104.176 269.306 103.966 269.558 103.56C269.81 103.168 269.95 101.95 269.95 99.9345ZM268.872 95.2025H264.574C264.63 94.8665 264.672 94.5025 264.672 94.1105H263.734C263.734 94.5025 263.692 94.8665 263.636 95.2025H259.366V96.0705H263.314C263.062 96.4905 262.628 96.8405 262.012 97.0925C261.242 97.4005 260.178 97.6245 258.82 97.7925L259.324 98.6325C260.836 98.3805 261.97 98.0725 262.74 97.7085C263.51 97.3025 264.028 96.8125 264.294 96.2385C264.308 96.1825 264.322 96.1265 264.35 96.0705H267.906C267.906 96.4205 267.864 96.7565 267.794 97.0645C267.724 97.3585 267.458 97.5125 266.982 97.5265C266.38 97.5265 265.722 97.4985 265.022 97.4425L265.26 98.3245C265.736 98.3525 266.324 98.3665 267.024 98.3665C267.724 98.3665 268.2 98.1705 268.48 97.8065C268.732 97.4285 268.872 96.5605 268.872 95.2025ZM278.042 93.5645V96.4765H278.966V93.5645H280.268V96.4905H281.178V93.5645H283.866V92.6405H280.128C279.946 92.1925 279.764 91.7865 279.568 91.4365L278.532 91.6185C278.742 91.9265 278.938 92.2765 279.106 92.6405H275.522V93.5645H278.042ZM276.796 94.2925C276.236 94.9925 275.55 95.5945 274.738 96.1265L275.284 96.8265C276.138 96.2665 276.852 95.6085 277.44 94.8525L276.796 94.2925ZM282.41 94.0825L281.794 94.6705C282.634 95.3425 283.292 95.9865 283.768 96.5885L284.398 95.9585C283.866 95.3425 283.194 94.7125 282.41 94.0825ZM272.554 91.8005L271.854 92.4585C272.834 93.1865 273.604 93.8865 274.178 94.5585L274.864 93.8585C274.234 93.1725 273.464 92.4865 272.554 91.8005ZM272.232 95.2725L271.532 95.9445C272.456 96.7005 273.184 97.4005 273.716 98.0725L274.416 97.3865C273.814 96.6865 273.086 95.9725 272.232 95.2725ZM273.982 98.9685C273.366 100.634 272.624 102.258 271.77 103.854L272.75 104.274C273.52 102.734 274.22 101.068 274.85 99.3045L273.982 98.9685ZM277.174 99.8365H282.942V97.0225H275.97V97.9045H281.99V98.9825H276.362L275.76 101.838H282.522C282.522 102.454 282.466 102.874 282.368 103.098C282.256 103.35 281.962 103.476 281.486 103.476C280.758 103.476 279.974 103.448 279.134 103.42L279.372 104.302C280.1 104.316 280.856 104.33 281.64 104.33C282.424 104.33 282.928 104.12 283.166 103.7C283.376 103.322 283.488 102.412 283.488 100.97H276.88L277.174 99.8365ZM289.606 94.3905L288.878 95.0905C290.222 96.1125 291.44 97.1205 292.546 98.1005C291.398 99.3325 290.04 100.284 288.472 100.928L289.06 101.838C290.67 101.138 292.084 100.13 293.316 98.8145C294.408 99.8225 295.36 100.816 296.186 101.796L296.97 101.012C296.074 100.032 295.08 99.0385 293.988 98.0305C294.828 96.9665 295.556 95.7205 296.186 94.2925L295.276 93.8025C294.688 95.1325 294.002 96.3085 293.204 97.3305C292.098 96.3505 290.894 95.3705 289.606 94.3905ZM286.652 92.1365V103.812H298.174V102.846H287.618V93.1025H297.768V92.1365H286.652Z" fill="#333333"/>
<rect width="120" height="32" transform="translate(245 114)" fill="#F5F5F5"/>
<path d="M257.896 128.743V129.723H259.366V133.307C258.792 133.447 258.204 133.559 257.588 133.657L257.826 134.623C259.422 134.315 260.906 133.923 262.278 133.447V132.467C261.662 132.677 261.046 132.873 260.402 133.055V129.723H261.886V128.743H260.402V125.439H262.222V124.473H257.686V125.439H259.366V128.743H257.896ZM263.972 126.783H265.932V129.065H262.39V130.017H265.246C264.574 131.795 263.468 133.251 261.942 134.399L262.46 135.267C264.056 133.937 265.218 132.243 265.932 130.185V136.429H266.912V130.213C267.5 132.033 268.508 133.685 269.922 135.169L270.566 134.371C269.166 133.083 268.172 131.641 267.598 130.017H270.244V129.065H266.912V126.783H269.67V125.831H266.912V123.549H265.932V125.831H264.308C264.49 125.285 264.644 124.711 264.784 124.123L263.874 123.927C263.552 125.383 263.048 126.699 262.348 127.903L263.174 128.435C263.468 127.931 263.734 127.371 263.972 126.783ZM277.034 125.607H284.02V124.669H277.552C277.706 124.361 277.86 124.025 278 123.675L276.992 123.465C276.39 124.949 275.62 126.139 274.668 127.049L275.312 127.819C275.634 127.497 275.942 127.147 276.236 126.769C276.208 127.861 276.138 128.953 276.026 130.031H274.528V130.969H275.928C275.788 132.089 275.592 133.209 275.368 134.329H282.032C282.004 134.553 281.976 134.707 281.948 134.777C281.808 135.099 281.584 135.309 281.276 135.407C280.968 135.477 280.632 135.519 280.254 135.519C279.834 135.519 279.372 135.491 278.868 135.463L279.162 136.387C279.624 136.387 280.03 136.373 280.38 136.373C281.136 136.373 281.696 136.275 282.088 136.079C282.48 135.855 282.746 135.519 282.886 135.071C282.914 134.959 282.956 134.721 282.998 134.329H284.216V133.461H283.068C283.11 132.817 283.152 131.991 283.208 130.969H284.44V130.031H283.25C283.278 129.079 283.32 127.987 283.362 126.755H276.25C276.53 126.391 276.782 126.013 277.034 125.607ZM276.88 130.969H282.256C282.2 132.005 282.158 132.831 282.116 133.461H276.488C276.642 132.705 276.768 131.865 276.88 130.969ZM282.298 130.031H276.978C277.048 129.289 277.104 128.491 277.146 127.651H282.382C282.354 128.505 282.326 129.303 282.298 130.031ZM279.022 127.889L278.392 128.505C279.134 128.995 279.722 129.457 280.142 129.905L280.786 129.261C280.31 128.799 279.722 128.337 279.022 127.889ZM278.896 131.137L278.266 131.753C278.994 132.299 279.568 132.817 279.988 133.293L280.646 132.649C280.17 132.145 279.596 131.641 278.896 131.137ZM272.624 123.801L271.896 124.487C272.82 125.103 273.534 125.691 274.052 126.251L274.766 125.523C274.178 124.935 273.464 124.361 272.624 123.801ZM272.4 127.203L271.672 127.903C272.596 128.547 273.31 129.135 273.828 129.695L274.542 128.981C273.954 128.393 273.24 127.791 272.4 127.203ZM273.842 131.305C273.254 132.845 272.568 134.343 271.784 135.813L272.722 136.219C273.45 134.791 274.122 133.265 274.71 131.641L273.842 131.305ZM289.606 126.391L288.878 127.091C290.222 128.113 291.44 129.121 292.546 130.101C291.398 131.333 290.04 132.285 288.472 132.929L289.06 133.839C290.67 133.139 292.084 132.131 293.316 130.815C294.408 131.823 295.36 132.817 296.186 133.797L296.97 133.013C296.074 132.033 295.08 131.039 293.988 130.031C294.828 128.967 295.556 127.721 296.186 126.293L295.276 125.803C294.688 127.133 294.002 128.309 293.204 129.331C292.098 128.351 290.894 127.371 289.606 126.391ZM286.652 124.137V135.813H298.174V134.847H287.618V125.103H297.768V124.137H286.652Z" fill="#333333"/>
<path d="M258.106 160.519V161.485H262.978C262.74 162.409 262.446 163.179 262.082 163.795C261.2 165.279 259.716 166.553 257.63 167.617L258.26 168.443C260.5 167.253 262.082 165.825 263.034 164.173C263.398 163.529 263.692 162.717 263.93 161.765C264.924 164.649 266.856 166.875 269.74 168.443L270.37 167.631C267.626 166.203 265.764 164.145 264.784 161.485H269.936V160.519H264.196C264.364 159.567 264.476 158.503 264.56 157.299H269.53V156.319H258.47V157.299H263.538C263.468 158.489 263.356 159.567 263.188 160.519H258.106ZM272.652 155.871L271.938 156.571C272.974 157.313 273.8 158.013 274.388 158.671L275.116 157.957C274.444 157.257 273.632 156.571 272.652 155.871ZM272.4 159.301L271.686 159.987C272.666 160.701 273.422 161.387 273.968 162.031L274.682 161.303C274.066 160.631 273.31 159.973 272.4 159.301ZM273.954 163.053C273.352 164.719 272.638 166.357 271.826 167.953L272.834 168.387C273.59 166.833 274.262 165.167 274.864 163.403L273.954 163.053ZM275.438 156.403V157.383H282.284V166.749C282.284 167.225 282.06 167.463 281.612 167.463C280.94 167.463 280.226 167.435 279.484 167.393L279.708 168.359H281.962C282.83 168.359 283.278 167.897 283.278 167.001V157.383H284.37V156.403H275.438ZM276.054 159.525V164.677H280.45V159.525H276.054ZM279.512 163.753H277.006V160.435H279.512V163.753ZM289.606 158.391L288.878 159.091C290.222 160.113 291.44 161.121 292.546 162.101C291.398 163.333 290.04 164.285 288.472 164.929L289.06 165.839C290.67 165.139 292.084 164.131 293.316 162.815C294.408 163.823 295.36 164.817 296.186 165.797L296.97 165.013C296.074 164.033 295.08 163.039 293.988 162.031C294.828 160.967 295.556 159.721 296.186 158.293L295.276 157.803C294.688 159.133 294.002 160.309 293.204 161.331C292.098 160.351 290.894 159.371 289.606 158.391ZM286.652 156.137V167.813H298.174V166.847H287.618V157.103H297.768V156.137H286.652Z" fill="#333333"/>
<path d="M268.886 189.789H263.58C263.888 189.131 264.112 188.417 264.266 187.661L263.16 187.507C263.006 188.291 262.768 189.061 262.46 189.789H259.128V200.401H260.15V199.267H267.864V200.373H268.886V189.789ZM260.15 198.287V194.871H267.864V198.287H260.15ZM260.15 193.919V190.755H267.864V193.919H260.15ZM273.086 188.375V189.355H283.054V188.375H273.086ZM271.742 192.281V193.289H276.46C274.99 196.271 273.8 198.091 272.904 198.763C272.848 198.791 272.778 198.833 272.666 198.861L272.932 199.883C276.292 199.659 279.386 199.379 282.228 199.015C282.494 199.519 282.732 200.009 282.956 200.499L283.852 199.869C283.152 198.441 282.158 196.747 280.87 194.815L280.058 195.319C280.674 196.271 281.234 197.195 281.738 198.091C279.232 198.427 276.726 198.665 274.206 198.805C275.158 197.769 276.292 195.935 277.58 193.289H284.3V192.281H271.742ZM289.606 190.391L288.878 191.091C290.222 192.113 291.44 193.121 292.546 194.101C291.398 195.333 290.04 196.285 288.472 196.929L289.06 197.839C290.67 197.139 292.084 196.131 293.316 194.815C294.408 195.823 295.36 196.817 296.186 197.797L296.97 197.013C296.074 196.033 295.08 195.039 293.988 194.031C294.828 192.967 295.556 191.721 296.186 190.293L295.276 189.803C294.688 191.133 294.002 192.309 293.204 193.331C292.098 192.351 290.894 191.371 289.606 190.391ZM286.652 188.137V199.813H298.174V198.847H287.618V189.103H297.768V188.137H286.652Z" fill="#333333"/>
<path d="M258.596 220.781V221.677H261.466V222.937H257.812V223.847H263.51V224.925H259.394V229.811H268.606V224.925H264.49V223.847H270.202V222.937H266.478V221.677H269.46V220.781H266.478V219.577H265.512V220.781H262.432V219.591H261.466V220.781H258.596ZM265.512 222.937H262.432V221.677H265.512V222.937ZM267.626 228.943H264.49V227.767H267.626V228.943ZM263.51 228.943H260.374V227.767H263.51V228.943ZM260.374 226.927V225.779H263.51V226.927H260.374ZM264.49 225.779H267.626V226.927H264.49V225.779ZM265.68 229.979L265.19 230.707C266.73 231.113 268.228 231.673 269.684 232.387L270.216 231.547C268.844 230.931 267.332 230.399 265.68 229.979ZM262.068 229.895C260.948 230.553 259.52 231.085 257.798 231.491L258.218 232.373C259.996 231.897 261.48 231.295 262.656 230.567L262.068 229.895ZM272.778 219.787L272.064 220.487C273.044 221.215 273.814 221.915 274.374 222.573L275.088 221.859C274.458 221.159 273.688 220.473 272.778 219.787ZM272.442 223.063L271.728 223.763C272.624 224.519 273.324 225.219 273.828 225.877L274.556 225.149C273.982 224.449 273.282 223.763 272.442 223.063ZM274.08 226.941C273.478 228.621 272.75 230.273 271.91 231.869L272.918 232.303C273.674 230.749 274.374 229.083 274.99 227.319L274.08 226.941ZM275.382 221.243V222.167H279.26V223.553H275.97V232.373H276.936V229.335H279.26V232.331H280.268V229.335H282.634V230.819C282.634 231.239 282.452 231.449 282.088 231.449L280.982 231.407L281.22 232.317H282.396C283.208 232.317 283.614 231.883 283.614 231.043V223.553H280.268V222.167H284.286V221.243H282.956L283.46 220.893C283.152 220.473 282.704 219.997 282.144 219.451L281.472 219.871C281.976 220.361 282.382 220.823 282.704 221.243H280.268V219.605H279.26V221.243H275.382ZM279.26 224.463V226.017H276.936V224.463H279.26ZM276.936 226.913H279.26V228.439H276.936V226.913ZM282.634 228.439H280.268V226.913H282.634V228.439ZM282.634 226.017H280.268V224.463H282.634V226.017ZM289.606 222.391L288.878 223.091C290.222 224.113 291.44 225.121 292.546 226.101C291.398 227.333 290.04 228.285 288.472 228.929L289.06 229.839C290.67 229.139 292.084 228.131 293.316 226.815C294.408 227.823 295.36 228.817 296.186 229.797L296.97 229.013C296.074 228.033 295.08 227.039 293.988 226.031C294.828 224.967 295.556 223.721 296.186 222.293L295.276 221.803C294.688 223.133 294.002 224.309 293.204 225.331C292.098 224.351 290.894 223.371 289.606 222.391ZM286.652 220.137V231.813H298.174V230.847H287.618V221.103H297.768V220.137H286.652Z" fill="#333333"/>
<path d="M245 41.5H244.5V42V250V250.5H245H361C363.485 250.5 365.5 248.485 365.5 246V46C365.5 43.5147 363.485 41.5 361 41.5H245Z" stroke="#E5E5E5"/>
<rect x="357" y="46" width="4" height="80" rx="2" fill="black" fill-opacity="0.15"/>
</g>
<defs>
<filter id="filter0_d_2483_11055" x="0" y="37" width="370" height="218" filterUnits="userSpaceOnUse" color-interpolation-filters="sRGB">
<feFlood flood-opacity="0" result="BackgroundImageFix"/>
<feColorMatrix in="SourceAlpha" type="matrix" values="0 0 0 0 0 0 0 0 0 0 0 0 0 0 0 0 0 0 127 0" result="hardAlpha"/>
<feOffset/>
<feGaussianBlur stdDeviation="2"/>
<feColorMatrix type="matrix" values="0 0 0 0 0 0 0 0 0 0 0 0 0 0 0 0 0 0 0.1 0"/>
<feBlend mode="normal" in2="BackgroundImageFix" result="effect1_dropShadow_2483_11055"/>
<feBlend mode="normal" in="SourceGraphic" in2="effect1_dropShadow_2483_11055" result="shape"/>
</filter>
</defs>
</svg>
