<svg id="报警管理-单.svg" xmlns="http://www.w3.org/2000/svg" width="36" height="36" viewBox="0 0 36 36">
  <metadata><?xpacket begin="﻿" id="W5M0MpCehiHzreSzNTczkc9d"?>
<x:xmpmeta xmlns:x="adobe:ns:meta/" x:xmptk="Adobe XMP Core 5.6-c138 79.159824, 2016/09/14-01:09:01        ">
   <rdf:RDF xmlns:rdf="http://www.w3.org/1999/02/22-rdf-syntax-ns#">
      <rdf:Description rdf:about=""/>
   </rdf:RDF>
</x:xmpmeta>
                                                                                                    
                                                                                                    
                                                                                                    
                                                                                                    
                                                                                                    
                                                                                                    
                                                                                                    
                                                                                                    
                                                                                                    
                                                                                                    
                                                                                                    
                                                                                                    
                                                                                                    
                                                                                                    
                                                                                                    
                                                                                                    
                                                                                                    
                                                                                                    
                                                                                                    
                                                                                                    
                           
<?xpacket end="w"?></metadata>
<defs>
    <style>
      .cls-1 {
        fill: #8594aa;
        fill-rule: evenodd;
      }
    </style>
  </defs>
  <path id="矩形_9" data-name="矩形 9" class="cls-1" d="M37.931,447a7.27,7.27,0,0,0,0-2H41v2H37.931ZM34.9,439.686l2.171-2.171,1.414,1.414L36.314,441.1A8.027,8.027,0,0,0,34.9,439.686ZM36,453h2.5a0.5,0.5,0,0,1,.5.5v1a0.5,0.5,0,0,1-.5.5h-17a0.5,0.5,0,0,1-.5-0.5v-1a0.5,0.5,0,0,1,.5-0.5H24v-7.5a5.5,5.5,0,0,1,5.5-5.5h1a5.5,5.5,0,0,1,5.5,5.5V453Zm-2-7.5a3.5,3.5,0,0,0-3.5-3.5h-1a3.5,3.5,0,0,0-3.5,3.5V453h8v-7.5Zm-2.939-.475L29.086,447H32l0.475,0.854-2.828,2.828-0.707-.707L30.914,448H28l-0.475-.854,2.829-2.828ZM29,438.069V435h2v3.069A7.281,7.281,0,0,0,29,438.069ZM23.686,441.1l-2.171-2.171,1.414-1.414,2.171,2.171A8.031,8.031,0,0,0,23.686,441.1ZM22,446a8.028,8.028,0,0,0,.069,1H19v-2h3.069A8.028,8.028,0,0,0,22,446Z" transform="translate(-12 -427)"/>
</svg>
