<svg xmlns="http://www.w3.org/2000/svg" width="26" height="26" viewBox="0 0 26 26">
  <metadata><?xpacket begin="﻿" id="W5M0MpCehiHzreSzNTczkc9d"?>
<x:xmpmeta xmlns:x="adobe:ns:meta/" x:xmptk="Adobe XMP Core 5.6-c138 79.159824, 2016/09/14-01:09:01        ">
   <rdf:RDF xmlns:rdf="http://www.w3.org/1999/02/22-rdf-syntax-ns#">
      <rdf:Description rdf:about=""/>
   </rdf:RDF>
</x:xmpmeta>





















<?xpacket end="w"?></metadata>
<defs>
    <style>
      .cls-1 {
        fill: #9fb4cc;
        fill-rule: evenodd;
      }
    </style>
  </defs>
  <path id="矩形_76" data-name="矩形 76" class="cls-1" d="M25,15v6a2,2,0,0,1-2,2H3a2,2,0,0,1-2-2V13.167L4,9v1H5L3.024,12.964C2.96,12.969,2.838,13,3,13H7V2.5A0.5,0.5,0,0,1,7.5,2h1a0.5,0.5,0,0,1,.5.5V13h8V2.5A0.5,0.5,0,0,1,17.5,2h1a0.5,0.5,0,0,1,.5.5V13h3.705L21,10H20V9h2l3,5v1Zm-2,0H3v6H23V15ZM13,19H11V17h2v2Zm4,0H15V17h2v2Zm4,0H19V17h2v2ZM3.024,12.964c0.039,0,.061,0-0.024.036H3ZM4,10V9H6v1H4Zm7-1h4v1H11V9Z"/>
</svg>
