<svg id="资源用量单.svg" xmlns="http://www.w3.org/2000/svg" width="36" height="36" viewBox="0 0 36 36">
  <metadata><?xpacket begin="﻿" id="W5M0MpCehiHzreSzNTczkc9d"?>
<x:xmpmeta xmlns:x="adobe:ns:meta/" x:xmptk="Adobe XMP Core 5.6-c138 79.159824, 2016/09/14-01:09:01        ">
   <rdf:RDF xmlns:rdf="http://www.w3.org/1999/02/22-rdf-syntax-ns#">
      <rdf:Description rdf:about=""/>
   </rdf:RDF>
</x:xmpmeta>
                                                                                                    
                                                                                                    
                                                                                                    
                                                                                                    
                                                                                                    
                                                                                                    
                                                                                                    
                                                                                                    
                                                                                                    
                                                                                                    
                                                                                                    
                                                                                                    
                                                                                                    
                                                                                                    
                                                                                                    
                                                                                                    
                                                                                                    
                                                                                                    
                                                                                                    
                                                                                                    
                           
<?xpacket end="w"?></metadata>
<defs>
    <style>
      .cls-1 {
        fill: #8594aa;
        fill-rule: evenodd;
      }
    </style>
  </defs>
  <path id="圆角矩形_1_拷贝_2" data-name="圆角矩形 1 拷贝 2" class="cls-1" d="M39.966,291.667a9.994,9.994,0,1,1-10.633-10.634A0.513,0.513,0,0,1,29.5,281h1a0.5,0.5,0,0,1,.5.5V290h8.5a0.5,0.5,0,0,1,.5.5v1A0.494,0.494,0,0,1,39.966,291.667Zm-15.1-6.77L29,289.136v-6.067A7.946,7.946,0,0,0,24.863,284.9ZM30.5,292H29l-0.349-.358-5.14-5.267A7.91,7.91,0,0,0,22,291a8,8,0,0,0,15.931,1H30.5Z" transform="translate(-12.406 -272.594)"/>
  <path id="圆角矩形_2_拷贝" data-name="圆角矩形 2 拷贝" class="cls-1" d="M38.738,288c-0.005-.019-0.013-0.037-0.019-0.056A0.492,0.492,0,0,1,38.5,288h-5a0.5,0.5,0,0,1-.5-0.5v-5a0.493,0.493,0,0,1,.055-0.218c-0.019,0-.036-0.015-0.055-0.02V280.2a10.01,10.01,0,0,1,7.8,7.8H38.738ZM35,283.124V286h2.917A7.993,7.993,0,0,0,35,283.124Z" transform="translate(-12.406 -272.594)"/>
</svg>
