<svg width="200" height="157" viewBox="0 0 200 157" fill="none" xmlns="http://www.w3.org/2000/svg">
<path d="M2 0.789978H198C198.828 0.789978 199.5 1.46155 199.5 2.28998V31.79H0.5V2.28998C0.5 1.46155 1.17157 0.789978 2 0.789978Z" fill="#F2F8F8" stroke="#E0E3EC"/>
<g opacity="0.6">
<path d="M13 17.0713L16.3 13.7713L17.2427 14.714L13 18.9566L8.75734 14.714L9.70001 13.7713L13 17.0713Z" fill="#919AA0"/>
</g>
<path d="M26.624 10.858V11.95H31.484C31.4 12.382 31.28 12.802 31.124 13.21H27.224V21.562H28.328V21.058H35.708V21.562H36.812V13.21H32.276C32.432 12.802 32.552 12.382 32.648 11.95H37.376V10.858H26.624ZM28.328 20.002V14.254H29.696V20.002H28.328ZM30.764 20.002V18.706H33.236V20.002H30.764ZM34.304 20.002V14.254H35.708V20.002H34.304ZM30.764 17.734V16.486H33.236V17.734H30.764ZM30.764 15.502V14.254H33.236V15.502H30.764ZM38.612 12.694V13.798H40.184C39.812 15.19 39.224 16.438 38.408 17.542L38.9 18.79C39.428 17.938 39.86 17.002 40.22 15.994V21.466H41.36V15.466C41.624 15.886 41.924 16.414 42.26 17.038L42.908 16.066C42.392 15.43 41.876 14.842 41.36 14.314V13.798H42.692V12.694H41.36V10.462H40.22V12.694H38.612ZM48.644 10.486C47.024 11.002 45.188 11.278 43.124 11.314V15.898C43.064 17.938 42.656 19.522 41.912 20.674L42.728 21.538C43.664 20.134 44.168 18.25 44.228 15.898V14.938H44.648C44.888 16.402 45.368 17.674 46.088 18.766C45.452 19.486 44.66 20.122 43.7 20.686L44.444 21.562C45.356 21.01 46.148 20.374 46.796 19.678C47.42 20.374 48.164 20.986 49.052 21.49L49.64 20.47C48.812 19.99 48.104 19.426 47.516 18.778C48.32 17.602 48.776 16.234 48.896 14.686V13.834H44.228V12.274C46.052 12.202 47.72 11.95 49.22 11.542L48.644 10.486ZM46.784 17.842C46.232 16.99 45.848 16.018 45.656 14.938H47.852C47.696 15.994 47.336 16.966 46.784 17.842ZM52.784 11.722C52.496 12.034 52.136 12.31 51.704 12.574C51.272 12.814 50.876 12.982 50.492 13.078V14.374C51.284 14.146 51.944 13.786 52.46 13.294V20.29H53.768V11.722H52.784Z" fill="#666666"/>
<path d="M0.5 62.79H199.5V93.79H0.5V62.79Z" fill="#F2F8F8" stroke="#E0E3EC"/>
<path d="M0.5 124.79H199.5V154.29C199.5 155.118 198.828 155.79 198 155.79H2C1.17157 155.79 0.5 155.118 0.5 154.29V124.79Z" fill="#F2F8F8" stroke="#E0E3EC"/>
<path d="M0.5 93.79H199.5V124.79H0.5V93.79Z" fill="white" stroke="#E0E3EC"/>
<path d="M0.5 31.79H199.5V62.79H0.5V31.79Z" fill="white" stroke="#E0E3EC"/>
<g opacity="0.6">
<path d="M13 79.0713L16.3 75.7713L17.2427 76.714L13 80.9566L8.75734 76.714L9.70001 75.7713L13 79.0713Z" fill="#919AA0"/>
</g>
<path d="M13.7813 140.29L10.4813 136.99L11.424 136.047L15.6666 140.29L11.424 144.533L10.4813 143.59L13.7813 140.29Z" fill="#B8C0C3"/>
<path d="M26.624 72.858V73.95H31.484C31.4 74.382 31.28 74.802 31.124 75.21H27.224V83.562H28.328V83.058H35.708V83.562H36.812V75.21H32.276C32.432 74.802 32.552 74.382 32.648 73.95H37.376V72.858H26.624ZM28.328 82.002V76.254H29.696V82.002H28.328ZM30.764 82.002V80.706H33.236V82.002H30.764ZM34.304 82.002V76.254H35.708V82.002H34.304ZM30.764 79.734V78.486H33.236V79.734H30.764ZM30.764 77.502V76.254H33.236V77.502H30.764ZM38.612 74.694V75.798H40.184C39.812 77.19 39.224 78.438 38.408 79.542L38.9 80.79C39.428 79.938 39.86 79.002 40.22 77.994V83.466H41.36V77.466C41.624 77.886 41.924 78.414 42.26 79.038L42.908 78.066C42.392 77.43 41.876 76.842 41.36 76.314V75.798H42.692V74.694H41.36V72.462H40.22V74.694H38.612ZM48.644 72.486C47.024 73.002 45.188 73.278 43.124 73.314V77.898C43.064 79.938 42.656 81.522 41.912 82.674L42.728 83.538C43.664 82.134 44.168 80.25 44.228 77.898V76.938H44.648C44.888 78.402 45.368 79.674 46.088 80.766C45.452 81.486 44.66 82.122 43.7 82.686L44.444 83.562C45.356 83.01 46.148 82.374 46.796 81.678C47.42 82.374 48.164 82.986 49.052 83.49L49.64 82.47C48.812 81.99 48.104 81.426 47.516 80.778C48.32 79.602 48.776 78.234 48.896 76.686V75.834H44.228V74.274C46.052 74.202 47.72 73.95 49.22 73.542L48.644 72.486ZM46.784 79.842C46.232 78.99 45.848 78.018 45.656 76.938H47.852C47.696 77.994 47.336 78.966 46.784 79.842ZM53.732 73.554C52.82 73.554 52.076 73.854 51.524 74.478C50.984 75.054 50.708 75.822 50.696 76.782H52.004C52.028 76.086 52.172 75.57 52.46 75.21C52.736 74.838 53.144 74.658 53.684 74.658C54.188 74.658 54.584 74.778 54.848 75.018C55.112 75.258 55.244 75.618 55.244 76.098C55.244 76.602 55.04 77.07 54.656 77.502C54.416 77.754 54.008 78.078 53.432 78.486C52.46 79.158 51.812 79.674 51.5 80.046C50.924 80.694 50.648 81.438 50.648 82.29H56.552V81.138H52.268C52.448 80.67 53 80.13 53.924 79.518C54.776 78.942 55.364 78.486 55.7 78.138C56.252 77.526 56.54 76.854 56.54 76.11C56.54 75.354 56.276 74.742 55.76 74.262C55.232 73.782 54.548 73.554 53.732 73.554Z" fill="#666666"/>
<path d="M26.624 134.858V135.95H31.484C31.4 136.382 31.28 136.802 31.124 137.21H27.224V145.562H28.328V145.058H35.708V145.562H36.812V137.21H32.276C32.432 136.802 32.552 136.382 32.648 135.95H37.376V134.858H26.624ZM28.328 144.002V138.254H29.696V144.002H28.328ZM30.764 144.002V142.706H33.236V144.002H30.764ZM34.304 144.002V138.254H35.708V144.002H34.304ZM30.764 141.734V140.486H33.236V141.734H30.764ZM30.764 139.502V138.254H33.236V139.502H30.764ZM38.612 136.694V137.798H40.184C39.812 139.19 39.224 140.438 38.408 141.542L38.9 142.79C39.428 141.938 39.86 141.002 40.22 139.994V145.466H41.36V139.466C41.624 139.886 41.924 140.414 42.26 141.038L42.908 140.066C42.392 139.43 41.876 138.842 41.36 138.314V137.798H42.692V136.694H41.36V134.462H40.22V136.694H38.612ZM48.644 134.486C47.024 135.002 45.188 135.278 43.124 135.314V139.898C43.064 141.938 42.656 143.522 41.912 144.674L42.728 145.538C43.664 144.134 44.168 142.25 44.228 139.898V138.938H44.648C44.888 140.402 45.368 141.674 46.088 142.766C45.452 143.486 44.66 144.122 43.7 144.686L44.444 145.562C45.356 145.01 46.148 144.374 46.796 143.678C47.42 144.374 48.164 144.986 49.052 145.49L49.64 144.47C48.812 143.99 48.104 143.426 47.516 142.778C48.32 141.602 48.776 140.234 48.896 138.686V137.834H44.228V136.274C46.052 136.202 47.72 135.95 49.22 135.542L48.644 134.486ZM46.784 141.842C46.232 140.99 45.848 140.018 45.656 138.938H47.852C47.696 139.994 47.336 140.966 46.784 141.842ZM53.684 135.554C52.844 135.554 52.16 135.782 51.632 136.262C51.068 136.742 50.756 137.402 50.684 138.254H51.968C52.016 137.726 52.196 137.33 52.484 137.066C52.772 136.802 53.18 136.67 53.696 136.67C54.2 136.67 54.596 136.778 54.86 137.018C55.1 137.246 55.232 137.57 55.232 138.002C55.232 138.434 55.088 138.77 54.824 138.998C54.56 139.226 54.164 139.346 53.636 139.346H53.024V140.33H53.648C54.212 140.33 54.644 140.45 54.932 140.69C55.244 140.93 55.4 141.302 55.4 141.806C55.4 142.238 55.244 142.586 54.956 142.874C54.62 143.186 54.176 143.354 53.624 143.354C53.12 143.354 52.712 143.21 52.4 142.922C52.04 142.61 51.86 142.166 51.836 141.59H50.516C50.588 142.55 50.924 143.282 51.524 143.786C52.052 144.23 52.76 144.458 53.636 144.458C54.548 144.458 55.304 144.194 55.88 143.69C56.42 143.186 56.696 142.538 56.696 141.746C56.696 141.242 56.552 140.822 56.264 140.498C56 140.186 55.616 139.946 55.112 139.79C56.048 139.478 56.528 138.842 56.528 137.906C56.528 137.174 56.264 136.598 55.76 136.178C55.232 135.758 54.548 135.554 53.684 135.554Z" fill="#666666"/>
<path d="M16.56 104.554C15.24 104.554 14.208 104.998 13.488 105.91C12.828 106.726 12.504 107.77 12.504 109.042C12.504 110.314 12.816 111.346 13.464 112.138C14.172 113.014 15.192 113.458 16.524 113.458C17.436 113.458 18.228 113.194 18.888 112.678C19.596 112.126 20.04 111.346 20.232 110.35H19.284C19.116 111.094 18.768 111.658 18.264 112.042C17.784 112.402 17.208 112.582 16.524 112.582C15.516 112.582 14.76 112.246 14.232 111.586C13.728 110.962 13.488 110.11 13.488 109.042C13.488 107.974 13.74 107.122 14.244 106.474C14.784 105.778 15.552 105.43 16.548 105.43C17.22 105.43 17.784 105.586 18.252 105.91C18.732 106.246 19.044 106.726 19.164 107.35H20.112C19.992 106.498 19.608 105.814 18.96 105.31C18.312 104.806 17.508 104.554 16.56 104.554ZM24.2465 106.918C23.3105 106.918 22.5785 107.23 22.0265 107.878C21.4985 108.49 21.2345 109.258 21.2345 110.194C21.2345 111.118 21.4985 111.886 22.0265 112.486C22.5785 113.134 23.3105 113.458 24.2465 113.458C25.1705 113.458 25.9145 113.134 26.4785 112.486C26.9945 111.886 27.2585 111.118 27.2585 110.194C27.2585 109.258 26.9945 108.49 26.4665 107.878C25.9145 107.23 25.1705 106.918 24.2465 106.918ZM24.2465 107.722C24.8945 107.722 25.4105 107.974 25.7945 108.478C26.1185 108.934 26.2865 109.498 26.2865 110.194C26.2865 110.866 26.1185 111.442 25.7945 111.898C25.4105 112.402 24.8945 112.654 24.2465 112.654C23.5865 112.654 23.0705 112.402 22.7105 111.898C22.3745 111.442 22.2185 110.878 22.2185 110.194C22.2185 109.498 22.3745 108.934 22.7105 108.478C23.0705 107.974 23.5865 107.722 24.2465 107.722ZM31.4097 106.918C31.0017 106.918 30.6297 107.014 30.2937 107.206C29.9577 107.386 29.6817 107.65 29.4657 107.998V107.086H28.5057V113.29H29.4657V109.546C29.5017 108.982 29.6817 108.538 30.0177 108.202C30.3297 107.89 30.7017 107.734 31.1337 107.734C32.2137 107.734 32.7657 108.334 32.7657 109.546V113.29H33.7257V109.474C33.7257 107.77 32.9457 106.918 31.4097 106.918ZM36.8648 105.082L35.9168 105.478V107.086H34.6688V107.89H35.9168V111.838C35.9168 112.306 36.0128 112.654 36.2168 112.894C36.4328 113.158 36.8048 113.29 37.3088 113.29H38.2448V112.486H37.4528C37.2368 112.486 37.0808 112.426 36.9968 112.33C36.9008 112.234 36.8648 112.066 36.8648 111.838V107.89H38.4008V107.086H36.8648V105.082ZM42.0305 106.918C41.1305 106.918 40.4225 107.242 39.8945 107.89C39.3665 108.502 39.1145 109.27 39.1145 110.182C39.1145 111.19 39.3785 111.982 39.9305 112.582C40.4585 113.158 41.1785 113.458 42.0665 113.458C42.8705 113.458 43.5305 113.218 44.0465 112.762C44.4665 112.378 44.7425 111.898 44.8865 111.298H43.9265C43.7705 111.73 43.5665 112.054 43.3025 112.27C42.9905 112.522 42.5705 112.654 42.0665 112.654C41.4785 112.654 41.0105 112.462 40.6745 112.078C40.3385 111.694 40.1585 111.154 40.1105 110.458H45.0065C44.9825 109.378 44.7425 108.526 44.2865 107.926C43.7825 107.254 43.0265 106.918 42.0305 106.918ZM42.0545 107.722C43.2305 107.722 43.8905 108.382 44.0105 109.714H40.1345C40.1945 109.102 40.3865 108.622 40.7225 108.262C41.0585 107.902 41.5025 107.722 42.0545 107.722ZM49.0347 106.918C48.6267 106.918 48.2547 107.014 47.9187 107.206C47.5827 107.386 47.3067 107.65 47.0907 107.998V107.086H46.1307V113.29H47.0907V109.546C47.1267 108.982 47.3067 108.538 47.6427 108.202C47.9547 107.89 48.3267 107.734 48.7587 107.734C49.8387 107.734 50.3907 108.334 50.3907 109.546V113.29H51.3507V109.474C51.3507 107.77 50.5707 106.918 49.0347 106.918ZM54.4898 105.082L53.5418 105.478V107.086H52.2938V107.89H53.5418V111.838C53.5418 112.306 53.6378 112.654 53.8418 112.894C54.0578 113.158 54.4298 113.29 54.9338 113.29H55.8698V112.486H55.0778C54.8618 112.486 54.7058 112.426 54.6218 112.33C54.5258 112.234 54.4898 112.066 54.4898 111.838V107.89H56.0258V107.086H54.4898V105.082ZM60.0755 104.554C59.2115 104.554 58.5035 104.842 57.9755 105.418C57.4475 105.982 57.1715 106.75 57.1715 107.71H58.1555C58.1675 106.954 58.3475 106.378 58.6835 105.994C58.9955 105.586 59.4515 105.394 60.0395 105.394C60.5915 105.394 61.0355 105.538 61.3475 105.826C61.6595 106.114 61.8155 106.51 61.8155 107.038C61.8155 107.59 61.5875 108.106 61.1555 108.574C60.9275 108.814 60.4835 109.162 59.8115 109.642C58.8995 110.266 58.2875 110.782 57.9515 111.166C57.3755 111.802 57.0995 112.51 57.0995 113.29H62.8115V112.414H58.3115C58.4675 111.838 59.0915 111.178 60.1835 110.446C61.0715 109.846 61.6595 109.378 61.9595 109.066C62.5115 108.466 62.7995 107.794 62.7995 107.05C62.7995 106.306 62.5355 105.694 62.0315 105.238C61.5155 104.782 60.8675 104.554 60.0755 104.554Z" fill="#666666"/>
<path d="M16.56 42.554C15.24 42.554 14.208 42.998 13.488 43.91C12.828 44.726 12.504 45.77 12.504 47.042C12.504 48.314 12.816 49.346 13.464 50.138C14.172 51.014 15.192 51.458 16.524 51.458C17.436 51.458 18.228 51.194 18.888 50.678C19.596 50.126 20.04 49.346 20.232 48.35H19.284C19.116 49.094 18.768 49.658 18.264 50.042C17.784 50.402 17.208 50.582 16.524 50.582C15.516 50.582 14.76 50.246 14.232 49.586C13.728 48.962 13.488 48.11 13.488 47.042C13.488 45.974 13.74 45.122 14.244 44.474C14.784 43.778 15.552 43.43 16.548 43.43C17.22 43.43 17.784 43.586 18.252 43.91C18.732 44.246 19.044 44.726 19.164 45.35H20.112C19.992 44.498 19.608 43.814 18.96 43.31C18.312 42.806 17.508 42.554 16.56 42.554ZM24.2465 44.918C23.3105 44.918 22.5785 45.23 22.0265 45.878C21.4985 46.49 21.2345 47.258 21.2345 48.194C21.2345 49.118 21.4985 49.886 22.0265 50.486C22.5785 51.134 23.3105 51.458 24.2465 51.458C25.1705 51.458 25.9145 51.134 26.4785 50.486C26.9945 49.886 27.2585 49.118 27.2585 48.194C27.2585 47.258 26.9945 46.49 26.4665 45.878C25.9145 45.23 25.1705 44.918 24.2465 44.918ZM24.2465 45.722C24.8945 45.722 25.4105 45.974 25.7945 46.478C26.1185 46.934 26.2865 47.498 26.2865 48.194C26.2865 48.866 26.1185 49.442 25.7945 49.898C25.4105 50.402 24.8945 50.654 24.2465 50.654C23.5865 50.654 23.0705 50.402 22.7105 49.898C22.3745 49.442 22.2185 48.878 22.2185 48.194C22.2185 47.498 22.3745 46.934 22.7105 46.478C23.0705 45.974 23.5865 45.722 24.2465 45.722ZM31.4097 44.918C31.0017 44.918 30.6297 45.014 30.2937 45.206C29.9577 45.386 29.6817 45.65 29.4657 45.998V45.086H28.5057V51.29H29.4657V47.546C29.5017 46.982 29.6817 46.538 30.0177 46.202C30.3297 45.89 30.7017 45.734 31.1337 45.734C32.2137 45.734 32.7657 46.334 32.7657 47.546V51.29H33.7257V47.474C33.7257 45.77 32.9457 44.918 31.4097 44.918ZM36.8648 43.082L35.9168 43.478V45.086H34.6688V45.89H35.9168V49.838C35.9168 50.306 36.0128 50.654 36.2168 50.894C36.4328 51.158 36.8048 51.29 37.3088 51.29H38.2448V50.486H37.4528C37.2368 50.486 37.0808 50.426 36.9968 50.33C36.9008 50.234 36.8648 50.066 36.8648 49.838V45.89H38.4008V45.086H36.8648V43.082ZM42.0305 44.918C41.1305 44.918 40.4225 45.242 39.8945 45.89C39.3665 46.502 39.1145 47.27 39.1145 48.182C39.1145 49.19 39.3785 49.982 39.9305 50.582C40.4585 51.158 41.1785 51.458 42.0665 51.458C42.8705 51.458 43.5305 51.218 44.0465 50.762C44.4665 50.378 44.7425 49.898 44.8865 49.298H43.9265C43.7705 49.73 43.5665 50.054 43.3025 50.27C42.9905 50.522 42.5705 50.654 42.0665 50.654C41.4785 50.654 41.0105 50.462 40.6745 50.078C40.3385 49.694 40.1585 49.154 40.1105 48.458H45.0065C44.9825 47.378 44.7425 46.526 44.2865 45.926C43.7825 45.254 43.0265 44.918 42.0305 44.918ZM42.0545 45.722C43.2305 45.722 43.8905 46.382 44.0105 47.714H40.1345C40.1945 47.102 40.3865 46.622 40.7225 46.262C41.0585 45.902 41.5025 45.722 42.0545 45.722ZM49.0347 44.918C48.6267 44.918 48.2547 45.014 47.9187 45.206C47.5827 45.386 47.3067 45.65 47.0907 45.998V45.086H46.1307V51.29H47.0907V47.546C47.1267 46.982 47.3067 46.538 47.6427 46.202C47.9547 45.89 48.3267 45.734 48.7587 45.734C49.8387 45.734 50.3907 46.334 50.3907 47.546V51.29H51.3507V47.474C51.3507 45.77 50.5707 44.918 49.0347 44.918ZM54.4898 43.082L53.5418 43.478V45.086H52.2938V45.89H53.5418V49.838C53.5418 50.306 53.6378 50.654 53.8418 50.894C54.0578 51.158 54.4298 51.29 54.9338 51.29H55.8698V50.486H55.0778C54.8618 50.486 54.7058 50.426 54.6218 50.33C54.5258 50.234 54.4898 50.066 54.4898 49.838V45.89H56.0258V45.086H54.4898V43.082ZM60.0755 42.554C59.2115 42.554 58.5035 42.842 57.9755 43.418C57.4475 43.982 57.1715 44.75 57.1715 45.71H58.1555C58.1675 44.954 58.3475 44.378 58.6835 43.994C58.9955 43.586 59.4515 43.394 60.0395 43.394C60.5915 43.394 61.0355 43.538 61.3475 43.826C61.6595 44.114 61.8155 44.51 61.8155 45.038C61.8155 45.59 61.5875 46.106 61.1555 46.574C60.9275 46.814 60.4835 47.162 59.8115 47.642C58.8995 48.266 58.2875 48.782 57.9515 49.166C57.3755 49.802 57.0995 50.51 57.0995 51.29H62.8115V50.414H58.3115C58.4675 49.838 59.0915 49.178 60.1835 48.446C61.0715 47.846 61.6595 47.378 61.9595 47.066C62.5115 46.466 62.7995 45.794 62.7995 45.05C62.7995 44.306 62.5355 43.694 62.0315 43.238C61.5155 42.782 60.8675 42.554 60.0755 42.554Z" fill="#666666"/>
</svg>
