<svg width="200" height="126" viewBox="0 0 200 126" fill="none" xmlns="http://www.w3.org/2000/svg">
<path d="M2 0.789978H198C198.828 0.789978 199.5 1.46155 199.5 2.28998V31.79H0.5V2.28998C0.5 1.46155 1.17157 0.789978 2 0.789978Z" fill="#F2F8F8" stroke="#E0E3EC"/>
<g opacity="0.6">
<path d="M13.7813 16.29L10.4813 12.99L11.424 12.0473L15.6666 16.29L11.424 20.5327L10.4813 19.59L13.7813 16.29Z" fill="#919AA0"/>
</g>
<path d="M26.624 10.858V11.95H31.484C31.4 12.382 31.28 12.802 31.124 13.21H27.224V21.562H28.328V21.058H35.708V21.562H36.812V13.21H32.276C32.432 12.802 32.552 12.382 32.648 11.95H37.376V10.858H26.624ZM28.328 20.002V14.254H29.696V20.002H28.328ZM30.764 20.002V18.706H33.236V20.002H30.764ZM34.304 20.002V14.254H35.708V20.002H34.304ZM30.764 17.734V16.486H33.236V17.734H30.764ZM30.764 15.502V14.254H33.236V15.502H30.764ZM38.612 12.694V13.798H40.184C39.812 15.19 39.224 16.438 38.408 17.542L38.9 18.79C39.428 17.938 39.86 17.002 40.22 15.994V21.466H41.36V15.466C41.624 15.886 41.924 16.414 42.26 17.038L42.908 16.066C42.392 15.43 41.876 14.842 41.36 14.314V13.798H42.692V12.694H41.36V10.462H40.22V12.694H38.612ZM48.644 10.486C47.024 11.002 45.188 11.278 43.124 11.314V15.898C43.064 17.938 42.656 19.522 41.912 20.674L42.728 21.538C43.664 20.134 44.168 18.25 44.228 15.898V14.938H44.648C44.888 16.402 45.368 17.674 46.088 18.766C45.452 19.486 44.66 20.122 43.7 20.686L44.444 21.562C45.356 21.01 46.148 20.374 46.796 19.678C47.42 20.374 48.164 20.986 49.052 21.49L49.64 20.47C48.812 19.99 48.104 19.426 47.516 18.778C48.32 17.602 48.776 16.234 48.896 14.686V13.834H44.228V12.274C46.052 12.202 47.72 11.95 49.22 11.542L48.644 10.486ZM46.784 17.842C46.232 16.99 45.848 16.018 45.656 14.938H47.852C47.696 15.994 47.336 16.966 46.784 17.842ZM52.784 11.722C52.496 12.034 52.136 12.31 51.704 12.574C51.272 12.814 50.876 12.982 50.492 13.078V14.374C51.284 14.146 51.944 13.786 52.46 13.294V20.29H53.768V11.722H52.784Z" fill="#666666"/>
<path d="M0.5 31.79H199.5V62.79H0.5V31.79Z" fill="#F2F8F8" stroke="#E0E3EC"/>
<path d="M0.5 93.79H199.5V123.29C199.5 124.118 198.828 124.79 198 124.79H2C1.17157 124.79 0.5 124.118 0.5 123.29V93.79Z" fill="#F2F8F8" stroke="#E0E3EC"/>
<path d="M0.5 62.79H199.5V93.79H0.5V62.79Z" fill="white" stroke="#E0E3EC"/>
<g opacity="0.6">
<path d="M13 48.0713L16.3 44.7713L17.2427 45.714L13 49.9566L8.75734 45.714L9.70001 44.7713L13 48.0713Z" fill="#919AA0"/>
</g>
<g opacity="0.6">
<path d="M13.7813 109.29L10.4813 105.99L11.424 105.047L15.6666 109.29L11.424 113.533L10.4813 112.59L13.7813 109.29Z" fill="#919AA0"/>
</g>
<path d="M26.624 41.858V42.95H31.484C31.4 43.382 31.28 43.802 31.124 44.21H27.224V52.562H28.328V52.058H35.708V52.562H36.812V44.21H32.276C32.432 43.802 32.552 43.382 32.648 42.95H37.376V41.858H26.624ZM28.328 51.002V45.254H29.696V51.002H28.328ZM30.764 51.002V49.706H33.236V51.002H30.764ZM34.304 51.002V45.254H35.708V51.002H34.304ZM30.764 48.734V47.486H33.236V48.734H30.764ZM30.764 46.502V45.254H33.236V46.502H30.764ZM38.612 43.694V44.798H40.184C39.812 46.19 39.224 47.438 38.408 48.542L38.9 49.79C39.428 48.938 39.86 48.002 40.22 46.994V52.466H41.36V46.466C41.624 46.886 41.924 47.414 42.26 48.038L42.908 47.066C42.392 46.43 41.876 45.842 41.36 45.314V44.798H42.692V43.694H41.36V41.462H40.22V43.694H38.612ZM48.644 41.486C47.024 42.002 45.188 42.278 43.124 42.314V46.898C43.064 48.938 42.656 50.522 41.912 51.674L42.728 52.538C43.664 51.134 44.168 49.25 44.228 46.898V45.938H44.648C44.888 47.402 45.368 48.674 46.088 49.766C45.452 50.486 44.66 51.122 43.7 51.686L44.444 52.562C45.356 52.01 46.148 51.374 46.796 50.678C47.42 51.374 48.164 51.986 49.052 52.49L49.64 51.47C48.812 50.99 48.104 50.426 47.516 49.778C48.32 48.602 48.776 47.234 48.896 45.686V44.834H44.228V43.274C46.052 43.202 47.72 42.95 49.22 42.542L48.644 41.486ZM46.784 48.842C46.232 47.99 45.848 47.018 45.656 45.938H47.852C47.696 46.994 47.336 47.966 46.784 48.842ZM53.732 42.554C52.82 42.554 52.076 42.854 51.524 43.478C50.984 44.054 50.708 44.822 50.696 45.782H52.004C52.028 45.086 52.172 44.57 52.46 44.21C52.736 43.838 53.144 43.658 53.684 43.658C54.188 43.658 54.584 43.778 54.848 44.018C55.112 44.258 55.244 44.618 55.244 45.098C55.244 45.602 55.04 46.07 54.656 46.502C54.416 46.754 54.008 47.078 53.432 47.486C52.46 48.158 51.812 48.674 51.5 49.046C50.924 49.694 50.648 50.438 50.648 51.29H56.552V50.138H52.268C52.448 49.67 53 49.13 53.924 48.518C54.776 47.942 55.364 47.486 55.7 47.138C56.252 46.526 56.54 45.854 56.54 45.11C56.54 44.354 56.276 43.742 55.76 43.262C55.232 42.782 54.548 42.554 53.732 42.554Z" fill="#666666"/>
<path d="M26.624 103.858V104.95H31.484C31.4 105.382 31.28 105.802 31.124 106.21H27.224V114.562H28.328V114.058H35.708V114.562H36.812V106.21H32.276C32.432 105.802 32.552 105.382 32.648 104.95H37.376V103.858H26.624ZM28.328 113.002V107.254H29.696V113.002H28.328ZM30.764 113.002V111.706H33.236V113.002H30.764ZM34.304 113.002V107.254H35.708V113.002H34.304ZM30.764 110.734V109.486H33.236V110.734H30.764ZM30.764 108.502V107.254H33.236V108.502H30.764ZM38.612 105.694V106.798H40.184C39.812 108.19 39.224 109.438 38.408 110.542L38.9 111.79C39.428 110.938 39.86 110.002 40.22 108.994V114.466H41.36V108.466C41.624 108.886 41.924 109.414 42.26 110.038L42.908 109.066C42.392 108.43 41.876 107.842 41.36 107.314V106.798H42.692V105.694H41.36V103.462H40.22V105.694H38.612ZM48.644 103.486C47.024 104.002 45.188 104.278 43.124 104.314V108.898C43.064 110.938 42.656 112.522 41.912 113.674L42.728 114.538C43.664 113.134 44.168 111.25 44.228 108.898V107.938H44.648C44.888 109.402 45.368 110.674 46.088 111.766C45.452 112.486 44.66 113.122 43.7 113.686L44.444 114.562C45.356 114.01 46.148 113.374 46.796 112.678C47.42 113.374 48.164 113.986 49.052 114.49L49.64 113.47C48.812 112.99 48.104 112.426 47.516 111.778C48.32 110.602 48.776 109.234 48.896 107.686V106.834H44.228V105.274C46.052 105.202 47.72 104.95 49.22 104.542L48.644 103.486ZM46.784 110.842C46.232 109.99 45.848 109.018 45.656 107.938H47.852C47.696 108.994 47.336 109.966 46.784 110.842ZM53.684 104.554C52.844 104.554 52.16 104.782 51.632 105.262C51.068 105.742 50.756 106.402 50.684 107.254H51.968C52.016 106.726 52.196 106.33 52.484 106.066C52.772 105.802 53.18 105.67 53.696 105.67C54.2 105.67 54.596 105.778 54.86 106.018C55.1 106.246 55.232 106.57 55.232 107.002C55.232 107.434 55.088 107.77 54.824 107.998C54.56 108.226 54.164 108.346 53.636 108.346H53.024V109.33H53.648C54.212 109.33 54.644 109.45 54.932 109.69C55.244 109.93 55.4 110.302 55.4 110.806C55.4 111.238 55.244 111.586 54.956 111.874C54.62 112.186 54.176 112.354 53.624 112.354C53.12 112.354 52.712 112.21 52.4 111.922C52.04 111.61 51.86 111.166 51.836 110.59H50.516C50.588 111.55 50.924 112.282 51.524 112.786C52.052 113.23 52.76 113.458 53.636 113.458C54.548 113.458 55.304 113.194 55.88 112.69C56.42 112.186 56.696 111.538 56.696 110.746C56.696 110.242 56.552 109.822 56.264 109.498C56 109.186 55.616 108.946 55.112 108.79C56.048 108.478 56.528 107.842 56.528 106.906C56.528 106.174 56.264 105.598 55.76 105.178C55.232 104.758 54.548 104.554 53.684 104.554Z" fill="#666666"/>
<path d="M16.56 73.554C15.24 73.554 14.208 73.998 13.488 74.91C12.828 75.726 12.504 76.77 12.504 78.042C12.504 79.314 12.816 80.346 13.464 81.138C14.172 82.014 15.192 82.458 16.524 82.458C17.436 82.458 18.228 82.194 18.888 81.678C19.596 81.126 20.04 80.346 20.232 79.35H19.284C19.116 80.094 18.768 80.658 18.264 81.042C17.784 81.402 17.208 81.582 16.524 81.582C15.516 81.582 14.76 81.246 14.232 80.586C13.728 79.962 13.488 79.11 13.488 78.042C13.488 76.974 13.74 76.122 14.244 75.474C14.784 74.778 15.552 74.43 16.548 74.43C17.22 74.43 17.784 74.586 18.252 74.91C18.732 75.246 19.044 75.726 19.164 76.35H20.112C19.992 75.498 19.608 74.814 18.96 74.31C18.312 73.806 17.508 73.554 16.56 73.554ZM24.2465 75.918C23.3105 75.918 22.5785 76.23 22.0265 76.878C21.4985 77.49 21.2345 78.258 21.2345 79.194C21.2345 80.118 21.4985 80.886 22.0265 81.486C22.5785 82.134 23.3105 82.458 24.2465 82.458C25.1705 82.458 25.9145 82.134 26.4785 81.486C26.9945 80.886 27.2585 80.118 27.2585 79.194C27.2585 78.258 26.9945 77.49 26.4665 76.878C25.9145 76.23 25.1705 75.918 24.2465 75.918ZM24.2465 76.722C24.8945 76.722 25.4105 76.974 25.7945 77.478C26.1185 77.934 26.2865 78.498 26.2865 79.194C26.2865 79.866 26.1185 80.442 25.7945 80.898C25.4105 81.402 24.8945 81.654 24.2465 81.654C23.5865 81.654 23.0705 81.402 22.7105 80.898C22.3745 80.442 22.2185 79.878 22.2185 79.194C22.2185 78.498 22.3745 77.934 22.7105 77.478C23.0705 76.974 23.5865 76.722 24.2465 76.722ZM31.4097 75.918C31.0017 75.918 30.6297 76.014 30.2937 76.206C29.9577 76.386 29.6817 76.65 29.4657 76.998V76.086H28.5057V82.29H29.4657V78.546C29.5017 77.982 29.6817 77.538 30.0177 77.202C30.3297 76.89 30.7017 76.734 31.1337 76.734C32.2137 76.734 32.7657 77.334 32.7657 78.546V82.29H33.7257V78.474C33.7257 76.77 32.9457 75.918 31.4097 75.918ZM36.8648 74.082L35.9168 74.478V76.086H34.6688V76.89H35.9168V80.838C35.9168 81.306 36.0128 81.654 36.2168 81.894C36.4328 82.158 36.8048 82.29 37.3088 82.29H38.2448V81.486H37.4528C37.2368 81.486 37.0808 81.426 36.9968 81.33C36.9008 81.234 36.8648 81.066 36.8648 80.838V76.89H38.4008V76.086H36.8648V74.082ZM42.0305 75.918C41.1305 75.918 40.4225 76.242 39.8945 76.89C39.3665 77.502 39.1145 78.27 39.1145 79.182C39.1145 80.19 39.3785 80.982 39.9305 81.582C40.4585 82.158 41.1785 82.458 42.0665 82.458C42.8705 82.458 43.5305 82.218 44.0465 81.762C44.4665 81.378 44.7425 80.898 44.8865 80.298H43.9265C43.7705 80.73 43.5665 81.054 43.3025 81.27C42.9905 81.522 42.5705 81.654 42.0665 81.654C41.4785 81.654 41.0105 81.462 40.6745 81.078C40.3385 80.694 40.1585 80.154 40.1105 79.458H45.0065C44.9825 78.378 44.7425 77.526 44.2865 76.926C43.7825 76.254 43.0265 75.918 42.0305 75.918ZM42.0545 76.722C43.2305 76.722 43.8905 77.382 44.0105 78.714H40.1345C40.1945 78.102 40.3865 77.622 40.7225 77.262C41.0585 76.902 41.5025 76.722 42.0545 76.722ZM49.0347 75.918C48.6267 75.918 48.2547 76.014 47.9187 76.206C47.5827 76.386 47.3067 76.65 47.0907 76.998V76.086H46.1307V82.29H47.0907V78.546C47.1267 77.982 47.3067 77.538 47.6427 77.202C47.9547 76.89 48.3267 76.734 48.7587 76.734C49.8387 76.734 50.3907 77.334 50.3907 78.546V82.29H51.3507V78.474C51.3507 76.77 50.5707 75.918 49.0347 75.918ZM54.4898 74.082L53.5418 74.478V76.086H52.2938V76.89H53.5418V80.838C53.5418 81.306 53.6378 81.654 53.8418 81.894C54.0578 82.158 54.4298 82.29 54.9338 82.29H55.8698V81.486H55.0778C54.8618 81.486 54.7058 81.426 54.6218 81.33C54.5258 81.234 54.4898 81.066 54.4898 80.838V76.89H56.0258V76.086H54.4898V74.082ZM60.0755 73.554C59.2115 73.554 58.5035 73.842 57.9755 74.418C57.4475 74.982 57.1715 75.75 57.1715 76.71H58.1555C58.1675 75.954 58.3475 75.378 58.6835 74.994C58.9955 74.586 59.4515 74.394 60.0395 74.394C60.5915 74.394 61.0355 74.538 61.3475 74.826C61.6595 75.114 61.8155 75.51 61.8155 76.038C61.8155 76.59 61.5875 77.106 61.1555 77.574C60.9275 77.814 60.4835 78.162 59.8115 78.642C58.8995 79.266 58.2875 79.782 57.9515 80.166C57.3755 80.802 57.0995 81.51 57.0995 82.29H62.8115V81.414H58.3115C58.4675 80.838 59.0915 80.178 60.1835 79.446C61.0715 78.846 61.6595 78.378 61.9595 78.066C62.5115 77.466 62.7995 76.794 62.7995 76.05C62.7995 75.306 62.5355 74.694 62.0315 74.238C61.5155 73.782 60.8675 73.554 60.0755 73.554Z" fill="#666666"/>
</svg>
