<svg width="24" height="24" viewBox="0 0 24 24" fill="none" xmlns="http://www.w3.org/2000/svg">
<path d="M13.1243 3C13.1243 3 12.6213 3.00021 12 3.00021C11.3787 3.00021 10.8743 3 10.8743 3L10.8743 10.875H2.99929C2.99929 10.875 2.99927 11.3789 2.99927 12.0002C2.99927 12.6215 2.99929 13.125 2.99929 13.125H10.8743V21C10.8743 21 11.3779 21 11.9993 21C12.6206 21 13.1243 21 13.1243 21L13.1243 13.125H20.9993C20.9993 13.125 20.9993 12.6213 20.9993 12C20.9993 11.3787 20.9993 10.875 20.9993 10.875H13.1243V3Z" fill="#CCCCCC"/>
</svg>
