<?xml version="1.0" encoding="UTF-8"?>
<svg width="24px" height="24px" viewBox="0 0 24 24" version="1.1" xmlns="http://www.w3.org/2000/svg" xmlns:xlink="http://www.w3.org/1999/xlink">
    <!-- Generator: Sketch 49 (51002) - http://www.bohemiancoding.com/sketch -->
    <title>Slice</title>
    <desc>Created with Sketch.</desc>
    <defs></defs>
    <g id="Page-1" stroke="none" stroke-width="1" fill="none" fill-rule="evenodd">
        <g id="attachment" transform="translate(11.532486, 11.917262) rotate(-225.000000) translate(-11.532486, -11.917262) translate(-1.467514, 5.417262)" fill="#000000" fill-rule="nonzero">
            <path d="M5.75211219e-15,6.49359094 C5.75211219e-15,4.69575108 0.688215087,3.16402596 2.06464526,1.89841558 C3.44107544,0.632805192 5.12102833,1.04275309e-15 7.10450393,0 L20.7047393,0 C22.1217543,0 23.336277,0.467657517 24.3483072,1.40297255 C25.3603374,2.33828758 25.8663525,3.44814258 25.8663525,4.73253753 C25.8663525,6.01693249 25.3603374,7.11778654 24.3483072,8.0350997 C23.336277,8.95241285 22.1217543,9.41106943 20.7047393,9.41106943 L9.71574913,9.41106943 C8.8254734,9.41106943 8.05652041,9.12656147 7.40889015,8.55754554 C6.76125989,7.98852962 6.43744476,7.30054475 6.43744476,6.49359094 C6.43744476,5.68663714 6.76125989,4.98965133 7.40889015,4.40263353 C8.05652041,3.81561572 8.8254734,3.52210682 9.71574913,3.52210682 L19.430203,3.52210682 L19.430203,5.88896261 L9.59399464,5.88896261 C9.22959468,5.88896261 9.0473947,6.08150445 9.0473947,6.46658812 C9.0473947,6.8516718 9.22959468,7.04421364 9.59399464,7.04421364 L20.7047393,7.04421364 C21.3929544,7.04421364 21.9999999,6.81488535 22.5258756,6.35622878 C23.0517514,5.8975722 23.3146893,5.35634179 23.3146893,4.73253753 C23.3146893,4.10873328 23.0517514,3.55850193 22.5258756,3.08184347 C21.9999999,2.60518501 21.3929544,2.36685578 20.7047393,2.36685578 L7.10450393,2.36685578 C5.84982824,2.36685578 4.77735254,2.77033269 3.88707681,3.5772865 C2.99680108,4.3842403 2.55166322,5.35634179 2.55166322,6.49359094 C2.55166322,7.6308401 2.99680108,8.59394064 3.88707681,9.38289257 C4.77735254,10.1718445 5.84982824,10.5663205 7.10450393,10.5663205 L19.430203,10.5663205 L19.430203,12.9331762 L7.10450393,12.9331762 C5.12102833,12.9331762 3.44107544,12.309372 2.06464526,11.0617635 C0.688215087,9.81415499 5.75211219e-16,8.2914308 0,6.49359094 Z" id="Shape"></path>
        </g>
    </g>
</svg>