<svg width="16" height="17" viewBox="0 0 16 17" fill="none" xmlns="http://www.w3.org/2000/svg">
<path d="M10.6353 8.50027C10.6353 9.92173 9.48298 11.0741 8.06152 11.0741C6.64005 11.0741 5.48773 9.92173 5.48773 8.50027C5.48773 7.07881 6.64005 5.92648 8.06152 5.92648C9.48298 5.92648 10.6353 7.07881 10.6353 8.50027ZM9.55929 8.50027C9.55929 7.67307 8.88872 7.00249 8.06152 7.00249C7.23432 7.00249 6.56374 7.67307 6.56374 8.50027C6.56374 9.32747 7.23432 9.99805 8.06152 9.99805C8.88872 9.99805 9.55929 9.32747 9.55929 8.50027Z" fill="white"/>
<path d="M15 8.49962C15 9.78651 12.941 13.6472 8.05078 13.6472C3.16059 13.6472 1.10156 9.78651 1.10156 8.49962C1.10156 7.21273 3.67535 3.35205 8.05078 3.35205C12.4262 3.35205 15 7.21273 15 8.49962ZM13.924 8.49962C13.924 8.50088 13.9206 8.42473 13.8637 8.25993C13.8103 8.10518 13.7228 7.90983 13.5948 7.68551C13.3387 7.23652 12.9466 6.71667 12.4267 6.22494C11.3882 5.24251 9.90382 4.42806 8.05078 4.42806C6.19774 4.42806 4.71339 5.24251 3.67482 6.22494C3.15498 6.71667 2.76284 7.23652 2.50674 7.68551C2.3788 7.90983 2.29125 8.10518 2.23786 8.25993C2.18342 8.4177 2.17794 8.49448 2.17757 8.49962C2.17757 8.49965 2.17757 8.49969 2.17757 8.49962C2.17757 8.58959 2.23164 8.90125 2.46353 9.36849C2.68268 9.81007 3.02523 10.3172 3.5032 10.7951C4.44603 11.738 5.91631 12.5712 8.05078 12.5712C10.1853 12.5712 11.6555 11.738 12.5984 10.7951C13.0763 10.3172 13.4189 9.81007 13.638 9.36849C13.8699 8.90125 13.924 8.58959 13.924 8.49962Z" fill="white"/>
</svg>
