<svg width="16" height="17" viewBox="0 0 16 17" fill="none" xmlns="http://www.w3.org/2000/svg">
<path d="M7.4689 6.01112V12.9794H8.5314V6.01112H7.4689Z" fill="white" fill-opacity="0.6"/>
<path d="M4.98334 12.9794V6.01112H6.04584V12.9794H4.98334Z" fill="white" fill-opacity="0.6"/>
<path d="M9.97678 6.01112V12.9794H11.0393V6.01112H9.97678Z" fill="white" fill-opacity="0.6"/>
<path d="M7.06268 1.5C6.18248 1.5 5.46893 2.21038 5.46893 3.08667V3.49109H1V4.54887H2.46872V13.9133C2.46872 14.7896 3.18226 15.5 4.06247 15.5H11.9375C12.8177 15.5 13.5312 14.7896 13.5312 13.9133V4.54887H15V3.49109H10.5314V3.08667C10.5314 2.21038 9.81789 1.5 8.93768 1.5H7.06268ZM9.46893 3.49109H6.53143V3.08667C6.53143 2.79457 6.76928 2.55778 7.06268 2.55778H8.93768C9.23108 2.55778 9.46893 2.79457 9.46893 3.08667V3.49109ZM3.53122 13.9133V4.54887H12.4687V13.9133C12.4687 14.2054 12.2309 14.4422 11.9375 14.4422H4.06247C3.76907 14.4422 3.53122 14.2054 3.53122 13.9133Z" fill="white" fill-opacity="0.6"/>
</svg>
