<svg width="24" height="24" viewBox="0 0 24 24" fill="none" xmlns="http://www.w3.org/2000/svg">
<path d="M18.5349 9.44679L18.3493 8.59993C17.7098 5.6824 15.108 3.49951 12 3.49951C8.89196 3.49951 6.29024 5.6824 5.65073 8.59993L5.4651 9.44679L4.63864 9.70869C2.81715 10.2859 1.5 11.9908 1.5 13.9995C1.5 16.4848 3.51472 18.4995 6 18.4995H8V19.9995H6C2.68629 19.9995 0 17.3132 0 13.9995C0 11.3183 1.75873 9.04778 4.18552 8.27876C4.97271 4.68751 8.17245 1.99951 12 1.99951C15.8276 1.99951 19.0273 4.68751 19.8145 8.27876C22.2413 9.04778 24 11.3183 24 13.9995C24 17.3132 21.3137 19.9995 18 19.9995H16V18.4995H18C20.4853 18.4995 22.5 16.4848 22.5 13.9995C22.5 11.9908 21.1829 10.2859 19.3614 9.70869L18.5349 9.44679Z" fill="#CCCCCC"/>
<path d="M12.75 12.3101V19.9995H11.25V12.3103L8.78771 14.7726L7.72705 13.7119L11.9697 9.46927L12 9.49958L12.0304 9.46916L16.2731 13.7118L15.2124 14.7725L12.75 12.3101Z" fill="#CCCCCC"/>
</svg>
