<svg width="24" height="24" viewBox="0 0 24 24" fill="none" xmlns="http://www.w3.org/2000/svg">
<path d="M14.5052 1.5C15.1336 1.5 15.7326 1.76654 16.1532 2.23341L20.3366 6.87634C20.7037 7.28378 20.9069 7.81278 20.9069 8.36121V11.9986H19.4024V8.73657H15.7958C14.8974 8.73657 14.1691 8.00826 14.1691 7.10983V3.00384H5.21735C4.82259 3.00384 4.50257 3.32385 4.50257 3.71862V20.2818C4.50257 20.6765 4.82259 20.9965 5.21735 20.9965H12.5995V22.4997H5.21828C3.99316 22.4997 3 21.5066 3 20.2814V3.71828C3 2.49316 3.99316 1.5 5.21828 1.5H14.5052ZM18.6726 7.27696L15.6855 3.96179V7.27696H18.6726Z" fill="#CCCCCC"/>
<path d="M17.5485 22.5V16.0607L19.9315 18.3107L20.9922 17.25L17.3288 13.7197C17.0359 13.4268 16.561 13.4268 16.2681 13.7197L12.7421 17.25L13.8027 18.3107L16.0485 16.0607V22.5H17.5485Z" fill="#CCCCCC"/>
</svg>
