<?xml version="1.0" encoding="UTF-8"?>
<svg width="24px" height="24px" viewBox="0 0 24 24" version="1.1" xmlns="http://www.w3.org/2000/svg" xmlns:xlink="http://www.w3.org/1999/xlink">
    <!-- Generator: Sketch 39.1 (31720) - http://www.bohemiancoding.com/sketch -->
    <title>refresh</title>
    <desc>Created with Sketch.</desc>
    <defs></defs>
    <g id="Page-1" stroke="none" stroke-width="1" fill="none" fill-rule="evenodd">
        <g id="refresh" fill="#000000">
            <path d="M22.87575,0.75 C22.254,0.75 21.74925,1.254 21.74925,1.87425 L21.74925,5.00625 C19.5165,1.8825 15.924,8.8817842e-16 11.99925,8.8817842e-16 C5.38275,8.8817842e-16 0,5.38275 0,11.99925 C0,18.61575 5.38275,24 11.99925,24 C16.87725,24 21.23175,21.0855 23.09475,16.57725 C23.214,16.29 23.20425,15.98175 23.09475,15.71775 C22.98525,15.45075 22.773,15.2265 22.48425,15.10725 C22.19925,14.9895 21.89025,14.99775 21.62475,15.10875 C21.35925,15.21825 21.1335,15.4305 21.01425,15.71775 C19.5015,19.3815 15.96375,21.7485 11.99925,21.7485 C6.62325,21.7485 2.24925,17.3745 2.24925,11.9985 C2.24925,6.6225 6.62325,2.2485 11.99925,2.2485 C15.3645,2.2485 18.42675,3.954 20.21175,6.7485 L16.87425,6.7485 C16.254,6.7485 15.75,7.2525 15.75,7.875 C15.75,8.49525 16.254,8.99925 16.87425,8.99925 L22.87575,8.99925 C23.496,8.99925 24,8.49525 24,7.875 L24,1.8735 C24,1.25325 23.496,0.74925 22.87575,0.74925 L22.87575,0.75 Z" id="Shape"></path>
        </g>
    </g>
</svg>