<?xml version="1.0" encoding="UTF-8"?><svg width="432" height="208" viewBox="0 0 432 208" xmlns="http://www.w3.org/2000/svg" xmlns:xlink="http://www.w3.org/1999/xlink"><svg width="144" height="104" viewBox="-20 -20 144 104" id="logo-163yun-2color" xmlns="http://www.w3.org/2000/svg"><title>logo-163yun-2color</title><g transform="translate(0 18)" fill="none" fill-rule="evenodd"><path d="M26.746 23.31a.534.534 0 0 0 .248-.153 1.71 1.71 0 0 1-1.186-.796c.28.137.575.24.88.305.166.06.046-.2.046-.2-2.249-1.349-2.154-2.068-2.154-2.068a5.26 5.26 0 0 0 1.186.794c-.844-.775-.307-.49-.307-.49a6.436 6.436 0 0 0 6.958.371 4.91 4.91 0 0 0 1.747-6.972 5.41 5.41 0 0 0-5.733-2.305 15.614 15.614 0 0 1-4.957 7.817c-3.973 3.623-4.62 5.943-4.675 6.945-.011-1.171.342-4.004 3.517-7.138h-.193a20.067 20.067 0 0 0-3.283 4.24 4.044 4.044 0 0 1 .965-2.12 2.782 2.782 0 0 0-.579.385c-.061.112-.064-1.43 1.931-3.467a19.142 19.142 0 0 0 4.331-5.401 68.647 68.647 0 0 1-9.496 4.189c.481.308.981.584 1.498.826 0 0 .702.401-.772 0a7.018 7.018 0 0 0 1.738.77s-.749.611-3.862-.963c0 0-.379.048-.193.193.29.294.613.553.965.77a2.29 2.29 0 0 1-1.737-.77.7.7 0 0 0 0 .385 4.384 4.384 0 0 1-.644-.287c-5.502 1.472-8.045.865-8.045.865a28.964 28.964 0 0 0 7.26-1.352 7.323 7.323 0 0 1-.215-.16c-1.166.228-2.418.46-3.194.602a26.81 26.81 0 0 0 2.941-.807 8.665 8.665 0 0 1-2.881-5.471 5.105 5.105 0 0 0-5.454 2.176 4.883 4.883 0 0 0 1.737 6.936 6.396 6.396 0 0 0 6.92-.369s.534-.283-.305.488a5.209 5.209 0 0 0 1.176-.79s.09.715-2.142 2.056c0 0-.118.26.047.2.303-.066.597-.168.875-.304a1.7 1.7 0 0 1-1.176.792.533.533 0 0 0 .246.153s-4.826 2.038-8.063-.783A7.564 7.564 0 0 1 .89 13.06a7.436 7.436 0 0 1 7.807-3.33c0-.28.007-.566.023-.864C9.058 2.532 14.755 0 18.644 0c3.193 0 9.384 1.447 10.038 9.785v.03a7.33 7.33 0 0 1 8 3.318 7.586 7.586 0 0 1-1.833 9.39c-3.216 2.875-8.103.787-8.103.787zM19.034 3.234c-3.542 0-7.292 2.465-7.145 7.13.008.233.027.458.051.68a39.01 39.01 0 0 0 6.128 3.366s-2.782-.893-2.894-.963a7.687 7.687 0 0 0-1.352-.386c.868.458 1.772.845 2.703 1.156a10.962 10.962 0 0 1-4.019-.954 8.217 8.217 0 0 0 2.163 2.985c3.88-1.6 7.666-3.415 11.344-5.435.05-.026.1-.049.15-.074.01-.124.015-.248.015-.372a7.465 7.465 0 0 0-7.144-7.132v-.001zm5.546 17.164l-.156-.157.156.157zm-5.781 6.16c-.002.19.012.38.041.569a1.703 1.703 0 0 1-.041-.568v-.002zM8.787 18.125c-.26.053-.516.101-.762.14l.762-.14zm4.137 2.165l.044-.044-.044.044zm5.557-1.44l.176.039-.176-.04z" fill="#379EF7"/><path d="M103.007 11.868a.404.404 0 0 1-.255.102h-9.476a.344.344 0 0 0-.322.206l-3.77 8.154a.345.345 0 0 0 .02.344c.062.107.178.171.301.168h10.543a.336.336 0 0 0 .292-.147.35.35 0 0 0 .048-.326l-1.574-4.522a.362.362 0 0 1 .338-.473h1.026c.155 0 .29.096.338.069l2.217 6.385a.612.612 0 0 1-.045.497.347.347 0 0 1-.289.152H86.796a.362.362 0 0 1-.301-.165.34.34 0 0 1-.018-.346l4.225-9.486a.367.367 0 0 0-.015-.345.383.383 0 0 0-.308-.165h-5.211a.355.355 0 0 1-.357-.362v-.906a.362.362 0 0 1 .1-.259.354.354 0 0 1 .257-.1h17.58a.362.362 0 0 1 .255.1.354.354 0 0 1 .104.26v.909a.362.362 0 0 1-.1.256zm-1.5-5.782H86.135a.362.362 0 0 1-.362-.361V4.82a.326.326 0 0 1 .104-.255.353.353 0 0 1 .254-.112h15.374c.097 0 .19.04.256.112.07.066.108.16.103.255v.905a.362.362 0 0 1-.355.361zM80.833 23.151h-3.46c.07 0-.017-.037-.09-.107a.318.318 0 0 1-.106-.245v-.89a.34.34 0 0 1 .106-.25.326.326 0 0 1 .252-.101h1.859c.2 0 .361-.162.361-.362v-5.2a.34.34 0 0 0-.105-.25.334.334 0 0 0-.254-.103h-2.321a.333.333 0 0 0-.298.162L72.05 22.26a.348.348 0 0 1-.298.167h-.313a2.815 2.815 0 0 1-1.027-.187.355.355 0 0 1 .011-.367l4.114-5.683a.352.352 0 0 0 .012-.362.337.337 0 0 0-.313-.181h-3.412a.331.331 0 0 0-.295.153l-5.305 6.481a.37.37 0 0 1-.292.15h-.37c-.35-.001-.698-.068-1.024-.198a.354.354 0 0 1 .025-.374l4.612-5.645c.08-.11.09-.255.026-.374a.34.34 0 0 0-.318-.192h-3.462a.362.362 0 0 1-.29-.154.35.35 0 0 1-.046-.329l.658-2.27a.314.314 0 0 1 .18-.204.334.334 0 0 1 .28-.04h.976c.104.017.198.07.267.148a.633.633 0 0 1-.079.366l-.188.563a.732.732 0 0 1-.045.09.352.352 0 0 0 .33.226h14.54a.332.332 0 0 1 .25.108c.1.115.141.272.11.422v8.396a.6.6 0 0 1-.533.181zM77.666 12.21H67.86c-1.376 0-2.26-.543-2.26-1.925V6.098a2.004 2.004 0 0 1 2.26-2.12h9.809c1.38 0 2.442.73 2.442 2.12v4.19c.002 1.386-1.062 1.925-2.442 1.925l-.003-.004zm.842-5.596a1 1 0 0 0-1.198-1.106h-9.089c-.8 0-1.016.313-1.016 1.106v.699h11.304v-.699zm0 2.34h-11.3v.815c0 .796.217.93 1.016.93h9.091c.796 0 1.199-.133 1.199-.93v-.814h-.006zM59.043 23.01h-3.306c.068 0-.016-.04-.09-.115a.336.336 0 0 1-.107-.253v-.821c0-.2.162-.362.361-.362h1.682a.34.34 0 0 0 .255-.098.362.362 0 0 0 .106-.259V6.362c0-.2-.162-.363-.361-.363H44.198a.362.362 0 0 0-.359.36v16.305a.368.368 0 0 1-.362.362h-.904a.362.362 0 0 1-.362-.362V4.735a.335.335 0 0 1 .104-.252.35.35 0 0 1 .254-.108h16.64a.372.372 0 0 1 .362.362v17.906a.338.338 0 0 1-.11.253.493.493 0 0 1-.418.114zM47.1 13.786a.328.328 0 0 0 0-.308l-1.92-5.002a.356.356 0 0 1 .025-.347.346.346 0 0 1 .302-.166h.85a.347.347 0 0 1 .32.208l1.146 2.952a.355.355 0 1 0 .653 0l1.322-2.95a.353.353 0 0 1 .325-.208h1.44c.14 0 .266.081.326.208l1.141 2.95a.355.355 0 0 0 .651 0L55 8.173a.37.37 0 0 1 .329-.208h.841a.352.352 0 0 1 .308.166c.068.108.075.232.021.18l-2.092 4.998a.789.789 0 0 0 0 .48l2.157 5.065a.362.362 0 0 1-.02.349.737.737 0 0 1-.485.167H55.4a.354.354 0 0 1-.324-.207l-1.397-3.256a.355.355 0 0 0-.645 0l-1.494 3.256a.348.348 0 0 1-.32.207h-1.024a.347.347 0 0 1-.321-.207l-1.4-3.256a.34.34 0 0 0-.32-.205.346.346 0 0 0-.327.205l-1.488 3.256a.362.362 0 0 1-.324.207h-.746a.348.348 0 0 1-.306-.167.352.352 0 0 1-.014-.35l2.15-5.067zm2.105 0l1.552 3.577 1.549-3.576a.344.344 0 0 0 .006-.308l-1.488-3.798-1.62 3.798a.362.362 0 0 0 0 .31v-.003z" fill="#FFF"/></g></svg><svg width="144" height="104" viewBox="-20 -20 144 104" id="logo-163yun-white" x="144" xmlns="http://www.w3.org/2000/svg"><title>logo-163yun-white</title><g transform="translate(0 18)" fill="#FFF" fill-rule="evenodd"><path d="M26.746 23.31a.534.534 0 0 0 .248-.153 1.71 1.71 0 0 1-1.186-.796c.28.137.575.24.88.305.166.06.046-.2.046-.2-2.249-1.349-2.154-2.068-2.154-2.068a5.26 5.26 0 0 0 1.186.794c-.844-.775-.307-.49-.307-.49a6.436 6.436 0 0 0 6.958.371 4.91 4.91 0 0 0 1.747-6.972 5.41 5.41 0 0 0-5.733-2.305 15.614 15.614 0 0 1-4.957 7.817c-3.973 3.623-4.62 5.943-4.675 6.945-.011-1.171.342-4.004 3.517-7.138h-.193a20.067 20.067 0 0 0-3.283 4.24 4.044 4.044 0 0 1 .965-2.12 2.782 2.782 0 0 0-.579.385c-.061.112-.064-1.43 1.931-3.467a19.142 19.142 0 0 0 4.331-5.401 68.647 68.647 0 0 1-9.496 4.189c.481.308.981.584 1.498.826 0 0 .702.401-.772 0a7.018 7.018 0 0 0 1.738.77s-.749.611-3.862-.963c0 0-.379.048-.193.193.29.294.613.553.965.77a2.29 2.29 0 0 1-1.737-.77.7.7 0 0 0 0 .385 4.384 4.384 0 0 1-.644-.287c-5.502 1.472-8.045.865-8.045.865a28.964 28.964 0 0 0 7.26-1.352 7.323 7.323 0 0 1-.215-.16c-1.166.228-2.418.46-3.194.602a26.81 26.81 0 0 0 2.941-.807 8.665 8.665 0 0 1-2.881-5.471 5.105 5.105 0 0 0-5.454 2.176 4.883 4.883 0 0 0 1.737 6.936 6.396 6.396 0 0 0 6.92-.369s.534-.283-.305.488a5.209 5.209 0 0 0 1.176-.79s.09.715-2.142 2.056c0 0-.118.26.047.2.303-.066.597-.168.875-.304a1.7 1.7 0 0 1-1.176.792.533.533 0 0 0 .246.153s-4.826 2.038-8.063-.783A7.564 7.564 0 0 1 .89 13.06a7.436 7.436 0 0 1 7.807-3.33c0-.28.007-.566.023-.864C9.058 2.532 14.755 0 18.644 0c3.193 0 9.384 1.447 10.038 9.785v.03a7.33 7.33 0 0 1 8 3.318 7.586 7.586 0 0 1-1.833 9.39c-3.216 2.875-8.103.787-8.103.787zM19.034 3.234c-3.542 0-7.292 2.465-7.145 7.13.008.233.027.458.051.68a39.01 39.01 0 0 0 6.128 3.366s-2.782-.893-2.894-.963a7.687 7.687 0 0 0-1.352-.386c.868.458 1.772.845 2.703 1.156a10.962 10.962 0 0 1-4.019-.954 8.217 8.217 0 0 0 2.163 2.985c3.88-1.6 7.666-3.415 11.344-5.435.05-.026.1-.049.15-.074.01-.124.015-.248.015-.372a7.465 7.465 0 0 0-7.144-7.132v-.001zm5.546 17.164l-.156-.157.156.157zm-5.781 6.16c-.002.19.012.38.041.569a1.703 1.703 0 0 1-.041-.568v-.002zM8.787 18.125c-.26.053-.516.101-.762.14l.762-.14zm4.137 2.165l.044-.044-.044.044zm5.557-1.44l.176.039-.176-.04zM103.007 11.868a.404.404 0 0 1-.255.102h-9.476a.344.344 0 0 0-.322.206l-3.77 8.154a.345.345 0 0 0 .02.344c.062.107.178.171.301.168h10.543a.336.336 0 0 0 .292-.147.35.35 0 0 0 .048-.326l-1.574-4.522a.362.362 0 0 1 .338-.473h1.026c.155 0 .29.096.338.069l2.217 6.385a.612.612 0 0 1-.045.497.347.347 0 0 1-.289.152H86.796a.362.362 0 0 1-.301-.165.34.34 0 0 1-.018-.346l4.225-9.486a.367.367 0 0 0-.015-.345.383.383 0 0 0-.308-.165h-5.211a.355.355 0 0 1-.357-.362v-.906a.362.362 0 0 1 .1-.259.354.354 0 0 1 .257-.1h17.58a.362.362 0 0 1 .255.1.354.354 0 0 1 .104.26v.909a.362.362 0 0 1-.1.256zm-1.5-5.782H86.135a.362.362 0 0 1-.362-.361V4.82a.326.326 0 0 1 .104-.255.353.353 0 0 1 .254-.112h15.374c.097 0 .19.04.256.112.07.066.108.16.103.255v.905a.362.362 0 0 1-.355.361zM80.833 23.151h-3.46c.07 0-.017-.037-.09-.107a.318.318 0 0 1-.106-.245v-.89a.34.34 0 0 1 .106-.25.326.326 0 0 1 .252-.101h1.859c.2 0 .361-.162.361-.362v-5.2a.34.34 0 0 0-.105-.25.334.334 0 0 0-.254-.103h-2.321a.333.333 0 0 0-.298.162L72.05 22.26a.348.348 0 0 1-.298.167h-.313a2.815 2.815 0 0 1-1.027-.187.355.355 0 0 1 .011-.367l4.114-5.683a.352.352 0 0 0 .012-.362.337.337 0 0 0-.313-.181h-3.412a.331.331 0 0 0-.295.153l-5.305 6.481a.37.37 0 0 1-.292.15h-.37c-.35-.001-.698-.068-1.024-.198a.354.354 0 0 1 .025-.374l4.612-5.645c.08-.11.09-.255.026-.374a.34.34 0 0 0-.318-.192h-3.462a.362.362 0 0 1-.29-.154.35.35 0 0 1-.046-.329l.658-2.27a.314.314 0 0 1 .18-.204.334.334 0 0 1 .28-.04h.976c.104.017.198.07.267.148a.633.633 0 0 1-.079.366l-.188.563a.732.732 0 0 1-.045.09.352.352 0 0 0 .33.226h14.54a.332.332 0 0 1 .25.108c.1.115.141.272.11.422v8.396a.6.6 0 0 1-.533.181zM77.666 12.21H67.86c-1.376 0-2.26-.543-2.26-1.925V6.098a2.004 2.004 0 0 1 2.26-2.12h9.809c1.38 0 2.442.73 2.442 2.12v4.19c.002 1.386-1.062 1.925-2.442 1.925l-.003-.004zm.842-5.596a1 1 0 0 0-1.198-1.106h-9.089c-.8 0-1.016.313-1.016 1.106v.699h11.304v-.699zm0 2.34h-11.3v.815c0 .796.217.93 1.016.93h9.091c.796 0 1.199-.133 1.199-.93v-.814h-.006zM59.043 23.01h-3.306c.068 0-.016-.04-.09-.115a.336.336 0 0 1-.107-.253v-.821c0-.2.162-.362.361-.362h1.682a.34.34 0 0 0 .255-.098.362.362 0 0 0 .106-.259V6.362c0-.2-.162-.363-.361-.363H44.198a.362.362 0 0 0-.359.36v16.305a.368.368 0 0 1-.362.362h-.904a.362.362 0 0 1-.362-.362V4.735a.335.335 0 0 1 .104-.252.35.35 0 0 1 .254-.108h16.64a.372.372 0 0 1 .362.362v17.906a.338.338 0 0 1-.11.253.493.493 0 0 1-.418.114zM47.1 13.786a.328.328 0 0 0 0-.308l-1.92-5.002a.356.356 0 0 1 .025-.347.346.346 0 0 1 .302-.166h.85a.347.347 0 0 1 .32.208l1.146 2.952a.355.355 0 1 0 .653 0l1.322-2.95a.353.353 0 0 1 .325-.208h1.44c.14 0 .266.081.326.208l1.141 2.95a.355.355 0 0 0 .651 0L55 8.173a.37.37 0 0 1 .329-.208h.841a.352.352 0 0 1 .308.166c.068.108.075.232.021.18l-2.092 4.998a.789.789 0 0 0 0 .48l2.157 5.065a.362.362 0 0 1-.02.349.737.737 0 0 1-.485.167H55.4a.354.354 0 0 1-.324-.207l-1.397-3.256a.355.355 0 0 0-.645 0l-1.494 3.256a.348.348 0 0 1-.32.207h-1.024a.347.347 0 0 1-.321-.207l-1.4-3.256a.34.34 0 0 0-.32-.205.346.346 0 0 0-.327.205l-1.488 3.256a.362.362 0 0 1-.324.207h-.746a.348.348 0 0 1-.306-.167.352.352 0 0 1-.014-.35l2.15-5.067zm2.105 0l1.552 3.577 1.549-3.576a.344.344 0 0 0 .006-.308l-1.488-3.798-1.62 3.798a.362.362 0 0 0 0 .31v-.003z"/></g></svg><svg width="144" height="104" viewBox="-20 -20 144 104" id="logo-c-2color" y="104" xmlns="http://www.w3.org/2000/svg"><title>logo-colorful</title><g transform="translate(0 15)" fill="none" fill-rule="evenodd"><path d="M16.797 32.302l.006.01a4.428 4.428 0 0 0-2.066 2.615 4.43 4.43 0 0 0-2.044-2.603l.004-.009-11.137-6.53A3.18 3.18 0 0 1 0 23.038V9.416a3.179 3.179 0 0 1 1.56-2.745l4.654-2.475-.813-.455a1.142 1.142 0 0 1-.574-.976c-.007-.407.2-.786.541-.996.342-.209.767-.216 1.115-.019l2.111 1.18.332-.177 4.248-2.26a3.078 3.078 0 0 1 3.121 0l4.203 2.236.377.2 2.11-1.179c.349-.197.774-.19 1.115.02.342.209.548.588.542.995a1.142 1.142 0 0 1-.574.976l-.813.454 4.654 2.476a3.179 3.179 0 0 1 1.56 2.745V23.04a3.18 3.18 0 0 1-1.56 2.745l-11.112 6.518zM2.241 19.334v2.656a2.719 2.719 0 0 0 1.35 2.322l9.824 5.76c.817.48 1.822.48 2.639 0l9.823-5.762a2.718 2.718 0 0 0 1.351-2.322v-2.687c0-.014.004-.027.004-.041a.634.634 0 0 0-.313-.552.608.608 0 0 0-.625.009l-9.997 5.846a3.081 3.081 0 0 1-3.121 0L3.101 18.671l-.004.008a.61.61 0 0 0-.582.06.637.637 0 0 0-.275.526.608.608 0 0 0 .007.069H2.24zM24.979 7.677l-8.925-4.659a2.605 2.605 0 0 0-2.64 0L4.43 7.708l.001.003a.63.63 0 0 0-.33.567.629.629 0 0 0 .348.555l8.969 5.26a2.605 2.605 0 0 0 2.639 0l8.982-5.268-.002-.004a.632.632 0 0 0 .332-.591.63.63 0 0 0-.389-.554v.001zm2.252 3.601a.635.635 0 0 0-.337-.563.61.61 0 0 0-.645.048l-9.954 5.856a3.08 3.08 0 0 1-3.12 0l-9.986-5.854a.608.608 0 0 0-.63-.02.634.634 0 0 0-.32.556c0 .017.003.033.004.05h-.002v3.41h.006v.02c0 .508.296.967.754 1.167l-.002.005c.318.175.586.321.594.327l9.823 5.76a2.605 2.605 0 0 0 2.64 0l9.823-5.76.67-.409-.003-.004a1.27 1.27 0 0 0 .686-1.132v-.024h.012l-.011-3.391h-.004l.002-.043v.001z" fill="#22B2E6"/><path d="M103.177 17.65h-5.619v1.323h5.79c.36 0 .65.297.65.664a.657.657 0 0 1-.65.664h-4.1l4.368 4.45a.67.67 0 0 1 0 .94.642.642 0 0 1-.921 0l-5.137-5.234v4.763a.671.671 0 0 1-.19.47.644.644 0 0 1-.92 0 .671.671 0 0 1-.193-.47v-4.755l-5.127 5.224a.642.642 0 0 1-.633.182.658.658 0 0 1-.465-.474.674.674 0 0 1 .177-.647l4.368-4.45h-4.012a.657.657 0 0 1-.65-.665c0-.366.291-.664.65-.664h5.692V17.65h-5.62a.644.644 0 0 1-.46-.195.672.672 0 0 1-.191-.47V11.72c0-.367.292-.665.652-.664H92.3l-.835-.851a.67.67 0 0 1 0-.94l1.722-1.755a.643.643 0 0 1 .921 0 .671.671 0 0 1 0 .94l-1.015 1.035a.358.358 0 0 0 0 .502l.986 1.005c.015.02.029.042.041.064h2.205l-.835-.85a.67.67 0 0 1 0-.94l1.724-1.756a.643.643 0 0 1 .92 0 .671.671 0 0 1 0 .94L97.12 9.485a.358.358 0 0 0 0 .502l.986 1.005c.015.02.03.042.042.064h2.267l-1.049-1.07a.358.358 0 0 1 0-.501l1.937-1.975a.642.642 0 0 1 .921 0c.255.26.255.68 0 .94l-1.015 1.035a.358.358 0 0 0 0 .502l.987 1.005c.015.02.029.042.041.064h.94c.172 0 .338.07.46.194.122.125.19.294.19.47v5.266a.658.658 0 0 1-.65.664zm-6.922-4.911a.359.359 0 0 0-.103-.252.344.344 0 0 0-.246-.103h-4.27a.352.352 0 0 0-.348.355v.594c0 .196.156.356.348.355h4.27c.093 0 .181-.037.247-.103a.359.359 0 0 0 .102-.252v-.594zm0 2.633a.359.359 0 0 0-.103-.251.344.344 0 0 0-.246-.104h-4.27a.352.352 0 0 0-.348.355v.594c0 .197.156.356.348.356h4.27a.352.352 0 0 0 .349-.356v-.594zm6.27-2.633a.359.359 0 0 0-.102-.252.344.344 0 0 0-.246-.103h-4.27a.345.345 0 0 0-.247.103.36.36 0 0 0-.102.252v.594c0 .197.156.356.349.355h4.27c.092 0 .18-.037.246-.103a.359.359 0 0 0 .102-.252v-.594zm0 2.633a.359.359 0 0 0-.102-.251.344.344 0 0 0-.246-.104h-4.27a.345.345 0 0 0-.247.103.36.36 0 0 0-.102.252v.594c0 .197.156.356.349.356h4.27a.352.352 0 0 0 .348-.356v-.594zM86.469 22.28c.36 0 .65.297.65.664a.657.657 0 0 1-.65.664h-2.886v1.581a.672.672 0 0 1-.19.47.644.644 0 0 1-.461.194.658.658 0 0 1-.652-.664v-1.58h-2.942a.657.657 0 0 1-.65-.664c0-.366.291-.664.65-.664h2.941V20.76h-2.94a.648.648 0 0 1-.576-.328.676.676 0 0 1 0-.673.648.648 0 0 1 .575-.328h2.941v-1.414h-2.94a.648.648 0 0 1-.575-.327.676.676 0 0 1 0-.673.648.648 0 0 1 .574-.328h2.941v-1.033c0-.367.292-.664.652-.663.36 0 .651.296.652.663v1.033h2.885a.648.648 0 0 1 .575.328c.12.208.12.465 0 .673a.648.648 0 0 1-.575.327h-2.885v1.414h2.885a.648.648 0 0 1 .575.328c.12.208.12.465 0 .673a.648.648 0 0 1-.575.328h-2.885v1.522h2.885l.001-.001zm.153-7.773a.67.67 0 0 1-.094 1.147.64.64 0 0 1-.649-.055l-2.578-1.82a.643.643 0 0 0-.743 0l-2.577 1.82a.643.643 0 0 1-.907-.167.673.673 0 0 1 .164-.925l2.132-1.505a.357.357 0 0 0 0-.583l-1.93-1.362a.667.667 0 0 1-.28-.537.668.668 0 0 1 .265-.545l3.118-2.331a.643.643 0 0 1 .771 0l3.118 2.331c.17.127.27.33.266.545a.667.667 0 0 1-.28.537l-1.93 1.362a.357.357 0 0 0 0 .583l2.134 1.505zm-2.097-3.729a.357.357 0 0 0 .008-.578l-1.216-.91a.642.642 0 0 0-.772 0l-1.216.91a.357.357 0 0 0 .008.578l1.223.863a.64.64 0 0 0 .743 0l1.222-.863zM77.517 25.19a.66.66 0 0 1-.651.664h-5.061a.648.648 0 0 1-.575-.328.676.676 0 0 1 0-.672.648.648 0 0 1 .575-.328h1.931a.65.65 0 0 1-.022-.113v-4.37H71.91a.689.689 0 0 1-.493-.208.718.718 0 0 1-.204-.502v-8.938c0-.189.074-.37.204-.503a.69.69 0 0 1 .493-.208h1.803V7.948c0-.176.07-.345.191-.47a.644.644 0 0 1 .921 0 .672.672 0 0 1 .192.47v1.737h1.803a.69.69 0 0 1 .492.208c.13.133.204.314.204.503v8.937c0 .189-.073.37-.204.503a.689.689 0 0 1-.492.208h-1.803v4.37a.624.624 0 0 1-.023.113h1.871a.66.66 0 0 1 .651.663zm-3.803-14.178h-.848a.345.345 0 0 0-.247.104.36.36 0 0 0-.102.252v6.992c0 .197.156.356.349.355h.848v-7.703zm1.304 7.703h.848a.352.352 0 0 0 .349-.355v-6.992a.36.36 0 0 0-.103-.252.345.345 0 0 0-.246-.104h-.848v7.703zm-6.282 6.475a.66.66 0 0 1-.651.664h-2.328a.648.648 0 0 1-.575-.328.676.676 0 0 1 0-.672.648.648 0 0 1 .575-.328h1.676v-6.394a.352.352 0 0 0-.349-.355h-1.007a.651.651 0 0 0-.594.393l-3.547 7.273a.647.647 0 0 1-.86.334.658.658 0 0 1-.343-.37.676.676 0 0 1 .014-.507l3.26-6.621a.361.361 0 0 0-.026-.339.346.346 0 0 0-.292-.162H60.96a.652.652 0 0 0-.595.393l-3.502 7.194a.646.646 0 0 1-.861.336.67.67 0 0 1-.33-.879l3.218-6.543a.362.362 0 0 0-.025-.34.346.346 0 0 0-.294-.162h-2.325a.652.652 0 0 0-.604.415l-.64 1.608a.647.647 0 0 1-.848.367.67.67 0 0 1-.36-.866l.97-2.437c.1-.251.338-.415.603-.415h12.718c.36 0 .65.297.651.664V25.19zm-1.228-10.202H55.69a.69.69 0 0 1-.492-.207.718.718 0 0 1-.205-.503V8.035c0-.188.074-.369.205-.502a.69.69 0 0 1 .492-.208h11.815c.385 0 .697.318.697.71v6.242c0 .189-.073.37-.204.504a.69.69 0 0 1-.493.208h.002zM66.9 9.01a.36.36 0 0 0-.102-.251.345.345 0 0 0-.246-.104h-9.907a.352.352 0 0 0-.348.355v1.128c0 .095.036.185.102.252a.344.344 0 0 0 .246.104h9.905a.345.345 0 0 0 .247-.104.36.36 0 0 0 .102-.252V9.01h.001zm0 3.167a.352.352 0 0 0-.348-.355h-9.907a.345.345 0 0 0-.246.104.36.36 0 0 0-.102.252v1.129c0 .196.156.355.348.355h9.905a.352.352 0 0 0 .349-.355v-1.129h.001zM51.277 25.815a.644.644 0 0 1-.46-.195.671.671 0 0 1-.191-.47V9.274a.672.672 0 0 0-.191-.47.644.644 0 0 0-.461-.194H38.168a.644.644 0 0 0-.46.194.672.672 0 0 0-.192.47V25.15a.659.659 0 0 1-.652.652.659.659 0 0 1-.652-.652V7.945c0-.177.07-.346.192-.47a.645.645 0 0 1 .46-.194h14.412c.173 0 .338.07.46.194a.672.672 0 0 1 .192.47V25.15a.671.671 0 0 1-.191.47.644.644 0 0 1-.461.194h.001zM39.095 12.342a.558.558 0 0 1 .048-.451.537.537 0 0 1 .364-.26.68.68 0 0 1 .824.356l1.002 2.587c.026.05.077.082.133.082a.148.148 0 0 0 .132-.084l.947-2.578a.676.676 0 0 1 .818-.366.54.54 0 0 1 .368.255.56.56 0 0 1 .056.45l-1.605 4.365a.104.104 0 0 0 0 .075l1.767 4.568c.176.455-.36.966-1.086.636a.13.13 0 0 1-.068-.07l-1.16-3a.148.148 0 0 0-.133-.083.148.148 0 0 0-.133.083l-1.021 2.78a.677.677 0 0 1-.818.366.539.539 0 0 1-.369-.254.56.56 0 0 1-.055-.451l1.678-4.568a.107.107 0 0 0 0-.074l-1.689-4.364zm5.334 0a.557.557 0 0 1 .047-.451.536.536 0 0 1 .365-.26.68.68 0 0 1 .824.356l1 2.587c.026.05.077.082.133.082a.149.149 0 0 0 .132-.084l.947-2.578a.677.677 0 0 1 .818-.366c.153.027.288.12.369.255a.56.56 0 0 1 .056.45l-1.606 4.365a.106.106 0 0 0 0 .075l1.768 4.568c.175.455-.36.966-1.086.636a.131.131 0 0 1-.069-.07l-1.16-3a.148.148 0 0 0-.132-.083.148.148 0 0 0-.133.083l-1.022 2.78a.676.676 0 0 1-.817.366.54.54 0 0 1-.37-.254.56.56 0 0 1-.055-.451l1.679-4.568a.103.103 0 0 0 0-.074l-1.688-4.364z" fill="#FFF"/></g></svg><svg width="144" height="104" viewBox="-20 -20 144 104" id="logo-c-white" x="144" y="104" xmlns="http://www.w3.org/2000/svg"><title>logo-white</title><g transform="translate(0 15)" fill="#FFF" fill-rule="evenodd"><path d="M16.797 31.643l.006.01a4.355 4.355 0 0 0-2.066 2.561 4.355 4.355 0 0 0-2.044-2.55l.004-.008L1.56 25.258A3.103 3.103 0 0 1 0 22.568V9.225a3.102 3.102 0 0 1 1.56-2.689L6.214 4.11l-.813-.445a1.115 1.115 0 1 1 1.082-1.95L8.594 2.87l.332-.173L13.174.483a3.134 3.134 0 0 1 3.121 0l4.203 2.19.377.197 2.11-1.156a1.115 1.115 0 1 1 1.083 1.95l-.813.446 4.654 2.425a3.102 3.102 0 0 1 1.56 2.689v13.345a3.103 3.103 0 0 1-1.56 2.689l-11.112 6.385zM2.241 18.94v2.601c.013.945.527 1.811 1.35 2.275l9.824 5.643c.817.47 1.822.47 2.639 0l9.823-5.645a2.653 2.653 0 0 0 1.351-2.274v-2.633c0-.013.004-.026.004-.04a.619.619 0 0 0-.938-.532l-9.997 5.727a3.137 3.137 0 0 1-3.121 0L3.101 18.29l-.004.008a.62.62 0 0 0-.857.574.584.584 0 0 0 .007.067H2.24zM24.979 7.52l-8.925-4.563a2.652 2.652 0 0 0-2.64 0L4.43 7.55l.001.002a.615.615 0 0 0 .018 1.1l8.969 5.152a2.652 2.652 0 0 0 2.639 0l8.982-5.16-.002-.004a.617.617 0 0 0-.057-1.122v.001zm2.252 3.528a.62.62 0 0 0-.982-.505l-9.954 5.737a3.135 3.135 0 0 1-3.12 0l-9.986-5.735a.62.62 0 0 0-.95.525c0 .017.003.033.004.05h-.002v3.34h.006v.02c0 .497.296.947.754 1.142l-.002.006c.318.171.586.314.594.32l9.823 5.643a2.652 2.652 0 0 0 2.64 0l9.823-5.644c.009-.005.328-.194.67-.4l-.003-.004c.42-.21.686-.64.686-1.109v-.023h.012l-.011-3.322h-.004l.002-.042v.001zM103.177 17.29h-5.619v1.296h5.79a.65.65 0 0 1 0 1.3h-4.1l4.368 4.36a.65.65 0 0 1 0 .92.652.652 0 0 1-.921 0l-5.137-5.127v4.667a.65.65 0 0 1-.651.65.65.65 0 0 1-.652-.65v-4.659l-5.127 5.118a.651.651 0 1 1-.921-.92l4.368-4.36h-4.012a.65.65 0 1 1 0-1.3h5.692v-1.296h-5.62a.651.651 0 0 1-.651-.65V11.48c0-.36.292-.651.652-.651H92.3l-.835-.833a.65.65 0 0 1 0-.92l1.722-1.72a.65.65 0 1 1 .921.92l-1.015 1.014a.347.347 0 0 0 0 .492l.986.985a.64.64 0 0 1 .041.062h2.205l-.835-.833a.65.65 0 0 1 0-.92l1.724-1.72a.65.65 0 1 1 .921.92L97.12 9.291a.347.347 0 0 0 0 .492l.986.985c.015.02.03.04.042.062h2.267l-1.049-1.047a.347.347 0 0 1 0-.492l1.937-1.934a.651.651 0 1 1 .922.92l-1.016 1.014a.347.347 0 0 0 0 .492l.987.984c.015.02.029.041.041.063h.94a.651.651 0 0 1 .65.651v5.158a.65.65 0 0 1-.65.65zm-6.922-4.811a.348.348 0 0 0-.349-.348h-4.27a.348.348 0 0 0-.348.348v.582c0 .192.156.348.348.348h4.27a.348.348 0 0 0 .349-.348v-.582zm0 2.579a.348.348 0 0 0-.349-.348h-4.27a.348.348 0 0 0-.348.348v.583c0 .192.156.347.348.348h4.27a.348.348 0 0 0 .349-.348v-.583zm6.27-2.58a.348.348 0 0 0-.348-.347h-4.27a.348.348 0 0 0-.349.348v.582c0 .193.156.348.349.348h4.27a.348.348 0 0 0 .348-.348v-.582zm0 2.58a.348.348 0 0 0-.348-.348h-4.27a.348.348 0 0 0-.349.348v.583c0 .192.156.348.349.348h4.27a.348.348 0 0 0 .348-.348v-.583zm-16.056 6.768a.65.65 0 0 1 0 1.301h-2.886v1.549a.651.651 0 0 1-.651.65.651.651 0 0 1-.652-.65v-1.547h-2.942a.65.65 0 1 1 0-1.302h2.941v-1.491h-2.94a.65.65 0 1 1 0-1.301h2.94V17.65h-2.94a.65.65 0 1 1 0-1.301h2.94v-1.012a.651.651 0 1 1 1.303 0v1.012h2.886a.65.65 0 1 1 0 1.3h-2.885v1.386h2.885a.65.65 0 1 1 0 1.301h-2.885v1.491h2.885l.001-.001zm.153-7.614a.651.651 0 1 1-.743 1.07l-2.578-1.783a.654.654 0 0 0-.743 0l-2.577 1.782a.651.651 0 0 1-.743-1.069l2.132-1.474a.348.348 0 0 0 0-.571l-1.93-1.335a.65.65 0 0 1-.015-1.06l3.118-2.283a.654.654 0 0 1 .771 0l3.118 2.284a.65.65 0 0 1-.014 1.059l-1.93 1.335a.348.348 0 0 0 0 .571l2.134 1.474zm-2.097-3.653a.347.347 0 0 0 .008-.566l-1.216-.891a.653.653 0 0 0-.772 0l-1.216.89a.347.347 0 0 0 .008.567l1.223.845a.65.65 0 0 0 .743 0l1.222-.845zm-7.008 14.117a.653.653 0 0 1-.651.65h-5.061a.65.65 0 1 1 0-1.3h1.931a.625.625 0 0 1-.022-.111v-4.281H71.91a.696.696 0 0 1-.697-.696v-8.755a.696.696 0 0 1 .697-.696h1.803V7.786a.651.651 0 0 1 .652-.65.651.651 0 0 1 .652.65v1.701h1.803a.696.696 0 0 1 .696.696v8.756a.696.696 0 0 1-.696.696h-1.803v4.28a.6.6 0 0 1-.023.112h1.871c.359 0 .65.29.651.649zm-3.803-13.888h-.848a.348.348 0 0 0-.349.348v6.85c0 .192.156.348.349.347h.848v-7.545zm1.304 7.545h.848a.349.349 0 0 0 .349-.348v-6.85a.348.348 0 0 0-.349-.347h-.848v7.545zm-6.282 6.343a.653.653 0 0 1-.651.65h-2.328a.65.65 0 1 1 0-1.3h1.676v-6.264a.349.349 0 0 0-.349-.348h-1.007c-.256 0-.489.15-.594.385l-3.547 7.125a.652.652 0 0 1-.86.327.65.65 0 0 1-.329-.86l3.26-6.485a.348.348 0 0 0-.318-.49H60.96c-.257 0-.49.15-.595.385l-3.502 7.046a.652.652 0 0 1-1.19-.532l3.217-6.41a.348.348 0 0 0-.319-.49h-2.325a.652.652 0 0 0-.604.406l-.64 1.575a.652.652 0 0 1-1.207-.489l.968-2.388a.652.652 0 0 1 .604-.406h12.718c.36 0 .65.29.651.65v7.913zm-1.228-9.993H55.69a.696.696 0 0 1-.697-.696V7.87a.697.697 0 0 1 .697-.696h11.815c.385 0 .697.312.697.696v6.115a.696.696 0 0 1-.697.697h.002zM66.9 8.825a.349.349 0 0 0-.348-.348h-9.907a.348.348 0 0 0-.348.348v1.106a.348.348 0 0 0 .348.348h9.905a.348.348 0 0 0 .349-.348V8.825h.001zm0 3.103a.349.349 0 0 0-.348-.348h-9.907a.349.349 0 0 0-.348.349v1.105c0 .192.156.348.348.348h9.905a.349.349 0 0 0 .349-.348V11.93l.001-.001zm-15.624 13.36a.65.65 0 0 1-.651-.65V9.082a.651.651 0 0 0-.652-.65H38.168a.651.651 0 0 0-.652.65v15.555a.652.652 0 0 1-1.304 0V7.783a.651.651 0 0 1 .653-.651h14.411a.651.651 0 0 1 .652.65v16.856a.65.65 0 0 1-.652.65h.001zM39.095 12.09a.537.537 0 0 1 .412-.696.686.686 0 0 1 .824.348l1.002 2.534a.149.149 0 0 0 .265-.001l.947-2.526a.681.681 0 0 1 .818-.358.54.54 0 0 1 .424.691l-1.605 4.275a.1.1 0 0 0 0 .074l1.767 4.474c.176.446-.36.947-1.086.623a.13.13 0 0 1-.068-.069l-1.16-2.938a.149.149 0 0 0-.266 0l-1.021 2.723a.681.681 0 0 1-.818.36.54.54 0 0 1-.424-.692l1.678-4.474a.103.103 0 0 0 0-.073l-1.689-4.275zm5.334 0a.536.536 0 0 1 .412-.696.686.686 0 0 1 .824.348l1 2.534a.149.149 0 0 0 .265-.001l.947-2.526a.681.681 0 0 1 .818-.358.54.54 0 0 1 .425.691l-1.606 4.275a.102.102 0 0 0 0 .074l1.768 4.474c.175.446-.36.947-1.086.623a.13.13 0 0 1-.069-.069l-1.16-2.938a.149.149 0 0 0-.265 0l-1.022 2.723a.681.681 0 0 1-.817.36.54.54 0 0 1-.425-.692l1.679-4.474a.1.1 0 0 0 0-.073l-1.688-4.275z"/></g></svg><svg width="144" height="104" viewBox="-20 -20 144 104" id="logo-yiwu-2color" x="288" xmlns="http://www.w3.org/2000/svg"><title>logo-yiwu-2color</title><g transform="translate(0 18)" fill="none" fill-rule="evenodd"><path d="M29.864 27.131h-4.617a22.055 22.055 0 0 0 2.389-2.327h2.23a6.075 6.075 0 0 0 6.048-6.101 6.186 6.186 0 0 0-3.663-5.618V11.96a7.843 7.843 0 0 0-.08-1.365 8.748 8.748 0 0 1 6.132 8.027 8.478 8.478 0 0 1-8.439 8.508zm-6.37.08H10.037A9.827 9.827 0 0 1 .243 17.34a10.023 10.023 0 0 1 7.803-9.712A11.993 11.993 0 0 1 17.204.16c.66-.093 1.325-.147 1.992-.161a11.886 11.886 0 0 1 8.44 3.532 12.077 12.077 0 0 1 3.504 8.508v.722a18.462 18.462 0 0 1-7.327 14.21l-.32.24zM7.25 10.356a7.431 7.431 0 0 0-4.777 6.984 7.506 7.506 0 0 0 7.484 7.545h6.848a13.563 13.563 0 0 0 2.31-2.489c.454-.605.854-1.25 1.194-1.926a10.41 10.41 0 0 1-3.504.642 9.638 9.638 0 0 1-9.634-9.632 5.372 5.372 0 0 1 .079-1.124zm21.659 2.09v-.321a9.776 9.776 0 0 0-9.713-9.715 10.085 10.085 0 0 0-1.592.08A9.764 9.764 0 0 0 10.12 8.83c-.08.243-.16.562-.24.803a6.747 6.747 0 0 0-.238 1.766 7.302 7.302 0 0 0 7.246 7.304c.4.013.8-.014 1.194-.08a9.339 9.339 0 0 0 4.539-2.007 8.293 8.293 0 0 0 1.91-2.167c.014.35-.013.7-.079 1.044a18.22 18.22 0 0 1-3.344 8.187c-.08.08-.08.16-.16.243l-.079.08-.16.161c-.158.24-.397.482-.556.722H22.7a16.523 16.523 0 0 0 6.21-12.198v-.243h-.002zm-4.062-2.89a1.284 1.284 0 1 1-1.274 1.284 1.28 1.28 0 0 1 1.274-1.286v.002z" fill="#1C9AF9"/><path d="M93.167 13.085l-3.743 10.113h9.794a1.228 1.228 0 0 0 1.036-1.603L98.979 17.9h1.513l1.195 3.532a2.43 2.43 0 0 1-2.23 3.371H87.035l4.38-11.639h-6.29V11.64h18.632v1.525l-10.59-.08zm-6.37-7.545h15.367v1.526H86.796V5.54zm-7.008 19.828h-1.75v-1.525h1.75a1.332 1.332 0 0 0 1.354-1.284V9.553a.688.688 0 0 0-.478-.562h-1.353a85.675 85.675 0 0 1-2.867 16.214l-1.433-.401A81.714 81.714 0 0 0 77.798 9.07H75.49a81.685 81.685 0 0 1-3.344 16.214l-1.354-.401a84.535 84.535 0 0 0 3.186-15.732h-3.024l1.513-3.934 1.513.562-.716 1.847h7.325a2.084 2.084 0 0 1 2.07 2.167v12.762a2.85 2.85 0 0 1-2.869 2.81v.002zm-9.237-8.83l.637 1.366-2.946 1.284v6.26h-1.512v-5.62l-3.425 1.525-.637-1.365 4.062-1.766v-5.136h-3.584l.875-5.138 1.433.321-.558 3.292h1.832V5.138h1.513v6.422h2.309v1.525h-2.309v4.494l2.31-1.04zM57.494 25.53h-1.75v-1.525h1.75a1.332 1.332 0 0 0 1.353-1.284v-4.9a.547.547 0 0 0-.557-.563h-4.38c-.318 3.532-1.592 5.86-4.3 8.107l-.955-1.203c2.31-1.927 3.424-3.853 3.742-6.904h-4.22c-.319 3.532-1.593 5.86-4.3 8.107l-.955-1.203c2.309-1.927 3.424-3.853 3.742-6.904h-4.857l1.115-2.97 1.433.562-.319.883h14.175c1.128.01 2.06.88 2.148 2.005v4.977a2.85 2.85 0 0 1-2.865 2.81v.005zm-.877-11.803H43.48v-8.67h15.209v6.663a2.047 2.047 0 0 1-2.072 2.007zm.557-7.144h-12.18v2.086h12.182V6.583h-.002zm0 3.611h-12.18v2.007h11.623a.546.546 0 0 0 .557-.562v-1.445z" fill="#FFF"/></g></svg><svg width="144" height="104" viewBox="-20 -20 144 104" id="logo-yiwu-white" x="288" y="104" xmlns="http://www.w3.org/2000/svg"><title>logo-yiwu-white</title><path d="M93.36 31.146L89.6 41.307h9.84a1.233 1.233 0 0 0 1.04-1.611l-1.28-3.71h1.52l1.2 3.547a2.441 2.441 0 0 1-2.24 3.387H87.2l4.4-11.693h-6.32v-1.532H104v1.532l-10.64-.081zm-6.4-7.58h15.44V25.1H86.96v-1.533zm-7.04 19.921h-1.758v-1.532h1.757a1.338 1.338 0 0 0 1.36-1.29V27.598a.691.691 0 0 0-.48-.565H79.44a86.077 86.077 0 0 1-2.88 16.29l-1.44-.403a82.097 82.097 0 0 0 2.8-15.806H75.6a82.069 82.069 0 0 1-3.36 16.29L70.88 43a84.932 84.932 0 0 0 3.2-15.807h-3.038l1.52-3.951 1.52.564-.72 1.856h7.36a2.094 2.094 0 0 1 2.08 2.177v12.822a2.863 2.863 0 0 1-2.882 2.822v.003zm-9.28-8.87l.64 1.37-2.96 1.29v6.29H66.8v-5.646l-3.44 1.532-.64-1.37 4.08-1.775v-5.161h-3.6l.878-5.161 1.44.322-.56 3.307h1.84v-6.453h1.52v6.452h2.32v1.532h-2.32v4.516l2.321-1.045zm-13.12 9.032h-1.758v-1.532h1.757a1.338 1.338 0 0 0 1.36-1.29v-4.923a.55.55 0 0 0-.56-.565h-4.4c-.32 3.549-1.6 5.887-4.32 8.145l-.96-1.209c2.32-1.936 3.44-3.871 3.76-6.933h-4.24c-.32 3.548-1.6 5.887-4.32 8.145l-.96-1.21c2.32-1.935 3.44-3.87 3.76-6.933h-4.88l1.12-2.984 1.44.565-.32.887H58.24a2.184 2.184 0 0 1 2.158 2.01v5a2.863 2.863 0 0 1-2.878 2.824v.003zm-.882-11.858H43.44v-8.71h15.28v6.694a2.057 2.057 0 0 1-2.082 2.016zm.56-7.177H44.96v2.096H57.2v-2.096h-.001zm0 3.628H44.96v2.016h11.678a.549.549 0 0 0 .56-.564v-1.452zm-27.44 17.016H25.12c.857-.718 1.66-1.5 2.4-2.339h2.24a6.103 6.103 0 0 0 6.078-6.128 6.215 6.215 0 0 0-3.68-5.645v-1.129a7.88 7.88 0 0 0-.08-1.37 8.789 8.789 0 0 1 6.16 8.063 8.518 8.518 0 0 1-8.478 8.549h-.002zm-6.4.08H9.838A9.873 9.873 0 0 1 0 35.42a10.07 10.07 0 0 1 7.84-9.758 12.049 12.049 0 0 1 9.2-7.5A16.733 16.733 0 0 1 19.042 18a11.941 11.941 0 0 1 8.48 3.548 12.134 12.134 0 0 1 3.52 8.549v.725A18.549 18.549 0 0 1 23.681 45.1l-.323.24zM7.038 28.404a7.466 7.466 0 0 0-4.8 7.017A7.541 7.541 0 0 0 9.758 43h6.882a13.626 13.626 0 0 0 2.32-2.5c.457-.608.859-1.256 1.2-1.935a10.46 10.46 0 0 1-3.52.645 9.684 9.684 0 0 1-9.68-9.677 5.397 5.397 0 0 1 .08-1.13h-.002zm21.76 2.1v-.323a9.821 9.821 0 0 0-9.756-9.76c-.534-.015-1.07.012-1.6.08a9.81 9.81 0 0 0-7.519 6.372c-.08.244-.16.564-.24.806a6.779 6.779 0 0 0-.24 1.774 7.336 7.336 0 0 0 7.28 7.339c.402.013.804-.014 1.2-.08a9.382 9.382 0 0 0 4.56-2.017 8.332 8.332 0 0 0 1.92-2.177c.013.351-.014.703-.08 1.048a18.306 18.306 0 0 1-3.36 8.226c-.08.08-.08.161-.16.244l-.08.08-.16.162c-.16.245-.4.484-.56.726h2.56a16.6 16.6 0 0 0 6.24-12.255v-.245h-.005zm-4.08-2.903a1.29 1.29 0 1 1-1.28 1.29 1.285 1.285 0 0 1 1.282-1.292l-.002.002z" fill="#FFF" fill-rule="evenodd"/></svg></svg>