<svg width="202" height="14" viewBox="0 0 202 14" fill="none" xmlns="http://www.w3.org/2000/svg">
<rect x="0.864145" y="0.343393" width="44.2345" height="13.3133" rx="1.50312" fill="white" stroke="#E5E5E5" stroke-width="0.429461"/>
<path d="M38.442 7.85913L40.1598 6.14128L36.7241 6.14128L38.442 7.85913Z" fill="#999999"/>
<path d="M7.36597 5.01365H11.3041V4.59879H7.60046C7.67261 4.45449 7.74476 4.29816 7.81691 4.14184L7.378 4.03963C7.04731 4.7972 6.62644 5.40446 6.10937 5.87343L6.38594 6.21013C6.75872 5.87343 7.08339 5.47059 7.36597 5.01365ZM8.33398 7.42464L8.13557 7.70723C8.54442 7.85153 8.94725 8.04994 9.34407 8.30246L9.5485 7.98982C9.18174 7.76735 8.7789 7.58097 8.33398 7.42464ZM6.8008 8.73536H10.3121C10.3001 8.81954 10.294 8.87966 10.282 8.90371C10.2279 9.03598 10.1437 9.12617 10.0355 9.16826C9.92728 9.19832 9.80102 9.21636 9.65672 9.21636C9.42825 9.21636 9.16971 9.20433 8.88111 9.19231L9.01339 9.59514C9.27794 9.59514 9.51844 9.58913 9.72286 9.58913C10.0115 9.58913 10.2339 9.54704 10.3782 9.46287C10.5345 9.36667 10.6368 9.22838 10.6909 9.042C10.7029 8.9939 10.7209 8.89168 10.733 8.73536H11.4244V8.33253H10.763C10.775 8.06798 10.7931 7.72527 10.8111 7.30439H11.5867V6.89555H10.8292L10.8712 5.51268H7.1375C7.12548 5.97564 7.10143 6.4386 7.05934 6.89555H6.04323V7.30439H7.01725C6.96314 7.78539 6.89099 8.26639 6.8008 8.73536ZM10.3482 8.33253H7.29984C7.35996 8.01988 7.40806 7.67717 7.45015 7.30439H10.3963C10.3782 7.72527 10.3602 8.06798 10.3482 8.33253ZM7.49224 6.89555C7.51629 6.58891 7.53432 6.26424 7.54635 5.91552H10.4383C10.4263 6.27025 10.4203 6.59492 10.4083 6.89555H9.38616L9.58457 6.59492C9.22382 6.37246 8.82099 6.18608 8.38208 6.02975L8.18367 6.31835C8.58049 6.46265 8.97731 6.65505 9.36211 6.89555H7.49224ZM16.6793 5.39844H14.9116C14.9717 5.19402 15.0138 4.97156 15.0499 4.74309H17.4669V4.33424H12.1759V4.74309H14.593C14.5629 4.97156 14.5208 5.18801 14.4607 5.39844H12.9395V8.25436H13.3724V5.81932H16.2464V8.24234H16.6793V5.39844ZM15.2182 8.25436L14.9777 8.6091C15.6932 8.8496 16.3907 9.1863 17.0761 9.61318L17.3406 9.20433C16.7033 8.83156 15.9939 8.51891 15.2182 8.25436ZM14.599 6.18006V7.13605C14.5809 7.66514 14.4126 8.09203 14.0879 8.42271C13.7452 8.74137 13.1379 8.9939 12.2661 9.1863L12.5126 9.57109C13.3905 9.36667 14.0218 9.08408 14.4066 8.71732C14.8034 8.3205 15.0198 7.79742 15.0439 7.13605V6.18006H14.599ZM19.2105 4.701C19.0662 4.86334 18.8979 5.00763 18.6935 5.13991C18.489 5.26016 18.2846 5.34433 18.0922 5.39844V5.89147C18.495 5.77122 18.8317 5.57882 19.1023 5.30225V8.9939H19.5953V4.701H19.2105ZM22.0446 4.61682C21.5275 4.61682 21.1427 4.83929 20.8842 5.29623C20.6557 5.68103 20.5415 6.1981 20.5415 6.84745C20.5415 7.49679 20.6557 8.01387 20.8842 8.39866C21.1427 8.8496 21.5275 9.07807 22.0446 9.07807C22.5557 9.07807 22.9405 8.8496 23.205 8.39866C23.4335 8.01387 23.5477 7.49679 23.5477 6.84745C23.5477 6.1981 23.4335 5.68103 23.205 5.29623C22.9405 4.83929 22.5557 4.61682 22.0446 4.61682ZM22.0446 5.0377C22.4294 5.0377 22.706 5.24212 22.8743 5.65698C22.9946 5.94558 23.0607 6.3424 23.0607 6.84745C23.0607 7.34648 22.9946 7.7433 22.8743 8.03792C22.706 8.44676 22.4294 8.6572 22.0446 8.6572C21.6598 8.6572 21.3832 8.44676 21.2149 8.03792C21.0946 7.7433 21.0345 7.34648 21.0345 6.84745C21.0345 6.3424 21.0946 5.94558 21.2149 5.65698C21.3832 5.24212 21.6598 5.0377 22.0446 5.0377ZM24.5975 7.28035V7.6952H26.6478V8.92175C26.6478 9.10212 26.5576 9.19231 26.3832 9.19231C26.1908 9.19231 25.9804 9.18028 25.764 9.16225L25.8602 9.57711H26.5336C26.9063 9.57711 27.0927 9.39072 27.0927 9.02997V7.6952H29.0889V7.28035H27.0927V6.69112H26.6478V7.28035H24.5975ZM25.5896 8.06798C25.2289 8.45879 24.7779 8.79549 24.2428 9.08408L24.5194 9.45084C25.0605 9.13218 25.5175 8.75941 25.8902 8.33253L25.5896 8.06798ZM29.0468 9.43882L29.3594 9.12016C28.8363 8.63916 28.3794 8.27841 27.9946 8.03792L27.712 8.30246C28.1629 8.62714 28.6079 9.00592 29.0468 9.43882ZM26.0465 4.01558C25.6317 4.6529 25.1086 5.17598 24.4713 5.57281L24.7479 5.90349C25.0244 5.72312 25.289 5.51268 25.5355 5.2782C25.794 5.53673 26.0946 5.77122 26.4434 5.98165C25.782 6.28228 25.0064 6.49271 24.1165 6.61897L24.3029 7.00978C25.289 6.84745 26.1367 6.5829 26.8582 6.21013C27.5557 6.55284 28.3974 6.79935 29.3955 6.94365L29.5939 6.54081C28.7041 6.42658 27.9345 6.23418 27.2851 5.96362C27.7721 5.65698 28.187 5.29623 28.5297 4.87536V4.53866H26.1848C26.281 4.40639 26.3712 4.26209 26.4674 4.11178L26.0465 4.01558ZM25.8 5.01365L25.8782 4.92346H27.9886C27.6699 5.24212 27.2971 5.52471 26.8642 5.77122C26.4434 5.55477 26.0886 5.30225 25.8 5.01365Z" fill="#333333"/>
<path d="M60.0562 8.83454L58.2156 6.99399L60.0562 5.15344L59.7494 4.84668L57.6021 6.99399L59.7494 9.14129L60.0562 8.83454Z" fill="#CCCCCC"/>
<path d="M53.9024 0.558124H64.2095V-0.300799H53.9024V0.558124ZM65.4979 1.84651V12.1536H66.3568V1.84651H65.4979ZM64.2095 13.442H53.9024V14.3009H64.2095V13.442ZM52.614 12.1536V1.84651H51.7551V12.1536H52.614ZM53.9024 13.442C53.1909 13.442 52.614 12.8651 52.614 12.1536H51.7551C51.7551 13.3395 52.7165 14.3009 53.9024 14.3009V13.442ZM65.4979 12.1536C65.4979 12.8651 64.921 13.442 64.2095 13.442V14.3009C65.3954 14.3009 66.3568 13.3395 66.3568 12.1536H65.4979ZM64.2095 0.558124C64.921 0.558124 65.4979 1.13495 65.4979 1.84651H66.3568C66.3568 0.660583 65.3954 -0.300799 64.2095 -0.300799V0.558124ZM53.9024 -0.300799C52.7165 -0.300799 51.7551 0.660583 51.7551 1.84651H52.614C52.614 1.13495 53.1909 0.558124 53.9024 0.558124V-0.300799Z" fill="#E5E5E5"/>
<path d="M69.3628 1.84651C69.3628 0.897768 70.1319 0.128662 71.0806 0.128662H81.3877C82.3365 0.128662 83.1056 0.897768 83.1056 1.84651V12.1536C83.1056 13.1023 82.3365 13.8714 81.3877 13.8714H71.0806C70.1319 13.8714 69.3628 13.1023 69.3628 12.1536V1.84651Z" fill="#337EFF"/>
<path d="M76.1172 4.2071C75.9729 4.36944 75.8046 4.51374 75.6002 4.64601C75.3957 4.76626 75.1913 4.85044 74.9989 4.90455V5.39757C75.4018 5.27732 75.7385 5.08492 76.009 4.80835V8.5H76.502V4.2071H76.1172Z" fill="white"/>
<path d="M93.2769 4.12293C92.8441 4.12293 92.4893 4.26723 92.2248 4.55583C91.9602 4.83841 91.8219 5.22321 91.8219 5.70421H92.315C92.321 5.32542 92.4112 5.03682 92.5795 4.84442C92.7358 4.64 92.9643 4.5438 93.2589 4.5438C93.5355 4.5438 93.7579 4.61595 93.9143 4.76025C94.0706 4.90455 94.1488 5.10296 94.1488 5.36751C94.1488 5.64408 94.0345 5.90262 93.8181 6.1371C93.7038 6.25735 93.4814 6.43171 93.1447 6.67221C92.6877 6.98486 92.3811 7.2434 92.2127 7.43579C91.9241 7.75445 91.7859 8.10919 91.7859 8.5H94.6478V8.06109H92.3931C92.4713 7.77249 92.7839 7.44181 93.3311 7.07505C93.776 6.77442 94.0706 6.53994 94.2209 6.38361C94.4975 6.08299 94.6418 5.74629 94.6418 5.37352C94.6418 5.00075 94.5095 4.69411 94.257 4.46564C93.9984 4.23717 93.6738 4.12293 93.2769 4.12293Z" fill="#333333"/>
<path d="M88.2593 0.558124H98.5664V-0.300799H88.2593V0.558124ZM99.8548 1.84651V12.1536H100.714V1.84651H99.8548ZM98.5664 13.442H88.2593V14.3009H98.5664V13.442ZM86.971 12.1536V1.84651H86.112V12.1536H86.971ZM88.2593 13.442C87.5478 13.442 86.971 12.8651 86.971 12.1536H86.112C86.112 13.3395 87.0734 14.3009 88.2593 14.3009V13.442ZM99.8548 12.1536C99.8548 12.8651 99.278 13.442 98.5664 13.442V14.3009C99.7524 14.3009 100.714 13.3395 100.714 12.1536H99.8548ZM98.5664 0.558124C99.278 0.558124 99.8548 1.13495 99.8548 1.84651H100.714C100.714 0.660583 99.7524 -0.300799 98.5664 -0.300799V0.558124ZM88.2593 -0.300799C87.0734 -0.300799 86.112 0.660583 86.112 1.84651H86.971C86.971 1.13495 87.5478 0.558124 88.2593 0.558124V-0.300799Z" fill="#E5E5E5"/>
<path d="M108.583 6.64233C108.481 6.64233 108.397 6.6724 108.33 6.74455C108.258 6.81068 108.222 6.89486 108.222 6.99707C108.222 7.09928 108.258 7.18346 108.33 7.25561C108.397 7.32174 108.481 7.35782 108.583 7.35782C108.685 7.35782 108.775 7.32174 108.847 7.25561C108.914 7.18947 108.95 7.10529 108.95 6.99707C108.95 6.89486 108.914 6.81068 108.847 6.74455C108.775 6.6724 108.691 6.64233 108.583 6.64233ZM110.591 6.64233C110.489 6.64233 110.405 6.6724 110.333 6.74455C110.26 6.81068 110.23 6.89486 110.23 6.99707C110.23 7.09928 110.26 7.18346 110.333 7.25561C110.405 7.32174 110.489 7.35782 110.591 7.35782C110.693 7.35782 110.783 7.32174 110.856 7.25561C110.922 7.18947 110.958 7.10529 110.958 6.99707C110.958 6.89486 110.922 6.81068 110.856 6.74455C110.783 6.6724 110.693 6.64233 110.591 6.64233ZM112.593 6.64233C112.491 6.64233 112.407 6.6724 112.335 6.74455C112.263 6.81068 112.232 6.89486 112.232 6.99707C112.232 7.09928 112.263 7.18346 112.335 7.25561C112.407 7.32174 112.491 7.35782 112.593 7.35782C112.695 7.35782 112.78 7.32174 112.852 7.25561C112.924 7.18947 112.96 7.10529 112.96 6.99707C112.96 6.89486 112.924 6.81068 112.852 6.74455C112.78 6.6724 112.695 6.64233 112.593 6.64233Z" fill="#333333"/>
<path d="M105.438 0.558124H115.745V-0.300799H105.438V0.558124ZM117.033 1.84651V12.1536H117.892V1.84651H117.033ZM115.745 13.442H105.438V14.3009H115.745V13.442ZM104.149 12.1536V1.84651H103.29V12.1536H104.149ZM105.438 13.442C104.726 13.442 104.149 12.8651 104.149 12.1536H103.29C103.29 13.3395 104.252 14.3009 105.438 14.3009V13.442ZM117.033 12.1536C117.033 12.8651 116.456 13.442 115.745 13.442V14.3009C116.931 14.3009 117.892 13.3395 117.892 12.1536H117.033ZM115.745 0.558124C116.456 0.558124 117.033 1.13495 117.033 1.84651H117.892C117.892 0.660583 116.931 -0.300799 115.745 -0.300799V0.558124ZM105.438 -0.300799C104.252 -0.300799 103.29 0.660583 103.29 1.84651H104.149C104.149 1.13495 104.726 0.558124 105.438 0.558124V-0.300799Z" fill="#E5E5E5"/>
<path d="M125.653 4.2071C125.509 4.36944 125.34 4.51374 125.136 4.64601C124.931 4.76626 124.727 4.85044 124.535 4.90455V5.39757C124.937 5.27732 125.274 5.08492 125.545 4.80835V8.5H126.038V4.2071H125.653ZM128.487 4.12293C127.97 4.12293 127.585 4.34539 127.327 4.80234C127.098 5.18713 126.984 5.70421 126.984 6.35355C126.984 7.0029 127.098 7.51997 127.327 7.90477C127.585 8.3557 127.97 8.58417 128.487 8.58417C128.998 8.58417 129.383 8.3557 129.647 7.90477C129.876 7.51997 129.99 7.0029 129.99 6.35355C129.99 5.70421 129.876 5.18713 129.647 4.80234C129.383 4.34539 128.998 4.12293 128.487 4.12293ZM128.487 4.5438C128.872 4.5438 129.148 4.74822 129.317 5.16308C129.437 5.45168 129.503 5.8485 129.503 6.35355C129.503 6.85259 129.437 7.24941 129.317 7.54402C129.148 7.95287 128.872 8.1633 128.487 8.1633C128.102 8.1633 127.826 7.95287 127.657 7.54402C127.537 7.24941 127.477 6.85259 127.477 6.35355C127.477 5.8485 127.537 5.45168 127.657 5.16308C127.826 4.74822 128.102 4.5438 128.487 4.5438Z" fill="#333333"/>
<path d="M122.616 0.558124H132.923V-0.300799H122.616V0.558124ZM134.212 1.84651V12.1536H135.071V1.84651H134.212ZM132.923 13.442H122.616V14.3009H132.923V13.442ZM121.328 12.1536V1.84651H120.469V12.1536H121.328ZM122.616 13.442C121.905 13.442 121.328 12.8651 121.328 12.1536H120.469C120.469 13.3395 121.43 14.3009 122.616 14.3009V13.442ZM134.212 12.1536C134.212 12.8651 133.635 13.442 132.923 13.442V14.3009C134.109 14.3009 135.071 13.3395 135.071 12.1536H134.212ZM132.923 0.558124C133.635 0.558124 134.212 1.13495 134.212 1.84651H135.071C135.071 0.660583 134.109 -0.300799 132.923 -0.300799V0.558124ZM122.616 -0.300799C121.43 -0.300799 120.469 0.660583 120.469 1.84651H121.328C121.328 1.13495 121.905 0.558124 122.616 0.558124V-0.300799Z" fill="#E5E5E5"/>
<path d="M143.948 8.83454L145.789 6.99399L143.948 5.15344L144.255 4.84668L146.402 6.99399L144.255 9.14129L143.948 8.83454Z" fill="#333333"/>
<path d="M150.102 0.558124H139.795V-0.300799H150.102V0.558124ZM138.507 1.84651V12.1536H137.648V1.84651H138.507ZM139.795 13.442H150.102V14.3009H139.795V13.442ZM151.39 12.1536V1.84651H152.249V12.1536H151.39ZM150.102 13.442C150.814 13.442 151.39 12.8651 151.39 12.1536H152.249C152.249 13.3395 151.288 14.3009 150.102 14.3009V13.442ZM138.507 12.1536C138.507 12.8651 139.083 13.442 139.795 13.442V14.3009C138.609 14.3009 137.648 13.3395 137.648 12.1536H138.507ZM139.795 0.558124C139.083 0.558124 138.507 1.13495 138.507 1.84651H137.648C137.648 0.660583 138.609 -0.300799 139.795 -0.300799V0.558124ZM150.102 -0.300799C151.288 -0.300799 152.249 0.660583 152.249 1.84651H151.39C151.39 1.13495 150.814 0.558124 150.102 0.558124V-0.300799Z" fill="#E5E5E5"/>
<path d="M159.214 3.92885V5.75663H159.936V8.34199C159.81 8.38408 159.677 8.42617 159.539 8.46825V6.38794H159.184V8.57047C159.106 8.59452 159.028 8.61255 158.944 8.6366L159.064 9.02741C159.762 8.82299 160.369 8.60654 160.898 8.37205V7.98124C160.718 8.05941 160.519 8.13757 160.315 8.20972V7.13349H160.898V6.74869H160.315V5.75663H160.832V3.92885H159.214ZM160.447 5.39589H159.599V4.28959H160.447V5.39589ZM161.992 6.26168C161.68 6.62243 161.319 6.91704 160.922 7.1395L161.151 7.5243C161.457 7.31987 161.734 7.07336 161.974 6.78476C161.902 7.72872 161.595 8.43218 161.054 8.90115L161.379 9.18374C162.046 8.59452 162.389 7.66258 162.401 6.38794V3.65828H161.992V6.26168ZM163.994 4.40383C163.814 4.8728 163.592 5.26962 163.339 5.60632L163.664 5.8348C163.928 5.48006 164.163 5.05919 164.361 4.57819L163.994 4.40383ZM163.285 6.53224C163.574 6.76673 163.862 7.05533 164.151 7.40405L164.397 7.03128C164.061 6.67053 163.688 6.35788 163.285 6.09333V3.65828H162.87V8.57648C162.87 8.89514 163.02 9.05747 163.333 9.05747H163.802C164 9.05747 164.145 9.00336 164.241 8.89514C164.349 8.76888 164.421 8.40813 164.457 7.8129L164.079 7.69265C164.055 8.16162 164.018 8.45022 163.958 8.55243C163.916 8.62458 163.838 8.66666 163.724 8.66666H163.459C163.339 8.66666 163.285 8.60654 163.285 8.48629V6.53224ZM161.349 4.57218L161 4.74053C161.217 5.08324 161.415 5.46804 161.607 5.90093L161.926 5.74461C161.746 5.31772 161.553 4.92691 161.349 4.57218ZM165.203 3.94688V4.36776H166.88C166.472 5.04115 165.972 5.55221 165.383 5.88891L165.498 6.26769C166.79 6.20156 168.053 6.07529 169.279 5.8829C169.43 6.08131 169.568 6.27371 169.694 6.4661L170.049 6.21358C169.754 5.77467 169.327 5.2576 168.768 4.66838L168.42 4.89084C168.612 5.09526 168.798 5.3057 168.979 5.52215C168.065 5.67246 167.115 5.77467 166.141 5.8348C166.604 5.46202 167.019 4.97501 167.379 4.36776H170.193V3.94688H165.203ZM165.485 7.08539V7.50025H167.488V8.50433H165.065V8.9252H170.356V8.50433H167.933V7.50025H169.905V7.08539H167.933V6.38794H167.488V7.08539H165.485Z" fill="#333333"/>
<rect x="173.222" y="0.343393" width="20.1847" height="13.3133" rx="1.50312" fill="white" stroke="#E5E5E5" stroke-width="0.429461"/>
<path d="M200.203 5.39844H198.435C198.495 5.19402 198.537 4.97156 198.574 4.74309H200.991V4.33424H195.7V4.74309H198.117C198.087 4.97156 198.044 5.18801 197.984 5.39844H196.463V8.25436H196.896V5.81932H199.77V8.24234H200.203V5.39844ZM198.742 8.25436L198.501 8.6091C199.217 8.8496 199.914 9.1863 200.6 9.61318L200.864 9.20433C200.227 8.83156 199.518 8.51891 198.742 8.25436ZM198.123 6.18006V7.13605C198.105 7.66514 197.936 8.09203 197.612 8.42271C197.269 8.74137 196.662 8.9939 195.79 9.1863L196.036 9.57109C196.914 9.36667 197.545 9.08408 197.93 8.71732C198.327 8.3205 198.544 7.79742 198.568 7.13605V6.18006H198.123Z" fill="#333333"/>
</svg>
