<svg width="78" height="20" viewBox="0 0 78 20" fill="none" xmlns="http://www.w3.org/2000/svg">
<path d="M5.15479 12.4427L2.7034 9.9913L5.15479 7.53991L4.74622 7.13135L1.88627 9.9913L4.74622 12.8513L5.15479 12.4427Z" fill="#CCCCCC"/>
<rect x="16.6922" y="1.13414" width="26.8836" height="17.7317" rx="2.00197" fill="white" stroke="#E5E5E5" stroke-width="0.571991"/>
<path d="M35.4077 7.27847C35.2155 7.49468 34.9913 7.68687 34.7191 7.86305C34.4468 8.0232 34.1745 8.13531 33.9183 8.20738V8.86403C34.4548 8.70387 34.9032 8.44762 35.2636 8.07926V12.9961H35.9202V7.27847H35.4077Z" fill="#333333"/>
<path d="M51.5766 6.42964L48.7338 13.7969H49.3104L52.1451 6.42964H51.5766ZM56.9499 7.27847C56.7577 7.49468 56.5335 7.68687 56.2613 7.86305C55.989 8.0232 55.7167 8.13531 55.4605 8.20739V8.86403C55.997 8.70387 56.4454 8.44762 56.8058 8.07926V12.9961H57.4624V7.27847H56.9499ZM60.164 7.27847C59.9718 7.49468 59.7476 7.68687 59.4754 7.86305C59.2031 8.0232 58.9308 8.13531 58.6746 8.20739V8.86403C59.2111 8.70387 59.6595 8.44762 60.0199 8.07926V12.9961H60.6765V7.27847H60.164Z" fill="#333333"/>
<path d="M72.8452 12.4427L75.2966 9.9913L72.8452 7.53991L73.2538 7.13135L76.1137 9.9913L73.2538 12.8513L72.8452 12.4427Z" fill="#333333"/>
</svg>
