<?xml version="1.0" encoding="UTF-8"?>
<svg width="118px" height="32px" viewBox="0 0 118 32" version="1.1" xmlns="http://www.w3.org/2000/svg" xmlns:xlink="http://www.w3.org/1999/xlink">
    <!-- Generator: Sketch 49 (51002) - http://www.bohemiancoding.com/sketch -->
    <title>logo-sm-inverse</title>
    <desc>Created with Sketch.</desc>
    <defs></defs>
    <g id="Page-1" stroke="none" stroke-width="1" fill="none" fill-rule="evenodd">
        <g id="logo-sm-inverse" fill="#FFFFFF" fill-rule="nonzero">
            <path d="M28.9233624,19.9027198 C28.7387998,20.0878757 28.4877834,20.1919928 28.2259525,20.1919928 C27.9641216,20.1919928 27.7131052,20.0878757 27.5285426,19.9027198 L24.7034023,17.0779603 C24.3505329,16.6884405 24.364998,16.0917654 24.7363306,15.7196957 L27.5264846,12.9293032 C27.8976498,12.5570685 28.4969798,12.5421477 28.8863181,12.8954492 L28.9207898,12.9303291 L31.7109439,15.7207216 C32.096352,16.1064231 32.096352,16.7302164 31.7109439,17.1159179 L28.9233624,19.9027198 Z M7.39125119,17.141288 L14.8117927,24.584049 C15.1842442,24.9576069 15.7845853,24.9723871 16.1749706,24.6176098 L21.3901587,19.3867661 C21.5755214,19.2006449 21.8273902,19.0960181 22.0900783,19.0960181 C22.3527664,19.0960181 22.6046353,19.2006449 22.7899979,19.3867661 L25.3103279,21.9167369 C25.6965574,22.305214 25.6965574,22.9326518 25.3103279,23.3211288 L17.4699896,31.1857237 C16.950909,31.7069768 16.2455584,32 15.509905,32 C14.7742516,32 14.068901,31.7069768 13.5498204,31.1857237 L0.811336058,18.4062734 C-0.270445353,17.3186774 -0.270445353,15.5615718 0.811336058,14.4739759 L14.951725,0.290133571 C15.3242043,-0.0835363223 15.9247531,-0.098094102 16.3149029,0.257089055 L18.8342002,2.78499456 C19.2561075,3.20834793 19.2561075,3.83625273 18.8693123,4.2244963 L7.38866941,15.738445 C7.00502174,16.1253731 7.00502174,16.7528109 7.39125119,17.141288 Z" id="椭圆_1_拷贝_17"></path>
            <path d="M117.451613,25.8141935 C117.45175,25.8880645 117.422501,25.9589567 117.370315,26.0112398 C117.318129,26.0635229 117.24729,26.0929033 117.173419,26.0929032 L114.946839,26.0929032 C114.872968,26.0929033 114.80213,26.0635229 114.749943,26.0112398 C114.697757,25.9589567 114.668508,25.8880645 114.668645,25.8141935 L114.668645,16.6787097 C114.636129,16.603871 114.601548,16.3896774 114.565419,16.3174194 C114.249172,15.2559782 113.273486,14.5281492 112.165935,14.5274839 L111.609548,14.5274839 C110.723349,14.5280312 109.873663,14.8805977 109.247413,15.5076226 C108.621162,16.1346475 108.269646,16.9847682 108.270194,17.8709677 L108.270194,25.8141935 C108.270194,25.9679193 108.145725,26.0926185 107.992,26.0929032 L105.765419,26.0929032 C105.691548,26.0929033 105.62071,26.0635229 105.568524,26.0112398 C105.516338,25.9589567 105.487089,25.8880645 105.487226,25.8141935 L105.487226,12.5790968 C105.487089,12.5052259 105.516338,12.4343336 105.568524,12.3820505 C105.62071,12.3297674 105.691548,12.300387 105.765419,12.3003871 L107.992,12.3003871 C108.145725,12.3006718 108.270194,12.425371 108.270194,12.5790968 L108.270194,14.4247742 C109.128598,13.0183351 110.657587,12.1605524 112.30529,12.1610323 L112.722839,12.1610323 C115.336311,12.1638813 117.453039,14.2840748 117.451613,16.8975484 C117.451613,16.932129 117.448516,16.9656774 117.448,17.0007742 C117.44997,17.0130749 117.451176,17.0254857 117.451613,17.0379355 L117.451613,25.8141935 Z M95.7447742,26.0929032 C92.9256501,26.0970797 90.381792,24.4020945 89.300065,21.7987611 C88.2183375,19.1954277 88.8119174,16.1967862 90.8038632,14.201885 C92.795809,12.2069838 95.793567,11.608959 98.3985012,12.6868254 C101.003435,13.7646919 102.70219,16.3060341 102.702194,19.1251613 C102.7037,20.9717945 101.971501,22.7433777 100.666702,24.0501126 C99.3619035,25.3568475 97.5914075,26.0916717 95.7447742,26.0929032 Z M95.7447742,14.9476129 C94.0532996,14.945107 92.5269848,15.9620982 91.8779484,17.5240982 C91.228912,19.0860982 91.5850601,20.8852831 92.7802276,22.0822238 C93.9753951,23.2791645 95.7740501,23.6379794 97.3370106,22.9912596 C98.8999711,22.3445397 99.9192237,20.8197344 99.9192258,19.1282581 C99.9203215,18.0202195 99.4810637,16.9571582 98.698143,16.1730757 C97.9152222,15.3889931 96.8528129,14.9481601 95.7447742,14.9476129 Z M84.9989677,9.77083871 C84.8969858,9.8732097 84.7584351,9.93075396 84.6139355,9.93075396 C84.4694359,9.93075396 84.3308852,9.8732097 84.2289032,9.77083871 L82.6686452,8.20903226 C82.4735969,7.99369192 82.4815396,7.66326808 82.6867097,7.45754839 L84.227871,5.91483871 C84.4329543,5.709608 84.7630792,5.70165595 84.9778065,5.89677419 L84.9969032,5.91587097 L86.5380645,7.45858065 C86.6409394,7.56113326 86.6987613,7.70041806 86.6987613,7.84567742 C86.6987613,7.99093677 86.6409394,8.13022157 86.5380645,8.23277419 L84.9989677,9.77083871 Z M76.4967742,18.0412903 C78.7259355,18.5832258 80.4389677,19.3734194 80.4389677,21.9122581 C80.4389677,24.9656774 77.6988387,26.2312258 75.0123871,26.2312258 C72.9101935,26.2312258 71.2642581,25.7228387 69.9569032,24.1347097 C69.9419355,24.116129 69.9254194,24.0990968 69.912,24.0789677 C69.8296186,23.9410697 69.8454575,23.7657984 69.9512258,23.6449032 C69.9672258,23.6299355 69.9858065,23.6165161 70.0028387,23.6015484 L71.3834839,22.4660645 C71.4046452,22.4485161 71.4263226,22.4325161 71.4449032,22.4144516 C71.5034973,22.3509747 71.5879277,22.3178172 71.6740583,22.3244581 C71.7601889,22.331099 71.8385388,22.3768073 71.8867097,22.4485161 C71.9002699,22.4640462 71.9153084,22.4782204 71.9316129,22.4908387 C72.7369161,23.3364427 73.8440805,23.8290725 75.0113548,23.8611613 C76.3259355,23.8611613 77.6549677,23.220129 77.6549677,22.0500645 C77.6549677,20.5089032 75.5522581,20.2952258 74.4374194,20.0371613 C72.2366452,19.4952258 70.28,18.7984516 70.28,16.1997419 C70.28,13.3744516 72.8941935,12.0190968 75.4381935,12.0190968 C77.1357419,12.0190968 78.883871,12.5770323 79.8929032,13.9803871 C79.9197419,14.0175484 79.9445161,14.0578065 79.971871,14.0939355 C80.044129,14.1863226 80.0307097,14.2756129 79.8779355,14.3896774 L79.8299355,14.4258065 L78.3197419,15.5674839 C78.3058065,15.5778065 78.2923871,15.5891613 78.2789677,15.5984516 C78.1575886,15.6758156 77.9989068,15.6593486 77.896,15.5587097 C77.8866797,15.5456904 77.8757548,15.5338985 77.8634839,15.5236129 C77.2072397,14.7946198 76.2703855,14.3813292 75.2895484,14.388129 C74.0890323,14.388129 73.0629677,14.9501935 73.0629677,15.9205161 C73.0645161,17.5489032 75.3535484,17.7842581 76.4967742,18.0412903 Z M66.8028387,25.9535484 L64.5762581,25.9535484 C64.5023871,25.9535485 64.4315489,25.9241681 64.3793626,25.871885 C64.3271768,25.8196019 64.2979272,25.7487096 64.2980645,25.6748387 L64.2980645,23.8291613 C63.4394431,25.2353749 61.9105925,26.0930801 60.2629677,26.0929032 L59.8454194,26.0929032 C58.5898596,26.092219 57.3860108,25.5927229 56.4987768,24.7043273 C55.6115427,23.8159316 55.1136222,22.6114307 55.1145806,21.355871 L55.1145806,12.4397419 C55.1144434,12.365871 55.1436929,12.2949787 55.1958787,12.2426956 C55.248065,12.1904125 55.3189032,12.1610322 55.3927742,12.1610323 L57.6188387,12.1610323 C57.6927097,12.1610322 57.7635479,12.1904125 57.8157342,12.2426956 C57.86792,12.2949787 57.8971695,12.365871 57.8970323,12.4397419 L57.8970323,21.5726452 C57.9300645,21.648 57.9646452,21.8616774 58.0002581,21.9339355 C58.3161166,22.9955008 59.2916671,23.7235956 60.3992258,23.7243871 L60.956129,23.7243871 C62.8014261,23.7229624 64.2963396,22.2262005 64.2954839,20.3809032 L64.2954839,12.4397419 C64.2953466,12.365871 64.3245961,12.2949787 64.3767819,12.2426956 C64.4289683,12.1904125 64.4998065,12.1610322 64.5736774,12.1610323 L66.8002581,12.1610323 C66.9539835,12.161317 67.0784521,12.2860162 67.0784516,12.4397419 L67.0784516,25.6748387 C67.0784609,25.8275645 66.9555551,25.9518515 66.8028387,25.9535484 Z M46.3486452,26.0536774 C46.3065592,26.0790303 46.2584217,26.0925801 46.2092903,26.0929032 L46.1421935,26.0929032 L44.0162581,26.0892903 C44.0051746,26.0912853 43.9939638,26.0924926 43.9827097,26.0929032 C43.9531518,26.0925429 43.9238557,26.0873115 43.896,26.0774194 L35.8903226,6.25806452 C35.8347728,6.14199613 35.795354,6.01887737 35.7731613,5.89212903 C35.8232433,5.7876529 35.9376913,5.73032274 36.0513548,5.75277419 L36.0596129,5.75277419 L38.5556129,5.75277419 C38.6061923,5.75289801 38.6557234,5.76720305 38.6985806,5.79406452 L45.1150968,21.6815484 L51.5419355,5.76980645 C51.5715902,5.75839783 51.6030658,5.75245249 51.6348387,5.75225806 L54.1437419,5.75225806 C54.246912,5.75359484 54.3408341,5.81202643 54.3876258,5.90398514 C54.4344175,5.9959439 54.4263628,6.10626488 54.3667097,6.19045161 L46.3486452,26.0536774 Z M83.500129,12.1610323 L85.7261935,12.1610323 C85.8801208,12.1610323 86.0049032,12.2858148 86.0049032,12.4397419 L86.0049032,25.8141935 C86.0049032,25.9681207 85.8801208,26.0929032 85.7261935,26.0929032 L83.500129,26.0929032 C83.4262581,26.0929033 83.3554199,26.0635229 83.3032335,26.0112398 C83.2510477,25.9589567 83.2217982,25.8880645 83.2219355,25.8141935 L83.2219355,12.4397419 C83.2217982,12.365871 83.2510477,12.2949787 83.3032335,12.2426956 C83.3554199,12.1904125 83.4262581,12.1610322 83.500129,12.1610323 Z" id="矩形_10_拷贝_3"></path>
        </g>
    </g>
</svg>