<svg xmlns="http://www.w3.org/2000/svg" width="16" height="16" viewBox="0 0 16 16" fill="none">
<path d="M9.31796 10.1667C8.55128 10.7543 7.59228 11.1034 6.55172 11.1034C4.03788 11.1034 2 9.06557 2 6.55172C2 4.03788 4.03788 2 6.55172 2C9.06557 2 11.1034 4.03788 11.1034 6.55172C11.1034 7.5924 10.7542 8.55151 10.1665 9.31823L13.4242 12.576L12.5757 13.4245L9.31796 10.1667ZM9.90345 6.55172C9.90345 4.70062 8.40283 3.2 6.55172 3.2C4.70062 3.2 3.2 4.70062 3.2 6.55172C3.2 8.40283 4.70062 9.90345 6.55172 9.90345C8.40283 9.90345 9.90345 8.40283 9.90345 6.55172Z" fill="white"/>
</svg>