<svg width="16" height="16" viewBox="0 0 16 16" fill="none" xmlns="http://www.w3.org/2000/svg">
<path d="M7.14266 1.30005C3.91574 1.30005 1.2998 3.91598 1.2998 7.14291C1.2998 10.3698 3.91574 12.9858 7.14266 12.9858C8.50387 12.9858 9.75635 12.5203 10.7496 11.7398L14.0048 14.995C14.0048 14.995 14.2266 14.7734 14.5 14.5001C14.7734 14.2267 14.9948 14.0051 14.9948 14.0051L11.7396 10.7499C12.52 9.7566 12.9855 8.50411 12.9855 7.14291C12.9855 3.91598 10.3696 1.30005 7.14266 1.30005ZM2.6998 7.14291C2.6998 4.68918 4.68894 2.70005 7.14266 2.70005C9.59638 2.70005 11.5855 4.68918 11.5855 7.14291C11.5855 9.59663 9.59638 11.5858 7.14266 11.5858C4.68894 11.5858 2.6998 9.59663 2.6998 7.14291Z" fill="#CCCCCC"/>
</svg>
